<?xml version="1.0" encoding="utf-8"?>
<!-- Generator: Adobe Illustrator 25.0.0, SVG Export Plug-In . SVG Version: 6.00 Build 0)  -->
<svg version="1.1"
	 id="svg16" xmlns:cc="http://creativecommons.org/ns#" xmlns:dc="http://purl.org/dc/elements/1.1/" xmlns:inkscape="http://www.inkscape.org/namespaces/inkscape" xmlns:rdf="http://www.w3.org/1999/02/22-rdf-syntax-ns#" xmlns:sodipodi="http://sodipodi.sourceforge.net/DTD/sodipodi-0.dtd" xmlns:svg="http://www.w3.org/2000/svg"
	 xmlns="http://www.w3.org/2000/svg" xmlns:xlink="http://www.w3.org/1999/xlink" x="0px" y="0px" viewBox="0 0 128 128"
	 style="enable-background:new 0 0 128 128;" xml:space="preserve">
<style type="text/css">
	.st0{fill:#DDDDDD;}
</style>
<path class="st0" d="M24.4,19.6h-2.6c-3.5,0-6.4,2.8-6.4,6.4v2.6c0,3.5,2.8,6.4,6.4,6.4h2.6c3.5,0,6.4-2.8,6.4-6.4V26
	C30.7,22.4,27.8,19.6,24.4,19.6z"/>
<path class="st0" d="M105.2,22H51.8c-1.8,0-3.3,1.4-3.3,3.3v4c0,1.8,1.4,3.3,3.3,3.3h53.3c1.8,0,3.3-1.4,3.3-3.3v-4
	C108.4,23.5,107,22,105.2,22z"/>
<path class="st0" d="M25.2,93.1h-2.6c-3.5,0-6.4,2.8-6.4,6.4v2.6c0,3.5,2.8,6.4,6.4,6.4h2.6c3.5,0,6.4-2.8,6.4-6.4v-2.6
	C31.5,96.1,28.6,93.1,25.2,93.1z"/>
<path class="st0" d="M105.2,95.5H51.8c-1.8,0-3.3,1.4-3.3,3.3v4c0,1.8,1.4,3.3,3.3,3.3h53.3c1.8,0,3.3-1.4,3.3-3.3v-4
	C108.4,97,107,95.5,105.2,95.5z"/>
<path class="st0" d="M25.2,56.3h-2.6c-3.5,0-6.4,2.8-6.4,6.4v2.6c0,3.5,2.8,6.4,6.4,6.4h2.6c3.5,0,6.4-2.8,6.4-6.4v-2.6
	C31.5,59.1,28.6,56.3,25.2,56.3z"/>
<path class="st0" d="M105.2,58.7H51.8c-1.8,0-3.3,1.4-3.3,3.3v3.9c0,1.8,1.4,3.3,3.3,3.3h53.3c1.8,0,3.3-1.4,3.3-3.3v-4
	C108.4,60.2,107,58.7,105.2,58.7z"/>
</svg>
