<?xml version="1.0" encoding="utf-8"?>
<!-- Generator: Adobe Illustrator 25.0.0, SVG Export Plug-In . SVG Version: 6.00 Build 0)  -->
<svg version="1.1"
	 id="svg16" inkscape:version="0.92.2 (5c3e80d, 2017-08-06)" xmlns:cc="http://creativecommons.org/ns#" xmlns:dc="http://purl.org/dc/elements/1.1/" xmlns:inkscape="http://www.inkscape.org/namespaces/inkscape" xmlns:rdf="http://www.w3.org/1999/02/22-rdf-syntax-ns#" xmlns:sodipodi="http://sodipodi.sourceforge.net/DTD/sodipodi-0.dtd" xmlns:svg="http://www.w3.org/2000/svg"
	 xmlns="http://www.w3.org/2000/svg" xmlns:xlink="http://www.w3.org/1999/xlink" x="0px" y="0px" viewBox="0 0 512 512"
	 style="enable-background:new 0 0 512 512;" xml:space="preserve">
<style type="text/css">
	.st0{fill:#424242;}
</style>
<sodipodi:namedview  bordercolor="#666666" borderopacity="1" gridtolerance="10" guidetolerance="10" id="namedview18" inkscape:current-layer="svg16" inkscape:cx="256" inkscape:cy="256" inkscape:pageopacity="0" inkscape:pageshadow="2" inkscape:window-height="986" inkscape:window-maximized="1" inkscape:window-width="1920" inkscape:window-x="-11" inkscape:window-y="-11" inkscape:zoom="0.4609375" objecttolerance="10" pagecolor="#ffffff" showgrid="false">
	</sodipodi:namedview>
<g>
	<path class="st0" d="M89.8,62.9H78.6c-15.2,0-27.6,12.3-27.6,27.6v11.2c0,15.2,12.3,27.6,27.6,27.6h11.2
		c15.2,0,27.6-12.3,27.6-27.6V90.4C117.4,75.2,105,62.9,89.8,62.9z"/>
	<path class="st0" d="M440.5,73.1H205.5c-8,0-14.5,6.5-14.5,14.5v17c0,8,6.5,14.5,14.5,14.5h235.1c8,0,14.5-6.5,14.5-14.5v-17
		C455,79.6,448.5,73.1,440.5,73.1z"/>
</g>
<g>
	<path class="st0" d="M92.8,382.8H81.6c-15.2,0-27.6,12.3-27.6,27.6v11.2c0,15.2,12.3,27.6,27.6,27.6h11.2
		c15.2,0,27.6-12.3,27.6-27.6v-11.2C120.4,395.1,108,382.8,92.8,382.8z"/>
	<path class="st0" d="M440.5,393H205.5c-8,0-14.5,6.5-14.5,14.5v17c0,8,6.5,14.5,14.5,14.5h235.1c8,0,14.5-6.5,14.5-14.5v-17
		C455,399.5,448.5,393,440.5,393z"/>
</g>
<g>
	<path class="st0" d="M92.8,222.8H81.6c-15.2,0-27.6,12.3-27.6,27.6v11.2c0,15.2,12.3,27.6,27.6,27.6h11.2
		c15.2,0,27.6-12.3,27.6-27.6v-11.2C120.4,235.2,108,222.8,92.8,222.8z"/>
	<path class="st0" d="M440.5,233H205.5c-8,0-14.5,6.5-14.5,14.5v17c0,8,6.5,14.5,14.5,14.5h235.1c8,0,14.5-6.5,14.5-14.5v-17
		C455,239.5,448.5,233,440.5,233z"/>
</g>
</svg>
