<?xml version="1.0" encoding="utf-8"?>
<!-- Generator: Adobe Illustrator 25.0.0, SVG Export Plug-In . SVG Version: 6.00 Build 0)  -->
<svg version="1.1" id="图层_1" xmlns="http://www.w3.org/2000/svg" xmlns:xlink="http://www.w3.org/1999/xlink" x="0px" y="0px"
	 viewBox="0 0 128 128" style="enable-background:new 0 0 128 128;" xml:space="preserve">
<style type="text/css">
	.st0{fill:none;stroke:#DDDDDD;stroke-width:8.275;stroke-miterlimit:10;}
	.st1{display:none;fill:none;stroke:#DDDDDD;stroke-width:6.6;stroke-miterlimit:10;}
	.st2{fill:none;stroke:#DDDDDD;stroke-width:9.5288;stroke-linecap:round;stroke-miterlimit:10;}
</style>
<path class="st0" d="M118.3,65.5v34.7c0,6.8-5.5,12.3-12.3,12.3H22.1c-6.8,0-12.3-5.5-12.3-12.3V26.6c0-6,5-11,11-11h57.5
	c4.8,0,11.4,4.4,13.8,7.5l22.7,31.3C117.4,58,118.3,61.1,118.3,65.5z"/>
<path class="st0" d="M81.9,112.4H46.2c-4.8,0-8.5-3.9-8.5-8.5V79.5c0-6,5-11,11-11h30.7c6,0,11,5,11,11v24.3
	C90.4,108.5,86.6,112.4,81.9,112.4z"/>
<path class="st1" d="M60.8,47.3h-16c-3.5,0-6.4-2.8-6.4-6.4V25.4H67v15.5C67.2,44.5,64.3,47.3,60.8,47.3z"/>
<line class="st2" x1="35.5" y1="39.9" x2="65" y2="39.9"/>
</svg>
