<?xml version="1.0" encoding="utf-8"?>
<!-- Generator: Adobe Illustrator 25.0.0, SVG Export Plug-In . SVG Version: 6.00 Build 0)  -->
<svg version="1.1" id="图层_2_1_" xmlns="http://www.w3.org/2000/svg" xmlns:xlink="http://www.w3.org/1999/xlink" x="0px"
	 y="0px" viewBox="0 0 512 512" style="enable-background:new 0 0 512 512;" xml:space="preserve">
<style type="text/css">
	.st0{fill:none;stroke:#424242;stroke-width:40;stroke-miterlimit:10;}
	.st1{fill:#424242;}
</style>
<path class="st0" d="M424.4,450.1H87.6c-31.6,0-57.2-25.6-57.2-57.2V119.1c0-31.6,25.6-57.2,57.2-57.2h336.9
	c31.6,0,57.2,25.6,57.2,57.2v273.8C481.7,424.5,456,450.1,424.4,450.1z"/>
<path class="st1" d="M149.5,151.4l-18.2,18.2c-2.7,2.7-2.7,7.2,0,9.9l65.8,65.8c5.9,5.9,5.9,15.4,0,21.2l-65.8,65.8
	c-2.7,2.7-2.7,7.2,0,9.9l18.2,18.2c2.7,2.7,7.2,2.7,9.9,0l86.5-86.5c10-10,10-26.2,0-36.2l-86.5-86.5
	C156.7,148.7,152.2,148.7,149.5,151.4z"/>
<path class="st1" d="M378.9,376.1H273.4c-5.2,0-9.4-4.2-9.4-9.4v-21c0-5.2,4.2-9.4,9.4-9.4h105.5c5.2,0,9.4,4.2,9.4,9.4v21
	C388.3,371.9,384.1,376.1,378.9,376.1z"/>
</svg>
