<?xml version="1.0" encoding="utf-8"?>
<!-- Generator: Adobe Illustrator 25.0.0, SVG Export Plug-In . SVG Version: 6.00 Build 0)  -->
<svg version="1.1" id="图层_2_1_" xmlns="http://www.w3.org/2000/svg" xmlns:xlink="http://www.w3.org/1999/xlink" x="0px"
	 y="0px" viewBox="0 0 128 128" style="enable-background:new 0 0 128 128;" xml:space="preserve">
<style type="text/css">
	.st0{fill:none;stroke:#DDDDDD;stroke-width:9.2615;stroke-miterlimit:10;}
	.st1{fill:#DDDDDD;}
</style>
<path class="st0" d="M103.4,109.6h-79c-7.4,0-13.4-5.9-13.4-13.4V31.8c0-7.4,5.9-13.4,13.4-13.4h79.1c7.4,0,13.4,5.9,13.4,13.4v64.3
	C117,103.6,110.9,109.6,103.4,109.6z"/>
<path class="st1" d="M38.9,39.4l-4.2,4.2c-0.6,0.6-0.6,1.8,0,2.5l15.4,15.4c1.4,1.4,1.4,3.6,0,5L34.7,81.9c-0.6,0.6-0.6,1.8,0,2.5
	l4.3,4.3c0.6,0.6,1.8,0.6,2.5,0l20.3-20.3c2.5-2.5,2.5-6.1,0-8.4L41.5,39.4C40.7,38.8,39.5,38.8,38.9,39.4z"/>
<path class="st1" d="M92.8,92.2H68.1c-1.1,0-2.3-1-2.3-2.3v-5c0-1.1,1-2.3,2.3-2.3h24.8c1.1,0,2.3,1,2.3,2.3V90
	C95,91.3,94.1,92.2,92.8,92.2z"/>
</svg>
