<svg xmlns="http://www.w3.org/2000/svg" width="16" height="16" viewBox="0 0 16 16"><path d="M7.587 0.030 C 7.287 0.073,7.000 0.163,6.707 0.304 C 5.733 0.772,5.123 1.655,5.014 2.750 C 4.950 3.394,5.133 4.104,5.509 4.670 C 5.577 4.772,5.728 4.957,5.845 5.080 L 6.057 5.305 5.986 5.398 L 5.915 5.492 3.871 5.499 L 1.827 5.507 1.674 5.582 C 1.044 5.891,1.144 6.794,1.828 6.972 C 1.960 7.007,2.239 7.013,3.641 7.013 L 5.297 7.013 5.023 9.460 C 4.873 10.806,4.658 12.670,4.545 13.604 C 4.345 15.268,4.342 15.304,4.383 15.446 C 4.440 15.640,4.575 15.811,4.750 15.907 C 4.876 15.977,4.919 15.987,5.107 15.986 C 5.351 15.986,5.477 15.934,5.643 15.769 C 5.815 15.597,5.828 15.538,5.973 14.330 C 6.046 13.716,6.113 13.168,6.122 13.113 L 6.138 13.013 8.000 13.013 L 9.862 13.013 9.878 13.113 C 9.886 13.168,9.954 13.716,10.027 14.331 C 10.172 15.538,10.186 15.597,10.357 15.769 C 10.523 15.934,10.649 15.986,10.893 15.986 C 11.081 15.987,11.124 15.977,11.250 15.907 C 11.425 15.811,11.560 15.640,11.617 15.446 C 11.658 15.303,11.655 15.270,11.468 13.723 C 11.364 12.856,11.149 10.992,10.991 9.580 L 10.704 7.013 12.360 7.013 C 14.158 7.013,14.205 7.010,14.425 6.865 C 14.682 6.695,14.808 6.331,14.717 6.026 C 14.666 5.856,14.509 5.676,14.334 5.587 L 14.177 5.507 12.131 5.499 L 10.085 5.492 10.014 5.398 L 9.943 5.305 10.154 5.082 C 10.927 4.265,11.186 3.163,10.856 2.096 C 10.432 0.724,9.007 -0.177,7.587 0.030 M8.467 1.579 C 8.906 1.723,9.298 2.121,9.434 2.560 C 9.497 2.761,9.497 3.239,9.434 3.440 C 9.376 3.629,9.219 3.886,9.067 4.044 C 8.485 4.647,7.515 4.647,6.933 4.044 C 6.781 3.886,6.624 3.629,6.566 3.440 C 6.503 3.239,6.503 2.761,6.566 2.560 C 6.694 2.145,7.054 1.763,7.472 1.598 C 7.755 1.486,8.161 1.478,8.467 1.579 M8.216 6.027 C 8.684 6.116,9.078 6.496,9.173 6.951 C 9.199 7.072,9.680 11.340,9.680 11.445 C 9.680 11.491,9.603 11.493,8.000 11.493 C 6.322 11.493,6.320 11.493,6.320 11.438 C 6.320 11.334,6.801 7.079,6.827 6.951 C 6.935 6.429,7.431 6.019,7.976 6.003 C 8.029 6.001,8.137 6.012,8.216 6.027 " stroke="none" fill-rule="evenodd" fill="black"></path></svg>