<svg xmlns="http://www.w3.org/2000/svg" width="24" height="24" viewBox="0 0 24 24"><path d="M11.440 2.062 C 10.928 2.173,10.382 2.518,10.049 2.940 C 9.916 3.109,1.003 18.477,0.769 18.940 C 0.547 19.381,0.476 19.937,0.577 20.444 C 0.774 21.428,1.467 22.166,2.440 22.430 C 2.685 22.496,3.247 22.500,12.000 22.500 C 20.753 22.500,21.315 22.496,21.560 22.430 C 22.030 22.302,22.389 22.096,22.720 21.763 C 23.447 21.031,23.664 19.995,23.284 19.080 C 23.130 18.710,14.145 3.184,13.937 2.929 C 13.334 2.187,12.386 1.858,11.440 2.062 M12.420 3.596 C 12.508 3.637,12.637 3.731,12.707 3.805 C 12.777 3.879,14.878 7.475,17.375 11.795 C 20.833 17.776,21.923 19.692,21.943 19.825 C 22.005 20.242,21.822 20.638,21.463 20.859 L 21.266 20.980 12.000 20.980 L 2.734 20.980 2.537 20.859 C 2.178 20.638,1.995 20.243,2.057 19.824 C 2.077 19.690,3.149 17.805,6.625 11.794 C 9.122 7.474,11.223 3.879,11.293 3.805 C 11.479 3.608,11.694 3.522,12.000 3.522 C 12.169 3.522,12.316 3.548,12.420 3.596 M11.595 8.635 C 11.244 8.857,11.260 8.722,11.260 11.500 C 11.260 13.898,11.261 13.943,11.344 14.100 C 11.610 14.610,12.390 14.610,12.656 14.100 C 12.739 13.943,12.740 13.898,12.740 11.500 C 12.740 9.171,12.736 9.053,12.663 8.905 C 12.479 8.533,11.961 8.402,11.595 8.635 M11.617 16.577 C 11.271 16.727,11.001 17.133,11.001 17.500 C 11.001 17.760,11.139 18.057,11.348 18.245 C 11.845 18.693,12.616 18.522,12.906 17.900 C 13.135 17.408,12.887 16.789,12.374 16.575 C 12.208 16.505,11.778 16.506,11.617 16.577 " stroke="none" fill-rule="evenodd" fill="black"></path></svg>