<svg xmlns="http://www.w3.org/2000/svg" width="16" height="16" viewBox="0 0 16 16"><path d="M7.573 0.175 C 7.151 0.286,6.744 0.583,6.523 0.943 C 6.459 1.048,5.040 3.689,3.370 6.813 C 1.343 10.606,0.308 12.569,0.256 12.720 C 0.186 12.920,0.177 12.983,0.177 13.253 C 0.177 13.518,0.187 13.589,0.251 13.773 C 0.347 14.053,0.452 14.234,0.635 14.431 C 0.880 14.695,1.182 14.872,1.547 14.963 C 1.765 15.018,14.235 15.018,14.453 14.963 C 14.818 14.872,15.120 14.695,15.365 14.431 C 15.548 14.233,15.654 14.052,15.749 13.773 C 15.811 13.590,15.822 13.516,15.822 13.253 C 15.823 12.981,15.814 12.921,15.744 12.720 C 15.692 12.569,14.655 10.603,12.630 6.813 C 10.960 3.689,9.541 1.048,9.477 0.943 C 9.253 0.578,8.845 0.283,8.414 0.174 C 8.215 0.123,7.770 0.124,7.573 0.175 M8.157 1.700 C 8.204 1.745,9.428 4.009,11.277 7.471 C 13.628 11.874,14.320 13.190,14.320 13.261 C 14.320 13.325,14.299 13.374,14.250 13.423 L 14.179 13.493 8.000 13.493 L 1.821 13.493 1.750 13.423 C 1.701 13.374,1.680 13.325,1.680 13.261 C 1.680 13.189,2.368 11.879,4.723 7.471 C 6.576 4.002,7.796 1.745,7.843 1.700 C 7.892 1.654,7.950 1.627,8.000 1.627 C 8.050 1.627,8.108 1.654,8.157 1.700 M7.649 5.101 C 7.464 5.196,7.331 5.357,7.279 5.549 C 7.261 5.617,7.254 6.139,7.259 7.060 L 7.267 8.467 7.350 8.613 C 7.453 8.796,7.618 8.919,7.836 8.974 C 7.984 9.012,8.015 9.012,8.160 8.976 C 8.434 8.905,8.618 8.742,8.708 8.488 C 8.754 8.361,8.763 5.701,8.719 5.542 C 8.669 5.360,8.530 5.194,8.349 5.100 C 8.208 5.027,8.153 5.013,8.000 5.013 C 7.847 5.013,7.791 5.027,7.649 5.101 M7.734 10.043 C 7.363 10.143,7.088 10.447,7.016 10.840 C 6.937 11.267,7.184 11.722,7.600 11.916 C 7.725 11.974,7.784 11.984,8.000 11.984 C 8.216 11.984,8.275 11.974,8.400 11.916 C 8.816 11.722,9.063 11.267,8.984 10.840 C 8.911 10.441,8.636 10.141,8.254 10.041 C 8.061 9.991,7.926 9.991,7.734 10.043 " stroke="none" fill-rule="evenodd" fill="black"></path></svg>