<svg xmlns="http://www.w3.org/2000/svg" width="12" height="12" viewBox="0 0 12 12"><path d="M5.700 0.071 C 5.436 0.128,5.136 0.321,4.968 0.540 C 4.836 0.712,0.138 9.126,0.082 9.290 C 0.017 9.480,0.002 9.779,0.048 9.985 C 0.153 10.457,0.504 10.825,0.990 10.973 C 1.104 11.007,1.330 11.009,5.900 11.016 C 9.384 11.020,10.733 11.016,10.849 10.999 C 11.281 10.938,11.655 10.670,11.841 10.290 C 11.946 10.077,11.980 9.930,11.980 9.700 C 11.980 9.495,11.947 9.334,11.872 9.168 C 11.775 8.956,7.112 0.645,7.031 0.540 C 6.728 0.147,6.204 -0.037,5.700 0.071 M7.000 5.000 L 7.000 7.000 6.000 7.000 L 5.000 7.000 5.000 5.000 L 5.000 3.000 6.000 3.000 L 7.000 3.000 7.000 5.000 M6.191 8.022 C 6.593 8.095,6.919 8.436,6.983 8.848 C 7.077 9.447,6.605 10.000,6.000 10.000 C 5.516 10.000,5.091 9.634,5.017 9.152 C 4.967 8.832,5.066 8.530,5.298 8.298 C 5.542 8.054,5.849 7.959,6.191 8.022 " stroke="none" fill-rule="evenodd" fill="black"></path></svg>