<svg xmlns="http://www.w3.org/2000/svg" width="16" height="16" viewBox="0 0 16 16"><path d="M3.009 1.522 C 2.634 1.572,2.291 1.745,2.018 2.019 C 1.815 2.225,1.674 2.453,1.579 2.733 L 1.507 2.947 1.507 4.493 L 1.507 6.040 1.585 6.278 C 1.731 6.723,2.043 7.091,2.452 7.301 C 2.830 7.495,2.854 7.497,4.587 7.488 L 6.120 7.480 6.333 7.399 C 6.836 7.210,7.210 6.836,7.399 6.333 L 7.480 6.120 7.488 4.587 C 7.497 2.850,7.495 2.832,7.298 2.444 C 7.148 2.149,6.868 1.867,6.573 1.715 C 6.172 1.508,6.215 1.512,4.613 1.505 C 3.829 1.501,3.107 1.509,3.009 1.522 M10.040 1.519 C 9.469 1.591,8.956 1.946,8.702 2.444 C 8.505 2.831,8.503 2.850,8.512 4.587 L 8.520 6.120 8.601 6.333 C 8.791 6.836,9.164 7.210,9.667 7.399 L 9.880 7.480 11.413 7.488 C 13.146 7.497,13.170 7.495,13.548 7.301 C 13.957 7.091,14.269 6.723,14.415 6.278 L 14.493 6.040 14.493 4.493 L 14.493 2.947 14.421 2.733 C 14.221 2.144,13.786 1.730,13.185 1.556 C 13.045 1.515,12.861 1.509,11.613 1.504 C 10.836 1.501,10.128 1.508,10.040 1.519 M5.932 3.096 L 6.001 3.179 5.994 4.525 L 5.987 5.871 5.912 5.936 L 5.837 6.000 4.507 6.000 L 3.177 6.000 3.095 5.931 L 3.013 5.862 3.013 4.503 L 3.013 3.144 3.079 3.079 L 3.144 3.013 4.503 3.013 L 5.862 3.013 5.932 3.096 M12.921 3.079 L 12.987 3.144 12.987 4.503 L 12.987 5.862 12.905 5.931 L 12.823 6.000 11.493 6.000 L 10.163 6.000 10.088 5.936 L 10.013 5.871 10.006 4.525 L 9.999 3.179 10.068 3.096 L 10.138 3.013 11.497 3.013 L 12.856 3.013 12.921 3.079 M2.859 8.547 C 2.270 8.675,1.779 9.129,1.584 9.725 L 1.507 9.960 1.507 11.507 L 1.507 13.053 1.579 13.267 C 1.770 13.826,2.175 14.231,2.733 14.421 L 2.947 14.493 4.493 14.493 L 6.040 14.493 6.278 14.415 C 6.723 14.269,7.091 13.957,7.301 13.548 C 7.495 13.170,7.497 13.146,7.488 11.413 L 7.480 9.880 7.396 9.661 C 7.294 9.396,7.167 9.201,6.979 9.016 C 6.741 8.783,6.488 8.640,6.166 8.558 C 5.979 8.510,5.864 8.507,4.496 8.509 C 3.360 8.510,2.989 8.519,2.859 8.547 M9.823 8.559 C 9.509 8.642,9.255 8.787,9.021 9.016 C 8.831 9.202,8.698 9.409,8.601 9.667 L 8.520 9.880 8.512 11.413 C 8.503 13.140,8.505 13.165,8.694 13.542 C 8.897 13.947,9.276 14.269,9.722 14.415 L 9.960 14.493 11.507 14.493 L 13.053 14.493 13.267 14.421 C 13.826 14.230,14.231 13.825,14.421 13.267 L 14.493 13.053 14.493 11.507 L 14.493 9.960 14.415 9.722 C 14.241 9.190,13.813 8.760,13.280 8.580 C 13.110 8.522,13.075 8.521,11.560 8.515 C 10.116 8.509,10.001 8.512,9.823 8.559 M5.926 10.074 L 5.987 10.135 5.994 11.480 L 6.001 12.824 5.923 12.912 L 5.844 13.000 4.582 13.008 C 3.888 13.012,3.280 13.009,3.230 13.000 C 3.181 12.991,3.112 12.954,3.077 12.919 L 3.013 12.856 3.013 11.497 L 3.013 10.138 3.096 10.068 L 3.179 9.999 4.522 10.006 L 5.865 10.013 5.926 10.074 M12.905 10.069 L 12.987 10.138 12.987 11.497 L 12.987 12.856 12.923 12.919 C 12.888 12.954,12.819 12.991,12.770 13.000 C 12.720 13.009,12.112 13.012,11.418 13.008 L 10.156 13.000 10.078 12.913 L 10.000 12.826 10.000 11.499 C 10.000 10.063,9.998 10.085,10.143 10.026 C 10.174 10.014,10.790 10.003,11.511 10.002 L 12.823 10.000 12.905 10.069 " stroke="none" fill-rule="evenodd" fill="black"></path></svg>