<svg xmlns="http://www.w3.org/2000/svg" width="24" height="24" viewBox="0 0 24 24"><path d="M2.340 2.056 C 1.693 2.217,1.176 2.747,1.038 3.390 C 1.011 3.516,1.001 4.308,1.008 5.623 C 1.020 7.651,1.020 7.661,1.113 7.878 C 1.307 8.336,1.665 8.695,2.120 8.887 L 2.340 8.980 12.000 8.980 L 21.660 8.980 21.880 8.887 C 22.335 8.695,22.693 8.336,22.887 7.878 C 22.980 7.661,22.980 7.651,22.992 5.623 C 22.999 4.308,22.989 3.516,22.962 3.390 C 22.820 2.731,22.272 2.186,21.608 2.045 C 21.287 1.977,2.616 1.988,2.340 2.056 M21.435 3.575 C 21.468 3.614,21.478 4.158,21.470 5.523 L 21.460 7.418 21.360 7.468 C 21.213 7.543,2.787 7.543,2.640 7.468 L 2.540 7.418 2.530 5.523 C 2.522 4.158,2.532 3.614,2.565 3.575 C 2.632 3.493,21.368 3.493,21.435 3.575 M2.460 10.075 C 2.233 10.178,2.051 10.399,2.021 10.608 C 2.007 10.703,2.002 13.003,2.008 15.720 L 2.020 20.660 2.113 20.878 C 2.307 21.336,2.665 21.695,3.120 21.887 L 3.340 21.980 12.000 21.980 L 20.660 21.980 20.880 21.887 C 21.335 21.695,21.693 21.336,21.887 20.878 L 21.980 20.660 21.992 15.720 C 21.998 13.003,21.993 10.703,21.979 10.608 C 21.935 10.298,21.574 10.002,21.240 10.002 C 20.959 10.002,20.667 10.208,20.536 10.500 C 20.516 10.545,20.491 12.728,20.480 15.499 L 20.460 20.418 20.360 20.468 C 20.280 20.509,18.580 20.519,12.000 20.519 C 5.420 20.519,3.720 20.509,3.640 20.468 L 3.540 20.418 3.520 15.499 C 3.509 12.728,3.484 10.545,3.464 10.500 C 3.276 10.081,2.846 9.899,2.460 10.075 M9.394 11.601 C 9.110 11.751,8.968 12.046,9.018 12.380 C 9.053 12.616,9.296 12.898,9.515 12.959 C 9.605 12.984,10.547 13.000,12.000 13.000 C 13.453 13.000,14.395 12.984,14.485 12.959 C 14.704 12.898,14.947 12.616,14.982 12.380 C 15.033 12.041,14.888 11.747,14.598 11.599 C 14.449 11.523,14.355 11.520,11.992 11.522 C 9.647 11.523,9.534 11.527,9.394 11.601 " stroke="none" fill-rule="evenodd" fill="black"></path></svg>