<svg xmlns="http://www.w3.org/2000/svg" width="16" height="16" viewBox="0 0 16 16"><path d="M1.324 1.056 C 0.842 1.172,0.415 1.522,0.185 1.987 C 0.015 2.330,0.001 2.445,0.000 3.509 C 0.000 4.356,0.005 4.465,0.053 4.656 C 0.139 4.996,0.274 5.235,0.519 5.481 C 0.766 5.727,1.005 5.862,1.347 5.947 C 1.558 6.000,1.639 6.000,8.067 5.994 L 14.573 5.987 14.790 5.913 C 15.036 5.830,15.347 5.636,15.511 5.463 C 15.678 5.287,15.832 5.029,15.913 4.789 L 15.986 4.573 15.994 3.585 C 16.004 2.457,15.991 2.342,15.815 1.987 C 15.639 1.630,15.348 1.340,15.003 1.175 C 14.642 1.003,15.138 1.014,7.987 1.016 C 2.464 1.018,1.456 1.023,1.324 1.056 M14.413 2.570 C 14.448 2.605,14.484 2.674,14.493 2.724 C 14.502 2.773,14.506 3.158,14.501 3.579 L 14.493 4.346 14.419 4.419 L 14.345 4.493 8.000 4.493 L 1.655 4.493 1.581 4.419 L 1.507 4.346 1.499 3.541 C 1.493 2.967,1.500 2.715,1.523 2.661 C 1.591 2.494,1.065 2.507,8.007 2.507 L 14.349 2.507 14.413 2.570 M1.420 7.082 C 1.261 7.161,1.136 7.293,1.056 7.465 C 1.000 7.586,1.000 7.594,1.000 10.533 C 1.000 13.846,0.986 13.608,1.204 14.052 C 1.358 14.367,1.633 14.642,1.948 14.796 C 2.403 15.019,1.839 15.000,8.000 15.000 C 14.161 15.000,13.597 15.019,14.052 14.796 C 14.367 14.642,14.642 14.367,14.796 14.052 C 15.014 13.608,15.000 13.846,15.000 10.533 C 15.000 7.594,15.000 7.586,14.944 7.465 C 14.808 7.171,14.567 7.013,14.255 7.014 C 14.022 7.014,13.844 7.089,13.701 7.249 C 13.491 7.481,13.508 7.217,13.493 10.458 L 13.480 13.356 13.415 13.425 L 13.351 13.493 8.000 13.493 L 2.649 13.493 2.585 13.425 L 2.520 13.356 2.507 10.458 C 2.492 7.217,2.509 7.481,2.299 7.249 C 2.085 7.011,1.706 6.939,1.420 7.082 M6.062 8.025 C 5.815 8.085,5.606 8.294,5.530 8.556 C 5.426 8.914,5.643 9.332,5.995 9.452 C 6.100 9.488,6.366 9.493,8.000 9.493 C 10.089 9.493,10.024 9.498,10.235 9.318 C 10.361 9.210,10.472 8.999,10.496 8.824 C 10.533 8.551,10.369 8.244,10.107 8.096 L 9.960 8.013 8.053 8.009 C 7.005 8.007,6.109 8.014,6.062 8.025 " stroke="none" fill-rule="evenodd" fill="black"></path></svg>