<svg xmlns="http://www.w3.org/2000/svg" width="16" height="16" viewBox="0 0 16 16"><path d="M8.512 2.796 C 8.121 2.935,7.914 3.347,8.040 3.736 C 8.083 3.872,8.171 3.965,9.630 5.427 C 10.479 6.278,11.173 6.983,11.173 6.994 C 11.173 7.004,9.460 7.013,7.365 7.013 L 3.557 7.013 3.420 7.082 C 2.952 7.315,2.860 7.940,3.241 8.292 C 3.481 8.512,3.090 8.492,7.373 8.500 L 11.185 8.508 9.662 10.034 C 8.824 10.873,8.117 11.602,8.090 11.653 C 8.019 11.789,8.021 12.161,8.093 12.307 C 8.220 12.564,8.492 12.727,8.788 12.724 C 9.091 12.720,8.998 12.804,11.431 10.366 L 13.673 8.120 13.718 7.951 C 13.769 7.762,13.759 7.632,13.676 7.440 C 13.605 7.275,9.280 2.937,9.087 2.838 C 8.911 2.747,8.692 2.731,8.512 2.796 " stroke="none" fill-rule="evenodd" fill="black"></path></svg>