<svg xmlns="http://www.w3.org/2000/svg" width="16" height="16" viewBox="0 0 16 16"><path d="M6.960 2.817 C 6.857 2.853,6.520 3.179,4.618 5.076 C 3.366 6.326,2.374 7.337,2.345 7.392 C 2.248 7.578,2.228 7.746,2.280 7.944 L 2.327 8.120 4.583 10.381 C 6.645 12.446,6.852 12.646,6.981 12.694 C 7.273 12.803,7.555 12.742,7.778 12.519 C 7.987 12.309,8.046 12.061,7.958 11.758 C 7.917 11.618,7.861 11.559,6.365 10.060 L 4.815 8.508 8.628 8.500 C 12.910 8.492,12.519 8.512,12.759 8.292 C 13.139 7.941,13.047 7.314,12.580 7.082 L 12.443 7.013 8.635 7.013 C 6.540 7.013,4.827 7.004,4.827 6.993 C 4.827 6.982,5.506 6.295,6.336 5.467 C 7.530 4.275,7.859 3.932,7.909 3.827 C 8.076 3.477,7.918 3.032,7.560 2.847 C 7.418 2.773,7.124 2.759,6.960 2.817 " stroke="none" fill-rule="evenodd" fill="black"></path></svg>