<svg xmlns="http://www.w3.org/2000/svg" width="24" height="24" viewBox="0 0 24 24"><path d="M5.460 5.076 C 5.257 5.170,5.089 5.348,5.039 5.523 C 5.015 5.609,5.000 7.378,5.001 10.280 C 5.002 14.706,5.005 14.907,5.077 15.065 C 5.118 15.155,5.212 15.276,5.286 15.332 C 5.416 15.431,5.721 15.528,5.815 15.500 C 5.840 15.493,5.909 15.476,5.969 15.463 C 6.105 15.433,6.342 15.229,6.432 15.064 C 6.494 14.950,6.501 14.635,6.511 11.261 L 6.522 7.583 11.711 12.768 C 16.770 17.823,16.905 17.953,17.091 17.992 C 17.286 18.031,17.474 18.009,17.625 17.928 C 17.754 17.859,17.956 17.611,17.983 17.489 C 17.996 17.429,18.013 17.360,18.020 17.336 C 18.027 17.312,18.015 17.204,17.993 17.096 C 17.953 16.903,17.865 16.812,12.768 11.711 L 7.583 6.522 11.261 6.511 C 14.635 6.501,14.950 6.494,15.064 6.432 C 15.229 6.342,15.433 6.105,15.463 5.969 C 15.476 5.909,15.493 5.840,15.500 5.815 C 15.528 5.721,15.431 5.416,15.332 5.286 C 15.276 5.212,15.155 5.118,15.065 5.077 C 14.907 5.005,14.706 5.002,10.260 5.002 C 5.828 5.002,5.613 5.005,5.460 5.076 " stroke="none" fill-rule="evenodd" fill="black"></path></svg>