<svg xmlns="http://www.w3.org/2000/svg" width="24" height="24" viewBox="0 0 24 24"><path d="M13.420 5.306 C 13.212 5.416,13.080 5.570,13.019 5.777 C 12.966 5.954,12.966 6.001,13.018 6.178 C 13.074 6.368,13.231 6.533,15.619 8.920 C 17.016 10.317,18.160 11.473,18.160 11.490 C 18.160 11.506,14.874 11.520,10.858 11.520 C 3.670 11.520,3.554 11.521,3.402 11.599 C 3.112 11.747,2.967 12.041,3.018 12.380 C 3.053 12.616,3.296 12.898,3.515 12.959 C 3.610 12.986,6.154 13.000,10.919 13.000 L 18.179 13.000 15.634 15.550 C 12.899 18.291,12.968 18.210,13.011 18.585 C 13.065 19.068,13.622 19.385,14.054 19.180 C 14.124 19.147,15.641 17.658,17.427 15.870 C 20.228 13.066,20.679 12.598,20.717 12.460 C 20.771 12.259,20.770 12.226,20.713 12.025 C 20.673 11.882,20.234 11.426,17.443 8.629 C 15.268 6.449,14.167 5.372,14.057 5.319 C 13.863 5.225,13.586 5.219,13.420 5.306 " stroke="none" fill-rule="evenodd" fill="black"></path></svg>