<svg xmlns="http://www.w3.org/2000/svg" width="16" height="16" viewBox="0 0 16 16"><path d="M10.075 1.049 C 9.897 1.099,9.743 1.210,9.652 1.354 C 9.506 1.583,9.483 1.792,9.577 2.046 C 9.630 2.188,9.703 2.270,10.529 3.100 L 11.424 3.999 6.985 4.006 L 2.547 4.013 2.404 4.092 C 2.068 4.278,1.922 4.642,2.042 4.994 C 2.094 5.146,2.263 5.343,2.410 5.421 L 2.520 5.480 6.967 5.487 C 9.412 5.491,11.413 5.503,11.413 5.514 C 11.413 5.525,11.006 5.941,10.508 6.439 C 9.501 7.445,9.487 7.464,9.488 7.781 C 9.491 8.191,9.811 8.509,10.223 8.512 C 10.550 8.514,10.489 8.565,12.286 6.766 C 13.912 5.137,13.916 5.133,13.961 4.975 C 14.018 4.777,14.001 4.586,13.911 4.410 C 13.812 4.217,10.755 1.170,10.587 1.096 C 10.424 1.025,10.227 1.007,10.075 1.049 M5.480 7.562 C 5.357 7.601,5.222 7.728,3.739 9.209 C 2.587 10.359,2.115 10.847,2.073 10.933 C 1.984 11.112,1.990 11.406,2.086 11.587 C 2.193 11.789,5.246 14.831,5.418 14.906 C 5.602 14.987,5.755 15.000,5.928 14.950 C 6.357 14.825,6.582 14.379,6.426 13.960 C 6.370 13.811,6.306 13.740,5.471 12.900 L 4.576 12.000 8.963 12.000 C 13.950 12.000,13.531 12.020,13.775 11.775 C 14.134 11.416,14.053 10.857,13.604 10.593 L 13.480 10.520 9.033 10.513 C 6.588 10.509,4.587 10.498,4.587 10.487 C 4.587 10.477,4.993 10.060,5.490 9.561 C 6.471 8.574,6.480 8.563,6.480 8.267 C 6.480 7.765,5.973 7.408,5.480 7.562 " stroke="none" fill-rule="evenodd" fill="black"></path></svg>