<svg xmlns="http://www.w3.org/2000/svg" width="24" height="24" viewBox="0 0 24 24"><path d="M9.940 5.319 C 9.836 5.371,8.653 6.528,6.556 8.629 C 3.763 11.429,3.327 11.882,3.286 12.025 C 3.223 12.250,3.229 12.353,3.317 12.540 C 3.410 12.739,9.804 19.135,9.973 19.198 C 10.419 19.365,10.937 19.053,10.989 18.585 C 11.032 18.210,11.101 18.291,8.366 15.550 L 5.821 13.000 13.081 13.000 C 17.846 13.000,20.390 12.986,20.485 12.959 C 20.704 12.898,20.947 12.616,20.982 12.380 C 21.033 12.041,20.888 11.747,20.598 11.599 C 20.446 11.521,20.330 11.520,13.142 11.520 C 9.126 11.520,5.840 11.506,5.840 11.490 C 5.840 11.473,6.983 10.317,8.381 8.920 C 10.701 6.601,10.927 6.363,10.979 6.190 C 11.163 5.574,10.518 5.033,9.940 5.319 " stroke="none" fill-rule="evenodd" fill="black"></path></svg>