<svg xmlns="http://www.w3.org/2000/svg" width="24" height="24" viewBox="0 0 24 24"><path d="M11.460 3.076 C 11.257 3.170,11.089 3.348,11.039 3.523 C 11.014 3.610,11.000 6.296,11.000 10.919 L 11.000 18.178 8.450 15.634 C 5.709 12.900,5.789 12.968,5.415 13.011 C 4.934 13.065,4.623 13.606,4.816 14.051 C 4.849 14.126,6.233 15.538,8.126 17.427 C 10.932 20.227,11.402 20.679,11.540 20.717 C 11.741 20.771,11.774 20.770,11.975 20.713 C 12.118 20.673,12.574 20.234,15.371 17.443 C 17.551 15.268,18.628 14.167,18.681 14.057 C 18.898 13.610,18.619 13.064,18.145 13.011 C 17.717 12.962,17.899 12.807,15.090 15.612 L 12.520 18.179 12.519 10.979 C 12.518 6.176,12.504 3.720,12.477 3.601 C 12.367 3.126,11.887 2.878,11.460 3.076 " stroke="none" fill-rule="evenodd" fill="black"></path></svg>