<svg xmlns="http://www.w3.org/2000/svg" width="24" height="24" viewBox="0 0 24 24"><path d="M8.935 5.077 C 8.845 5.118,8.724 5.212,8.668 5.286 C 8.569 5.416,8.472 5.721,8.500 5.815 C 8.507 5.840,8.524 5.909,8.537 5.969 C 8.567 6.105,8.771 6.342,8.936 6.432 C 9.050 6.494,9.365 6.501,12.739 6.511 L 16.417 6.522 11.232 11.711 C 6.135 16.812,6.047 16.903,6.007 17.096 C 5.985 17.204,5.973 17.312,5.980 17.336 C 5.987 17.360,6.004 17.429,6.017 17.489 C 6.044 17.611,6.246 17.859,6.375 17.928 C 6.526 18.009,6.714 18.031,6.909 17.992 C 7.095 17.953,7.230 17.823,12.289 12.768 L 17.478 7.583 17.489 11.261 C 17.499 14.635,17.506 14.950,17.568 15.064 C 17.658 15.229,17.895 15.433,18.031 15.463 C 18.091 15.476,18.160 15.493,18.185 15.500 C 18.279 15.528,18.584 15.431,18.714 15.332 C 18.788 15.276,18.882 15.155,18.923 15.065 C 18.995 14.907,18.998 14.706,18.999 10.280 C 18.999 7.369,18.985 5.608,18.960 5.518 C 18.939 5.440,18.862 5.320,18.790 5.250 C 18.515 4.984,18.839 5.000,13.731 5.001 C 9.294 5.002,9.093 5.005,8.935 5.077 " stroke="none" fill-rule="evenodd" fill="black"></path></svg>