<svg xmlns="http://www.w3.org/2000/svg" width="16" height="16" viewBox="0 0 16 16"><path d="M7.933 3.076 C 7.785 3.145,7.626 3.306,7.554 3.459 C 7.509 3.554,7.506 3.787,7.500 7.373 L 7.492 11.185 5.966 9.662 C 5.127 8.824,4.398 8.118,4.347 8.092 C 4.295 8.066,4.168 8.039,4.060 8.032 C 3.883 8.021,3.851 8.027,3.695 8.104 C 3.420 8.239,3.277 8.469,3.275 8.776 C 3.274 9.087,3.181 8.982,5.634 11.431 L 7.880 13.673 8.056 13.720 C 8.254 13.772,8.422 13.752,8.608 13.655 C 8.663 13.626,9.678 12.630,10.936 11.369 C 13.070 9.228,13.167 9.127,13.209 8.990 C 13.267 8.802,13.265 8.673,13.201 8.501 C 13.057 8.118,12.672 7.926,12.278 8.039 C 12.121 8.084,12.114 8.090,10.567 9.634 L 9.014 11.185 9.007 7.386 C 9.000 3.587,9.000 3.587,8.944 3.465 C 8.808 3.171,8.567 3.013,8.255 3.014 C 8.114 3.014,8.033 3.030,7.933 3.076 " stroke="none" fill-rule="evenodd" fill="black"></path></svg>