<svg xmlns="http://www.w3.org/2000/svg" width="16" height="16" viewBox="0 0 16 16"><path d="M3.960 3.573 C 3.845 3.619,3.573 3.880,1.966 5.487 C 0.251 7.201,0.102 7.358,0.050 7.493 C -0.024 7.689,-0.008 7.915,0.092 8.099 C 0.143 8.193,0.695 8.762,2.009 10.072 C 4.043 12.102,3.939 12.014,4.280 12.013 C 4.814 12.012,5.170 11.448,4.945 10.960 C 4.888 10.837,4.692 10.628,3.726 9.660 L 2.574 8.507 8.000 8.507 L 13.425 8.507 12.264 9.673 C 11.491 10.450,11.085 10.876,11.052 10.947 C 10.983 11.097,10.970 11.351,11.025 11.514 C 11.120 11.802,11.413 12.012,11.720 12.013 C 12.061 12.014,11.957 12.102,13.991 10.072 C 15.305 8.762,15.857 8.193,15.908 8.099 C 16.010 7.912,16.024 7.690,15.946 7.480 C 15.890 7.326,15.814 7.246,14.044 5.476 C 12.274 3.706,12.194 3.630,12.040 3.574 C 11.626 3.421,11.178 3.642,11.054 4.059 C 10.999 4.243,11.003 4.342,11.070 4.526 C 11.123 4.670,11.200 4.754,12.270 5.827 C 12.899 6.458,13.413 6.983,13.413 6.994 C 13.413 7.005,10.977 7.013,8.000 7.013 C 5.023 7.013,2.587 7.004,2.587 6.993 C 2.587 6.982,3.096 6.464,3.719 5.841 C 4.916 4.645,4.939 4.617,4.977 4.338 C 4.998 4.183,4.930 3.954,4.820 3.811 C 4.626 3.560,4.251 3.456,3.960 3.573 " stroke="none" fill-rule="evenodd" fill="black"></path></svg>