<svg xmlns="http://www.w3.org/2000/svg" width="24" height="24" viewBox="0 0 24 24"><path d="M11.560 2.947 C 11.396 3.024,5.175 9.213,5.003 9.470 C 4.862 9.680,4.824 9.870,4.879 10.078 C 4.997 10.516,5.489 10.754,5.911 10.578 C 6.014 10.535,6.841 9.736,8.590 7.989 L 11.120 5.462 11.120 12.732 C 11.120 20.702,11.104 20.153,11.351 20.411 C 11.477 20.543,11.823 20.655,11.986 20.617 C 12.201 20.567,12.419 20.411,12.520 20.234 L 12.620 20.060 12.630 12.761 L 12.641 5.462 15.150 7.967 C 16.531 9.345,17.714 10.498,17.780 10.530 C 17.978 10.627,18.114 10.645,18.291 10.597 C 18.749 10.476,18.990 10.024,18.819 9.609 C 18.733 9.402,12.407 3.063,12.180 2.957 C 11.983 2.864,11.745 2.861,11.560 2.947 " stroke="none" fill-rule="evenodd" fill="black"></path></svg>