<svg xmlns="http://www.w3.org/2000/svg" width="16" height="16" viewBox="0 0 16 16"><path d="M7.947 2.322 C 7.854 2.363,7.323 2.878,5.593 4.608 C 3.555 6.644,3.355 6.852,3.306 6.981 C 3.197 7.273,3.258 7.555,3.481 7.778 C 3.691 7.987,3.939 8.046,4.242 7.958 C 4.382 7.917,4.441 7.861,5.940 6.365 L 7.492 4.815 7.500 8.628 C 7.508 12.910,7.488 12.519,7.708 12.759 C 8.074 13.155,8.710 13.040,8.944 12.535 C 9.000 12.414,9.000 12.407,9.013 8.620 L 9.027 4.826 10.533 6.336 C 11.725 7.530,12.068 7.859,12.173 7.909 C 12.523 8.076,12.969 7.917,13.152 7.561 C 13.230 7.411,13.245 7.162,13.187 6.984 C 13.143 6.847,13.033 6.732,10.924 4.619 C 9.213 2.906,8.677 2.384,8.575 2.333 C 8.403 2.247,8.125 2.242,7.947 2.322 " stroke="none" fill-rule="evenodd" fill="black"></path></svg>