<svg xmlns="http://www.w3.org/2000/svg" width="24" height="24" viewBox="0 0 24 24"><path d="M16.510 5.776 C 16.275 5.862,16.168 5.948,16.076 6.128 C 15.972 6.332,15.965 6.615,16.059 6.803 C 16.097 6.878,17.039 7.853,18.154 8.970 L 20.180 11.000 12.001 11.000 L 3.822 11.000 5.866 8.950 C 8.063 6.747,8.031 6.785,7.989 6.415 C 7.933 5.917,7.367 5.609,6.928 5.837 C 6.705 5.954,1.378 11.304,1.301 11.489 C 1.228 11.667,1.225 11.758,1.286 11.975 C 1.327 12.117,1.703 12.511,4.036 14.851 C 5.848 16.668,6.794 17.588,6.903 17.641 C 7.332 17.849,7.809 17.636,7.943 17.177 C 7.975 17.064,7.994 16.947,7.984 16.916 C 7.975 16.885,7.955 16.806,7.941 16.740 C 7.922 16.650,7.396 16.100,5.868 14.570 L 3.821 12.520 12.000 12.520 L 20.180 12.520 18.128 14.572 C 16.240 16.461,16.073 16.639,16.018 16.820 C 15.966 16.994,15.966 17.040,16.019 17.224 C 16.082 17.440,16.268 17.647,16.467 17.723 C 16.627 17.784,16.883 17.765,17.057 17.681 C 17.167 17.628,18.115 16.705,19.943 14.871 C 22.292 12.516,22.673 12.117,22.713 11.975 C 22.770 11.774,22.771 11.741,22.717 11.540 C 22.680 11.402,22.288 10.994,19.927 8.627 C 18.416 7.113,17.135 5.851,17.080 5.822 C 16.917 5.736,16.674 5.717,16.510 5.776 " stroke="none" fill-rule="evenodd" fill="black"></path></svg>