<svg xmlns="http://www.w3.org/2000/svg" width="24" height="24" viewBox="0 0 24 24"><path d="M16.900 6.106 C 16.834 6.140,14.472 8.474,11.651 11.293 L 6.522 16.418 6.511 12.739 C 6.501 9.398,6.494 9.049,6.434 8.940 C 6.346 8.781,6.167 8.615,6.027 8.563 C 5.762 8.462,5.371 8.549,5.192 8.747 C 4.993 8.967,5.000 8.786,5.000 13.729 C 5.000 16.623,5.015 18.393,5.040 18.481 C 5.089 18.658,5.341 18.909,5.522 18.961 C 5.609 18.985,7.362 19.000,10.280 18.999 C 14.706 18.998,14.907 18.995,15.065 18.923 C 15.439 18.753,15.605 18.260,15.410 17.899 C 15.344 17.778,15.153 17.610,15.027 17.563 C 14.951 17.534,13.744 17.520,11.257 17.520 C 9.246 17.520,7.600 17.507,7.600 17.490 C 7.600 17.474,9.920 15.139,12.756 12.300 C 17.783 7.269,17.913 7.135,17.952 6.949 C 18.053 6.455,17.727 6.038,17.242 6.042 C 17.120 6.042,16.966 6.071,16.900 6.106 " stroke="none" fill-rule="evenodd" fill="black"></path></svg>