<svg xmlns="http://www.w3.org/2000/svg" width="24" height="24" viewBox="0 0 24 24"><path d="M15.373 2.145 C 15.094 2.327,14.969 2.638,15.047 2.960 C 15.087 3.125,15.232 3.281,16.745 4.801 C 17.655 5.715,18.400 6.475,18.400 6.491 C 18.400 6.507,15.060 6.520,10.978 6.520 C 3.671 6.520,3.554 6.521,3.402 6.599 C 3.112 6.747,2.967 7.041,3.018 7.380 C 3.053 7.616,3.296 7.898,3.515 7.959 C 3.610 7.986,6.200 8.000,11.059 8.000 L 18.459 8.000 16.752 9.710 C 15.486 10.979,15.038 11.451,15.019 11.540 C 15.005 11.606,14.986 11.684,14.976 11.714 C 14.947 11.807,15.042 12.093,15.149 12.234 C 15.268 12.392,15.522 12.518,15.720 12.518 C 16.047 12.518,16.126 12.450,18.434 10.148 C 19.652 8.934,20.717 7.854,20.802 7.749 C 20.907 7.618,20.964 7.501,20.983 7.375 C 21.043 6.975,21.124 7.071,18.587 4.527 C 17.304 3.241,16.193 2.160,16.112 2.117 C 15.889 2.001,15.577 2.013,15.373 2.145 M7.960 11.561 C 7.826 11.623,7.204 12.219,5.509 13.912 C 4.260 15.159,3.193 16.244,3.139 16.322 C 3.005 16.514,2.971 16.792,3.054 17.010 C 3.107 17.147,3.585 17.646,5.490 19.545 C 7.680 21.730,7.874 21.913,8.040 21.953 C 8.597 22.087,9.069 21.620,8.951 21.051 C 8.913 20.868,8.839 20.788,7.247 19.190 L 5.582 17.520 12.889 17.520 C 18.033 17.520,20.257 17.507,20.400 17.476 C 21.110 17.324,21.205 16.376,20.540 16.075 C 20.387 16.005,20.051 16.002,12.981 16.001 L 5.582 16.000 7.227 14.350 C 8.131 13.443,8.902 12.638,8.940 12.563 C 9.033 12.380,9.029 12.080,8.931 11.891 C 8.754 11.548,8.312 11.397,7.960 11.561 " stroke="none" fill-rule="evenodd" fill="black"></path></svg>