<svg xmlns="http://www.w3.org/2000/svg" width="24" height="24" viewBox="0 0 24 24"><path d="M6.373 6.145 C 6.094 6.326,5.970 6.637,6.047 6.960 C 6.087 7.128,6.424 7.474,11.245 12.300 C 14.080 15.139,16.400 17.474,16.400 17.490 C 16.400 17.507,14.743 17.520,12.718 17.520 C 9.581 17.520,9.019 17.529,8.924 17.578 C 8.772 17.657,8.566 17.897,8.537 18.031 C 8.524 18.091,8.507 18.160,8.500 18.185 C 8.472 18.279,8.569 18.584,8.668 18.714 C 8.724 18.788,8.845 18.882,8.935 18.923 C 9.093 18.995,9.294 18.998,13.720 18.999 C 16.623 18.999,18.393 18.985,18.481 18.960 C 18.658 18.911,18.909 18.659,18.961 18.478 C 18.985 18.391,19.000 16.639,19.000 13.729 C 19.000 8.786,19.007 8.967,18.808 8.747 C 18.688 8.613,18.453 8.520,18.239 8.520 C 18.013 8.520,17.915 8.559,17.746 8.715 C 17.484 8.958,17.502 8.690,17.480 12.730 L 17.460 16.400 12.360 11.297 C 9.469 8.405,7.196 6.161,7.112 6.117 C 6.889 6.001,6.577 6.013,6.373 6.145 " stroke="none" fill-rule="evenodd" fill="black"></path></svg>