<svg xmlns="http://www.w3.org/2000/svg" width="24" height="24" viewBox="0 0 24 24"><path d="M7.138 2.075 C 6.708 2.270,6.562 2.775,6.822 3.169 C 6.971 3.395,7.191 3.488,7.630 3.511 L 8.000 3.531 8.000 6.167 L 8.000 8.803 5.393 13.531 C 3.959 16.132,2.740 18.386,2.683 18.540 C 2.590 18.793,2.580 18.875,2.582 19.380 C 2.583 19.896,2.592 19.964,2.697 20.239 C 2.946 20.897,3.414 21.425,4.007 21.717 C 4.615 22.017,4.090 21.999,12.000 21.999 C 19.917 21.999,19.383 22.018,20.000 21.715 C 20.662 21.390,21.196 20.713,21.384 19.961 C 21.475 19.598,21.445 18.916,21.322 18.560 C 21.273 18.417,20.055 16.163,18.616 13.552 L 16.000 8.804 16.000 6.168 L 16.000 3.531 16.370 3.511 C 16.938 3.482,17.174 3.326,17.286 2.909 C 17.374 2.580,17.194 2.226,16.862 2.075 C 16.708 2.005,16.474 2.002,12.000 2.002 C 7.526 2.002,7.292 2.005,7.138 2.075 M14.489 6.350 L 14.500 9.180 14.611 9.390 C 14.671 9.505,15.198 10.464,15.781 11.521 C 16.363 12.578,16.840 13.460,16.840 13.481 C 16.840 13.506,15.096 13.520,12.000 13.520 C 8.904 13.520,7.160 13.506,7.160 13.481 C 7.160 13.460,7.637 12.578,8.219 11.521 C 8.802 10.464,9.329 9.505,9.389 9.390 L 9.500 9.180 9.511 6.350 L 9.522 3.520 12.000 3.520 L 14.478 3.520 14.489 6.350 M18.740 16.886 C 19.312 17.923,19.814 18.846,19.855 18.936 C 19.971 19.191,19.960 19.607,19.829 19.863 C 19.700 20.116,19.471 20.326,19.216 20.424 C 19.026 20.498,18.790 20.500,12.000 20.500 C 5.210 20.500,4.974 20.498,4.784 20.424 C 4.529 20.326,4.300 20.116,4.171 19.863 C 4.039 19.604,4.027 19.188,4.144 18.936 C 4.186 18.846,4.688 17.923,5.260 16.886 L 6.300 15.001 12.000 15.001 L 17.700 15.001 18.740 16.886 " stroke="none" fill-rule="evenodd" fill="black"></path></svg>