<svg xmlns="http://www.w3.org/2000/svg" width="16" height="16" viewBox="0 0 16 16"><path d="M4.440 1.076 C 4.044 1.261,3.888 1.736,4.100 2.113 C 4.242 2.366,4.503 2.507,4.832 2.507 L 4.987 2.507 4.987 4.153 L 4.987 5.800 3.143 8.693 C 2.130 10.285,1.254 11.684,1.197 11.803 C 0.831 12.571,0.943 13.479,1.489 14.166 C 1.786 14.539,2.221 14.815,2.707 14.939 L 2.947 15.000 8.000 15.000 L 13.053 15.000 13.293 14.939 C 14.679 14.587,15.408 13.072,14.803 11.803 C 14.746 11.684,13.870 10.285,12.857 8.693 L 11.013 5.800 11.013 4.153 L 11.013 2.507 11.168 2.507 C 11.497 2.507,11.758 2.366,11.900 2.113 C 12.112 1.736,11.956 1.261,11.560 1.076 L 11.427 1.014 8.000 1.014 L 4.573 1.014 4.440 1.076 M9.494 4.300 C 9.495 5.930,9.499 6.105,9.541 6.227 C 9.567 6.300,9.958 6.941,10.410 7.652 C 10.862 8.363,11.238 8.960,11.246 8.979 C 11.257 9.007,10.665 9.013,8.000 9.013 C 5.335 9.013,4.743 9.007,4.754 8.979 C 4.762 8.960,5.138 8.363,5.590 7.652 C 6.042 6.941,6.433 6.300,6.459 6.227 C 6.501 6.105,6.505 5.930,6.506 4.300 L 6.507 2.507 8.000 2.507 L 9.493 2.507 9.494 4.300 M12.799 11.405 C 13.550 12.589,13.506 12.504,13.505 12.747 C 13.504 12.989,13.424 13.168,13.251 13.316 C 13.027 13.507,13.435 13.493,8.000 13.493 C 2.565 13.493,2.973 13.507,2.749 13.316 C 2.576 13.168,2.496 12.989,2.495 12.747 C 2.494 12.504,2.451 12.586,3.202 11.402 L 3.770 10.507 7.999 10.507 L 12.229 10.507 12.799 11.405 " stroke="none" fill-rule="evenodd" fill="black"></path></svg>