<svg xmlns="http://www.w3.org/2000/svg" width="16" height="16" viewBox="0 0 16 16"><path d="M7.467 0.030 C 5.755 0.206,4.265 1.236,3.519 2.760 C 3.228 3.355,3.063 3.973,3.014 4.654 C 2.999 4.859,2.987 5.723,2.987 6.573 L 2.986 8.120 2.133 9.425 C 1.664 10.143,1.257 10.755,1.228 10.785 C 1.143 10.876,1.043 11.124,1.016 11.312 C 0.917 12.015,1.414 12.739,2.092 12.880 C 2.184 12.899,4.049 12.905,8.000 12.900 L 13.773 12.893 13.950 12.825 C 14.219 12.720,14.370 12.622,14.565 12.425 C 14.848 12.138,14.993 11.792,14.992 11.400 C 14.992 11.132,14.914 10.876,14.781 10.702 C 14.728 10.632,14.308 9.999,13.849 9.297 L 13.013 8.019 13.013 6.523 C 13.013 4.887,12.992 4.441,12.895 3.969 C 12.372 1.443,10.059 -0.235,7.467 0.030 M6.275 14.052 C 6.072 14.144,6.035 14.311,6.143 14.650 C 6.315 15.191,6.750 15.660,7.270 15.863 C 7.720 16.039,8.280 16.039,8.730 15.863 C 9.250 15.660,9.685 15.191,9.857 14.650 C 9.965 14.311,9.928 14.144,9.725 14.052 C 9.619 14.004,9.528 14.001,8.000 14.001 C 6.472 14.001,6.381 14.004,6.275 14.052 " stroke="none" fill-rule="evenodd" fill="black"></path></svg>