<svg xmlns="http://www.w3.org/2000/svg" width="24" height="24" viewBox="0 0 24 24"><path d="M1.460 1.075 C 1.227 1.180,1.051 1.398,1.018 1.622 C 0.958 2.022,0.903 1.956,3.088 4.146 C 4.558 5.618,5.081 6.166,5.055 6.206 C 5.036 6.236,5.010 7.565,4.998 9.160 C 4.977 11.960,4.973 12.070,4.891 12.365 C 4.755 12.854,4.582 13.148,3.348 14.994 C 2.119 16.834,2.003 17.048,2.002 17.460 C 2.000 18.062,2.354 18.611,2.913 18.873 L 3.140 18.980 5.808 18.991 L 8.476 19.003 8.497 19.191 C 8.613 20.191,8.906 20.831,9.538 21.462 C 10.245 22.168,11.012 22.487,12.000 22.487 C 12.988 22.487,13.755 22.168,14.462 21.462 C 15.094 20.831,15.387 20.192,15.503 19.190 L 15.525 19.000 16.732 19.000 L 17.938 19.000 19.919 20.976 C 21.823 22.875,21.907 22.953,22.091 22.991 C 22.285 23.031,22.474 23.009,22.625 22.928 C 22.754 22.859,22.956 22.611,22.983 22.489 C 22.996 22.429,23.013 22.360,23.020 22.336 C 23.027 22.312,23.015 22.204,22.993 22.096 C 22.953 21.903,22.820 21.768,12.586 11.526 C 5.338 4.273,2.172 1.129,2.060 1.077 C 1.858 0.982,1.665 0.981,1.460 1.075 M11.400 1.023 C 10.169 1.164,9.427 1.366,8.540 1.801 C 8.077 2.028,7.487 2.402,7.244 2.621 C 6.872 2.957,6.859 3.438,7.213 3.749 C 7.553 4.047,7.856 4.018,8.381 3.637 C 9.024 3.170,9.919 2.788,10.780 2.613 C 11.334 2.501,12.750 2.511,13.303 2.631 C 15.035 3.008,16.422 4.000,17.089 5.340 C 17.210 5.583,17.273 5.751,17.423 6.240 C 17.440 6.295,17.466 7.636,17.481 9.220 C 17.507 11.963,17.512 12.118,17.594 12.484 C 17.778 13.313,17.919 13.590,18.925 15.104 C 19.816 16.445,19.865 16.497,20.262 16.497 C 20.502 16.497,20.679 16.405,20.856 16.186 C 20.967 16.048,20.980 16.005,20.980 15.762 L 20.980 15.491 20.232 14.369 C 19.415 13.143,19.238 12.826,19.109 12.365 C 19.027 12.071,19.023 11.954,18.998 9.160 C 18.971 5.993,18.977 6.084,18.720 5.320 C 17.999 3.179,15.810 1.500,13.217 1.099 C 12.830 1.039,11.680 0.991,11.400 1.023 M16.400 17.490 C 16.400 17.506,13.502 17.520,9.960 17.520 C 5.657 17.520,3.520 17.507,3.520 17.480 C 3.520 17.457,4.041 16.658,4.677 15.704 C 6.078 13.604,6.211 13.355,6.410 12.462 C 6.485 12.129,6.493 11.922,6.509 9.844 L 6.527 7.587 11.464 12.524 C 14.179 15.239,16.400 17.473,16.400 17.490 M13.981 19.230 C 13.920 19.724,13.705 20.140,13.334 20.478 C 12.145 21.566,10.217 20.840,10.019 19.230 L 9.991 19.000 12.000 19.000 L 14.009 19.000 13.981 19.230 " stroke="none" fill-rule="evenodd" fill="black"></path></svg>