<svg xmlns="http://www.w3.org/2000/svg" width="24" height="24" viewBox="0 0 24 24"><path d="M11.200 2.058 C 10.483 2.161,9.933 2.332,9.320 2.640 C 7.666 3.471,6.540 4.935,6.113 6.809 C 6.036 7.151,6.027 7.347,6.001 9.320 C 5.985 10.497,5.959 11.505,5.942 11.560 C 5.803 12.029,5.697 12.301,5.568 12.521 C 5.485 12.664,4.924 13.435,4.323 14.236 C 3.722 15.037,3.183 15.793,3.126 15.916 C 3.038 16.104,3.022 16.198,3.021 16.500 C 3.020 16.812,3.035 16.892,3.132 17.100 C 3.279 17.415,3.587 17.724,3.896 17.867 L 4.140 17.980 12.000 17.980 L 19.860 17.980 20.104 17.867 C 20.413 17.724,20.721 17.415,20.868 17.100 C 20.965 16.892,20.980 16.812,20.979 16.500 C 20.978 16.198,20.962 16.104,20.874 15.916 C 20.817 15.793,20.278 15.037,19.677 14.236 C 19.076 13.435,18.515 12.664,18.432 12.521 C 18.303 12.301,18.199 12.033,18.058 11.560 C 18.041 11.505,18.016 10.506,18.001 9.340 C 17.971 7.003,17.963 6.918,17.680 6.073 C 16.994 4.026,15.188 2.478,13.041 2.097 C 12.552 2.010,11.660 1.991,11.200 2.058 M8.739 19.260 C 8.990 19.929,9.592 20.639,10.220 21.008 C 11.317 21.654,12.685 21.654,13.779 21.008 C 14.401 20.641,15.012 19.923,15.258 19.270 L 15.359 19.000 12.000 19.000 L 8.641 19.000 8.739 19.260 " stroke="none" fill-rule="evenodd" fill="black"></path></svg>