<svg xmlns="http://www.w3.org/2000/svg" width="16" height="16" viewBox="0 0 16 16"><path d="M7.470 0.030 C 6.299 0.153,5.183 0.708,4.366 1.574 C 3.675 2.306,3.250 3.159,3.065 4.187 C 3.008 4.504,3.004 4.608,2.989 6.293 L 2.973 8.067 2.083 9.399 C 1.593 10.132,1.165 10.792,1.133 10.866 C 0.997 11.175,0.968 11.538,1.053 11.868 C 1.198 12.427,1.681 12.871,2.254 12.974 C 2.566 13.029,13.428 13.030,13.739 12.975 C 14.644 12.813,15.201 11.893,14.921 11.019 C 14.858 10.822,14.755 10.655,13.932 9.419 L 13.014 8.040 13.013 6.533 C 13.013 5.705,13.001 4.867,12.986 4.673 C 12.889 3.394,12.369 2.272,11.474 1.409 C 10.398 0.373,8.953 -0.125,7.470 0.030 M8.640 1.564 C 9.866 1.773,10.973 2.749,11.332 3.937 C 11.479 4.423,11.475 4.360,11.492 6.373 C 11.509 8.248,11.509 8.254,11.571 8.440 C 11.605 8.543,11.657 8.674,11.686 8.731 C 11.715 8.788,12.134 9.427,12.616 10.151 C 13.099 10.874,13.493 11.472,13.493 11.480 C 13.493 11.487,11.021 11.493,8.000 11.493 C 4.979 11.493,2.507 11.487,2.507 11.480 C 2.507 11.472,2.901 10.874,3.384 10.151 C 3.866 9.427,4.285 8.788,4.314 8.731 C 4.343 8.674,4.395 8.543,4.429 8.440 C 4.491 8.254,4.491 8.248,4.508 6.360 C 4.527 4.336,4.522 4.404,4.668 3.934 C 4.892 3.214,5.417 2.516,6.053 2.094 C 6.819 1.587,7.708 1.405,8.640 1.564 M6.146 14.025 C 6.011 14.080,5.990 14.209,6.067 14.509 C 6.231 15.149,6.737 15.683,7.384 15.899 C 7.621 15.977,7.667 15.984,8.000 15.984 C 8.340 15.985,8.375 15.980,8.624 15.894 C 9.292 15.666,9.785 15.130,9.945 14.460 C 9.995 14.252,9.988 14.136,9.922 14.070 C 9.865 14.013,9.863 14.013,8.033 14.008 C 7.025 14.005,6.176 14.013,6.146 14.025 " stroke="none" fill-rule="evenodd" fill="black"></path></svg>