<svg xmlns="http://www.w3.org/2000/svg" width="24" height="24" viewBox="0 0 24 24"><path d="M11.420 1.023 C 11.354 1.032,11.129 1.060,10.920 1.084 C 10.456 1.137,9.612 1.348,9.180 1.520 C 6.999 2.385,5.564 3.945,5.097 5.960 C 5.035 6.224,5.024 6.606,5.001 9.160 C 4.977 11.955,4.973 12.071,4.891 12.365 C 4.755 12.854,4.582 13.148,3.348 14.994 C 2.119 16.834,2.003 17.048,2.002 17.460 C 2.000 18.062,2.354 18.611,2.913 18.873 L 3.140 18.980 5.808 18.991 L 8.476 19.003 8.497 19.191 C 8.613 20.191,8.906 20.831,9.538 21.462 C 10.245 22.168,11.012 22.487,12.000 22.487 C 12.988 22.487,13.755 22.168,14.462 21.462 C 15.094 20.831,15.387 20.191,15.503 19.191 L 15.524 19.003 18.192 18.991 L 20.860 18.980 21.087 18.873 C 21.646 18.611,22.000 18.062,21.998 17.460 C 21.997 17.048,21.881 16.834,20.652 14.994 C 19.418 13.148,19.245 12.854,19.109 12.365 C 19.027 12.071,19.023 11.954,18.998 9.160 C 18.971 5.993,18.977 6.084,18.720 5.320 C 17.999 3.179,15.810 1.500,13.217 1.099 C 12.829 1.039,11.659 0.989,11.420 1.023 M13.323 2.636 C 15.031 3.006,16.425 4.007,17.089 5.340 C 17.210 5.583,17.273 5.751,17.423 6.240 C 17.440 6.295,17.466 7.636,17.481 9.220 C 17.519 13.228,17.399 12.804,19.301 15.680 C 19.932 16.634,20.457 17.439,20.468 17.468 C 20.485 17.511,18.986 17.520,12.004 17.520 C 5.916 17.520,3.520 17.508,3.520 17.476 C 3.520 17.453,4.012 16.701,4.614 15.806 C 5.216 14.912,5.781 14.050,5.871 13.891 C 6.099 13.488,6.301 12.959,6.404 12.495 C 6.488 12.116,6.493 11.982,6.519 9.220 C 6.534 7.636,6.560 6.295,6.577 6.240 C 6.726 5.755,6.791 5.580,6.922 5.320 C 7.635 3.903,9.156 2.878,10.985 2.581 C 11.513 2.495,12.814 2.526,13.323 2.636 M13.981 19.230 C 13.920 19.724,13.705 20.140,13.334 20.478 C 12.145 21.566,10.217 20.840,10.019 19.230 L 9.991 19.000 12.000 19.000 L 14.009 19.000 13.981 19.230 " stroke="none" fill-rule="evenodd" fill="black"></path></svg>