<svg xmlns="http://www.w3.org/2000/svg" width="16" height="16" viewBox="0 0 16 16"><path d="M7.358 0.040 C 6.284 0.187,5.309 0.658,4.529 1.407 C 4.257 1.669,4.178 1.817,4.178 2.067 C 4.177 2.485,4.510 2.813,4.933 2.810 C 5.029 2.809,5.149 2.790,5.200 2.768 C 5.252 2.746,5.423 2.613,5.581 2.472 C 6.025 2.077,6.414 1.844,6.902 1.680 C 7.578 1.454,8.422 1.454,9.098 1.680 C 10.350 2.099,11.241 3.154,11.454 4.466 C 11.485 4.655,11.493 5.002,11.493 6.082 C 11.493 7.694,11.488 7.652,11.729 7.893 C 11.858 8.022,11.906 8.051,12.056 8.092 C 12.203 8.131,12.256 8.134,12.371 8.110 C 12.645 8.051,12.827 7.909,12.939 7.667 C 13.000 7.534,13.000 7.523,13.008 6.280 C 13.017 4.950,12.997 4.513,12.906 4.040 C 12.494 1.904,10.708 0.268,8.528 0.028 C 8.190 -0.009,7.679 -0.003,7.358 0.040 M0.438 2.049 C 0.151 2.184,0.001 2.421,0.000 2.741 C -0.000 2.967,0.038 3.073,0.171 3.221 C 0.224 3.279,0.879 3.770,1.627 4.310 L 2.986 5.293 2.986 6.667 L 2.987 8.040 2.089 9.386 C 1.595 10.127,1.165 10.793,1.133 10.866 C 0.948 11.289,0.966 11.787,1.181 12.200 C 1.304 12.435,1.595 12.716,1.841 12.837 C 2.216 13.021,1.863 13.011,8.055 13.012 L 13.643 13.013 14.255 13.457 C 14.591 13.701,14.918 13.924,14.982 13.952 C 15.137 14.022,15.394 14.023,15.551 13.953 C 15.845 13.823,15.999 13.585,16.000 13.260 C 16.000 13.023,15.938 12.874,15.778 12.727 C 15.661 12.621,1.241 2.172,1.075 2.073 C 0.936 1.992,0.589 1.978,0.438 2.049 M8.157 9.040 L 11.526 11.480 7.025 11.487 C 4.550 11.490,2.520 11.489,2.514 11.483 C 2.508 11.477,2.899 10.879,3.382 10.154 C 3.866 9.429,4.285 8.788,4.314 8.731 C 4.343 8.674,4.395 8.543,4.429 8.440 C 4.487 8.263,4.491 8.208,4.501 7.327 L 4.511 6.400 4.650 6.500 C 4.726 6.555,6.305 7.698,8.157 9.040 M6.146 14.025 C 6.011 14.080,5.990 14.209,6.067 14.509 C 6.231 15.149,6.737 15.683,7.384 15.899 C 7.621 15.977,7.667 15.984,8.000 15.984 C 8.340 15.985,8.375 15.980,8.624 15.894 C 9.292 15.666,9.785 15.130,9.945 14.460 C 9.995 14.252,9.988 14.136,9.922 14.070 C 9.865 14.013,9.863 14.013,8.033 14.008 C 7.025 14.005,6.176 14.013,6.146 14.025 " stroke="none" fill-rule="evenodd" fill="black"></path></svg>