<svg xmlns="http://www.w3.org/2000/svg" width="24" height="24" viewBox="0 0 24 24"><path d="M7.860 2.077 C 7.633 2.183,2.146 7.683,2.061 7.889 C 2.008 8.019,2.000 8.529,2.001 12.009 C 2.002 15.808,2.005 15.987,2.077 16.140 C 2.183 16.367,7.683 21.854,7.889 21.939 C 8.019 21.992,8.529 22.000,12.000 22.000 C 15.471 22.000,15.981 21.992,16.111 21.939 C 16.317 21.854,21.817 16.367,21.923 16.140 C 21.995 15.987,21.998 15.809,21.998 12.000 C 21.998 8.191,21.995 8.013,21.923 7.860 C 21.817 7.633,16.317 2.146,16.111 2.061 C 15.981 2.008,15.471 2.000,11.991 2.001 C 8.192 2.002,8.013 2.005,7.860 2.077 M18.010 5.990 L 20.480 8.460 20.480 12.000 L 20.480 15.540 17.990 18.030 L 15.500 20.520 12.000 20.520 L 8.500 20.520 6.010 18.030 L 3.520 15.540 3.520 12.000 L 3.520 8.460 5.990 5.990 L 8.460 3.520 12.000 3.520 L 15.540 3.520 18.010 5.990 M7.460 11.075 C 6.795 11.376,6.890 12.324,7.600 12.476 C 7.886 12.538,16.114 12.538,16.400 12.476 C 17.110 12.324,17.205 11.376,16.540 11.075 C 16.388 11.006,16.151 11.002,12.000 11.002 C 7.849 11.002,7.612 11.006,7.460 11.075 " stroke="none" fill-rule="evenodd" fill="black"></path></svg>