<svg xmlns="http://www.w3.org/2000/svg" width="16" height="16" viewBox="0 0 16 16"><path d="M4.809 0.025 C 4.762 0.037,4.672 0.077,4.609 0.114 C 4.436 0.217,0.153 4.518,0.076 4.667 L 0.013 4.787 0.013 8.000 L 0.013 11.213 0.076 11.333 C 0.166 11.507,4.466 15.809,4.652 15.912 L 4.787 15.987 8.000 15.987 L 11.213 15.987 11.348 15.912 C 11.534 15.809,15.834 11.507,15.924 11.333 L 15.987 11.213 15.987 8.000 L 15.987 4.787 15.912 4.652 C 15.809 4.466,11.507 0.166,11.333 0.076 L 11.213 0.013 8.053 0.009 C 6.315 0.007,4.855 0.014,4.809 0.025 M12.593 3.407 L 14.507 5.320 14.507 8.000 L 14.507 10.680 12.593 12.593 L 10.680 14.507 8.000 14.507 L 5.320 14.507 3.407 12.593 L 1.493 10.680 1.493 8.000 L 1.493 5.320 3.407 3.407 L 5.320 1.493 8.000 1.493 L 10.680 1.493 12.593 3.407 M4.440 7.076 C 4.264 7.158,4.099 7.341,4.040 7.519 C 3.944 7.809,4.049 8.154,4.291 8.339 C 4.519 8.515,4.333 8.507,8.000 8.507 C 11.667 8.507,11.481 8.515,11.709 8.339 C 11.951 8.154,12.056 7.809,11.960 7.519 C 11.901 7.341,11.736 7.158,11.560 7.076 L 11.427 7.014 8.000 7.014 L 4.573 7.014 4.440 7.076 " stroke="none" fill-rule="evenodd" fill="black"></path></svg>