<svg xmlns="http://www.w3.org/2000/svg" width="16" height="16" viewBox="0 0 16 16"><path d="M3.734 2.042 C 3.362 2.144,3.088 2.448,3.016 2.839 C 2.975 3.060,2.975 12.939,3.016 13.162 C 3.076 13.490,3.293 13.771,3.600 13.917 L 3.747 13.987 6.740 13.994 C 9.264 14.000,9.774 13.995,9.993 13.962 C 10.769 13.845,11.425 13.514,11.973 12.962 C 12.651 12.280,12.994 11.450,12.995 10.493 C 12.995 9.320,12.400 8.220,11.416 7.572 L 11.353 7.531 11.454 7.374 C 11.831 6.785,12.020 6.074,11.990 5.360 C 11.968 4.824,11.855 4.382,11.622 3.924 C 11.140 2.976,10.302 2.332,9.213 2.073 C 8.978 2.017,8.923 2.016,6.427 2.009 C 4.238 2.003,3.860 2.008,3.734 2.042 M8.962 4.073 C 9.666 4.312,10.097 5.028,9.974 5.757 C 9.882 6.301,9.466 6.766,8.907 6.950 C 8.772 6.994,8.605 6.999,6.887 7.007 L 5.013 7.016 5.013 5.507 L 5.013 3.998 6.900 4.006 C 8.770 4.014,8.788 4.014,8.962 4.073 M9.875 9.053 C 10.384 9.186,10.814 9.614,10.946 10.121 C 10.997 10.319,10.998 10.689,10.947 10.880 C 10.806 11.410,10.369 11.834,9.833 11.960 C 9.693 11.993,9.295 11.999,7.340 12.000 L 5.013 12.000 5.013 10.507 L 5.013 9.013 7.368 9.013 C 9.367 9.013,9.745 9.019,9.875 9.053 " stroke="none" fill-rule="evenodd" fill="black"></path></svg>