<svg xmlns="http://www.w3.org/2000/svg" width="24" height="24" viewBox="0 0 24 24"><path d="M6.828 3.578 C 6.456 3.710,6.131 4.067,6.041 4.440 C 6.010 4.567,6.001 6.814,6.009 12.100 L 6.020 19.580 6.117 19.777 C 6.246 20.040,6.479 20.265,6.754 20.394 L 6.980 20.500 10.460 20.512 C 13.960 20.525,14.543 20.508,15.091 20.380 C 16.832 19.975,18.219 18.707,18.755 17.029 C 19.097 15.959,19.078 14.856,18.698 13.800 C 18.289 12.664,17.400 11.629,16.390 11.116 C 16.264 11.051,16.160 10.987,16.160 10.973 C 16.160 10.959,16.213 10.864,16.278 10.763 C 16.932 9.744,17.163 8.323,16.864 7.151 C 16.627 6.221,16.281 5.604,15.620 4.938 C 14.881 4.193,14.140 3.790,13.149 3.597 C 12.785 3.525,12.555 3.520,9.869 3.522 C 7.542 3.523,6.950 3.534,6.828 3.578 M12.730 6.059 C 13.523 6.227,14.209 6.885,14.421 7.680 C 14.497 7.967,14.496 8.522,14.419 8.818 C 14.229 9.548,13.683 10.125,12.933 10.389 L 12.620 10.499 10.570 10.512 L 8.520 10.526 8.520 8.263 L 8.520 6.000 10.490 6.001 C 12.045 6.001,12.517 6.013,12.730 6.059 M14.802 13.142 C 15.452 13.375,15.953 13.818,16.235 14.411 C 16.424 14.806,16.480 15.054,16.480 15.500 C 16.480 15.946,16.424 16.194,16.235 16.589 C 15.959 17.170,15.459 17.617,14.820 17.859 L 14.500 17.980 11.510 17.991 L 8.520 18.003 8.520 15.500 L 8.520 12.997 11.490 13.009 L 14.460 13.020 14.802 13.142 " stroke="none" fill-rule="evenodd" fill="black"></path></svg>