<svg xmlns="http://www.w3.org/2000/svg" width="16" height="16" viewBox="0 0 16 16"><path d="M0.439 1.076 C 0.281 1.150,0.154 1.271,0.072 1.423 L 0.013 1.533 0.006 6.952 C -0.000 12.341,-0.000 12.371,0.054 12.512 C 0.145 12.749,0.322 12.907,0.573 12.972 C 0.710 13.008,1.056 13.013,3.132 13.014 C 5.698 13.014,5.690 13.014,6.050 13.148 C 6.418 13.284,6.579 13.403,7.134 13.950 C 7.623 14.431,7.719 14.492,8.000 14.492 C 8.281 14.492,8.377 14.431,8.866 13.950 C 9.421 13.403,9.582 13.284,9.950 13.148 C 10.310 13.014,10.302 13.014,12.868 13.014 C 15.492 13.013,15.475 13.014,15.679 12.860 C 15.799 12.768,15.853 12.706,15.927 12.573 L 15.987 12.467 15.987 7.000 L 15.987 1.533 15.929 1.427 C 15.846 1.272,15.713 1.147,15.555 1.075 L 15.417 1.011 12.915 1.021 C 10.164 1.031,10.344 1.021,9.807 1.201 C 9.192 1.407,8.569 1.823,8.174 2.291 C 8.087 2.395,8.009 2.480,8.001 2.480 C 7.993 2.480,7.927 2.406,7.853 2.316 C 7.690 2.116,7.336 1.801,7.089 1.637 C 6.718 1.390,6.292 1.206,5.813 1.086 C 5.591 1.031,5.535 1.030,3.080 1.021 L 0.573 1.013 0.439 1.076 M5.418 2.544 C 6.173 2.689,6.823 3.224,7.093 3.924 C 7.258 4.351,7.253 4.228,7.253 8.336 L 7.253 12.078 7.100 11.989 C 6.768 11.796,6.344 11.643,5.896 11.556 C 5.696 11.516,5.397 11.509,3.580 11.500 L 1.493 11.490 1.493 6.998 L 1.493 2.507 3.358 2.507 C 4.848 2.507,5.261 2.514,5.418 2.544 M14.507 7.000 L 14.507 11.493 12.633 11.494 C 11.603 11.494,10.628 11.505,10.467 11.519 C 9.932 11.563,9.531 11.673,9.067 11.902 C 8.913 11.978,8.778 12.044,8.767 12.049 C 8.737 12.062,8.743 4.807,8.773 4.516 C 8.861 3.687,9.413 2.958,10.180 2.661 C 10.561 2.513,10.576 2.512,12.620 2.509 L 14.507 2.507 14.507 7.000 " stroke="none" fill-rule="evenodd" fill="black"></path></svg>