<svg xmlns="http://www.w3.org/2000/svg" width="24" height="24" viewBox="0 0 24 24"><path d="M0.460 3.075 C 0.273 3.162,0.103 3.333,0.043 3.493 C 0.013 3.571,0.000 5.945,0.001 11.253 C 0.002 18.635,0.004 18.906,0.077 19.065 C 0.169 19.268,0.365 19.422,0.601 19.477 C 0.717 19.504,2.185 19.519,4.800 19.520 C 9.151 19.522,9.072 19.518,9.600 19.740 C 10.032 19.922,10.276 20.107,10.920 20.740 C 11.261 21.075,11.602 21.381,11.677 21.419 C 11.853 21.509,12.148 21.509,12.323 21.419 C 12.398 21.380,12.759 21.055,13.124 20.698 C 13.760 20.075,13.807 20.038,14.204 19.846 C 14.925 19.497,14.677 19.512,19.383 19.527 L 23.505 19.540 23.646 19.444 C 23.724 19.391,23.831 19.284,23.884 19.207 L 23.980 19.066 23.992 11.423 C 23.998 7.219,23.992 3.703,23.979 3.608 C 23.949 3.399,23.768 3.178,23.540 3.075 C 23.389 3.006,23.165 3.002,19.460 3.001 C 16.842 3.000,15.420 3.015,15.180 3.044 C 14.473 3.131,13.870 3.359,13.240 3.778 C 12.858 4.032,12.251 4.614,12.099 4.870 C 12.057 4.942,12.013 5.000,12.000 5.000 C 11.987 5.000,11.946 4.947,11.908 4.882 C 11.797 4.695,11.256 4.139,10.989 3.938 C 10.457 3.538,9.888 3.267,9.248 3.110 C 8.906 3.026,8.832 3.024,4.760 3.012 C 0.783 3.001,0.614 3.003,0.460 3.075 M9.180 4.652 C 9.654 4.819,10.018 5.050,10.382 5.416 C 10.651 5.687,10.737 5.809,10.910 6.160 C 11.265 6.881,11.243 6.410,11.231 13.090 L 11.220 18.960 11.020 18.815 C 10.724 18.600,9.985 18.256,9.620 18.162 C 9.444 18.117,9.165 18.063,9.000 18.041 C 8.826 18.019,7.189 18.002,5.110 18.001 L 1.520 18.000 1.520 11.259 L 1.520 4.518 5.190 4.529 L 8.860 4.540 9.180 4.652 M22.480 11.305 L 22.480 18.090 22.130 18.065 C 21.938 18.052,20.259 18.039,18.400 18.036 C 15.396 18.032,14.983 18.039,14.686 18.098 C 14.100 18.215,13.429 18.499,12.973 18.823 L 12.780 18.960 12.769 13.090 C 12.759 7.856,12.765 7.185,12.822 6.900 C 13.050 5.754,13.951 4.837,15.100 4.580 C 15.290 4.537,16.081 4.526,18.910 4.523 L 22.480 4.520 22.480 11.305 " stroke="none" fill-rule="evenodd" fill="black"></path></svg>