<svg xmlns="http://www.w3.org/2000/svg" width="24" height="24" viewBox="0 0 24 24"><path d="M0.905 1.939 C 0.383 2.125,0.225 2.795,0.617 3.160 C 0.676 3.215,1.682 3.954,2.852 4.802 L 4.980 6.344 5.000 13.925 L 5.020 21.506 5.127 21.668 C 5.307 21.940,5.718 22.075,6.016 21.961 C 6.072 21.940,7.434 20.869,9.042 19.581 C 10.650 18.294,11.981 17.240,12.000 17.240 C 12.019 17.240,13.345 18.289,14.947 19.572 C 16.549 20.854,17.919 21.927,17.990 21.957 C 18.314 22.089,18.759 21.913,18.915 21.590 C 18.999 21.417,19.000 21.380,19.000 18.967 C 19.000 17.621,19.008 16.520,19.017 16.520 C 19.027 16.520,19.797 17.073,20.727 17.748 C 21.658 18.424,22.482 19.009,22.558 19.048 C 22.731 19.137,23.003 19.141,23.172 19.055 C 23.663 18.807,23.773 18.259,23.407 17.877 C 23.224 17.685,1.640 2.056,1.420 1.955 C 1.230 1.868,1.114 1.864,0.905 1.939 M6.935 2.077 C 6.845 2.118,6.724 2.212,6.668 2.286 C 6.569 2.416,6.472 2.721,6.500 2.815 C 6.507 2.840,6.524 2.909,6.537 2.969 C 6.567 3.105,6.771 3.342,6.936 3.432 C 7.051 3.495,7.452 3.501,12.217 3.511 C 15.905 3.518,17.389 3.534,17.427 3.566 C 17.470 3.602,17.480 4.211,17.480 6.903 C 17.480 9.138,17.494 10.262,17.524 10.400 C 17.608 10.795,17.974 11.043,18.380 10.982 C 18.616 10.947,18.898 10.704,18.959 10.485 C 19.014 10.287,19.013 3.604,18.958 3.364 C 18.809 2.719,18.261 2.184,17.608 2.045 C 17.457 2.013,15.913 2.000,12.248 2.001 C 7.307 2.002,7.093 2.005,6.935 2.077 M12.060 11.468 L 17.460 15.381 17.470 17.532 L 17.481 19.683 14.988 17.685 C 13.617 16.587,12.433 15.650,12.357 15.604 C 12.168 15.489,11.830 15.490,11.640 15.606 C 11.563 15.653,10.380 16.589,9.010 17.687 L 6.520 19.682 6.520 13.580 C 6.520 7.780,6.523 7.479,6.590 7.516 C 6.629 7.538,9.090 9.316,12.060 11.468 " stroke="none" fill-rule="evenodd" fill="black"></path></svg>