<svg xmlns="http://www.w3.org/2000/svg" width="16" height="16" viewBox="0 0 16 16"><path d="M4.387 1.041 C 3.891 1.144,3.422 1.504,3.203 1.950 C 2.981 2.404,3.000 1.783,3.000 8.467 L 3.000 14.413 3.074 14.565 C 3.260 14.942,3.689 15.100,4.057 14.926 C 4.150 14.882,4.865 14.309,6.093 13.296 C 7.135 12.436,7.993 11.733,8.000 11.733 C 8.007 11.733,8.865 12.436,9.907 13.296 C 11.135 14.309,11.850 14.882,11.943 14.926 C 12.311 15.100,12.740 14.942,12.926 14.565 L 13.000 14.413 13.000 8.467 C 13.000 1.783,13.019 2.404,12.797 1.950 C 12.608 1.565,12.257 1.262,11.797 1.087 L 11.640 1.027 8.067 1.023 C 6.101 1.020,4.445 1.029,4.387 1.041 M11.415 2.585 L 11.493 2.663 11.493 7.653 C 11.493 11.449,11.486 12.639,11.462 12.624 C 11.445 12.613,10.752 12.046,9.922 11.362 C 9.072 10.662,8.361 10.097,8.294 10.067 C 8.214 10.031,8.118 10.013,8.000 10.013 C 7.882 10.013,7.786 10.031,7.706 10.067 C 7.639 10.097,6.928 10.662,6.078 11.362 C 5.248 12.046,4.555 12.613,4.538 12.624 C 4.514 12.639,4.507 11.449,4.507 7.653 L 4.507 2.663 4.585 2.585 L 4.663 2.507 8.000 2.507 L 11.337 2.507 11.415 2.585 " stroke="none" fill-rule="evenodd" fill="black"></path></svg>