<svg xmlns="http://www.w3.org/2000/svg" width="24" height="24" viewBox="0 0 24 24"><path d="M6.250 2.062 C 5.684 2.214,5.236 2.629,5.032 3.191 C 4.948 3.419,4.948 3.440,4.954 8.360 C 4.964 15.821,5.001 21.364,5.044 21.502 C 5.088 21.648,5.335 21.898,5.493 21.958 C 5.648 22.016,5.857 22.011,6.017 21.944 C 6.090 21.913,7.458 20.842,9.055 19.564 C 10.652 18.286,11.978 17.240,12.000 17.240 C 12.022 17.240,13.350 18.288,14.950 19.568 C 16.764 21.020,17.920 21.919,18.020 21.955 C 18.364 22.078,18.801 21.879,18.946 21.531 C 18.991 21.425,19.000 19.871,18.999 12.471 C 18.998 6.594,18.984 3.480,18.958 3.364 C 18.809 2.719,18.261 2.184,17.608 2.045 C 17.457 2.013,15.836 2.001,11.928 2.003 C 7.348 2.005,6.426 2.014,6.250 2.062 " stroke="none" fill-rule="evenodd" fill="black"></path></svg>