<svg xmlns="http://www.w3.org/2000/svg" width="16" height="16" viewBox="0 0 16 16"><path d="M0.511 1.025 C 0.290 1.097,0.105 1.269,0.028 1.475 C 0.013 1.516,0.000 1.642,0.000 1.755 C 0.000 1.932,0.011 1.978,0.077 2.093 C 0.120 2.167,0.183 2.252,0.217 2.283 C 0.252 2.314,0.889 2.780,1.633 3.318 L 2.986 4.296 2.993 9.355 L 3.000 14.413 3.074 14.565 C 3.254 14.932,3.678 15.096,4.035 14.938 C 4.103 14.908,5.023 14.222,6.079 13.414 L 8.000 11.944 9.920 13.413 C 10.976 14.222,11.896 14.908,11.965 14.938 C 12.322 15.096,12.745 14.932,12.926 14.565 L 13.000 14.413 13.008 12.993 C 13.012 12.212,13.021 11.573,13.026 11.573 C 13.032 11.573,13.453 11.875,13.962 12.244 C 14.493 12.629,14.942 12.935,15.017 12.964 C 15.276 13.062,15.582 12.996,15.787 12.797 C 15.945 12.643,15.999 12.509,15.999 12.265 C 16.000 12.103,15.987 12.038,15.933 11.930 C 15.896 11.856,15.839 11.771,15.807 11.740 C 15.685 11.627,1.156 1.118,1.046 1.064 C 0.902 0.993,0.662 0.975,0.511 1.025 M5.608 1.048 C 5.325 1.154,5.120 1.441,5.120 1.733 C 5.120 2.042,5.269 2.285,5.541 2.418 L 5.693 2.493 8.526 2.507 L 11.359 2.520 11.419 2.581 L 11.480 2.641 11.493 4.594 L 11.507 6.547 11.582 6.699 C 11.724 6.988,11.988 7.139,12.309 7.113 C 12.639 7.087,12.889 6.870,12.974 6.538 C 13.011 6.395,13.015 6.132,13.007 4.434 C 12.996 2.261,13.006 2.378,12.797 1.950 C 12.608 1.565,12.257 1.262,11.797 1.087 L 11.640 1.027 8.667 1.022 C 6.427 1.018,5.672 1.025,5.608 1.048 M7.979 7.909 C 9.875 9.282,11.442 10.420,11.460 10.437 C 11.487 10.462,11.492 10.716,11.487 11.593 L 11.480 12.717 9.947 11.542 C 9.103 10.896,8.361 10.344,8.298 10.315 C 8.128 10.237,7.848 10.242,7.685 10.325 C 7.596 10.370,5.216 12.167,4.540 12.700 C 4.513 12.721,4.507 11.991,4.507 9.070 C 4.507 7.059,4.512 5.413,4.519 5.413 C 4.526 5.413,6.083 6.537,7.979 7.909 " stroke="none" fill-rule="evenodd" fill="black"></path></svg>