<svg xmlns="http://www.w3.org/2000/svg" width="24" height="24" viewBox="0 0 24 24"><path d="M2.496 2.041 C 2.237 2.121,2.009 2.455,2.004 2.760 C 1.999 3.085,2.067 3.157,3.549 4.398 L 4.947 5.570 4.971 13.477 C 4.989 19.134,5.008 21.417,5.040 21.502 C 5.100 21.660,5.310 21.877,5.469 21.945 C 5.633 22.015,5.846 22.015,6.017 21.944 C 6.090 21.913,7.458 20.842,9.055 19.564 C 10.652 18.286,11.978 17.240,12.000 17.240 C 12.022 17.240,13.350 18.288,14.950 19.568 C 16.764 21.020,17.920 21.919,18.020 21.955 C 18.264 22.042,18.528 21.988,18.725 21.811 C 18.813 21.732,18.906 21.629,18.932 21.583 C 18.967 21.523,18.985 20.932,19.000 19.431 L 19.020 17.362 19.944 18.135 C 20.452 18.560,20.927 18.929,21.000 18.954 C 21.621 19.171,22.197 18.537,21.924 17.937 C 21.862 17.801,20.372 16.535,12.618 10.037 C 7.541 5.782,3.301 2.239,3.195 2.164 C 2.987 2.017,2.726 1.970,2.496 2.041 M7.192 2.040 C 6.866 2.138,6.659 2.461,6.689 2.824 C 6.700 2.956,6.739 3.087,6.786 3.152 C 6.903 3.311,17.797 12.438,17.949 12.504 C 18.271 12.644,18.677 12.524,18.870 12.232 L 18.980 12.066 18.991 7.823 C 18.998 5.033,18.988 3.514,18.961 3.387 C 18.821 2.732,18.271 2.186,17.608 2.045 C 17.357 1.992,7.368 1.986,7.192 2.040 " stroke="none" fill-rule="evenodd" fill="black"></path></svg>