<svg xmlns="http://www.w3.org/2000/svg" width="24" height="24" viewBox="0 0 24 24"><path d="M8.810 0.062 C 8.245 0.214,7.798 0.628,7.591 1.191 C 7.513 1.402,7.505 1.521,7.489 2.710 L 7.473 4.000 5.038 4.000 C 3.387 4.000,2.536 4.014,2.392 4.045 C 1.729 4.186,1.179 4.732,1.039 5.387 C 1.012 5.516,1.002 8.078,1.009 13.120 L 1.020 20.660 1.113 20.878 C 1.307 21.336,1.665 21.695,2.120 21.887 L 2.340 21.980 12.000 21.980 L 21.660 21.980 21.878 21.887 C 22.336 21.693,22.695 21.335,22.887 20.880 L 22.980 20.660 22.991 13.120 C 22.998 8.078,22.988 5.516,22.961 5.387 C 22.821 4.732,22.271 4.186,21.608 4.045 C 21.464 4.014,20.613 4.000,18.962 4.000 L 16.527 4.000 16.511 2.710 C 16.495 1.521,16.487 1.402,16.409 1.191 C 16.199 0.619,15.753 0.211,15.173 0.060 C 14.842 -0.026,9.131 -0.025,8.810 0.062 M14.927 1.586 C 14.995 1.647,15.000 1.740,15.000 2.826 L 15.000 4.000 12.000 4.000 L 9.000 4.000 9.000 2.833 C 9.000 1.804,9.008 1.658,9.066 1.593 C 9.129 1.524,9.272 1.520,11.993 1.520 C 14.599 1.520,14.860 1.526,14.927 1.586 M21.437 5.576 C 21.472 5.618,21.481 6.115,21.472 7.486 L 21.460 9.340 21.353 9.633 C 21.194 10.069,21.017 10.342,20.660 10.701 C 20.408 10.955,20.268 11.059,20.000 11.190 C 19.317 11.526,19.993 11.500,12.000 11.500 C 4.006 11.500,4.683 11.526,4.000 11.190 C 3.734 11.059,3.590 10.953,3.340 10.701 C 2.984 10.344,2.807 10.071,2.647 9.633 L 2.540 9.340 2.528 7.486 C 2.519 6.115,2.528 5.618,2.563 5.576 C 2.603 5.528,3.972 5.520,12.000 5.520 C 20.028 5.520,21.397 5.528,21.437 5.576 M2.772 12.195 C 3.200 12.515,3.740 12.756,4.370 12.909 C 4.642 12.976,5.123 12.980,12.000 12.980 C 18.877 12.980,19.358 12.976,19.630 12.909 C 20.260 12.756,20.800 12.515,21.228 12.195 C 21.343 12.110,21.446 12.040,21.458 12.040 C 21.471 12.040,21.476 13.925,21.470 16.229 L 21.460 20.418 21.360 20.468 C 21.280 20.509,19.386 20.519,12.000 20.519 C 4.614 20.519,2.720 20.509,2.640 20.468 L 2.540 20.418 2.530 16.229 C 2.524 13.925,2.529 12.040,2.542 12.040 C 2.554 12.040,2.657 12.110,2.772 12.195 " stroke="none" fill-rule="evenodd" fill="black"></path></svg>