<svg xmlns="http://www.w3.org/2000/svg" width="16" height="16" viewBox="0 0 16 16"><path d="M6.430 0.029 C 5.842 0.130,5.267 0.633,5.091 1.200 C 5.008 1.467,4.988 1.693,4.987 2.380 L 4.987 3.013 3.247 3.014 C 1.339 3.014,1.333 3.015,0.996 3.175 C 0.649 3.341,0.364 3.626,0.185 3.987 C -0.010 4.380,0.001 4.075,0.001 9.000 C 0.001 13.924,-0.010 13.620,0.185 14.013 C 0.308 14.262,0.458 14.448,0.678 14.624 C 0.876 14.783,1.034 14.863,1.298 14.940 L 1.507 15.000 8.000 15.000 L 14.493 15.000 14.702 14.940 C 14.966 14.863,15.124 14.783,15.322 14.624 C 15.643 14.367,15.881 13.990,15.960 13.613 C 16.019 13.333,16.019 4.667,15.960 4.387 C 15.827 3.752,15.293 3.203,14.664 3.054 C 14.521 3.021,14.212 3.014,12.757 3.014 L 11.020 3.013 11.006 2.247 C 10.994 1.561,10.987 1.459,10.935 1.280 C 10.767 0.707,10.345 0.273,9.760 0.074 C 9.590 0.016,9.559 0.015,8.080 0.010 C 7.251 0.007,6.509 0.016,6.430 0.029 M9.361 1.534 C 9.403 1.556,9.451 1.597,9.466 1.625 C 9.483 1.656,9.493 1.937,9.493 2.345 L 9.493 3.013 8.000 3.013 L 6.507 3.013 6.507 2.345 C 6.507 1.939,6.517 1.656,6.534 1.625 C 6.603 1.497,6.622 1.496,7.995 1.494 C 9.093 1.493,9.294 1.499,9.361 1.534 M14.413 4.570 C 14.448 4.605,14.485 4.678,14.495 4.732 C 14.530 4.918,14.489 6.292,14.443 6.473 C 14.268 7.163,13.745 7.704,13.040 7.924 L 12.840 7.987 8.000 7.987 L 3.160 7.987 2.960 7.924 C 2.255 7.704,1.733 7.164,1.557 6.473 C 1.499 6.246,1.470 4.788,1.521 4.665 C 1.592 4.493,1.047 4.507,8.007 4.507 L 14.349 4.507 14.413 4.570 M1.947 9.131 C 2.071 9.195,2.287 9.283,2.427 9.327 C 2.976 9.502,2.690 9.493,8.000 9.493 C 13.335 9.493,13.037 9.503,13.591 9.319 C 13.852 9.233,14.157 9.091,14.393 8.946 L 14.507 8.877 14.507 11.066 C 14.507 13.405,14.507 13.395,14.377 13.465 C 14.303 13.504,1.699 13.505,1.625 13.466 C 1.491 13.394,1.493 13.445,1.493 11.080 L 1.493 8.877 1.607 8.946 C 1.669 8.985,1.822 9.068,1.947 9.131 " stroke="none" fill-rule="evenodd" fill="black"></path></svg>