<svg xmlns="http://www.w3.org/2000/svg" width="16" height="16" viewBox="0 0 16 16"><path d="M2.513 1.293 C 2.357 1.341,2.248 1.430,2.009 1.702 C 0.926 2.934,0.265 4.410,0.049 6.080 C 0.002 6.449,0.002 7.607,0.049 7.947 C 0.294 9.696,0.977 11.176,2.107 12.408 C 2.375 12.699,2.620 12.789,2.924 12.707 C 3.329 12.597,3.572 12.177,3.457 11.784 C 3.428 11.684,3.369 11.584,3.261 11.457 C 2.764 10.870,2.608 10.657,2.368 10.240 C 1.958 9.525,1.696 8.770,1.571 7.933 C 1.492 7.409,1.492 6.591,1.571 6.067 C 1.766 4.766,2.301 3.625,3.171 2.653 C 3.446 2.347,3.479 2.276,3.479 2.000 C 3.479 1.729,3.428 1.611,3.240 1.445 C 3.036 1.266,2.774 1.211,2.513 1.293 M12.995 1.297 C 12.853 1.348,12.654 1.522,12.579 1.663 C 12.532 1.752,12.521 1.818,12.521 2.000 C 12.521 2.276,12.554 2.347,12.829 2.653 C 13.578 3.486,14.103 4.506,14.346 5.600 C 14.492 6.256,14.532 7.202,14.441 7.853 C 14.256 9.181,13.734 10.318,12.847 11.325 C 12.585 11.623,12.516 11.740,12.492 11.931 C 12.463 12.165,12.532 12.350,12.715 12.532 C 12.842 12.658,12.895 12.691,13.038 12.731 C 13.231 12.785,13.355 12.775,13.546 12.691 C 13.693 12.625,13.756 12.567,14.050 12.227 C 15.101 11.009,15.724 9.598,15.952 7.920 C 16.005 7.526,15.997 6.357,15.938 5.960 C 15.697 4.339,15.081 2.973,14.050 1.771 C 13.923 1.623,13.773 1.464,13.716 1.417 C 13.531 1.264,13.230 1.214,12.995 1.297 M4.613 3.517 C 4.357 3.573,4.155 3.759,3.838 4.233 C 2.727 5.894,2.726 8.097,3.835 9.760 C 4.176 10.271,4.359 10.428,4.660 10.468 C 4.880 10.497,5.068 10.427,5.253 10.245 C 5.375 10.126,5.418 10.062,5.451 9.948 C 5.535 9.660,5.488 9.480,5.240 9.149 C 4.939 8.749,4.724 8.315,4.615 7.885 C 4.340 6.811,4.599 5.617,5.284 4.796 C 5.487 4.552,5.550 4.311,5.478 4.055 C 5.375 3.686,4.977 3.438,4.613 3.517 M11.133 3.545 C 10.789 3.604,10.507 3.938,10.507 4.284 C 10.507 4.433,10.586 4.619,10.733 4.813 C 11.132 5.342,11.339 5.805,11.441 6.396 C 11.606 7.351,11.371 8.334,10.797 9.093 C 10.548 9.423,10.495 9.539,10.495 9.760 C 10.495 10.261,10.966 10.608,11.456 10.468 C 11.591 10.429,11.639 10.396,11.792 10.238 C 11.891 10.137,12.057 9.925,12.161 9.767 C 13.140 8.290,13.268 6.403,12.496 4.817 C 12.336 4.487,12.044 4.035,11.852 3.819 C 11.654 3.595,11.400 3.498,11.133 3.545 M7.627 5.295 C 7.401 5.344,7.064 5.508,6.879 5.660 C 6.362 6.082,6.125 6.844,6.317 7.467 C 6.450 7.901,6.681 8.218,7.035 8.455 L 7.240 8.593 7.253 11.530 L 7.267 14.467 7.350 14.613 C 7.453 14.796,7.618 14.919,7.836 14.974 C 7.984 15.012,8.015 15.012,8.160 14.976 C 8.356 14.925,8.506 14.829,8.601 14.693 C 8.751 14.476,8.744 14.621,8.745 11.490 L 8.747 8.594 8.913 8.493 C 9.005 8.437,9.159 8.310,9.255 8.212 C 9.773 7.682,9.894 6.872,9.554 6.202 C 9.204 5.512,8.392 5.129,7.627 5.295 " stroke="none" fill-rule="evenodd" fill="black"></path></svg>