<svg xmlns="http://www.w3.org/2000/svg" width="24" height="24" viewBox="0 0 24 24"><path d="M3.691 2.404 C 3.500 2.498,2.875 3.175,2.408 3.794 C 1.062 5.577,0.256 7.685,0.037 10.000 C -0.026 10.664,0.013 11.978,0.115 12.661 C 0.429 14.746,1.204 16.618,2.414 18.212 C 2.888 18.837,3.508 19.507,3.698 19.599 C 4.146 19.816,4.697 19.535,4.750 19.062 C 4.788 18.724,4.742 18.625,4.344 18.183 C 3.053 16.751,2.274 15.333,1.840 13.620 C 1.588 12.625,1.541 12.210,1.541 11.000 C 1.541 9.790,1.588 9.375,1.840 8.380 C 2.265 6.704,3.064 5.240,4.313 3.852 C 4.744 3.371,4.788 3.279,4.750 2.938 C 4.696 2.463,4.139 2.182,3.691 2.404 M19.660 2.396 C 19.373 2.528,19.240 2.739,19.240 3.060 C 19.240 3.327,19.290 3.414,19.707 3.874 C 20.919 5.211,21.738 6.714,22.160 8.380 C 22.412 9.375,22.459 9.790,22.459 11.000 C 22.459 12.210,22.412 12.625,22.160 13.620 C 21.727 15.327,20.930 16.769,19.616 18.225 C 19.318 18.555,19.200 18.758,19.200 18.940 C 19.200 19.069,19.301 19.302,19.412 19.427 C 19.567 19.605,19.739 19.680,19.985 19.680 C 20.259 19.680,20.441 19.553,20.900 19.040 C 22.693 17.036,23.703 14.711,23.965 11.980 C 24.027 11.338,23.986 10.014,23.885 9.339 C 23.571 7.254,22.796 5.382,21.586 3.788 C 21.112 3.163,20.492 2.493,20.302 2.401 C 20.095 2.301,19.870 2.299,19.660 2.396 M16.215 5.838 C 15.937 5.904,15.705 6.165,15.659 6.462 C 15.623 6.695,15.727 6.938,15.974 7.197 C 16.704 7.964,17.238 9.030,17.416 10.077 C 17.499 10.564,17.499 11.432,17.417 11.923 C 17.242 12.964,16.743 13.958,15.968 14.809 C 15.701 15.102,15.615 15.312,15.660 15.556 C 15.716 15.857,15.915 16.068,16.232 16.162 C 16.379 16.206,16.433 16.204,16.620 16.145 C 16.806 16.086,16.882 16.028,17.145 15.740 C 18.549 14.207,19.207 12.142,18.940 10.106 C 18.753 8.683,18.137 7.351,17.172 6.288 C 16.806 5.884,16.542 5.760,16.215 5.838 M7.379 5.876 C 7.185 5.924,7.047 6.035,6.731 6.397 C 4.397 9.067,4.434 13.052,6.818 15.703 C 7.154 16.075,7.353 16.181,7.652 16.146 C 8.001 16.105,8.257 15.855,8.304 15.513 C 8.340 15.253,8.267 15.073,8.010 14.787 C 7.243 13.934,6.762 12.967,6.584 11.923 C 6.547 11.704,6.520 11.317,6.520 11.000 C 6.520 9.594,6.956 8.445,7.917 7.321 C 8.210 6.977,8.320 6.782,8.320 6.600 C 8.320 6.363,8.131 6.049,7.925 5.943 C 7.784 5.871,7.528 5.840,7.379 5.876 M11.680 9.028 C 10.732 9.186,10.000 10.046,10.000 11.000 C 10.000 11.685,10.403 12.382,10.995 12.721 L 11.238 12.860 11.239 17.111 C 11.240 20.856,11.247 21.380,11.302 21.511 C 11.569 22.151,12.431 22.151,12.698 21.511 C 12.753 21.380,12.760 20.856,12.761 17.111 L 12.762 12.860 13.005 12.721 C 13.139 12.644,13.345 12.478,13.462 12.351 C 14.198 11.556,14.172 10.363,13.403 9.599 C 12.936 9.135,12.300 8.924,11.680 9.028 " stroke="none" fill-rule="evenodd" fill="black"></path></svg>