<svg xmlns="http://www.w3.org/2000/svg" width="16" height="16" viewBox="0 0 16 16"><path d="M1.324 1.056 C 0.842 1.172,0.415 1.522,0.185 1.987 C -0.012 2.384,0.001 1.968,0.001 8.000 C 0.001 14.033,-0.012 13.617,0.185 14.013 C 0.418 14.483,0.788 14.792,1.294 14.939 L 1.507 15.000 8.000 15.000 L 14.493 15.000 14.702 14.940 C 14.966 14.863,15.124 14.783,15.322 14.624 C 15.643 14.367,15.881 13.990,15.960 13.613 C 16.019 13.333,16.019 2.667,15.960 2.387 C 15.827 1.752,15.293 1.203,14.664 1.054 C 14.514 1.019,13.703 1.014,7.987 1.016 C 2.464 1.018,1.456 1.023,1.324 1.056 M3.493 3.507 L 3.493 4.507 2.493 4.507 L 1.493 4.507 1.493 3.612 C 1.493 2.668,1.501 2.605,1.620 2.535 C 1.649 2.518,2.009 2.508,2.580 2.507 L 3.493 2.507 3.493 3.507 M6.987 3.507 L 6.987 4.507 6.000 4.507 L 5.013 4.507 5.013 3.507 L 5.013 2.507 6.000 2.507 L 6.987 2.507 6.987 3.507 M14.377 2.535 C 14.496 2.599,14.507 2.690,14.507 3.626 L 14.507 4.507 11.507 4.507 L 8.507 4.507 8.507 3.507 L 8.507 2.507 11.415 2.507 C 13.447 2.507,14.340 2.515,14.377 2.535 M14.507 9.628 C 14.507 13.515,14.511 13.393,14.377 13.465 C 14.303 13.504,1.699 13.505,1.625 13.466 C 1.487 13.392,1.493 13.565,1.493 9.641 L 1.493 6.000 8.000 6.000 L 14.507 6.000 14.507 9.628 " stroke="none" fill-rule="evenodd" fill="black"></path></svg>