<svg xmlns="http://www.w3.org/2000/svg" width="24" height="24" viewBox="0 0 24 24"><path d="M1.340 2.056 C 0.694 2.217,0.175 2.748,0.039 3.387 C 0.012 3.516,0.002 6.399,0.009 12.120 L 0.020 20.660 0.113 20.880 C 0.305 21.335,0.664 21.693,1.122 21.887 L 1.340 21.980 12.000 21.980 L 22.660 21.980 22.878 21.887 C 23.336 21.693,23.695 21.335,23.887 20.880 L 23.980 20.660 23.991 12.120 C 23.998 6.399,23.988 3.516,23.961 3.387 C 23.821 2.732,23.271 2.186,22.608 2.045 C 22.287 1.977,1.616 1.988,1.340 2.056 M5.480 4.520 L 5.480 5.520 3.500 5.520 L 1.520 5.520 1.520 4.568 C 1.520 3.881,1.533 3.603,1.568 3.568 C 1.604 3.532,2.099 3.520,3.548 3.520 L 5.480 3.520 5.480 4.520 M11.000 4.520 L 11.000 5.520 9.000 5.520 L 7.000 5.520 7.000 4.520 L 7.000 3.520 9.000 3.520 L 11.000 3.520 11.000 4.520 M22.432 3.568 C 22.467 3.603,22.480 3.881,22.480 4.568 L 22.480 5.520 17.500 5.520 L 12.520 5.520 12.520 4.520 L 12.520 3.520 17.452 3.520 C 21.235 3.520,22.395 3.531,22.432 3.568 M22.470 13.709 L 22.460 20.418 22.360 20.468 C 22.213 20.543,1.787 20.543,1.640 20.468 L 1.540 20.418 1.530 13.709 L 1.520 7.000 12.000 7.000 L 22.480 7.000 22.470 13.709 " stroke="none" fill-rule="evenodd" fill="black"></path></svg>