<svg xmlns="http://www.w3.org/2000/svg" width="16" height="16" viewBox="0 0 16 16"><path d="M5.011 0.040 C 4.860 0.088,4.656 0.263,4.581 0.410 C 4.546 0.480,4.520 0.590,4.512 0.710 C 4.493 1.014,4.552 1.115,5.063 1.634 L 5.488 2.067 5.355 2.213 C 4.954 2.657,4.653 3.300,4.548 3.935 C 4.516 4.126,4.506 4.326,4.512 4.653 L 4.520 5.107 4.276 5.228 C 4.003 5.363,3.797 5.513,3.615 5.708 L 3.492 5.839 2.458 5.426 C 1.357 4.987,1.289 4.968,1.043 5.042 C 0.690 5.148,0.451 5.550,0.530 5.904 C 0.570 6.082,0.696 6.277,0.827 6.363 C 0.881 6.399,1.386 6.613,1.949 6.838 L 2.973 7.248 2.980 8.131 L 2.987 9.013 1.780 9.014 L 0.573 9.014 0.439 9.076 C 0.281 9.150,0.154 9.271,0.073 9.423 C 0.027 9.510,0.014 9.579,0.014 9.747 C 0.013 9.936,0.022 9.976,0.096 10.107 C 0.142 10.187,0.229 10.292,0.291 10.339 C 0.501 10.501,0.553 10.507,1.832 10.507 L 2.987 10.507 2.987 10.740 C 2.987 11.093,3.035 11.650,3.090 11.936 L 3.139 12.191 3.083 12.213 C 2.684 12.366,0.980 13.056,0.907 13.093 C 0.787 13.155,0.629 13.326,0.570 13.459 C 0.498 13.623,0.508 13.905,0.593 14.067 C 0.732 14.335,0.974 14.486,1.265 14.487 C 1.413 14.488,1.524 14.449,2.560 14.032 C 3.637 13.599,3.695 13.579,3.733 13.625 C 3.755 13.652,3.848 13.781,3.939 13.911 C 4.832 15.189,6.407 16.000,8.000 16.000 C 9.152 16.000,10.310 15.579,11.206 14.834 C 11.488 14.600,11.861 14.197,12.061 13.911 C 12.152 13.781,12.245 13.652,12.267 13.625 C 12.305 13.579,12.362 13.599,13.439 14.030 C 14.672 14.525,14.705 14.534,14.979 14.443 C 15.158 14.383,15.315 14.243,15.402 14.066 C 15.573 13.716,15.429 13.267,15.091 13.093 C 15.019 13.056,13.325 12.370,12.917 12.213 L 12.861 12.191 12.910 11.942 C 12.962 11.672,13.013 11.079,13.013 10.727 L 13.013 10.507 14.168 10.507 C 15.126 10.507,15.347 10.500,15.461 10.466 C 15.861 10.347,16.090 9.912,15.960 9.519 C 15.901 9.341,15.736 9.158,15.560 9.076 L 15.427 9.014 14.220 9.014 L 13.013 9.013 13.020 8.131 L 13.027 7.249 14.074 6.829 C 15.207 6.375,15.264 6.343,15.393 6.093 C 15.479 5.927,15.488 5.647,15.413 5.471 C 15.289 5.183,14.963 4.989,14.655 5.021 C 14.568 5.030,14.165 5.177,13.514 5.437 L 12.507 5.840 12.394 5.716 C 12.223 5.531,11.988 5.360,11.721 5.227 L 11.480 5.107 11.488 4.653 C 11.494 4.326,11.484 4.126,11.452 3.935 C 11.347 3.300,11.046 2.658,10.645 2.213 L 10.513 2.067 10.944 1.627 C 11.439 1.122,11.502 1.022,11.503 0.745 C 11.506 0.315,11.181 0.000,10.734 0.000 C 10.466 -0.000,10.376 0.062,9.764 0.676 L 9.221 1.219 9.023 1.156 C 8.710 1.057,8.398 1.013,8.000 1.013 C 7.602 1.013,7.290 1.057,6.977 1.156 L 6.779 1.219 6.251 0.691 C 5.920 0.360,5.675 0.137,5.592 0.092 C 5.430 0.004,5.190 -0.018,5.011 0.040 M8.573 2.586 C 9.106 2.753,9.564 3.146,9.799 3.637 C 9.933 3.919,9.975 4.106,9.992 4.507 C 10.006 4.842,10.003 4.871,9.952 4.933 L 9.898 5.000 8.000 5.000 L 6.102 5.000 6.048 4.933 C 5.997 4.871,5.994 4.842,6.008 4.507 C 6.025 4.106,6.067 3.919,6.201 3.637 C 6.464 3.086,6.967 2.690,7.587 2.545 C 7.823 2.490,8.333 2.511,8.573 2.586 M11.067 6.570 C 11.197 6.639,11.354 6.794,11.422 6.920 C 11.480 7.026,11.480 7.030,11.488 9.147 C 11.496 11.445,11.493 11.507,11.349 12.005 C 11.101 12.857,10.476 13.632,9.680 14.073 C 9.444 14.204,9.061 14.345,8.739 14.420 C 8.481 14.480,8.380 14.489,8.000 14.489 C 7.620 14.489,7.519 14.480,7.261 14.420 C 6.777 14.307,6.370 14.130,6.007 13.874 C 5.308 13.384,4.835 12.699,4.605 11.845 L 4.520 11.533 4.520 9.280 C 4.520 7.134,4.522 7.022,4.570 6.933 C 4.668 6.749,4.856 6.588,5.040 6.531 C 5.077 6.520,6.427 6.513,8.040 6.515 C 10.844 6.520,10.977 6.522,11.067 6.570 " stroke="none" fill-rule="evenodd" fill="black"></path></svg>