<svg xmlns="http://www.w3.org/2000/svg" width="24" height="24" viewBox="0 0 24 24"><path d="M7.935 0.077 C 7.551 0.251,7.395 0.736,7.600 1.121 C 7.629 1.175,7.884 1.455,8.166 1.742 L 8.678 2.264 8.454 2.482 C 7.827 3.092,7.375 3.904,7.133 4.857 C 7.042 5.215,7.028 5.364,7.011 6.190 C 6.995 6.909,6.979 7.120,6.939 7.120 C 6.911 7.120,6.728 7.200,6.531 7.299 C 5.910 7.610,5.406 8.165,5.174 8.795 L 5.071 9.074 3.993 8.537 C 2.852 7.969,2.773 7.944,2.489 8.062 C 2.292 8.144,2.165 8.266,2.076 8.460 C 1.935 8.764,2.024 9.134,2.286 9.331 C 2.360 9.386,3.001 9.722,3.710 10.076 L 5.000 10.720 5.000 12.120 L 5.000 13.520 3.278 13.520 C 1.644 13.520,1.549 13.524,1.402 13.599 C 0.893 13.859,0.867 14.550,1.353 14.884 L 1.494 14.980 3.242 14.991 L 4.989 15.002 5.012 15.951 C 5.032 16.758,5.050 16.971,5.137 17.377 C 5.193 17.640,5.235 17.859,5.229 17.864 C 5.224 17.869,4.572 18.151,3.780 18.490 C 2.196 19.169,2.098 19.229,2.002 19.573 C 1.864 20.067,2.333 20.594,2.828 20.501 C 2.902 20.487,3.591 20.207,4.358 19.878 C 5.126 19.549,5.769 19.281,5.787 19.281 C 5.805 19.282,5.894 19.412,5.985 19.571 C 6.407 20.310,7.197 21.173,7.922 21.688 C 10.374 23.430,13.612 23.430,16.080 21.689 C 16.826 21.162,17.708 20.172,18.108 19.410 C 18.192 19.251,18.274 19.121,18.290 19.120 C 18.307 19.120,18.928 19.423,19.670 19.794 C 20.413 20.165,21.070 20.480,21.131 20.495 C 21.193 20.510,21.319 20.502,21.411 20.477 C 21.993 20.323,22.193 19.639,21.777 19.227 C 21.714 19.165,21.018 18.790,20.229 18.395 C 19.062 17.810,18.800 17.664,18.817 17.608 C 18.914 17.290,18.972 16.720,18.990 15.911 L 19.009 15.002 20.758 14.991 L 22.506 14.980 22.647 14.884 C 23.133 14.550,23.107 13.859,22.598 13.599 C 22.451 13.524,22.356 13.520,20.722 13.520 L 19.000 13.520 19.000 12.120 L 19.000 10.720 20.290 10.076 C 20.999 9.722,21.640 9.386,21.714 9.331 C 22.162 8.993,22.048 8.287,21.511 8.062 C 21.227 7.944,21.148 7.969,20.009 8.536 L 18.932 9.073 18.821 8.786 C 18.571 8.139,18.089 7.609,17.469 7.299 C 17.272 7.200,17.089 7.120,17.061 7.120 C 17.021 7.120,17.005 6.909,16.989 6.190 C 16.971 5.359,16.958 5.216,16.865 4.848 C 16.626 3.906,16.168 3.091,15.524 2.463 L 15.322 2.265 15.858 1.718 C 16.404 1.160,16.479 1.042,16.480 0.749 C 16.480 0.615,16.383 0.372,16.288 0.267 C 16.094 0.052,15.648 -0.028,15.388 0.106 C 15.318 0.142,14.978 0.449,14.634 0.789 L 14.008 1.406 13.654 1.286 C 13.052 1.080,12.687 1.022,12.000 1.022 C 11.313 1.022,10.948 1.080,10.346 1.286 L 9.992 1.406 9.361 0.784 C 8.560 -0.008,8.350 -0.112,7.935 0.077 M12.721 2.580 C 13.389 2.721,13.951 3.031,14.460 3.540 C 14.838 3.918,15.068 4.261,15.253 4.726 C 15.433 5.177,15.480 5.497,15.480 6.283 L 15.480 7.000 12.000 7.000 L 8.520 7.000 8.520 6.283 C 8.520 5.797,8.539 5.473,8.580 5.278 C 8.858 3.959,9.936 2.871,11.249 2.583 C 11.594 2.507,12.368 2.506,12.721 2.580 M16.760 8.623 C 17.052 8.758,17.225 8.929,17.365 9.220 L 17.480 9.460 17.480 13.003 C 17.480 16.928,17.481 16.915,17.219 17.706 C 16.573 19.660,14.944 21.065,12.909 21.426 C 12.426 21.511,11.574 21.511,11.091 21.426 C 9.378 21.122,7.906 20.047,7.126 18.529 C 7.013 18.308,6.859 17.941,6.783 17.714 C 6.519 16.914,6.520 16.933,6.520 13.003 L 6.521 9.460 6.623 9.240 C 6.758 8.948,6.929 8.775,7.220 8.635 L 7.460 8.520 12.000 8.520 L 16.540 8.521 16.760 8.623 " stroke="none" fill-rule="evenodd" fill="black"></path></svg>