<svg xmlns="http://www.w3.org/2000/svg" width="16" height="16" viewBox="0 0 16 16"><path d="M7.280 0.019 C 6.915 0.034,6.198 0.107,5.776 0.173 C 3.414 0.543,1.673 1.495,1.170 2.692 C 0.987 3.128,1.000 2.725,1.000 8.000 L 1.000 12.760 1.059 12.983 C 1.401 14.262,2.892 15.245,5.227 15.730 C 6.157 15.923,6.860 15.987,8.027 15.985 C 9.082 15.984,9.392 15.959,9.591 15.857 C 10.028 15.635,10.134 15.058,9.804 14.700 C 9.599 14.477,9.552 14.465,8.987 14.480 C 7.375 14.524,6.503 14.464,5.427 14.238 C 4.010 13.940,2.864 13.347,2.573 12.762 L 2.507 12.630 2.507 11.435 C 2.507 10.778,2.513 10.240,2.521 10.240 C 2.528 10.240,2.580 10.269,2.636 10.304 C 3.446 10.815,5.041 11.277,6.507 11.425 C 7.360 11.511,7.509 11.493,7.748 11.274 C 8.111 10.942,8.072 10.381,7.668 10.113 C 7.517 10.013,7.396 9.988,6.863 9.949 C 4.852 9.799,2.965 9.057,2.577 8.263 L 2.506 8.118 2.513 6.929 L 2.520 5.740 2.707 5.847 C 3.405 6.249,4.580 6.632,5.653 6.810 C 8.782 7.326,12.186 6.764,13.901 5.447 C 14.255 5.176,14.590 4.790,14.753 4.467 C 15.324 3.338,14.889 2.179,13.573 1.327 C 12.146 0.401,9.812 -0.084,7.280 0.019 M8.640 1.520 C 9.789 1.579,10.839 1.770,11.680 2.073 C 12.768 2.464,13.494 3.033,13.493 3.492 C 13.492 3.978,12.746 4.560,11.630 4.945 C 10.461 5.348,9.265 5.514,7.733 5.486 C 6.434 5.462,5.498 5.317,4.500 4.985 C 3.716 4.725,3.173 4.432,2.820 4.079 C 2.409 3.668,2.405 3.337,2.807 2.934 C 3.560 2.181,5.319 1.624,7.268 1.523 C 7.886 1.491,8.062 1.491,8.640 1.520 M14.013 7.148 C 13.968 7.161,13.895 7.211,13.849 7.259 C 13.667 7.451,10.159 11.955,10.143 12.017 C 10.116 12.127,10.152 12.294,10.218 12.366 C 10.345 12.504,10.369 12.507,11.532 12.507 C 12.127 12.507,12.614 12.516,12.614 12.527 C 12.614 12.538,12.475 13.208,12.304 14.017 C 12.081 15.073,11.998 15.514,12.010 15.579 C 12.058 15.837,12.426 15.958,12.617 15.779 C 12.652 15.747,13.393 14.779,14.265 13.628 C 15.751 11.666,15.850 11.529,15.861 11.413 C 15.875 11.260,15.819 11.139,15.699 11.066 C 15.618 11.017,15.559 11.014,14.673 11.013 C 14.012 11.013,13.733 11.005,13.733 10.984 C 13.733 10.968,13.909 10.175,14.123 9.223 L 14.513 7.490 14.468 7.373 C 14.400 7.194,14.196 7.094,14.013 7.148 " stroke="none" fill-rule="evenodd" fill="black"></path></svg>