<svg xmlns="http://www.w3.org/2000/svg" width="16" height="16" viewBox="0 0 16 16"><path d="M4.525 0.038 C 4.380 0.090,4.229 0.197,4.147 0.304 C 4.016 0.475,4.000 0.589,4.000 1.322 L 4.000 1.995 3.207 2.006 C 2.480 2.016,2.399 2.022,2.240 2.075 C 1.894 2.191,1.602 2.395,1.376 2.678 C 1.217 2.876,1.137 3.034,1.060 3.298 L 1.000 3.507 1.000 9.000 L 1.000 14.493 1.061 14.706 C 1.208 15.212,1.517 15.582,1.987 15.815 C 2.383 16.012,1.967 15.999,8.000 15.999 C 14.032 15.999,13.616 16.012,14.013 15.815 C 14.262 15.692,14.448 15.542,14.624 15.322 C 14.783 15.124,14.863 14.966,14.940 14.702 L 15.000 14.493 15.000 9.013 C 15.000 3.786,14.998 3.525,14.951 3.343 C 14.798 2.745,14.356 2.274,13.760 2.075 C 13.601 2.022,13.520 2.016,12.793 2.006 L 12.000 1.995 12.000 1.322 C 12.000 0.560,11.983 0.456,11.824 0.271 C 11.553 -0.046,11.073 -0.083,10.763 0.189 C 10.525 0.399,10.521 0.414,10.512 1.260 L 10.504 2.000 8.000 2.000 L 5.496 2.000 5.488 1.260 C 5.480 0.556,5.477 0.515,5.421 0.410 C 5.252 0.094,4.844 -0.075,4.525 0.038 M13.361 3.534 C 13.403 3.556,13.451 3.597,13.466 3.625 C 13.484 3.658,13.493 4.092,13.493 4.838 L 13.493 6.000 8.000 6.000 L 2.507 6.000 2.507 4.838 C 2.507 4.096,2.517 3.658,2.534 3.625 C 2.607 3.488,2.300 3.496,7.995 3.494 C 12.660 3.493,13.292 3.498,13.361 3.534 M13.493 10.919 L 13.493 14.344 13.429 14.419 L 13.365 14.493 8.000 14.493 L 2.635 14.493 2.571 14.419 L 2.507 14.344 2.507 10.919 L 2.507 7.493 8.000 7.493 L 13.493 7.493 13.493 10.919 " stroke="none" fill-rule="evenodd" fill="black"></path></svg>