<svg xmlns="http://www.w3.org/2000/svg" width="24" height="24" viewBox="0 0 24 24"><path d="M6.460 0.076 C 6.257 0.170,6.089 0.348,6.039 0.523 C 6.018 0.598,6.000 1.185,6.000 1.830 L 6.000 3.000 4.528 3.000 C 2.966 3.000,2.801 3.016,2.435 3.203 C 2.085 3.381,1.746 3.777,1.588 4.191 L 1.500 4.420 1.489 12.560 C 1.481 18.169,1.491 20.787,1.520 20.980 C 1.640 21.766,2.220 22.354,3.000 22.478 C 3.361 22.535,20.639 22.535,21.000 22.478 C 21.780 22.354,22.360 21.766,22.480 20.980 C 22.509 20.787,22.519 18.169,22.511 12.560 L 22.500 4.420 22.412 4.191 C 22.254 3.777,21.915 3.381,21.565 3.203 C 21.199 3.016,21.034 3.000,19.472 3.000 L 18.000 3.000 18.000 1.830 C 18.000 1.186,17.982 0.596,17.960 0.518 C 17.913 0.348,17.715 0.147,17.511 0.062 C 17.092 -0.113,16.630 0.139,16.523 0.601 C 16.500 0.700,16.482 1.273,16.481 1.890 L 16.480 3.000 12.000 3.000 L 7.520 3.000 7.519 1.890 C 7.518 1.273,7.500 0.700,7.477 0.601 C 7.367 0.126,6.887 -0.122,6.460 0.076 M20.927 4.586 C 20.995 4.648,21.000 4.755,21.000 6.326 L 21.000 8.000 12.000 8.000 L 3.000 8.000 3.000 6.333 C 3.000 4.838,3.007 4.659,3.066 4.593 C 3.130 4.523,3.460 4.520,11.993 4.520 C 20.182 4.520,20.859 4.525,20.927 4.586 M21.000 15.180 C 21.000 20.787,20.999 20.841,20.920 20.920 C 20.840 21.000,20.787 21.000,12.000 21.000 C 3.213 21.000,3.160 21.000,3.080 20.920 C 3.001 20.841,3.000 20.787,3.000 15.180 L 3.000 9.520 12.000 9.520 L 21.000 9.520 21.000 15.180 " stroke="none" fill-rule="evenodd" fill="black"></path></svg>