<svg xmlns="http://www.w3.org/2000/svg" width="24" height="24" viewBox="0 0 24 24"><path d="M20.200 5.564 C 20.145 5.586,17.606 8.096,14.559 11.143 L 9.017 16.683 7.019 14.592 C 4.235 11.679,3.918 11.357,3.771 11.295 C 3.141 11.027,2.512 11.715,2.826 12.329 C 2.912 12.498,8.466 18.288,8.644 18.395 C 8.863 18.526,9.140 18.523,9.369 18.387 C 9.463 18.331,12.153 15.670,15.346 12.473 C 20.102 7.710,21.160 6.632,21.200 6.505 C 21.314 6.145,21.159 5.754,20.837 5.590 C 20.688 5.514,20.363 5.501,20.200 5.564 " stroke="none" fill-rule="evenodd" fill="black"></path></svg>