<svg xmlns="http://www.w3.org/2000/svg" width="16" height="16" viewBox="0 0 16 16"><path d="M7.467 0.019 C 7.197 0.035,6.683 0.108,6.347 0.177 C 3.324 0.796,0.878 3.204,0.200 6.228 C 0.047 6.910,0.017 7.206,0.017 8.000 C 0.017 8.794,0.047 9.090,0.200 9.772 C 0.610 11.600,1.671 13.237,3.195 14.393 C 4.257 15.199,5.481 15.705,6.906 15.927 C 7.429 16.009,8.571 16.009,9.094 15.927 C 11.038 15.624,12.690 14.748,13.930 13.362 C 15.030 12.133,15.665 10.775,15.927 9.094 C 16.010 8.560,16.009 7.432,15.924 6.880 C 15.532 4.324,14.072 2.222,11.823 0.975 C 10.543 0.265,8.995 -0.075,7.467 0.019 M8.853 1.563 C 9.298 1.621,9.615 1.694,10.057 1.841 C 11.997 2.486,13.514 4.002,14.158 5.941 C 14.397 6.658,14.484 7.211,14.484 8.000 C 14.484 8.789,14.397 9.342,14.158 10.059 C 13.824 11.066,13.259 11.955,12.483 12.699 C 11.498 13.643,10.254 14.243,8.867 14.444 C 8.645 14.476,8.379 14.490,8.000 14.490 C 7.621 14.490,7.355 14.476,7.133 14.444 C 5.755 14.244,4.507 13.645,3.532 12.714 C 2.456 11.686,1.790 10.400,1.572 8.928 C 1.493 8.394,1.493 7.606,1.572 7.072 C 1.737 5.958,2.152 4.968,2.835 4.056 C 3.081 3.727,3.727 3.081,4.056 2.835 C 5.460 1.783,7.131 1.340,8.853 1.563 M11.059 5.041 C 11.004 5.055,10.920 5.086,10.872 5.109 C 10.825 5.133,9.878 6.060,8.767 7.169 L 6.747 9.186 5.980 8.422 C 5.478 7.922,5.173 7.638,5.097 7.600 C 4.609 7.357,4.027 7.720,4.027 8.267 C 4.027 8.591,4.046 8.615,5.155 9.728 C 5.700 10.275,6.207 10.770,6.281 10.827 C 6.368 10.895,6.475 10.947,6.581 10.974 C 6.733 11.013,6.761 11.013,6.913 10.974 C 7.005 10.950,7.122 10.902,7.173 10.866 C 7.225 10.831,8.300 9.766,9.563 8.501 C 11.109 6.951,11.875 6.165,11.909 6.093 C 11.978 5.949,11.980 5.572,11.912 5.447 C 11.742 5.132,11.381 4.960,11.059 5.041 " stroke="none" fill-rule="evenodd" fill="black"></path></svg>