<svg xmlns="http://www.w3.org/2000/svg" width="24" height="24" viewBox="0 0 24 24"><path d="M3.340 2.056 C 2.694 2.217,2.175 2.748,2.039 3.387 C 2.012 3.516,2.002 6.399,2.009 12.120 L 2.020 20.660 2.113 20.880 C 2.305 21.335,2.664 21.693,3.122 21.887 L 3.340 21.980 7.112 21.991 C 10.748 22.002,10.890 21.999,11.056 21.926 C 11.151 21.884,11.275 21.789,11.332 21.714 C 11.431 21.584,11.528 21.279,11.500 21.185 C 11.493 21.160,11.476 21.091,11.463 21.031 C 11.436 20.911,11.237 20.665,11.105 20.588 C 11.041 20.552,10.117 20.535,7.336 20.520 C 4.294 20.503,3.641 20.490,3.586 20.445 C 3.525 20.394,3.520 19.755,3.520 12.003 C 3.520 5.533,3.531 3.605,3.568 3.568 C 3.642 3.494,17.373 3.499,17.434 3.573 C 17.466 3.611,17.482 5.095,17.489 8.783 C 17.499 13.548,17.505 13.949,17.568 14.064 C 17.658 14.229,17.895 14.433,18.031 14.463 C 18.091 14.476,18.160 14.493,18.185 14.500 C 18.279 14.528,18.584 14.431,18.714 14.332 C 18.788 14.276,18.882 14.155,18.923 14.065 C 18.995 13.907,18.998 13.694,18.998 8.720 C 18.998 5.370,18.984 3.478,18.958 3.364 C 18.809 2.719,18.261 2.184,17.608 2.045 C 17.288 1.977,3.615 1.988,3.340 2.056 M5.935 7.077 C 5.559 7.248,5.395 7.737,5.592 8.105 C 5.658 8.229,5.906 8.434,6.031 8.469 C 6.173 8.509,14.827 8.509,14.969 8.469 C 15.094 8.434,15.342 8.229,15.408 8.105 C 15.605 7.737,15.441 7.248,15.065 7.077 C 14.907 7.005,14.712 7.002,10.500 7.002 C 6.288 7.002,6.093 7.005,5.935 7.077 M5.935 11.077 C 5.559 11.248,5.395 11.737,5.592 12.105 C 5.658 12.229,5.906 12.434,6.031 12.469 C 6.173 12.509,10.827 12.509,10.969 12.469 C 11.094 12.434,11.342 12.229,11.408 12.105 C 11.605 11.737,11.441 11.248,11.065 11.077 C 10.910 11.006,10.759 11.002,8.500 11.002 C 6.241 11.002,6.090 11.006,5.935 11.077 M20.940 15.066 C 20.874 15.100,19.677 16.269,18.280 17.664 L 15.740 20.200 14.700 19.156 C 14.128 18.582,13.602 18.087,13.531 18.056 C 13.243 17.931,12.830 18.027,12.644 18.264 C 12.519 18.422,12.466 18.644,12.498 18.866 C 12.525 19.058,12.544 19.078,13.973 20.507 C 15.402 21.936,15.422 21.955,15.614 21.982 C 16.033 22.043,15.870 22.183,19.010 19.047 C 20.626 17.433,21.908 16.121,21.945 16.045 C 22.021 15.883,22.029 15.571,21.960 15.436 C 21.889 15.299,21.718 15.122,21.592 15.056 C 21.450 14.982,21.091 14.987,20.940 15.066 " stroke="none" fill-rule="evenodd" fill="black"></path></svg>