<svg xmlns="http://www.w3.org/2000/svg" width="16" height="16" viewBox="0 0 16 16"><path d="M2.427 1.032 C 2.111 1.085,1.771 1.269,1.516 1.522 C 1.350 1.687,1.290 1.771,1.191 1.976 C 1.125 2.114,1.054 2.305,1.035 2.400 C 1.007 2.540,1.000 3.627,1.000 8.027 C 1.000 14.158,0.981 13.597,1.204 14.052 C 1.358 14.367,1.633 14.642,1.948 14.796 C 2.403 15.019,1.839 15.000,8.000 15.000 C 14.161 15.000,13.597 15.019,14.052 14.796 C 14.367 14.642,14.642 14.367,14.796 14.052 C 15.019 13.597,15.000 14.161,15.000 8.000 C 15.000 1.841,15.019 2.403,14.797 1.950 C 14.608 1.565,14.257 1.262,13.797 1.087 L 13.640 1.027 8.067 1.023 C 5.001 1.022,2.463 1.025,2.427 1.032 M13.415 2.585 L 13.493 2.663 13.493 7.996 L 13.493 13.329 13.424 13.411 L 13.355 13.493 8.000 13.493 L 2.645 13.493 2.576 13.411 L 2.507 13.329 2.507 7.996 L 2.507 2.663 2.585 2.585 L 2.663 2.507 8.000 2.507 L 13.337 2.507 13.415 2.585 M11.059 5.041 C 11.004 5.055,10.920 5.086,10.872 5.109 C 10.825 5.133,9.878 6.060,8.767 7.169 L 6.747 9.186 5.980 8.422 C 5.478 7.922,5.173 7.638,5.097 7.600 C 4.609 7.357,4.027 7.720,4.027 8.267 C 4.027 8.591,4.046 8.615,5.155 9.728 C 5.700 10.275,6.207 10.770,6.281 10.827 C 6.368 10.895,6.475 10.947,6.581 10.974 C 6.733 11.013,6.761 11.013,6.913 10.974 C 7.005 10.950,7.122 10.902,7.173 10.866 C 7.225 10.831,8.300 9.766,9.563 8.501 C 11.109 6.951,11.875 6.165,11.909 6.093 C 11.978 5.949,11.980 5.572,11.912 5.447 C 11.742 5.132,11.381 4.960,11.059 5.041 " stroke="none" fill-rule="evenodd" fill="black"></path></svg>