<svg xmlns="http://www.w3.org/2000/svg" width="24" height="24" viewBox="0 0 24 24"><path d="M3.340 2.056 C 2.694 2.217,2.175 2.748,2.039 3.387 C 2.012 3.516,2.002 6.399,2.009 12.120 L 2.020 20.660 2.113 20.880 C 2.305 21.335,2.664 21.693,3.122 21.887 L 3.340 21.980 12.000 21.980 L 20.660 21.980 20.880 21.887 C 21.335 21.695,21.693 21.336,21.887 20.878 L 21.980 20.660 21.991 12.120 C 21.998 6.399,21.988 3.516,21.961 3.387 C 21.821 2.732,21.271 2.186,20.608 2.045 C 20.288 1.977,3.616 1.988,3.340 2.056 M20.432 3.568 C 20.469 3.605,20.480 5.533,20.480 12.003 C 20.480 19.756,20.475 20.394,20.414 20.445 C 20.315 20.527,3.685 20.527,3.586 20.445 C 3.525 20.394,3.520 19.756,3.520 12.003 C 3.520 5.533,3.531 3.605,3.568 3.568 C 3.638 3.498,20.362 3.498,20.432 3.568 M16.312 8.160 C 16.212 8.227,14.807 9.611,13.190 11.236 L 10.250 14.190 8.975 12.915 C 7.982 11.921,7.662 11.625,7.530 11.574 C 7.091 11.406,6.583 11.712,6.530 12.175 C 6.489 12.539,6.492 12.542,8.195 14.254 C 9.795 15.864,9.950 15.997,10.220 15.999 C 10.584 16.001,10.460 16.112,13.894 12.686 C 15.673 10.912,17.197 9.374,17.282 9.269 C 17.710 8.738,17.384 8.040,16.708 8.040 C 16.537 8.040,16.457 8.064,16.312 8.160 " stroke="none" fill-rule="evenodd" fill="black"></path></svg>