<svg xmlns="http://www.w3.org/2000/svg" width="16" height="16" viewBox="0 0 16 16"><path d="M13.000 4.042 C 12.875 4.081,12.644 4.306,9.433 7.515 L 6.000 10.946 4.593 9.542 C 3.820 8.770,3.145 8.118,3.093 8.092 C 3.042 8.066,2.915 8.039,2.810 8.032 C 2.648 8.022,2.598 8.030,2.476 8.086 C 2.190 8.216,2.027 8.466,2.027 8.773 C 2.027 9.095,1.979 9.038,3.884 10.937 C 5.515 12.563,5.621 12.663,5.756 12.707 C 5.936 12.765,6.159 12.751,6.320 12.673 C 6.409 12.630,7.405 11.649,10.178 8.874 L 13.916 5.133 13.961 4.975 C 14.131 4.381,13.592 3.857,13.000 4.042 " stroke="none" fill-rule="evenodd" fill="black"></path></svg>