<svg xmlns="http://www.w3.org/2000/svg" width="16" height="16" viewBox="0 0 16 16"><path d="M7.467 0.017 C 5.118 0.192,3.024 1.327,1.608 3.193 C 0.799 4.260,0.296 5.477,0.073 6.906 C -0.009 7.429,-0.009 8.571,0.073 9.094 C 0.415 11.288,1.476 13.089,3.195 14.393 C 4.257 15.199,5.481 15.705,6.906 15.927 C 7.429 16.009,8.571 16.009,9.094 15.927 C 11.038 15.624,12.690 14.748,13.930 13.362 C 15.030 12.133,15.665 10.775,15.927 9.094 C 16.009 8.571,16.009 7.429,15.927 6.906 C 15.705 5.481,15.199 4.257,14.393 3.195 C 13.070 1.452,11.180 0.355,9.000 0.066 C 8.688 0.025,7.760 -0.005,7.467 0.017 M11.572 5.106 C 11.922 5.284,12.072 5.719,11.905 6.080 C 11.847 6.206,11.521 6.544,9.552 8.514 C 8.295 9.772,7.225 10.831,7.173 10.866 C 7.122 10.902,7.005 10.950,6.913 10.974 C 6.761 11.013,6.733 11.013,6.581 10.974 C 6.475 10.947,6.368 10.895,6.281 10.827 C 6.033 10.635,4.170 8.741,4.103 8.613 C 4.015 8.445,4.013 8.092,4.099 7.930 C 4.288 7.576,4.744 7.425,5.097 7.600 C 5.173 7.638,5.478 7.922,5.980 8.422 L 6.747 9.186 8.767 7.169 C 9.878 6.060,10.825 5.133,10.872 5.109 C 11.093 4.999,11.358 4.997,11.572 5.106 " stroke="none" fill-rule="evenodd" fill="black"></path></svg>