<svg xmlns="http://www.w3.org/2000/svg" width="24" height="24" viewBox="0 0 24 24"><path d="M11.069 1.039 C 8.822 1.258,6.868 2.041,5.101 3.432 C 4.640 3.795,3.606 4.863,3.231 5.363 C 2.075 6.906,1.379 8.590,1.093 10.540 C 0.995 11.212,0.995 12.788,1.093 13.460 C 1.379 15.409,2.074 17.091,3.230 18.637 C 3.685 19.244,4.756 20.315,5.363 20.770 C 6.909 21.926,8.591 22.621,10.540 22.907 C 11.212 23.005,12.788 23.005,13.460 22.907 C 15.409 22.621,17.091 21.926,18.637 20.770 C 19.244 20.315,20.315 19.244,20.770 18.637 C 21.926 17.091,22.621 15.409,22.907 13.460 C 22.959 13.104,22.977 12.727,22.977 12.000 C 22.977 11.273,22.959 10.896,22.907 10.540 C 22.621 8.590,21.925 6.906,20.769 5.363 C 20.394 4.863,19.360 3.795,18.899 3.432 C 17.302 2.175,15.548 1.412,13.580 1.120 C 12.946 1.026,11.638 0.984,11.069 1.039 M17.072 8.116 C 17.153 8.157,17.251 8.226,17.288 8.267 C 17.389 8.378,17.480 8.618,17.480 8.771 C 17.480 9.097,17.423 9.159,13.971 12.606 C 10.454 16.118,10.584 16.001,10.220 15.999 C 9.950 15.997,9.795 15.864,8.195 14.254 C 6.938 12.990,6.599 12.628,6.560 12.505 C 6.419 12.061,6.715 11.598,7.181 11.534 C 7.533 11.485,7.591 11.530,8.975 12.915 L 10.250 14.191 13.190 11.236 C 14.806 9.611,16.211 8.227,16.311 8.161 C 16.534 8.013,16.836 7.995,17.072 8.116 " stroke="none" fill-rule="evenodd" fill="black"></path></svg>