<svg xmlns="http://www.w3.org/2000/svg" width="16" height="16" viewBox="0 0 16 16"><path d="M2.430 0.030 C 2.112 0.083,1.766 0.271,1.512 0.526 C 1.216 0.824,1.065 1.144,1.011 1.587 C 0.995 1.721,0.988 3.960,0.993 7.653 C 1.001 14.229,0.980 13.595,1.204 14.052 C 1.358 14.367,1.633 14.642,1.948 14.796 C 2.373 15.004,2.288 14.996,4.206 15.007 C 6.077 15.017,6.118 15.015,6.344 14.865 C 6.602 14.695,6.728 14.331,6.637 14.026 C 6.586 13.856,6.429 13.676,6.254 13.587 L 6.097 13.507 4.370 13.499 L 2.643 13.491 2.575 13.410 L 2.507 13.329 2.507 7.503 C 2.507 3.558,2.516 1.660,2.534 1.625 C 2.608 1.487,2.381 1.493,7.005 1.493 C 11.233 1.494,11.295 1.494,11.380 1.546 C 11.428 1.575,11.470 1.602,11.473 1.606 C 11.476 1.610,11.485 3.425,11.493 5.640 L 11.507 9.667 11.563 9.789 C 11.721 10.129,12.104 10.307,12.459 10.203 C 12.652 10.147,12.850 9.972,12.936 9.781 L 13.000 9.640 13.000 5.573 L 13.000 1.507 12.939 1.292 C 12.773 0.714,12.350 0.277,11.760 0.073 L 11.587 0.013 7.080 0.010 C 4.505 0.007,2.512 0.016,2.430 0.030 M4.525 4.038 C 4.113 4.186,3.906 4.595,4.042 4.994 C 4.094 5.146,4.263 5.343,4.410 5.421 L 4.520 5.480 7.000 5.480 L 9.480 5.480 9.590 5.421 C 9.737 5.343,9.906 5.146,9.958 4.994 C 10.078 4.642,9.932 4.278,9.596 4.092 L 9.453 4.013 7.040 4.008 C 5.057 4.003,4.609 4.008,4.525 4.038 M4.440 7.076 C 4.367 7.110,4.257 7.192,4.197 7.258 C 3.828 7.660,4.016 8.314,4.546 8.468 C 4.666 8.503,4.858 8.508,5.804 8.501 L 6.920 8.493 7.073 8.418 C 7.358 8.278,7.510 8.016,7.488 7.698 C 7.470 7.426,7.319 7.198,7.079 7.079 C 6.979 7.030,6.905 7.026,5.773 7.020 L 4.573 7.013 4.440 7.076 M15.008 10.041 C 14.848 10.092,14.930 10.015,12.631 12.260 C 11.575 13.290,10.704 14.133,10.693 14.133 C 10.683 14.133,10.345 13.800,9.942 13.392 C 9.492 12.936,9.170 12.631,9.105 12.600 C 9.038 12.567,8.924 12.545,8.793 12.538 C 8.610 12.529,8.568 12.536,8.440 12.599 C 8.075 12.777,7.921 13.231,8.100 13.600 C 8.142 13.686,8.467 14.027,9.233 14.790 C 10.232 15.785,10.317 15.863,10.449 15.906 C 10.630 15.965,10.852 15.951,11.016 15.872 C 11.200 15.783,15.838 11.248,15.924 11.073 C 16.012 10.894,16.012 10.596,15.924 10.427 C 15.839 10.263,15.744 10.167,15.587 10.087 C 15.422 10.003,15.185 9.984,15.008 10.041 " stroke="none" fill-rule="evenodd" fill="black"></path></svg>