<svg xmlns="http://www.w3.org/2000/svg" width="24" height="24" viewBox="0 0 24 24"><path d="M14.460 5.077 C 14.260 5.170,7.864 11.564,7.802 11.733 C 7.743 11.890,7.750 12.139,7.816 12.291 C 7.849 12.366,9.242 13.788,11.131 15.675 C 14.223 18.764,14.400 18.932,14.583 18.979 C 14.943 19.070,15.296 18.908,15.443 18.585 C 15.529 18.396,15.538 18.247,15.476 18.020 C 15.439 17.883,15.019 17.446,12.507 14.930 L 9.582 12.000 12.467 9.110 C 14.053 7.520,15.381 6.161,15.417 6.089 C 15.488 5.949,15.508 5.675,15.460 5.517 C 15.409 5.347,15.235 5.154,15.065 5.077 C 14.855 4.982,14.663 4.982,14.460 5.077 " stroke="none" fill-rule="evenodd" fill="black"></path></svg>