<svg xmlns="http://www.w3.org/2000/svg" width="16" height="16" viewBox="0 0 16 16"><path d="M7.680 4.324 C 7.591 4.366,6.991 4.949,5.341 6.597 C 2.939 8.997,3.016 8.911,3.005 9.213 C 2.998 9.425,3.058 9.587,3.206 9.748 C 3.436 10.000,3.784 10.069,4.081 9.921 C 4.165 9.879,4.753 9.309,6.100 7.964 L 8.000 6.067 9.900 7.963 C 11.169 9.229,11.835 9.875,11.907 9.909 C 12.051 9.978,12.428 9.980,12.553 9.912 C 12.821 9.767,12.969 9.531,12.972 9.240 C 12.975 8.892,13.076 9.007,10.634 6.570 C 8.968 4.907,8.411 4.367,8.318 4.324 C 8.149 4.244,7.847 4.244,7.680 4.324 " stroke="none" fill-rule="evenodd" fill="black"></path></svg>