<svg xmlns="http://www.w3.org/2000/svg" width="16" height="16" viewBox="0 0 16 16"><path d="M9.039 3.048 C 8.972 3.067,8.876 3.108,8.825 3.140 C 8.775 3.172,7.753 4.179,6.554 5.379 C 4.154 7.782,4.257 7.664,4.256 8.002 C 4.255 8.337,4.163 8.232,6.619 10.684 C 8.746 12.806,8.846 12.902,8.986 12.948 C 9.286 13.045,9.527 12.996,9.748 12.794 C 10.000 12.564,10.069 12.216,9.921 11.919 C 9.879 11.835,9.309 11.247,7.964 9.900 L 6.067 8.000 7.963 6.100 C 9.229 4.831,9.875 4.165,9.909 4.093 C 9.978 3.949,9.980 3.572,9.912 3.447 C 9.737 3.122,9.370 2.955,9.039 3.048 " stroke="none" fill-rule="evenodd" fill="black"></path></svg>