<svg xmlns="http://www.w3.org/2000/svg" width="24" height="24" viewBox="0 0 24 24"><path d="M11.700 7.818 C 11.634 7.848,10.110 9.345,8.312 11.146 C 5.847 13.616,5.038 14.449,5.019 14.540 C 5.005 14.606,4.986 14.684,4.976 14.714 C 4.947 14.807,5.042 15.093,5.149 15.234 C 5.268 15.392,5.522 15.518,5.720 15.518 C 6.054 15.518,6.090 15.485,9.110 12.469 L 12.000 9.581 14.890 12.466 C 16.480 14.053,17.840 15.381,17.912 15.418 C 18.061 15.493,18.367 15.507,18.522 15.447 C 18.959 15.279,19.130 14.709,18.861 14.322 C 18.807 14.244,17.344 12.763,15.611 11.032 C 13.409 8.832,12.415 7.865,12.311 7.822 C 12.130 7.746,11.861 7.744,11.700 7.818 " stroke="none" fill-rule="evenodd" fill="black"></path></svg>