<svg xmlns="http://www.w3.org/2000/svg" width="16" height="16" viewBox="0 0 16 16"><path d="M6.440 3.075 C 6.060 3.257,5.896 3.714,6.080 4.082 C 6.121 4.165,6.701 4.764,8.035 6.100 L 9.932 8.000 8.023 9.913 C 6.213 11.727,6.111 11.834,6.067 11.970 C 6.011 12.142,6.022 12.422,6.090 12.553 C 6.224 12.813,6.471 12.970,6.747 12.972 C 7.105 12.975,6.948 13.111,9.394 10.670 C 11.837 8.232,11.744 8.337,11.744 8.000 C 11.744 7.663,11.837 7.768,9.394 5.331 C 7.885 3.825,7.153 3.112,7.080 3.078 C 7.014 3.048,6.896 3.025,6.773 3.020 C 6.606 3.013,6.552 3.021,6.440 3.075 " stroke="none" fill-rule="evenodd" fill="black"></path></svg>