<svg xmlns="http://www.w3.org/2000/svg" width="16" height="16" viewBox="0 0 16 16"><path d="M12.067 6.025 C 12.023 6.036,11.945 6.066,11.893 6.092 C 11.842 6.118,10.945 6.992,9.900 8.036 L 8.000 9.933 6.100 8.037 C 3.961 5.903,4.087 6.009,3.717 6.033 C 3.573 6.042,3.496 6.063,3.405 6.116 C 3.146 6.267,2.990 6.561,3.023 6.835 C 3.058 7.130,3.026 7.095,5.366 9.432 C 7.783 11.848,7.663 11.743,8.002 11.744 C 8.337 11.745,8.232 11.837,10.684 9.381 C 12.806 7.254,12.902 7.154,12.948 7.014 C 13.050 6.699,12.996 6.459,12.773 6.236 C 12.569 6.031,12.332 5.960,12.067 6.025 " stroke="none" fill-rule="evenodd" fill="black"></path></svg>