<svg xmlns="http://www.w3.org/2000/svg" width="24" height="24" viewBox="0 0 24 24"><path d="M5.394 8.599 C 5.108 8.754,4.969 9.045,5.018 9.386 L 5.046 9.580 8.313 12.854 C 10.213 14.758,11.634 16.151,11.709 16.184 C 11.878 16.257,12.126 16.255,12.311 16.178 C 12.415 16.135,13.410 15.168,15.612 12.968 C 17.346 11.237,18.801 9.760,18.847 9.688 C 18.978 9.478,19.006 9.289,18.940 9.059 C 18.851 8.747,18.552 8.520,18.229 8.520 C 17.900 8.520,17.820 8.593,14.849 11.575 L 12.008 14.428 9.174 11.593 C 7.615 10.034,6.271 8.710,6.186 8.651 C 5.978 8.506,5.609 8.482,5.394 8.599 " stroke="none" fill-rule="evenodd" fill="black"></path></svg>