<svg xmlns="http://www.w3.org/2000/svg" width="24" height="24" viewBox="0 0 24 24"><path d="M11.069 1.039 C 8.822 1.258,6.868 2.041,5.101 3.432 C 4.640 3.795,3.606 4.863,3.231 5.363 C 2.075 6.906,1.379 8.590,1.093 10.540 C 0.995 11.212,0.995 12.788,1.093 13.460 C 1.379 15.409,2.074 17.091,3.230 18.637 C 3.685 19.244,4.756 20.315,5.363 20.770 C 6.909 21.926,8.591 22.621,10.540 22.907 C 11.212 23.005,12.788 23.005,13.460 22.907 C 15.409 22.621,17.091 21.926,18.637 20.770 C 19.244 20.315,20.315 19.244,20.770 18.637 C 21.926 17.091,22.621 15.409,22.907 13.460 C 22.959 13.104,22.977 12.727,22.977 12.000 C 22.977 11.273,22.959 10.896,22.907 10.540 C 22.621 8.590,21.925 6.906,20.769 5.363 C 20.394 4.863,19.360 3.795,18.899 3.432 C 17.302 2.175,15.548 1.412,13.580 1.120 C 12.946 1.026,11.638 0.984,11.069 1.039 M13.188 2.581 C 14.464 2.748,15.630 3.137,16.714 3.759 C 17.141 4.004,17.687 4.379,17.997 4.640 L 18.163 4.780 11.467 11.474 L 4.771 18.169 4.511 17.834 C 3.541 16.590,2.925 15.191,2.633 13.573 C 2.551 13.120,2.541 12.935,2.541 12.000 C 2.542 11.078,2.554 10.874,2.632 10.437 C 2.813 9.425,3.086 8.596,3.518 7.740 C 4.992 4.821,7.817 2.882,11.080 2.547 C 11.492 2.505,12.759 2.526,13.188 2.581 M19.748 6.514 C 20.640 7.754,21.212 9.232,21.423 10.840 C 21.514 11.534,21.484 12.900,21.363 13.580 C 21.188 14.570,20.937 15.338,20.501 16.220 C 19.156 18.944,16.525 20.889,13.520 21.379 C 12.588 21.531,11.360 21.531,10.463 21.378 C 8.876 21.108,7.315 20.412,6.065 19.418 L 5.830 19.231 12.525 12.534 L 19.220 5.837 19.360 6.003 C 19.437 6.094,19.612 6.324,19.748 6.514 " stroke="none" fill-rule="evenodd" fill="black"></path></svg>