<svg xmlns="http://www.w3.org/2000/svg" width="16" height="16" viewBox="0 0 16 16"><path d="M7.467 0.019 C 7.197 0.035,6.683 0.108,6.347 0.177 C 3.324 0.796,0.878 3.204,0.200 6.228 C 0.047 6.910,0.017 7.206,0.017 8.000 C 0.017 8.794,0.047 9.090,0.200 9.772 C 0.610 11.600,1.671 13.237,3.195 14.393 C 4.257 15.199,5.481 15.705,6.906 15.927 C 7.429 16.009,8.571 16.009,9.094 15.927 C 11.038 15.624,12.690 14.748,13.930 13.362 C 15.030 12.133,15.665 10.775,15.927 9.094 C 16.010 8.560,16.009 7.432,15.924 6.880 C 15.532 4.324,14.072 2.222,11.823 0.975 C 10.543 0.265,8.995 -0.075,7.467 0.019 M8.853 1.563 C 9.298 1.621,9.615 1.694,10.057 1.841 C 11.997 2.486,13.514 4.002,14.158 5.941 C 14.397 6.658,14.484 7.211,14.484 8.000 C 14.484 8.789,14.397 9.342,14.158 10.059 C 13.824 11.066,13.259 11.955,12.483 12.699 C 11.498 13.643,10.254 14.243,8.867 14.444 C 8.645 14.476,8.379 14.490,8.000 14.490 C 7.621 14.490,7.355 14.476,7.133 14.444 C 5.755 14.244,4.507 13.645,3.532 12.714 C 2.456 11.686,1.790 10.400,1.572 8.928 C 1.493 8.394,1.493 7.606,1.572 7.072 C 1.737 5.958,2.152 4.968,2.835 4.056 C 3.081 3.727,3.727 3.081,4.056 2.835 C 5.460 1.783,7.131 1.340,8.853 1.563 " stroke="none" fill-rule="evenodd" fill="black"></path></svg>