<svg xmlns="http://www.w3.org/2000/svg" width="16" height="16" viewBox="0 0 16 16"><path d="M7.467 0.017 C 5.118 0.192,3.024 1.327,1.608 3.193 C 0.799 4.260,0.296 5.477,0.073 6.906 C -0.009 7.429,-0.009 8.571,0.073 9.094 C 0.415 11.288,1.476 13.089,3.195 14.393 C 4.257 15.199,5.481 15.705,6.906 15.927 C 7.429 16.009,8.571 16.009,9.094 15.927 C 11.038 15.624,12.690 14.748,13.930 13.362 C 15.030 12.133,15.665 10.775,15.927 9.094 C 16.009 8.571,16.009 7.429,15.927 6.906 C 15.705 5.481,15.199 4.257,14.393 3.195 C 13.070 1.452,11.180 0.355,9.000 0.066 C 8.688 0.025,7.760 -0.005,7.467 0.017 M8.853 1.563 C 9.298 1.621,9.615 1.694,10.057 1.841 C 11.997 2.486,13.514 4.002,14.158 5.941 C 14.397 6.658,14.484 7.211,14.484 8.000 C 14.484 8.789,14.397 9.342,14.158 10.059 C 13.824 11.066,13.259 11.955,12.483 12.699 C 11.498 13.643,10.254 14.243,8.867 14.444 C 8.645 14.476,8.379 14.490,8.000 14.490 C 7.621 14.490,7.355 14.476,7.133 14.444 C 5.755 14.244,4.507 13.645,3.532 12.714 C 2.456 11.686,1.790 10.400,1.572 8.928 C 1.493 8.394,1.493 7.606,1.572 7.072 C 1.737 5.958,2.152 4.968,2.835 4.056 C 3.081 3.727,3.727 3.081,4.056 2.835 C 5.460 1.783,7.131 1.340,8.853 1.563 M7.504 4.047 C 7.256 4.136,7.093 4.318,7.026 4.582 C 6.990 4.721,6.986 4.994,6.992 6.578 L 7.000 8.413 7.075 8.566 C 7.208 8.838,7.232 8.850,8.717 9.445 C 10.008 9.962,10.074 9.986,10.240 9.983 C 10.444 9.980,10.573 9.929,10.723 9.794 C 10.892 9.642,10.970 9.465,10.969 9.240 C 10.968 9.021,10.921 8.899,10.779 8.742 C 10.658 8.606,10.570 8.565,9.407 8.104 L 8.507 7.747 8.507 6.212 C 8.507 4.516,8.506 4.507,8.339 4.291 C 8.153 4.048,7.794 3.943,7.504 4.047 " stroke="none" fill-rule="evenodd" fill="black"></path></svg>