<svg xmlns="http://www.w3.org/2000/svg" width="24" height="24" viewBox="0 0 24 24"><path d="M1.940 2.107 C 1.755 2.205,1.675 2.286,1.595 2.460 C 1.505 2.657,1.500 2.875,1.582 3.071 C 1.623 3.169,2.099 3.676,2.999 4.579 L 4.353 5.940 4.255 6.080 C 4.083 6.326,3.648 7.246,3.500 7.678 C 3.422 7.907,3.313 8.317,3.258 8.587 C 3.147 9.133,3.063 10.050,3.099 10.304 L 3.123 10.469 2.785 10.631 C 1.647 11.177,0.738 12.169,0.316 13.323 C 0.110 13.889,0.038 14.257,0.014 14.860 C -0.043 16.304,0.491 17.638,1.515 18.607 C 2.192 19.248,2.930 19.643,3.920 19.892 L 4.260 19.978 11.358 19.987 L 18.456 19.997 19.923 21.463 C 21.291 22.830,21.403 22.933,21.583 22.979 C 21.943 23.070,22.296 22.908,22.443 22.585 C 22.540 22.372,22.538 22.184,22.437 21.960 C 22.374 21.818,20.291 19.713,12.608 12.028 C 7.247 6.665,2.780 2.223,2.683 2.158 C 2.539 2.062,2.465 2.040,2.283 2.042 C 2.160 2.042,2.006 2.072,1.940 2.107 M9.842 2.564 C 8.832 2.694,7.373 3.186,7.025 3.512 C 6.543 3.965,6.881 4.782,7.556 4.797 C 7.637 4.799,7.850 4.727,8.089 4.618 C 10.528 3.500,13.326 3.940,15.188 5.733 C 15.832 6.354,16.278 6.999,16.609 7.792 C 16.814 8.281,16.854 8.342,17.056 8.457 C 17.192 8.536,17.316 8.559,17.787 8.596 C 18.110 8.622,18.519 8.683,18.739 8.739 C 20.644 9.222,22.085 10.762,22.419 12.672 C 22.497 13.118,22.497 13.962,22.419 14.408 C 22.309 15.036,22.063 15.665,21.718 16.200 C 21.516 16.513,21.065 17.054,20.937 17.138 C 20.793 17.233,20.649 17.445,20.597 17.641 C 20.443 18.225,21.066 18.737,21.623 18.484 C 21.827 18.392,22.402 17.817,22.724 17.385 C 23.968 15.716,24.326 13.514,23.677 11.522 C 23.506 10.998,23.132 10.255,22.809 9.801 C 22.465 9.316,21.804 8.655,21.319 8.311 C 20.459 7.700,19.222 7.220,18.287 7.135 C 18.125 7.120,17.976 7.088,17.957 7.064 C 17.937 7.040,17.839 6.859,17.739 6.663 C 17.338 5.881,16.900 5.299,16.213 4.640 C 15.012 3.486,13.498 2.773,11.801 2.562 C 11.410 2.514,10.222 2.514,9.842 2.564 M16.250 18.511 C 15.882 18.517,13.087 18.517,10.040 18.510 C 4.508 18.497,4.500 18.497,4.180 18.411 C 3.015 18.096,2.164 17.372,1.744 16.337 C 1.569 15.908,1.507 15.489,1.532 14.903 C 1.557 14.289,1.621 14.029,1.862 13.540 C 2.283 12.690,3.001 12.086,3.960 11.778 C 4.213 11.696,4.338 11.631,4.446 11.523 C 4.653 11.317,4.690 11.144,4.636 10.635 C 4.554 9.854,4.670 8.901,4.945 8.112 C 5.078 7.730,5.317 7.205,5.412 7.087 C 5.445 7.046,6.748 8.328,11.187 12.767 L 16.920 18.500 16.250 18.511 " stroke="none" fill-rule="evenodd" fill="black"></path></svg>