<svg xmlns="http://www.w3.org/2000/svg" width="16" height="16" viewBox="0 0 16 16"><path d="M6.693 2.030 C 4.728 2.229,3.030 3.541,2.333 5.400 C 2.138 5.922,2.000 6.633,2.000 7.119 L 2.000 7.327 1.780 7.451 C 0.335 8.263,-0.341 9.983,0.163 11.567 C 0.545 12.768,1.487 13.619,2.787 13.938 C 2.958 13.980,3.323 13.985,7.372 13.993 C 11.191 14.000,11.812 13.996,12.079 13.961 C 13.110 13.825,13.948 13.412,14.680 12.680 C 15.415 11.945,15.822 11.116,15.963 10.067 C 16.017 9.665,15.998 9.015,15.922 8.635 C 15.578 6.919,14.303 5.568,12.630 5.147 C 12.467 5.105,12.265 5.063,12.181 5.053 L 12.028 5.034 11.893 4.780 C 11.642 4.312,11.379 3.956,10.993 3.563 C 9.870 2.423,8.309 1.867,6.693 2.030 M7.947 3.563 C 8.658 3.686,9.367 4.061,9.908 4.600 C 10.291 4.982,10.552 5.388,10.772 5.940 C 10.937 6.355,11.122 6.475,11.653 6.510 C 12.401 6.559,13.042 6.827,13.558 7.308 C 14.616 8.294,14.802 9.963,13.989 11.185 C 13.549 11.845,12.867 12.288,12.027 12.458 C 11.766 12.511,3.280 12.510,3.067 12.457 C 2.311 12.269,1.760 11.740,1.570 11.021 C 1.499 10.748,1.493 10.279,1.559 10.013 C 1.728 9.330,2.226 8.808,2.923 8.584 C 3.255 8.477,3.424 8.326,3.508 8.060 C 3.549 7.927,3.551 7.873,3.525 7.549 C 3.447 6.609,3.701 5.723,4.256 4.987 C 5.109 3.857,6.513 3.316,7.947 3.563 " stroke="none" fill-rule="evenodd" fill="black"></path></svg>