<svg xmlns="http://www.w3.org/2000/svg" width="16" height="16" viewBox="0 0 16 16"><path d="M1.061 1.530 C 0.805 1.600,0.601 1.797,0.534 2.038 C 0.491 2.191,0.509 2.435,0.573 2.573 C 0.605 2.644,0.965 3.025,1.632 3.695 L 2.642 4.710 2.508 4.990 C 2.201 5.633,2.001 6.472,2.000 7.123 L 2.000 7.327 1.780 7.451 C 0.335 8.263,-0.341 9.983,0.163 11.567 C 0.545 12.768,1.486 13.618,2.787 13.938 C 2.959 13.981,3.321 13.985,7.453 13.992 L 11.933 14.000 12.880 14.945 C 13.583 15.647,13.858 15.905,13.947 15.945 C 14.130 16.027,14.427 16.021,14.608 15.931 C 14.866 15.802,15.013 15.556,15.013 15.253 C 15.013 14.923,15.494 15.426,8.274 8.208 C 2.971 2.906,1.670 1.619,1.573 1.577 C 1.409 1.506,1.213 1.488,1.061 1.530 M6.813 2.019 C 6.395 2.048,5.649 2.221,5.302 2.370 C 5.143 2.438,4.972 2.592,4.901 2.732 C 4.822 2.887,4.806 3.165,4.867 3.325 C 4.925 3.478,5.094 3.665,5.238 3.739 C 5.297 3.769,5.418 3.800,5.507 3.807 C 5.645 3.818,5.718 3.804,6.001 3.712 C 6.464 3.563,6.783 3.512,7.267 3.512 C 7.734 3.512,8.047 3.560,8.444 3.693 C 9.524 4.054,10.333 4.835,10.772 5.940 C 10.937 6.355,11.122 6.475,11.653 6.510 C 12.225 6.547,12.693 6.696,13.134 6.982 C 14.074 7.589,14.584 8.647,14.479 9.770 C 14.422 10.380,14.251 10.824,13.864 11.360 C 13.591 11.738,13.588 12.072,13.853 12.368 C 14.013 12.545,14.177 12.622,14.400 12.623 C 14.715 12.626,14.896 12.505,15.177 12.107 C 15.591 11.522,15.856 10.845,15.961 10.109 C 16.019 9.697,16.002 9.031,15.922 8.635 C 15.577 6.918,14.303 5.568,12.630 5.147 C 12.467 5.105,12.265 5.063,12.181 5.053 L 12.028 5.034 11.893 4.780 C 11.642 4.312,11.379 3.956,10.993 3.563 C 9.896 2.450,8.427 1.907,6.813 2.019 M9.887 12.501 C 9.590 12.505,7.955 12.504,6.253 12.500 L 3.160 12.492 2.963 12.432 C 2.754 12.367,2.504 12.252,2.365 12.155 C 1.983 11.891,1.689 11.471,1.570 11.021 C 1.498 10.746,1.493 10.278,1.560 10.013 C 1.734 9.320,2.221 8.809,2.920 8.585 C 3.256 8.477,3.434 8.317,3.511 8.054 C 3.548 7.928,3.550 7.859,3.524 7.547 C 3.481 7.016,3.537 6.528,3.697 6.043 L 3.767 5.833 7.097 9.163 L 10.427 12.493 9.887 12.501 " stroke="none" fill-rule="evenodd" fill="black"></path></svg>