<svg xmlns="http://www.w3.org/2000/svg" width="24" height="24" viewBox="0 0 24 24"><path d="M9.842 2.564 C 8.300 2.763,6.856 3.410,5.676 4.430 C 4.444 5.496,3.554 7.043,3.241 8.662 C 3.154 9.115,3.074 10.126,3.108 10.343 C 3.127 10.463,3.118 10.471,2.787 10.630 C 1.650 11.175,0.737 12.171,0.316 13.323 C 0.110 13.889,0.038 14.257,0.014 14.860 C -0.083 17.312,1.539 19.365,4.000 19.905 C 4.325 19.977,4.653 19.980,11.260 19.980 C 17.858 19.980,18.199 19.977,18.580 19.905 C 19.991 19.640,21.175 19.026,22.134 18.060 C 23.060 17.128,23.644 16.008,23.907 14.660 C 24.008 14.144,24.007 12.965,23.906 12.420 C 23.736 11.508,23.323 10.520,22.810 9.801 C 22.464 9.315,21.803 8.654,21.319 8.311 C 20.459 7.700,19.222 7.220,18.287 7.135 C 18.125 7.120,17.976 7.088,17.957 7.064 C 17.937 7.040,17.844 6.867,17.750 6.680 C 17.366 5.919,16.899 5.298,16.213 4.640 C 15.012 3.486,13.498 2.773,11.801 2.562 C 11.410 2.514,10.222 2.514,9.842 2.564 M11.500 4.041 C 12.959 4.204,14.183 4.766,15.188 5.733 C 15.832 6.354,16.278 6.999,16.609 7.792 C 16.814 8.281,16.854 8.342,17.056 8.457 C 17.192 8.536,17.316 8.559,17.787 8.596 C 18.110 8.622,18.519 8.683,18.739 8.739 C 20.644 9.222,22.085 10.762,22.419 12.672 C 22.498 13.127,22.497 13.928,22.415 14.402 C 22.186 15.739,21.407 16.916,20.260 17.662 C 19.685 18.036,19.173 18.245,18.428 18.410 L 18.020 18.500 11.280 18.500 L 4.540 18.500 4.185 18.410 C 2.829 18.064,1.837 17.057,1.577 15.763 C 1.488 15.315,1.516 14.504,1.635 14.100 C 1.962 12.992,2.807 12.149,3.960 11.778 C 4.566 11.582,4.718 11.335,4.636 10.672 C 4.547 9.951,4.658 8.989,4.920 8.196 C 5.672 5.922,7.677 4.321,10.120 4.044 C 10.549 3.996,11.084 3.994,11.500 4.041 " stroke="none" fill-rule="evenodd" fill="black"></path></svg>