<svg xmlns="http://www.w3.org/2000/svg" width="24" height="24" viewBox="0 0 24 24"><path d="M2.691 2.594 C 2.068 2.810,1.629 3.338,1.522 4.000 C 1.465 4.358,1.465 16.639,1.522 17.000 C 1.645 17.771,2.229 18.355,3.000 18.478 C 3.143 18.501,3.651 18.520,4.130 18.520 L 5.000 18.520 5.000 19.876 C 5.000 21.092,5.008 21.258,5.075 21.475 C 5.324 22.274,6.186 22.693,6.980 22.399 C 7.208 22.315,7.317 22.213,9.121 20.415 L 11.022 18.520 15.881 18.520 C 19.039 18.520,20.831 18.505,21.000 18.478 C 21.771 18.355,22.355 17.771,22.478 17.000 C 22.535 16.645,22.535 4.361,22.479 4.000 C 22.389 3.432,22.021 2.934,21.501 2.677 L 21.222 2.540 12.061 2.531 C 3.319 2.523,2.890 2.526,2.691 2.594 M20.920 4.080 C 20.999 4.159,21.000 4.213,21.000 10.500 C 21.000 16.787,20.999 16.841,20.920 16.920 C 20.841 16.999,20.786 17.000,15.730 17.001 C 10.699 17.002,10.617 17.003,10.440 17.082 C 10.303 17.143,9.815 17.608,8.390 19.036 L 6.520 20.910 6.519 19.345 C 6.518 18.415,6.501 17.707,6.477 17.601 C 6.422 17.365,6.268 17.169,6.065 17.077 C 5.914 17.008,5.782 17.002,4.530 17.001 C 3.214 17.000,3.157 16.997,3.080 16.920 C 3.001 16.841,3.000 16.787,3.000 10.500 C 3.000 4.213,3.001 4.159,3.080 4.080 C 3.160 4.000,3.213 4.000,12.000 4.000 C 20.787 4.000,20.840 4.000,20.920 4.080 M9.412 6.592 C 9.341 6.630,8.462 7.423,7.457 8.356 C 6.174 9.548,5.613 10.094,5.572 10.193 C 5.497 10.372,5.497 10.628,5.572 10.807 C 5.613 10.906,6.175 11.453,7.456 12.644 C 8.460 13.577,9.344 14.374,9.422 14.415 C 9.584 14.501,9.901 14.513,10.044 14.440 C 10.185 14.367,10.358 14.197,10.428 14.063 C 10.509 13.909,10.506 13.606,10.422 13.430 C 10.379 13.339,9.814 12.787,8.857 11.899 C 8.034 11.135,7.360 10.506,7.360 10.500 C 7.360 10.495,8.033 9.867,8.856 9.105 C 9.821 8.210,10.376 7.667,10.420 7.575 C 10.498 7.411,10.507 7.086,10.437 6.952 C 10.369 6.819,10.196 6.641,10.072 6.576 C 9.925 6.499,9.569 6.508,9.412 6.592 M13.940 6.567 C 13.809 6.639,13.637 6.812,13.572 6.937 C 13.491 7.092,13.494 7.394,13.579 7.573 C 13.624 7.666,14.172 8.203,15.144 9.105 C 15.967 9.868,16.640 10.497,16.640 10.501 C 16.640 10.506,15.966 11.135,15.143 11.899 C 14.186 12.787,13.621 13.339,13.578 13.430 C 13.347 13.916,13.708 14.489,14.245 14.489 C 14.356 14.489,14.497 14.458,14.578 14.415 C 14.656 14.374,15.540 13.577,16.544 12.644 C 17.825 11.453,18.387 10.906,18.428 10.807 C 18.460 10.730,18.487 10.592,18.487 10.500 C 18.487 10.408,18.460 10.270,18.428 10.193 C 18.387 10.094,17.826 9.548,16.543 8.356 C 15.538 7.423,14.659 6.630,14.588 6.592 C 14.442 6.514,14.063 6.499,13.940 6.567 " stroke="none" fill-rule="evenodd" fill="black"></path></svg>