<svg xmlns="http://www.w3.org/2000/svg" width="16" height="16" viewBox="0 0 16 16"><path d="M6.853 0.030 C 5.459 0.153,4.136 0.659,3.006 1.501 C 1.405 2.695,0.381 4.427,0.062 6.480 C -0.005 6.912,-0.005 8.038,0.062 8.493 C 0.259 9.828,0.735 10.977,1.531 12.040 C 1.815 12.420,2.490 13.107,2.853 13.387 C 4.120 14.363,5.518 14.891,7.082 14.985 C 8.860 15.092,10.690 14.524,12.092 13.429 L 12.251 13.305 13.546 14.598 C 14.528 15.580,14.869 15.904,14.960 15.945 C 15.105 16.010,15.422 16.019,15.559 15.962 C 15.688 15.908,15.881 15.722,15.945 15.589 C 16.020 15.435,16.020 15.128,15.945 14.960 C 15.904 14.869,15.580 14.528,14.599 13.547 L 13.307 12.253 13.503 11.990 C 15.225 9.677,15.479 6.628,14.165 4.067 C 13.966 3.681,13.618 3.144,13.343 2.800 C 12.944 2.301,12.273 1.681,11.733 1.314 C 10.295 0.337,8.557 -0.121,6.853 0.030 M8.227 1.549 C 9.761 1.740,11.225 2.548,12.159 3.720 C 13.083 4.880,13.539 6.255,13.485 7.718 C 13.452 8.623,13.269 9.349,12.871 10.160 C 12.602 10.708,12.044 11.490,11.804 11.654 C 11.755 11.688,11.688 11.755,11.654 11.804 C 11.507 12.020,10.746 12.577,10.253 12.832 C 9.736 13.098,9.108 13.307,8.507 13.413 C 8.081 13.488,7.300 13.514,6.876 13.467 C 6.011 13.372,5.061 13.049,4.360 12.613 C 2.797 11.641,1.780 10.052,1.543 8.213 C 1.496 7.846,1.503 7.065,1.558 6.681 C 1.611 6.312,1.745 5.769,1.867 5.432 C 1.982 5.115,2.282 4.520,2.473 4.227 C 3.721 2.317,5.974 1.268,8.227 1.549 M9.493 5.032 C 9.390 5.067,9.152 5.294,7.813 6.629 L 6.253 8.185 5.731 7.666 C 5.135 7.074,5.067 7.030,4.760 7.030 C 4.360 7.030,4.061 7.309,4.033 7.710 C 4.024 7.835,4.034 7.928,4.067 8.030 C 4.110 8.162,4.180 8.240,4.940 9.004 C 5.505 9.572,5.807 9.857,5.899 9.907 C 6.089 10.010,6.309 10.024,6.520 9.946 C 6.674 9.889,6.755 9.812,8.526 8.044 C 10.154 6.417,10.379 6.182,10.441 6.047 C 10.720 5.434,10.138 4.811,9.493 5.032 " stroke="none" fill-rule="evenodd" fill="black"></path></svg>