<svg xmlns="http://www.w3.org/2000/svg" width="16" height="16" viewBox="0 0 16 16"><path d="M10.504 3.022 C 10.343 3.082,10.212 3.175,10.130 3.289 C 10.026 3.433,9.963 3.656,9.983 3.806 C 10.022 4.089,10.000 4.064,12.021 6.087 L 13.933 8.000 12.010 9.927 C 10.307 11.633,10.081 11.869,10.037 11.987 C 9.795 12.632,10.448 13.239,11.056 12.934 C 11.191 12.866,11.530 12.538,13.419 10.648 C 15.849 8.215,15.743 8.337,15.744 7.998 C 15.745 7.664,15.835 7.767,13.394 5.329 C 11.813 3.751,11.153 3.108,11.067 3.065 C 10.919 2.991,10.642 2.970,10.504 3.022 M5.039 3.048 C 4.972 3.067,4.876 3.108,4.825 3.140 C 4.775 3.172,3.748 4.185,2.543 5.392 C 0.139 7.801,0.254 7.670,0.254 8.000 C 0.254 8.330,0.136 8.196,2.570 10.634 C 4.471 12.539,4.809 12.866,4.944 12.934 C 5.432 13.179,6.012 12.825,6.013 12.280 C 6.014 11.938,6.111 12.051,3.990 9.927 L 2.068 8.000 3.963 6.100 C 5.229 4.831,5.875 4.165,5.909 4.093 C 5.978 3.949,5.980 3.572,5.912 3.447 C 5.737 3.122,5.370 2.955,5.039 3.048 " stroke="none" fill-rule="evenodd" fill="black"></path></svg>