<svg xmlns="http://www.w3.org/2000/svg" width="24" height="24" viewBox="0 0 24 24"><path d="M9.780 0.023 C 9.249 0.076,8.811 0.137,8.460 0.205 C 4.429 0.994,1.149 4.179,0.266 8.160 C 0.064 9.069,0.022 9.474,0.022 10.500 C 0.022 11.526,0.064 11.931,0.266 12.840 C 0.836 15.410,2.470 17.771,4.702 19.249 C 6.028 20.127,7.407 20.649,9.080 20.907 C 9.707 21.004,11.308 21.004,11.932 20.908 C 13.874 20.608,15.593 19.871,17.018 18.726 L 17.377 18.438 19.638 20.695 C 21.836 22.889,21.906 22.953,22.096 22.992 C 22.204 23.015,22.312 23.027,22.336 23.020 C 22.360 23.013,22.429 22.996,22.489 22.983 C 22.611 22.956,22.859 22.754,22.928 22.625 C 23.009 22.474,23.031 22.286,22.991 22.091 C 22.953 21.907,22.870 21.818,20.695 19.638 L 18.438 17.377 18.726 17.018 C 20.898 14.316,21.576 10.531,20.478 7.236 C 19.594 4.581,17.778 2.455,15.301 1.175 C 14.206 0.609,13.181 0.284,11.900 0.097 C 11.511 0.040,10.103 -0.009,9.780 0.023 M11.500 1.561 C 14.416 1.886,16.989 3.617,18.403 6.208 C 19.129 7.537,19.480 8.937,19.480 10.500 C 19.480 11.768,19.252 12.916,18.785 14.005 C 17.519 16.953,14.890 18.962,11.700 19.420 C 11.057 19.513,9.943 19.513,9.300 19.420 C 6.109 18.962,3.481 16.954,2.215 14.005 C 1.744 12.906,1.521 11.781,1.521 10.500 C 1.521 9.509,1.629 8.758,1.900 7.864 C 2.923 4.487,5.941 1.966,9.440 1.565 C 9.867 1.516,11.075 1.513,11.500 1.561 M14.078 7.156 C 13.980 7.219,12.739 8.434,11.320 9.855 L 8.741 12.439 7.560 11.262 C 6.911 10.614,6.329 10.066,6.267 10.042 C 5.814 9.872,5.294 10.174,5.250 10.634 C 5.212 11.022,5.211 11.021,6.795 12.611 C 7.746 13.567,8.317 14.110,8.423 14.161 C 8.601 14.248,8.853 14.263,9.027 14.198 C 9.090 14.175,10.463 12.834,12.130 11.168 C 14.536 8.765,15.134 8.147,15.186 8.011 C 15.432 7.365,14.665 6.773,14.078 7.156 " stroke="none" fill-rule="evenodd" fill="black"></path></svg>