<svg xmlns="http://www.w3.org/2000/svg" width="24" height="24" viewBox="0 0 24 24"><path d="M6.357 2.581 C 4.509 2.869,2.949 3.876,1.952 5.424 C 1.597 5.976,1.259 6.839,1.112 7.571 C 1.036 7.948,1.021 8.149,1.021 8.820 C 1.021 9.651,1.050 9.911,1.223 10.603 C 1.563 11.972,2.396 13.561,3.538 15.020 C 4.743 16.561,6.597 18.362,8.747 20.082 C 9.775 20.905,11.477 22.186,11.678 22.289 C 11.852 22.378,12.164 22.380,12.332 22.294 C 12.509 22.203,14.310 20.851,15.182 20.156 C 18.312 17.655,20.501 15.324,21.733 13.178 C 22.247 12.283,22.677 11.189,22.865 10.300 C 22.992 9.697,23.037 8.581,22.961 7.926 C 22.788 6.442,22.227 5.329,21.115 4.260 C 20.251 3.430,19.250 2.898,18.050 2.631 C 17.719 2.557,17.534 2.543,16.820 2.543 C 16.099 2.542,15.923 2.554,15.577 2.630 C 14.939 2.770,14.431 2.951,13.803 3.263 C 13.270 3.527,12.200 4.195,12.081 4.338 C 12.039 4.389,11.994 4.363,11.766 4.160 C 10.814 3.308,9.668 2.767,8.420 2.580 C 7.927 2.507,6.832 2.507,6.357 2.581 M8.390 4.100 C 9.212 4.257,10.070 4.668,10.680 5.197 L 10.859 5.353 10.259 5.967 C 9.929 6.304,9.451 6.814,9.196 7.100 C 8.523 7.856,6.849 9.866,6.777 10.006 C 6.689 10.176,6.696 10.478,6.793 10.664 C 6.902 10.875,8.601 12.554,8.891 12.738 C 9.862 13.352,11.088 13.351,12.027 12.735 C 12.155 12.651,12.611 12.239,13.040 11.818 C 13.827 11.046,14.005 10.899,14.394 10.703 C 15.122 10.335,16.129 10.353,16.892 10.746 C 17.146 10.877,17.335 11.049,18.473 12.179 L 19.767 13.463 19.416 13.922 C 19.040 14.414,18.744 14.773,18.434 15.114 L 18.239 15.327 17.550 14.689 C 17.170 14.338,16.671 13.877,16.440 13.663 C 16.209 13.450,15.953 13.240,15.872 13.197 C 15.622 13.067,15.244 13.118,15.026 13.312 C 14.821 13.494,14.741 13.924,14.865 14.184 C 14.904 14.267,15.372 14.729,16.045 15.349 C 16.658 15.914,17.160 16.389,17.160 16.405 C 17.160 16.444,16.240 17.307,15.743 17.735 L 15.345 18.077 15.163 17.910 C 15.062 17.818,14.555 17.351,14.035 16.871 C 13.515 16.391,13.047 15.966,12.995 15.925 C 12.639 15.649,12.126 15.751,11.895 16.145 C 11.806 16.297,11.793 16.358,11.808 16.562 C 11.819 16.717,11.853 16.839,11.906 16.911 C 11.950 16.971,12.471 17.469,13.063 18.018 C 13.656 18.567,14.143 19.026,14.148 19.038 C 14.156 19.061,13.451 19.609,12.552 20.277 L 12.004 20.684 11.192 20.074 C 6.048 16.207,3.258 12.929,2.633 10.020 C 2.531 9.548,2.492 8.529,2.558 8.080 C 2.701 7.097,3.129 6.210,3.799 5.504 C 4.602 4.659,5.575 4.191,6.880 4.025 C 7.144 3.991,8.060 4.037,8.390 4.100 M17.698 4.098 C 18.631 4.277,19.539 4.776,20.223 5.486 C 21.141 6.437,21.481 7.336,21.484 8.813 C 21.486 9.850,21.300 10.636,20.797 11.710 L 20.599 12.133 19.450 10.995 C 18.290 9.847,18.042 9.641,17.480 9.359 C 16.129 8.681,14.455 8.807,13.151 9.684 C 13.013 9.777,12.539 10.208,12.098 10.642 C 11.559 11.172,11.231 11.463,11.097 11.532 C 10.695 11.735,10.242 11.743,9.846 11.555 C 9.726 11.497,9.447 11.257,9.062 10.877 L 8.465 10.289 8.960 9.694 C 10.295 8.094,11.163 7.142,11.940 6.427 C 13.519 4.974,14.942 4.194,16.299 4.038 C 16.652 3.997,17.321 4.026,17.698 4.098 " stroke="none" fill-rule="evenodd" fill="black"></path></svg>