<svg xmlns="http://www.w3.org/2000/svg" width="24" height="24" viewBox="0 0 24 24"><path d="M9.780 0.023 C 9.249 0.076,8.811 0.137,8.460 0.205 C 4.429 0.994,1.149 4.179,0.266 8.160 C 0.064 9.069,0.022 9.474,0.022 10.500 C 0.022 11.769,0.159 12.666,0.520 13.760 C 2.170 18.768,7.243 21.777,12.420 20.819 C 14.100 20.508,15.716 19.773,17.018 18.726 L 17.377 18.438 19.638 20.695 C 21.836 22.889,21.906 22.953,22.096 22.992 C 22.204 23.015,22.312 23.027,22.336 23.020 C 22.360 23.013,22.429 22.996,22.489 22.983 C 22.611 22.956,22.859 22.754,22.928 22.625 C 23.009 22.474,23.031 22.286,22.991 22.091 C 22.953 21.907,22.870 21.818,20.695 19.638 L 18.438 17.377 18.726 17.018 C 19.871 15.593,20.611 13.867,20.907 11.932 C 21.004 11.304,21.003 9.703,20.907 9.080 C 20.539 6.695,19.552 4.714,17.919 3.081 C 16.290 1.452,14.248 0.439,11.900 0.097 C 11.511 0.040,10.103 -0.009,9.780 0.023 M11.500 1.561 C 14.416 1.886,16.989 3.617,18.403 6.208 C 19.129 7.537,19.480 8.937,19.480 10.500 C 19.480 11.768,19.252 12.916,18.785 14.005 C 17.519 16.953,14.890 18.962,11.700 19.420 C 11.057 19.513,9.943 19.513,9.300 19.420 C 6.109 18.962,3.481 16.954,2.215 14.005 C 1.744 12.906,1.521 11.781,1.521 10.500 C 1.521 9.509,1.629 8.758,1.900 7.864 C 2.923 4.487,5.941 1.966,9.440 1.565 C 9.867 1.516,11.075 1.513,11.500 1.561 M8.380 6.779 C 8.358 6.787,8.286 6.805,8.220 6.819 C 8.057 6.855,4.946 9.946,4.836 10.180 C 4.741 10.384,4.741 10.616,4.837 10.820 C 4.886 10.926,5.445 11.511,6.506 12.567 C 7.854 13.908,8.125 14.160,8.260 14.196 C 8.458 14.250,8.502 14.250,8.689 14.198 C 8.972 14.120,9.237 13.793,9.239 13.520 C 9.241 13.198,9.204 13.152,7.857 11.799 L 6.561 10.498 7.802 9.259 C 8.485 8.578,9.078 7.965,9.120 7.898 C 9.338 7.551,9.204 7.047,8.845 6.863 C 8.734 6.807,8.448 6.755,8.380 6.779 M12.180 6.835 C 11.990 6.923,11.904 7.012,11.822 7.210 C 11.740 7.406,11.745 7.625,11.837 7.820 C 11.886 7.924,12.353 8.420,13.176 9.239 L 14.439 10.499 13.123 11.819 C 11.955 12.991,11.801 13.160,11.760 13.316 C 11.608 13.895,12.146 14.411,12.708 14.224 C 12.878 14.167,13.084 13.976,14.509 12.550 C 15.605 11.452,16.137 10.893,16.179 10.791 C 16.257 10.602,16.257 10.398,16.179 10.209 C 16.094 10.004,13.044 6.942,12.820 6.837 C 12.617 6.742,12.385 6.741,12.180 6.835 " stroke="none" fill-rule="evenodd" fill="black"></path></svg>