<svg xmlns="http://www.w3.org/2000/svg" width="16" height="16" viewBox="0 0 16 16"><path d="M4.387 1.014 C 2.240 1.161,0.550 2.613,0.089 4.706 C 0.007 5.079,-0.022 5.768,0.024 6.215 C 0.177 7.679,0.931 9.178,2.330 10.800 C 2.885 11.444,3.956 12.483,4.813 13.210 C 5.647 13.917,7.482 15.321,7.707 15.423 C 7.869 15.498,8.131 15.498,8.293 15.423 C 8.359 15.393,8.749 15.116,9.160 14.808 C 10.856 13.536,11.847 12.689,12.920 11.597 C 15.396 9.075,16.350 6.826,15.891 4.587 C 15.764 3.964,15.540 3.454,15.183 2.967 C 14.463 1.991,13.466 1.340,12.307 1.093 C 11.924 1.011,11.163 0.991,10.752 1.051 C 9.957 1.168,9.200 1.472,8.421 1.989 L 8.047 2.236 7.873 2.088 C 7.322 1.621,6.561 1.260,5.800 1.106 C 5.536 1.053,4.812 0.976,4.707 0.991 C 4.692 0.993,4.548 1.004,4.387 1.014 M5.351 2.547 C 5.644 2.594,5.969 2.693,6.237 2.816 C 6.425 2.902,6.880 3.187,6.880 3.218 C 6.880 3.226,6.709 3.409,6.500 3.625 C 6.014 4.126,5.552 4.651,4.764 5.599 C 3.997 6.522,3.956 6.603,4.069 6.988 C 4.109 7.124,4.156 7.178,4.769 7.796 C 5.464 8.496,5.635 8.639,5.951 8.785 C 6.676 9.119,7.490 9.059,8.153 8.622 C 8.238 8.566,8.559 8.273,8.867 7.971 C 9.175 7.668,9.493 7.379,9.573 7.328 C 10.139 6.969,10.854 6.948,11.413 7.273 C 11.543 7.348,11.789 7.574,12.398 8.177 L 13.210 8.980 13.027 9.217 C 12.926 9.347,12.742 9.571,12.619 9.715 L 12.394 9.977 12.337 9.925 C 12.306 9.896,11.986 9.601,11.627 9.268 C 11.267 8.936,10.921 8.632,10.857 8.594 C 10.769 8.542,10.693 8.522,10.544 8.512 C 10.362 8.501,10.332 8.507,10.175 8.584 C 9.900 8.719,9.757 8.949,9.755 9.257 C 9.755 9.428,9.829 9.624,9.941 9.743 C 9.981 9.785,10.311 10.096,10.675 10.433 L 11.337 11.048 11.209 11.178 C 11.004 11.386,10.382 11.928,10.357 11.920 C 10.344 11.916,9.993 11.600,9.578 11.217 C 9.156 10.828,8.768 10.491,8.698 10.455 C 8.516 10.359,8.227 10.362,8.036 10.460 C 7.761 10.603,7.608 10.876,7.633 11.184 C 7.657 11.481,7.681 11.510,8.687 12.437 C 8.954 12.684,9.173 12.892,9.173 12.900 C 9.173 12.917,9.211 12.888,8.564 13.380 C 8.270 13.604,8.017 13.787,8.000 13.787 C 7.964 13.787,7.187 13.201,6.550 12.695 C 3.979 10.649,2.333 8.729,1.761 7.107 C 1.555 6.522,1.462 5.835,1.519 5.315 C 1.614 4.453,2.049 3.662,2.696 3.175 C 3.149 2.833,3.666 2.618,4.227 2.536 C 4.490 2.498,5.086 2.504,5.351 2.547 M11.910 2.548 C 12.575 2.664,13.114 2.949,13.616 3.451 C 14.198 4.033,14.427 4.551,14.477 5.396 C 14.511 5.982,14.457 6.430,14.288 6.959 C 14.218 7.176,14.042 7.616,14.009 7.652 C 14.004 7.658,13.672 7.338,13.273 6.941 C 12.486 6.159,12.299 6.012,11.837 5.808 C 11.446 5.635,11.144 5.570,10.667 5.554 C 10.033 5.534,9.567 5.636,9.031 5.913 C 8.670 6.099,8.436 6.287,7.838 6.872 C 7.219 7.477,7.171 7.507,6.861 7.488 C 6.760 7.482,6.633 7.455,6.573 7.427 C 6.463 7.374,5.813 6.760,5.814 6.709 C 5.814 6.681,6.388 5.984,6.781 5.533 C 8.395 3.685,9.658 2.763,10.867 2.549 C 11.155 2.498,11.621 2.498,11.910 2.548 " stroke="none" fill-rule="evenodd" fill="black"></path></svg>