<svg xmlns="http://www.w3.org/2000/svg" width="24" height="24" viewBox="0 0 24 24"><path d="M3.340 2.056 C 2.694 2.217,2.175 2.748,2.039 3.387 C 2.012 3.516,2.002 6.399,2.009 12.120 L 2.020 20.660 2.113 20.880 C 2.305 21.335,2.664 21.693,3.122 21.887 L 3.340 21.980 12.000 21.980 L 20.660 21.980 20.880 21.887 C 21.335 21.695,21.693 21.336,21.887 20.878 L 21.980 20.660 21.991 12.120 C 21.998 6.399,21.988 3.516,21.961 3.387 C 21.821 2.732,21.271 2.186,20.608 2.045 C 20.288 1.977,3.616 1.988,3.340 2.056 M20.432 3.568 C 20.469 3.605,20.480 5.533,20.480 12.003 C 20.480 19.756,20.475 20.394,20.414 20.445 C 20.315 20.527,3.685 20.527,3.586 20.445 C 3.525 20.394,3.520 19.756,3.520 12.003 C 3.520 5.533,3.531 3.605,3.568 3.568 C 3.638 3.498,20.362 3.498,20.432 3.568 M9.456 8.076 C 9.247 8.171,5.738 11.423,5.605 11.644 C 5.540 11.753,5.511 11.863,5.511 12.000 C 5.511 12.137,5.540 12.247,5.605 12.357 C 5.658 12.444,6.519 13.275,7.534 14.217 C 9.424 15.970,9.462 16.001,9.780 15.999 C 9.960 15.998,10.216 15.866,10.332 15.714 C 10.527 15.458,10.544 15.080,10.370 14.843 C 10.328 14.786,9.638 14.129,8.837 13.382 C 8.036 12.636,7.380 12.013,7.380 11.999 C 7.380 11.985,7.911 11.483,8.560 10.882 C 9.923 9.621,10.348 9.211,10.409 9.101 C 10.606 8.742,10.440 8.247,10.065 8.077 C 9.856 7.982,9.664 7.982,9.456 8.076 M13.935 8.077 C 13.560 8.247,13.394 8.743,13.591 9.101 C 13.650 9.209,14.093 9.635,15.460 10.903 C 16.098 11.495,16.620 11.989,16.620 12.002 C 16.620 12.014,15.964 12.636,15.163 13.382 C 14.362 14.129,13.672 14.786,13.630 14.843 C 13.456 15.080,13.473 15.458,13.668 15.714 C 13.784 15.866,14.040 15.998,14.220 15.999 C 14.538 16.001,14.576 15.970,16.466 14.217 C 17.481 13.275,18.342 12.444,18.395 12.357 C 18.523 12.142,18.523 11.858,18.395 11.644 C 18.262 11.423,14.753 8.171,14.544 8.076 C 14.336 7.982,14.144 7.982,13.935 8.077 " stroke="none" fill-rule="evenodd" fill="black"></path></svg>