<svg xmlns="http://www.w3.org/2000/svg" width="16" height="16" viewBox="0 0 16 16"><path d="M1.324 1.056 C 0.990 1.136,0.632 1.363,0.400 1.642 C 0.252 1.820,0.087 2.160,0.040 2.387 C 0.007 2.546,0.001 3.215,0.001 7.000 C 0.001 11.924,-0.010 11.620,0.185 12.013 C 0.412 12.473,0.792 12.792,1.284 12.936 C 1.457 12.986,1.567 12.994,2.231 13.006 L 2.982 13.020 2.993 13.903 C 3.003 14.717,3.008 14.800,3.061 14.960 C 3.361 15.871,4.374 16.267,5.198 15.797 C 5.271 15.755,5.861 15.187,6.680 14.371 L 8.040 13.015 11.280 13.007 L 14.520 12.998 14.716 12.938 C 15.216 12.785,15.589 12.471,15.815 12.013 C 16.010 11.620,15.999 11.924,15.999 7.000 C 15.999 2.076,16.010 2.380,15.815 1.987 C 15.639 1.630,15.348 1.340,15.003 1.175 C 14.642 1.003,15.138 1.014,7.987 1.016 C 2.464 1.018,1.456 1.023,1.324 1.056 M14.377 2.535 C 14.512 2.607,14.507 2.436,14.507 7.000 C 14.507 11.472,14.509 11.384,14.396 11.457 C 14.376 11.470,12.830 11.486,10.960 11.493 L 7.560 11.507 7.427 11.578 C 7.331 11.629,6.901 12.042,5.907 13.038 L 4.520 14.427 4.507 13.247 C 4.494 12.116,4.491 12.062,4.437 11.947 C 4.366 11.796,4.215 11.646,4.056 11.567 C 3.935 11.508,3.916 11.507,2.827 11.500 C 2.218 11.496,1.693 11.487,1.659 11.479 C 1.626 11.471,1.575 11.427,1.546 11.379 C 1.494 11.295,1.494 11.221,1.493 7.005 C 1.493 2.403,1.487 2.613,1.620 2.535 C 1.687 2.496,14.304 2.496,14.377 2.535 M5.933 4.331 C 5.738 4.423,3.596 6.578,3.544 6.733 C 3.488 6.900,3.499 7.167,3.567 7.307 C 3.609 7.392,3.948 7.749,4.739 8.538 C 5.805 9.601,5.860 9.651,5.998 9.691 C 6.190 9.747,6.315 9.744,6.486 9.681 C 6.798 9.564,6.974 9.308,6.972 8.973 C 6.971 8.674,6.931 8.621,6.069 7.760 L 5.307 7.001 6.092 6.214 C 6.962 5.342,6.993 5.300,6.993 5.000 C 6.993 4.713,6.838 4.464,6.580 4.335 C 6.392 4.241,6.125 4.239,5.933 4.331 M9.420 4.335 C 9.162 4.464,9.007 4.713,9.007 5.000 C 9.007 5.300,9.038 5.342,9.908 6.214 L 10.693 7.001 9.931 7.760 C 9.069 8.621,9.029 8.674,9.028 8.973 C 9.026 9.308,9.202 9.564,9.514 9.681 C 9.685 9.744,9.810 9.747,10.002 9.691 C 10.140 9.650,10.196 9.600,11.261 8.538 C 12.054 7.747,12.392 7.392,12.433 7.307 C 12.501 7.167,12.512 6.899,12.456 6.733 C 12.404 6.578,10.262 4.423,10.067 4.331 C 9.875 4.239,9.608 4.241,9.420 4.335 " stroke="none" fill-rule="evenodd" fill="black"></path></svg>