<svg xmlns="http://www.w3.org/2000/svg" width="24" height="24" viewBox="0 0 24 24"><path d="M4.810 2.062 C 4.230 2.218,3.774 2.653,3.575 3.240 C 3.504 3.449,3.500 3.662,3.500 7.500 C 3.500 11.338,3.504 11.551,3.575 11.760 C 3.720 12.188,4.071 12.612,4.433 12.796 C 4.850 13.009,4.509 13.000,12.000 13.000 C 19.491 13.000,19.150 13.009,19.567 12.796 C 19.929 12.612,20.280 12.188,20.425 11.760 C 20.496 11.551,20.500 11.338,20.500 7.500 C 20.500 3.662,20.496 3.449,20.425 3.240 C 20.280 2.812,19.929 2.388,19.567 2.204 C 19.150 1.991,19.495 2.000,11.982 2.003 C 6.115 2.005,4.987 2.014,4.810 2.062 M18.927 3.586 C 18.997 3.649,19.000 3.823,19.000 7.503 L 19.000 11.354 18.895 11.437 L 18.789 11.520 12.000 11.520 L 5.211 11.520 5.105 11.437 L 5.000 11.354 5.000 7.510 C 5.000 3.990,5.006 3.660,5.066 3.593 C 5.130 3.523,5.397 3.520,11.993 3.520 C 18.321 3.520,18.859 3.525,18.927 3.586 M2.810 14.062 C 2.246 14.214,1.801 14.625,1.589 15.191 C 1.506 15.413,1.503 15.487,1.489 17.553 C 1.480 18.975,1.490 19.783,1.519 19.973 C 1.641 20.767,2.218 21.353,3.000 21.478 C 3.361 21.535,20.639 21.535,21.000 21.478 C 21.782 21.353,22.359 20.767,22.481 19.973 C 22.510 19.783,22.520 18.975,22.511 17.553 C 22.497 15.487,22.494 15.413,22.411 15.191 C 22.195 14.616,21.752 14.211,21.173 14.060 C 20.837 13.972,3.136 13.974,2.810 14.062 M20.927 15.586 C 20.996 15.649,21.000 15.769,21.000 17.746 C 21.000 19.787,20.998 19.842,20.920 19.920 C 20.840 20.000,20.787 20.000,12.000 20.000 C 3.213 20.000,3.160 20.000,3.080 19.920 C 3.002 19.842,3.000 19.787,3.000 17.753 C 3.000 15.867,3.006 15.659,3.066 15.593 C 3.130 15.523,3.460 15.520,11.993 15.520 C 20.182 15.520,20.859 15.525,20.927 15.586 M6.460 17.075 C 5.795 17.376,5.890 18.324,6.600 18.476 C 7.078 18.579,7.529 18.505,7.758 18.286 C 8.148 17.914,8.038 17.301,7.540 17.075 C 7.421 17.021,7.282 17.002,7.000 17.002 C 6.718 17.002,6.579 17.021,6.460 17.075 M10.460 17.075 C 9.795 17.376,9.890 18.324,10.600 18.476 C 10.738 18.506,11.835 18.520,14.000 18.520 C 16.165 18.520,17.262 18.506,17.400 18.476 C 17.942 18.360,18.182 17.695,17.828 17.292 C 17.557 16.984,17.787 17.002,14.000 17.002 C 10.816 17.002,10.611 17.006,10.460 17.075 " stroke="none" fill-rule="evenodd" fill="black"></path></svg>