<svg xmlns="http://www.w3.org/2000/svg" width="16" height="16" viewBox="0 0 16 16"><path d="M6.891 0.026 C 5.982 0.108,5.085 0.349,4.297 0.723 C 2.169 1.733,0.644 3.665,0.163 5.961 C 0.033 6.579,0.013 6.787,0.014 7.520 C 0.015 8.092,0.025 8.260,0.075 8.577 C 0.292 9.943,0.777 11.066,1.623 12.160 C 1.857 12.463,2.511 13.117,2.832 13.370 C 5.409 15.399,8.963 15.544,11.667 13.732 C 11.813 13.634,12.005 13.497,12.092 13.429 L 12.251 13.305 13.546 14.598 C 14.528 15.580,14.869 15.904,14.960 15.945 C 15.105 16.010,15.422 16.019,15.559 15.962 C 15.688 15.908,15.881 15.722,15.945 15.589 C 16.020 15.435,16.020 15.128,15.945 14.960 C 15.904 14.869,15.580 14.528,14.598 13.546 L 13.305 12.251 13.456 12.052 C 14.773 10.316,15.275 8.145,14.850 6.019 C 14.623 4.882,14.083 3.727,13.344 2.800 C 13.101 2.495,12.498 1.895,12.187 1.648 C 11.100 0.786,9.838 0.250,8.464 0.066 C 8.092 0.016,7.238 -0.006,6.891 0.026 M8.333 1.563 C 10.298 1.832,12.004 3.070,12.880 4.863 C 13.158 5.432,13.325 5.957,13.431 6.600 C 13.497 6.996,13.497 7.991,13.432 8.397 C 13.256 9.484,12.830 10.439,12.137 11.299 C 12.016 11.449,11.872 11.605,11.815 11.645 C 11.759 11.686,11.685 11.759,11.651 11.809 C 11.617 11.858,11.477 11.993,11.338 12.108 C 10.478 12.826,9.379 13.307,8.266 13.451 C 7.639 13.533,6.824 13.496,6.202 13.358 C 5.609 13.226,4.846 12.914,4.325 12.591 C 2.801 11.646,1.801 10.072,1.544 8.213 C 1.498 7.885,1.505 7.088,1.556 6.707 C 1.933 3.907,4.200 1.757,7.026 1.520 C 7.364 1.491,7.953 1.511,8.333 1.563 M8.798 4.782 C 8.656 4.822,8.545 4.895,8.430 5.027 C 8.307 5.166,8.260 5.297,8.258 5.493 C 8.256 5.803,8.284 5.842,9.153 6.712 L 9.930 7.491 9.150 8.280 C 8.276 9.163,8.240 9.212,8.241 9.520 C 8.242 10.038,8.742 10.389,9.242 10.223 C 9.360 10.184,9.490 10.063,10.488 9.070 C 11.734 7.829,11.745 7.815,11.743 7.495 C 11.743 7.372,11.725 7.284,11.684 7.200 C 11.607 7.037,9.446 4.875,9.302 4.815 C 9.161 4.756,8.940 4.742,8.798 4.782 M5.747 4.807 C 5.562 4.883,5.458 4.979,4.423 6.018 C 3.413 7.033,3.337 7.116,3.293 7.250 C 3.234 7.433,3.250 7.676,3.332 7.841 C 3.414 8.003,5.510 10.101,5.680 10.190 C 5.776 10.240,5.842 10.253,6.013 10.253 C 6.201 10.253,6.244 10.244,6.372 10.173 C 6.733 9.976,6.869 9.526,6.677 9.172 C 6.636 9.097,6.315 8.755,5.839 8.279 L 5.068 7.508 5.836 6.734 C 6.313 6.253,6.622 5.921,6.651 5.857 C 6.827 5.476,6.680 5.037,6.312 4.849 C 6.178 4.780,5.868 4.757,5.747 4.807 " stroke="none" fill-rule="evenodd" fill="black"></path></svg>