<svg xmlns="http://www.w3.org/2000/svg" width="24" height="24" viewBox="0 0 24 24"><path d="M7.940 4.826 C 7.738 4.931,1.163 11.517,1.077 11.700 C 0.982 11.903,0.982 12.097,1.077 12.300 C 1.128 12.410,2.211 13.517,4.526 15.827 C 7.614 18.909,7.915 19.198,8.080 19.242 C 8.409 19.329,8.730 19.194,8.906 18.893 C 9.029 18.683,9.043 18.402,8.941 18.197 C 8.903 18.122,7.511 16.697,5.847 15.030 L 2.821 12.001 5.866 8.950 C 9.140 5.670,9.032 5.793,8.989 5.415 C 8.935 4.930,8.360 4.607,7.940 4.826 M15.407 4.846 C 15.090 5.003,14.929 5.396,15.040 5.745 C 15.080 5.871,15.667 6.479,18.134 8.950 L 21.179 12.001 18.153 15.030 C 16.489 16.697,15.097 18.122,15.059 18.197 C 14.914 18.487,15.018 18.934,15.273 19.115 C 15.461 19.249,15.710 19.298,15.920 19.242 C 16.085 19.198,16.386 18.909,19.474 15.827 C 21.789 13.517,22.872 12.410,22.923 12.300 C 23.015 12.105,23.020 11.925,22.939 11.729 C 22.862 11.544,16.296 4.954,16.072 4.837 C 15.877 4.736,15.622 4.739,15.407 4.846 " stroke="none" fill-rule="evenodd" fill="black"></path></svg>