<svg xmlns="http://www.w3.org/2000/svg" width="16" height="16" viewBox="0 0 16 16"><path d="M1.442 0.029 C 0.801 0.156,0.295 0.596,0.087 1.210 L 0.013 1.427 0.006 7.933 C -0.000 14.361,0.000 14.442,0.053 14.653 C 0.138 14.995,0.273 15.234,0.519 15.481 C 0.766 15.727,1.005 15.862,1.347 15.947 C 1.558 16.000,1.639 16.000,8.067 15.994 L 14.573 15.987 14.790 15.913 C 15.036 15.830,15.347 15.636,15.511 15.463 C 15.678 15.287,15.832 15.029,15.914 14.789 L 15.987 14.573 15.987 8.000 L 15.987 1.427 15.914 1.211 C 15.734 0.683,15.318 0.266,14.792 0.088 L 14.573 0.013 8.067 0.009 C 4.437 0.007,1.508 0.016,1.442 0.029 M14.419 1.581 L 14.493 1.655 14.493 8.000 L 14.493 14.345 14.419 14.419 L 14.345 14.493 8.000 14.493 L 1.655 14.493 1.581 14.419 L 1.507 14.345 1.507 8.002 C 1.507 1.696,1.507 1.659,1.560 1.600 C 1.589 1.567,1.637 1.531,1.667 1.518 C 1.696 1.506,4.561 1.499,8.033 1.502 L 14.345 1.507 14.419 1.581 M9.512 5.290 C 9.255 5.386,9.094 5.567,9.024 5.840 C 8.988 5.984,8.988 6.016,9.025 6.163 C 9.048 6.252,9.093 6.363,9.124 6.409 C 9.155 6.456,9.518 6.832,9.930 7.246 L 10.679 7.999 9.903 8.780 C 9.392 9.293,9.106 9.601,9.066 9.679 C 9.032 9.747,9.001 9.869,8.993 9.962 C 8.958 10.405,9.284 10.756,9.733 10.759 C 10.051 10.761,10.070 10.746,11.296 9.514 C 12.498 8.308,12.493 8.314,12.493 8.000 C 12.493 7.687,12.496 7.690,11.313 6.502 C 10.559 5.745,10.192 5.396,10.099 5.345 C 9.936 5.257,9.669 5.232,9.512 5.290 M5.947 5.325 C 5.845 5.360,5.659 5.533,4.739 6.450 C 3.533 7.651,3.508 7.682,3.507 7.986 C 3.506 8.315,3.494 8.300,4.704 9.514 C 5.930 10.746,5.949 10.761,6.267 10.759 C 6.716 10.756,7.042 10.405,7.007 9.962 C 6.999 9.869,6.968 9.747,6.934 9.679 C 6.894 9.601,6.608 9.293,6.098 8.780 L 5.322 8.000 6.087 7.232 C 6.897 6.419,6.946 6.356,6.978 6.084 C 7.012 5.795,6.825 5.472,6.548 5.343 C 6.388 5.269,6.134 5.261,5.947 5.325 " stroke="none" fill-rule="evenodd" fill="black"></path></svg>