<svg xmlns="http://www.w3.org/2000/svg" width="16" height="16" viewBox="0 0 16 16"><path d="M3.442 0.029 C 2.800 0.156,2.295 0.596,2.087 1.210 L 2.013 1.427 2.013 4.240 L 2.013 7.053 2.075 7.253 C 2.218 7.716,2.546 8.102,2.968 8.305 C 3.413 8.520,3.083 8.507,8.000 8.507 C 12.848 8.507,12.583 8.516,12.979 8.333 C 13.431 8.124,13.739 7.781,13.911 7.293 L 13.987 7.080 13.987 4.253 L 13.987 1.427 13.914 1.211 C 13.734 0.683,13.318 0.266,12.792 0.088 L 12.573 0.013 8.067 0.009 C 5.569 0.007,3.507 0.016,3.442 0.029 M12.419 1.581 L 12.493 1.655 12.493 4.253 L 12.493 6.852 12.419 6.926 L 12.345 7.000 8.000 7.000 L 3.655 7.000 3.581 6.926 L 3.507 6.852 3.507 4.256 C 3.507 1.696,3.507 1.658,3.560 1.600 C 3.589 1.567,3.637 1.530,3.667 1.518 C 3.696 1.506,5.661 1.499,8.033 1.502 L 12.345 1.507 12.419 1.581 M1.520 9.521 C 0.865 9.600,0.320 10.052,0.089 10.707 L 0.013 10.920 0.006 12.677 C -0.002 14.367,-0.000 14.441,0.052 14.650 C 0.138 14.995,0.272 15.233,0.519 15.481 C 0.766 15.727,1.005 15.862,1.347 15.947 C 1.558 16.000,1.639 16.000,8.067 15.994 L 14.573 15.987 14.790 15.913 C 15.036 15.830,15.347 15.636,15.511 15.463 C 15.678 15.287,15.832 15.029,15.914 14.789 L 15.987 14.573 15.987 12.747 L 15.987 10.920 15.911 10.707 C 15.708 10.130,15.295 9.741,14.687 9.552 C 14.559 9.512,13.994 9.508,8.120 9.504 C 4.585 9.502,1.615 9.509,1.520 9.521 M14.419 11.078 L 14.493 11.142 14.493 12.744 L 14.493 14.345 14.419 14.419 L 14.345 14.493 8.000 14.493 L 1.655 14.493 1.581 14.419 L 1.507 14.345 1.507 12.744 L 1.507 11.142 1.581 11.078 L 1.656 11.013 8.000 11.013 L 14.344 11.013 14.419 11.078 M3.504 12.049 C 3.259 12.134,3.094 12.317,3.027 12.579 C 2.960 12.840,3.027 13.080,3.222 13.276 C 3.410 13.463,3.474 13.480,4.000 13.480 C 4.410 13.480,4.479 13.474,4.572 13.428 C 4.697 13.366,4.860 13.209,4.919 13.095 C 5.077 12.790,4.987 12.386,4.712 12.161 C 4.563 12.039,4.395 12.002,4.000 12.002 C 3.726 12.002,3.608 12.013,3.504 12.049 M7.504 12.049 C 7.259 12.134,7.094 12.317,7.027 12.579 C 6.982 12.752,7.002 12.943,7.081 13.095 C 7.140 13.209,7.303 13.366,7.428 13.428 C 7.530 13.479,7.601 13.480,10.000 13.480 C 12.399 13.480,12.470 13.479,12.572 13.428 C 12.895 13.268,13.060 12.918,12.973 12.579 C 12.906 12.317,12.741 12.134,12.496 12.049 C 12.370 12.005,12.184 12.002,10.000 12.002 C 7.816 12.002,7.630 12.005,7.504 12.049 " stroke="none" fill-rule="evenodd" fill="black"></path></svg>