<svg xmlns="http://www.w3.org/2000/svg" width="16" height="16" viewBox="0 0 16 16"><path d="M2.430 0.029 C 2.111 0.084,1.765 0.271,1.512 0.526 C 1.216 0.824,1.065 1.144,1.011 1.587 C 0.995 1.721,0.988 4.141,0.993 8.160 L 1.000 14.520 1.061 14.716 C 1.216 15.218,1.529 15.589,1.987 15.815 C 2.349 15.995,2.396 15.999,4.000 15.999 C 5.604 15.999,5.651 15.995,6.013 15.815 C 6.262 15.692,6.448 15.542,6.624 15.322 C 6.783 15.124,6.863 14.966,6.940 14.702 L 7.000 14.493 7.000 8.000 L 7.000 1.507 6.939 1.292 C 6.773 0.714,6.348 0.274,5.760 0.074 C 5.590 0.016,5.559 0.015,4.080 0.010 C 3.251 0.007,2.509 0.016,2.430 0.029 M10.430 0.029 C 10.111 0.084,9.765 0.271,9.512 0.526 C 9.216 0.824,9.065 1.144,9.011 1.587 C 8.995 1.721,8.988 4.141,8.993 8.160 L 9.000 14.520 9.061 14.716 C 9.216 15.218,9.529 15.589,9.987 15.815 C 10.349 15.995,10.396 15.999,12.000 15.999 C 13.604 15.999,13.651 15.995,14.013 15.815 C 14.262 15.692,14.448 15.542,14.624 15.322 C 14.783 15.124,14.863 14.966,14.940 14.702 L 15.000 14.493 15.000 8.000 L 15.000 1.507 14.939 1.292 C 14.773 0.714,14.348 0.274,13.760 0.074 C 13.590 0.016,13.559 0.015,12.080 0.010 C 11.251 0.007,10.509 0.016,10.430 0.029 M5.361 1.534 C 5.403 1.556,5.451 1.597,5.466 1.625 C 5.484 1.660,5.493 3.717,5.493 8.010 L 5.493 14.344 5.429 14.419 L 5.365 14.493 4.000 14.493 L 2.635 14.493 2.571 14.419 L 2.507 14.344 2.507 8.010 C 2.507 3.735,2.516 1.660,2.534 1.625 C 2.603 1.497,2.622 1.496,3.995 1.494 C 5.093 1.493,5.294 1.499,5.361 1.534 M13.361 1.534 C 13.403 1.556,13.451 1.597,13.466 1.625 C 13.484 1.660,13.493 3.717,13.493 8.010 L 13.493 14.344 13.429 14.419 L 13.365 14.493 12.000 14.493 L 10.635 14.493 10.571 14.419 L 10.507 14.344 10.507 8.010 C 10.507 3.735,10.516 1.660,10.534 1.625 C 10.603 1.497,10.622 1.496,11.995 1.494 C 13.093 1.493,13.294 1.499,13.361 1.534 " stroke="none" fill-rule="evenodd" fill="black"></path></svg>