<svg xmlns="http://www.w3.org/2000/svg" width="24" height="24" viewBox="0 0 24 24"><path d="M3.340 2.056 C 2.694 2.217,2.175 2.748,2.039 3.387 C 2.012 3.516,2.002 6.399,2.009 12.120 L 2.020 20.660 2.113 20.880 C 2.305 21.335,2.664 21.693,3.122 21.887 L 3.340 21.980 6.500 21.980 L 9.660 21.980 9.878 21.887 C 10.336 21.693,10.695 21.335,10.887 20.880 L 10.980 20.660 10.991 12.120 C 10.998 6.399,10.988 3.516,10.961 3.387 C 10.821 2.732,10.271 2.186,9.608 2.045 C 9.294 1.978,3.613 1.989,3.340 2.056 M14.340 2.056 C 13.694 2.217,13.175 2.748,13.039 3.387 C 13.012 3.516,13.002 6.399,13.009 12.120 L 13.020 20.660 13.113 20.880 C 13.305 21.335,13.664 21.693,14.122 21.887 L 14.340 21.980 17.500 21.980 L 20.660 21.980 20.878 21.887 C 21.336 21.693,21.695 21.335,21.887 20.880 L 21.980 20.660 21.991 12.120 C 21.998 6.399,21.988 3.516,21.961 3.387 C 21.821 2.732,21.271 2.186,20.608 2.045 C 20.294 1.978,14.613 1.989,14.340 2.056 M9.432 3.568 C 9.469 3.605,9.480 5.533,9.480 12.003 C 9.480 19.756,9.475 20.394,9.414 20.445 C 9.315 20.527,3.685 20.527,3.586 20.445 C 3.525 20.394,3.520 19.756,3.520 12.003 C 3.520 5.533,3.531 3.605,3.568 3.568 C 3.637 3.499,9.363 3.499,9.432 3.568 M20.432 3.568 C 20.469 3.605,20.480 5.533,20.480 12.003 C 20.480 19.756,20.475 20.394,20.414 20.445 C 20.315 20.527,14.685 20.527,14.586 20.445 C 14.525 20.394,14.520 19.756,14.520 12.003 C 14.520 5.533,14.531 3.605,14.568 3.568 C 14.637 3.499,20.363 3.499,20.432 3.568 " stroke="none" fill-rule="evenodd" fill="black"></path></svg>