<svg xmlns="http://www.w3.org/2000/svg" width="16" height="16" viewBox="0 0 16 16"><path d="M1.885 2.037 C 1.618 2.136,1.441 2.337,1.386 2.603 C 1.348 2.788,1.388 2.993,1.494 3.151 C 1.536 3.215,2.646 4.341,3.959 5.653 L 6.346 8.040 3.911 10.480 C 2.224 12.169,1.460 12.953,1.426 13.027 C 1.356 13.177,1.344 13.431,1.398 13.594 C 1.495 13.887,1.773 14.090,2.080 14.092 C 2.442 14.095,2.225 14.289,5.261 11.257 C 8.291 8.232,8.160 8.377,8.160 8.040 C 8.160 7.704,8.288 7.846,5.288 4.849 C 3.330 2.894,2.540 2.122,2.453 2.079 C 2.303 2.004,2.029 1.983,1.885 2.037 M8.555 11.530 C 8.125 11.647,7.895 12.098,8.054 12.512 C 8.145 12.751,8.324 12.908,8.578 12.973 C 8.721 13.010,9.082 13.014,11.577 13.007 L 14.413 13.000 14.565 12.926 C 15.137 12.645,15.142 11.880,14.573 11.578 L 14.440 11.507 11.560 11.501 C 9.293 11.497,8.653 11.503,8.555 11.530 " stroke="none" fill-rule="evenodd" fill="black"></path></svg>