<svg xmlns="http://www.w3.org/2000/svg" width="24" height="24" viewBox="0 0 24 24"><path d="M11.106 5.823 C 9.709 6.040,8.376 6.767,7.493 7.794 C 6.779 8.623,6.284 9.640,6.099 10.660 L 6.034 11.020 3.367 11.008 C 1.512 10.999,0.654 11.009,0.549 11.040 C 0.360 11.095,0.125 11.299,0.054 11.468 C -0.120 11.885,0.143 12.371,0.601 12.477 C 0.819 12.527,5.671 12.534,5.884 12.485 L 6.028 12.451 6.115 12.892 C 6.356 14.111,6.876 15.078,7.779 15.983 C 8.679 16.885,9.694 17.421,10.960 17.663 C 11.477 17.761,12.518 17.763,13.020 17.666 C 14.314 17.416,15.319 16.888,16.221 15.983 C 17.124 15.078,17.644 14.111,17.885 12.892 L 17.972 12.451 18.116 12.485 C 18.338 12.536,23.156 12.529,23.400 12.476 C 23.952 12.358,24.184 11.688,23.815 11.279 C 23.550 10.986,23.661 10.996,20.653 11.009 L 17.966 11.020 17.901 10.660 C 17.716 9.640,17.221 8.623,16.507 7.794 C 15.804 6.976,14.656 6.253,13.629 5.979 C 12.817 5.763,11.868 5.704,11.106 5.823 M12.959 7.360 C 14.355 7.648,15.602 8.687,16.143 10.014 C 16.415 10.681,16.454 10.896,16.455 11.740 C 16.456 12.438,16.448 12.532,16.351 12.888 C 15.886 14.600,14.495 15.878,12.765 16.181 C 12.336 16.256,11.665 16.256,11.233 16.181 C 9.509 15.880,8.130 14.616,7.651 12.895 C 7.549 12.530,7.541 12.444,7.541 11.760 C 7.541 11.110,7.552 10.976,7.635 10.660 C 8.121 8.810,9.635 7.492,11.517 7.281 C 11.908 7.237,12.527 7.271,12.959 7.360 " stroke="none" fill-rule="evenodd" fill="black"></path></svg>