<svg xmlns="http://www.w3.org/2000/svg" width="24" height="24" viewBox="0 0 24 24"><path d="M1.340 1.056 C 0.695 1.217,0.176 1.747,0.039 2.387 C 0.012 2.515,0.002 4.276,0.009 7.620 L 0.020 12.660 0.113 12.878 C 0.307 13.337,0.669 13.698,1.120 13.885 C 1.319 13.968,1.417 13.978,2.167 13.992 L 2.995 14.007 3.007 14.953 C 3.020 15.882,3.022 15.904,3.126 16.127 C 3.275 16.445,3.521 16.696,3.834 16.850 C 4.073 16.968,4.133 16.980,4.459 16.980 C 5.076 16.980,5.074 16.982,6.680 15.379 L 8.060 14.002 11.360 13.991 L 14.660 13.980 14.880 13.887 C 15.335 13.695,15.693 13.336,15.887 12.878 L 15.980 12.660 15.991 7.620 C 15.998 4.276,15.988 2.515,15.961 2.387 C 15.821 1.731,15.271 1.186,14.608 1.045 C 14.289 0.977,1.615 0.988,1.340 1.056 M14.432 2.568 C 14.469 2.605,14.480 3.755,14.480 7.503 C 14.480 12.000,14.475 12.395,14.414 12.445 C 14.359 12.490,13.745 12.504,10.924 12.520 C 8.148 12.536,7.481 12.550,7.400 12.594 C 7.345 12.624,6.676 13.271,5.913 14.031 L 4.526 15.414 4.513 14.237 C 4.503 13.334,4.487 13.037,4.445 12.960 C 4.375 12.833,4.203 12.647,4.100 12.587 C 4.046 12.555,3.630 12.533,2.836 12.520 C 1.914 12.504,1.637 12.488,1.586 12.445 C 1.525 12.395,1.520 11.997,1.520 7.503 C 1.520 3.755,1.531 2.605,1.568 2.568 C 1.638 2.498,14.362 2.498,14.432 2.568 M18.460 7.075 C 17.795 7.376,17.890 8.324,18.600 8.476 C 18.730 8.504,19.448 8.520,20.594 8.520 C 21.933 8.520,22.396 8.532,22.432 8.568 C 22.469 8.605,22.480 9.755,22.480 13.503 C 22.480 17.997,22.475 18.395,22.414 18.445 C 22.363 18.488,22.086 18.504,21.164 18.520 C 20.370 18.533,19.954 18.555,19.900 18.587 C 19.797 18.647,19.625 18.833,19.555 18.960 C 19.513 19.037,19.497 19.334,19.487 20.237 L 19.474 21.414 18.087 20.031 C 17.324 19.270,16.642 18.619,16.572 18.584 C 16.458 18.527,16.123 18.520,13.592 18.519 C 11.376 18.519,10.718 18.508,10.640 18.468 L 10.540 18.418 10.519 17.519 C 10.495 16.530,10.472 16.422,10.246 16.232 C 9.887 15.929,9.385 16.001,9.116 16.394 C 9.020 16.534,9.020 16.540,9.020 17.597 C 9.020 18.618,9.024 18.669,9.113 18.878 C 9.307 19.335,9.665 19.694,10.120 19.887 L 10.340 19.980 13.140 19.991 L 15.940 20.002 17.320 21.379 C 18.926 22.982,18.924 22.980,19.541 22.980 C 19.867 22.980,19.927 22.968,20.166 22.850 C 20.479 22.696,20.725 22.445,20.874 22.127 C 20.978 21.904,20.980 21.882,20.993 20.953 L 21.005 20.007 21.833 19.992 C 22.583 19.978,22.681 19.968,22.880 19.885 C 23.331 19.698,23.693 19.337,23.887 18.878 L 23.980 18.660 23.991 13.620 C 23.998 10.276,23.988 8.515,23.961 8.387 C 23.821 7.731,23.271 7.186,22.608 7.045 C 22.468 7.015,21.758 7.000,20.508 7.001 C 18.768 7.002,18.607 7.007,18.460 7.075 " stroke="none" fill-rule="evenodd" fill="black"></path></svg>