<svg xmlns="http://www.w3.org/2000/svg" width="16" height="16" viewBox="0 0 16 16"><path d="M1.324 1.056 C 0.990 1.136,0.632 1.363,0.400 1.642 C 0.340 1.714,0.243 1.869,0.185 1.987 C -0.009 2.377,-0.002 2.236,0.006 5.581 L 0.013 8.573 0.087 8.790 C 0.329 9.505,0.941 9.957,1.713 9.993 L 2.000 10.007 2.000 10.864 C 2.000 11.545,2.008 11.755,2.041 11.881 C 2.169 12.385,2.545 12.781,3.040 12.936 C 3.299 13.017,3.636 13.012,3.902 12.922 C 4.015 12.884,4.158 12.822,4.220 12.784 C 4.283 12.745,4.945 12.104,5.693 11.358 L 7.053 10.001 8.813 9.994 L 10.573 9.987 10.790 9.913 C 11.036 9.830,11.347 9.636,11.511 9.463 C 11.678 9.287,11.832 9.029,11.914 8.789 L 11.987 8.573 11.994 5.581 C 12.002 2.237,12.009 2.378,11.815 1.987 C 11.582 1.515,11.156 1.170,10.664 1.054 C 10.415 0.996,1.566 0.997,1.324 1.056 M10.413 2.570 C 10.448 2.605,10.484 2.674,10.493 2.724 C 10.501 2.773,10.505 4.058,10.501 5.579 L 10.493 8.345 10.419 8.419 L 10.345 8.493 8.433 8.507 L 6.520 8.520 6.400 8.592 C 6.334 8.631,5.662 9.282,4.907 10.038 C 4.151 10.795,3.524 11.413,3.513 11.413 C 3.502 11.413,3.493 10.888,3.493 10.247 C 3.492 9.132,3.490 9.075,3.438 8.960 C 3.372 8.814,3.223 8.655,3.080 8.578 C 2.981 8.525,2.925 8.519,2.314 8.507 L 1.654 8.493 1.581 8.419 L 1.507 8.345 1.500 5.539 C 1.494 3.466,1.501 2.714,1.523 2.659 C 1.591 2.495,1.261 2.507,6.007 2.507 L 10.349 2.507 10.413 2.570 M13.420 3.082 C 12.952 3.315,12.860 3.940,13.241 4.292 C 13.426 4.462,13.507 4.485,13.969 4.504 C 14.355 4.519,14.381 4.523,14.428 4.582 C 14.456 4.616,14.485 4.682,14.494 4.729 C 14.502 4.775,14.505 6.058,14.501 7.579 L 14.493 10.345 14.419 10.419 L 14.346 10.493 13.686 10.507 C 13.075 10.519,13.019 10.525,12.920 10.578 C 12.777 10.655,12.628 10.814,12.562 10.960 C 12.510 11.075,12.508 11.132,12.507 12.247 C 12.507 12.888,12.498 13.413,12.487 13.413 C 12.477 13.413,11.940 12.887,11.294 12.243 C 10.195 11.148,10.111 11.070,9.976 11.027 C 9.806 10.971,9.550 10.983,9.417 11.051 C 9.284 11.120,9.122 11.278,9.061 11.397 C 8.983 11.550,8.969 11.797,9.027 11.976 C 9.070 12.111,9.151 12.199,10.343 13.395 C 11.042 14.096,11.675 14.710,11.750 14.760 C 12.180 15.047,12.762 15.070,13.240 14.818 C 13.457 14.703,13.725 14.430,13.833 14.213 C 13.989 13.899,14.000 13.812,14.000 12.864 L 14.000 12.007 14.287 11.993 C 15.061 11.957,15.670 11.507,15.914 10.789 L 15.987 10.573 15.994 7.581 C 16.002 4.237,16.009 4.378,15.815 3.987 C 15.582 3.515,15.156 3.170,14.664 3.054 C 14.546 3.027,14.348 3.014,14.025 3.014 C 13.576 3.013,13.552 3.016,13.420 3.082 " stroke="none" fill-rule="evenodd" fill="black"></path></svg>