<svg xmlns="http://www.w3.org/2000/svg" width="16" height="16" viewBox="0 0 16 16"><path d="M2.387 1.041 C 1.891 1.143,1.422 1.504,1.203 1.950 C 0.983 2.398,1.000 2.027,1.000 6.507 L 1.000 10.493 1.061 10.706 C 1.208 11.212,1.517 11.582,1.987 11.815 C 2.314 11.978,2.465 11.999,3.287 12.000 L 4.000 12.000 4.000 12.861 C 4.000 13.544,4.008 13.755,4.041 13.881 C 4.169 14.385,4.545 14.781,5.040 14.936 C 5.419 15.055,5.919 14.982,6.250 14.760 C 6.325 14.710,6.987 14.068,7.720 13.334 L 9.053 12.000 11.240 12.000 C 13.683 11.999,13.636 12.002,14.013 11.815 C 14.262 11.692,14.448 11.542,14.624 11.322 C 14.783 11.124,14.863 10.966,14.940 10.702 L 15.000 10.493 15.000 6.507 C 15.000 2.027,15.017 2.398,14.797 1.950 C 14.608 1.565,14.257 1.262,13.797 1.087 L 13.640 1.027 8.067 1.023 C 5.001 1.021,2.445 1.029,2.387 1.041 M13.415 2.585 L 13.493 2.663 13.493 6.503 L 13.493 10.344 13.429 10.419 L 13.365 10.493 10.942 10.507 L 8.520 10.520 8.400 10.592 C 8.334 10.631,7.662 11.282,6.907 12.038 C 6.151 12.795,5.524 13.413,5.513 13.413 C 5.502 13.413,5.493 12.888,5.493 12.247 C 5.492 11.132,5.490 11.075,5.438 10.960 C 5.372 10.814,5.224 10.655,5.080 10.578 C 4.976 10.522,4.939 10.520,3.804 10.507 L 2.635 10.493 2.571 10.419 L 2.507 10.344 2.507 6.503 L 2.507 2.663 2.585 2.585 L 2.663 2.507 8.000 2.507 L 13.337 2.507 13.415 2.585 " stroke="none" fill-rule="evenodd" fill="black"></path></svg>