<svg xmlns="http://www.w3.org/2000/svg" width="24" height="24" viewBox="0 0 24 24"><path d="M2.691 2.594 C 2.068 2.810,1.629 3.338,1.522 4.000 C 1.465 4.358,1.465 16.639,1.522 17.000 C 1.645 17.771,2.229 18.355,3.000 18.478 C 3.143 18.501,3.651 18.520,4.130 18.520 L 5.000 18.520 5.000 19.876 C 5.000 21.092,5.008 21.258,5.075 21.475 C 5.324 22.274,6.186 22.693,6.980 22.399 C 7.208 22.315,7.317 22.213,9.121 20.415 L 11.022 18.520 15.881 18.520 C 19.039 18.520,20.831 18.505,21.000 18.478 C 21.771 18.355,22.355 17.771,22.478 17.000 C 22.535 16.645,22.535 4.361,22.479 4.000 C 22.389 3.432,22.021 2.934,21.501 2.677 L 21.222 2.540 12.061 2.531 C 3.319 2.523,2.890 2.526,2.691 2.594 M20.920 4.080 C 20.999 4.159,21.000 4.213,21.000 10.500 C 21.000 16.787,20.999 16.841,20.920 16.920 C 20.841 16.999,20.786 17.000,15.730 17.001 C 10.699 17.002,10.617 17.003,10.440 17.082 C 10.303 17.143,9.815 17.608,8.390 19.036 L 6.520 20.910 6.519 19.345 C 6.518 18.415,6.501 17.707,6.477 17.601 C 6.422 17.365,6.268 17.169,6.065 17.077 C 5.914 17.008,5.782 17.002,4.530 17.001 C 3.214 17.000,3.157 16.997,3.080 16.920 C 3.001 16.841,3.000 16.787,3.000 10.500 C 3.000 4.213,3.001 4.159,3.080 4.080 C 3.160 4.000,3.213 4.000,12.000 4.000 C 20.787 4.000,20.840 4.000,20.920 4.080 " stroke="none" fill-rule="evenodd" fill="black"></path></svg>