<svg xmlns="http://www.w3.org/2000/svg" width="24" height="24" viewBox="0 0 24 24"><path d="M3.247 3.926 C 2.930 4.083,2.769 4.476,2.880 4.825 C 2.919 4.951,3.581 5.634,6.434 8.490 L 9.939 12.000 6.434 15.510 C 3.581 18.366,2.919 19.049,2.880 19.175 C 2.682 19.799,3.311 20.359,3.900 20.083 C 4.010 20.032,5.247 18.819,7.867 16.194 C 11.817 12.236,11.760 12.298,11.760 12.000 C 11.760 11.702,11.817 11.764,7.867 7.806 C 5.247 5.181,4.010 3.968,3.900 3.917 C 3.688 3.818,3.459 3.821,3.247 3.926 M10.940 19.567 C 10.827 19.629,10.641 19.806,10.590 19.899 C 10.395 20.260,10.561 20.753,10.935 20.923 C 11.093 20.995,11.300 20.998,16.000 20.998 C 20.700 20.998,20.907 20.995,21.065 20.923 C 21.439 20.753,21.605 20.260,21.410 19.899 C 21.344 19.778,21.153 19.610,21.027 19.563 C 20.866 19.502,11.051 19.505,10.940 19.567 " stroke="none" fill-rule="evenodd" fill="black"></path></svg>