<svg xmlns="http://www.w3.org/2000/svg" width="24" height="24" viewBox="0 0 24 24"><path d="M13.633 0.477 C 13.508 0.517,13.292 0.613,13.153 0.690 C 12.444 1.082,1.512 7.549,1.346 7.674 C 0.932 7.987,0.610 8.561,0.519 9.152 C 0.491 9.328,0.481 10.787,0.489 13.400 C 0.503 17.811,0.484 17.493,0.765 18.051 C 1.003 18.522,1.167 18.648,4.775 21.142 C 6.642 22.433,8.246 23.523,8.339 23.564 C 8.837 23.784,9.459 23.811,9.980 23.635 C 10.177 23.568,12.083 22.469,16.419 19.920 C 22.054 16.607,22.600 16.278,22.843 16.037 C 23.027 15.855,23.153 15.683,23.255 15.477 C 23.531 14.917,23.523 15.053,23.511 10.547 L 23.500 6.500 23.408 6.229 C 23.285 5.866,22.952 5.384,22.679 5.175 C 22.442 4.992,15.586 0.771,15.264 0.608 C 15.156 0.554,14.976 0.485,14.864 0.455 C 14.567 0.376,13.911 0.388,13.633 0.477 M17.881 3.956 C 19.717 5.084,21.232 6.019,21.247 6.033 C 21.281 6.066,9.653 12.871,9.464 12.929 C 9.133 13.031,9.191 13.065,5.840 10.787 C 4.117 9.616,2.708 8.641,2.709 8.620 C 2.709 8.582,13.569 2.156,13.940 1.974 C 14.092 1.900,14.188 1.880,14.341 1.891 C 14.526 1.904,14.800 2.064,17.881 3.956 M21.991 11.057 L 21.980 14.713 21.860 14.881 C 21.761 15.020,21.549 15.162,20.630 15.701 L 19.520 16.354 19.520 12.587 L 19.520 8.820 20.730 8.111 C 21.396 7.722,21.954 7.402,21.971 7.401 C 21.987 7.401,21.996 9.045,21.991 11.057 M17.950 17.263 C 17.923 17.289,17.193 17.725,16.330 18.232 L 14.760 19.154 14.770 15.373 L 14.780 11.593 16.380 10.658 L 17.980 9.723 17.990 13.470 C 17.998 16.435,17.990 17.226,17.950 17.263 M5.146 12.128 C 6.818 13.265,8.261 14.225,8.353 14.262 L 8.520 14.329 8.520 18.104 C 8.520 20.181,8.511 21.880,8.501 21.880 C 8.470 21.880,2.350 17.640,2.245 17.545 C 2.192 17.498,2.116 17.388,2.076 17.300 C 2.006 17.148,2.002 16.955,2.001 13.568 C 2.000 10.616,2.009 10.002,2.053 10.028 C 2.082 10.046,3.474 10.990,5.146 12.128 M13.230 16.289 L 13.220 20.059 11.740 20.931 C 10.926 21.411,10.210 21.831,10.150 21.863 L 10.040 21.922 10.040 18.124 L 10.040 14.326 10.250 14.226 C 10.365 14.171,11.072 13.766,11.820 13.326 C 12.568 12.885,13.194 12.524,13.210 12.522 C 13.227 12.521,13.236 14.216,13.230 16.289 " stroke="none" fill-rule="evenodd" fill="black"></path></svg>