<svg xmlns="http://www.w3.org/2000/svg" width="16" height="16" viewBox="0 0 16 16"><path d="M9.267 0.017 C 9.117 0.040,8.896 0.111,8.761 0.179 C 8.458 0.333,0.802 4.814,0.667 4.917 C 0.370 5.144,0.153 5.484,0.053 5.878 C 0.002 6.082,0.000 6.174,-0.000 8.813 C -0.000 11.425,0.002 11.547,0.052 11.741 C 0.153 12.135,0.355 12.457,0.648 12.688 C 0.739 12.760,1.911 13.459,3.253 14.242 C 5.093 15.316,5.749 15.685,5.920 15.746 C 6.125 15.818,6.178 15.825,6.480 15.826 C 6.785 15.826,6.832 15.819,7.040 15.744 C 7.210 15.683,8.262 15.082,11.213 13.361 C 13.384 12.095,15.214 11.020,15.280 10.972 C 15.565 10.763,15.795 10.445,15.914 10.095 L 15.987 9.880 15.994 7.128 C 16.002 4.090,16.006 4.178,15.835 3.806 C 15.727 3.573,15.564 3.357,15.375 3.200 C 15.245 3.093,10.607 0.342,10.280 0.179 C 10.207 0.143,10.081 0.093,10.000 0.069 C 9.853 0.024,9.416 -0.006,9.267 0.017 M11.699 2.742 L 13.762 3.956 13.688 4.002 C 13.647 4.027,12.027 4.967,10.089 6.090 C 7.403 7.647,6.543 8.133,6.478 8.133 C 6.413 8.133,5.885 7.839,4.315 6.929 C 3.173 6.266,2.248 5.715,2.259 5.704 C 2.294 5.671,9.340 1.568,9.427 1.531 C 9.471 1.512,9.536 1.504,9.571 1.512 C 9.607 1.521,10.564 2.074,11.699 2.742 M14.507 7.429 C 14.507 9.297,14.501 9.590,14.466 9.664 C 14.426 9.749,14.409 9.760,13.340 10.382 L 13.253 10.432 13.254 8.209 L 13.254 5.987 13.860 5.634 C 14.194 5.440,14.476 5.281,14.487 5.281 C 14.498 5.280,14.507 6.247,14.507 7.429 M11.753 9.096 L 11.747 11.312 11.040 11.725 C 10.651 11.952,10.312 12.149,10.287 12.163 C 10.242 12.187,10.240 12.078,10.247 9.958 L 10.253 7.728 10.973 7.307 C 11.369 7.075,11.708 6.884,11.727 6.883 C 11.753 6.881,11.759 7.331,11.753 9.096 M3.636 8.267 L 5.731 9.480 5.732 11.714 L 5.733 13.948 5.660 13.909 C 5.620 13.887,4.687 13.343,3.587 12.700 C 1.824 11.670,1.581 11.520,1.540 11.439 C 1.497 11.353,1.493 11.190,1.493 9.191 C 1.493 7.936,1.503 7.039,1.517 7.044 C 1.530 7.049,2.484 7.599,3.636 8.267 M8.720 10.847 L 8.719 13.080 8.010 13.493 C 7.619 13.721,7.283 13.911,7.263 13.915 C 7.232 13.923,7.227 13.571,7.227 11.702 L 7.228 9.480 7.967 9.049 C 8.374 8.812,8.710 8.617,8.713 8.616 C 8.717 8.614,8.720 9.618,8.720 10.847 " stroke="none" fill-rule="evenodd" fill="black"></path></svg>