<svg xmlns="http://www.w3.org/2000/svg" width="24" height="24" viewBox="0 0 24 24"><path d="M8.402 2.044 C 7.710 2.179,7.136 2.819,7.041 3.560 C 6.990 3.961,6.990 15.039,7.041 15.440 C 7.113 16.006,7.489 16.559,7.964 16.802 C 8.366 17.007,8.135 17.000,14.518 17.000 C 19.352 16.999,20.497 16.989,20.660 16.946 C 21.306 16.773,21.774 16.307,21.944 15.667 C 21.990 15.496,21.999 14.431,21.999 9.500 C 21.998 5.625,21.984 3.479,21.958 3.364 C 21.809 2.719,21.261 2.184,20.608 2.045 C 20.350 1.990,8.681 1.989,8.402 2.044 M20.432 3.568 C 20.469 3.605,20.480 4.973,20.480 9.480 C 20.480 14.482,20.472 15.356,20.423 15.422 C 20.367 15.499,20.261 15.500,14.520 15.500 L 8.673 15.500 8.596 15.406 C 8.522 15.314,8.520 15.162,8.520 9.504 C 8.520 4.314,8.527 3.688,8.582 3.609 L 8.645 3.520 14.514 3.520 C 19.026 3.520,20.395 3.531,20.432 3.568 M3.348 9.043 C 2.920 9.146,2.521 9.431,2.278 9.807 C 1.979 10.270,1.995 9.941,2.008 15.600 L 2.020 20.660 2.113 20.878 C 2.307 21.336,2.665 21.695,3.120 21.887 L 3.340 21.980 8.500 21.980 L 13.660 21.980 13.880 21.887 C 14.335 21.694,14.695 21.333,14.886 20.878 C 14.972 20.674,14.979 20.595,14.992 19.629 C 15.006 18.634,15.003 18.591,14.918 18.416 C 14.693 17.951,14.050 17.862,13.693 18.246 C 13.525 18.426,13.505 18.545,13.482 19.499 L 13.460 20.418 13.360 20.469 C 13.207 20.546,3.681 20.524,3.586 20.445 C 3.525 20.395,3.520 20.000,3.520 15.503 C 3.520 11.755,3.531 10.605,3.568 10.568 C 3.602 10.534,3.849 10.520,4.418 10.519 C 4.859 10.518,5.301 10.499,5.399 10.477 C 5.786 10.388,6.031 10.049,5.986 9.668 C 5.958 9.435,5.847 9.255,5.645 9.118 C 5.502 9.021,5.489 9.020,4.500 9.013 C 3.950 9.009,3.432 9.023,3.348 9.043 " stroke="none" fill-rule="evenodd" fill="black"></path></svg>