<svg xmlns="http://www.w3.org/2000/svg" width="16" height="16" viewBox="0 0 16 16"><path d="M6.436 0.029 C 6.245 0.061,6.038 0.143,5.847 0.260 C 5.647 0.384,5.536 0.482,5.377 0.677 C 5.221 0.868,5.137 1.033,5.060 1.298 L 5.000 1.507 5.000 5.493 C 5.000 9.975,4.983 9.602,5.204 10.052 C 5.358 10.367,5.633 10.642,5.948 10.796 C 6.398 11.017,6.025 11.000,10.507 11.000 L 14.493 11.000 14.702 10.940 C 14.966 10.863,15.124 10.783,15.322 10.624 C 15.542 10.448,15.692 10.262,15.815 10.013 C 16.012 9.617,16.002 9.873,15.994 5.420 L 15.987 1.427 15.912 1.208 C 15.734 0.682,15.317 0.266,14.789 0.086 L 14.573 0.013 10.573 0.010 C 8.373 0.007,6.511 0.016,6.436 0.029 M14.419 1.581 L 14.493 1.655 14.501 5.421 C 14.505 7.492,14.501 9.227,14.493 9.276 C 14.484 9.326,14.448 9.395,14.413 9.430 L 14.349 9.493 10.497 9.493 L 6.645 9.493 6.576 9.411 L 6.507 9.329 6.507 5.503 C 6.507 2.940,6.516 1.660,6.534 1.625 C 6.607 1.489,6.415 1.495,10.526 1.501 L 14.345 1.507 14.419 1.581 M1.324 5.056 C 0.842 5.172,0.415 5.522,0.185 5.987 C -0.009 6.378,0.001 6.130,0.000 10.509 C 0.000 14.353,0.001 14.450,0.053 14.656 C 0.139 14.996,0.274 15.235,0.519 15.481 C 0.765 15.726,1.004 15.861,1.344 15.947 C 1.550 15.999,1.647 16.000,5.491 16.000 C 9.870 15.999,9.622 16.009,10.013 15.815 C 10.473 15.588,10.791 15.210,10.936 14.716 C 10.989 14.537,10.995 14.442,11.006 13.638 C 11.020 12.667,11.004 12.521,10.863 12.324 C 10.498 11.816,9.711 11.944,9.534 12.539 C 9.501 12.649,9.493 12.840,9.493 13.510 L 9.493 14.344 9.429 14.419 L 9.365 14.493 5.510 14.493 L 1.655 14.493 1.581 14.419 L 1.507 14.345 1.500 10.539 C 1.494 7.715,1.501 6.714,1.523 6.659 C 1.586 6.508,1.592 6.507,2.494 6.507 C 3.160 6.507,3.351 6.499,3.461 6.466 C 3.861 6.347,4.090 5.912,3.960 5.519 C 3.901 5.341,3.736 5.158,3.560 5.076 C 3.428 5.014,3.420 5.014,2.453 5.016 C 1.710 5.017,1.443 5.027,1.324 5.056 " stroke="none" fill-rule="evenodd" fill="black"></path></svg>