<svg xmlns="http://www.w3.org/2000/svg" width="16" height="16" viewBox="0 0 16 16"><path d="M5.504 0.047 C 5.258 0.135,5.095 0.316,5.027 0.576 C 4.996 0.694,4.987 0.884,4.987 1.363 L 4.987 1.996 4.207 2.006 C 3.441 2.016,3.423 2.017,3.208 2.089 C 2.784 2.230,2.394 2.561,2.203 2.941 C 2.024 3.296,2.000 3.458,2.000 4.284 L 2.000 5.013 1.287 5.014 C 0.595 5.014,0.569 5.016,0.440 5.076 C 0.264 5.158,0.099 5.341,0.040 5.519 C -0.090 5.912,0.139 6.347,0.539 6.466 C 0.646 6.498,0.823 6.507,1.338 6.507 L 2.000 6.507 2.000 7.998 L 2.000 9.489 1.287 9.498 L 0.573 9.507 0.421 9.581 C 0.175 9.702,0.029 9.921,0.007 10.199 C -0.021 10.561,0.212 10.878,0.573 10.972 C 0.694 11.004,0.880 11.013,1.364 11.013 L 1.996 11.013 2.006 11.793 C 2.015 12.559,2.016 12.577,2.088 12.790 C 2.265 13.319,2.681 13.735,3.211 13.913 C 3.422 13.983,3.442 13.985,4.207 13.994 L 4.987 14.004 4.987 14.636 C 4.987 15.336,5.012 15.510,5.141 15.679 C 5.252 15.824,5.334 15.887,5.493 15.949 C 5.889 16.101,6.344 15.873,6.466 15.461 C 6.498 15.354,6.507 15.177,6.507 14.662 L 6.507 14.000 8.000 14.000 L 9.493 14.000 9.493 14.662 C 9.493 15.177,9.502 15.354,9.534 15.461 C 9.656 15.873,10.111 16.101,10.507 15.949 C 10.666 15.887,10.748 15.824,10.859 15.679 C 10.988 15.510,11.013 15.336,11.013 14.636 L 11.013 14.004 11.793 13.994 C 12.558 13.985,12.578 13.983,12.789 13.913 C 13.028 13.833,13.286 13.679,13.463 13.511 C 13.636 13.346,13.830 13.036,13.912 12.790 C 13.984 12.577,13.985 12.559,13.994 11.793 L 14.004 11.013 14.636 11.013 C 15.120 11.013,15.306 11.004,15.427 10.972 C 15.790 10.878,16.021 10.561,15.993 10.196 C 15.971 9.912,15.800 9.675,15.529 9.553 C 15.442 9.514,15.319 9.506,14.713 9.498 L 14.000 9.489 14.000 7.998 L 14.000 6.507 14.662 6.507 C 15.177 6.507,15.354 6.498,15.461 6.466 C 15.861 6.347,16.090 5.912,15.960 5.519 C 15.901 5.341,15.736 5.158,15.560 5.076 C 15.431 5.016,15.405 5.014,14.715 5.014 L 14.004 5.013 13.994 4.220 C 13.985 3.439,13.984 3.423,13.912 3.210 C 13.735 2.681,13.318 2.264,12.789 2.088 C 12.578 2.018,12.556 2.016,11.793 2.006 L 11.013 1.996 11.013 1.363 C 11.013 0.668,10.989 0.499,10.863 0.324 C 10.498 -0.184,9.711 -0.056,9.534 0.539 C 9.502 0.646,9.493 0.823,9.493 1.338 L 9.493 2.000 8.000 2.000 L 6.507 2.000 6.507 1.338 C 6.507 0.599,6.488 0.484,6.339 0.291 C 6.153 0.048,5.794 -0.057,5.504 0.047 M12.419 3.581 L 12.493 3.655 12.493 8.000 L 12.493 12.345 12.419 12.419 L 12.345 12.493 8.000 12.493 L 3.655 12.493 3.581 12.419 L 3.507 12.345 3.507 8.002 C 3.507 3.696,3.507 3.658,3.560 3.600 C 3.589 3.567,3.637 3.530,3.667 3.518 C 3.696 3.506,5.661 3.499,8.033 3.502 L 12.345 3.507 12.419 3.581 M5.420 5.082 C 5.261 5.161,5.136 5.293,5.056 5.465 C 5.000 5.586,5.000 5.603,5.000 8.000 L 5.000 10.413 5.074 10.565 C 5.159 10.736,5.288 10.862,5.465 10.944 C 5.586 11.000,5.603 11.000,8.000 11.000 L 10.413 11.000 10.565 10.926 C 10.736 10.841,10.862 10.712,10.944 10.535 C 11.000 10.414,11.000 10.397,11.000 8.000 C 11.000 5.603,11.000 5.586,10.944 5.465 C 10.864 5.293,10.739 5.161,10.580 5.082 L 10.443 5.013 8.000 5.013 L 5.557 5.013 5.420 5.082 M9.493 8.000 L 9.493 9.493 8.000 9.493 L 6.507 9.493 6.507 8.000 L 6.507 6.507 8.000 6.507 L 9.493 6.507 9.493 8.000 " stroke="none" fill-rule="evenodd" fill="black"></path></svg>