<svg xmlns="http://www.w3.org/2000/svg" width="24" height="24" viewBox="0 0 24 24"><path d="M8.460 1.076 C 8.257 1.170,8.089 1.348,8.039 1.523 C 8.018 1.598,8.000 2.185,8.000 2.830 L 8.000 4.000 6.802 4.000 C 6.067 4.000,5.522 4.017,5.392 4.045 C 4.739 4.184,4.191 4.719,4.042 5.364 C 4.020 5.462,4.002 6.087,4.001 6.770 L 4.000 8.000 2.810 8.001 C 1.474 8.002,1.418 8.012,1.172 8.292 C 0.818 8.695,1.058 9.360,1.600 9.476 C 1.720 9.502,2.257 9.520,2.902 9.520 L 4.000 9.520 4.000 12.020 L 4.000 14.520 2.778 14.520 C 1.642 14.520,1.546 14.525,1.402 14.599 C 1.112 14.747,0.967 15.041,1.018 15.380 C 1.053 15.616,1.296 15.898,1.515 15.959 C 1.597 15.982,2.165 16.000,2.828 16.000 L 3.995 16.000 4.008 17.330 C 4.021 18.615,4.024 18.667,4.114 18.880 C 4.305 19.334,4.665 19.694,5.122 19.887 C 5.332 19.976,5.386 19.979,6.670 19.992 L 8.000 20.005 8.000 21.172 C 8.000 21.835,8.018 22.403,8.041 22.485 C 8.102 22.704,8.384 22.947,8.620 22.982 C 9.026 23.043,9.392 22.795,9.476 22.400 C 9.502 22.280,9.520 21.743,9.520 21.098 L 9.520 20.000 12.000 20.000 L 14.480 20.000 14.480 21.098 C 14.480 21.743,14.498 22.280,14.524 22.400 C 14.608 22.795,14.974 23.043,15.380 22.982 C 15.616 22.947,15.898 22.704,15.959 22.485 C 15.982 22.403,16.000 21.835,16.000 21.172 L 16.000 20.005 17.330 19.992 C 18.614 19.979,18.668 19.976,18.878 19.887 C 19.335 19.694,19.695 19.334,19.886 18.880 C 19.976 18.667,19.979 18.615,19.992 17.330 L 20.005 16.000 21.172 16.000 C 21.835 16.000,22.403 15.982,22.485 15.959 C 22.704 15.898,22.947 15.616,22.982 15.380 C 23.033 15.041,22.888 14.747,22.598 14.599 C 22.454 14.525,22.358 14.520,21.222 14.520 L 20.000 14.520 20.000 12.020 L 20.000 9.520 21.098 9.520 C 21.743 9.520,22.280 9.502,22.400 9.476 C 22.942 9.360,23.182 8.695,22.828 8.292 C 22.582 8.012,22.526 8.002,21.190 8.001 L 20.000 8.000 19.999 6.770 C 19.998 6.087,19.980 5.462,19.958 5.364 C 19.809 4.719,19.261 4.184,18.608 4.045 C 18.478 4.017,17.933 4.000,17.198 4.000 L 16.000 4.000 16.000 2.830 C 16.000 2.186,15.982 1.596,15.960 1.518 C 15.913 1.348,15.715 1.147,15.511 1.062 C 15.092 0.887,14.630 1.139,14.523 1.601 C 14.500 1.700,14.482 2.273,14.481 2.890 L 14.480 4.000 12.000 4.000 L 9.520 4.000 9.519 2.890 C 9.518 2.273,9.500 1.700,9.477 1.601 C 9.367 1.126,8.887 0.878,8.460 1.076 M18.432 5.568 C 18.469 5.605,18.480 7.089,18.480 12.003 C 18.480 17.896,18.475 18.394,18.414 18.445 C 18.358 18.491,17.321 18.500,12.000 18.500 C 6.679 18.500,5.642 18.491,5.586 18.445 C 5.525 18.394,5.520 17.896,5.520 12.003 C 5.520 7.089,5.531 5.605,5.568 5.568 C 5.638 5.498,18.362 5.498,18.432 5.568 M8.460 8.076 C 8.257 8.170,8.089 8.348,8.039 8.523 C 7.986 8.708,7.986 15.292,8.039 15.478 C 8.091 15.659,8.342 15.911,8.519 15.960 C 8.710 16.013,15.290 16.013,15.481 15.960 C 15.658 15.911,15.909 15.659,15.961 15.478 C 16.014 15.292,16.014 8.710,15.960 8.518 C 15.939 8.440,15.862 8.320,15.790 8.250 C 15.519 7.988,15.707 8.000,11.991 8.001 C 8.795 8.002,8.612 8.006,8.460 8.076 M14.480 12.020 L 14.480 14.520 12.000 14.520 L 9.520 14.520 9.520 12.020 L 9.520 9.520 12.000 9.520 L 14.480 9.520 14.480 12.020 " stroke="none" fill-rule="evenodd" fill="black"></path></svg>