<svg xmlns="http://www.w3.org/2000/svg" width="16" height="16" viewBox="0 0 16 16"><path d="M1.442 2.029 C 0.801 2.156,0.295 2.596,0.087 3.210 L 0.013 3.427 0.006 7.933 C -0.001 12.364,0.000 12.442,0.053 12.653 C 0.138 12.995,0.273 13.234,0.519 13.481 C 0.766 13.727,1.005 13.862,1.347 13.947 C 1.558 14.000,1.639 14.000,8.067 13.994 L 14.573 13.987 14.789 13.914 C 15.029 13.832,15.287 13.678,15.463 13.511 C 15.636 13.347,15.830 13.036,15.913 12.790 L 15.987 12.573 15.987 8.000 L 15.987 3.427 15.914 3.211 C 15.734 2.683,15.318 2.266,14.792 2.088 L 14.573 2.013 8.067 2.009 C 4.437 2.007,1.508 2.016,1.442 2.029 M14.419 3.581 L 14.493 3.654 14.493 4.327 L 14.493 5.000 8.000 5.000 L 1.507 5.000 1.507 4.329 C 1.507 3.696,1.510 3.656,1.560 3.600 C 1.589 3.567,1.637 3.531,1.667 3.518 C 1.696 3.506,4.561 3.499,8.033 3.502 L 14.345 3.507 14.419 3.581 M14.500 9.426 L 14.493 12.345 14.419 12.419 L 14.345 12.493 8.000 12.493 L 1.655 12.493 1.581 12.419 L 1.507 12.345 1.500 9.426 L 1.493 6.507 8.000 6.507 L 14.507 6.507 14.500 9.426 M10.440 9.076 C 9.814 9.369,9.884 10.275,10.548 10.468 C 10.669 10.503,10.831 10.509,11.566 10.501 C 12.545 10.491,12.542 10.491,12.759 10.292 C 13.139 9.941,13.047 9.314,12.580 9.082 L 12.443 9.013 11.508 9.014 C 10.584 9.014,10.572 9.015,10.440 9.076 " stroke="none" fill-rule="evenodd" fill="black"></path></svg>