<svg xmlns="http://www.w3.org/2000/svg" width="24" height="24" viewBox="0 0 24 24"><path d="M1.340 3.056 C 0.695 3.217,0.175 3.748,0.039 4.387 C 0.012 4.516,0.002 7.078,0.009 12.120 L 0.020 19.660 0.113 19.880 C 0.305 20.335,0.664 20.693,1.122 20.887 L 1.340 20.980 12.000 20.980 L 22.660 20.980 22.878 20.887 C 23.336 20.693,23.695 20.335,23.887 19.880 L 23.980 19.660 23.991 12.120 C 23.998 7.078,23.988 4.516,23.961 4.387 C 23.821 3.732,23.271 3.186,22.608 3.045 C 22.287 2.977,1.616 2.988,1.340 3.056 M22.432 4.568 C 22.468 4.604,22.480 5.103,22.480 6.568 L 22.480 8.520 12.000 8.520 L 1.520 8.520 1.520 6.568 C 1.520 5.103,1.532 4.604,1.568 4.568 C 1.638 4.498,22.362 4.498,22.432 4.568 M22.470 14.709 L 22.460 19.418 22.360 19.468 C 22.213 19.543,1.787 19.543,1.640 19.468 L 1.540 19.418 1.530 14.709 L 1.520 10.000 12.000 10.000 L 22.480 10.000 22.470 14.709 M14.935 14.077 C 14.559 14.248,14.395 14.737,14.592 15.105 C 14.658 15.229,14.906 15.434,15.031 15.469 C 15.173 15.509,18.827 15.509,18.969 15.469 C 19.094 15.434,19.342 15.229,19.408 15.105 C 19.605 14.737,19.441 14.248,19.065 14.077 C 18.911 14.007,18.770 14.002,17.000 14.002 C 15.230 14.002,15.089 14.007,14.935 14.077 " stroke="none" fill-rule="evenodd" fill="black"></path></svg>