<svg xmlns="http://www.w3.org/2000/svg" width="16" height="16" viewBox="0 0 16 16"><path d="M11.425 1.079 C 11.379 1.125,11.360 1.174,11.360 1.245 C 11.360 1.342,11.393 1.379,12.166 2.153 L 12.973 2.960 11.037 4.900 C 9.709 6.231,9.086 6.873,9.052 6.947 C 8.983 7.097,8.970 7.351,9.025 7.514 C 9.120 7.802,9.413 8.012,9.720 8.013 C 10.062 8.014,9.947 8.113,12.094 5.970 L 14.041 4.027 14.839 4.826 C 15.374 5.361,15.662 5.630,15.710 5.641 C 15.805 5.662,15.941 5.591,15.974 5.504 C 15.990 5.463,16.000 4.598,16.000 3.307 L 16.000 1.177 15.931 1.095 L 15.862 1.013 13.676 1.013 L 11.491 1.013 11.425 1.079 M2.436 2.029 C 2.246 2.061,2.038 2.142,1.847 2.260 C 1.647 2.384,1.536 2.482,1.377 2.677 C 1.221 2.868,1.137 3.033,1.060 3.298 L 1.000 3.507 1.000 7.493 C 1.000 11.975,0.983 11.602,1.204 12.052 C 1.359 12.367,1.633 12.642,1.948 12.796 C 2.324 12.980,2.399 12.992,3.247 13.006 L 4.000 13.019 4.000 13.863 C 4.001 14.521,4.010 14.744,4.041 14.877 C 4.192 15.519,4.803 16.001,5.461 16.000 C 5.677 15.999,5.924 15.934,6.144 15.821 C 6.315 15.733,6.467 15.590,7.693 14.370 L 9.053 13.016 11.280 13.007 C 13.775 12.997,13.617 13.009,14.052 12.796 C 14.367 12.642,14.642 12.367,14.796 12.052 C 14.999 11.637,14.995 11.672,15.007 10.128 C 15.018 8.618,15.011 8.530,14.863 8.324 C 14.498 7.816,13.711 7.944,13.534 8.539 C 13.500 8.654,13.493 8.891,13.493 10.003 L 13.493 11.329 13.425 11.411 L 13.356 11.492 10.965 11.499 L 8.573 11.507 8.440 11.568 C 8.333 11.617,8.032 11.904,6.900 13.034 L 5.493 14.439 5.493 13.278 C 5.493 11.986,5.491 11.967,5.318 11.765 C 5.267 11.705,5.157 11.623,5.073 11.582 L 4.920 11.507 3.781 11.499 L 2.643 11.491 2.575 11.410 L 2.507 11.329 2.507 7.503 C 2.507 4.946,2.516 3.660,2.534 3.626 C 2.599 3.504,2.524 3.507,5.573 3.493 C 8.383 3.480,8.470 3.478,8.572 3.428 C 8.895 3.268,9.060 2.918,8.973 2.579 C 8.906 2.317,8.741 2.134,8.496 2.049 C 8.369 2.005,8.163 2.002,5.467 2.004 C 3.875 2.005,2.511 2.017,2.436 2.029 " stroke="none" fill-rule="evenodd" fill="black"></path></svg>