<svg xmlns="http://www.w3.org/2000/svg" width="24" height="24" viewBox="0 0 24 24"><path d="M16.940 1.567 C 16.827 1.629,16.641 1.806,16.590 1.899 C 16.395 2.260,16.561 2.753,16.935 2.923 C 17.089 2.993,17.231 2.998,19.020 2.999 L 20.940 3.000 17.771 6.170 C 15.547 8.396,14.584 9.384,14.541 9.489 C 14.423 9.776,14.474 10.044,14.692 10.275 C 14.921 10.516,15.213 10.582,15.511 10.459 C 15.616 10.416,16.604 9.453,18.830 7.229 L 22.000 4.060 22.001 5.980 C 22.002 7.769,22.007 7.911,22.077 8.065 C 22.248 8.441,22.737 8.605,23.105 8.408 C 23.229 8.342,23.434 8.094,23.469 7.969 C 23.509 7.827,23.509 2.173,23.469 2.031 C 23.427 1.879,23.207 1.639,23.052 1.574 C 22.882 1.503,17.068 1.496,16.940 1.567 M2.691 2.595 C 2.068 2.810,1.629 3.338,1.522 4.000 C 1.465 4.358,1.465 16.639,1.522 17.000 C 1.645 17.771,2.229 18.355,3.000 18.478 C 3.143 18.501,3.651 18.520,4.130 18.520 L 5.000 18.520 5.000 19.876 C 5.000 21.092,5.008 21.258,5.075 21.475 C 5.324 22.274,6.186 22.693,6.980 22.399 C 7.208 22.315,7.317 22.213,9.121 20.415 L 11.022 18.520 15.881 18.520 C 19.039 18.520,20.831 18.505,21.000 18.478 C 21.771 18.355,22.355 17.771,22.478 17.000 C 22.534 16.647,22.533 10.845,22.477 10.601 C 22.370 10.139,21.908 9.887,21.489 10.062 C 21.285 10.147,21.087 10.348,21.040 10.518 C 21.016 10.606,21.000 11.846,21.000 13.750 C 21.000 16.787,20.999 16.841,20.920 16.920 C 20.841 16.999,20.786 17.000,15.730 17.001 C 10.699 17.002,10.617 17.003,10.440 17.082 C 10.303 17.143,9.815 17.608,8.390 19.036 L 6.520 20.910 6.519 19.345 C 6.518 18.415,6.501 17.707,6.477 17.601 C 6.422 17.365,6.268 17.169,6.065 17.077 C 5.914 17.008,5.782 17.002,4.530 17.001 C 3.214 17.000,3.157 16.997,3.080 16.920 C 3.001 16.841,3.000 16.787,3.000 10.500 C 3.000 4.213,3.001 4.159,3.080 4.080 C 3.159 4.001,3.213 4.000,8.750 4.000 C 12.391 4.000,14.391 3.985,14.485 3.959 C 14.704 3.898,14.947 3.616,14.982 3.380 C 15.033 3.041,14.888 2.747,14.598 2.599 C 14.446 2.521,14.338 2.520,8.672 2.521 C 3.218 2.523,2.889 2.527,2.691 2.595 " stroke="none" fill-rule="evenodd" fill="black"></path></svg>