<svg xmlns="http://www.w3.org/2000/svg" width="16" height="16" viewBox="0 0 16 16"><path d="M7.280 0.017 C 4.209 0.173,1.782 1.235,1.170 2.692 C 0.987 3.128,1.000 2.725,1.000 8.000 L 1.000 12.760 1.059 12.983 C 1.229 13.619,1.666 14.167,2.384 14.643 C 3.418 15.329,4.852 15.761,6.733 15.951 C 7.196 15.998,8.804 15.998,9.267 15.951 C 11.148 15.761,12.582 15.329,13.616 14.643 C 14.334 14.167,14.771 13.619,14.941 12.983 L 15.000 12.760 15.000 8.000 C 15.000 2.725,15.013 3.128,14.830 2.692 C 14.263 1.344,12.172 0.337,9.373 0.066 C 8.960 0.026,7.687 -0.004,7.280 0.017 M8.640 1.520 C 9.789 1.579,10.839 1.770,11.680 2.073 C 12.768 2.464,13.494 3.033,13.493 3.492 C 13.492 3.978,12.746 4.560,11.630 4.945 C 10.461 5.348,9.265 5.514,7.733 5.486 C 6.434 5.462,5.498 5.317,4.500 4.985 C 3.716 4.725,3.173 4.432,2.820 4.079 C 2.409 3.668,2.405 3.337,2.807 2.934 C 3.560 2.181,5.319 1.624,7.268 1.523 C 7.886 1.491,8.062 1.491,8.640 1.520 M2.853 5.927 C 3.510 6.284,4.651 6.644,5.653 6.810 C 7.598 7.131,9.677 7.045,11.448 6.569 C 12.116 6.390,12.845 6.105,13.293 5.847 L 13.480 5.740 13.487 6.929 L 13.494 8.118 13.423 8.264 C 13.130 8.861,11.908 9.476,10.427 9.772 C 9.052 10.046,7.378 10.071,5.958 9.841 C 4.286 9.569,2.907 8.927,2.578 8.266 L 2.507 8.123 2.507 6.926 L 2.507 5.729 2.593 5.781 C 2.641 5.810,2.758 5.875,2.853 5.927 M3.720 10.806 C 4.566 11.115,5.439 11.309,6.533 11.432 C 7.124 11.499,8.876 11.499,9.467 11.432 C 10.938 11.267,12.069 10.962,13.060 10.463 L 13.493 10.245 13.493 11.437 L 13.493 12.630 13.427 12.762 C 13.136 13.347,11.990 13.940,10.573 14.238 C 9.677 14.426,9.020 14.491,8.000 14.491 C 6.980 14.491,6.323 14.426,5.427 14.238 C 4.014 13.941,2.864 13.347,2.573 12.763 L 2.507 12.630 2.507 11.438 L 2.507 10.246 2.940 10.463 C 3.178 10.582,3.529 10.737,3.720 10.806 " stroke="none" fill-rule="evenodd" fill="black"></path></svg>