<svg xmlns="http://www.w3.org/2000/svg" width="24" height="24" viewBox="0 0 24 24"><path d="M10.900 1.283 C 8.049 1.419,5.528 2.095,4.002 3.131 C 3.617 3.393,3.059 3.950,2.871 4.260 C 2.791 4.393,2.675 4.645,2.613 4.820 L 2.500 5.140 2.500 12.000 L 2.500 18.860 2.613 19.180 C 2.776 19.641,2.968 19.932,3.378 20.340 C 3.778 20.739,4.130 20.988,4.737 21.304 C 7.606 22.798,12.758 23.191,16.721 22.218 C 18.512 21.779,19.835 21.140,20.642 20.325 C 21.034 19.928,21.227 19.632,21.387 19.180 L 21.500 18.860 21.500 12.000 L 21.500 5.140 21.387 4.820 C 21.227 4.367,21.033 4.070,20.642 3.678 C 19.908 2.944,18.805 2.370,17.303 1.941 C 15.992 1.566,14.659 1.362,12.995 1.281 C 12.097 1.237,11.844 1.238,10.900 1.283 M14.100 2.857 C 16.973 3.177,19.187 4.022,19.847 5.051 C 20.006 5.298,20.027 5.604,19.904 5.854 C 19.472 6.725,17.600 7.591,15.317 7.978 C 14.080 8.187,13.646 8.218,12.000 8.218 C 10.771 8.218,10.339 8.204,9.860 8.147 C 6.953 7.800,4.811 6.975,4.152 5.947 C 4.040 5.773,4.020 5.705,4.020 5.500 C 4.020 5.295,4.040 5.227,4.152 5.053 C 4.666 4.251,6.156 3.538,8.194 3.117 C 8.908 2.969,9.531 2.890,10.800 2.784 C 11.244 2.747,13.573 2.798,14.100 2.857 M4.600 8.230 C 7.430 9.793,12.740 10.212,16.810 9.194 C 18.033 8.889,19.111 8.452,19.870 7.957 L 20.000 7.872 20.000 10.006 L 19.999 12.140 19.904 12.345 C 19.713 12.754,19.157 13.196,18.352 13.578 C 15.695 14.838,11.064 15.120,7.540 14.237 C 5.783 13.796,4.425 13.050,4.096 12.345 L 4.001 12.140 4.000 10.006 L 4.000 7.872 4.130 7.957 C 4.202 8.004,4.413 8.126,4.600 8.230 M4.309 14.567 C 5.505 15.303,7.377 15.854,9.603 16.127 C 10.259 16.207,10.523 16.217,12.000 16.217 C 13.477 16.217,13.741 16.207,14.397 16.127 C 16.623 15.854,18.495 15.303,19.691 14.567 C 19.840 14.475,19.971 14.400,19.982 14.400 C 19.993 14.400,19.997 15.367,19.991 16.550 C 19.979 18.987,20.001 18.817,19.635 19.218 C 18.959 19.957,17.264 20.648,15.317 20.978 C 14.080 21.187,13.646 21.218,12.000 21.218 C 10.771 21.218,10.339 21.204,9.860 21.147 C 6.953 20.800,4.811 19.975,4.152 18.947 L 4.020 18.742 4.009 16.571 C 4.002 15.377,4.007 14.400,4.018 14.400 C 4.029 14.400,4.160 14.475,4.309 14.567 " stroke="none" fill-rule="evenodd" fill="black"></path></svg>