<svg xmlns="http://www.w3.org/2000/svg" width="24" height="24" viewBox="0 0 24 24"><path d="M9.566 1.043 C 9.268 1.162,9.080 1.431,9.080 1.736 C 9.080 1.969,9.136 2.110,9.291 2.271 C 9.496 2.483,9.696 2.520,10.647 2.520 L 11.480 2.520 11.480 3.759 L 11.480 4.998 7.650 5.009 L 3.820 5.020 3.557 5.109 C 2.904 5.331,2.361 5.866,2.114 6.531 L 2.021 6.780 2.009 9.650 L 1.997 12.520 1.277 12.520 C 0.639 12.520,0.539 12.529,0.402 12.599 C 0.112 12.747,-0.033 13.041,0.018 13.380 C 0.053 13.616,0.296 13.898,0.515 13.959 C 0.595 13.981,0.961 14.000,1.329 14.000 L 1.997 14.000 2.009 17.110 L 2.021 20.220 2.114 20.469 C 2.362 21.134,2.896 21.661,3.552 21.888 L 3.820 21.980 12.000 21.980 L 20.180 21.980 20.448 21.888 C 21.104 21.661,21.638 21.134,21.886 20.469 L 21.979 20.220 21.991 17.110 L 22.003 14.000 22.671 14.000 C 23.039 14.000,23.405 13.981,23.485 13.959 C 23.704 13.898,23.947 13.616,23.982 13.380 C 24.033 13.041,23.888 12.747,23.598 12.599 C 23.461 12.529,23.361 12.520,22.723 12.520 L 22.003 12.520 21.991 9.650 L 21.979 6.780 21.886 6.531 C 21.639 5.866,21.096 5.331,20.443 5.109 L 20.180 5.020 16.590 5.009 L 13.000 4.998 13.000 3.329 C 13.000 2.357,12.983 1.601,12.960 1.518 C 12.939 1.440,12.862 1.320,12.790 1.250 C 12.537 1.005,12.501 1.000,11.011 1.003 C 10.265 1.004,9.618 1.022,9.566 1.043 M20.027 6.563 C 20.181 6.620,20.358 6.793,20.425 6.949 C 20.506 7.139,20.507 19.857,20.426 20.052 C 20.361 20.207,20.121 20.427,19.969 20.469 C 19.826 20.509,4.174 20.509,4.031 20.469 C 3.893 20.431,3.654 20.223,3.578 20.076 C 3.492 19.910,3.490 7.093,3.576 6.928 C 3.638 6.811,3.813 6.637,3.940 6.567 C 4.051 6.505,19.865 6.501,20.027 6.563 M8.460 11.076 C 8.257 11.170,8.089 11.348,8.039 11.523 C 7.986 11.708,7.988 15.294,8.041 15.485 C 8.102 15.704,8.384 15.947,8.620 15.982 C 9.026 16.043,9.392 15.795,9.476 15.400 C 9.534 15.132,9.534 11.850,9.477 11.601 C 9.367 11.126,8.887 10.878,8.460 11.076 M14.935 11.077 C 14.732 11.169,14.578 11.365,14.523 11.601 C 14.466 11.850,14.466 15.132,14.524 15.400 C 14.608 15.795,14.974 16.043,15.380 15.982 C 15.616 15.947,15.898 15.704,15.959 15.485 C 16.013 15.293,16.013 11.710,15.960 11.518 C 15.887 11.255,15.526 10.999,15.231 11.001 C 15.159 11.001,15.026 11.035,14.935 11.077 " stroke="none" fill-rule="evenodd" fill="black"></path></svg>