<svg xmlns="http://www.w3.org/2000/svg" width="16" height="16" viewBox="0 0 16 16"><path d="M6.062 0.026 C 5.816 0.084,5.606 0.294,5.530 0.556 C 5.426 0.914,5.643 1.332,5.995 1.452 C 6.092 1.485,6.252 1.493,6.805 1.493 L 7.493 1.493 7.493 2.492 L 7.493 3.491 5.460 3.500 C 3.227 3.511,3.281 3.508,2.880 3.678 C 2.325 3.914,1.867 4.384,1.655 4.932 C 1.508 5.315,1.493 5.481,1.493 6.801 L 1.493 7.996 1.020 8.005 C 0.553 8.013,0.545 8.014,0.404 8.092 C -0.034 8.335,-0.133 8.871,0.192 9.240 C 0.385 9.459,0.448 9.479,1.007 9.489 L 1.493 9.498 1.493 10.945 C 1.493 12.121,1.501 12.437,1.534 12.625 C 1.699 13.570,2.430 14.301,3.375 14.466 C 3.725 14.527,12.275 14.527,12.625 14.466 C 13.570 14.301,14.301 13.570,14.466 12.625 C 14.499 12.437,14.507 12.121,14.507 10.945 L 14.507 9.498 14.993 9.489 C 15.552 9.479,15.615 9.459,15.808 9.240 C 16.133 8.871,16.034 8.335,15.596 8.092 C 15.455 8.014,15.447 8.013,14.980 8.005 L 14.507 7.996 14.507 6.801 C 14.507 5.481,14.492 5.315,14.345 4.932 C 14.101 4.300,13.532 3.780,12.876 3.591 C 12.585 3.507,12.282 3.493,10.647 3.493 L 9.013 3.493 9.013 2.112 C 9.013 0.964,9.007 0.705,8.973 0.576 C 8.905 0.315,8.740 0.133,8.496 0.049 C 8.374 0.007,8.244 0.002,7.253 0.004 C 6.645 0.005,6.109 0.015,6.062 0.026 M12.580 5.082 C 12.736 5.159,12.864 5.292,12.936 5.452 C 12.983 5.555,12.986 5.713,12.986 9.001 L 12.987 12.443 12.918 12.580 C 12.839 12.739,12.707 12.864,12.535 12.944 L 12.413 13.000 8.000 13.000 L 3.587 13.000 3.465 12.944 C 3.293 12.864,3.161 12.739,3.082 12.580 L 3.013 12.443 3.013 9.000 L 3.013 5.557 3.082 5.420 C 3.159 5.264,3.292 5.136,3.452 5.064 C 3.556 5.017,3.741 5.014,8.001 5.014 L 12.443 5.013 12.580 5.082 M5.600 7.518 C 5.368 7.567,5.166 7.733,5.061 7.960 C 5.001 8.091,5.000 8.110,5.000 9.000 C 5.000 9.896,5.001 9.908,5.063 10.046 C 5.134 10.203,5.306 10.376,5.458 10.443 C 5.610 10.509,5.903 10.506,6.053 10.436 C 6.206 10.365,6.365 10.207,6.437 10.053 C 6.491 9.938,6.493 9.895,6.493 9.000 C 6.493 8.105,6.491 8.062,6.437 7.947 C 6.291 7.636,5.926 7.449,5.600 7.518 M10.081 7.522 C 9.939 7.551,9.748 7.676,9.646 7.808 C 9.502 7.995,9.490 8.096,9.499 9.058 C 9.506 9.884,9.510 9.940,9.563 10.053 C 9.635 10.207,9.794 10.365,9.947 10.436 C 10.097 10.506,10.390 10.509,10.542 10.443 C 10.694 10.376,10.866 10.203,10.937 10.046 C 10.999 9.908,11.000 9.896,11.000 9.000 C 11.000 8.110,10.999 8.091,10.939 7.960 C 10.785 7.627,10.438 7.449,10.081 7.522 " stroke="none" fill-rule="evenodd" fill="black"></path></svg>