<svg xmlns="http://www.w3.org/2000/svg" width="24" height="24" viewBox="0 0 24 24"><path d="M11.720 0.064 C 11.550 0.138,11.414 0.260,11.326 0.420 C 11.266 0.529,11.258 0.943,11.240 4.918 L 11.220 9.296 10.245 8.238 C 9.177 7.078,9.005 6.937,8.698 6.971 C 8.168 7.029,7.855 7.535,8.054 8.012 C 8.084 8.084,8.883 8.980,9.829 10.005 C 11.629 11.952,11.681 12.000,12.000 12.000 C 12.317 12.000,12.371 11.950,14.146 10.028 C 15.081 9.016,15.871 8.150,15.901 8.104 C 16.066 7.851,16.026 7.415,15.819 7.199 C 15.575 6.944,15.132 6.892,14.865 7.085 C 14.793 7.137,14.295 7.656,13.757 8.238 L 12.780 9.296 12.760 4.918 C 12.742 0.943,12.734 0.529,12.674 0.420 C 12.480 0.068,12.066 -0.086,11.720 0.064 M2.340 2.056 C 1.695 2.217,1.176 2.748,1.039 3.387 C 1.012 3.516,1.002 5.597,1.009 9.620 L 1.020 15.660 1.113 15.880 C 1.305 16.335,1.664 16.693,2.122 16.887 L 2.340 16.980 5.650 16.991 L 8.961 17.002 8.942 17.091 C 8.931 17.140,8.894 17.328,8.859 17.508 C 8.663 18.520,8.137 19.587,7.373 20.525 C 7.088 20.876,7.000 21.048,7.000 21.256 C 7.000 21.449,7.063 21.597,7.212 21.755 C 7.459 22.015,7.170 22.000,12.000 22.000 C 16.830 22.000,16.541 22.015,16.788 21.755 C 16.937 21.597,17.000 21.449,17.000 21.256 C 17.000 21.048,16.918 20.889,16.617 20.517 C 15.874 19.598,15.324 18.477,15.138 17.502 C 15.104 17.325,15.068 17.140,15.058 17.091 L 15.039 17.002 18.350 16.991 L 21.660 16.980 21.880 16.887 C 22.335 16.695,22.693 16.336,22.887 15.878 L 22.980 15.660 22.991 9.620 C 22.998 5.597,22.988 3.516,22.961 3.387 C 22.821 2.732,22.271 2.186,21.608 2.045 C 21.462 2.014,20.499 2.000,18.508 2.001 C 15.273 2.002,15.440 1.987,15.172 2.292 C 14.818 2.695,15.058 3.360,15.600 3.476 C 15.737 3.506,16.724 3.520,18.597 3.520 C 20.900 3.520,21.398 3.530,21.435 3.574 C 21.468 3.614,21.478 5.200,21.470 9.523 L 21.460 15.418 21.360 15.468 C 21.213 15.543,2.787 15.543,2.640 15.468 L 2.540 15.418 2.530 9.523 C 2.522 5.200,2.532 3.614,2.565 3.574 C 2.602 3.530,3.100 3.520,5.403 3.520 C 7.276 3.520,8.263 3.506,8.400 3.476 C 8.942 3.360,9.182 2.695,8.828 2.292 C 8.560 1.987,8.732 2.001,5.460 2.004 C 3.277 2.006,2.490 2.019,2.340 2.056 M13.587 17.379 C 13.717 18.278,14.098 19.369,14.556 20.153 C 14.646 20.308,14.720 20.453,14.720 20.477 C 14.720 20.507,13.914 20.520,12.000 20.520 C 10.086 20.520,9.280 20.507,9.280 20.477 C 9.280 20.453,9.354 20.308,9.444 20.153 C 9.903 19.368,10.336 18.108,10.423 17.308 C 10.438 17.172,10.458 17.046,10.468 17.030 C 10.477 17.013,11.172 17.004,12.010 17.010 L 13.536 17.020 13.587 17.379 " stroke="none" fill-rule="evenodd" fill="black"></path></svg>