<svg xmlns="http://www.w3.org/2000/svg" width="16" height="16" viewBox="0 0 16 16"><path d="M7.747 0.046 C 7.568 0.107,7.358 0.315,7.298 0.492 C 7.258 0.610,7.253 0.834,7.253 2.818 L 7.253 5.013 6.122 5.013 L 4.991 5.013 4.922 5.095 C 4.769 5.277,4.697 5.189,6.373 6.866 C 7.882 8.375,7.892 8.385,8.000 8.385 C 8.108 8.385,8.118 8.375,9.627 6.866 C 11.303 5.189,11.231 5.277,11.078 5.096 L 11.009 5.014 9.885 5.007 L 8.760 5.000 8.747 2.773 C 8.732 0.313,8.743 0.466,8.559 0.256 C 8.369 0.040,8.025 -0.050,7.747 0.046 M1.324 1.055 C 0.763 1.192,0.290 1.632,0.087 2.205 L 0.013 2.413 0.006 6.426 C -0.001 10.365,0.000 10.442,0.053 10.652 C 0.138 10.995,0.273 11.234,0.519 11.481 C 0.765 11.726,1.004 11.861,1.344 11.947 C 1.545 11.998,1.646 12.000,3.515 12.000 L 5.474 12.000 5.456 12.152 C 5.358 12.987,4.989 13.777,4.308 14.613 C 4.045 14.936,3.986 15.072,4.007 15.307 C 4.031 15.573,4.176 15.791,4.409 15.914 L 4.547 15.987 8.000 15.987 L 11.453 15.987 11.563 15.928 C 11.911 15.742,12.068 15.393,11.964 15.038 C 11.932 14.929,11.865 14.823,11.693 14.613 C 11.012 13.780,10.642 12.987,10.544 12.153 L 10.526 12.002 12.550 11.994 L 14.573 11.987 14.789 11.914 C 15.029 11.832,15.287 11.678,15.463 11.511 C 15.636 11.347,15.830 11.036,15.913 10.790 L 15.987 10.573 15.994 6.580 C 16.002 2.127,16.012 2.383,15.815 1.987 C 15.640 1.633,15.372 1.361,15.022 1.185 C 14.678 1.012,14.660 1.011,12.747 1.019 C 11.098 1.026,11.022 1.029,10.921 1.079 C 10.681 1.198,10.530 1.426,10.512 1.698 C 10.490 2.016,10.642 2.278,10.927 2.418 L 11.080 2.493 12.729 2.507 L 14.378 2.520 14.428 2.582 C 14.456 2.616,14.485 2.682,14.493 2.729 C 14.502 2.775,14.505 4.508,14.501 6.579 L 14.493 10.345 14.419 10.419 L 14.345 10.493 8.000 10.493 L 1.655 10.493 1.581 10.419 L 1.507 10.345 1.500 6.539 C 1.495 3.774,1.501 2.714,1.523 2.661 C 1.583 2.515,1.513 2.521,3.277 2.507 L 4.920 2.493 5.073 2.418 C 5.358 2.278,5.510 2.016,5.488 1.698 C 5.470 1.426,5.319 1.198,5.079 1.079 C 4.977 1.029,4.905 1.026,3.227 1.022 C 1.791 1.018,1.452 1.024,1.324 1.055 M9.026 12.127 C 9.129 12.970,9.324 13.633,9.653 14.260 L 9.783 14.507 8.000 14.507 L 6.217 14.507 6.347 14.260 C 6.676 13.633,6.871 12.970,6.974 12.127 L 6.990 12.000 8.000 12.000 L 9.010 12.000 9.026 12.127 " stroke="none" fill-rule="evenodd" fill="black"></path></svg>