<svg xmlns="http://www.w3.org/2000/svg" width="16" height="16" viewBox="0 0 16 16"><path d="M1.734 2.042 C 1.337 2.150,1.077 2.459,1.001 2.913 C 0.985 3.006,0.978 3.013,0.893 3.013 C 0.658 3.013,0.317 3.222,0.167 3.457 C -0.012 3.738,-0.001 3.390,0.006 8.561 L 0.013 13.240 0.088 13.400 C 0.186 13.610,0.391 13.816,0.597 13.911 L 0.760 13.987 8.000 13.987 L 15.240 13.987 15.403 13.911 C 15.609 13.816,15.814 13.610,15.912 13.400 L 15.987 13.240 15.994 8.561 C 16.000 4.348,15.996 3.868,15.958 3.735 C 15.870 3.428,15.641 3.179,15.346 3.069 C 15.199 3.014,15.180 3.013,11.107 3.013 L 7.016 3.013 6.999 2.913 C 6.947 2.606,6.813 2.368,6.600 2.208 C 6.327 2.002,6.484 2.014,4.053 2.008 C 2.203 2.004,1.858 2.009,1.734 2.042 M6.000 4.507 L 6.000 5.013 4.000 5.013 L 2.000 5.013 2.000 4.507 L 2.000 4.000 4.000 4.000 L 6.000 4.000 6.000 4.507 M11.087 5.054 C 12.499 5.283,13.640 6.391,13.931 7.815 C 14.104 8.665,13.929 9.620,13.463 10.362 C 12.609 11.723,10.938 12.324,9.400 11.823 C 8.176 11.424,7.252 10.337,7.049 9.057 C 6.982 8.631,7.010 8.026,7.117 7.613 C 7.458 6.295,8.541 5.301,9.907 5.052 C 10.168 5.005,10.789 5.005,11.087 5.054 M10.200 6.017 C 9.594 6.113,9.093 6.370,8.701 6.783 C 8.390 7.110,8.193 7.461,8.075 7.895 C 8.024 8.085,8.014 8.182,8.016 8.520 C 8.018 8.876,8.026 8.946,8.090 9.160 C 8.398 10.176,9.206 10.862,10.240 10.985 C 10.960 11.071,11.680 10.818,12.233 10.285 C 13.121 9.429,13.251 8.113,12.551 7.081 C 12.238 6.619,11.667 6.223,11.107 6.079 C 10.897 6.025,10.373 5.989,10.200 6.017 " stroke="none" fill-rule="evenodd" fill="black"></path></svg>