<svg xmlns="http://www.w3.org/2000/svg" width="16" height="16" viewBox="0 0 16 16"><path d="M1.324 1.056 C 0.990 1.136,0.632 1.363,0.400 1.642 C 0.250 1.822,0.087 2.161,0.039 2.394 C 0.004 2.562,0.000 3.119,0.006 6.580 L 0.013 10.573 0.087 10.790 C 0.267 11.320,0.680 11.733,1.211 11.914 L 1.427 11.987 3.450 11.994 L 5.474 12.002 5.456 12.153 C 5.358 12.987,4.988 13.780,4.307 14.613 C 4.135 14.823,4.068 14.929,4.036 15.038 C 3.935 15.382,4.090 15.746,4.410 15.915 L 4.547 15.987 8.000 15.987 L 11.453 15.987 11.563 15.928 C 11.911 15.742,12.068 15.393,11.964 15.038 C 11.932 14.929,11.865 14.823,11.693 14.613 C 11.012 13.780,10.642 12.987,10.544 12.153 L 10.526 12.002 12.550 11.994 L 14.573 11.987 14.789 11.914 C 15.029 11.832,15.287 11.678,15.463 11.511 C 15.636 11.347,15.830 11.036,15.913 10.790 L 15.987 10.573 15.994 6.580 C 16.002 2.127,16.012 2.383,15.815 1.987 C 15.639 1.630,15.348 1.340,15.003 1.175 C 14.642 1.003,15.138 1.014,7.987 1.016 C 2.464 1.018,1.456 1.023,1.324 1.056 M14.413 2.570 C 14.448 2.605,14.484 2.674,14.493 2.724 C 14.501 2.773,14.505 4.508,14.501 6.579 L 14.493 10.345 14.419 10.419 L 14.345 10.493 8.000 10.493 L 1.655 10.493 1.581 10.419 L 1.507 10.345 1.500 6.539 C 1.494 3.715,1.501 2.714,1.523 2.659 C 1.591 2.494,1.071 2.507,8.007 2.507 L 14.349 2.507 14.413 2.570 M9.026 12.127 C 9.129 12.970,9.324 13.633,9.653 14.260 L 9.783 14.507 8.000 14.507 L 6.217 14.507 6.347 14.260 C 6.676 13.633,6.871 12.970,6.974 12.127 L 6.990 12.000 8.000 12.000 L 9.010 12.000 9.026 12.127 " stroke="none" fill-rule="evenodd" fill="black"></path></svg>