<svg xmlns="http://www.w3.org/2000/svg" width="24" height="24" viewBox="0 0 24 24"><path d="M5.340 1.056 C 4.694 1.217,4.175 1.748,4.039 2.387 C 4.012 2.517,4.002 5.719,4.009 12.120 L 4.020 21.660 4.113 21.878 C 4.307 22.336,4.665 22.695,5.120 22.887 L 5.340 22.980 12.000 22.980 L 18.660 22.980 18.878 22.887 C 19.336 22.693,19.695 22.335,19.887 21.880 L 19.980 21.660 19.991 12.120 C 19.998 5.719,19.988 2.517,19.961 2.387 C 19.821 1.732,19.271 1.186,18.608 1.045 C 18.289 0.977,5.615 0.988,5.340 1.056 M18.432 2.568 C 18.469 2.605,18.480 4.755,18.480 12.003 C 18.480 20.686,18.475 21.394,18.414 21.445 C 18.358 21.491,17.321 21.500,12.000 21.500 C 6.679 21.500,5.642 21.491,5.586 21.445 C 5.525 21.394,5.520 20.686,5.520 12.003 C 5.520 4.755,5.531 2.605,5.568 2.568 C 5.638 2.498,18.362 2.498,18.432 2.568 M10.595 4.635 C 10.096 4.951,10.154 5.678,10.698 5.925 C 10.843 5.991,10.979 5.998,12.000 5.998 C 13.021 5.998,13.157 5.991,13.302 5.925 C 13.846 5.678,13.904 4.951,13.405 4.635 L 13.224 4.520 12.000 4.520 L 10.776 4.520 10.595 4.635 M11.617 17.577 C 11.271 17.727,11.001 18.133,11.001 18.500 C 11.001 18.760,11.139 19.057,11.348 19.245 C 11.845 19.693,12.616 19.522,12.906 18.900 C 13.135 18.408,12.887 17.789,12.374 17.575 C 12.208 17.505,11.778 17.506,11.617 17.577 " stroke="none" fill-rule="evenodd" fill="black"></path></svg>