<svg xmlns="http://www.w3.org/2000/svg" width="16" height="16" viewBox="0 0 16 16"><path d="M1.324 3.055 C 0.989 3.137,0.632 3.364,0.400 3.642 C 0.252 3.820,0.087 4.160,0.040 4.387 C -0.018 4.666,-0.018 11.334,0.040 11.613 C 0.119 11.990,0.357 12.367,0.678 12.624 C 0.876 12.783,1.034 12.863,1.298 12.940 L 1.507 13.000 5.493 13.000 C 9.975 13.000,9.602 13.017,10.052 12.796 C 10.367 12.642,10.642 12.367,10.796 12.052 C 10.953 11.732,10.991 11.551,11.010 11.036 L 11.027 10.592 12.933 11.738 C 13.982 12.368,14.894 12.908,14.960 12.938 C 15.324 13.102,15.804 12.895,15.947 12.513 C 15.999 12.374,16.000 12.299,16.000 8.000 C 16.000 3.701,15.999 3.626,15.947 3.487 C 15.884 3.319,15.719 3.146,15.547 3.069 C 15.412 3.008,15.171 2.996,15.016 3.043 C 14.963 3.059,14.044 3.597,12.973 4.240 L 11.027 5.408 11.010 4.964 C 10.991 4.450,10.953 4.268,10.797 3.950 C 10.608 3.565,10.257 3.262,9.797 3.087 L 9.640 3.027 5.560 3.022 C 2.104 3.018,1.456 3.023,1.324 3.055 M9.415 4.585 L 9.493 4.663 9.493 7.996 L 9.493 11.329 9.424 11.411 L 9.355 11.493 5.516 11.493 C 2.934 11.493,1.660 11.484,1.625 11.466 C 1.488 11.392,1.493 11.534,1.493 8.000 C 1.493 4.483,1.489 4.612,1.620 4.535 C 1.651 4.517,2.946 4.508,5.502 4.507 L 9.337 4.507 9.415 4.585 M14.507 8.000 C 14.507 9.599,14.498 10.907,14.487 10.907 C 14.476 10.907,13.690 10.442,12.741 9.873 L 11.014 8.840 11.021 8.001 L 11.027 7.163 12.747 6.129 C 13.693 5.561,14.476 5.095,14.487 5.094 C 14.498 5.094,14.507 6.401,14.507 8.000 " stroke="none" fill-rule="evenodd" fill="black"></path></svg>