<svg xmlns="http://www.w3.org/2000/svg" width="16" height="16" viewBox="0 0 16 16"><path d="M3.442 0.029 C 2.747 0.167,2.223 0.663,2.053 1.347 C 2.000 1.558,2.000 1.639,2.006 8.067 L 2.013 14.573 2.087 14.790 C 2.267 15.320,2.680 15.733,3.211 15.914 L 3.427 15.987 8.000 15.987 L 12.573 15.987 12.790 15.913 C 13.036 15.830,13.347 15.636,13.511 15.463 C 13.678 15.287,13.832 15.029,13.914 14.789 L 13.987 14.573 13.987 8.000 L 13.987 1.427 13.913 1.210 C 13.733 0.680,13.320 0.267,12.789 0.086 L 12.573 0.013 8.067 0.009 C 5.569 0.007,3.507 0.016,3.442 0.029 M12.419 1.581 L 12.493 1.655 12.493 8.000 L 12.493 14.345 12.419 14.419 L 12.345 14.493 8.000 14.493 L 3.655 14.493 3.581 14.419 L 3.507 14.345 3.507 8.002 C 3.507 1.696,3.507 1.659,3.560 1.600 C 3.589 1.567,3.637 1.530,3.667 1.518 C 3.696 1.506,5.661 1.499,8.033 1.502 L 12.345 1.507 12.419 1.581 M7.662 11.061 C 7.221 11.219,6.939 11.692,7.014 12.152 C 7.145 12.957,8.127 13.277,8.702 12.702 C 9.188 12.216,9.050 11.404,8.429 11.100 C 8.234 11.005,7.872 10.986,7.662 11.061 " stroke="none" fill-rule="evenodd" fill="black"></path></svg>