<svg xmlns="http://www.w3.org/2000/svg" width="24" height="24" viewBox="0 0 24 24"><path d="M1.219 4.592 C 0.606 4.805,0.166 5.293,0.040 5.900 C 0.012 6.034,0.002 8.000,0.009 11.880 L 0.020 17.660 0.113 17.878 C 0.307 18.336,0.665 18.695,1.120 18.887 L 1.340 18.980 8.120 18.991 C 12.686 18.998,14.965 18.988,15.100 18.960 C 15.693 18.837,16.193 18.398,16.409 17.809 C 16.486 17.599,16.495 17.476,16.510 16.350 C 16.520 15.673,16.537 15.120,16.547 15.120 C 16.558 15.120,17.978 15.967,19.703 17.002 C 21.428 18.037,22.902 18.910,22.978 18.942 C 23.153 19.015,23.365 19.016,23.531 18.945 C 23.688 18.877,23.900 18.660,23.958 18.507 C 23.987 18.430,24.000 16.340,24.000 11.756 C 24.000 4.619,24.010 4.970,23.808 4.747 C 23.684 4.610,23.454 4.520,23.226 4.520 C 23.010 4.520,22.984 4.534,19.774 6.460 L 16.540 8.400 16.516 7.170 C 16.500 6.354,16.475 5.886,16.441 5.780 C 16.286 5.289,15.956 4.901,15.501 4.677 L 15.222 4.540 8.321 4.531 C 1.855 4.523,1.407 4.527,1.219 4.592 M14.920 6.080 C 14.999 6.159,15.000 6.213,15.000 11.757 L 15.000 17.354 14.895 17.437 L 14.789 17.520 8.265 17.519 C 3.085 17.519,1.719 17.508,1.640 17.468 L 1.540 17.418 1.530 11.782 C 1.521 6.581,1.525 6.141,1.586 6.073 C 1.650 6.003,1.904 6.000,8.246 6.000 C 14.787 6.000,14.841 6.001,14.920 6.080 M22.480 11.758 L 22.480 16.916 19.500 15.128 L 16.520 13.340 16.520 11.752 L 16.520 10.164 19.490 8.382 C 21.123 7.402,22.464 6.600,22.470 6.600 C 22.476 6.600,22.480 8.921,22.480 11.758 " stroke="none" fill-rule="evenodd" fill="black"></path></svg>