<svg xmlns="http://www.w3.org/2000/svg" width="24" height="24" viewBox="0 0 24 24"><path d="M2.340 2.056 C 1.695 2.217,1.176 2.748,1.039 3.387 C 1.012 3.516,1.002 5.597,1.009 9.620 L 1.020 15.660 1.113 15.880 C 1.305 16.335,1.664 16.693,2.122 16.887 L 2.340 16.980 5.650 16.991 L 8.961 17.002 8.942 17.091 C 8.931 17.140,8.894 17.328,8.859 17.508 C 8.663 18.520,8.137 19.587,7.373 20.525 C 7.088 20.876,7.000 21.048,7.000 21.256 C 7.000 21.449,7.063 21.597,7.212 21.755 C 7.459 22.015,7.170 22.000,12.000 22.000 C 16.830 22.000,16.541 22.015,16.788 21.755 C 16.937 21.597,17.000 21.449,17.000 21.256 C 17.000 21.048,16.918 20.889,16.617 20.517 C 15.874 19.598,15.324 18.477,15.138 17.502 C 15.104 17.325,15.068 17.140,15.058 17.091 L 15.039 17.002 18.350 16.991 L 21.660 16.980 21.880 16.887 C 22.335 16.695,22.693 16.336,22.887 15.878 L 22.980 15.660 22.991 9.620 C 22.998 5.597,22.988 3.516,22.961 3.387 C 22.821 2.732,22.271 2.186,21.608 2.045 C 21.287 1.977,2.616 1.988,2.340 2.056 M21.435 3.574 C 21.468 3.614,21.478 5.200,21.470 9.523 L 21.460 15.418 21.360 15.468 C 21.213 15.543,2.787 15.543,2.640 15.468 L 2.540 15.418 2.530 9.523 C 2.522 5.200,2.532 3.614,2.565 3.574 C 2.632 3.493,21.368 3.493,21.435 3.574 M13.587 17.379 C 13.717 18.278,14.098 19.369,14.556 20.153 C 14.646 20.308,14.720 20.453,14.720 20.477 C 14.720 20.507,13.914 20.520,12.000 20.520 C 10.086 20.520,9.280 20.507,9.280 20.477 C 9.280 20.453,9.354 20.308,9.444 20.153 C 9.903 19.368,10.336 18.108,10.423 17.308 C 10.438 17.172,10.458 17.046,10.468 17.030 C 10.477 17.013,11.172 17.004,12.010 17.010 L 13.536 17.020 13.587 17.379 " stroke="none" fill-rule="evenodd" fill="black"></path></svg>