<svg xmlns="http://www.w3.org/2000/svg" width="24" height="24" viewBox="0 0 24 24"><path d="M11.540 1.054 C 11.114 1.195,11.090 1.218,6.227 6.074 C 3.591 8.706,1.380 10.937,1.315 11.031 C 0.953 11.547,0.927 12.319,1.251 12.880 C 1.348 13.048,10.830 22.558,11.060 22.717 C 11.432 22.975,11.918 23.075,12.358 22.983 C 12.939 22.862,12.688 23.094,17.945 17.829 C 22.461 13.307,22.794 12.964,22.893 12.735 C 23.104 12.251,23.099 11.716,22.877 11.240 C 22.764 10.997,22.444 10.667,17.908 6.132 C 13.249 1.472,13.049 1.278,12.780 1.153 C 12.531 1.037,12.456 1.021,12.100 1.012 C 11.848 1.005,11.641 1.021,11.540 1.054 M16.850 7.190 C 20.576 10.917,21.560 11.921,21.560 12.000 C 21.560 12.146,12.187 21.520,12.040 21.520 C 11.893 21.520,2.520 12.147,2.520 12.000 C 2.520 11.853,11.894 2.480,12.040 2.480 C 12.119 2.480,13.123 3.464,16.850 7.190 " stroke="none" fill-rule="evenodd" fill="black"></path></svg>