<svg xmlns="http://www.w3.org/2000/svg" width="16" height="16" viewBox="0 0 16 16"><path d="M7.640 0.044 C 7.537 0.065,7.351 0.132,7.227 0.192 L 7.000 0.301 3.663 3.637 L 0.326 6.973 0.217 7.200 C 0.071 7.502,0.025 7.695,0.025 8.000 C 0.025 8.305,0.071 8.498,0.217 8.800 L 0.326 9.027 3.650 12.350 C 6.527 15.228,6.997 15.686,7.147 15.768 C 7.408 15.910,7.633 15.975,7.926 15.992 C 8.244 16.011,8.473 15.963,8.800 15.808 L 9.027 15.701 12.328 12.404 C 14.597 10.137,15.662 9.055,15.736 8.942 C 15.915 8.669,15.982 8.440,15.994 8.067 C 16.007 7.694,15.970 7.513,15.821 7.200 C 15.727 7.005,15.650 6.924,12.376 3.651 L 9.027 0.301 8.800 0.192 C 8.421 0.010,8.035 -0.039,7.640 0.044 M8.114 1.531 C 8.165 1.553,9.502 2.871,11.353 4.724 L 14.507 7.881 14.507 8.000 L 14.507 8.119 11.341 11.285 C 9.600 13.027,8.143 14.465,8.102 14.482 C 8.061 14.499,7.994 14.505,7.954 14.495 C 7.903 14.483,6.894 13.491,4.700 11.298 L 1.520 8.119 1.520 8.000 L 1.520 7.881 4.673 4.728 C 6.407 2.993,7.862 1.556,7.906 1.534 C 8.006 1.485,8.009 1.485,8.114 1.531 " stroke="none" fill-rule="evenodd" fill="black"></path></svg>