<svg xmlns="http://www.w3.org/2000/svg" width="16" height="16" viewBox="0 0 16 16"><path d="M2.427 1.032 C 2.111 1.085,1.771 1.269,1.516 1.522 C 1.350 1.687,1.290 1.771,1.191 1.976 C 1.125 2.114,1.054 2.305,1.035 2.400 C 1.007 2.540,1.000 3.627,1.000 8.027 C 1.000 14.158,0.981 13.597,1.204 14.052 C 1.358 14.367,1.633 14.642,1.948 14.796 C 2.403 15.019,1.839 15.000,8.000 15.000 C 14.161 15.000,13.597 15.019,14.052 14.796 C 14.367 14.642,14.642 14.367,14.796 14.052 C 15.019 13.597,15.000 14.161,15.000 8.000 C 15.000 1.841,15.019 2.403,14.797 1.950 C 14.608 1.565,14.257 1.262,13.797 1.087 L 13.640 1.027 8.067 1.023 C 5.001 1.022,2.463 1.025,2.427 1.032 M13.415 2.585 L 13.493 2.663 13.493 7.996 L 13.493 13.329 13.424 13.411 L 13.355 13.493 8.000 13.493 L 2.645 13.493 2.576 13.411 L 2.507 13.329 2.507 7.996 L 2.507 2.663 2.585 2.585 L 2.663 2.507 8.000 2.507 L 13.337 2.507 13.415 2.585 M7.669 6.026 C 7.219 6.108,6.771 6.367,6.469 6.720 C 5.991 7.278,5.871 8.067,6.156 8.767 C 6.347 9.238,6.762 9.653,7.233 9.844 C 7.993 10.153,8.834 9.986,9.410 9.410 C 10.159 8.661,10.197 7.475,9.497 6.680 C 9.265 6.416,8.851 6.160,8.504 6.065 C 8.327 6.016,7.847 5.994,7.669 6.026 " stroke="none" fill-rule="evenodd" fill="black"></path></svg>