<svg xmlns="http://www.w3.org/2000/svg" width="16" height="16" viewBox="0 0 16 16"><path d="M2.427 1.032 C 2.111 1.085,1.771 1.269,1.516 1.522 C 1.350 1.687,1.290 1.771,1.191 1.976 C 1.125 2.114,1.054 2.305,1.035 2.400 C 1.007 2.540,1.000 3.627,1.000 8.027 C 1.000 14.158,0.981 13.597,1.204 14.052 C 1.358 14.367,1.633 14.642,1.948 14.796 C 2.403 15.019,1.839 15.000,8.000 15.000 C 14.161 15.000,13.597 15.019,14.052 14.796 C 14.367 14.642,14.642 14.367,14.796 14.052 C 15.019 13.597,15.000 14.161,15.000 8.000 C 15.000 1.841,15.019 2.403,14.797 1.950 C 14.608 1.565,14.257 1.262,13.797 1.087 L 13.640 1.027 8.067 1.023 C 5.001 1.022,2.463 1.025,2.427 1.032 M13.415 2.585 L 13.493 2.663 13.493 7.996 L 13.493 13.329 13.424 13.411 L 13.355 13.493 8.000 13.493 L 2.645 13.493 2.576 13.411 L 2.507 13.329 2.507 7.996 L 2.507 2.663 2.585 2.585 L 2.663 2.507 8.000 2.507 L 13.337 2.507 13.415 2.585 M7.688 4.106 C 7.419 4.242,7.277 4.473,7.275 4.777 C 7.274 5.067,7.292 5.090,8.421 6.220 L 9.453 7.253 7.051 7.253 C 4.301 7.253,4.463 7.241,4.227 7.476 C 3.922 7.782,3.921 8.217,4.225 8.522 C 4.464 8.761,4.287 8.747,7.018 8.747 C 8.335 8.747,9.413 8.755,9.413 8.766 C 9.413 8.777,8.940 9.260,8.362 9.839 C 7.326 10.878,7.310 10.896,7.266 11.051 C 7.126 11.535,7.476 12.010,7.973 12.011 C 8.307 12.012,8.233 12.075,10.166 10.139 C 11.859 8.443,11.917 8.382,11.958 8.242 C 12.011 8.059,12.011 7.941,11.958 7.758 C 11.917 7.618,11.859 7.557,10.204 5.898 C 9.263 4.955,8.441 4.152,8.376 4.114 C 8.285 4.059,8.215 4.042,8.056 4.033 C 7.870 4.023,7.839 4.029,7.688 4.106 " stroke="none" fill-rule="evenodd" fill="black"></path></svg>