<svg xmlns="http://www.w3.org/2000/svg" width="24" height="24" viewBox="0 0 24 24"><path d="M11.940 3.567 C 11.811 3.638,11.638 3.811,11.566 3.940 C 11.507 4.047,11.499 4.301,11.488 6.290 L 11.477 8.520 9.256 8.520 C 7.396 8.520,7.018 8.529,6.924 8.578 C 6.772 8.657,6.566 8.897,6.537 9.031 C 6.524 9.091,6.507 9.160,6.500 9.185 C 6.472 9.279,6.569 9.584,6.668 9.714 C 6.724 9.788,6.845 9.882,6.935 9.923 C 7.090 9.994,7.238 9.998,9.290 9.999 L 11.480 10.000 11.480 12.098 C 11.480 13.467,11.495 14.267,11.524 14.400 C 11.608 14.795,11.974 15.043,12.380 14.982 C 12.616 14.947,12.898 14.704,12.959 14.485 C 12.984 14.396,13.000 13.508,13.000 12.170 L 13.000 10.000 15.170 10.000 C 16.508 10.000,17.396 9.984,17.485 9.959 C 17.704 9.898,17.947 9.616,17.982 9.380 C 18.033 9.041,17.888 8.747,17.598 8.599 C 17.449 8.523,17.354 8.520,15.222 8.520 L 13.000 8.520 13.000 6.319 C 13.000 3.980,12.998 3.957,12.808 3.747 C 12.629 3.548,12.153 3.449,11.940 3.567 M6.980 18.587 C 6.914 18.621,6.826 18.679,6.784 18.715 C 6.676 18.808,6.562 19.077,6.561 19.242 C 6.560 19.435,6.708 19.710,6.894 19.858 L 7.047 19.980 12.187 19.991 C 15.590 19.998,17.378 19.987,17.479 19.960 C 17.703 19.900,17.946 19.620,17.982 19.380 C 18.033 19.041,17.888 18.747,17.598 18.599 C 17.446 18.522,17.342 18.520,12.272 18.522 C 7.630 18.523,7.088 18.530,6.980 18.587 " stroke="none" fill-rule="evenodd" fill="black"></path></svg>