<svg xmlns="http://www.w3.org/2000/svg" width="16" height="16" viewBox="0 0 16 16"><path d="M2.387 1.041 C 1.891 1.143,1.422 1.504,1.203 1.950 C 0.981 2.403,1.000 1.841,1.000 8.000 C 1.000 14.161,0.981 13.597,1.204 14.052 C 1.358 14.367,1.633 14.642,1.948 14.796 C 2.403 15.019,1.839 15.000,8.000 15.000 C 14.161 15.000,13.597 15.019,14.052 14.796 C 14.367 14.642,14.642 14.367,14.796 14.052 C 15.019 13.597,15.000 14.161,15.000 8.000 C 15.000 1.841,15.019 2.403,14.797 1.950 C 14.608 1.565,14.257 1.262,13.797 1.087 L 13.640 1.027 8.067 1.023 C 5.001 1.021,2.445 1.029,2.387 1.041 M13.415 2.585 L 13.493 2.663 13.493 7.996 L 13.493 13.329 13.424 13.411 L 13.355 13.493 8.000 13.493 L 2.645 13.493 2.576 13.411 L 2.507 13.329 2.507 7.996 L 2.507 2.663 2.585 2.585 L 2.663 2.507 8.000 2.507 L 13.337 2.507 13.415 2.585 M7.747 4.046 C 7.568 4.107,7.358 4.315,7.298 4.492 C 7.259 4.607,7.253 4.777,7.253 5.938 L 7.253 7.253 5.952 7.253 C 4.435 7.253,4.452 7.251,4.227 7.476 C 3.922 7.782,3.921 8.217,4.225 8.522 C 4.454 8.751,4.422 8.747,5.938 8.747 L 7.253 8.747 7.253 10.062 C 7.253 11.580,7.249 11.546,7.481 11.778 C 7.779 12.076,8.221 12.076,8.519 11.778 C 8.751 11.546,8.747 11.580,8.747 10.062 L 8.747 8.747 10.062 8.747 C 11.580 8.747,11.546 8.751,11.778 8.519 C 12.077 8.220,12.076 7.779,11.775 7.478 C 11.548 7.251,11.568 7.253,10.048 7.253 L 8.747 7.253 8.747 5.938 C 8.747 4.475,8.747 4.477,8.569 4.269 C 8.374 4.041,8.031 3.948,7.747 4.046 " stroke="none" fill-rule="evenodd" fill="black"></path></svg>