<svg xmlns="http://www.w3.org/2000/svg" width="16" height="16" viewBox="0 0 16 16"><path d="M2.427 1.032 C 2.111 1.085,1.771 1.269,1.516 1.522 C 1.350 1.687,1.290 1.771,1.191 1.976 C 1.125 2.114,1.054 2.305,1.035 2.400 C 1.007 2.540,1.000 3.627,1.000 8.027 C 1.000 14.158,0.981 13.597,1.204 14.052 C 1.358 14.367,1.633 14.642,1.948 14.796 C 2.403 15.019,1.839 15.000,8.000 15.000 C 14.161 15.000,13.597 15.019,14.052 14.796 C 14.367 14.642,14.642 14.367,14.796 14.052 C 15.019 13.597,15.000 14.161,15.000 8.000 C 15.000 1.841,15.019 2.403,14.797 1.950 C 14.608 1.565,14.257 1.262,13.797 1.087 L 13.640 1.027 8.067 1.023 C 5.001 1.022,2.463 1.025,2.427 1.032 M13.415 2.585 L 13.493 2.663 13.493 7.996 L 13.493 13.329 13.424 13.411 L 13.355 13.493 8.000 13.493 L 2.645 13.493 2.576 13.411 L 2.507 13.329 2.507 7.996 L 2.507 2.663 2.585 2.585 L 2.663 2.507 8.000 2.507 L 13.337 2.507 13.415 2.585 M10.413 4.597 C 10.306 4.649,9.729 5.213,7.422 7.524 L 4.564 10.387 4.519 10.545 C 4.351 11.132,4.868 11.649,5.455 11.481 L 5.613 11.436 8.486 8.566 C 11.636 5.418,11.475 5.595,11.475 5.267 C 11.475 4.972,11.304 4.709,11.030 4.585 C 10.866 4.510,10.585 4.516,10.413 4.597 " stroke="none" fill-rule="evenodd" fill="black"></path></svg>