<svg xmlns="http://www.w3.org/2000/svg" width="16" height="16" viewBox="0 0 16 16"><path d="M7.649 1.101 C 7.466 1.195,7.333 1.355,7.281 1.542 C 7.264 1.604,7.254 2.261,7.253 3.327 L 7.253 5.013 5.538 5.013 L 3.822 5.013 3.657 5.096 C 3.417 5.215,3.285 5.412,3.260 5.684 C 3.232 5.995,3.384 6.269,3.666 6.413 L 3.823 6.493 5.538 6.501 L 7.253 6.508 7.253 8.191 C 7.253 9.365,7.262 9.904,7.283 9.974 C 7.300 10.030,7.357 10.133,7.411 10.204 C 7.703 10.591,8.297 10.591,8.589 10.204 C 8.643 10.133,8.700 10.030,8.717 9.974 C 8.738 9.904,8.747 9.365,8.747 8.191 L 8.747 6.508 10.462 6.501 L 12.177 6.493 12.334 6.413 C 12.509 6.324,12.666 6.144,12.717 5.974 C 12.816 5.642,12.672 5.279,12.373 5.109 L 12.227 5.027 10.493 5.013 L 8.760 5.000 8.747 3.267 C 8.734 1.629,8.731 1.528,8.683 1.440 C 8.585 1.260,8.500 1.174,8.340 1.094 C 8.106 0.977,7.884 0.979,7.649 1.101 M3.657 13.096 C 3.417 13.215,3.285 13.412,3.260 13.684 C 3.232 13.995,3.384 14.269,3.666 14.413 L 3.823 14.493 8.000 14.493 L 12.177 14.493 12.334 14.413 C 12.509 14.324,12.666 14.144,12.717 13.974 C 12.820 13.628,12.668 13.266,12.349 13.100 L 12.182 13.013 8.002 13.013 L 3.822 13.013 3.657 13.096 " stroke="none" fill-rule="evenodd" fill="black"></path></svg>