<svg xmlns="http://www.w3.org/2000/svg" width="16" height="16" viewBox="0 0 16 16"><path d="M7.467 4.038 C 6.989 4.108,6.622 4.221,6.213 4.427 C 5.105 4.984,4.351 5.968,4.074 7.220 C 3.990 7.597,3.990 8.403,4.074 8.780 C 4.434 10.406,5.595 11.567,7.218 11.925 C 7.598 12.009,8.402 12.009,8.782 11.925 C 10.404 11.567,11.567 10.404,11.925 8.782 C 12.009 8.402,12.009 7.598,11.925 7.218 C 11.561 5.567,10.316 4.353,8.694 4.064 C 8.368 4.007,7.773 3.994,7.467 4.038 M8.632 5.588 C 8.881 5.650,9.216 5.803,9.438 5.954 C 9.595 6.060,9.940 6.405,10.046 6.562 C 10.198 6.784,10.350 7.119,10.418 7.381 C 10.515 7.752,10.515 8.248,10.418 8.619 C 10.350 8.879,10.199 9.213,10.047 9.438 C 9.909 9.643,9.520 10.003,9.285 10.143 C 8.997 10.316,8.615 10.444,8.272 10.485 C 7.751 10.546,7.178 10.420,6.715 10.143 C 6.480 10.003,6.091 9.643,5.953 9.438 C 5.801 9.213,5.650 8.879,5.582 8.619 C 5.485 8.248,5.485 7.752,5.582 7.381 C 5.886 6.218,6.940 5.446,8.133 5.512 C 8.273 5.519,8.497 5.553,8.632 5.588 " stroke="none" fill-rule="evenodd" fill="black"></path></svg>