<svg xmlns="http://www.w3.org/2000/svg" width="16" height="16" viewBox="0 0 16 16"><path d="M7.649 1.101 C 7.466 1.195,7.333 1.355,7.281 1.542 C 7.263 1.606,7.254 2.808,7.253 5.040 L 7.253 8.439 5.980 7.167 C 4.569 5.758,4.594 5.778,4.266 5.780 C 3.974 5.782,3.752 5.913,3.612 6.165 C 3.543 6.289,3.533 6.333,3.534 6.520 C 3.534 6.691,3.547 6.757,3.597 6.853 C 3.639 6.936,4.256 7.572,5.556 8.875 C 6.600 9.922,7.504 10.813,7.565 10.856 C 7.626 10.898,7.749 10.952,7.838 10.975 C 7.985 11.013,8.015 11.012,8.164 10.975 C 8.257 10.951,8.380 10.893,8.450 10.841 C 8.518 10.791,9.421 9.900,10.457 8.862 C 11.748 7.568,12.361 6.936,12.403 6.853 C 12.453 6.757,12.466 6.691,12.466 6.520 C 12.467 6.333,12.457 6.289,12.388 6.165 C 12.248 5.913,12.026 5.782,11.734 5.780 C 11.406 5.778,11.431 5.758,10.020 7.167 L 8.747 8.439 8.747 5.040 C 8.746 2.805,8.737 1.606,8.719 1.542 C 8.669 1.360,8.530 1.194,8.349 1.100 C 8.208 1.027,8.153 1.013,8.000 1.013 C 7.847 1.013,7.791 1.027,7.649 1.101 M3.420 13.082 C 2.952 13.315,2.860 13.940,3.241 14.292 C 3.482 14.513,3.009 14.493,8.000 14.493 C 12.991 14.493,12.518 14.513,12.759 14.292 C 13.139 13.941,13.047 13.314,12.580 13.082 L 12.443 13.013 8.000 13.013 L 3.557 13.013 3.420 13.082 " stroke="none" fill-rule="evenodd" fill="black"></path></svg>