<svg xmlns="http://www.w3.org/2000/svg" width="24" height="24" viewBox="0 0 24 24"><path d="M11.460 2.076 C 11.257 2.170,11.089 2.348,11.039 2.523 C 11.014 2.609,11.000 4.908,11.000 8.799 L 11.000 14.939 8.430 12.373 C 5.904 9.852,5.857 9.807,5.659 9.766 C 5.307 9.693,5.016 9.815,4.833 10.111 C 4.721 10.292,4.710 10.637,4.809 10.820 C 4.845 10.886,6.338 12.401,8.127 14.187 C 11.224 17.278,11.389 17.435,11.560 17.469 C 11.797 17.515,12.006 17.475,12.190 17.347 C 12.273 17.289,13.757 15.824,15.488 14.091 C 17.684 11.893,18.655 10.895,18.698 10.791 C 18.856 10.412,18.707 10.002,18.341 9.811 C 18.184 9.729,17.853 9.732,17.679 9.816 C 17.601 9.854,16.447 10.984,15.030 12.410 L 12.520 14.936 12.519 8.858 C 12.518 4.825,12.504 2.720,12.477 2.601 C 12.367 2.126,11.887 1.878,11.460 2.076 M4.394 20.601 C 4.110 20.751,3.968 21.046,4.018 21.380 C 4.053 21.616,4.296 21.898,4.515 21.959 C 4.715 22.015,19.285 22.015,19.485 21.959 C 19.704 21.898,19.947 21.616,19.982 21.380 C 20.033 21.041,19.888 20.747,19.598 20.599 C 19.446 20.521,19.331 20.520,11.992 20.522 C 4.704 20.523,4.537 20.525,4.394 20.601 " stroke="none" fill-rule="evenodd" fill="black"></path></svg>