<svg xmlns="http://www.w3.org/2000/svg" width="16" height="16" viewBox="0 0 16 16"><path d="M6.430 0.030 C 6.112 0.083,5.766 0.271,5.512 0.526 C 5.216 0.824,5.065 1.143,5.011 1.587 C 4.994 1.720,4.988 3.244,4.993 5.653 C 5.002 9.978,4.984 9.602,5.204 10.052 C 5.358 10.367,5.633 10.641,5.948 10.796 C 6.398 11.017,6.025 11.000,10.507 11.000 L 14.493 11.000 14.702 10.940 C 14.966 10.863,15.124 10.783,15.322 10.624 C 15.542 10.448,15.692 10.262,15.815 10.013 C 16.012 9.617,16.002 9.873,15.994 5.420 L 15.987 1.427 15.913 1.210 C 15.733 0.680,15.320 0.267,14.789 0.086 L 14.573 0.013 10.573 0.010 C 8.300 0.007,6.511 0.016,6.430 0.030 M14.419 1.581 L 14.493 1.655 14.501 5.421 C 14.505 7.492,14.501 9.227,14.493 9.276 C 14.484 9.326,14.448 9.395,14.413 9.430 L 14.349 9.493 10.497 9.493 L 6.645 9.493 6.576 9.411 L 6.507 9.329 6.507 5.503 C 6.507 2.940,6.516 1.660,6.534 1.625 C 6.607 1.489,6.415 1.495,10.526 1.501 L 14.345 1.507 14.419 1.581 M10.233 3.051 C 10.110 3.095,9.968 3.201,9.895 3.305 C 9.776 3.472,9.760 3.575,9.760 4.175 L 9.760 4.742 9.153 4.751 L 8.547 4.760 8.404 4.839 C 7.848 5.147,7.881 5.933,8.461 6.189 C 8.589 6.246,8.646 6.251,9.180 6.262 L 9.760 6.273 9.760 6.850 C 9.761 7.398,9.764 7.433,9.823 7.560 C 10.086 8.123,10.858 8.143,11.161 7.596 L 11.240 7.453 11.248 6.863 L 11.257 6.273 11.822 6.260 C 12.454 6.246,12.555 6.224,12.742 6.065 C 13.073 5.782,13.079 5.257,12.755 4.959 C 12.552 4.771,12.514 4.762,11.847 4.752 L 11.253 4.742 11.253 4.203 C 11.253 3.569,11.231 3.460,11.061 3.267 C 10.909 3.094,10.732 3.014,10.507 3.015 C 10.411 3.015,10.288 3.032,10.233 3.051 M1.324 5.056 C 0.990 5.136,0.632 5.363,0.400 5.642 C 0.250 5.822,0.087 6.161,0.039 6.394 C 0.004 6.562,0.000 7.119,0.006 10.580 L 0.013 14.573 0.087 14.790 C 0.267 15.320,0.680 15.733,1.211 15.914 L 1.427 15.987 5.420 15.994 C 9.873 16.002,9.617 16.012,10.013 15.815 C 10.473 15.588,10.791 15.210,10.936 14.716 C 10.989 14.537,10.995 14.442,11.006 13.638 C 11.020 12.667,11.004 12.521,10.863 12.324 C 10.498 11.816,9.711 11.944,9.534 12.539 C 9.501 12.649,9.493 12.840,9.493 13.510 L 9.493 14.344 9.429 14.419 L 9.365 14.493 5.510 14.493 L 1.655 14.493 1.581 14.419 L 1.507 14.345 1.500 10.539 C 1.494 7.715,1.501 6.714,1.523 6.659 C 1.586 6.508,1.592 6.507,2.494 6.507 C 3.160 6.507,3.351 6.499,3.461 6.466 C 3.861 6.347,4.090 5.912,3.960 5.519 C 3.901 5.341,3.736 5.158,3.560 5.076 C 3.428 5.014,3.420 5.014,2.453 5.016 C 1.710 5.017,1.443 5.027,1.324 5.056 " stroke="none" fill-rule="evenodd" fill="black"></path></svg>