<svg xmlns="http://www.w3.org/2000/svg" width="16" height="16" viewBox="0 0 16 16"><path d="M1.442 4.029 C 0.801 4.156,0.295 4.596,0.087 5.210 L 0.013 5.427 0.006 7.932 C -0.001 10.366,0.000 10.442,0.052 10.652 C 0.138 10.995,0.273 11.234,0.519 11.481 C 0.766 11.727,1.005 11.862,1.347 11.947 C 1.558 12.000,1.639 12.000,8.067 11.994 L 14.573 11.987 14.790 11.913 C 15.036 11.830,15.347 11.636,15.511 11.463 C 15.678 11.287,15.832 11.029,15.914 10.789 L 15.987 10.573 15.987 8.000 L 15.987 5.427 15.914 5.211 C 15.734 4.683,15.318 4.266,14.792 4.088 L 14.573 4.013 8.067 4.009 C 4.437 4.007,1.508 4.016,1.442 4.029 M4.431 7.101 C 4.608 7.188,4.833 7.417,4.915 7.593 C 4.963 7.698,4.973 7.768,4.973 8.000 C 4.973 8.251,4.966 8.295,4.901 8.428 C 4.707 8.821,4.268 9.054,3.848 8.986 C 3.533 8.935,3.241 8.717,3.101 8.430 C 3.009 8.243,2.986 7.920,3.050 7.701 C 3.130 7.427,3.385 7.160,3.662 7.061 C 3.873 6.986,4.234 7.005,4.431 7.101 M8.431 7.101 C 8.608 7.188,8.833 7.417,8.915 7.593 C 8.963 7.698,8.973 7.768,8.973 8.000 C 8.973 8.251,8.966 8.295,8.901 8.428 C 8.707 8.821,8.268 9.054,7.848 8.986 C 7.533 8.935,7.241 8.717,7.101 8.430 C 7.009 8.243,6.986 7.920,7.050 7.701 C 7.130 7.427,7.385 7.160,7.662 7.061 C 7.873 6.986,8.234 7.005,8.431 7.101 M12.431 7.101 C 12.608 7.188,12.833 7.417,12.915 7.593 C 12.963 7.698,12.973 7.768,12.973 8.000 C 12.973 8.251,12.966 8.295,12.901 8.428 C 12.707 8.821,12.268 9.054,11.848 8.986 C 11.533 8.935,11.241 8.717,11.101 8.430 C 11.009 8.243,10.986 7.920,11.050 7.701 C 11.130 7.427,11.385 7.160,11.662 7.061 C 11.873 6.986,12.234 7.005,12.431 7.101 " stroke="none" fill-rule="evenodd" fill="black"></path></svg>