<svg xmlns="http://www.w3.org/2000/svg" width="24" height="24" viewBox="0 0 24 24"><path d="M11.000 3.545 C 7.297 3.884,3.892 6.070,1.205 9.834 C 0.736 10.490,0.261 11.292,0.183 11.557 C 0.032 12.076,0.129 12.487,0.577 13.217 C 1.334 14.451,2.132 15.455,3.218 16.542 C 4.026 17.350,4.491 17.750,5.222 18.266 C 7.499 19.870,10.018 20.622,12.626 20.476 C 15.110 20.337,17.365 19.425,19.578 17.666 C 20.145 17.214,21.541 15.800,22.034 15.177 C 22.914 14.064,23.691 12.872,23.817 12.443 C 23.897 12.166,23.897 11.834,23.817 11.557 C 23.691 11.128,22.914 9.936,22.034 8.823 C 21.503 8.153,20.167 6.809,19.512 6.288 C 17.653 4.810,15.791 3.966,13.620 3.619 C 13.232 3.556,11.429 3.506,11.000 3.545 M13.340 5.097 C 15.187 5.370,16.814 6.093,18.480 7.383 C 19.089 7.854,20.358 9.124,20.896 9.800 C 21.330 10.346,22.174 11.574,22.304 11.850 C 22.372 11.994,22.372 12.006,22.304 12.150 C 22.173 12.427,21.330 13.654,20.895 14.200 C 20.378 14.850,19.145 16.094,18.546 16.570 C 16.964 17.827,15.371 18.558,13.500 18.885 C 13.054 18.964,12.841 18.976,12.000 18.976 C 11.159 18.976,10.946 18.964,10.500 18.885 C 8.629 18.558,7.036 17.827,5.454 16.570 C 4.858 16.096,3.625 14.853,3.104 14.200 C 2.659 13.642,1.779 12.359,1.684 12.130 C 1.610 11.951,1.644 11.880,2.205 11.040 C 3.696 8.809,5.559 7.082,7.559 6.079 C 8.632 5.541,9.713 5.208,10.800 5.083 C 11.009 5.059,11.243 5.032,11.320 5.023 C 11.602 4.990,12.951 5.040,13.340 5.097 M11.249 8.583 C 10.188 8.815,9.204 9.626,8.791 10.608 C 8.581 11.107,8.513 11.451,8.513 12.000 C 8.513 12.988,8.833 13.756,9.538 14.462 C 10.244 15.167,11.012 15.487,12.000 15.487 C 12.988 15.487,13.756 15.167,14.462 14.462 C 15.167 13.756,15.487 12.988,15.487 12.000 C 15.487 11.000,15.166 10.237,14.441 9.520 C 13.947 9.030,13.375 8.718,12.721 8.580 C 12.368 8.506,11.594 8.507,11.249 8.583 " stroke="none" fill-rule="evenodd" fill="black"></path></svg>