<svg xmlns="http://www.w3.org/2000/svg" width="24" height="24" viewBox="0 0 24 24"><path d="M10.859 3.559 C 9.832 3.668,8.841 3.916,7.722 4.345 C 7.312 4.503,7.058 4.744,7.018 5.014 C 6.960 5.411,7.208 5.793,7.577 5.871 C 7.801 5.919,7.903 5.897,8.420 5.690 C 9.139 5.402,9.958 5.190,10.800 5.075 C 11.293 5.007,12.710 5.007,13.200 5.075 C 15.123 5.341,16.778 6.065,18.480 7.383 C 19.089 7.854,20.358 9.124,20.896 9.800 C 21.332 10.348,22.174 11.574,22.305 11.853 C 22.377 12.004,22.376 12.007,22.279 12.192 C 22.117 12.500,21.433 13.512,21.098 13.939 C 20.927 14.158,20.762 14.383,20.733 14.439 C 20.541 14.806,20.709 15.268,21.098 15.445 C 21.435 15.598,21.755 15.500,22.047 15.155 C 22.668 14.423,23.678 12.881,23.805 12.474 C 23.897 12.179,23.901 11.846,23.817 11.557 C 23.691 11.128,22.914 9.936,22.034 8.823 C 21.503 8.153,20.167 6.809,19.512 6.288 C 17.653 4.810,15.791 3.966,13.620 3.619 C 13.156 3.544,11.367 3.506,10.859 3.559 M1.420 4.063 C 1.218 4.168,1.081 4.328,1.021 4.528 C 0.943 4.792,1.018 5.088,1.206 5.260 C 1.280 5.327,1.858 5.748,2.492 6.195 L 3.644 7.008 3.072 7.594 C 2.757 7.916,2.357 8.351,2.182 8.560 C 1.350 9.556,0.338 11.067,0.195 11.528 C 0.097 11.841,0.100 12.182,0.202 12.486 C 0.359 12.952,1.092 14.070,1.966 15.177 C 2.456 15.798,3.850 17.209,4.422 17.665 C 6.639 19.429,8.880 20.335,11.383 20.477 C 13.974 20.624,16.503 19.869,18.770 18.271 C 19.008 18.104,19.180 18.007,19.210 18.025 C 19.238 18.042,19.836 18.463,20.541 18.962 C 21.246 19.461,21.879 19.898,21.949 19.934 C 22.094 20.009,22.381 20.020,22.547 19.958 C 22.731 19.888,22.917 19.678,22.979 19.471 C 23.053 19.223,22.983 18.924,22.815 18.759 C 22.650 18.598,2.165 4.119,2.011 4.054 C 1.840 3.982,1.568 3.986,1.420 4.063 M6.825 9.260 C 7.851 9.986,8.708 10.591,8.729 10.605 C 8.751 10.619,8.726 10.760,8.665 10.952 C 8.440 11.663,8.447 12.380,8.685 13.100 C 8.873 13.668,9.084 14.004,9.540 14.460 C 9.996 14.916,10.330 15.126,10.902 15.317 C 12.032 15.693,13.244 15.472,14.209 14.712 C 14.305 14.636,14.377 14.606,14.412 14.627 C 14.602 14.742,17.840 17.054,17.839 17.075 C 17.838 17.111,17.206 17.516,16.780 17.753 C 15.779 18.310,14.529 18.734,13.378 18.907 C 13.013 18.961,12.672 18.978,11.940 18.975 C 11.087 18.972,10.915 18.960,10.397 18.867 C 8.595 18.542,7.008 17.804,5.454 16.570 C 4.858 16.096,3.625 14.853,3.104 14.200 C 2.659 13.642,1.779 12.359,1.684 12.130 C 1.639 12.021,1.639 11.979,1.684 11.870 C 1.780 11.638,2.662 10.354,3.106 9.800 C 3.592 9.194,4.827 7.911,4.907 7.928 C 4.936 7.935,5.799 8.534,6.825 9.260 " stroke="none" fill-rule="evenodd" fill="black"></path></svg>