<svg xmlns="http://www.w3.org/2000/svg" width="16" height="16" viewBox="0 0 16 16"><path d="M0.573 2.023 C 0.045 2.162,-0.175 2.813,0.171 3.217 C 0.222 3.276,0.718 3.653,1.272 4.054 C 1.826 4.454,2.285 4.786,2.290 4.790 C 2.296 4.795,2.183 4.922,2.039 5.072 C 1.397 5.745,0.513 6.898,0.319 7.315 C 0.193 7.586,0.152 7.792,0.167 8.080 C 0.186 8.442,0.260 8.641,0.519 9.027 C 1.074 9.852,1.598 10.482,2.371 11.255 C 3.642 12.524,4.772 13.261,6.114 13.694 C 6.801 13.917,7.273 13.988,8.040 13.984 C 8.545 13.981,8.680 13.971,9.013 13.912 C 10.197 13.701,11.269 13.206,12.419 12.340 C 12.507 12.274,12.570 12.243,12.592 12.256 C 12.611 12.268,13.131 12.643,13.747 13.089 C 14.363 13.535,14.918 13.924,14.982 13.952 C 15.137 14.022,15.394 14.023,15.551 13.953 C 15.845 13.823,15.999 13.585,16.000 13.260 C 16.000 13.030,15.942 12.884,15.793 12.740 C 15.661 12.614,1.281 2.200,1.099 2.099 C 0.948 2.016,0.724 1.984,0.573 2.023 M7.600 2.017 C 7.006 2.074,6.626 2.146,6.195 2.280 C 5.837 2.393,5.699 2.488,5.593 2.694 C 5.443 2.989,5.478 3.297,5.689 3.538 C 5.910 3.788,6.190 3.844,6.596 3.720 C 7.333 3.496,8.116 3.450,8.853 3.587 C 10.412 3.878,12.056 5.033,13.546 6.882 C 13.885 7.304,14.248 7.803,14.313 7.937 L 14.354 8.021 14.157 8.304 C 13.854 8.738,13.833 8.782,13.819 9.001 C 13.809 9.166,13.816 9.215,13.872 9.337 C 13.994 9.604,14.211 9.757,14.496 9.780 C 14.862 9.810,15.052 9.670,15.447 9.079 C 15.768 8.599,15.825 8.436,15.825 8.000 C 15.825 7.705,15.817 7.644,15.754 7.472 C 15.641 7.163,15.127 6.426,14.505 5.679 C 14.135 5.234,13.187 4.286,12.767 3.941 C 11.553 2.941,10.248 2.298,9.027 2.095 C 8.533 2.013,7.969 1.982,7.600 2.017 M4.800 6.609 L 6.040 7.510 6.027 7.628 C 5.998 7.881,6.017 8.333,6.064 8.507 C 6.215 9.067,6.617 9.554,7.133 9.800 C 7.395 9.925,7.596 9.974,7.920 9.991 C 8.257 10.009,8.563 9.947,8.874 9.797 L 9.070 9.703 9.451 9.978 C 9.661 10.129,10.158 10.487,10.555 10.773 C 10.952 11.059,11.278 11.300,11.278 11.308 C 11.279 11.316,11.169 11.396,11.033 11.485 C 9.755 12.325,8.495 12.644,7.267 12.439 C 5.654 12.169,3.982 11.015,2.454 9.118 C 2.115 8.697,1.752 8.197,1.687 8.063 C 1.648 7.982,1.649 7.976,1.761 7.810 C 1.947 7.535,2.377 6.967,2.617 6.681 C 2.940 6.296,3.491 5.706,3.528 5.708 C 3.546 5.708,4.118 6.114,4.800 6.609 " stroke="none" fill-rule="evenodd" fill="black"></path></svg>