<svg xmlns="http://www.w3.org/2000/svg" width="16" height="16" viewBox="0 0 16 16"><path d="M7.467 0.017 C 5.118 0.192,3.024 1.327,1.608 3.193 C 0.799 4.260,0.296 5.477,0.073 6.906 C -0.009 7.429,-0.009 8.571,0.073 9.094 C 0.415 11.288,1.476 13.089,3.195 14.393 C 4.257 15.199,5.481 15.705,6.906 15.927 C 7.429 16.009,8.571 16.009,9.094 15.927 C 11.038 15.624,12.690 14.748,13.930 13.362 C 15.030 12.133,15.665 10.775,15.927 9.094 C 16.009 8.571,16.009 7.429,15.927 6.906 C 15.705 5.481,15.199 4.257,14.393 3.195 C 13.070 1.452,11.180 0.355,9.000 0.066 C 8.688 0.025,7.760 -0.005,7.467 0.017 M11.471 4.073 C 11.644 4.150,11.826 4.326,11.909 4.496 C 12.108 4.903,11.958 6.015,11.598 6.794 C 11.340 7.353,10.999 7.805,10.406 8.373 L 10.013 8.749 10.000 9.661 L 9.987 10.573 9.914 10.720 C 9.875 10.801,9.797 10.911,9.741 10.965 C 9.686 11.019,9.298 11.274,8.880 11.531 C 8.198 11.952,8.109 12.000,8.004 12.000 C 7.858 12.000,7.727 11.923,7.672 11.806 C 7.649 11.759,7.526 11.378,7.399 10.960 L 7.167 10.200 6.490 9.520 L 5.814 8.840 5.033 8.602 C 4.604 8.472,4.216 8.343,4.171 8.316 C 4.052 8.246,3.989 8.114,4.006 7.971 C 4.016 7.878,4.115 7.698,4.479 7.107 C 4.732 6.696,4.977 6.320,5.023 6.271 C 5.069 6.222,5.179 6.144,5.267 6.098 L 5.427 6.013 6.335 6.005 L 7.244 5.997 7.575 5.648 C 8.162 5.026,8.563 4.716,9.133 4.440 C 9.750 4.142,10.401 3.996,11.053 4.011 C 11.283 4.016,11.374 4.029,11.471 4.073 M5.510 10.078 C 5.804 10.208,5.983 10.486,5.983 10.813 C 5.983 11.362,5.502 11.727,4.475 11.958 C 4.087 12.045,4.034 12.045,3.996 11.962 C 3.935 11.828,4.163 10.961,4.353 10.605 C 4.453 10.418,4.665 10.176,4.784 10.114 C 5.026 9.988,5.276 9.976,5.510 10.078 " stroke="none" fill-rule="evenodd" fill="black"></path></svg>