<svg xmlns="http://www.w3.org/2000/svg" width="16" height="16" viewBox="0 0 16 16"><path d="M7.467 0.017 C 5.118 0.192,3.024 1.327,1.608 3.193 C 0.799 4.260,0.296 5.477,0.073 6.906 C -0.009 7.429,-0.009 8.571,0.073 9.094 C 0.415 11.288,1.476 13.089,3.195 14.393 C 4.257 15.199,5.481 15.705,6.906 15.927 C 7.429 16.009,8.571 16.009,9.094 15.927 C 11.038 15.624,12.690 14.748,13.930 13.362 C 15.030 12.133,15.665 10.775,15.927 9.094 C 16.009 8.571,16.009 7.429,15.927 6.906 C 15.705 5.481,15.199 4.257,14.393 3.195 C 13.070 1.452,11.180 0.355,9.000 0.066 C 8.688 0.025,7.760 -0.005,7.467 0.017 M11.693 4.050 C 11.822 4.110,11.904 4.194,11.959 4.326 C 11.995 4.414,12.000 4.834,12.000 8.000 C 12.000 11.944,12.012 11.676,11.833 11.860 C 11.787 11.908,11.707 11.959,11.655 11.973 C 11.602 11.988,11.210 12.000,10.780 12.000 L 10.000 12.000 10.000 11.507 L 10.000 11.015 10.500 11.007 L 11.000 11.000 11.007 10.500 L 11.015 10.000 8.460 10.000 C 5.647 10.000,5.722 9.996,5.461 10.164 C 5.225 10.315,5.069 10.552,5.016 10.839 C 5.000 10.926,4.987 11.222,4.987 11.498 C 4.987 12.058,4.999 12.028,4.789 11.957 C 4.588 11.888,4.342 11.641,4.213 11.377 C 4.001 10.944,4.015 11.165,4.006 8.116 C 3.999 5.757,4.004 5.365,4.039 5.196 C 4.133 4.743,4.426 4.364,4.840 4.159 C 5.160 4.000,5.061 4.004,8.467 4.003 C 11.445 4.001,11.591 4.003,11.693 4.050 M8.987 12.428 C 8.987 13.391,8.977 13.861,8.958 13.897 C 8.914 13.980,8.766 14.032,8.675 13.998 C 8.634 13.983,8.377 13.749,8.105 13.478 C 7.636 13.012,7.605 12.987,7.508 12.987 C 7.398 12.987,7.429 12.961,6.627 13.737 C 6.480 13.879,6.333 14.003,6.301 14.012 C 6.220 14.036,6.068 13.960,6.030 13.877 C 6.009 13.831,6.000 13.422,6.000 12.494 L 6.000 11.177 6.069 11.095 L 6.138 11.013 7.562 11.013 L 8.987 11.013 8.987 12.428 " stroke="none" fill-rule="evenodd" fill="black"></path></svg>