<svg xmlns="http://www.w3.org/2000/svg" width="16" height="16" viewBox="0 0 16 16"><path d="M7.467 0.017 C 5.118 0.192,3.024 1.327,1.608 3.193 C 0.799 4.260,0.296 5.477,0.073 6.906 C -0.009 7.429,-0.009 8.571,0.073 9.094 C 0.415 11.288,1.476 13.089,3.195 14.393 C 4.257 15.199,5.481 15.705,6.906 15.927 C 7.429 16.009,8.571 16.009,9.094 15.927 C 11.038 15.624,12.690 14.748,13.930 13.362 C 15.030 12.133,15.665 10.775,15.927 9.094 C 16.009 8.571,16.009 7.429,15.927 6.906 C 15.705 5.481,15.199 4.257,14.393 3.195 C 13.070 1.452,11.180 0.355,9.000 0.066 C 8.688 0.025,7.760 -0.005,7.467 0.017 M11.400 4.088 C 11.610 4.186,11.816 4.391,11.911 4.597 L 11.987 4.760 11.994 7.424 C 12.000 9.764,11.996 10.107,11.960 10.249 C 11.861 10.634,11.561 10.910,11.161 10.984 C 11.063 11.002,10.570 11.013,9.855 11.013 L 8.706 11.013 7.800 11.921 C 7.301 12.420,6.849 12.859,6.795 12.896 C 6.532 13.080,6.179 12.991,6.051 12.710 C 6.006 12.611,6.001 12.524,6.001 11.807 L 6.000 11.013 5.498 11.013 C 5.222 11.013,4.926 11.000,4.839 10.984 C 4.439 10.910,4.139 10.634,4.040 10.249 C 4.004 10.107,4.000 9.764,4.006 7.424 L 4.013 4.760 4.088 4.600 C 4.217 4.324,4.489 4.095,4.767 4.029 C 4.823 4.015,6.254 4.007,8.053 4.009 L 11.240 4.013 11.400 4.088 " stroke="none" fill-rule="evenodd" fill="black"></path></svg>