<svg xmlns="http://www.w3.org/2000/svg" width="16" height="16" viewBox="0 0 16 16"><path d="M7.467 0.017 C 5.118 0.192,3.024 1.327,1.608 3.193 C 0.799 4.260,0.296 5.477,0.073 6.906 C -0.009 7.429,-0.009 8.571,0.073 9.094 C 0.415 11.288,1.476 13.089,3.195 14.393 C 4.257 15.199,5.481 15.705,6.906 15.927 C 7.429 16.009,8.571 16.009,9.094 15.927 C 11.038 15.624,12.690 14.748,13.930 13.362 C 15.030 12.133,15.665 10.775,15.927 9.094 C 16.009 8.571,16.009 7.429,15.927 6.906 C 15.705 5.481,15.199 4.257,14.393 3.195 C 13.070 1.452,11.180 0.355,9.000 0.066 C 8.688 0.025,7.760 -0.005,7.467 0.017 M7.040 3.089 C 7.725 3.311,8.200 3.935,8.234 4.657 C 8.257 5.141,8.106 5.575,7.795 5.919 C 7.628 6.104,7.309 6.328,7.144 6.377 C 7.025 6.413,7.025 6.419,7.146 6.737 C 7.335 7.232,7.753 7.650,8.267 7.858 C 8.514 7.957,8.792 8.000,9.196 8.000 L 9.561 8.000 9.637 7.827 C 10.059 6.858,11.183 6.472,12.107 6.980 C 12.361 7.120,12.657 7.429,12.791 7.693 C 12.947 8.002,12.973 8.121,12.973 8.520 C 12.972 8.827,12.964 8.889,12.901 9.062 C 12.801 9.339,12.680 9.531,12.479 9.732 C 12.148 10.064,11.802 10.214,11.318 10.233 C 10.963 10.248,10.781 10.209,10.460 10.052 C 10.100 9.876,9.788 9.543,9.639 9.177 L 9.578 9.027 9.123 9.009 C 8.873 9.000,8.569 8.972,8.447 8.947 C 7.983 8.854,7.563 8.670,7.213 8.407 C 7.111 8.330,7.018 8.267,7.007 8.267 C 6.996 8.267,6.987 8.559,6.987 8.916 L 6.987 9.566 7.113 9.613 C 7.333 9.694,7.617 9.888,7.786 10.072 C 8.301 10.634,8.387 11.489,7.995 12.155 C 7.851 12.399,7.566 12.663,7.305 12.794 C 7.012 12.941,6.817 12.989,6.507 12.990 C 6.010 12.993,5.636 12.838,5.279 12.481 C 5.095 12.298,5.030 12.209,4.941 12.027 C 4.881 11.902,4.816 11.734,4.797 11.653 C 4.747 11.443,4.754 11.009,4.811 10.802 C 4.950 10.289,5.316 9.865,5.807 9.649 L 6.000 9.564 6.000 8.000 L 6.000 6.436 5.799 6.348 C 4.981 5.989,4.568 5.071,4.840 4.219 C 4.925 3.954,5.028 3.778,5.217 3.574 C 5.452 3.320,5.761 3.132,6.069 3.054 C 6.298 2.997,6.812 3.015,7.040 3.089 " stroke="none" fill-rule="evenodd" fill="black"></path></svg>