<svg xmlns="http://www.w3.org/2000/svg" width="16" height="16" viewBox="0 0 16 16"><path d="M7.467 0.017 C 5.118 0.192,3.024 1.327,1.608 3.193 C 0.799 4.260,0.296 5.477,0.073 6.906 C -0.009 7.429,-0.009 8.571,0.073 9.094 C 0.415 11.288,1.476 13.089,3.195 14.393 C 4.257 15.199,5.481 15.705,6.906 15.927 C 7.429 16.009,8.571 16.009,9.094 15.927 C 11.038 15.624,12.690 14.748,13.930 13.362 C 15.030 12.133,15.665 10.775,15.927 9.094 C 16.009 8.571,16.009 7.429,15.927 6.906 C 15.705 5.481,15.199 4.257,14.393 3.195 C 13.070 1.452,11.180 0.355,9.000 0.066 C 8.688 0.025,7.760 -0.005,7.467 0.017 M6.027 3.589 C 6.488 3.733,6.852 4.050,7.065 4.493 C 7.198 4.770,7.237 4.943,7.237 5.253 C 7.237 5.568,7.198 5.737,7.059 6.027 C 6.910 6.336,6.586 6.665,6.293 6.805 C 6.183 6.857,6.072 6.907,6.047 6.916 C 6.006 6.930,6.000 6.970,6.000 7.246 C 6.000 7.419,6.012 7.602,6.026 7.652 C 6.061 7.773,6.228 7.941,6.346 7.974 C 6.473 8.009,9.529 8.009,9.652 7.974 C 9.773 7.939,9.941 7.772,9.974 7.654 C 9.988 7.602,10.000 7.419,10.000 7.246 C 10.000 6.970,9.994 6.930,9.953 6.916 C 9.536 6.775,9.123 6.412,8.940 6.027 C 8.802 5.736,8.763 5.567,8.762 5.253 C 8.761 4.946,8.800 4.773,8.935 4.493 C 9.149 4.046,9.508 3.736,9.987 3.583 C 10.253 3.499,10.662 3.488,10.933 3.559 C 11.559 3.723,12.062 4.242,12.201 4.869 C 12.260 5.132,12.243 5.539,12.164 5.787 C 12.031 6.201,11.690 6.605,11.315 6.793 C 11.200 6.850,11.079 6.904,11.047 6.913 C 10.988 6.928,10.987 6.936,10.987 7.325 C 10.987 7.779,10.955 7.941,10.812 8.211 C 10.640 8.540,10.334 8.794,9.955 8.924 C 9.758 8.991,9.712 8.996,9.127 9.008 L 8.507 9.020 8.507 9.543 L 8.507 10.067 8.708 10.157 C 9.205 10.381,9.561 10.804,9.695 11.332 C 9.761 11.592,9.738 12.085,9.647 12.326 C 9.548 12.592,9.422 12.790,9.226 12.986 C 9.025 13.186,8.833 13.307,8.556 13.408 C 8.380 13.472,8.323 13.479,8.000 13.479 C 7.677 13.479,7.620 13.472,7.444 13.408 C 7.167 13.307,6.975 13.186,6.774 12.986 C 6.578 12.790,6.452 12.592,6.353 12.326 C 6.262 12.085,6.239 11.592,6.305 11.332 C 6.439 10.804,6.795 10.381,7.292 10.157 L 7.493 10.067 7.493 9.543 L 7.493 9.020 6.873 9.008 C 6.288 8.996,6.242 8.991,6.045 8.924 C 5.666 8.794,5.360 8.540,5.188 8.211 C 5.045 7.941,5.013 7.779,5.013 7.325 C 5.013 6.936,5.012 6.928,4.953 6.913 C 4.921 6.904,4.800 6.850,4.685 6.793 C 4.310 6.605,3.969 6.201,3.836 5.787 C 3.757 5.539,3.740 5.132,3.799 4.869 C 3.958 4.154,4.564 3.607,5.293 3.520 C 5.526 3.493,5.798 3.518,6.027 3.589 " stroke="none" fill-rule="evenodd" fill="black"></path></svg>