<svg xmlns="http://www.w3.org/2000/svg" width="16" height="16" viewBox="0 0 16 16"><path d="M7.467 0.017 C 5.118 0.192,3.024 1.327,1.608 3.193 C 0.799 4.260,0.296 5.477,0.073 6.906 C -0.009 7.429,-0.009 8.571,0.073 9.094 C 0.415 11.288,1.476 13.089,3.195 14.393 C 4.257 15.199,5.481 15.705,6.906 15.927 C 7.429 16.009,8.571 16.009,9.094 15.927 C 11.038 15.624,12.690 14.748,13.930 13.362 C 15.030 12.133,15.665 10.775,15.927 9.094 C 16.009 8.571,16.009 7.429,15.927 6.906 C 15.705 5.481,15.199 4.257,14.393 3.195 C 13.070 1.452,11.180 0.355,9.000 0.066 C 8.688 0.025,7.760 -0.005,7.467 0.017 M8.665 3.092 C 9.397 3.305,9.946 3.775,10.270 4.467 C 10.426 4.799,10.488 5.094,10.487 5.493 C 10.486 5.865,10.444 6.104,10.323 6.415 C 10.097 6.998,9.591 7.531,9.034 7.773 L 8.857 7.850 9.160 7.950 C 10.426 8.365,11.524 9.354,11.889 10.409 C 11.976 10.658,11.983 10.705,11.983 10.987 C 11.983 11.245,11.974 11.318,11.921 11.452 C 11.840 11.660,11.662 11.838,11.452 11.923 L 11.293 11.987 8.000 11.987 L 4.707 11.987 4.548 11.923 C 4.338 11.838,4.160 11.660,4.079 11.452 C 4.026 11.318,4.017 11.245,4.017 10.987 C 4.017 10.705,4.024 10.658,4.111 10.409 C 4.477 9.353,5.573 8.367,6.845 7.948 L 7.143 7.850 6.966 7.773 C 6.693 7.654,6.427 7.463,6.195 7.217 C 5.867 6.871,5.654 6.472,5.554 6.015 C 5.491 5.730,5.498 5.218,5.570 4.923 C 5.798 3.982,6.529 3.268,7.480 3.056 C 7.756 2.995,8.398 3.014,8.665 3.092 " stroke="none" fill-rule="evenodd" fill="black"></path></svg>