<svg xmlns="http://www.w3.org/2000/svg" width="16" height="16" viewBox="0 0 16 16"><path d="M7.467 0.017 C 5.118 0.192,3.024 1.327,1.608 3.193 C 0.799 4.260,0.296 5.477,0.073 6.906 C -0.009 7.429,-0.009 8.571,0.073 9.094 C 0.415 11.288,1.476 13.089,3.195 14.393 C 4.257 15.199,5.481 15.705,6.906 15.927 C 7.429 16.009,8.571 16.009,9.094 15.927 C 11.038 15.624,12.690 14.748,13.930 13.362 C 15.030 12.133,15.665 10.775,15.927 9.094 C 16.009 8.571,16.009 7.429,15.927 6.906 C 15.705 5.481,15.199 4.257,14.393 3.195 C 13.070 1.452,11.180 0.355,9.000 0.066 C 8.688 0.025,7.760 -0.005,7.467 0.017 M6.457 4.584 C 6.966 4.700,7.375 4.943,7.766 5.361 L 8.016 5.627 8.174 5.437 C 8.508 5.036,8.992 4.730,9.507 4.596 C 9.740 4.535,9.830 4.526,10.227 4.523 C 10.758 4.519,10.896 4.547,11.267 4.733 C 11.980 5.091,12.387 5.747,12.481 6.693 C 12.557 7.452,12.321 8.219,11.737 9.110 C 11.167 9.982,10.374 10.770,9.452 11.383 C 8.627 11.933,8.179 12.076,7.681 11.950 C 7.275 11.847,6.599 11.456,5.973 10.961 C 5.643 10.699,4.939 10.001,4.683 9.680 C 4.104 8.953,3.711 8.190,3.572 7.519 C 3.493 7.138,3.509 6.595,3.611 6.200 C 3.836 5.332,4.432 4.731,5.253 4.546 C 5.494 4.492,6.145 4.512,6.457 4.584 " stroke="none" fill-rule="evenodd" fill="black"></path></svg>