<svg xmlns="http://www.w3.org/2000/svg" width="16" height="16" viewBox="0 0 16 16"><path d="M7.467 0.017 C 5.118 0.192,3.024 1.327,1.608 3.193 C 0.799 4.260,0.296 5.477,0.073 6.906 C -0.009 7.429,-0.009 8.571,0.073 9.094 C 0.415 11.288,1.476 13.089,3.195 14.393 C 4.257 15.199,5.481 15.705,6.906 15.927 C 7.429 16.009,8.571 16.009,9.094 15.927 C 11.038 15.624,12.690 14.748,13.930 13.362 C 15.030 12.133,15.665 10.775,15.927 9.094 C 16.009 8.571,16.009 7.429,15.927 6.906 C 15.705 5.481,15.199 4.257,14.393 3.195 C 13.070 1.452,11.180 0.355,9.000 0.066 C 8.688 0.025,7.760 -0.005,7.467 0.017 M8.655 4.029 C 8.742 4.044,8.915 4.105,9.040 4.165 L 9.267 4.272 11.030 6.036 C 12.633 7.639,12.801 7.816,12.877 7.973 C 13.036 8.303,13.032 8.695,12.867 9.033 C 12.770 9.233,12.711 9.296,11.017 10.990 C 10.054 11.953,9.214 12.773,9.149 12.813 C 8.875 12.982,8.546 13.043,8.260 12.976 C 7.888 12.889,7.935 12.931,6.036 11.031 L 4.272 9.267 4.164 9.040 C 4.105 8.915,4.043 8.735,4.027 8.640 C 4.007 8.522,4.000 7.875,4.005 6.613 L 4.013 4.760 4.088 4.600 C 4.217 4.324,4.490 4.094,4.767 4.029 C 4.915 3.994,8.461 3.994,8.655 4.029 M6.260 5.825 C 5.890 5.957,5.695 6.372,5.826 6.746 C 5.950 7.097,6.342 7.294,6.706 7.188 C 6.988 7.106,7.227 6.793,7.227 6.507 C 7.227 6.388,7.151 6.174,7.069 6.061 C 6.958 5.908,6.708 5.786,6.509 5.788 C 6.427 5.788,6.315 5.805,6.260 5.825 " stroke="none" fill-rule="evenodd" fill="black"></path></svg>