<svg xmlns="http://www.w3.org/2000/svg" width="16" height="16" viewBox="0 0 16 16"><path d="M7.467 0.017 C 5.118 0.192,3.024 1.327,1.608 3.193 C 0.799 4.260,0.296 5.477,0.073 6.906 C -0.009 7.429,-0.009 8.571,0.073 9.094 C 0.415 11.288,1.476 13.089,3.195 14.393 C 4.257 15.199,5.481 15.705,6.906 15.927 C 7.429 16.009,8.571 16.009,9.094 15.927 C 11.038 15.624,12.690 14.748,13.930 13.362 C 15.030 12.133,15.665 10.775,15.927 9.094 C 16.009 8.571,16.009 7.429,15.927 6.906 C 15.705 5.481,15.199 4.257,14.393 3.195 C 13.070 1.452,11.180 0.355,9.000 0.066 C 8.688 0.025,7.760 -0.005,7.467 0.017 M8.219 3.057 C 8.259 3.077,8.322 3.133,8.359 3.180 C 8.397 3.228,8.697 3.813,9.027 4.480 C 9.357 5.147,9.636 5.696,9.647 5.699 C 9.658 5.702,10.261 5.790,10.987 5.894 C 11.713 5.998,12.345 6.095,12.392 6.110 C 12.575 6.167,12.718 6.360,12.719 6.553 C 12.721 6.755,12.671 6.814,11.639 7.816 C 11.089 8.349,10.640 8.796,10.640 8.808 C 10.640 8.821,10.743 9.427,10.869 10.155 C 11.018 11.021,11.093 11.524,11.086 11.606 C 11.064 11.848,10.819 12.048,10.576 12.020 C 10.500 12.012,10.089 11.809,9.243 11.364 C 8.569 11.010,8.010 10.720,8.000 10.720 C 7.989 10.720,7.434 11.008,6.766 11.359 C 6.098 11.710,5.520 12.006,5.482 12.015 C 5.203 12.085,4.907 11.849,4.907 11.557 C 4.907 11.503,5.009 10.866,5.133 10.143 C 5.258 9.419,5.360 8.818,5.360 8.807 C 5.360 8.795,4.915 8.354,4.371 7.826 C 3.762 7.236,3.361 6.826,3.328 6.762 C 3.211 6.534,3.320 6.235,3.557 6.133 C 3.625 6.104,4.183 6.012,5.018 5.892 L 6.369 5.697 6.984 4.451 C 7.627 3.152,7.680 3.064,7.860 3.025 C 7.901 3.016,7.945 3.005,7.960 3.001 C 8.003 2.988,8.141 3.018,8.219 3.057 " stroke="none" fill-rule="evenodd" fill="black"></path></svg>