<svg xmlns="http://www.w3.org/2000/svg" width="24" height="24" viewBox="0 0 24 24"><path d="M3.340 3.056 C 2.695 3.217,2.175 3.748,2.039 4.387 C 2.012 4.516,2.002 7.078,2.009 12.120 L 2.020 19.660 2.113 19.880 C 2.305 20.335,2.664 20.693,3.122 20.887 L 3.340 20.980 12.000 20.980 L 20.660 20.980 20.880 20.887 C 21.335 20.695,21.693 20.336,21.887 19.878 L 21.980 19.660 21.991 13.600 C 21.998 9.528,21.988 7.474,21.960 7.340 C 21.837 6.748,21.413 6.263,20.828 6.046 L 20.597 5.960 16.201 5.960 C 13.643 5.960,11.765 5.945,11.709 5.923 C 11.645 5.899,11.357 5.510,10.857 4.773 C 10.063 3.605,9.900 3.409,9.574 3.231 C 9.148 3.000,9.147 3.000,6.222 3.003 C 4.231 3.006,3.488 3.020,3.340 3.056 " stroke="none" fill-rule="evenodd" fill="black"></path></svg>