<svg xmlns="http://www.w3.org/2000/svg" width="24" height="24" viewBox="0 0 24 24"><path d="M1.691 2.594 C 1.068 2.810,0.629 3.338,0.522 4.000 C 0.465 4.359,0.464 19.638,0.522 20.000 C 0.645 20.771,1.229 21.355,2.000 21.478 C 2.361 21.536,21.639 21.536,22.000 21.478 C 22.771 21.355,23.355 20.771,23.478 20.000 C 23.535 19.640,23.535 4.360,23.478 4.000 C 23.385 3.419,23.030 2.938,22.501 2.677 L 22.222 2.540 12.061 2.531 C 2.356 2.523,1.891 2.526,1.691 2.594 M21.920 4.080 C 21.999 4.159,22.000 4.213,22.000 10.303 L 22.000 16.446 19.170 13.606 C 16.424 10.851,16.331 10.762,16.035 10.620 C 15.498 10.361,14.872 10.388,14.365 10.691 C 14.205 10.788,13.057 11.971,9.790 15.410 L 5.428 20.000 3.794 20.000 C 2.213 20.000,2.157 19.997,2.080 19.920 C 2.001 19.841,2.000 19.787,2.000 12.000 C 2.000 4.213,2.001 4.159,2.080 4.080 C 2.160 4.000,2.213 4.000,12.000 4.000 C 21.787 4.000,21.840 4.000,21.920 4.080 M6.660 6.057 C 5.155 6.357,4.093 7.569,4.012 9.081 C 3.952 10.197,4.462 11.247,5.380 11.900 C 6.667 12.814,8.419 12.663,9.541 11.541 C 10.234 10.848,10.595 9.828,10.479 8.890 C 10.338 7.757,9.690 6.849,8.646 6.323 C 8.112 6.054,7.255 5.939,6.660 6.057 M7.970 7.669 C 8.692 8.008,9.098 8.762,8.968 9.521 C 8.792 10.550,7.812 11.197,6.821 10.939 C 6.311 10.806,5.901 10.461,5.668 9.970 C 5.547 9.715,5.540 9.675,5.540 9.239 C 5.540 8.802,5.547 8.765,5.668 8.519 C 5.829 8.191,6.022 7.966,6.286 7.796 C 6.635 7.572,6.846 7.517,7.300 7.530 C 7.652 7.541,7.733 7.557,7.970 7.669 M18.669 15.250 L 22.000 18.579 22.000 19.210 C 22.000 19.787,21.993 19.847,21.920 19.920 C 21.841 19.999,21.787 20.000,14.676 20.000 L 7.512 20.000 7.714 19.779 C 8.562 18.851,15.144 11.960,15.195 11.947 C 15.231 11.937,15.278 11.927,15.299 11.925 C 15.321 11.922,16.838 13.418,18.669 15.250 " stroke="none" fill-rule="evenodd" fill="black"></path></svg>