<svg xmlns="http://www.w3.org/2000/svg" width="16" height="16" viewBox="0 0 16 16"><path d="M3.442 0.029 C 2.802 0.155,2.295 0.596,2.087 1.210 L 2.013 1.427 2.006 4.898 C 1.999 8.336,2.000 8.370,2.053 8.511 C 2.145 8.751,2.323 8.908,2.577 8.973 C 2.753 9.018,2.942 8.998,3.095 8.919 C 3.209 8.860,3.366 8.697,3.428 8.572 C 3.479 8.469,3.480 8.380,3.493 5.061 L 3.507 1.655 3.581 1.581 L 3.655 1.507 6.981 1.499 C 9.178 1.494,10.338 1.500,10.400 1.518 C 10.472 1.539,10.830 1.882,11.993 3.047 L 13.493 4.549 13.493 9.446 L 13.493 14.344 13.429 14.419 L 13.365 14.493 11.449 14.507 C 9.644 14.519,9.528 14.523,9.440 14.570 C 9.276 14.657,9.176 14.745,9.107 14.863 C 8.871 15.266,9.051 15.779,9.488 15.946 C 9.624 15.998,9.686 16.000,11.528 16.000 C 13.652 15.999,13.640 16.000,14.013 15.815 C 14.262 15.692,14.448 15.542,14.624 15.322 C 14.783 15.124,14.863 14.966,14.940 14.702 L 15.000 14.493 15.000 9.467 C 15.000 5.258,14.994 4.416,14.963 4.295 C 14.906 4.073,14.806 3.846,14.694 3.682 C 14.637 3.600,13.861 2.806,12.969 1.918 C 11.352 0.307,11.346 0.302,11.120 0.193 C 10.701 -0.009,10.899 -0.000,7.021 0.003 C 5.118 0.005,3.507 0.016,3.442 0.029 M5.087 8.931 L 5.000 9.009 4.993 10.250 L 4.985 11.492 2.779 11.499 L 0.573 11.507 0.421 11.581 C 0.175 11.702,0.029 11.921,0.007 12.199 C -0.021 12.561,0.212 12.878,0.573 12.972 C 0.709 13.008,1.028 13.013,2.858 13.013 L 4.985 13.013 4.992 14.253 L 5.000 15.492 5.073 15.565 C 5.129 15.621,5.172 15.639,5.254 15.639 C 5.361 15.639,5.375 15.625,7.001 13.999 C 8.619 12.381,8.640 12.358,8.640 12.253 C 8.640 12.149,8.619 12.126,6.993 10.500 C 5.496 9.003,5.338 8.853,5.260 8.853 C 5.203 8.853,5.145 8.879,5.087 8.931 " stroke="none" fill-rule="evenodd" fill="black"></path></svg>