<svg xmlns="http://www.w3.org/2000/svg" width="16" height="16" viewBox="0 0 16 16"><path d="M5.442 0.029 C 4.799 0.157,4.295 0.597,4.087 1.210 L 4.013 1.427 4.006 2.896 C 3.998 4.326,3.999 4.370,4.053 4.510 C 4.145 4.751,4.323 4.908,4.577 4.973 C 4.840 5.040,5.080 4.974,5.276 4.778 C 5.487 4.566,5.478 4.637,5.493 3.061 L 5.507 1.654 5.581 1.581 L 5.655 1.507 7.827 1.500 L 10.000 1.492 10.000 2.969 C 10.000 4.631,10.003 4.659,10.206 5.067 C 10.344 5.343,10.657 5.656,10.933 5.794 C 11.341 5.997,11.369 6.000,13.031 6.000 L 14.507 6.000 14.507 9.628 C 14.507 13.435,14.508 13.384,14.396 13.457 C 14.376 13.470,12.288 13.486,9.720 13.493 L 5.080 13.507 4.927 13.582 C 4.642 13.722,4.490 13.984,4.512 14.302 C 4.518 14.393,4.546 14.514,4.574 14.572 C 4.643 14.715,4.806 14.873,4.956 14.943 L 5.080 15.000 9.787 15.000 L 14.493 15.000 14.702 14.940 C 14.966 14.863,15.124 14.783,15.322 14.624 C 15.542 14.448,15.692 14.262,15.815 14.013 C 16.010 13.619,15.999 13.927,16.000 8.972 C 16.000 5.886,15.991 4.468,15.971 4.358 C 15.934 4.155,15.830 3.893,15.713 3.707 C 15.613 3.547,12.717 0.623,12.440 0.401 C 12.264 0.261,12.039 0.139,11.813 0.063 C 11.674 0.016,11.509 0.014,8.613 0.009 C 6.933 0.007,5.507 0.016,5.442 0.029 M13.113 4.501 C 12.391 4.505,11.763 4.502,11.718 4.494 C 11.672 4.486,11.606 4.448,11.571 4.411 L 11.507 4.342 11.499 2.951 L 11.492 1.560 12.960 3.027 L 14.427 4.493 13.113 4.501 M6.013 6.538 C 5.685 6.663,5.460 7.010,5.503 7.326 C 5.539 7.590,5.591 7.655,6.407 8.473 L 7.185 9.253 6.394 10.047 C 5.517 10.925,5.487 10.967,5.487 11.267 C 5.487 11.686,5.816 12.012,6.241 12.011 C 6.549 12.010,6.568 11.995,7.702 10.869 C 8.264 10.310,8.769 9.793,8.825 9.720 C 8.999 9.492,9.038 9.260,8.948 8.987 C 8.903 8.849,8.833 8.773,7.820 7.756 C 7.059 6.992,6.701 6.650,6.605 6.598 C 6.452 6.515,6.154 6.485,6.013 6.538 M2.413 6.597 C 2.309 6.647,2.043 6.900,1.183 7.764 C 0.160 8.793,0.083 8.876,0.040 9.010 C -0.020 9.196,-0.002 9.412,0.088 9.588 C 0.138 9.685,0.447 10.010,1.245 10.803 C 2.218 11.771,2.347 11.891,2.465 11.930 C 2.921 12.081,3.372 11.830,3.467 11.371 C 3.506 11.183,3.449 10.948,3.321 10.776 C 3.271 10.709,2.911 10.335,2.522 9.947 L 1.813 9.240 2.586 8.467 C 3.441 7.610,3.476 7.563,3.476 7.267 C 3.475 6.972,3.303 6.709,3.030 6.585 C 2.866 6.510,2.585 6.516,2.413 6.597 " stroke="none" fill-rule="evenodd" fill="black"></path></svg>