<svg xmlns="http://www.w3.org/2000/svg" width="24" height="24" viewBox="0 0 24 24"><path d="M4.580 1.047 C 3.859 1.185,3.199 1.848,3.044 2.592 C 2.986 2.873,2.983 9.276,3.041 9.485 C 3.102 9.704,3.384 9.947,3.620 9.982 C 4.026 10.043,4.392 9.795,4.476 9.400 C 4.506 9.262,4.520 8.163,4.520 5.994 L 4.520 2.792 4.656 2.656 L 4.792 2.520 9.136 2.520 L 13.480 2.520 13.481 4.510 C 13.481 5.605,13.499 6.623,13.521 6.773 C 13.646 7.637,14.363 8.354,15.227 8.479 C 15.377 8.501,16.395 8.519,17.490 8.519 L 19.480 8.520 19.480 14.857 L 19.480 21.194 19.377 21.316 C 19.321 21.383,19.209 21.456,19.127 21.479 C 19.029 21.506,16.564 21.520,11.768 21.520 C 4.670 21.520,4.554 21.521,4.402 21.599 C 4.112 21.747,3.967 22.041,4.018 22.380 C 4.053 22.616,4.296 22.898,4.515 22.959 C 4.727 23.018,19.124 23.015,19.408 22.956 C 20.158 22.799,20.799 22.158,20.956 21.408 C 20.987 21.258,21.000 19.095,21.000 13.986 C 21.000 6.043,21.017 6.576,20.752 6.063 C 20.646 5.859,20.273 5.468,18.403 3.597 C 16.531 1.725,16.142 1.354,15.936 1.248 C 15.437 0.990,15.706 1.001,9.980 1.005 C 6.874 1.007,4.700 1.024,4.580 1.047 M15.232 2.577 C 15.362 2.647,19.373 6.663,19.436 6.787 C 19.549 7.012,19.659 7.000,17.438 7.000 C 15.184 7.000,15.235 7.005,15.078 6.748 C 15.004 6.625,15.000 6.533,15.000 4.570 C 15.000 2.322,14.985 2.446,15.232 2.577 M3.653 12.087 C 3.511 12.166,0.591 14.848,0.212 15.246 C 0.061 15.405,-0.000 15.552,0.001 15.753 C 0.003 16.072,0.074 16.151,1.852 17.800 C 3.341 19.182,3.580 19.389,3.762 19.451 C 3.953 19.517,3.988 19.518,4.176 19.463 C 4.645 19.327,4.859 18.829,4.630 18.406 C 4.571 18.297,4.085 17.818,3.220 17.019 C 2.494 16.348,1.895 15.783,1.888 15.764 C 1.882 15.745,2.486 15.163,3.231 14.470 C 4.085 13.676,4.611 13.159,4.653 13.069 C 4.801 12.758,4.683 12.322,4.399 12.135 C 4.175 11.986,3.868 11.966,3.653 12.087 M8.687 12.086 C 8.355 12.250,8.188 12.702,8.331 13.046 C 8.373 13.146,8.800 13.570,9.757 14.460 C 10.508 15.159,11.118 15.746,11.112 15.764 C 11.105 15.782,10.506 16.347,9.780 17.020 C 8.931 17.806,8.428 18.301,8.370 18.407 C 8.138 18.834,8.362 19.340,8.838 19.463 C 9.243 19.568,9.231 19.577,11.020 17.920 C 11.900 17.104,12.686 16.368,12.767 16.283 C 13.056 15.981,13.072 15.565,12.807 15.271 C 12.500 14.931,9.507 12.176,9.351 12.090 C 9.144 11.976,8.911 11.975,8.687 12.086 " stroke="none" fill-rule="evenodd" fill="black"></path></svg>