<svg xmlns="http://www.w3.org/2000/svg" width="16" height="16" viewBox="0 0 16 16"><path d="M1.324 1.055 C 0.841 1.173,0.414 1.522,0.185 1.987 C -0.012 2.384,0.001 1.968,0.001 8.000 C 0.001 14.033,-0.012 13.617,0.185 14.013 C 0.418 14.483,0.788 14.792,1.294 14.939 L 1.507 15.000 8.000 15.000 L 14.493 15.000 14.702 14.940 C 14.966 14.863,15.124 14.783,15.322 14.624 C 15.643 14.367,15.881 13.990,15.960 13.613 C 16.019 13.333,16.019 4.667,15.960 4.387 C 15.827 3.752,15.293 3.203,14.664 3.054 C 14.517 3.020,14.019 3.014,11.000 3.012 C 8.363 3.011,7.486 3.003,7.421 2.978 C 7.353 2.954,7.226 2.802,6.836 2.280 C 6.561 1.913,6.274 1.553,6.198 1.480 C 6.024 1.314,5.822 1.190,5.569 1.098 L 5.373 1.027 3.427 1.022 C 1.814 1.018,1.453 1.023,1.324 1.055 M9.465 6.435 C 9.517 6.484,10.154 7.074,10.880 7.746 C 11.606 8.417,12.239 9.007,12.287 9.056 C 12.406 9.180,12.408 9.321,12.291 9.438 C 12.018 9.712,9.398 12.126,9.343 12.155 C 9.254 12.202,9.134 12.173,9.067 12.088 C 9.015 12.022,9.013 11.981,9.013 11.010 L 9.013 10.000 6.832 10.000 C 4.419 10.000,4.481 10.004,4.278 9.830 C 3.872 9.483,3.931 8.866,4.396 8.593 L 4.520 8.520 6.760 8.507 L 9.000 8.493 9.007 7.475 L 9.014 6.458 9.099 6.386 C 9.210 6.293,9.331 6.309,9.465 6.435 " stroke="none" fill-rule="evenodd" fill="black"></path></svg>