<svg xmlns="http://www.w3.org/2000/svg" width="24" height="24" viewBox="0 0 24 24"><path d="M3.340 3.056 C 2.695 3.217,2.175 3.748,2.039 4.387 C 2.012 4.516,2.002 7.078,2.009 12.120 L 2.020 19.660 2.113 19.880 C 2.305 20.335,2.664 20.693,3.122 20.887 L 3.340 20.980 12.000 20.980 L 20.660 20.980 20.880 20.887 C 21.335 20.695,21.693 20.336,21.887 19.878 L 21.980 19.660 21.991 13.620 C 21.998 9.597,21.988 7.516,21.961 7.387 C 21.821 6.732,21.271 6.186,20.608 6.045 C 20.458 6.013,19.116 6.000,16.045 6.000 L 11.694 6.000 11.612 5.910 C 11.567 5.861,11.206 5.334,10.811 4.740 C 10.079 3.641,9.852 3.369,9.527 3.204 C 9.132 3.002,9.093 3.000,6.222 3.003 C 4.231 3.006,3.488 3.020,3.340 3.056 M14.540 9.557 C 14.764 9.662,17.854 12.764,17.939 12.969 C 18.021 13.168,18.015 13.344,17.917 13.560 C 17.806 13.808,14.775 16.846,14.543 16.942 C 14.077 17.135,13.570 16.863,13.498 16.380 C 13.447 16.042,13.496 15.974,14.514 14.950 L 15.458 14.000 11.059 14.000 C 8.295 14.000,6.607 13.985,6.518 13.960 C 6.259 13.888,6.000 13.528,6.000 13.240 C 6.000 13.097,6.094 12.855,6.192 12.747 C 6.229 12.706,6.327 12.637,6.408 12.596 C 6.551 12.523,6.719 12.520,10.978 12.520 C 13.410 12.520,15.400 12.506,15.400 12.490 C 15.400 12.473,15.002 12.063,14.516 11.580 C 13.961 11.028,13.604 10.640,13.557 10.540 C 13.381 10.165,13.547 9.737,13.940 9.556 C 14.144 9.461,14.338 9.462,14.540 9.557 " stroke="none" fill-rule="evenodd" fill="black"></path></svg>