<svg xmlns="http://www.w3.org/2000/svg" width="24" height="24" viewBox="0 0 24 24"><path d="M4.580 1.047 C 3.859 1.185,3.199 1.848,3.044 2.592 C 2.982 2.892,2.982 21.108,3.044 21.408 C 3.201 22.158,3.842 22.799,4.592 22.956 C 4.716 22.982,5.238 23.000,5.852 22.999 C 7.027 22.998,7.130 22.978,7.332 22.714 C 7.634 22.318,7.479 21.733,7.027 21.563 C 6.959 21.537,6.539 21.520,5.967 21.520 C 5.445 21.520,4.954 21.501,4.873 21.479 C 4.791 21.456,4.679 21.383,4.623 21.316 L 4.520 21.194 4.520 11.993 L 4.520 2.792 4.656 2.656 L 4.792 2.520 9.959 2.520 C 13.649 2.520,15.150 2.533,15.213 2.564 C 15.337 2.627,19.353 6.638,19.423 6.768 C 19.472 6.861,19.480 7.892,19.480 14.035 L 19.480 21.194 19.377 21.316 C 19.321 21.383,19.209 21.456,19.127 21.479 C 19.039 21.503,18.389 21.520,17.508 21.520 C 16.301 21.520,16.016 21.530,15.924 21.578 C 15.772 21.657,15.566 21.897,15.537 22.031 C 15.524 22.091,15.507 22.160,15.500 22.185 C 15.472 22.279,15.569 22.584,15.668 22.714 C 15.881 22.993,15.917 22.998,17.648 22.999 C 18.627 23.000,19.274 22.984,19.408 22.956 C 20.158 22.799,20.799 22.158,20.956 21.408 C 20.987 21.258,21.000 19.095,21.000 13.986 C 21.000 6.043,21.017 6.576,20.752 6.063 C 20.646 5.859,20.273 5.468,18.403 3.597 C 16.531 1.725,16.142 1.354,15.936 1.248 C 15.437 0.990,15.706 1.001,9.980 1.005 C 6.874 1.007,4.700 1.024,4.580 1.047 M11.935 3.077 C 11.845 3.118,11.724 3.212,11.668 3.286 C 11.569 3.416,11.472 3.721,11.500 3.815 C 11.507 3.840,11.524 3.909,11.537 3.969 C 11.567 4.106,11.772 4.343,11.936 4.430 C 12.098 4.516,13.043 4.550,13.374 4.481 C 14.108 4.329,14.220 3.383,13.540 3.075 C 13.302 2.966,12.175 2.968,11.935 3.077 M9.394 4.601 C 9.110 4.751,8.968 5.046,9.018 5.380 C 9.053 5.616,9.296 5.898,9.515 5.959 C 9.595 5.981,9.939 5.999,10.280 5.999 C 10.984 5.998,11.150 5.953,11.332 5.714 C 11.634 5.318,11.479 4.733,11.027 4.563 C 10.963 4.538,10.620 4.521,10.227 4.522 C 9.627 4.523,9.521 4.533,9.394 4.601 M11.935 6.077 C 11.845 6.118,11.724 6.212,11.668 6.286 C 11.569 6.416,11.472 6.721,11.500 6.815 C 11.507 6.840,11.524 6.909,11.537 6.969 C 11.567 7.106,11.772 7.343,11.936 7.430 C 12.098 7.516,13.043 7.550,13.374 7.481 C 14.108 7.329,14.220 6.383,13.540 6.075 C 13.302 5.966,12.175 5.968,11.935 6.077 M9.394 7.601 C 9.110 7.751,8.968 8.046,9.018 8.380 C 9.053 8.616,9.296 8.898,9.515 8.959 C 9.595 8.981,9.939 8.999,10.280 8.999 C 10.984 8.998,11.150 8.953,11.332 8.714 C 11.634 8.318,11.479 7.733,11.027 7.563 C 10.963 7.538,10.620 7.521,10.227 7.522 C 9.627 7.523,9.521 7.533,9.394 7.601 M11.935 9.077 C 11.845 9.118,11.724 9.212,11.668 9.286 C 11.569 9.416,11.472 9.721,11.500 9.815 C 11.507 9.840,11.524 9.909,11.537 9.969 C 11.567 10.106,11.772 10.343,11.936 10.430 C 12.098 10.516,13.043 10.550,13.374 10.481 C 14.108 10.329,14.220 9.383,13.540 9.075 C 13.302 8.966,12.175 8.968,11.935 9.077 M9.394 10.601 C 9.110 10.751,8.968 11.046,9.018 11.380 C 9.053 11.616,9.296 11.898,9.515 11.959 C 9.595 11.981,9.939 11.999,10.280 11.999 C 10.984 11.998,11.150 11.953,11.332 11.714 C 11.634 11.318,11.479 10.733,11.027 10.563 C 10.963 10.538,10.620 10.521,10.227 10.522 C 9.627 10.523,9.521 10.533,9.394 10.601 M11.935 12.077 C 11.845 12.118,11.724 12.212,11.668 12.286 C 11.569 12.416,11.472 12.721,11.500 12.815 C 11.507 12.840,11.524 12.909,11.537 12.969 C 11.567 13.106,11.772 13.343,11.936 13.430 C 12.098 13.516,13.043 13.550,13.374 13.481 C 14.108 13.329,14.220 12.383,13.540 12.075 C 13.302 11.966,12.175 11.968,11.935 12.077 M9.394 13.601 C 9.110 13.751,8.968 14.046,9.018 14.380 C 9.053 14.616,9.296 14.898,9.515 14.959 C 9.595 14.981,9.939 14.999,10.280 14.999 C 10.984 14.998,11.150 14.953,11.332 14.714 C 11.634 14.318,11.479 13.733,11.027 13.563 C 10.963 13.538,10.620 13.521,10.227 13.522 C 9.627 13.523,9.521 13.533,9.394 13.601 M11.935 15.077 C 11.845 15.118,11.724 15.212,11.668 15.286 C 11.569 15.416,11.472 15.721,11.500 15.815 C 11.507 15.840,11.524 15.909,11.537 15.969 C 11.567 16.106,11.772 16.343,11.936 16.430 C 12.098 16.516,13.043 16.550,13.374 16.481 C 14.108 16.329,14.220 15.383,13.540 15.075 C 13.302 14.966,12.175 14.968,11.935 15.077 M10.580 17.047 C 9.859 17.185,9.199 17.848,9.044 18.592 C 8.987 18.866,8.983 23.280,9.039 23.478 C 9.091 23.659,9.342 23.911,9.519 23.960 C 9.707 24.013,13.293 24.013,13.481 23.960 C 13.658 23.911,13.909 23.659,13.961 23.478 C 14.017 23.280,14.013 18.866,13.956 18.592 C 13.797 17.830,13.138 17.181,12.383 17.043 C 12.097 16.991,10.860 16.994,10.580 17.047 M12.344 18.656 L 12.480 18.792 12.480 20.656 L 12.480 22.520 11.500 22.520 L 10.520 22.520 10.520 20.656 L 10.520 18.792 10.656 18.656 L 10.792 18.520 11.500 18.520 L 12.208 18.520 12.344 18.656 " stroke="none" fill-rule="evenodd" fill="black"></path></svg>