<svg xmlns="http://www.w3.org/2000/svg" width="24" height="24" viewBox="0 0 24 24"><path d="M4.580 1.047 C 3.859 1.185,3.199 1.848,3.044 2.592 C 2.982 2.892,2.982 21.108,3.044 21.408 C 3.201 22.158,3.842 22.799,4.592 22.956 C 4.892 23.018,19.108 23.018,19.408 22.956 C 20.158 22.799,20.799 22.158,20.956 21.408 C 20.987 21.258,21.000 19.095,21.000 13.986 C 21.000 6.043,21.017 6.576,20.752 6.063 C 20.646 5.859,20.273 5.468,18.403 3.597 C 16.531 1.725,16.142 1.354,15.936 1.248 C 15.437 0.990,15.706 1.001,9.980 1.005 C 6.874 1.007,4.700 1.024,4.580 1.047 M15.213 2.564 C 15.337 2.627,19.353 6.638,19.423 6.768 C 19.472 6.861,19.480 7.892,19.480 14.035 L 19.480 21.194 19.377 21.316 C 19.321 21.383,19.209 21.456,19.127 21.479 C 18.923 21.535,5.077 21.535,4.873 21.479 C 4.791 21.456,4.679 21.383,4.623 21.316 L 4.520 21.194 4.520 11.993 L 4.520 2.792 4.656 2.656 L 4.792 2.520 9.959 2.520 C 13.649 2.520,15.150 2.533,15.213 2.564 M11.460 6.076 C 11.257 6.170,11.089 6.348,11.039 6.523 C 11.018 6.598,11.000 7.185,11.000 7.830 L 11.000 9.000 9.810 9.001 C 8.474 9.002,8.418 9.012,8.172 9.292 C 7.818 9.695,8.058 10.360,8.600 10.476 C 8.720 10.502,9.257 10.520,9.902 10.520 L 11.000 10.520 11.001 11.710 C 11.002 13.043,11.017 13.127,11.286 13.332 C 11.416 13.431,11.721 13.528,11.815 13.500 C 11.840 13.493,11.909 13.476,11.969 13.463 C 12.105 13.433,12.342 13.229,12.432 13.064 C 12.491 12.957,12.502 12.778,12.513 11.733 L 12.525 10.525 13.733 10.513 C 14.778 10.502,14.957 10.491,15.064 10.432 C 15.229 10.342,15.433 10.105,15.463 9.969 C 15.476 9.909,15.493 9.840,15.500 9.815 C 15.528 9.721,15.431 9.416,15.332 9.286 C 15.127 9.017,15.043 9.002,13.710 9.001 L 12.520 9.000 12.519 7.890 C 12.518 7.273,12.500 6.700,12.477 6.601 C 12.367 6.126,11.887 5.878,11.460 6.076 M8.460 16.075 C 7.789 16.379,7.891 17.329,8.610 17.478 C 8.759 17.509,9.756 17.519,11.882 17.511 C 14.671 17.501,14.951 17.494,15.064 17.432 C 15.229 17.342,15.433 17.105,15.463 16.969 C 15.476 16.909,15.493 16.840,15.500 16.815 C 15.528 16.721,15.431 16.416,15.332 16.286 C 15.276 16.212,15.155 16.118,15.065 16.077 C 14.908 16.006,14.741 16.002,11.760 16.002 C 8.808 16.002,8.610 16.006,8.460 16.075 " stroke="none" fill-rule="evenodd" fill="black"></path></svg>