<svg xmlns="http://www.w3.org/2000/svg" width="16" height="16" viewBox="0 0 16 16"><path d="M2.436 0.029 C 2.246 0.061,2.038 0.142,1.847 0.260 C 1.647 0.384,1.536 0.482,1.377 0.677 C 1.221 0.868,1.137 1.033,1.060 1.298 L 1.000 1.507 1.000 8.000 L 1.000 14.493 1.061 14.706 C 1.208 15.212,1.517 15.582,1.987 15.815 C 2.383 16.012,1.967 15.999,8.000 15.999 C 14.032 15.999,13.616 16.012,14.013 15.815 C 14.262 15.692,14.448 15.542,14.624 15.322 C 14.783 15.124,14.863 14.966,14.940 14.702 L 15.000 14.493 15.000 9.467 C 15.000 5.258,14.994 4.416,14.963 4.295 C 14.906 4.073,14.806 3.846,14.694 3.682 C 14.637 3.600,13.861 2.806,12.969 1.918 C 11.352 0.307,11.346 0.302,11.120 0.193 C 10.698 -0.011,10.955 -0.000,6.528 0.003 C 4.353 0.005,2.511 0.017,2.436 0.029 M10.434 1.531 C 10.483 1.552,11.153 2.202,12.007 3.058 L 13.493 4.549 13.493 9.446 L 13.493 14.344 13.429 14.419 L 13.365 14.493 8.000 14.493 L 2.635 14.493 2.571 14.419 L 2.507 14.344 2.507 8.010 C 2.507 3.735,2.516 1.660,2.534 1.625 C 2.607 1.489,2.419 1.496,6.528 1.494 C 9.738 1.494,10.362 1.499,10.434 1.531 M7.741 3.297 C 7.566 3.359,7.373 3.549,7.308 3.722 C 7.257 3.858,7.253 3.927,7.253 4.679 L 7.253 5.489 6.407 5.498 L 5.560 5.507 5.427 5.578 C 4.857 5.881,4.862 6.644,5.435 6.926 L 5.587 7.000 6.420 7.009 L 7.253 7.017 7.253 7.824 C 7.253 8.726,7.263 8.788,7.431 8.985 C 7.580 9.159,7.759 9.239,8.000 9.239 C 8.241 9.239,8.420 9.159,8.569 8.985 C 8.737 8.788,8.747 8.726,8.747 7.824 L 8.747 7.017 9.580 7.009 L 10.413 7.000 10.565 6.926 C 11.137 6.645,11.142 5.880,10.573 5.578 L 10.440 5.507 9.593 5.498 L 8.747 5.489 8.747 4.679 C 8.747 3.724,8.735 3.664,8.505 3.457 C 8.290 3.264,8.004 3.204,7.741 3.297 M5.467 10.562 C 5.294 10.640,5.184 10.733,5.107 10.863 C 4.871 11.266,5.051 11.779,5.488 11.946 C 5.625 11.999,5.685 12.000,8.000 12.000 C 10.315 12.000,10.375 11.999,10.512 11.946 C 10.751 11.855,10.908 11.676,10.973 11.423 C 11.062 11.077,10.909 10.752,10.581 10.588 L 10.418 10.507 8.002 10.507 C 5.633 10.508,5.584 10.509,5.467 10.562 " stroke="none" fill-rule="evenodd" fill="black"></path></svg>