<svg xmlns="http://www.w3.org/2000/svg" width="16" height="16" viewBox="0 0 16 16"><path d="M1.324 1.055 C 0.841 1.173,0.414 1.522,0.185 1.987 C -0.012 2.384,0.001 1.968,0.001 8.000 C 0.001 14.033,-0.012 13.617,0.185 14.013 C 0.418 14.483,0.788 14.792,1.294 14.939 L 1.507 15.000 8.000 15.000 L 14.493 15.000 14.702 14.940 C 14.966 14.863,15.124 14.783,15.322 14.624 C 15.643 14.367,15.881 13.990,15.960 13.613 C 16.019 13.333,16.019 4.667,15.960 4.387 C 15.827 3.752,15.293 3.203,14.664 3.054 C 14.517 3.020,14.019 3.014,11.000 3.012 C 8.363 3.011,7.486 3.003,7.421 2.978 C 7.353 2.954,7.226 2.802,6.836 2.280 C 6.561 1.913,6.274 1.553,6.198 1.480 C 6.024 1.314,5.822 1.190,5.569 1.098 L 5.373 1.027 3.427 1.022 C 1.814 1.018,1.453 1.023,1.324 1.055 M5.107 2.524 C 5.131 2.533,5.369 2.830,5.634 3.184 C 5.900 3.537,6.172 3.886,6.239 3.958 C 6.407 4.139,6.697 4.322,6.963 4.415 L 7.187 4.493 10.773 4.507 C 12.746 4.514,14.376 4.530,14.396 4.543 C 14.509 4.616,14.507 4.528,14.507 9.000 C 14.507 13.564,14.512 13.393,14.377 13.465 C 14.303 13.504,1.699 13.505,1.625 13.466 C 1.486 13.391,1.493 13.702,1.493 8.000 C 1.493 2.323,1.487 2.613,1.620 2.535 C 1.672 2.505,5.030 2.494,5.107 2.524 " stroke="none" fill-rule="evenodd" fill="black"></path></svg>