<svg xmlns="http://www.w3.org/2000/svg" width="16" height="16" viewBox="0 0 16 16"><path d="M1.326 1.055 C 0.862 1.168,0.394 1.546,0.188 1.974 C -0.013 2.393,0.001 1.957,0.001 8.000 C 0.001 14.033,-0.012 13.617,0.185 14.013 C 0.418 14.483,0.788 14.792,1.294 14.939 L 1.507 15.000 7.493 15.000 C 14.224 15.000,13.596 15.020,14.052 14.796 C 14.227 14.710,14.324 14.639,14.479 14.483 C 14.808 14.152,14.938 13.851,15.002 13.280 C 15.024 13.082,15.198 11.594,15.389 9.973 C 15.593 8.251,15.732 6.977,15.724 6.906 C 15.686 6.565,15.467 6.256,15.152 6.101 L 14.974 6.013 8.761 6.000 L 2.547 5.987 2.421 5.925 C 2.201 5.816,2.034 5.573,2.008 5.321 C 1.978 5.033,2.129 4.750,2.396 4.593 L 2.520 4.520 8.263 4.513 L 14.006 4.506 13.994 4.126 C 13.984 3.790,13.975 3.730,13.915 3.600 C 13.815 3.384,13.653 3.217,13.446 3.114 L 13.268 3.027 10.465 3.013 C 8.026 3.002,7.655 2.995,7.613 2.960 C 7.586 2.938,7.334 2.613,7.052 2.238 C 6.771 1.863,6.476 1.500,6.397 1.430 C 6.231 1.284,5.897 1.112,5.668 1.054 C 5.441 0.996,1.564 0.997,1.326 1.055 " stroke="none" fill-rule="evenodd" fill="black"></path></svg>