<svg xmlns="http://www.w3.org/2000/svg" width="16" height="16" viewBox="0 0 16 16"><path d="M3.442 0.029 C 2.802 0.155,2.295 0.596,2.087 1.210 L 2.013 1.427 2.006 7.933 C 2.000 14.361,2.000 14.442,2.053 14.653 C 2.138 14.995,2.273 15.234,2.519 15.481 C 2.765 15.726,3.004 15.861,3.344 15.947 C 3.551 15.999,3.649 16.000,8.491 16.000 C 13.979 15.999,13.618 16.011,14.013 15.815 C 14.262 15.692,14.448 15.542,14.624 15.322 C 14.783 15.124,14.863 14.966,14.940 14.702 L 15.000 14.493 15.000 9.467 C 15.000 5.258,14.994 4.416,14.963 4.295 C 14.906 4.073,14.806 3.846,14.694 3.682 C 14.637 3.600,13.861 2.806,12.969 1.918 C 11.352 0.307,11.346 0.302,11.120 0.193 C 10.701 -0.009,10.899 -0.000,7.021 0.003 C 5.118 0.005,3.507 0.016,3.442 0.029 M8.993 3.007 C 9.003 4.486,9.005 4.524,9.064 4.720 C 9.214 5.218,9.523 5.585,9.987 5.815 C 10.350 5.995,10.392 5.999,12.033 6.000 L 13.493 6.000 13.493 10.172 L 13.493 14.344 13.429 14.419 L 13.365 14.493 8.510 14.493 L 3.655 14.493 3.581 14.419 L 3.507 14.345 3.507 8.002 C 3.507 1.696,3.507 1.659,3.560 1.600 C 3.589 1.567,3.637 1.531,3.667 1.519 C 3.696 1.507,4.904 1.496,6.352 1.495 L 8.983 1.493 8.993 3.007 M13.413 4.487 C 13.413 4.499,12.788 4.505,12.024 4.501 L 10.635 4.493 10.571 4.419 L 10.507 4.344 10.507 2.952 L 10.507 1.560 11.960 3.013 C 12.759 3.813,13.413 4.476,13.413 4.487 " stroke="none" fill-rule="evenodd" fill="black"></path></svg>