<svg xmlns="http://www.w3.org/2000/svg" width="16" height="16" viewBox="0 0 16 16"><path d="M3.442 0.029 C 2.802 0.155,2.295 0.596,2.087 1.210 L 2.013 1.427 2.006 7.933 C 2.000 14.361,2.000 14.442,2.053 14.653 C 2.138 14.995,2.273 15.234,2.519 15.481 C 2.765 15.726,3.004 15.861,3.344 15.947 C 3.551 15.999,3.649 16.000,8.491 16.000 C 13.979 15.999,13.618 16.011,14.013 15.815 C 14.262 15.692,14.448 15.542,14.624 15.322 C 14.783 15.124,14.863 14.966,14.940 14.702 L 15.000 14.493 15.000 9.467 C 15.000 5.258,14.994 4.416,14.963 4.295 C 14.906 4.073,14.806 3.846,14.694 3.682 C 14.637 3.600,13.861 2.806,12.969 1.918 C 11.352 0.307,11.346 0.302,11.120 0.193 C 10.701 -0.009,10.899 -0.000,7.021 0.003 C 5.118 0.005,3.507 0.016,3.442 0.029 M10.434 1.531 C 10.483 1.552,11.153 2.202,12.007 3.058 L 13.493 4.549 13.493 9.446 L 13.493 14.344 13.429 14.419 L 13.365 14.493 8.510 14.493 L 3.655 14.493 3.581 14.419 L 3.507 14.345 3.507 8.002 C 3.507 1.696,3.507 1.659,3.560 1.600 C 3.589 1.567,3.637 1.531,3.667 1.519 C 3.696 1.507,5.211 1.496,7.034 1.495 C 9.813 1.494,10.362 1.499,10.434 1.531 M6.760 7.518 C 5.803 7.533,5.770 7.535,5.662 7.593 C 5.523 7.667,5.380 7.812,5.317 7.942 C 5.290 7.997,5.264 8.122,5.258 8.229 C 5.245 8.471,5.314 8.643,5.491 8.808 C 5.724 9.027,5.574 9.016,8.269 9.007 C 10.629 9.000,10.655 8.999,10.775 8.944 C 11.060 8.812,11.237 8.549,11.236 8.256 C 11.236 7.965,11.084 7.721,10.813 7.578 L 10.680 7.507 9.213 7.505 C 8.407 7.504,7.303 7.510,6.760 7.518 " stroke="none" fill-rule="evenodd" fill="black"></path></svg>