<svg xmlns="http://www.w3.org/2000/svg" width="16" height="16" viewBox="0 0 16 16"><path d="M3.442 0.029 C 2.747 0.167,2.225 0.661,2.053 1.344 C 2.001 1.552,2.000 1.651,2.000 7.507 C 2.000 13.299,2.001 13.464,2.051 13.659 C 2.147 14.033,2.342 14.343,2.642 14.600 C 3.049 14.946,3.489 14.949,3.804 14.607 C 4.099 14.287,4.047 13.785,3.691 13.514 C 3.619 13.459,3.545 13.378,3.526 13.334 C 3.500 13.269,3.494 12.061,3.500 7.454 L 3.507 1.655 3.581 1.581 L 3.655 1.507 5.141 1.501 L 6.627 1.495 6.493 1.547 C 6.102 1.699,5.905 2.126,6.051 2.507 C 6.190 2.866,6.466 3.013,7.000 3.013 C 7.534 3.013,7.810 2.866,7.949 2.507 C 8.096 2.125,7.898 1.702,7.499 1.545 C 7.373 1.495,7.374 1.495,8.407 1.501 L 9.440 1.507 10.967 3.033 L 12.493 4.560 12.501 8.887 C 12.507 11.942,12.501 13.243,12.480 13.313 C 12.435 13.469,12.384 13.487,11.947 13.499 C 11.595 13.510,11.548 13.517,11.427 13.580 C 10.844 13.881,10.867 14.667,11.465 14.944 C 11.574 14.994,11.633 15.000,12.040 14.998 C 12.531 14.996,12.763 14.954,13.037 14.815 C 13.354 14.654,13.649 14.351,13.815 14.013 C 14.010 13.619,13.999 13.927,14.000 8.972 C 14.000 5.886,13.991 4.468,13.971 4.358 C 13.934 4.155,13.830 3.893,13.713 3.707 C 13.613 3.547,10.717 0.623,10.440 0.401 C 10.264 0.261,10.039 0.139,9.813 0.063 C 9.674 0.016,9.509 0.014,6.613 0.009 C 4.933 0.007,3.507 0.016,3.442 0.029 M8.440 3.076 C 8.044 3.261,7.888 3.736,8.100 4.113 C 8.265 4.407,8.493 4.507,9.000 4.507 C 9.507 4.507,9.735 4.407,9.900 4.113 C 10.112 3.736,9.956 3.261,9.560 3.076 C 9.438 3.019,9.391 3.014,9.000 3.014 C 8.609 3.014,8.562 3.019,8.440 3.076 M6.500 4.544 C 6.214 4.649,6.000 4.946,6.000 5.239 C 6.000 5.450,6.072 5.623,6.225 5.775 C 6.413 5.964,6.539 6.000,7.000 6.000 C 7.461 6.000,7.587 5.964,7.775 5.775 C 8.134 5.416,8.053 4.857,7.604 4.593 C 7.484 4.522,7.466 4.520,7.040 4.513 C 6.718 4.509,6.573 4.517,6.500 4.544 M8.525 6.037 C 7.997 6.232,7.831 6.830,8.192 7.240 C 8.388 7.462,8.448 7.480,9.000 7.480 C 9.552 7.480,9.612 7.462,9.808 7.240 C 10.133 6.871,10.034 6.335,9.596 6.092 C 9.457 6.015,9.443 6.013,9.040 6.007 C 8.738 6.002,8.599 6.010,8.525 6.037 M6.555 7.529 C 6.124 7.650,5.896 8.098,6.054 8.512 C 6.189 8.865,6.469 9.013,7.000 9.013 C 7.534 9.013,7.810 8.866,7.949 8.507 C 8.091 8.138,7.907 7.719,7.529 7.555 C 7.392 7.495,6.737 7.478,6.555 7.529 M8.440 9.076 C 8.044 9.261,7.888 9.736,8.100 10.113 C 8.265 10.407,8.493 10.507,9.000 10.507 C 9.507 10.507,9.735 10.407,9.900 10.113 C 10.112 9.736,9.956 9.261,9.560 9.076 C 9.438 9.019,9.391 9.014,9.000 9.014 C 8.609 9.014,8.562 9.019,8.440 9.076 M6.853 10.548 C 6.615 10.599,6.276 10.776,6.083 10.950 C 5.871 11.142,5.683 11.428,5.586 11.707 L 5.507 11.933 5.499 13.622 C 5.490 15.493,5.489 15.487,5.660 15.709 C 5.708 15.771,5.813 15.858,5.893 15.904 L 6.040 15.987 7.450 15.994 C 9.039 16.003,9.016 16.005,9.239 15.809 C 9.307 15.749,9.389 15.651,9.421 15.590 L 9.480 15.480 9.480 13.693 L 9.480 11.907 9.406 11.692 C 9.213 11.130,8.752 10.708,8.167 10.558 C 8.002 10.516,7.877 10.507,7.496 10.509 C 7.205 10.510,6.961 10.525,6.853 10.548 M7.926 12.074 L 7.987 12.135 7.994 13.321 L 8.002 14.507 7.507 14.507 L 7.013 14.507 7.013 13.322 L 7.013 12.138 7.098 12.067 C 7.181 11.997,7.187 11.996,7.524 12.005 C 7.837 12.013,7.870 12.018,7.926 12.074 " stroke="none" fill-rule="evenodd" fill="black"></path></svg>