<svg xmlns="http://www.w3.org/2000/svg" width="24" height="24" viewBox="0 0 24 24"><path d="M4.580 1.047 C 3.859 1.185,3.199 1.848,3.044 2.592 C 2.986 2.873,2.983 9.276,3.041 9.485 C 3.102 9.704,3.384 9.947,3.620 9.982 C 4.026 10.043,4.392 9.795,4.476 9.400 C 4.506 9.262,4.520 8.163,4.520 5.994 L 4.520 2.792 4.656 2.656 L 4.792 2.520 9.136 2.520 L 13.480 2.520 13.481 4.510 C 13.481 5.605,13.499 6.623,13.521 6.773 C 13.646 7.637,14.363 8.354,15.227 8.479 C 15.377 8.501,16.395 8.519,17.490 8.519 L 19.480 8.520 19.480 14.857 L 19.480 21.194 19.377 21.316 C 19.321 21.383,19.209 21.456,19.127 21.479 C 19.029 21.506,16.564 21.520,11.768 21.520 C 4.670 21.520,4.554 21.521,4.402 21.599 C 4.112 21.747,3.967 22.041,4.018 22.380 C 4.053 22.616,4.296 22.898,4.515 22.959 C 4.727 23.018,19.124 23.015,19.408 22.956 C 20.158 22.799,20.799 22.158,20.956 21.408 C 20.987 21.258,21.000 19.095,21.000 13.986 C 21.000 6.043,21.017 6.576,20.752 6.063 C 20.646 5.859,20.273 5.468,18.403 3.597 C 16.531 1.725,16.142 1.354,15.936 1.248 C 15.437 0.990,15.706 1.001,9.980 1.005 C 6.874 1.007,4.700 1.024,4.580 1.047 M15.232 2.577 C 15.362 2.647,19.373 6.663,19.436 6.787 C 19.549 7.012,19.659 7.000,17.438 7.000 C 15.184 7.000,15.235 7.005,15.078 6.748 C 15.004 6.625,15.000 6.533,15.000 4.570 C 15.000 2.322,14.985 2.446,15.232 2.577 M1.340 12.056 C 0.704 12.214,0.188 12.735,0.042 13.364 C 0.018 13.471,0.002 14.410,0.001 15.763 C -0.000 18.143,0.002 18.171,0.207 18.574 C 0.382 18.916,0.785 19.259,1.191 19.410 C 1.408 19.491,1.506 19.496,3.050 19.511 C 4.125 19.521,4.778 19.511,4.970 19.482 C 5.779 19.357,6.357 18.780,6.481 17.973 C 6.510 17.783,6.520 16.975,6.511 15.553 C 6.497 13.487,6.494 13.413,6.411 13.191 C 6.195 12.616,5.752 12.211,5.173 12.060 C 4.869 11.981,1.657 11.978,1.340 12.056 M8.698 12.075 C 8.368 12.225,8.186 12.580,8.273 12.905 C 8.340 13.155,8.423 13.267,8.636 13.392 C 8.818 13.499,8.831 13.500,9.650 13.513 L 10.480 13.527 10.480 15.763 L 10.480 18.000 9.670 18.001 C 8.971 18.002,8.838 18.012,8.698 18.075 C 8.368 18.225,8.186 18.580,8.273 18.905 C 8.340 19.155,8.423 19.267,8.636 19.392 L 8.820 19.500 11.240 19.500 C 13.581 19.500,13.665 19.497,13.817 19.420 C 13.904 19.376,14.030 19.271,14.097 19.186 C 14.207 19.049,14.220 19.004,14.220 18.763 C 14.220 18.428,14.097 18.214,13.830 18.085 C 13.669 18.007,13.589 18.000,12.827 18.000 L 12.000 18.000 12.000 15.330 C 12.000 13.701,11.984 12.605,11.960 12.518 C 11.939 12.440,11.862 12.320,11.790 12.250 C 11.539 12.007,11.490 12.000,10.111 12.001 C 8.984 12.002,8.844 12.009,8.698 12.075 M4.927 13.586 C 4.996 13.649,5.000 13.769,5.000 15.746 C 5.000 17.787,4.998 17.842,4.920 17.920 C 4.843 17.997,4.787 18.000,3.253 18.000 C 1.833 18.000,1.659 17.993,1.593 17.934 C 1.524 17.871,1.520 17.750,1.520 15.742 C 1.520 14.142,1.532 13.604,1.568 13.568 C 1.604 13.532,2.029 13.520,3.235 13.520 C 4.685 13.520,4.861 13.527,4.927 13.586 " stroke="none" fill-rule="evenodd" fill="black"></path></svg>