<svg xmlns="http://www.w3.org/2000/svg" width="24" height="24" viewBox="0 0 24 24"><path d="M4.580 1.047 C 3.859 1.185,3.199 1.848,3.044 2.592 C 2.982 2.892,2.982 21.108,3.044 21.408 C 3.201 22.158,3.842 22.799,4.592 22.956 C 4.892 23.018,19.108 23.018,19.408 22.956 C 20.158 22.799,20.799 22.158,20.956 21.408 C 20.987 21.258,21.000 19.095,21.000 13.986 C 21.000 6.043,21.017 6.576,20.752 6.063 C 20.646 5.859,20.273 5.468,18.403 3.597 C 16.531 1.725,16.142 1.354,15.936 1.248 C 15.437 0.990,15.706 1.001,9.980 1.005 C 6.874 1.007,4.700 1.024,4.580 1.047 M13.481 4.510 C 13.481 5.605,13.499 6.623,13.521 6.773 C 13.646 7.637,14.363 8.354,15.227 8.479 C 15.377 8.501,16.395 8.519,17.490 8.519 L 19.480 8.520 19.480 14.857 L 19.480 21.194 19.377 21.316 C 19.321 21.383,19.209 21.456,19.127 21.479 C 18.923 21.535,5.077 21.535,4.873 21.479 C 4.791 21.456,4.679 21.383,4.623 21.316 L 4.520 21.194 4.520 11.993 L 4.520 2.792 4.656 2.656 L 4.792 2.520 9.136 2.520 L 13.480 2.520 13.481 4.510 M15.232 2.577 C 15.362 2.647,19.373 6.663,19.436 6.787 C 19.549 7.012,19.659 7.000,17.438 7.000 C 15.184 7.000,15.235 7.005,15.078 6.748 C 15.004 6.625,15.000 6.533,15.000 4.570 C 15.000 2.322,14.985 2.446,15.232 2.577 " stroke="none" fill-rule="evenodd" fill="black"></path></svg>