<svg xmlns="http://www.w3.org/2000/svg" width="24" height="24" viewBox="0 0 24 24"><path d="M4.580 1.047 C 3.859 1.185,3.199 1.848,3.044 2.592 C 2.986 2.873,2.983 9.276,3.041 9.485 C 3.102 9.704,3.384 9.947,3.620 9.982 C 4.026 10.043,4.392 9.795,4.476 9.400 C 4.506 9.262,4.520 8.163,4.520 5.994 L 4.520 2.792 4.656 2.656 L 4.792 2.520 9.136 2.520 L 13.480 2.520 13.481 4.510 C 13.481 5.605,13.499 6.623,13.521 6.773 C 13.646 7.637,14.363 8.354,15.227 8.479 C 15.377 8.501,16.395 8.519,17.490 8.519 L 19.480 8.520 19.480 14.857 L 19.480 21.194 19.377 21.316 C 19.321 21.383,19.209 21.456,19.127 21.479 C 19.029 21.506,16.564 21.520,11.768 21.520 C 4.670 21.520,4.554 21.521,4.402 21.599 C 4.112 21.747,3.967 22.041,4.018 22.380 C 4.053 22.616,4.296 22.898,4.515 22.959 C 4.727 23.018,19.124 23.015,19.408 22.956 C 20.158 22.799,20.799 22.158,20.956 21.408 C 20.987 21.258,21.000 19.095,21.000 13.986 C 21.000 6.043,21.017 6.576,20.752 6.063 C 20.646 5.859,20.273 5.468,18.403 3.597 C 16.531 1.725,16.142 1.354,15.936 1.248 C 15.437 0.990,15.706 1.001,9.980 1.005 C 6.874 1.007,4.700 1.024,4.580 1.047 M15.232 2.577 C 15.362 2.647,19.373 6.663,19.436 6.787 C 19.549 7.012,19.659 7.000,17.438 7.000 C 15.184 7.000,15.235 7.005,15.078 6.748 C 15.004 6.625,15.000 6.533,15.000 4.570 C 15.000 2.322,14.985 2.446,15.232 2.577 M7.420 11.067 C 7.244 11.160,7.161 11.242,7.076 11.408 C 6.982 11.593,6.980 11.896,7.072 12.067 C 7.109 12.137,7.617 12.702,8.200 13.322 C 8.783 13.942,9.266 14.464,9.273 14.483 C 9.280 14.501,7.948 14.522,6.313 14.529 L 3.340 14.541 2.980 14.653 C 1.637 15.069,0.654 16.006,0.217 17.289 C 0.018 17.871,-0.000 18.108,0.001 20.075 C 0.002 21.771,0.007 21.912,0.077 22.065 C 0.118 22.155,0.212 22.276,0.286 22.332 C 0.416 22.431,0.721 22.528,0.815 22.500 C 0.840 22.493,0.909 22.476,0.969 22.463 C 1.105 22.433,1.342 22.229,1.432 22.064 C 1.493 21.954,1.502 21.724,1.521 19.980 C 1.540 18.212,1.549 18.000,1.615 17.820 C 1.872 17.116,2.331 16.579,2.920 16.291 C 3.517 15.998,3.538 15.997,6.595 16.009 L 9.290 16.020 8.200 17.177 C 7.600 17.814,7.085 18.394,7.055 18.466 C 6.931 18.762,7.010 19.095,7.253 19.309 C 7.523 19.546,7.847 19.575,8.126 19.388 C 8.199 19.338,9.029 18.482,9.968 17.485 C 11.806 15.535,11.836 15.497,11.784 15.151 C 11.770 15.056,11.727 14.932,11.689 14.874 C 11.651 14.817,10.849 13.950,9.906 12.948 C 8.583 11.540,8.157 11.111,8.036 11.063 C 7.837 10.983,7.575 10.985,7.420 11.067 " stroke="none" fill-rule="evenodd" fill="black"></path></svg>