<svg xmlns="http://www.w3.org/2000/svg" width="16" height="16" viewBox="0 0 16 16"><path d="M1.324 1.055 C 0.988 1.137,0.632 1.364,0.400 1.642 C 0.252 1.820,0.087 2.160,0.040 2.387 C -0.019 2.667,-0.019 13.333,0.040 13.613 C 0.119 13.990,0.357 14.367,0.678 14.624 C 0.876 14.783,1.034 14.863,1.298 14.940 L 1.507 15.000 8.000 15.000 L 14.493 15.000 14.702 14.940 C 14.966 14.863,15.124 14.783,15.322 14.624 C 15.643 14.367,15.881 13.990,15.960 13.613 C 16.019 13.333,16.019 4.667,15.960 4.387 C 15.827 3.752,15.293 3.203,14.664 3.054 C 14.517 3.020,14.019 3.014,11.000 3.012 C 8.363 3.011,7.486 3.003,7.421 2.978 C 7.353 2.954,7.226 2.802,6.836 2.280 C 6.561 1.913,6.274 1.553,6.198 1.480 C 6.024 1.314,5.822 1.190,5.569 1.098 L 5.373 1.027 3.427 1.022 C 1.814 1.018,1.453 1.023,1.324 1.055 " stroke="none" fill-rule="evenodd" fill="black"></path></svg>