<svg xmlns="http://www.w3.org/2000/svg" width="16" height="16" viewBox="0 0 16 16"><path d="M3.442 0.029 C 2.799 0.157,2.295 0.596,2.087 1.210 L 2.013 1.427 2.013 3.067 L 2.013 4.707 2.092 4.849 C 2.390 5.386,3.150 5.377,3.418 4.833 L 3.480 4.707 3.493 3.181 L 3.507 1.654 3.581 1.581 L 3.655 1.507 5.827 1.500 L 8.000 1.492 8.000 2.969 C 8.000 4.631,8.003 4.659,8.206 5.067 C 8.344 5.343,8.657 5.656,8.933 5.794 C 9.341 5.997,9.369 6.000,11.031 6.000 L 12.507 6.000 12.507 9.628 C 12.507 13.435,12.508 13.384,12.396 13.457 C 12.376 13.470,10.722 13.486,8.720 13.493 L 5.080 13.507 4.927 13.582 C 4.642 13.722,4.490 13.984,4.512 14.302 C 4.518 14.393,4.546 14.514,4.574 14.572 C 4.643 14.715,4.806 14.873,4.956 14.943 L 5.080 15.000 8.787 15.000 L 12.493 15.000 12.702 14.940 C 12.966 14.863,13.124 14.783,13.322 14.624 C 13.542 14.448,13.692 14.262,13.815 14.013 C 14.010 13.619,13.999 13.927,14.000 8.972 C 14.000 5.886,13.991 4.468,13.971 4.358 C 13.934 4.155,13.830 3.893,13.713 3.707 C 13.613 3.547,10.717 0.623,10.440 0.401 C 10.264 0.261,10.039 0.139,9.813 0.063 C 9.674 0.016,9.509 0.014,6.613 0.009 C 4.933 0.007,3.507 0.016,3.442 0.029 M11.113 4.501 C 10.391 4.505,9.763 4.502,9.718 4.494 C 9.672 4.486,9.606 4.448,9.571 4.411 L 9.507 4.342 9.499 2.951 L 9.492 1.560 10.960 3.027 L 12.427 4.493 11.113 4.501 M4.125 6.363 C 4.084 6.385,4.039 6.433,4.025 6.470 C 4.011 6.508,4.000 6.955,4.000 7.505 L 4.000 8.474 3.673 8.492 C 3.101 8.524,2.698 8.611,2.271 8.797 C 1.283 9.225,0.536 10.037,0.200 11.049 C 0.034 11.551,0.021 11.646,0.007 12.524 C -0.008 13.496,0.002 13.552,0.224 13.775 C 0.513 14.063,0.934 14.077,1.240 13.808 C 1.472 13.603,1.476 13.589,1.497 12.693 C 1.513 12.018,1.523 11.877,1.571 11.693 C 1.838 10.680,2.711 10.000,3.746 10.000 L 4.000 10.000 4.000 10.988 C 4.000 11.809,4.007 11.989,4.040 12.052 C 4.088 12.145,4.228 12.200,4.325 12.163 C 4.431 12.123,7.352 9.396,7.371 9.320 C 7.380 9.283,7.380 9.223,7.371 9.185 C 7.359 9.140,6.852 8.650,5.883 7.749 C 5.075 6.998,4.387 6.368,4.355 6.351 C 4.278 6.310,4.216 6.313,4.125 6.363 " stroke="none" fill-rule="evenodd" fill="black"></path></svg>