<svg xmlns="http://www.w3.org/2000/svg" width="16" height="16" viewBox="0 0 16 16"><path d="M5.442 0.029 C 4.799 0.157,4.295 0.596,4.087 1.210 L 4.013 1.427 4.013 2.693 L 4.013 3.960 4.096 4.107 C 4.339 4.538,4.883 4.626,5.260 4.296 C 5.313 4.249,5.384 4.155,5.418 4.085 C 5.479 3.962,5.480 3.946,5.493 2.807 L 5.507 1.654 5.581 1.581 L 5.655 1.507 7.827 1.500 L 10.000 1.492 10.000 2.969 C 10.000 4.631,10.003 4.659,10.206 5.067 C 10.344 5.343,10.657 5.656,10.933 5.794 C 11.341 5.997,11.369 6.000,13.031 6.000 L 14.507 6.000 14.507 9.628 C 14.507 13.435,14.508 13.384,14.396 13.457 C 14.376 13.470,12.288 13.486,9.720 13.493 L 5.080 13.507 4.927 13.582 C 4.642 13.722,4.490 13.984,4.512 14.302 C 4.518 14.393,4.546 14.514,4.574 14.572 C 4.643 14.715,4.806 14.873,4.956 14.943 L 5.080 15.000 9.787 15.000 L 14.493 15.000 14.702 14.940 C 14.966 14.863,15.124 14.783,15.322 14.624 C 15.542 14.448,15.692 14.262,15.815 14.013 C 16.010 13.619,15.999 13.927,16.000 8.972 C 16.000 5.886,15.991 4.468,15.971 4.358 C 15.934 4.155,15.830 3.893,15.713 3.707 C 15.613 3.547,12.717 0.623,12.440 0.401 C 12.264 0.261,12.039 0.139,11.813 0.063 C 11.674 0.016,11.509 0.014,8.613 0.009 C 6.933 0.007,5.507 0.016,5.442 0.029 M13.113 4.501 C 12.391 4.505,11.763 4.502,11.718 4.494 C 11.672 4.486,11.606 4.448,11.571 4.411 L 11.507 4.342 11.499 2.951 L 11.492 1.560 12.960 3.027 L 14.427 4.493 13.113 4.501 M1.442 6.028 C 0.795 6.160,0.295 6.597,0.087 7.210 L 0.013 7.427 0.006 8.930 C -0.002 10.366,0.000 10.443,0.052 10.650 C 0.138 10.995,0.272 11.233,0.519 11.481 C 0.765 11.726,1.004 11.861,1.344 11.947 C 1.535 11.995,1.644 12.000,2.491 12.000 C 3.555 11.999,3.670 11.985,4.013 11.815 C 4.262 11.692,4.448 11.542,4.624 11.322 C 4.783 11.124,4.863 10.966,4.940 10.702 C 4.999 10.496,5.000 10.472,5.000 9.013 C 5.000 7.665,4.996 7.516,4.951 7.343 C 4.798 6.745,4.357 6.276,3.760 6.074 C 3.595 6.019,3.537 6.016,2.573 6.010 C 2.016 6.007,1.507 6.015,1.442 6.028 M6.525 6.038 C 5.999 6.226,5.831 6.830,6.192 7.240 C 6.385 7.459,6.448 7.479,7.007 7.489 L 7.493 7.498 7.493 9.000 L 7.493 10.502 7.007 10.511 C 6.532 10.520,6.517 10.522,6.396 10.593 C 5.947 10.857,5.866 11.416,6.225 11.776 C 6.460 12.010,6.393 12.003,8.310 11.994 L 9.960 11.987 10.107 11.904 C 10.369 11.756,10.533 11.449,10.496 11.176 C 10.472 11.001,10.361 10.790,10.235 10.682 C 10.061 10.533,9.944 10.507,9.449 10.507 L 9.013 10.507 9.013 8.619 C 9.013 7.018,9.007 6.708,8.973 6.576 C 8.905 6.315,8.740 6.133,8.496 6.049 C 8.377 6.008,8.252 6.002,7.493 6.002 C 6.833 6.002,6.603 6.011,6.525 6.038 M3.361 7.534 C 3.403 7.556,3.451 7.597,3.466 7.625 C 3.484 7.658,3.493 8.146,3.493 9.010 L 3.493 10.344 3.429 10.419 L 3.365 10.493 2.510 10.493 L 1.655 10.493 1.581 10.419 L 1.507 10.345 1.507 9.002 C 1.507 7.696,1.508 7.657,1.560 7.600 C 1.589 7.567,1.637 7.531,1.667 7.519 C 1.696 7.507,2.072 7.496,2.501 7.495 C 3.148 7.494,3.296 7.500,3.361 7.534 " stroke="none" fill-rule="evenodd" fill="black"></path></svg>