<svg xmlns="http://www.w3.org/2000/svg" width="16" height="16" viewBox="0 0 16 16"><path d="M0.440 3.076 C 0.264 3.158,0.099 3.341,0.040 3.519 C -0.090 3.912,0.139 4.347,0.539 4.466 C 0.661 4.502,1.513 4.507,8.000 4.507 C 14.487 4.507,15.339 4.502,15.461 4.466 C 15.861 4.347,16.090 3.912,15.960 3.519 C 15.901 3.341,15.736 3.158,15.560 3.076 L 15.427 3.014 8.000 3.014 L 0.573 3.014 0.440 3.076 M3.420 7.082 C 2.952 7.315,2.860 7.940,3.241 8.292 C 3.482 8.513,3.009 8.493,8.000 8.493 C 12.991 8.493,12.518 8.513,12.759 8.292 C 13.139 7.941,13.047 7.314,12.580 7.082 L 12.443 7.013 8.000 7.013 L 3.557 7.013 3.420 7.082 M6.440 11.076 C 6.264 11.158,6.099 11.341,6.040 11.519 C 5.910 11.912,6.139 12.347,6.539 12.466 C 6.743 12.526,9.257 12.526,9.461 12.466 C 9.861 12.347,10.090 11.912,9.960 11.519 C 9.901 11.341,9.736 11.158,9.560 11.076 L 9.427 11.014 8.000 11.014 L 6.573 11.014 6.440 11.076 " stroke="none" fill-rule="evenodd" fill="black"></path></svg>