<svg xmlns="http://www.w3.org/2000/svg" width="24" height="24" viewBox="0 0 24 24"><path d="M2.460 6.075 C 1.795 6.376,1.890 7.324,2.600 7.476 C 2.889 7.538,21.111 7.538,21.400 7.476 C 22.110 7.324,22.205 6.376,21.540 6.075 C 21.387 6.005,20.987 6.002,12.000 6.002 C 3.013 6.002,2.613 6.005,2.460 6.075 M6.460 11.075 C 5.795 11.376,5.890 12.324,6.600 12.476 C 6.887 12.538,17.113 12.538,17.400 12.476 C 18.110 12.324,18.205 11.376,17.540 11.075 C 17.388 11.005,17.118 11.002,12.000 11.002 C 6.882 11.002,6.612 11.005,6.460 11.075 M10.409 16.026 C 9.996 16.232,9.874 16.808,10.172 17.148 C 10.423 17.433,10.453 17.438,12.002 17.439 C 13.356 17.440,13.386 17.438,13.559 17.350 C 14.073 17.088,14.145 16.436,13.698 16.096 L 13.546 15.980 12.043 15.970 C 10.719 15.962,10.524 15.968,10.409 16.026 " stroke="none" fill-rule="evenodd" fill="black"></path></svg>