<svg xmlns="http://www.w3.org/2000/svg" width="24" height="24" viewBox="0 0 24 24"><path d="M13.220 1.216 C 11.730 1.760,10.332 2.930,9.501 4.327 C 9.236 4.772,8.980 5.418,8.850 5.966 C 8.755 6.370,8.743 6.498,8.744 7.120 C 8.745 7.685,8.762 7.899,8.833 8.226 C 8.941 8.729,9.138 9.302,9.401 9.874 C 9.884 10.926,9.870 11.594,9.354 12.058 C 8.878 12.486,8.239 12.454,7.683 11.975 C 7.401 11.731,7.049 11.220,6.792 10.680 C 6.466 9.994,6.465 9.991,6.318 9.890 C 6.139 9.766,5.915 9.772,5.684 9.907 C 4.817 10.410,4.042 11.410,3.642 12.540 C 3.313 13.470,3.192 14.382,3.272 15.330 C 3.444 17.368,4.242 19.065,5.684 20.458 C 7.172 21.896,9.083 22.745,11.320 22.962 C 11.923 23.021,13.002 22.991,13.598 22.899 C 17.209 22.342,19.884 19.879,20.579 16.474 C 20.928 14.762,20.734 12.984,20.050 11.622 C 19.595 10.714,19.115 10.102,17.620 8.520 C 16.053 6.863,15.534 6.182,15.016 5.104 C 14.561 4.158,14.281 2.955,14.280 1.945 C 14.280 1.542,14.220 1.346,14.052 1.198 C 13.873 1.041,13.686 1.045,13.220 1.216 M12.989 3.471 C 13.366 5.313,14.178 6.895,15.573 8.500 C 15.726 8.676,16.189 9.180,16.601 9.620 C 17.590 10.675,17.947 11.094,18.285 11.596 C 18.942 12.572,19.189 13.341,19.228 14.540 C 19.292 16.486,18.656 18.146,17.341 19.462 C 16.261 20.544,14.981 21.171,13.339 21.421 C 12.748 21.511,11.653 21.512,11.024 21.423 C 7.843 20.973,5.446 18.856,4.872 15.989 C 4.751 15.383,4.742 14.236,4.855 13.720 C 4.989 13.106,5.318 12.342,5.593 12.007 L 5.702 11.875 5.928 12.207 C 6.350 12.828,6.782 13.239,7.323 13.534 C 7.973 13.888,8.705 13.963,9.374 13.744 C 9.827 13.596,10.226 13.335,10.572 12.960 C 11.037 12.457,11.249 11.887,11.247 11.140 C 11.246 10.482,11.118 10.010,10.684 9.054 C 10.396 8.418,10.276 7.937,10.250 7.309 C 10.226 6.709,10.277 6.330,10.448 5.841 C 10.788 4.870,11.572 3.906,12.573 3.225 C 12.722 3.123,12.858 3.040,12.873 3.040 C 12.889 3.040,12.941 3.234,12.989 3.471 " stroke="none" fill-rule="evenodd" fill="black"></path></svg>