<svg xmlns="http://www.w3.org/2000/svg" width="16" height="16" viewBox="0 0 16 16"><path d="M8.782 0.148 C 8.271 0.285,7.413 0.836,6.865 1.378 C 5.429 2.798,5.096 4.591,5.938 6.372 C 6.105 6.724,6.183 6.953,6.215 7.186 C 6.246 7.412,6.215 7.654,6.133 7.812 C 6.007 8.057,5.696 8.240,5.371 8.261 C 4.785 8.299,4.290 7.932,3.988 7.238 C 3.829 6.872,3.648 6.684,3.389 6.614 C 3.218 6.568,3.088 6.602,2.905 6.739 C 2.450 7.081,1.973 7.810,1.736 8.527 C 1.336 9.736,1.454 11.212,2.052 12.467 C 2.933 14.317,4.724 15.580,6.960 15.927 C 7.401 15.995,8.466 16.009,8.880 15.951 C 11.137 15.635,12.953 14.418,13.880 12.600 C 14.445 11.492,14.633 10.186,14.400 8.980 C 14.321 8.570,14.208 8.248,13.986 7.800 C 13.644 7.111,13.348 6.743,12.173 5.548 C 11.336 4.696,11.047 4.376,10.750 3.974 C 10.126 3.131,9.743 2.209,9.598 1.205 C 9.495 0.484,9.435 0.327,9.215 0.201 C 9.069 0.118,8.948 0.103,8.782 0.148 M8.267 2.201 C 8.267 2.278,8.553 3.107,8.678 3.389 C 9.014 4.153,9.555 4.957,10.237 5.706 C 10.363 5.845,10.791 6.289,11.187 6.693 C 12.198 7.724,12.407 7.981,12.667 8.519 C 12.925 9.053,13.002 9.461,12.979 10.157 C 12.956 10.816,12.849 11.257,12.574 11.832 C 11.948 13.140,10.698 14.069,9.140 14.386 C 7.906 14.637,6.605 14.470,5.507 13.919 C 5.004 13.667,4.695 13.443,4.279 13.027 C 3.649 12.399,3.271 11.714,3.088 10.872 C 3.038 10.641,3.029 10.516,3.028 10.040 C 3.027 9.547,3.034 9.452,3.086 9.247 C 3.119 9.120,3.162 8.974,3.183 8.924 L 3.221 8.834 3.391 8.993 C 3.736 9.318,4.103 9.528,4.573 9.671 C 4.796 9.739,4.848 9.744,5.280 9.744 C 5.832 9.743,6.012 9.705,6.440 9.495 C 7.034 9.204,7.446 8.714,7.643 8.065 C 7.708 7.851,7.716 7.784,7.717 7.413 C 7.720 6.821,7.633 6.463,7.327 5.800 C 7.061 5.225,6.970 4.826,6.994 4.333 C 7.028 3.640,7.310 3.065,7.911 2.460 C 8.204 2.165,8.267 2.120,8.267 2.201 " stroke="none" fill-rule="evenodd" fill="black"></path></svg>