<svg xmlns="http://www.w3.org/2000/svg" width="16" height="16" viewBox="0 0 16 16"><path d="M7.373 0.025 C 7.078 0.052,6.909 0.101,6.663 0.230 C 6.327 0.407,6.018 0.770,5.892 1.136 C 5.863 1.220,5.779 1.523,5.705 1.808 C 5.630 2.093,5.558 2.358,5.543 2.397 C 5.504 2.501,5.416 2.584,5.267 2.659 C 5.193 2.696,5.007 2.802,4.853 2.895 C 4.699 2.988,4.543 3.071,4.506 3.080 C 4.464 3.090,4.204 3.031,3.786 2.915 C 3.139 2.735,3.130 2.733,2.800 2.734 C 2.430 2.734,2.310 2.762,1.992 2.927 C 1.754 3.051,1.543 3.260,1.327 3.587 C 1.116 3.906,0.794 4.489,0.717 4.693 C 0.572 5.076,0.557 5.410,0.668 5.775 C 0.777 6.132,0.874 6.265,1.458 6.856 L 2.000 7.405 2.000 8.000 L 2.000 8.595 1.458 9.144 C 0.874 9.735,0.777 9.868,0.668 10.225 C 0.557 10.590,0.572 10.924,0.717 11.307 C 0.792 11.505,1.110 12.084,1.322 12.407 C 1.602 12.835,1.840 13.037,2.240 13.188 C 2.421 13.257,2.473 13.264,2.787 13.265 L 3.133 13.267 3.787 13.087 C 4.536 12.880,4.496 12.880,4.822 13.089 C 4.935 13.161,5.111 13.262,5.213 13.314 C 5.513 13.466,5.521 13.478,5.690 14.133 C 5.772 14.449,5.862 14.777,5.892 14.862 C 6.053 15.332,6.464 15.738,6.933 15.892 C 7.378 16.038,8.609 16.037,9.067 15.891 C 9.531 15.742,9.946 15.333,10.108 14.864 C 10.137 14.780,10.221 14.476,10.295 14.189 C 10.369 13.902,10.441 13.635,10.457 13.596 C 10.497 13.492,10.600 13.409,10.867 13.267 C 10.999 13.197,11.160 13.103,11.225 13.058 C 11.481 12.883,11.473 12.882,12.210 13.086 L 12.867 13.267 13.213 13.265 C 13.527 13.264,13.579 13.257,13.760 13.188 C 14.158 13.038,14.387 12.843,14.677 12.406 C 14.883 12.096,15.206 11.511,15.283 11.307 C 15.427 10.925,15.442 10.587,15.330 10.219 C 15.223 9.868,15.124 9.733,14.542 9.144 L 14.000 8.595 14.000 8.000 L 14.000 7.405 14.542 6.856 C 14.951 6.442,15.108 6.264,15.180 6.133 C 15.376 5.778,15.450 5.362,15.378 5.027 C 15.321 4.760,15.252 4.593,15.039 4.202 C 14.624 3.441,14.353 3.106,14.008 2.927 C 13.690 2.762,13.570 2.734,13.200 2.734 C 12.870 2.733,12.861 2.735,12.214 2.915 C 11.796 3.031,11.536 3.090,11.494 3.080 C 11.457 3.071,11.301 2.988,11.147 2.895 C 10.993 2.802,10.807 2.696,10.733 2.659 C 10.490 2.536,10.477 2.510,10.293 1.800 C 10.202 1.448,10.093 1.086,10.050 0.996 C 9.824 0.516,9.402 0.176,8.893 0.066 C 8.671 0.018,7.730 -0.007,7.373 0.025 M8.454 1.520 C 8.665 1.520,8.672 1.533,8.866 2.276 C 8.965 2.655,9.074 3.009,9.121 3.104 C 9.286 3.439,9.583 3.741,9.939 3.935 C 10.039 3.989,10.269 4.122,10.451 4.230 C 10.908 4.501,11.119 4.568,11.533 4.571 C 11.850 4.573,11.861 4.571,12.526 4.389 C 13.087 4.235,13.209 4.209,13.263 4.234 C 13.374 4.284,13.893 5.176,13.893 5.316 C 13.893 5.375,13.794 5.487,13.378 5.901 C 12.808 6.467,12.720 6.587,12.583 6.988 L 12.496 7.240 12.496 8.000 L 12.496 8.760 12.583 9.012 C 12.720 9.413,12.808 9.533,13.378 10.099 C 13.794 10.513,13.893 10.625,13.893 10.684 C 13.893 10.824,13.374 11.716,13.263 11.767 C 13.208 11.792,13.098 11.769,12.592 11.632 C 11.713 11.392,11.604 11.378,11.221 11.451 C 10.962 11.501,10.741 11.593,10.458 11.768 C 10.331 11.847,10.121 11.970,9.991 12.042 C 9.568 12.275,9.294 12.544,9.122 12.893 C 9.074 12.990,8.966 13.339,8.865 13.724 C 8.746 14.180,8.675 14.403,8.638 14.440 C 8.588 14.490,8.550 14.493,8.000 14.493 C 7.450 14.493,7.412 14.490,7.362 14.440 C 7.325 14.403,7.254 14.180,7.135 13.726 C 6.922 12.914,6.835 12.727,6.534 12.427 C 6.402 12.295,6.253 12.181,6.098 12.093 C 5.969 12.020,5.759 11.896,5.631 11.819 C 5.186 11.547,4.930 11.452,4.558 11.422 C 4.300 11.402,4.134 11.432,3.422 11.627 C 3.103 11.715,2.816 11.787,2.783 11.787 C 2.710 11.787,2.646 11.705,2.430 11.342 C 2.206 10.964,2.107 10.760,2.107 10.679 C 2.107 10.624,2.212 10.505,2.611 10.111 C 3.116 9.612,3.257 9.435,3.361 9.170 C 3.487 8.851,3.499 8.760,3.507 8.080 C 3.516 7.371,3.496 7.190,3.377 6.875 C 3.263 6.571,3.137 6.409,2.611 5.889 C 2.200 5.483,2.107 5.378,2.107 5.318 C 2.107 5.233,2.326 4.808,2.542 4.473 C 2.644 4.314,2.712 4.236,2.757 4.225 C 2.798 4.215,3.056 4.274,3.471 4.390 C 4.116 4.571,4.122 4.572,4.453 4.572 C 4.758 4.571,4.807 4.564,5.022 4.488 C 5.151 4.442,5.397 4.321,5.569 4.219 C 5.740 4.117,5.961 3.989,6.061 3.935 C 6.416 3.742,6.714 3.439,6.879 3.105 C 6.924 3.013,7.036 2.651,7.134 2.278 C 7.230 1.913,7.326 1.596,7.348 1.574 C 7.397 1.525,7.748 1.494,8.091 1.510 C 8.221 1.515,8.385 1.520,8.454 1.520 M7.449 5.053 C 6.886 5.155,6.292 5.469,5.877 5.885 C 4.713 7.048,4.715 8.953,5.881 10.119 C 6.921 11.159,8.593 11.290,9.763 10.423 C 10.959 9.536,11.334 7.979,10.674 6.643 C 10.276 5.837,9.432 5.209,8.537 5.052 C 8.266 5.005,7.711 5.005,7.449 5.053 M8.510 6.595 C 8.943 6.759,9.235 7.049,9.406 7.486 C 9.470 7.647,9.477 7.702,9.477 8.000 C 9.477 8.298,9.470 8.353,9.406 8.514 C 9.168 9.120,8.632 9.493,8.000 9.493 C 7.368 9.493,6.832 9.120,6.594 8.514 C 6.530 8.353,6.523 8.298,6.523 8.000 C 6.523 7.704,6.531 7.647,6.592 7.490 C 6.790 6.986,7.186 6.642,7.693 6.532 C 7.894 6.489,8.315 6.521,8.510 6.595 " stroke="none" fill-rule="evenodd" fill="black"></path></svg>