<svg xmlns="http://www.w3.org/2000/svg" width="24" height="24" viewBox="0 0 24 24"><path d="M11.171 1.041 C 10.602 1.101,10.061 1.473,9.829 1.964 C 9.771 2.087,9.639 2.537,9.537 2.964 C 9.434 3.391,9.326 3.787,9.297 3.844 C 9.256 3.924,9.130 3.995,8.739 4.156 C 8.418 4.288,8.205 4.354,8.155 4.338 C 8.111 4.324,7.793 4.141,7.447 3.930 C 7.102 3.719,6.708 3.495,6.572 3.431 C 6.111 3.214,5.490 3.246,5.043 3.508 C 4.821 3.638,3.854 4.577,3.617 4.893 C 3.285 5.334,3.192 5.924,3.373 6.440 C 3.423 6.583,3.657 7.014,3.892 7.398 C 4.191 7.885,4.320 8.133,4.320 8.218 C 4.320 8.335,4.001 9.162,3.918 9.263 C 3.896 9.289,3.496 9.406,3.029 9.521 C 2.562 9.637,2.090 9.776,1.980 9.831 C 1.557 10.039,1.272 10.354,1.110 10.791 C 1.032 11.000,1.024 11.102,1.022 11.980 C 1.020 12.816,1.030 12.968,1.095 13.160 C 1.249 13.616,1.568 13.984,1.978 14.177 C 2.092 14.231,2.565 14.368,3.030 14.480 C 3.495 14.593,3.893 14.707,3.915 14.734 C 3.994 14.829,4.291 15.582,4.310 15.733 C 4.327 15.872,4.287 15.955,3.879 16.627 C 3.623 17.049,3.397 17.471,3.355 17.607 C 3.205 18.087,3.300 18.687,3.585 19.068 C 3.790 19.341,4.617 20.173,4.893 20.382 C 5.166 20.589,5.547 20.720,5.876 20.720 C 6.297 20.720,6.531 20.627,7.340 20.139 C 7.863 19.823,8.137 19.680,8.220 19.680 C 8.336 19.680,9.164 20.000,9.265 20.084 C 9.292 20.107,9.407 20.505,9.520 20.970 C 9.632 21.435,9.769 21.908,9.823 22.022 C 10.016 22.432,10.384 22.751,10.840 22.905 C 11.031 22.970,11.186 22.980,12.020 22.979 C 12.933 22.977,12.992 22.973,13.220 22.883 C 13.674 22.704,13.989 22.420,14.179 22.019 C 14.232 21.907,14.368 21.435,14.480 20.970 C 14.593 20.505,14.708 20.107,14.735 20.084 C 14.836 20.000,15.664 19.680,15.779 19.680 C 15.861 19.680,16.139 19.825,16.659 20.139 C 17.469 20.627,17.703 20.720,18.124 20.720 C 18.453 20.720,18.834 20.589,19.107 20.382 C 19.383 20.173,20.210 19.341,20.415 19.068 C 20.713 18.669,20.800 18.054,20.627 17.560 C 20.577 17.417,20.343 16.986,20.108 16.602 C 19.809 16.115,19.680 15.867,19.680 15.782 C 19.680 15.664,19.999 14.837,20.084 14.735 C 20.107 14.708,20.505 14.593,20.970 14.480 C 21.435 14.368,21.907 14.232,22.019 14.179 C 22.419 13.989,22.704 13.674,22.883 13.220 C 22.974 12.990,22.978 12.938,22.977 12.000 C 22.976 11.098,22.969 11.002,22.890 10.791 C 22.727 10.353,22.442 10.039,22.020 9.831 C 21.910 9.776,21.438 9.637,20.971 9.521 C 20.504 9.406,20.104 9.289,20.082 9.263 C 20.000 9.163,19.680 8.335,19.680 8.220 C 19.680 8.137,19.819 7.871,20.125 7.366 C 20.378 6.949,20.603 6.529,20.645 6.393 C 20.801 5.891,20.701 5.315,20.383 4.893 C 20.146 4.577,19.179 3.638,18.957 3.508 C 18.510 3.246,17.889 3.214,17.428 3.431 C 17.292 3.495,16.898 3.719,16.553 3.930 C 16.207 4.141,15.889 4.324,15.845 4.338 C 15.769 4.363,14.974 4.066,14.774 3.938 C 14.703 3.893,14.650 3.729,14.481 3.034 C 14.368 2.567,14.228 2.085,14.170 1.963 C 13.928 1.450,13.407 1.105,12.774 1.039 C 12.366 0.996,11.591 0.997,11.171 1.041 M12.770 2.570 C 12.813 2.602,12.907 2.916,13.037 3.453 C 13.262 4.383,13.318 4.532,13.548 4.821 C 13.776 5.109,14.058 5.284,14.740 5.564 C 15.258 5.776,15.384 5.812,15.665 5.830 C 16.154 5.861,16.406 5.769,17.280 5.240 C 17.719 4.974,18.049 4.800,18.113 4.800 C 18.266 4.800,19.200 5.731,19.200 5.884 C 19.200 5.947,19.023 6.282,18.760 6.718 C 18.231 7.595,18.139 7.847,18.170 8.335 C 18.188 8.616,18.224 8.741,18.437 9.260 C 18.725 9.963,18.882 10.216,19.170 10.444 C 19.465 10.678,19.630 10.740,20.560 10.965 C 21.088 11.093,21.398 11.188,21.430 11.230 C 21.466 11.276,21.480 11.498,21.480 12.000 C 21.480 12.501,21.466 12.724,21.430 12.772 C 21.397 12.816,21.099 12.907,20.549 13.039 C 19.601 13.268,19.330 13.385,19.018 13.697 C 18.777 13.938,18.731 14.021,18.420 14.780 C 18.224 15.258,18.188 15.388,18.170 15.665 C 18.139 16.154,18.231 16.406,18.760 17.280 C 19.033 17.731,19.200 18.048,19.200 18.116 C 19.200 18.201,19.093 18.330,18.687 18.732 C 18.404 19.011,18.149 19.240,18.121 19.240 C 18.092 19.240,17.751 19.047,17.364 18.812 C 16.412 18.232,16.285 18.182,15.780 18.183 C 15.349 18.184,15.345 18.185,14.514 18.530 C 13.867 18.799,13.583 19.037,13.343 19.512 C 13.284 19.629,13.146 20.095,13.036 20.552 C 12.925 21.007,12.810 21.406,12.779 21.437 C 12.698 21.519,11.302 21.519,11.220 21.437 C 11.189 21.405,11.074 21.007,10.964 20.552 C 10.853 20.094,10.716 19.629,10.656 19.512 C 10.433 19.068,10.145 18.811,9.635 18.598 C 9.473 18.530,9.187 18.408,9.000 18.327 C 8.680 18.189,8.636 18.181,8.240 18.181 C 7.712 18.182,7.595 18.228,6.636 18.812 C 6.249 19.047,5.908 19.240,5.879 19.240 C 5.851 19.240,5.596 19.011,5.313 18.732 C 4.907 18.330,4.800 18.201,4.800 18.116 C 4.800 18.048,4.967 17.731,5.239 17.282 C 5.717 16.491,5.840 16.185,5.840 15.786 C 5.839 15.474,5.780 15.261,5.524 14.641 C 5.270 14.029,5.125 13.797,4.865 13.592 C 4.538 13.334,4.326 13.251,3.452 13.039 C 2.902 12.907,2.603 12.816,2.570 12.772 C 2.499 12.677,2.499 11.323,2.570 11.229 C 2.603 11.186,2.907 11.094,3.448 10.963 C 4.837 10.628,5.076 10.444,5.523 9.360 C 5.780 8.738,5.839 8.526,5.840 8.214 C 5.840 7.815,5.717 7.509,5.239 6.718 C 4.974 6.280,4.800 5.951,4.800 5.887 C 4.800 5.734,5.731 4.800,5.884 4.800 C 5.947 4.800,6.282 4.977,6.718 5.240 C 7.595 5.769,7.847 5.861,8.335 5.830 C 8.616 5.812,8.741 5.776,9.260 5.563 C 10.454 5.073,10.621 4.866,10.964 3.448 C 11.093 2.914,11.187 2.602,11.230 2.570 C 11.276 2.534,11.498 2.520,12.000 2.520 C 12.502 2.520,12.724 2.534,12.770 2.570 M11.433 8.040 C 10.843 8.134,10.221 8.380,9.731 8.712 C 8.955 9.240,8.394 10.037,8.130 10.989 C 8.034 11.337,8.022 11.449,8.022 12.000 C 8.022 12.553,8.034 12.663,8.132 13.017 C 8.475 14.256,9.357 15.252,10.520 15.715 C 12.334 16.437,14.462 15.710,15.444 14.033 C 16.503 12.224,15.985 9.878,14.269 8.712 C 13.917 8.473,13.343 8.214,12.958 8.120 C 12.572 8.026,11.783 7.984,11.433 8.040 M12.592 9.581 C 13.482 9.790,14.210 10.519,14.420 11.410 C 14.547 11.948,14.475 12.605,14.237 13.095 C 13.810 13.969,12.981 14.485,12.000 14.485 C 11.019 14.485,10.190 13.969,9.763 13.095 C 9.437 12.424,9.436 11.566,9.763 10.908 C 10.095 10.238,10.693 9.752,11.392 9.582 C 11.697 9.508,12.281 9.507,12.592 9.581 " stroke="none" fill-rule="evenodd" fill="black"></path></svg>