<svg xmlns="http://www.w3.org/2000/svg" width="24" height="24" viewBox="0 0 24 24"><path d="M4.123 1.561 C 2.058 1.995,0.932 4.191,1.796 6.098 C 2.156 6.891,2.941 7.589,3.760 7.843 L 3.980 7.911 3.990 11.997 C 4.000 15.862,3.997 16.084,3.930 16.104 C 3.362 16.280,2.933 16.522,2.535 16.893 C 2.054 17.342,1.766 17.837,1.598 18.507 C 1.478 18.985,1.502 19.743,1.651 20.207 C 2.000 21.295,2.875 22.120,3.980 22.403 C 4.416 22.514,5.101 22.516,5.524 22.406 C 7.045 22.009,8.075 20.629,7.988 19.102 C 7.958 18.587,7.876 18.268,7.657 17.818 C 7.283 17.050,6.645 16.481,5.840 16.196 L 5.540 16.090 5.530 12.004 C 5.520 8.139,5.523 7.916,5.590 7.893 C 6.281 7.651,6.637 7.444,7.024 7.057 C 7.456 6.626,7.714 6.182,7.890 5.566 C 8.023 5.103,8.012 4.351,7.866 3.868 C 7.699 3.318,7.483 2.933,7.122 2.545 C 6.738 2.133,6.139 1.764,5.620 1.620 C 5.339 1.542,4.392 1.505,4.123 1.561 M18.691 2.592 C 17.751 2.927,17.276 3.932,17.615 4.870 C 17.697 5.097,17.871 5.345,18.092 5.548 C 18.834 6.232,20.051 6.110,20.652 5.291 C 21.310 4.395,20.985 3.146,19.970 2.669 C 19.733 2.557,19.652 2.541,19.300 2.530 C 18.989 2.521,18.854 2.535,18.691 2.592 M5.179 3.061 C 5.689 3.194,6.099 3.539,6.332 4.030 C 6.453 4.285,6.460 4.325,6.460 4.761 C 6.460 5.205,6.455 5.232,6.323 5.501 C 5.918 6.323,4.992 6.696,4.130 6.385 C 3.752 6.248,3.344 5.869,3.172 5.495 C 2.561 4.158,3.768 2.694,5.179 3.061 M18.691 9.592 C 17.751 9.927,17.276 10.932,17.615 11.870 C 17.697 12.097,17.871 12.345,18.092 12.548 C 18.834 13.232,20.051 13.110,20.652 12.291 C 21.310 11.395,20.985 10.146,19.970 9.669 C 19.733 9.557,19.652 9.541,19.300 9.530 C 18.989 9.521,18.854 9.535,18.691 9.592 M18.660 16.057 C 17.155 16.357,16.093 17.569,16.012 19.081 C 15.952 20.197,16.462 21.247,17.380 21.900 C 18.667 22.814,20.419 22.663,21.541 21.541 C 22.234 20.848,22.595 19.828,22.479 18.890 C 22.338 17.757,21.690 16.849,20.646 16.323 C 20.112 16.054,19.255 15.939,18.660 16.057 M5.502 17.678 C 5.859 17.854,6.147 18.142,6.323 18.499 C 6.455 18.768,6.460 18.795,6.460 19.239 C 6.460 19.675,6.453 19.715,6.332 19.970 C 5.809 21.075,4.403 21.344,3.542 20.504 C 2.596 19.580,2.954 18.041,4.219 17.590 C 4.373 17.535,4.514 17.521,4.822 17.530 C 5.187 17.540,5.251 17.554,5.502 17.678 M19.970 17.669 C 20.692 18.008,21.098 18.762,20.968 19.521 C 20.792 20.550,19.812 21.197,18.821 20.939 C 18.311 20.806,17.901 20.461,17.668 19.970 C 17.547 19.715,17.540 19.675,17.540 19.239 C 17.540 18.802,17.547 18.765,17.668 18.519 C 17.829 18.191,18.022 17.966,18.286 17.796 C 18.635 17.572,18.846 17.517,19.300 17.530 C 19.652 17.541,19.733 17.557,19.970 17.669 " stroke="none" fill-rule="evenodd" fill="black"></path></svg>