<svg xmlns="http://www.w3.org/2000/svg" width="24" height="24" viewBox="0 0 24 24"><path d="M11.200 6.821 C 10.167 6.983,9.252 7.458,8.475 8.235 C 7.751 8.959,7.296 9.786,7.109 10.720 L 7.056 10.980 4.798 11.000 C 2.291 11.022,2.422 11.007,2.169 11.296 C 1.818 11.696,2.061 12.361,2.600 12.476 C 2.733 12.505,3.541 12.520,4.933 12.520 L 7.062 12.520 7.109 12.771 C 7.424 14.430,8.753 15.935,10.380 16.475 C 11.004 16.682,11.321 16.732,12.000 16.732 C 12.679 16.732,12.996 16.682,13.620 16.475 C 15.247 15.935,16.576 14.430,16.891 12.771 L 16.938 12.520 19.067 12.520 C 20.459 12.520,21.267 12.505,21.400 12.476 C 21.939 12.361,22.182 11.696,21.831 11.296 C 21.578 11.007,21.709 11.022,19.201 11.000 L 16.943 10.980 16.909 10.800 C 16.851 10.492,16.682 9.970,16.540 9.657 C 16.081 8.651,15.111 7.679,14.106 7.222 C 13.207 6.812,12.170 6.669,11.200 6.821 M12.765 8.339 C 13.408 8.472,14.042 8.840,14.546 9.373 C 14.912 9.761,15.144 10.149,15.327 10.680 C 15.454 11.049,15.458 11.079,15.459 11.720 C 15.460 12.492,15.396 12.782,15.098 13.360 C 14.663 14.201,13.958 14.787,13.000 15.104 C 12.683 15.209,12.616 15.217,12.000 15.217 C 11.384 15.217,11.317 15.209,11.000 15.104 C 10.042 14.787,9.337 14.201,8.902 13.360 C 8.603 12.782,8.540 12.492,8.541 11.720 C 8.542 11.078,8.546 11.050,8.676 10.671 C 9.121 9.375,10.216 8.462,11.540 8.283 C 11.870 8.239,12.394 8.263,12.765 8.339 " stroke="none" fill-rule="evenodd" fill="black"></path></svg>