<svg xmlns="http://www.w3.org/2000/svg" width="16" height="16" viewBox="0 0 16 16"><path d="M2.762 1.056 C 2.082 1.207,1.503 1.674,1.211 2.306 C 1.062 2.628,1.008 2.872,1.007 3.227 C 1.006 3.732,1.116 4.097,1.392 4.510 C 1.624 4.857,1.968 5.146,2.355 5.317 L 2.507 5.384 2.506 8.005 L 2.505 10.627 2.300 10.720 C 1.505 11.081,1.003 11.873,1.006 12.760 C 1.007 13.105,1.069 13.387,1.212 13.695 C 1.791 14.949,3.362 15.386,4.510 14.612 C 5.003 14.280,5.363 13.723,5.467 13.129 C 5.513 12.871,5.488 12.392,5.415 12.138 C 5.233 11.504,4.734 10.934,4.148 10.692 L 4.000 10.630 4.001 8.002 L 4.002 5.373 4.261 5.247 C 4.701 5.032,5.032 4.701,5.254 4.253 C 5.327 4.107,5.406 3.915,5.429 3.827 C 5.489 3.605,5.508 3.104,5.467 2.869 C 5.322 2.049,4.747 1.387,3.947 1.117 C 3.718 1.040,3.657 1.031,3.320 1.023 C 3.053 1.017,2.894 1.026,2.762 1.056 M12.427 2.048 C 11.953 2.172,11.599 2.566,11.517 3.062 C 11.431 3.581,11.716 4.124,12.198 4.361 C 12.532 4.525,12.839 4.542,13.187 4.416 C 14.032 4.109,14.270 3.012,13.630 2.373 C 13.309 2.053,12.867 1.933,12.427 2.048 M3.608 2.596 C 3.971 2.808,4.098 3.243,3.903 3.602 C 3.616 4.129,2.902 4.131,2.593 3.604 C 2.529 3.495,2.520 3.453,2.520 3.253 C 2.520 2.998,2.555 2.908,2.716 2.738 C 2.886 2.559,3.029 2.505,3.297 2.517 C 3.445 2.523,3.515 2.541,3.608 2.596 M12.360 6.313 C 11.782 6.519,11.417 7.113,11.516 7.687 C 11.621 8.301,12.139 8.747,12.745 8.746 C 13.570 8.745,14.170 7.960,13.951 7.169 C 13.854 6.818,13.626 6.548,13.284 6.379 C 13.093 6.285,13.068 6.280,12.788 6.273 C 12.559 6.267,12.464 6.276,12.360 6.313 M12.413 10.524 C 11.698 10.638,11.065 11.099,10.741 11.744 C 10.313 12.596,10.478 13.646,11.145 14.321 C 11.970 15.154,13.277 15.228,14.170 14.491 C 15.114 13.712,15.272 12.355,14.531 11.379 C 14.262 11.024,13.805 10.715,13.359 10.586 C 13.162 10.529,12.609 10.493,12.413 10.524 M3.564 12.075 C 3.728 12.159,3.821 12.248,3.903 12.398 C 4.053 12.674,4.017 13.003,3.811 13.237 C 3.665 13.402,3.524 13.472,3.300 13.488 C 3.075 13.504,2.917 13.449,2.753 13.297 C 2.569 13.127,2.521 13.014,2.520 12.747 C 2.520 12.547,2.529 12.505,2.593 12.396 C 2.688 12.235,2.860 12.088,3.013 12.039 C 3.173 11.988,3.425 12.004,3.564 12.075 M12.976 12.039 C 13.138 12.087,13.309 12.229,13.407 12.396 C 13.471 12.505,13.480 12.547,13.480 12.747 C 13.479 13.014,13.431 13.127,13.247 13.297 C 13.083 13.449,12.925 13.504,12.700 13.488 C 12.476 13.472,12.335 13.402,12.190 13.237 C 11.835 12.835,12.007 12.224,12.525 12.038 C 12.659 11.991,12.814 11.991,12.976 12.039 " stroke="none" fill-rule="evenodd" fill="black"></path></svg>