<svg xmlns="http://www.w3.org/2000/svg" width="16" height="16" viewBox="0 0 16 16"><path d="M8.382 1.872 C 7.519 2.734,7.117 3.154,7.106 3.203 C 7.097 3.246,7.106 3.307,7.130 3.351 C 7.152 3.393,7.726 3.982,8.405 4.660 C 9.602 5.854,9.645 5.893,9.743 5.893 C 9.819 5.893,9.863 5.874,9.922 5.815 L 10.000 5.737 10.000 4.867 L 10.000 3.996 10.620 4.005 C 11.235 4.013,11.241 4.014,11.400 4.088 C 11.610 4.186,11.816 4.391,11.911 4.597 L 11.987 4.760 11.994 7.695 L 12.001 10.630 11.853 10.691 C 11.266 10.934,10.767 11.504,10.585 12.138 C 10.512 12.392,10.487 12.871,10.533 13.129 C 10.725 14.216,11.656 14.996,12.760 14.994 C 14.302 14.991,15.370 13.485,14.870 12.021 C 14.821 11.879,14.741 11.695,14.691 11.612 C 14.458 11.226,14.095 10.899,13.701 10.720 L 13.496 10.627 13.488 7.587 L 13.479 4.547 13.418 4.348 C 13.340 4.095,13.206 3.805,13.076 3.608 C 12.825 3.230,12.390 2.874,11.959 2.695 C 11.591 2.541,11.351 2.507,10.633 2.507 L 10.000 2.507 10.000 1.638 L 10.000 0.769 9.922 0.691 C 9.863 0.632,9.819 0.613,9.743 0.613 C 9.645 0.613,9.602 0.653,8.382 1.872 M2.893 1.029 C 2.454 1.131,2.246 1.217,1.957 1.417 C 1.363 1.828,1.009 2.507,1.006 3.240 C 1.006 3.546,1.040 3.735,1.153 4.048 C 1.348 4.589,1.809 5.075,2.355 5.317 L 2.505 5.383 2.513 8.418 L 2.521 11.453 2.582 11.653 C 2.850 12.533,3.473 13.155,4.348 13.416 C 4.527 13.470,4.619 13.477,5.273 13.487 L 6.000 13.498 6.000 14.360 L 6.000 15.223 6.069 15.305 C 6.126 15.372,6.158 15.387,6.248 15.387 C 6.358 15.387,6.363 15.383,7.618 14.128 C 8.481 13.266,8.883 12.846,8.894 12.797 C 8.903 12.754,8.894 12.693,8.870 12.649 C 8.848 12.607,8.274 12.018,7.595 11.340 C 6.398 10.146,6.355 10.107,6.257 10.107 C 6.181 10.107,6.137 10.126,6.078 10.185 L 6.000 10.263 6.000 11.133 L 6.000 12.004 5.380 11.995 C 4.764 11.987,4.759 11.986,4.597 11.911 C 4.391 11.816,4.186 11.610,4.088 11.400 L 4.013 11.240 4.007 8.307 L 4.001 5.373 4.261 5.247 C 4.701 5.032,5.030 4.703,5.252 4.253 C 5.418 3.918,5.466 3.740,5.485 3.381 C 5.517 2.800,5.374 2.336,5.019 1.870 C 4.760 1.530,4.383 1.266,3.943 1.116 C 3.717 1.039,3.658 1.031,3.320 1.024 C 3.115 1.020,2.923 1.022,2.893 1.029 M3.608 2.596 C 3.971 2.808,4.098 3.243,3.903 3.602 C 3.616 4.129,2.902 4.131,2.593 3.604 C 2.529 3.495,2.520 3.453,2.520 3.253 C 2.520 2.998,2.555 2.908,2.716 2.738 C 2.886 2.559,3.029 2.505,3.297 2.517 C 3.445 2.523,3.515 2.541,3.608 2.596 M12.976 12.039 C 13.138 12.087,13.309 12.229,13.407 12.396 C 13.471 12.505,13.480 12.547,13.480 12.747 C 13.479 13.014,13.431 13.127,13.247 13.297 C 13.083 13.449,12.925 13.504,12.700 13.488 C 12.476 13.472,12.335 13.402,12.190 13.237 C 11.835 12.835,12.007 12.224,12.525 12.038 C 12.659 11.991,12.814 11.991,12.976 12.039 " stroke="none" fill-rule="evenodd" fill="black"></path></svg>