<svg xmlns="http://www.w3.org/2000/svg" width="24" height="24" viewBox="0 0 24 24"><path d="M4.960 1.603 C 3.633 1.948,2.692 3.032,2.521 4.410 C 2.432 5.129,2.633 5.941,3.053 6.560 C 3.215 6.798,3.615 7.215,3.840 7.380 C 4.075 7.552,4.482 7.757,4.759 7.843 L 4.980 7.911 4.980 12.000 L 4.980 16.089 4.757 16.158 C 4.156 16.344,3.482 16.840,3.102 17.376 C 2.186 18.670,2.335 20.418,3.459 21.541 C 4.581 22.664,6.330 22.814,7.621 21.900 C 8.533 21.253,9.048 20.192,8.988 19.081 C 8.917 17.744,8.053 16.601,6.793 16.178 L 6.500 16.080 6.520 14.929 L 6.540 13.778 6.677 13.499 C 6.854 13.141,7.141 12.854,7.499 12.677 L 7.778 12.540 11.759 12.516 C 15.900 12.492,15.851 12.494,16.400 12.314 C 17.388 11.990,18.216 11.263,18.642 10.347 C 18.892 9.808,18.968 9.444,18.995 8.645 L 19.020 7.911 19.241 7.842 C 19.743 7.687,20.191 7.404,20.582 6.994 C 20.973 6.585,21.162 6.273,21.337 5.753 C 21.765 4.479,21.303 2.990,20.230 2.177 C 19.661 1.747,18.986 1.520,18.276 1.520 C 17.359 1.520,16.662 1.795,16.011 2.414 C 15.311 3.078,14.960 3.959,15.012 4.919 C 15.083 6.253,15.943 7.396,17.191 7.817 L 17.460 7.907 17.473 8.464 C 17.487 9.117,17.447 9.349,17.247 9.760 C 17.055 10.156,16.649 10.567,16.270 10.751 C 15.741 11.006,15.875 10.999,11.760 11.000 C 9.405 11.000,7.924 11.016,7.760 11.042 C 7.436 11.093,7.042 11.219,6.780 11.355 C 6.670 11.413,6.567 11.466,6.551 11.473 C 6.535 11.480,6.517 10.684,6.511 9.703 L 6.500 7.920 6.760 7.835 C 8.529 7.257,9.458 5.284,8.771 3.562 C 8.373 2.565,7.470 1.797,6.442 1.580 C 6.033 1.494,5.335 1.505,4.960 1.603 M6.179 3.061 C 6.689 3.194,7.099 3.539,7.332 4.030 C 7.453 4.285,7.460 4.325,7.460 4.761 C 7.460 5.205,7.455 5.232,7.323 5.501 C 6.918 6.323,5.992 6.696,5.130 6.385 C 4.752 6.248,4.344 5.869,4.172 5.495 C 3.561 4.158,4.768 2.694,6.179 3.061 M18.608 3.045 C 19.308 3.194,19.845 3.759,19.968 4.479 C 20.165 5.627,19.142 6.658,17.987 6.476 C 17.420 6.386,16.936 6.026,16.677 5.501 C 16.545 5.232,16.540 5.205,16.540 4.761 C 16.540 4.325,16.547 4.285,16.668 4.030 C 17.027 3.273,17.810 2.875,18.608 3.045 M6.502 17.678 C 6.859 17.854,7.147 18.142,7.323 18.499 C 7.455 18.768,7.460 18.795,7.460 19.239 C 7.460 19.675,7.453 19.715,7.332 19.970 C 6.809 21.075,5.403 21.344,4.542 20.504 C 3.596 19.580,3.954 18.041,5.219 17.590 C 5.373 17.535,5.514 17.521,5.822 17.530 C 6.187 17.540,6.251 17.554,6.502 17.678 " stroke="none" fill-rule="evenodd" fill="black"></path></svg>