<svg xmlns="http://www.w3.org/2000/svg" width="16" height="16" viewBox="0 0 16 16"><path d="M3.496 2.029 C 3.188 2.089,2.878 2.307,2.692 2.593 C 2.471 2.933,2.444 3.397,2.623 3.774 C 2.863 4.280,3.415 4.577,3.941 4.483 C 4.781 4.333,5.238 3.458,4.868 2.707 C 4.614 2.191,4.061 1.918,3.496 2.029 M7.180 4.548 C 6.561 4.714,6.156 5.335,6.266 5.947 C 6.417 6.781,7.293 7.234,8.044 6.867 C 8.665 6.562,8.919 5.835,8.623 5.208 C 8.537 5.026,8.314 4.785,8.129 4.674 C 7.863 4.515,7.488 4.465,7.180 4.548 M11.850 6.038 C 11.600 6.085,11.492 6.122,11.267 6.233 C 10.592 6.569,10.139 7.184,10.024 7.920 C 9.987 8.159,10.008 8.586,10.068 8.813 C 10.091 8.901,10.168 9.093,10.239 9.240 C 10.911 10.623,12.748 10.928,13.838 9.838 C 14.651 9.025,14.720 7.749,14.001 6.844 C 13.718 6.487,13.244 6.181,12.800 6.068 C 12.561 6.007,12.087 5.992,11.850 6.038 M3.420 7.082 C 3.261 7.161,3.136 7.293,3.056 7.465 C 3.001 7.584,3.000 7.626,2.992 9.111 L 2.985 10.635 2.872 10.679 C 2.693 10.751,2.383 10.954,2.210 11.114 C 1.920 11.382,1.711 11.729,1.583 12.152 C 1.486 12.472,1.479 12.971,1.566 13.293 C 1.742 13.944,2.153 14.457,2.728 14.745 C 3.096 14.929,3.346 14.991,3.733 14.992 C 4.357 14.994,4.893 14.777,5.330 14.344 C 6.094 13.587,6.218 12.396,5.625 11.509 C 5.395 11.165,4.913 10.770,4.595 10.665 L 4.509 10.637 4.501 9.098 C 4.492 7.380,4.503 7.474,4.299 7.249 C 4.085 7.011,3.706 6.939,3.420 7.082 M12.587 7.587 C 12.848 7.721,12.985 7.950,12.986 8.255 C 12.989 9.045,11.943 9.281,11.580 8.573 C 11.498 8.412,11.485 8.127,11.553 7.970 C 11.604 7.850,11.761 7.673,11.881 7.599 C 12.071 7.482,12.370 7.477,12.587 7.587 M4.110 12.098 C 4.457 12.286,4.592 12.717,4.417 13.074 C 4.278 13.358,4.015 13.510,3.698 13.488 C 3.425 13.470,3.196 13.318,3.080 13.079 C 3.001 12.916,2.994 12.628,3.066 12.462 C 3.240 12.057,3.725 11.888,4.110 12.098 " stroke="none" fill-rule="evenodd" fill="black"></path></svg>