<svg xmlns="http://www.w3.org/2000/svg" width="16" height="16" viewBox="0 0 16 16"><path d="M3.787 1.054 C 3.111 1.192,2.495 1.681,2.213 2.303 C 2.060 2.641,2.015 2.857,2.015 3.253 C 2.015 3.650,2.060 3.866,2.213 4.204 C 2.422 4.665,2.888 5.119,3.347 5.309 L 3.493 5.370 3.493 8.003 L 3.493 10.636 3.406 10.665 C 3.231 10.722,2.899 10.941,2.704 11.126 C 1.715 12.065,1.781 13.654,2.844 14.502 C 3.181 14.771,3.581 14.936,4.014 14.985 C 4.956 15.092,5.920 14.540,6.301 13.676 C 6.440 13.360,6.492 13.104,6.490 12.733 C 6.488 12.438,6.478 12.352,6.417 12.152 C 6.289 11.729,6.080 11.382,5.790 11.114 C 5.616 10.953,5.307 10.751,5.125 10.678 L 5.010 10.633 5.018 9.923 L 5.027 9.213 5.117 9.047 C 5.227 8.844,5.393 8.686,5.595 8.591 L 5.747 8.520 8.067 8.506 C 10.326 8.492,10.392 8.490,10.588 8.435 C 11.089 8.294,11.425 8.099,11.773 7.747 C 12.060 7.457,12.237 7.174,12.362 6.807 C 12.473 6.481,12.507 6.232,12.507 5.750 L 12.507 5.370 12.657 5.307 C 13.030 5.153,13.461 4.771,13.680 4.403 C 14.128 3.649,14.096 2.698,13.599 1.973 C 13.479 1.799,13.184 1.508,13.007 1.389 C 12.833 1.272,12.526 1.131,12.333 1.078 C 12.087 1.010,11.574 0.998,11.303 1.052 C 10.372 1.241,9.669 1.992,9.518 2.960 C 9.438 3.472,9.602 4.110,9.932 4.573 C 10.144 4.870,10.500 5.159,10.829 5.301 L 10.987 5.369 10.986 5.784 C 10.985 6.112,10.975 6.229,10.937 6.338 C 10.848 6.596,10.619 6.828,10.341 6.942 C 10.201 7.000,10.185 7.000,7.867 7.014 L 5.533 7.028 5.320 7.097 C 5.203 7.135,5.086 7.175,5.060 7.186 C 5.016 7.205,5.013 7.152,5.013 6.287 L 5.013 5.369 5.171 5.301 C 5.760 5.046,6.223 4.508,6.411 3.857 C 6.768 2.626,5.974 1.314,4.714 1.056 C 4.469 1.005,4.029 1.004,3.787 1.054 M4.586 2.590 C 4.851 2.723,4.981 2.940,4.984 3.253 C 4.990 3.815,4.389 4.174,3.893 3.904 C 3.543 3.713,3.407 3.285,3.583 2.926 C 3.715 2.655,3.945 2.513,4.256 2.509 C 4.387 2.507,4.450 2.523,4.586 2.590 M12.005 2.548 C 12.291 2.645,12.492 2.937,12.490 3.251 C 12.488 3.540,12.353 3.770,12.107 3.904 C 11.611 4.174,11.010 3.815,11.016 3.253 C 11.017 3.158,11.031 3.042,11.049 2.995 C 11.189 2.615,11.616 2.415,12.005 2.548 M4.478 12.042 C 4.660 12.096,4.853 12.273,4.933 12.459 C 5.006 12.628,5.000 12.914,4.920 13.079 C 4.670 13.593,3.932 13.637,3.627 13.156 C 3.398 12.796,3.505 12.329,3.863 12.115 C 4.066 11.994,4.245 11.973,4.478 12.042 " stroke="none" fill-rule="evenodd" fill="black"></path></svg>