<svg xmlns="http://www.w3.org/2000/svg" width="16" height="16" viewBox="0 0 16 16"><path d="M7.373 3.801 C 6.356 3.965,5.427 4.522,4.813 5.337 C 4.484 5.773,4.268 6.223,4.123 6.768 L 4.061 7.000 2.291 7.013 C 0.527 7.027,0.520 7.027,0.410 7.086 C 0.269 7.161,0.147 7.283,0.073 7.423 C 0.027 7.510,0.014 7.579,0.014 7.747 C 0.013 7.936,0.022 7.976,0.096 8.107 C 0.142 8.187,0.229 8.292,0.291 8.339 C 0.509 8.507,0.500 8.507,2.374 8.507 L 4.072 8.507 4.106 8.660 C 4.354 9.770,5.161 10.793,6.200 11.314 C 7.346 11.888,8.654 11.888,9.800 11.314 C 10.540 10.943,11.204 10.280,11.574 9.546 C 11.689 9.318,11.842 8.892,11.894 8.660 L 11.928 8.507 13.626 8.507 C 15.070 8.507,15.344 8.501,15.461 8.466 C 15.861 8.347,16.090 7.912,15.960 7.519 C 15.901 7.341,15.736 7.158,15.560 7.076 L 15.427 7.014 13.686 7.014 C 12.317 7.013,11.943 7.006,11.935 6.980 C 11.929 6.962,11.893 6.836,11.856 6.700 C 11.656 5.982,11.331 5.429,10.802 4.907 C 10.474 4.584,10.151 4.355,9.747 4.160 C 9.150 3.873,8.787 3.787,8.093 3.772 C 7.756 3.765,7.542 3.773,7.373 3.801 M8.627 5.332 C 8.862 5.393,9.212 5.551,9.407 5.684 C 9.577 5.800,9.847 6.060,9.990 6.245 C 10.556 6.978,10.655 7.998,10.241 8.840 C 9.921 9.490,9.351 9.966,8.653 10.166 C 8.470 10.218,8.378 10.227,8.000 10.227 C 7.487 10.227,7.297 10.185,6.893 9.986 C 5.956 9.524,5.396 8.496,5.521 7.467 C 5.591 6.893,5.813 6.426,6.210 6.018 C 6.586 5.631,7.028 5.392,7.556 5.291 C 7.824 5.240,8.351 5.260,8.627 5.332 " stroke="none" fill-rule="evenodd" fill="black"></path></svg>