<svg xmlns="http://www.w3.org/2000/svg" width="24" height="24" viewBox="0 0 24 24"><path d="M3.534 1.582 C 2.538 1.801,1.623 2.576,1.245 3.523 C 1.058 3.991,0.985 4.426,1.012 4.919 C 1.083 6.253,1.943 7.396,3.191 7.817 L 3.460 7.907 3.483 12.324 C 3.500 15.509,3.519 16.796,3.553 16.940 C 3.749 17.769,4.121 18.445,4.666 18.962 C 5.116 19.390,5.597 19.663,6.260 19.867 L 6.620 19.978 8.955 19.991 L 11.291 20.004 10.645 20.657 C 10.267 21.039,9.975 21.369,9.940 21.454 C 9.766 21.870,10.029 22.399,10.442 22.465 C 10.633 22.495,10.606 22.496,10.811 22.463 C 10.968 22.438,11.075 22.342,12.354 21.068 C 13.717 19.712,13.877 19.523,13.879 19.280 C 13.881 18.957,13.848 18.915,12.446 17.509 C 11.578 16.637,11.042 16.130,10.937 16.079 C 10.491 15.863,9.943 16.144,9.890 16.618 C 9.847 17.005,9.870 17.043,10.603 17.781 C 10.975 18.156,11.280 18.477,11.280 18.494 C 11.280 18.511,10.285 18.519,9.070 18.511 C 7.080 18.497,6.838 18.488,6.640 18.424 C 5.811 18.154,5.175 17.448,5.043 16.654 C 5.011 16.459,5.001 15.160,5.009 12.145 L 5.020 7.911 5.241 7.843 C 5.518 7.757,5.925 7.552,6.160 7.380 C 6.385 7.215,6.785 6.798,6.947 6.560 C 7.367 5.941,7.568 5.129,7.479 4.410 C 7.307 3.024,6.360 1.940,5.024 1.600 C 4.649 1.505,3.925 1.496,3.534 1.582 M13.060 1.577 C 12.994 1.607,12.326 2.250,11.575 3.006 C 10.109 4.480,10.083 4.514,10.137 4.852 C 10.152 4.942,10.198 5.071,10.239 5.138 C 10.281 5.205,10.915 5.857,11.648 6.586 C 13.027 7.959,13.076 7.999,13.391 8.000 C 13.517 8.000,13.760 7.894,13.875 7.788 C 14.001 7.672,14.118 7.413,14.119 7.249 C 14.121 6.989,14.007 6.830,13.349 6.170 L 12.701 5.520 14.900 5.520 C 17.318 5.521,17.305 5.520,17.799 5.769 C 18.365 6.054,18.853 6.719,18.957 7.346 C 18.989 7.541,18.999 8.840,18.991 11.855 L 18.980 16.089 18.757 16.158 C 18.156 16.344,17.482 16.840,17.102 17.376 C 16.186 18.670,16.335 20.418,17.459 21.541 C 18.581 22.664,20.330 22.814,21.621 21.900 C 22.533 21.253,23.048 20.192,22.988 19.081 C 22.917 17.759,22.080 16.635,20.840 16.196 L 20.540 16.090 20.517 11.675 C 20.500 8.491,20.481 7.204,20.447 7.060 C 20.181 5.939,19.587 5.090,18.681 4.543 C 18.301 4.314,17.702 4.101,17.267 4.042 C 17.080 4.017,16.102 4.000,14.830 4.000 L 12.705 4.000 13.352 3.345 C 14.012 2.678,14.120 2.525,14.120 2.260 C 14.120 2.099,14.031 1.860,13.928 1.747 C 13.741 1.540,13.324 1.458,13.060 1.577 M4.608 3.045 C 5.308 3.194,5.845 3.759,5.968 4.479 C 6.165 5.627,5.142 6.658,3.987 6.476 C 3.420 6.386,2.936 6.026,2.677 5.501 C 2.545 5.232,2.540 5.205,2.540 4.761 C 2.540 4.325,2.547 4.285,2.668 4.030 C 3.027 3.273,3.810 2.875,4.608 3.045 M20.502 17.678 C 20.859 17.854,21.147 18.142,21.323 18.499 C 21.455 18.768,21.460 18.795,21.460 19.239 C 21.460 19.675,21.453 19.715,21.332 19.970 C 20.809 21.075,19.403 21.344,18.542 20.504 C 17.596 19.580,17.954 18.041,19.219 17.590 C 19.373 17.535,19.514 17.521,19.822 17.530 C 20.187 17.540,20.251 17.554,20.502 17.678 " stroke="none" fill-rule="evenodd" fill="black"></path></svg>