<svg xmlns="http://www.w3.org/2000/svg" width="16" height="16" viewBox="0 0 16 16"><path d="M8.382 1.872 C 7.519 2.734,7.117 3.154,7.106 3.203 C 7.097 3.246,7.106 3.307,7.130 3.351 C 7.152 3.393,7.726 3.982,8.405 4.660 C 9.602 5.854,9.645 5.893,9.743 5.893 C 9.819 5.893,9.863 5.874,9.922 5.815 L 10.000 5.737 10.000 4.867 L 10.000 3.996 10.620 4.005 C 11.235 4.013,11.241 4.014,11.400 4.088 C 11.610 4.186,11.816 4.391,11.911 4.597 L 11.987 4.760 11.994 7.695 L 12.001 10.630 11.853 10.691 C 11.266 10.934,10.767 11.504,10.585 12.138 C 10.512 12.392,10.487 12.871,10.533 13.129 C 10.725 14.216,11.656 14.996,12.760 14.994 C 14.302 14.991,15.370 13.485,14.870 12.021 C 14.821 11.879,14.741 11.695,14.691 11.612 C 14.458 11.226,14.095 10.899,13.701 10.720 L 13.496 10.627 13.488 7.587 L 13.479 4.547 13.418 4.348 C 13.340 4.095,13.206 3.805,13.076 3.608 C 12.825 3.230,12.390 2.874,11.959 2.695 C 11.591 2.541,11.351 2.507,10.633 2.507 L 10.000 2.507 10.000 1.638 L 10.000 0.769 9.922 0.691 C 9.863 0.632,9.819 0.613,9.743 0.613 C 9.645 0.613,9.602 0.653,8.382 1.872 M3.267 1.056 C 2.514 1.223,1.871 1.798,1.629 2.520 C 1.476 2.980,1.459 3.354,1.574 3.801 C 1.743 4.465,2.224 5.040,2.829 5.301 L 2.987 5.369 2.987 8.001 L 2.987 10.634 2.873 10.679 C 2.693 10.751,2.384 10.953,2.210 11.114 C 1.920 11.382,1.711 11.729,1.583 12.152 C 1.486 12.472,1.479 12.971,1.566 13.293 C 1.742 13.944,2.153 14.457,2.728 14.745 C 3.096 14.929,3.346 14.991,3.733 14.992 C 4.357 14.994,4.893 14.777,5.330 14.344 C 6.094 13.587,6.218 12.396,5.625 11.509 C 5.395 11.165,4.913 10.770,4.594 10.665 L 4.507 10.636 4.507 8.003 L 4.507 5.370 4.657 5.307 C 5.030 5.153,5.461 4.771,5.680 4.403 C 6.120 3.662,6.096 2.714,5.619 2.000 C 5.503 1.826,5.211 1.532,5.032 1.409 C 4.837 1.275,4.542 1.135,4.333 1.077 C 4.105 1.014,3.510 1.002,3.267 1.056 M4.005 2.548 C 4.291 2.645,4.492 2.937,4.490 3.251 C 4.488 3.540,4.353 3.770,4.107 3.904 C 3.611 4.174,3.010 3.815,3.016 3.253 C 3.017 3.158,3.031 3.042,3.049 2.995 C 3.189 2.615,3.616 2.415,4.005 2.548 M4.110 12.098 C 4.457 12.286,4.592 12.717,4.417 13.074 C 4.278 13.358,4.015 13.510,3.698 13.488 C 3.425 13.470,3.196 13.318,3.080 13.079 C 3.001 12.916,2.994 12.628,3.066 12.462 C 3.240 12.057,3.725 11.888,4.110 12.098 M12.976 12.039 C 13.138 12.087,13.309 12.229,13.407 12.396 C 13.471 12.505,13.480 12.547,13.480 12.747 C 13.479 13.014,13.431 13.127,13.247 13.297 C 13.083 13.449,12.925 13.504,12.700 13.488 C 12.476 13.472,12.335 13.402,12.190 13.237 C 11.835 12.835,12.007 12.224,12.525 12.038 C 12.659 11.991,12.814 11.991,12.976 12.039 " stroke="none" fill-rule="evenodd" fill="black"></path></svg>