<svg xmlns="http://www.w3.org/2000/svg" width="24" height="24" viewBox="0 0 24 24"><path d="M16.540 1.438 C 16.105 1.541,15.862 1.925,15.965 2.348 C 16.008 2.525,16.095 2.624,17.085 3.621 L 18.159 4.702 17.137 5.721 C 16.575 6.281,16.086 6.794,16.052 6.859 C 16.017 6.924,15.987 7.068,15.986 7.179 C 15.978 7.745,16.572 8.103,17.079 7.839 C 17.157 7.799,17.670 7.314,18.220 6.763 L 19.219 5.760 20.240 6.776 C 20.801 7.335,21.322 7.823,21.397 7.861 C 21.947 8.136,22.598 7.594,22.439 6.993 C 22.399 6.842,22.256 6.682,21.337 5.759 L 20.281 4.699 21.303 3.679 C 21.865 3.119,22.360 2.593,22.403 2.512 C 22.549 2.230,22.485 1.848,22.255 1.633 C 22.034 1.426,21.678 1.377,21.408 1.517 C 21.327 1.560,20.801 2.055,20.241 2.617 L 19.221 3.639 18.141 2.562 C 17.403 1.827,17.025 1.478,16.950 1.463 C 16.717 1.415,16.656 1.411,16.540 1.438 M4.123 1.561 C 2.058 1.995,0.932 4.191,1.796 6.098 C 2.156 6.891,2.941 7.589,3.760 7.843 L 3.980 7.911 3.990 11.997 C 4.000 15.862,3.997 16.084,3.930 16.104 C 3.362 16.280,2.933 16.522,2.535 16.893 C 2.054 17.342,1.766 17.837,1.598 18.507 C 1.478 18.985,1.502 19.743,1.651 20.207 C 2.000 21.295,2.875 22.120,3.980 22.403 C 4.416 22.514,5.101 22.516,5.524 22.406 C 7.045 22.009,8.075 20.629,7.988 19.102 C 7.958 18.587,7.876 18.268,7.657 17.818 C 7.283 17.050,6.645 16.481,5.840 16.196 L 5.540 16.090 5.530 12.004 C 5.520 8.139,5.523 7.916,5.590 7.893 C 6.281 7.651,6.637 7.444,7.024 7.057 C 7.456 6.626,7.714 6.182,7.890 5.566 C 8.023 5.103,8.012 4.351,7.866 3.868 C 7.699 3.318,7.483 2.933,7.122 2.545 C 6.738 2.133,6.139 1.764,5.620 1.620 C 5.339 1.542,4.392 1.505,4.123 1.561 M5.179 3.061 C 5.689 3.194,6.099 3.539,6.332 4.030 C 6.453 4.285,6.460 4.325,6.460 4.761 C 6.460 5.205,6.455 5.232,6.323 5.501 C 5.918 6.323,4.992 6.696,4.130 6.385 C 3.752 6.248,3.344 5.869,3.172 5.495 C 2.561 4.158,3.768 2.694,5.179 3.061 M18.940 8.953 C 18.756 9.041,18.628 9.169,18.553 9.340 C 18.511 9.435,18.496 10.156,18.480 12.775 L 18.460 16.090 18.159 16.196 C 17.262 16.512,16.505 17.264,16.198 18.142 C 15.555 19.982,16.582 21.905,18.476 22.407 C 18.895 22.518,19.579 22.516,20.020 22.403 C 20.724 22.222,21.388 21.788,21.811 21.231 C 22.262 20.636,22.437 20.146,22.468 19.379 C 22.487 18.929,22.478 18.811,22.402 18.507 C 22.120 17.381,21.372 16.560,20.280 16.175 L 20.020 16.084 20.000 12.729 L 19.980 9.374 19.884 9.233 C 19.665 8.914,19.269 8.797,18.940 8.953 M5.502 17.678 C 5.859 17.854,6.147 18.142,6.323 18.499 C 6.455 18.768,6.460 18.795,6.460 19.239 C 6.460 19.675,6.453 19.715,6.332 19.970 C 5.809 21.075,4.403 21.344,3.542 20.504 C 2.596 19.580,2.954 18.041,4.219 17.590 C 4.373 17.535,4.514 17.521,4.822 17.530 C 5.187 17.540,5.251 17.554,5.502 17.678 M19.970 17.669 C 20.692 18.008,21.098 18.762,20.968 19.521 C 20.792 20.550,19.812 21.197,18.821 20.939 C 18.311 20.806,17.901 20.461,17.668 19.970 C 17.547 19.715,17.540 19.675,17.540 19.239 C 17.540 18.802,17.547 18.765,17.668 18.519 C 17.829 18.191,18.022 17.966,18.286 17.796 C 18.635 17.572,18.846 17.517,19.300 17.530 C 19.652 17.541,19.733 17.557,19.970 17.669 " stroke="none" fill-rule="evenodd" fill="black"></path></svg>