<svg xmlns="http://www.w3.org/2000/svg" width="16" height="16" viewBox="0 0 16 16"><path d="M3.787 1.054 C 3.245 1.164,2.744 1.495,2.413 1.960 C 2.257 2.180,2.173 2.356,2.092 2.632 C 1.921 3.214,2.006 3.874,2.320 4.403 C 2.539 4.771,2.970 5.153,3.343 5.307 L 3.493 5.370 3.493 8.003 L 3.493 10.636 3.406 10.665 C 3.236 10.721,2.903 10.937,2.717 11.114 C 2.391 11.421,2.201 11.735,2.074 12.179 C 1.989 12.476,1.989 13.017,2.074 13.314 C 2.196 13.739,2.385 14.061,2.684 14.353 C 2.890 14.554,2.987 14.624,3.228 14.746 C 4.138 15.208,5.208 15.016,5.902 14.266 C 6.856 13.235,6.631 11.587,5.435 10.845 C 5.328 10.778,5.189 10.704,5.127 10.679 L 5.013 10.634 5.013 8.886 L 5.013 7.138 5.287 7.403 C 6.145 8.235,7.211 8.755,8.453 8.947 C 8.653 8.978,9.007 8.995,9.684 9.006 L 10.634 9.021 10.701 9.175 C 10.841 9.499,11.133 9.859,11.425 10.066 C 12.327 10.705,13.509 10.630,14.289 9.883 C 14.808 9.387,15.063 8.701,14.985 8.014 C 14.800 6.382,13.018 5.492,11.597 6.322 C 11.232 6.535,10.847 6.969,10.692 7.345 L 10.629 7.497 9.654 7.487 C 8.774 7.478,8.654 7.471,8.408 7.418 C 7.306 7.180,6.377 6.562,5.754 5.653 C 5.658 5.514,5.553 5.347,5.520 5.281 L 5.460 5.163 5.526 5.108 C 5.563 5.078,5.649 5.007,5.718 4.951 C 6.022 4.702,6.284 4.289,6.416 3.852 C 6.479 3.644,6.488 3.568,6.488 3.253 C 6.488 2.939,6.479 2.863,6.416 2.655 C 6.163 1.817,5.532 1.224,4.714 1.056 C 4.469 1.005,4.029 1.004,3.787 1.054 M4.458 2.534 C 4.880 2.651,5.111 3.159,4.924 3.561 C 4.619 4.216,3.666 4.105,3.519 3.397 C 3.408 2.860,3.924 2.386,4.458 2.534 M13.086 7.589 C 13.454 7.767,13.599 8.207,13.412 8.581 C 13.249 8.908,12.923 9.061,12.579 8.973 C 12.204 8.877,11.967 8.541,12.011 8.167 C 12.073 7.641,12.603 7.356,13.086 7.589 M4.478 12.042 C 4.660 12.096,4.853 12.273,4.933 12.459 C 5.006 12.628,5.000 12.914,4.920 13.079 C 4.670 13.593,3.932 13.637,3.627 13.156 C 3.398 12.796,3.505 12.329,3.863 12.115 C 4.066 11.994,4.245 11.973,4.478 12.042 " stroke="none" fill-rule="evenodd" fill="black"></path></svg>