<svg xmlns="http://www.w3.org/2000/svg" width="16" height="16" viewBox="0 0 16 16"><path d="M2.762 1.056 C 2.082 1.207,1.503 1.674,1.211 2.306 C 1.062 2.628,1.008 2.872,1.007 3.227 C 1.006 3.732,1.116 4.097,1.392 4.510 C 1.624 4.857,1.968 5.146,2.355 5.317 L 2.507 5.384 2.506 8.005 L 2.505 10.627 2.300 10.720 C 1.505 11.081,1.003 11.873,1.006 12.760 C 1.007 13.105,1.069 13.387,1.212 13.695 C 1.791 14.949,3.362 15.386,4.510 14.612 C 5.003 14.280,5.363 13.723,5.467 13.129 C 5.513 12.871,5.488 12.392,5.415 12.138 C 5.233 11.504,4.734 10.934,4.148 10.692 L 4.000 10.630 4.001 8.002 L 4.002 5.373 4.261 5.247 C 4.701 5.032,5.032 4.701,5.254 4.253 C 5.327 4.107,5.406 3.915,5.429 3.827 C 5.489 3.605,5.508 3.104,5.467 2.869 C 5.322 2.049,4.747 1.387,3.947 1.117 C 3.718 1.040,3.657 1.031,3.320 1.023 C 3.053 1.017,2.894 1.026,2.762 1.056 M11.040 1.038 C 10.856 1.094,10.667 1.255,10.570 1.440 C 10.501 1.571,10.500 1.948,10.570 2.080 C 10.596 2.131,10.860 2.416,11.155 2.713 L 11.692 3.253 11.156 3.793 C 10.588 4.365,10.512 4.468,10.488 4.705 C 10.465 4.930,10.536 5.126,10.702 5.292 C 10.862 5.452,11.026 5.520,11.251 5.520 C 11.522 5.519,11.628 5.446,12.225 4.853 L 12.760 4.322 13.307 4.865 C 13.828 5.383,13.861 5.410,14.011 5.454 C 14.591 5.622,15.122 5.090,14.945 4.516 C 14.900 4.370,14.864 4.327,14.357 3.813 L 13.816 3.267 14.349 2.729 C 14.910 2.162,14.974 2.073,15.004 1.818 C 15.039 1.528,14.852 1.206,14.574 1.076 C 14.397 0.994,14.120 0.990,13.947 1.069 C 13.863 1.107,13.665 1.284,13.287 1.660 L 12.747 2.198 12.194 1.650 C 11.719 1.180,11.621 1.095,11.509 1.057 C 11.372 1.012,11.156 1.003,11.040 1.038 M3.608 2.596 C 3.971 2.808,4.098 3.243,3.903 3.602 C 3.616 4.129,2.902 4.131,2.593 3.604 C 2.529 3.495,2.520 3.453,2.520 3.253 C 2.520 2.998,2.555 2.908,2.716 2.738 C 2.886 2.559,3.029 2.505,3.297 2.517 C 3.445 2.523,3.515 2.541,3.608 2.596 M12.500 6.543 C 12.374 6.590,12.235 6.696,12.148 6.809 C 11.998 7.006,12.000 6.977,12.000 8.878 L 12.000 10.630 11.852 10.692 C 11.266 10.934,10.767 11.504,10.585 12.138 C 10.512 12.392,10.487 12.871,10.533 13.129 C 10.725 14.216,11.656 14.996,12.760 14.994 C 14.302 14.991,15.370 13.485,14.870 12.021 C 14.821 11.879,14.741 11.695,14.691 11.612 C 14.458 11.226,14.095 10.899,13.701 10.720 L 13.495 10.627 13.494 8.853 C 13.492 7.129,13.491 7.077,13.438 6.960 C 13.371 6.812,13.222 6.654,13.080 6.580 C 12.944 6.510,12.641 6.490,12.500 6.543 M3.564 12.075 C 3.728 12.159,3.821 12.248,3.903 12.398 C 4.053 12.674,4.017 13.003,3.811 13.237 C 3.665 13.402,3.524 13.472,3.300 13.488 C 3.075 13.504,2.917 13.449,2.753 13.297 C 2.569 13.127,2.521 13.014,2.520 12.747 C 2.520 12.547,2.529 12.505,2.593 12.396 C 2.688 12.235,2.860 12.088,3.013 12.039 C 3.173 11.988,3.425 12.004,3.564 12.075 M12.976 12.039 C 13.138 12.087,13.309 12.229,13.407 12.396 C 13.471 12.505,13.480 12.547,13.480 12.747 C 13.479 13.014,13.431 13.127,13.247 13.297 C 13.083 13.449,12.925 13.504,12.700 13.488 C 12.476 13.472,12.335 13.402,12.190 13.237 C 11.835 12.835,12.007 12.224,12.525 12.038 C 12.659 11.991,12.814 11.991,12.976 12.039 " stroke="none" fill-rule="evenodd" fill="black"></path></svg>