<svg xmlns="http://www.w3.org/2000/svg" width="24" height="24" viewBox="0 0 24 24"><path d="M4.960 1.603 C 3.633 1.948,2.692 3.032,2.521 4.410 C 2.432 5.129,2.633 5.941,3.053 6.560 C 3.215 6.798,3.615 7.215,3.840 7.380 C 4.075 7.552,4.482 7.757,4.759 7.843 L 4.980 7.911 4.980 12.000 L 4.980 16.089 4.757 16.158 C 4.156 16.344,3.482 16.840,3.102 17.376 C 2.186 18.670,2.335 20.418,3.459 21.541 C 4.581 22.664,6.330 22.814,7.621 21.900 C 8.533 21.253,9.048 20.192,8.988 19.081 C 8.917 17.744,8.053 16.602,6.793 16.178 L 6.500 16.080 6.511 13.815 L 6.521 11.550 6.914 11.948 C 7.954 13.003,9.096 13.608,10.619 13.911 C 10.877 13.962,11.349 13.979,13.015 13.997 L 15.089 14.020 15.160 14.240 C 15.376 14.913,15.796 15.484,16.380 15.900 C 17.667 16.814,19.419 16.663,20.541 15.541 C 21.234 14.848,21.595 13.828,21.479 12.890 C 21.434 12.528,21.301 12.077,21.154 11.787 C 20.750 10.992,19.936 10.334,19.088 10.117 C 17.391 9.683,15.700 10.603,15.160 12.254 L 15.071 12.528 13.105 12.509 C 10.957 12.488,10.802 12.473,10.057 12.219 C 8.384 11.648,7.072 10.214,6.658 8.505 C 6.514 7.911,6.515 7.909,6.790 7.823 C 8.512 7.288,9.451 5.267,8.771 3.562 C 8.373 2.565,7.470 1.797,6.442 1.580 C 6.033 1.494,5.335 1.505,4.960 1.603 M6.179 3.061 C 6.689 3.194,7.099 3.539,7.332 4.030 C 7.453 4.285,7.460 4.325,7.460 4.761 C 7.460 5.205,7.455 5.232,7.323 5.501 C 6.918 6.323,5.992 6.696,5.130 6.385 C 4.752 6.248,4.344 5.869,4.172 5.495 C 3.561 4.158,4.768 2.694,6.179 3.061 M18.970 11.669 C 19.692 12.008,20.098 12.762,19.968 13.521 C 19.792 14.550,18.812 15.197,17.821 14.939 C 17.311 14.806,16.901 14.461,16.668 13.970 C 16.547 13.715,16.540 13.675,16.540 13.239 C 16.540 12.802,16.547 12.765,16.668 12.519 C 16.829 12.191,17.022 11.966,17.286 11.796 C 17.635 11.572,17.846 11.517,18.300 11.530 C 18.652 11.541,18.733 11.557,18.970 11.669 M6.502 17.678 C 6.859 17.854,7.147 18.142,7.323 18.499 C 7.455 18.768,7.460 18.795,7.460 19.239 C 7.460 19.675,7.453 19.715,7.332 19.970 C 6.809 21.075,5.403 21.344,4.542 20.504 C 3.596 19.580,3.954 18.041,5.219 17.590 C 5.373 17.535,5.514 17.521,5.822 17.530 C 6.187 17.540,6.251 17.554,6.502 17.678 " stroke="none" fill-rule="evenodd" fill="black"></path></svg>