<svg xmlns="http://www.w3.org/2000/svg" width="24" height="24" viewBox="0 0 24 24"><path d="M3.960 1.603 C 2.633 1.948,1.692 3.032,1.521 4.410 C 1.432 5.129,1.633 5.941,2.053 6.560 C 2.215 6.798,2.615 7.215,2.840 7.380 C 3.075 7.552,3.482 7.757,3.759 7.843 L 3.980 7.911 3.980 12.000 L 3.980 16.089 3.757 16.158 C 3.156 16.344,2.482 16.840,2.102 17.376 C 1.186 18.670,1.335 20.418,2.459 21.541 C 3.581 22.664,5.330 22.814,6.621 21.900 C 7.533 21.253,8.048 20.192,7.988 19.081 C 7.917 17.744,7.053 16.602,5.793 16.178 L 5.500 16.079 5.500 12.000 L 5.500 7.920 5.760 7.835 C 7.529 7.257,8.458 5.284,7.771 3.562 C 7.373 2.565,6.470 1.797,5.442 1.580 C 5.033 1.494,4.335 1.505,3.960 1.603 M12.540 1.586 C 12.365 1.677,9.808 4.233,9.717 4.408 C 9.626 4.583,9.617 4.869,9.696 5.051 C 9.727 5.123,10.359 5.784,11.126 6.547 C 12.650 8.062,12.655 8.066,13.029 7.966 C 13.385 7.871,13.599 7.601,13.600 7.248 C 13.600 7.131,13.571 6.978,13.535 6.908 C 13.499 6.838,13.190 6.497,12.847 6.150 L 12.223 5.520 14.403 5.520 C 16.205 5.520,16.623 5.530,16.812 5.580 C 17.412 5.736,17.965 6.180,18.238 6.726 C 18.324 6.897,18.413 7.132,18.437 7.248 C 18.468 7.396,18.478 8.774,18.470 11.775 L 18.460 16.090 18.160 16.196 C 16.420 16.812,15.553 18.745,16.242 20.470 C 16.461 21.019,16.878 21.543,17.380 21.900 C 18.667 22.814,20.419 22.663,21.541 21.541 C 22.234 20.848,22.595 19.828,22.479 18.890 C 22.434 18.528,22.301 18.077,22.154 17.787 C 21.778 17.047,21.021 16.402,20.240 16.158 L 20.020 16.089 19.999 11.615 C 19.975 6.705,19.990 7.010,19.733 6.367 C 19.295 5.270,18.352 4.440,17.171 4.110 C 16.871 4.027,16.777 4.023,14.523 4.009 L 12.186 3.995 12.854 3.326 C 13.438 2.741,13.531 2.631,13.583 2.458 C 13.726 1.981,13.380 1.518,12.882 1.522 C 12.760 1.522,12.606 1.551,12.540 1.586 M5.179 3.061 C 5.689 3.194,6.099 3.539,6.332 4.030 C 6.453 4.285,6.460 4.325,6.460 4.761 C 6.460 5.205,6.455 5.232,6.323 5.501 C 5.918 6.323,4.992 6.696,4.130 6.385 C 3.752 6.248,3.344 5.869,3.172 5.495 C 2.561 4.158,3.768 2.694,5.179 3.061 M5.502 17.678 C 5.859 17.854,6.147 18.142,6.323 18.499 C 6.455 18.768,6.460 18.795,6.460 19.239 C 6.460 19.675,6.453 19.715,6.332 19.970 C 5.809 21.075,4.403 21.344,3.542 20.504 C 2.596 19.580,2.954 18.041,4.219 17.590 C 4.373 17.535,4.514 17.521,4.822 17.530 C 5.187 17.540,5.251 17.554,5.502 17.678 M19.970 17.669 C 20.692 18.008,21.098 18.762,20.968 19.521 C 20.792 20.550,19.812 21.197,18.821 20.939 C 18.311 20.806,17.901 20.461,17.668 19.970 C 17.547 19.715,17.540 19.675,17.540 19.239 C 17.540 18.802,17.547 18.765,17.668 18.519 C 17.829 18.191,18.022 17.966,18.286 17.796 C 18.635 17.572,18.846 17.517,19.300 17.530 C 19.652 17.541,19.733 17.557,19.970 17.669 " stroke="none" fill-rule="evenodd" fill="black"></path></svg>