<svg xmlns="http://www.w3.org/2000/svg" width="24" height="24" viewBox="0 0 24 24"><path d="M11.069 1.039 C 8.822 1.258,6.868 2.041,5.101 3.432 C 4.640 3.795,3.606 4.863,3.231 5.363 C 2.075 6.906,1.379 8.590,1.093 10.540 C 0.995 11.212,0.995 12.788,1.093 13.460 C 1.379 15.409,2.074 17.091,3.230 18.637 C 3.685 19.244,4.756 20.315,5.363 20.770 C 6.909 21.926,8.591 22.621,10.540 22.907 C 11.212 23.005,12.788 23.005,13.460 22.907 C 15.409 22.621,17.091 21.926,18.637 20.770 C 19.244 20.315,20.315 19.244,20.770 18.637 C 21.926 17.091,22.621 15.409,22.907 13.460 C 22.959 13.104,22.977 12.727,22.977 12.000 C 22.977 11.273,22.959 10.896,22.907 10.540 C 22.621 8.590,21.925 6.906,20.769 5.363 C 20.394 4.863,19.360 3.795,18.899 3.432 C 17.302 2.175,15.548 1.412,13.580 1.120 C 12.946 1.026,11.638 0.984,11.069 1.039 M10.238 2.930 C 8.561 5.274,7.526 8.003,7.319 10.623 C 7.295 10.929,7.266 11.257,7.255 11.350 L 7.235 11.520 4.873 11.520 L 2.512 11.520 2.540 11.190 C 2.811 7.974,4.720 5.107,7.600 3.586 C 8.322 3.205,9.124 2.912,9.960 2.723 C 10.483 2.606,10.474 2.599,10.238 2.930 M14.020 2.721 C 17.731 3.539,20.624 6.501,21.319 10.195 C 21.396 10.603,21.479 11.241,21.480 11.430 L 21.480 11.520 19.122 11.520 L 16.764 11.520 16.744 11.390 C 16.733 11.318,16.713 11.071,16.700 10.840 C 16.622 9.472,16.215 7.740,15.632 6.300 C 15.217 5.274,14.511 3.981,13.910 3.147 C 13.544 2.638,13.545 2.640,13.608 2.641 C 13.637 2.641,13.822 2.677,14.020 2.721 M12.245 3.412 C 12.884 4.231,13.543 5.318,13.982 6.279 C 14.697 7.842,15.086 9.376,15.221 11.170 L 15.247 11.520 12.000 11.520 L 8.753 11.520 8.779 11.170 C 8.973 8.606,9.734 6.384,11.140 4.278 C 11.495 3.747,11.959 3.124,12.000 3.124 C 12.011 3.124,12.121 3.253,12.245 3.412 M7.299 13.270 C 7.548 15.893,8.414 18.346,9.848 20.497 C 10.023 20.759,10.229 21.055,10.306 21.156 C 10.383 21.257,10.426 21.345,10.401 21.353 C 10.344 21.372,9.844 21.260,9.339 21.116 C 5.756 20.091,3.069 16.949,2.580 13.210 L 2.552 13.000 4.913 13.000 L 7.274 13.000 7.299 13.270 M15.200 13.091 C 15.200 13.141,15.173 13.400,15.140 13.666 C 14.866 15.880,14.047 18.004,12.730 19.920 C 12.442 20.338,12.031 20.876,12.000 20.876 C 11.959 20.876,11.494 20.253,11.137 19.717 C 10.095 18.156,9.381 16.456,9.024 14.680 C 8.929 14.211,8.800 13.294,8.800 13.091 L 8.800 13.000 12.000 13.000 L 15.200 13.000 15.200 13.091 M21.421 13.210 C 21.355 13.724,21.181 14.467,20.997 15.020 C 20.023 17.945,17.602 20.275,14.661 21.116 C 14.169 21.256,13.655 21.372,13.605 21.354 C 13.584 21.346,13.717 21.129,13.899 20.871 C 15.403 18.746,16.375 16.198,16.659 13.640 C 16.692 13.343,16.719 13.078,16.720 13.050 C 16.720 13.011,17.220 13.000,19.084 13.000 L 21.448 13.000 21.421 13.210 " stroke="none" fill-rule="evenodd" fill="black"></path></svg>