<svg xmlns="http://www.w3.org/2000/svg" width="16" height="16" viewBox="0 0 16 16"><path d="M7.467 0.017 C 5.118 0.192,3.024 1.327,1.608 3.193 C 0.799 4.260,0.296 5.477,0.073 6.906 C -0.009 7.429,-0.009 8.571,0.073 9.094 C 0.415 11.288,1.476 13.089,3.195 14.393 C 4.257 15.199,5.481 15.705,6.906 15.927 C 7.429 16.009,8.571 16.009,9.094 15.927 C 11.038 15.624,12.690 14.748,13.930 13.362 C 15.030 12.133,15.665 10.775,15.927 9.094 C 16.009 8.571,16.009 7.429,15.927 6.906 C 15.705 5.481,15.199 4.257,14.393 3.195 C 13.070 1.452,11.180 0.355,9.000 0.066 C 8.688 0.025,7.760 -0.005,7.467 0.017 M6.187 1.772 C 6.187 1.779,6.111 1.902,6.018 2.045 C 5.108 3.458,4.491 5.185,4.320 6.800 C 4.303 6.954,4.284 7.119,4.277 7.167 L 4.264 7.253 2.904 7.253 L 1.543 7.253 1.561 7.127 C 1.673 6.306,1.967 5.456,2.388 4.729 C 2.896 3.855,3.681 3.042,4.549 2.493 C 4.884 2.281,5.423 2.020,5.813 1.881 C 6.152 1.761,6.187 1.751,6.187 1.772 M10.152 1.870 C 10.758 2.080,11.393 2.422,11.944 2.834 C 12.274 3.081,12.890 3.698,13.155 4.046 C 13.845 4.955,14.281 6.000,14.439 7.127 L 14.457 7.253 13.096 7.253 L 11.736 7.253 11.723 7.167 C 11.716 7.119,11.697 6.954,11.680 6.800 C 11.509 5.185,10.892 3.458,9.982 2.045 C 9.818 1.791,9.801 1.760,9.825 1.760 C 9.831 1.760,9.978 1.809,10.152 1.870 M8.163 2.061 C 8.891 2.995,9.509 4.183,9.839 5.280 C 10.009 5.847,10.136 6.480,10.202 7.087 L 10.220 7.253 8.000 7.253 L 5.780 7.253 5.798 7.087 C 5.977 5.435,6.532 3.943,7.487 2.547 C 7.697 2.239,7.977 1.869,8.000 1.869 C 8.007 1.869,8.081 1.956,8.163 2.061 M4.277 8.833 C 4.284 8.881,4.303 9.046,4.320 9.200 C 4.491 10.816,5.108 12.542,6.020 13.957 C 6.113 14.101,6.184 14.224,6.179 14.230 C 6.152 14.257,5.492 14.003,5.133 13.828 C 3.204 12.884,1.853 11.010,1.561 8.873 L 1.543 8.747 2.904 8.747 L 4.264 8.747 4.277 8.833 M10.202 8.913 C 10.023 10.563,9.469 12.054,8.514 13.453 C 8.403 13.615,8.247 13.831,8.165 13.933 C 8.084 14.036,8.013 14.125,8.008 14.131 C 7.998 14.144,7.996 14.142,7.745 13.809 C 7.352 13.290,7.067 12.830,6.772 12.240 C 6.242 11.181,5.927 10.104,5.798 8.913 L 5.780 8.747 8.000 8.747 L 10.220 8.747 10.202 8.913 M14.439 8.873 C 14.314 9.762,14.024 10.584,13.566 11.347 C 12.924 12.415,11.986 13.277,10.867 13.827 C 10.509 14.003,9.849 14.258,9.821 14.230 C 9.816 14.224,9.887 14.101,9.980 13.957 C 10.892 12.542,11.509 10.816,11.680 9.200 C 11.697 9.046,11.716 8.881,11.723 8.833 L 11.736 8.747 13.096 8.747 L 14.457 8.747 14.439 8.873 " stroke="none" fill-rule="evenodd" fill="black"></path></svg>