<svg xmlns="http://www.w3.org/2000/svg" width="24" height="24" viewBox="0 0 24 24"><path d="M8.664 6.063 C 8.436 6.146,8.257 6.297,8.131 6.511 C 8.036 6.672,8.020 6.744,8.020 7.000 C 8.020 7.256,8.036 7.328,8.131 7.489 C 8.470 8.065,9.234 8.168,9.701 7.701 C 10.092 7.310,10.092 6.690,9.701 6.299 C 9.429 6.027,9.018 5.933,8.664 6.063 M14.664 6.063 C 14.436 6.146,14.257 6.297,14.131 6.511 C 14.036 6.672,14.020 6.744,14.020 7.000 C 14.020 7.256,14.036 7.328,14.131 7.489 C 14.470 8.065,15.234 8.168,15.701 7.701 C 15.881 7.521,16.000 7.242,16.000 7.000 C 16.000 6.326,15.295 5.832,14.664 6.063 M8.664 11.063 C 8.436 11.146,8.257 11.297,8.131 11.511 C 8.036 11.672,8.020 11.744,8.020 12.000 C 8.020 12.256,8.036 12.328,8.131 12.489 C 8.470 13.065,9.234 13.168,9.701 12.701 C 10.092 12.310,10.092 11.690,9.701 11.299 C 9.429 11.027,9.018 10.933,8.664 11.063 M14.664 11.063 C 14.436 11.146,14.257 11.297,14.131 11.511 C 14.036 11.672,14.020 11.744,14.020 12.000 C 14.020 12.256,14.036 12.328,14.131 12.489 C 14.470 13.065,15.234 13.168,15.701 12.701 C 15.881 12.521,16.000 12.242,16.000 12.000 C 16.000 11.326,15.295 10.832,14.664 11.063 M8.664 16.063 C 8.436 16.146,8.257 16.297,8.131 16.511 C 8.036 16.672,8.020 16.744,8.020 17.000 C 8.020 17.256,8.036 17.328,8.131 17.489 C 8.470 18.065,9.234 18.168,9.701 17.701 C 10.092 17.310,10.092 16.690,9.701 16.299 C 9.429 16.027,9.018 15.933,8.664 16.063 M14.664 16.063 C 14.436 16.146,14.257 16.297,14.131 16.511 C 14.036 16.672,14.020 16.744,14.020 17.000 C 14.020 17.256,14.036 17.328,14.131 17.489 C 14.470 18.065,15.234 18.168,15.701 17.701 C 15.881 17.521,16.000 17.242,16.000 17.000 C 16.000 16.326,15.295 15.832,14.664 16.063 " stroke="none" fill-rule="evenodd" fill="black"></path></svg>