<svg xmlns="http://www.w3.org/2000/svg" width="16" height="16" viewBox="0 0 16 16"><path d="M5.662 3.061 C 5.221 3.219,4.939 3.692,5.014 4.152 C 5.145 4.957,6.127 5.277,6.702 4.702 C 7.188 4.216,7.050 3.404,6.429 3.100 C 6.234 3.005,5.872 2.986,5.662 3.061 M9.662 3.061 C 9.221 3.219,8.939 3.692,9.014 4.152 C 9.145 4.957,10.127 5.277,10.702 4.702 C 11.188 4.216,11.050 3.404,10.429 3.100 C 10.234 3.005,9.872 2.986,9.662 3.061 M5.662 7.061 C 5.221 7.219,4.939 7.692,5.014 8.152 C 5.145 8.957,6.127 9.277,6.702 8.702 C 7.188 8.216,7.050 7.404,6.429 7.100 C 6.234 7.005,5.872 6.986,5.662 7.061 M9.662 7.061 C 9.221 7.219,8.939 7.692,9.014 8.152 C 9.145 8.957,10.127 9.277,10.702 8.702 C 11.188 8.216,11.050 7.404,10.429 7.100 C 10.234 7.005,9.872 6.986,9.662 7.061 M5.662 11.061 C 5.221 11.219,4.939 11.692,5.014 12.152 C 5.145 12.957,6.127 13.277,6.702 12.702 C 7.188 12.216,7.050 11.404,6.429 11.100 C 6.234 11.005,5.872 10.986,5.662 11.061 M9.662 11.061 C 9.221 11.219,8.939 11.692,9.014 12.152 C 9.145 12.957,10.127 13.277,10.702 12.702 C 11.188 12.216,11.050 11.404,10.429 11.100 C 10.234 11.005,9.872 10.986,9.662 11.061 " stroke="none" fill-rule="evenodd" fill="black"></path></svg>