<svg xmlns="http://www.w3.org/2000/svg" width="16" height="16" viewBox="0 0 16 16"><path d="M0.453 1.067 C 0.280 1.148,0.116 1.320,0.053 1.487 C 0.001 1.627,0.000 1.704,0.000 8.000 C 0.000 14.329,0.000 14.372,0.054 14.512 C 0.145 14.749,0.322 14.907,0.573 14.972 C 0.714 15.009,1.536 15.013,8.000 15.013 C 14.464 15.013,15.286 15.009,15.427 14.972 C 15.790 14.878,16.021 14.561,15.993 14.196 C 15.971 13.912,15.800 13.676,15.529 13.553 C 15.433 13.509,15.007 13.506,8.460 13.500 L 1.494 13.493 1.487 7.513 C 1.480 1.628,1.479 1.532,1.428 1.428 C 1.360 1.292,1.214 1.146,1.079 1.080 C 0.919 1.002,0.607 0.996,0.453 1.067 M15.059 3.041 C 15.004 3.055,14.920 3.085,14.872 3.109 C 14.825 3.133,13.710 4.228,12.393 5.542 L 10.000 7.933 8.727 6.662 C 7.872 5.809,7.414 5.372,7.333 5.330 C 7.237 5.280,7.171 5.267,7.000 5.267 C 6.815 5.267,6.768 5.277,6.651 5.342 C 6.554 5.395,6.026 5.907,4.821 7.115 C 2.943 8.997,3.025 8.899,3.028 9.253 C 3.030 9.529,3.183 9.770,3.447 9.912 C 3.572 9.980,3.949 9.978,4.093 9.909 C 4.163 9.876,4.681 9.378,5.600 8.463 L 7.001 7.067 8.267 8.334 C 9.679 9.747,9.675 9.744,10.000 9.744 C 10.340 9.744,10.185 9.884,13.163 6.901 C 14.989 5.071,15.875 4.166,15.909 4.093 C 15.978 3.949,15.980 3.572,15.912 3.447 C 15.742 3.132,15.381 2.960,15.059 3.041 " stroke="none" fill-rule="evenodd" fill="black"></path></svg>