<svg xmlns="http://www.w3.org/2000/svg" width="24" height="24" viewBox="0 0 24 24"><path d="M1.460 2.076 C 1.257 2.170,1.089 2.348,1.039 2.523 C 0.985 2.710,0.986 21.288,1.040 21.481 C 1.089 21.658,1.341 21.909,1.522 21.961 C 1.611 21.986,4.947 22.000,10.900 21.999 C 19.778 21.998,20.146 21.995,20.302 21.925 C 20.846 21.678,20.904 20.951,20.405 20.635 L 20.224 20.520 11.372 20.520 L 2.520 20.520 2.519 11.650 C 2.518 5.698,2.504 2.721,2.477 2.601 C 2.367 2.126,1.887 1.878,1.460 2.076 M21.440 6.581 C 21.353 6.619,20.204 7.739,18.400 9.541 L 15.500 12.440 13.620 10.557 C 12.586 9.522,11.673 8.640,11.592 8.597 C 11.412 8.504,11.132 8.497,10.929 8.582 C 10.825 8.625,9.889 9.533,7.846 11.572 C 6.232 13.182,4.825 14.603,4.719 14.729 C 4.572 14.902,4.519 15.003,4.497 15.143 C 4.407 15.744,4.975 16.178,5.543 15.942 C 5.657 15.894,6.459 15.118,8.480 13.098 L 11.261 10.320 13.140 12.204 C 14.397 13.464,15.073 14.113,15.180 14.163 C 15.384 14.259,15.616 14.259,15.820 14.163 C 15.930 14.112,16.988 13.077,19.186 10.874 C 22.633 7.418,22.512 7.554,22.470 7.175 C 22.417 6.708,21.867 6.391,21.440 6.581 " stroke="none" fill-rule="evenodd" fill="black"></path></svg>