<svg xmlns="http://www.w3.org/2000/svg" width="16" height="16" viewBox="0 0 16 16"><path d="M5.926 1.082 C 5.763 1.163,5.597 1.341,5.549 1.486 C 5.531 1.542,5.410 2.242,5.282 3.041 L 5.049 4.493 3.545 4.507 L 2.040 4.520 1.915 4.582 C 1.845 4.616,1.751 4.687,1.704 4.740 C 1.374 5.117,1.462 5.661,1.893 5.904 L 2.040 5.987 3.420 5.994 C 4.704 6.001,4.800 6.005,4.798 6.048 C 4.797 6.073,4.656 6.969,4.484 8.040 L 4.171 9.987 2.866 10.000 C 1.590 10.013,1.557 10.015,1.440 10.072 C 1.220 10.179,1.087 10.341,1.027 10.577 C 0.960 10.840,1.026 11.080,1.222 11.276 C 1.432 11.485,1.388 11.479,2.727 11.487 C 3.569 11.493,3.920 11.504,3.920 11.524 C 3.920 11.540,3.824 12.156,3.706 12.894 C 3.471 14.366,3.471 14.359,3.614 14.604 C 3.913 15.115,4.698 15.074,4.930 14.536 C 4.968 14.446,5.060 13.944,5.219 12.949 L 5.452 11.493 7.433 11.493 C 9.348 11.493,9.413 11.495,9.413 11.543 C 9.413 11.570,9.323 12.157,9.213 12.846 C 9.103 13.536,9.013 14.159,9.013 14.232 C 9.013 14.435,9.082 14.600,9.229 14.746 C 9.446 14.964,9.769 15.026,10.051 14.905 C 10.211 14.836,10.407 14.634,10.455 14.487 C 10.473 14.433,10.592 13.741,10.719 12.948 L 10.951 11.507 12.455 11.493 L 13.960 11.480 14.085 11.418 C 14.155 11.384,14.249 11.313,14.296 11.260 C 14.626 10.883,14.538 10.339,14.107 10.096 L 13.960 10.013 12.580 10.006 C 11.299 9.998,11.200 9.994,11.202 9.952 C 11.203 9.927,11.344 9.031,11.516 7.960 L 11.829 6.013 13.134 6.000 C 14.410 5.987,14.443 5.985,14.560 5.928 C 14.780 5.821,14.913 5.659,14.973 5.423 C 15.062 5.077,14.909 4.752,14.581 4.588 L 14.418 4.507 13.249 4.507 C 12.401 4.507,12.080 4.498,12.080 4.477 C 12.080 4.460,12.176 3.844,12.294 3.106 C 12.530 1.634,12.529 1.641,12.385 1.395 C 12.142 0.980,11.532 0.916,11.195 1.271 C 11.050 1.423,11.023 1.542,10.781 3.049 L 10.548 4.507 8.567 4.507 C 6.638 4.507,6.587 4.505,6.587 4.456 C 6.587 4.428,6.682 3.807,6.799 3.076 C 7.031 1.619,7.032 1.607,6.894 1.372 C 6.755 1.136,6.539 1.015,6.252 1.014 C 6.102 1.013,6.036 1.027,5.926 1.082 M10.294 6.033 C 10.295 6.052,10.154 6.952,9.982 8.033 L 9.669 10.000 7.688 10.000 C 6.121 10.000,5.706 9.993,5.706 9.967 C 5.705 9.948,5.846 9.048,6.018 7.967 L 6.331 6.000 8.312 6.000 C 9.879 6.000,10.294 6.007,10.294 6.033 " stroke="none" fill-rule="evenodd" fill="black"></path></svg>