<svg xmlns="http://www.w3.org/2000/svg" width="24" height="24" viewBox="0 0 24 24"><path d="M9.159 1.850 C 8.985 1.938,8.818 2.133,8.777 2.298 C 8.766 2.343,8.572 3.532,8.347 4.940 L 7.938 7.500 5.719 7.520 C 3.714 7.538,3.488 7.547,3.374 7.609 C 3.109 7.754,2.969 8.056,3.018 8.380 C 3.053 8.616,3.296 8.898,3.515 8.959 C 3.604 8.984,4.440 9.000,5.670 9.000 C 6.776 9.000,7.681 9.014,7.682 9.030 C 7.683 9.046,7.471 10.396,7.212 12.029 L 6.740 14.997 4.620 15.009 L 2.500 15.020 2.355 15.118 C 1.932 15.404,1.886 15.986,2.259 16.314 C 2.478 16.506,2.639 16.520,4.642 16.520 C 5.994 16.520,6.480 16.532,6.480 16.566 C 6.480 16.591,6.318 17.623,6.120 18.860 C 5.922 20.097,5.760 21.166,5.760 21.236 C 5.760 21.383,5.853 21.624,5.952 21.733 C 6.189 21.995,6.674 22.035,6.949 21.815 C 7.032 21.749,7.130 21.633,7.168 21.557 C 7.209 21.474,7.389 20.463,7.627 18.970 L 8.019 16.520 11.249 16.520 C 13.646 16.520,14.480 16.532,14.480 16.566 C 14.480 16.591,14.318 17.623,14.120 18.860 C 13.922 20.097,13.760 21.166,13.760 21.236 C 13.760 21.383,13.853 21.624,13.952 21.733 C 14.189 21.995,14.674 22.035,14.949 21.815 C 15.032 21.749,15.130 21.633,15.168 21.557 C 15.209 21.474,15.389 20.463,15.627 18.970 L 16.019 16.520 18.107 16.520 C 19.470 16.520,20.267 16.505,20.400 16.476 C 20.942 16.360,21.182 15.695,20.828 15.292 C 20.567 14.995,20.626 15.002,18.330 15.001 C 17.203 15.000,16.279 14.987,16.278 14.970 C 16.277 14.954,16.489 13.604,16.748 11.970 L 17.220 9.000 19.280 9.000 C 20.544 9.000,21.396 8.984,21.485 8.959 C 21.704 8.898,21.947 8.616,21.982 8.380 C 22.033 8.041,21.888 7.747,21.598 7.599 C 21.450 7.524,21.355 7.520,19.462 7.520 C 17.653 7.520,17.480 7.514,17.480 7.454 C 17.480 7.418,17.651 6.321,17.860 5.015 C 18.069 3.709,18.240 2.577,18.240 2.499 C 18.240 2.307,18.112 2.068,17.937 1.935 C 17.787 1.820,17.468 1.764,17.261 1.816 C 17.110 1.854,16.851 2.104,16.799 2.264 C 16.774 2.340,16.570 3.549,16.346 4.951 L 15.938 7.500 12.709 7.510 C 9.735 7.520,9.480 7.515,9.480 7.455 C 9.480 7.419,9.651 6.321,9.860 5.015 C 10.069 3.709,10.240 2.568,10.240 2.479 C 10.240 1.939,9.656 1.599,9.159 1.850 M15.682 9.030 C 15.683 9.046,15.471 10.396,15.212 12.030 L 14.740 15.000 11.510 15.000 C 9.733 15.000,8.279 14.987,8.278 14.970 C 8.277 14.954,8.489 13.604,8.748 11.970 L 9.220 9.000 12.450 9.000 C 14.227 9.000,15.681 9.014,15.682 9.030 " stroke="none" fill-rule="evenodd" fill="black"></path></svg>