<svg xmlns="http://www.w3.org/2000/svg" width="16" height="16" viewBox="0 0 16 16"><path d="M3.504 2.047 C 3.258 2.135,3.095 2.316,3.027 2.576 C 2.992 2.712,2.987 3.377,2.987 8.000 C 2.987 12.661,2.991 13.287,3.028 13.427 C 3.094 13.680,3.250 13.855,3.493 13.949 C 3.889 14.101,4.344 13.873,4.466 13.461 C 4.501 13.342,4.507 12.996,4.507 10.915 L 4.507 8.507 8.000 8.507 L 11.493 8.507 11.493 10.915 C 11.493 12.996,11.499 13.342,11.534 13.461 C 11.656 13.873,12.111 14.101,12.507 13.949 C 12.750 13.855,12.906 13.680,12.972 13.427 C 13.009 13.287,13.013 12.661,13.013 8.000 C 13.013 2.244,13.021 2.544,12.863 2.324 C 12.498 1.816,11.711 1.944,11.534 2.539 C 11.499 2.657,11.493 2.979,11.493 4.845 L 11.493 7.013 8.000 7.013 L 4.507 7.013 4.507 4.845 C 4.507 2.452,4.511 2.513,4.339 2.291 C 4.153 2.048,3.794 1.943,3.504 2.047 " stroke="none" fill-rule="evenodd" fill="black"></path></svg>