<svg xmlns="http://www.w3.org/2000/svg" width="24" height="24" viewBox="0 0 24 24"><path d="M5.935 4.077 C 5.732 4.169,5.578 4.365,5.523 4.601 C 5.464 4.859,5.464 19.123,5.524 19.400 C 5.608 19.795,5.974 20.043,6.380 19.982 C 6.616 19.947,6.898 19.704,6.959 19.485 C 6.985 19.393,7.000 18.103,7.000 15.930 L 7.000 12.520 12.000 12.520 L 17.000 12.520 17.000 15.930 C 17.000 18.103,17.015 19.393,17.041 19.485 C 17.102 19.704,17.384 19.947,17.620 19.982 C 18.026 20.043,18.392 19.795,18.476 19.400 C 18.536 19.123,18.536 4.859,18.477 4.601 C 18.370 4.139,17.908 3.887,17.489 4.062 C 17.285 4.147,17.087 4.348,17.040 4.518 C 17.016 4.606,17.000 5.873,17.000 7.830 L 17.000 11.000 12.000 11.000 L 7.000 11.000 7.000 7.830 C 7.000 5.873,6.984 4.606,6.960 4.518 C 6.887 4.255,6.526 3.999,6.231 4.001 C 6.159 4.001,6.026 4.035,5.935 4.077 " stroke="none" fill-rule="evenodd" fill="black"></path></svg>