<svg xmlns="http://www.w3.org/2000/svg" width="24" height="24" viewBox="0 0 24 24"><path d="M5.822 2.585 C 5.088 2.717,4.176 3.112,3.510 3.588 C 3.079 3.894,2.440 4.537,2.133 4.972 C 1.090 6.449,0.769 8.196,1.179 10.171 C 1.724 12.799,3.658 15.543,6.750 18.075 C 8.179 19.246,10.129 20.564,11.479 21.271 C 11.787 21.432,11.839 21.447,12.043 21.432 C 12.234 21.418,12.351 21.369,12.824 21.103 C 14.527 20.146,16.315 18.889,17.847 17.572 C 18.816 16.740,20.100 15.378,20.764 14.480 C 22.313 12.381,23.066 10.288,22.987 8.300 C 22.949 7.351,22.777 6.667,22.363 5.820 C 22.057 5.196,21.715 4.717,21.218 4.221 C 20.549 3.553,19.778 3.071,18.920 2.784 C 18.341 2.591,17.892 2.520,17.239 2.520 C 16.008 2.520,14.965 2.837,13.952 3.517 C 13.272 3.974,12.640 4.616,12.202 5.293 C 12.107 5.440,12.016 5.560,12.000 5.560 C 11.984 5.560,11.893 5.440,11.798 5.293 C 11.055 4.143,9.883 3.228,8.607 2.800 C 7.822 2.537,6.606 2.443,5.822 2.585 M7.410 4.059 C 8.681 4.251,9.759 4.956,10.526 6.097 C 10.814 6.525,10.953 6.795,11.188 7.380 C 11.383 7.865,11.463 7.975,11.700 8.084 C 11.903 8.178,12.097 8.178,12.300 8.084 C 12.537 7.975,12.624 7.857,12.797 7.412 C 13.456 5.722,14.571 4.601,16.009 4.184 C 17.055 3.881,18.015 3.963,18.980 4.438 C 20.151 5.014,20.999 6.056,21.350 7.349 C 21.448 7.710,21.456 7.802,21.458 8.540 C 21.459 9.406,21.423 9.677,21.204 10.428 C 20.446 13.033,18.090 15.775,14.400 18.347 C 13.830 18.744,12.861 19.361,12.371 19.639 L 12.002 19.848 11.731 19.697 C 11.225 19.416,10.182 18.753,9.560 18.317 C 6.483 16.160,4.437 14.010,3.340 11.780 C 2.972 11.033,2.766 10.453,2.629 9.780 C 2.554 9.408,2.540 9.216,2.542 8.540 C 2.544 7.804,2.553 7.709,2.650 7.349 C 2.991 6.090,3.848 5.019,4.965 4.458 C 5.790 4.043,6.516 3.925,7.410 4.059 " stroke="none" fill-rule="evenodd" fill="black"></path></svg>