<svg xmlns="http://www.w3.org/2000/svg" width="24" height="24" viewBox="0 0 24 24"><path d="M5.822 2.585 C 5.088 2.717,4.176 3.112,3.510 3.588 C 3.079 3.894,2.440 4.537,2.133 4.972 C 1.648 5.659,1.298 6.467,1.114 7.320 C 0.995 7.877,0.984 9.165,1.094 9.760 C 1.524 12.081,2.676 14.106,4.819 16.314 C 6.456 18.001,8.898 19.834,11.275 21.162 C 11.651 21.371,11.769 21.418,11.956 21.432 C 12.163 21.447,12.212 21.433,12.541 21.261 C 13.921 20.539,15.994 19.125,17.419 17.934 C 21.175 14.796,23.113 11.442,22.987 8.300 C 22.949 7.351,22.777 6.667,22.363 5.820 C 22.057 5.196,21.715 4.717,21.218 4.221 C 20.549 3.553,19.778 3.071,18.920 2.784 C 18.341 2.591,17.892 2.520,17.239 2.520 C 16.008 2.520,14.965 2.837,13.952 3.517 C 13.272 3.974,12.640 4.616,12.202 5.293 C 12.107 5.440,12.016 5.560,12.000 5.560 C 11.984 5.560,11.893 5.440,11.798 5.293 C 11.055 4.143,9.883 3.228,8.607 2.800 C 7.822 2.537,6.606 2.443,5.822 2.585 " stroke="none" fill-rule="evenodd" fill="black"></path></svg>