<svg xmlns="http://www.w3.org/2000/svg" width="16" height="16" viewBox="0 0 16 16"><path d="M3.627 1.051 C 1.933 1.351,0.569 2.629,0.151 4.307 C 0.031 4.788,0.013 4.947,0.014 5.533 C 0.015 6.142,0.047 6.411,0.187 6.982 C 0.751 9.288,2.678 11.629,5.760 13.751 C 6.587 14.321,7.590 14.911,7.840 14.975 C 8.114 15.046,8.269 14.984,9.133 14.466 C 9.969 13.965,10.997 13.239,11.773 12.601 C 12.768 11.784,13.670 10.861,14.326 9.987 C 15.752 8.086,16.294 6.042,15.840 4.267 C 15.432 2.670,14.127 1.420,12.507 1.075 C 12.154 1.000,11.260 1.008,10.880 1.090 C 10.153 1.246,9.484 1.566,8.919 2.028 C 8.684 2.220,8.230 2.693,8.106 2.875 C 8.055 2.950,8.007 3.012,8.000 3.012 C 7.993 3.012,7.945 2.949,7.894 2.873 C 7.749 2.655,7.110 2.033,6.827 1.832 C 6.347 1.493,5.718 1.218,5.133 1.093 C 4.793 1.020,3.937 0.996,3.627 1.051 " stroke="none" fill-rule="evenodd" fill="black"></path></svg>