<svg xmlns="http://www.w3.org/2000/svg" width="16" height="16" viewBox="0 0 16 16"><path d="M3.627 1.051 C 1.933 1.351,0.569 2.629,0.151 4.307 C 0.031 4.788,0.013 4.947,0.014 5.533 C 0.015 6.142,0.047 6.411,0.187 6.982 C 0.699 9.076,2.356 11.224,4.973 13.188 C 6.034 13.984,7.470 14.881,7.834 14.974 C 7.984 15.012,8.015 15.013,8.160 14.975 C 8.499 14.889,9.924 14.006,10.933 13.258 C 12.414 12.161,13.629 10.965,14.501 9.747 C 15.911 7.776,16.361 5.539,15.694 3.813 C 15.150 2.403,13.966 1.386,12.507 1.075 C 12.154 1.000,11.260 1.008,10.880 1.090 C 10.153 1.246,9.484 1.566,8.919 2.028 C 8.684 2.220,8.230 2.693,8.106 2.875 C 8.055 2.950,8.007 3.012,8.000 3.012 C 7.993 3.012,7.945 2.949,7.894 2.873 C 7.749 2.655,7.110 2.033,6.827 1.832 C 6.347 1.493,5.718 1.218,5.133 1.093 C 4.793 1.020,3.937 0.996,3.627 1.051 M4.967 2.596 C 6.018 2.869,6.844 3.684,7.244 4.844 C 7.355 5.163,7.466 5.316,7.665 5.422 C 7.820 5.504,8.180 5.504,8.335 5.422 C 8.534 5.316,8.645 5.163,8.756 4.844 C 8.955 4.265,9.234 3.805,9.613 3.426 C 10.020 3.019,10.505 2.735,11.033 2.594 C 11.378 2.502,12.004 2.491,12.320 2.570 C 12.811 2.695,13.234 2.939,13.617 3.318 C 14.387 4.084,14.658 5.161,14.399 6.432 C 14.027 8.258,12.553 10.166,10.080 12.022 C 9.375 12.552,8.111 13.371,8.000 13.371 C 7.940 13.371,7.376 13.030,6.813 12.654 C 4.405 11.043,2.681 9.222,1.951 7.520 C 1.403 6.239,1.358 5.037,1.825 4.093 C 2.249 3.239,2.971 2.697,3.920 2.523 C 3.957 2.516,4.149 2.514,4.347 2.519 C 4.624 2.526,4.767 2.544,4.967 2.596 " stroke="none" fill-rule="evenodd" fill="black"></path></svg>