<svg xmlns="http://www.w3.org/2000/svg" width="16" height="16" viewBox="0 0 16 16"><path d="M7.293 0.028 C 5.406 0.205,3.653 1.030,2.333 2.360 C 2.143 2.552,1.909 2.808,1.813 2.927 L 1.640 3.145 0.999 2.506 C 0.370 1.879,0.355 1.867,0.248 1.867 C 0.158 1.867,0.126 1.882,0.069 1.949 L 0.000 2.031 0.000 3.937 L 0.000 5.844 0.078 5.922 L 0.156 6.000 2.064 6.000 L 3.972 6.000 4.056 5.926 C 4.121 5.867,4.139 5.830,4.139 5.749 C 4.139 5.650,4.112 5.619,3.424 4.931 L 2.710 4.216 2.868 4.010 C 3.086 3.726,3.534 3.263,3.839 3.007 C 4.771 2.226,5.967 1.712,7.240 1.544 C 7.587 1.498,8.456 1.505,8.834 1.556 C 11.198 1.877,13.159 3.402,14.035 5.600 C 14.647 7.135,14.647 8.865,14.035 10.400 C 13.703 11.233,13.235 11.941,12.588 12.588 C 11.534 13.640,10.292 14.247,8.760 14.458 C 8.447 14.501,7.549 14.500,7.227 14.456 C 6.503 14.358,5.770 14.140,5.160 13.841 C 4.464 13.501,3.981 13.155,3.425 12.601 C 2.383 11.560,1.761 10.310,1.561 8.853 C 1.499 8.399,1.397 8.221,1.115 8.077 C 0.799 7.916,0.363 8.035,0.163 8.337 C 0.030 8.537,0.016 8.678,0.080 9.123 C 0.667 13.159,4.142 16.098,8.200 15.991 C 9.742 15.950,11.156 15.504,12.440 14.653 C 14.457 13.316,15.749 11.125,15.976 8.657 C 16.019 8.189,15.993 7.318,15.922 6.853 C 15.477 3.930,13.528 1.526,10.770 0.497 C 10.244 0.301,9.629 0.151,9.013 0.067 C 8.641 0.016,7.659 -0.006,7.293 0.028 M7.504 4.047 C 7.256 4.136,7.093 4.318,7.026 4.582 C 6.990 4.721,6.986 4.994,6.992 6.578 L 7.000 8.413 7.075 8.566 C 7.208 8.838,7.232 8.850,8.717 9.445 C 10.008 9.962,10.074 9.986,10.240 9.983 C 10.444 9.980,10.573 9.929,10.723 9.794 C 11.044 9.504,11.056 9.009,10.749 8.709 C 10.635 8.597,10.524 8.548,9.340 8.078 L 8.507 7.747 8.507 6.212 C 8.507 4.516,8.506 4.507,8.339 4.291 C 8.153 4.048,7.794 3.943,7.504 4.047 " stroke="none" fill-rule="evenodd" fill="black"></path></svg>