<svg xmlns="http://www.w3.org/2000/svg" width="24" height="24" viewBox="0 0 24 24"><path d="M11.060 1.041 C 7.704 1.340,4.699 3.124,2.827 5.929 L 2.540 6.358 2.518 5.469 C 2.505 4.980,2.480 4.544,2.462 4.500 C 2.344 4.219,2.043 4.003,1.769 4.001 C 1.474 3.999,1.113 4.255,1.040 4.518 C 1.016 4.603,1.001 5.476,1.001 6.680 L 1.001 8.700 1.094 8.900 C 1.204 9.136,1.448 9.368,1.665 9.445 C 1.788 9.489,2.231 9.500,3.840 9.500 C 4.951 9.500,5.909 9.486,5.969 9.469 C 6.094 9.434,6.342 9.229,6.408 9.105 C 6.605 8.737,6.441 8.248,6.065 8.077 C 5.915 8.009,5.784 8.002,4.650 8.001 C 3.962 8.000,3.400 7.988,3.400 7.973 C 3.400 7.909,3.868 7.071,4.088 6.742 C 4.441 6.215,4.718 5.877,5.217 5.366 C 6.788 3.758,8.787 2.792,11.035 2.557 C 11.687 2.489,12.968 2.529,13.580 2.637 C 15.524 2.980,17.194 3.827,18.595 5.180 C 20.071 6.606,20.995 8.358,21.368 10.437 C 21.447 10.876,21.458 11.075,21.458 12.000 C 21.458 13.143,21.410 13.567,21.178 14.443 C 20.485 17.067,18.619 19.336,16.180 20.521 C 14.810 21.187,13.526 21.485,12.020 21.488 C 10.407 21.491,9.026 21.156,7.610 20.419 C 6.754 19.974,6.099 19.498,5.386 18.803 C 4.832 18.263,4.515 17.883,4.103 17.265 C 3.170 15.868,2.640 14.306,2.526 12.614 C 2.486 12.016,2.429 11.856,2.189 11.665 C 2.071 11.571,1.989 11.541,1.806 11.528 C 1.368 11.496,1.045 11.777,1.008 12.223 C 0.970 12.681,1.109 13.756,1.318 14.620 C 1.798 16.604,2.742 18.268,4.237 19.762 C 5.557 21.082,6.927 21.923,8.657 22.476 C 9.825 22.849,10.676 22.977,12.000 22.977 C 13.323 22.977,14.223 22.840,15.400 22.459 C 17.081 21.914,18.463 21.060,19.761 19.761 C 21.080 18.443,21.925 17.068,22.477 15.339 C 22.849 14.175,22.977 13.322,22.977 12.000 C 22.977 10.948,22.930 10.481,22.735 9.606 C 21.834 5.553,18.658 2.308,14.630 1.323 C 13.569 1.064,12.104 0.948,11.060 1.041 M11.420 6.587 C 11.235 6.685,11.155 6.766,11.075 6.940 C 11.006 7.091,11.002 7.271,11.002 10.000 C 11.002 12.738,11.006 12.909,11.076 13.063 C 11.117 13.153,11.200 13.266,11.262 13.314 C 11.324 13.363,12.181 13.864,13.168 14.427 C 14.684 15.293,14.992 15.455,15.156 15.471 C 15.419 15.496,15.607 15.426,15.775 15.240 C 16.063 14.921,16.052 14.491,15.747 14.206 C 15.691 14.154,14.947 13.712,14.093 13.224 L 12.540 12.337 12.520 9.699 C 12.502 7.338,12.493 7.047,12.434 6.940 C 12.346 6.781,12.167 6.615,12.027 6.563 C 11.865 6.501,11.559 6.513,11.420 6.587 " stroke="none" fill-rule="evenodd" fill="black"></path></svg>