<svg xmlns="http://www.w3.org/2000/svg" width="24" height="24" viewBox="0 0 24 24"><path d="M11.538 2.310 C 11.426 2.350,11.280 2.418,11.212 2.461 C 11.060 2.558,3.600 8.885,3.407 9.080 C 3.331 9.157,3.213 9.337,3.144 9.480 L 3.020 9.740 3.020 14.800 L 3.020 19.860 3.132 20.100 C 3.279 20.415,3.587 20.724,3.896 20.867 L 4.140 20.980 7.180 20.992 C 8.852 20.999,10.298 20.993,10.394 20.979 C 10.615 20.947,10.900 20.698,10.959 20.485 C 10.985 20.393,11.000 19.182,11.000 17.170 L 11.000 14.000 12.000 14.000 L 13.000 14.000 13.000 17.170 C 13.000 19.182,13.015 20.393,13.041 20.485 C 13.100 20.698,13.385 20.947,13.606 20.979 C 13.702 20.993,15.148 20.999,16.820 20.992 L 19.860 20.980 20.104 20.867 C 20.413 20.724,20.721 20.415,20.868 20.100 L 20.980 19.860 20.980 14.800 L 20.980 9.740 20.856 9.480 C 20.787 9.337,20.669 9.157,20.593 9.080 C 20.517 9.003,18.759 7.500,16.687 5.740 C 14.008 3.464,12.844 2.500,12.659 2.403 C 12.436 2.285,12.352 2.264,12.070 2.252 C 11.825 2.241,11.688 2.257,11.538 2.310 M15.745 6.912 L 19.460 10.065 19.470 14.792 L 19.480 19.520 17.001 19.520 L 14.522 19.520 14.511 16.290 C 14.501 13.368,14.494 13.049,14.434 12.940 C 14.346 12.781,14.167 12.615,14.027 12.563 C 13.866 12.502,10.066 12.504,9.947 12.565 C 9.817 12.632,9.641 12.805,9.566 12.940 C 9.506 13.049,9.499 13.368,9.489 16.290 L 9.478 19.520 6.999 19.520 L 4.520 19.520 4.530 14.792 L 4.540 10.065 8.255 6.912 C 10.298 5.179,11.983 3.760,12.000 3.760 C 12.017 3.760,13.702 5.179,15.745 6.912 " stroke="none" fill-rule="evenodd" fill="black"></path></svg>