<svg xmlns="http://www.w3.org/2000/svg" width="16" height="16" viewBox="0 0 16 16"><path d="M7.573 0.336 C 7.198 0.436,7.171 0.455,4.307 2.750 C 2.799 3.958,1.551 4.959,1.534 4.973 C 1.442 5.054,1.247 5.326,1.178 5.472 C 0.987 5.872,1.000 5.567,1.000 9.733 C 1.000 13.945,0.984 13.603,1.204 14.052 C 1.358 14.367,1.633 14.642,1.948 14.796 C 2.382 15.008,2.277 15.000,4.467 15.000 C 6.390 15.000,6.415 14.999,6.535 14.944 C 6.712 14.862,6.841 14.736,6.926 14.565 L 7.000 14.413 7.007 11.713 L 7.015 9.013 8.000 9.013 L 8.985 9.013 8.993 11.713 L 9.000 14.413 9.074 14.565 C 9.159 14.736,9.288 14.862,9.465 14.944 C 9.585 14.999,9.610 15.000,11.533 15.000 C 13.723 15.000,13.618 15.008,14.052 14.796 C 14.367 14.642,14.642 14.367,14.796 14.052 C 15.016 13.603,15.000 13.943,15.000 9.747 C 15.000 6.246,14.997 6.002,14.952 5.827 C 14.884 5.558,14.739 5.283,14.565 5.090 C 14.474 4.990,13.318 4.046,11.682 2.738 C 8.813 0.443,8.800 0.433,8.414 0.334 C 8.214 0.283,7.770 0.284,7.573 0.336 M8.113 1.816 C 8.192 1.859,13.361 5.992,13.433 6.071 L 13.493 6.136 13.493 9.733 L 13.493 13.329 13.424 13.411 L 13.355 13.493 11.931 13.493 L 10.508 13.493 10.500 10.780 C 10.493 8.081,10.493 8.066,10.437 7.947 C 10.366 7.796,10.215 7.646,10.056 7.567 L 9.933 7.507 8.000 7.507 L 6.067 7.507 5.944 7.567 C 5.785 7.646,5.634 7.796,5.563 7.947 C 5.507 8.066,5.507 8.081,5.500 10.780 L 5.492 13.493 4.069 13.493 L 2.645 13.493 2.576 13.411 L 2.507 13.329 2.507 9.733 L 2.507 6.136 2.567 6.071 C 2.632 6.000,7.794 1.869,7.881 1.819 C 7.948 1.780,8.042 1.779,8.113 1.816 " stroke="none" fill-rule="evenodd" fill="black"></path></svg>