<svg xmlns="http://www.w3.org/2000/svg" width="24" height="24" viewBox="0 0 24 24"><path d="M11.538 2.310 C 11.426 2.350,11.280 2.418,11.212 2.461 C 11.060 2.558,3.600 8.885,3.407 9.080 C 3.331 9.157,3.213 9.337,3.144 9.480 L 3.020 9.740 3.020 14.800 L 3.020 19.860 3.132 20.100 C 3.279 20.415,3.587 20.724,3.896 20.867 L 4.140 20.980 6.680 20.992 C 8.077 20.999,9.298 20.993,9.394 20.979 C 9.615 20.947,9.900 20.698,9.959 20.485 C 9.985 20.393,10.000 19.182,10.000 17.170 L 10.000 14.000 12.000 14.000 L 14.000 14.000 14.000 17.170 C 14.000 19.182,14.015 20.393,14.041 20.485 C 14.100 20.698,14.385 20.947,14.606 20.979 C 14.702 20.993,15.923 20.999,17.320 20.992 L 19.860 20.980 20.104 20.867 C 20.413 20.724,20.721 20.415,20.868 20.100 L 20.980 19.860 20.980 14.800 L 20.980 9.740 20.856 9.480 C 20.787 9.337,20.669 9.157,20.593 9.080 C 20.517 9.003,18.759 7.500,16.687 5.740 C 14.008 3.464,12.844 2.500,12.659 2.403 C 12.436 2.285,12.352 2.264,12.070 2.252 C 11.825 2.241,11.688 2.257,11.538 2.310 " stroke="none" fill-rule="evenodd" fill="black"></path></svg>