<svg xmlns="http://www.w3.org/2000/svg" width="16" height="16" viewBox="0 0 16 16"><path d="M0.439 7.076 C 0.281 7.150,0.154 7.271,0.073 7.423 C 0.027 7.510,0.014 7.579,0.014 7.747 C 0.013 7.936,0.022 7.976,0.096 8.107 C 0.142 8.187,0.229 8.292,0.291 8.339 C 0.525 8.520,-0.085 8.507,8.000 8.507 C 14.487 8.507,15.339 8.502,15.461 8.466 C 15.861 8.347,16.090 7.912,15.960 7.519 C 15.901 7.341,15.736 7.158,15.560 7.076 L 15.427 7.014 8.000 7.014 L 0.573 7.014 0.439 7.076 " stroke="none" fill-rule="evenodd" fill="black"></path></svg>