<svg xmlns="http://www.w3.org/2000/svg" width="24" height="24" viewBox="0 0 24 24"><path d="M4.460 2.075 C 3.962 2.301,3.852 2.914,4.242 3.286 C 4.425 3.461,4.651 3.520,5.138 3.520 L 5.472 3.520 5.491 5.290 C 5.508 6.876,5.518 7.097,5.591 7.420 C 5.813 8.410,6.268 9.231,6.966 9.902 C 7.326 10.249,7.511 10.378,8.795 11.183 C 9.404 11.566,9.826 11.856,9.851 11.910 C 9.880 11.972,9.880 12.028,9.851 12.092 C 9.825 12.148,9.399 12.441,8.735 12.859 C 7.486 13.643,7.196 13.852,6.837 14.226 C 6.199 14.892,5.801 15.644,5.591 16.580 C 5.518 16.903,5.508 17.123,5.491 18.730 L 5.472 20.520 5.014 20.520 C 4.638 20.520,4.529 20.534,4.402 20.599 C 4.112 20.747,3.967 21.041,4.018 21.380 C 4.053 21.616,4.296 21.898,4.515 21.959 C 4.715 22.015,19.285 22.015,19.485 21.959 C 19.704 21.898,19.947 21.616,19.982 21.380 C 20.033 21.041,19.888 20.747,19.598 20.599 C 19.471 20.534,19.362 20.520,18.986 20.520 L 18.528 20.520 18.509 18.730 C 18.492 17.113,18.482 16.905,18.408 16.580 C 18.196 15.649,17.805 14.903,17.190 14.255 C 16.813 13.858,16.534 13.656,15.265 12.859 C 14.573 12.423,14.175 12.149,14.147 12.088 C 14.114 12.015,14.117 11.970,14.162 11.896 C 14.194 11.843,14.723 11.483,15.338 11.096 C 16.620 10.289,16.793 10.163,17.186 9.749 C 17.806 9.096,18.197 8.351,18.408 7.420 C 18.481 7.096,18.491 6.882,18.509 5.290 L 18.529 3.520 18.862 3.520 C 19.349 3.520,19.575 3.461,19.758 3.286 C 20.148 2.914,20.038 2.301,19.540 2.075 C 19.387 2.005,19.053 2.002,12.000 2.002 C 4.947 2.002,4.613 2.005,4.460 2.075 M16.990 5.270 C 16.973 7.202,16.969 7.236,16.699 7.827 C 16.472 8.325,16.147 8.733,15.720 9.058 C 15.599 9.150,15.014 9.530,14.420 9.902 C 13.212 10.660,12.988 10.848,12.788 11.269 C 12.667 11.525,12.660 11.565,12.660 12.000 C 12.660 12.434,12.667 12.475,12.787 12.727 C 12.994 13.164,13.210 13.344,14.514 14.163 C 15.201 14.594,15.794 14.997,15.945 15.135 C 16.259 15.421,16.518 15.776,16.696 16.166 C 16.970 16.766,16.973 16.792,16.990 18.750 L 17.005 20.520 12.000 20.520 L 6.995 20.520 7.010 18.750 C 7.023 17.197,7.034 16.948,7.097 16.720 C 7.260 16.133,7.596 15.563,8.005 15.178 C 8.264 14.935,8.417 14.830,9.680 14.038 C 10.774 13.351,10.995 13.163,11.203 12.741 C 11.335 12.472,11.340 12.445,11.340 12.000 C 11.340 11.555,11.335 11.528,11.203 11.259 C 10.993 10.833,10.780 10.655,9.580 9.902 C 8.986 9.530,8.401 9.150,8.280 9.058 C 7.853 8.733,7.528 8.325,7.301 7.827 C 7.031 7.236,7.027 7.202,7.010 5.270 L 6.995 3.520 12.000 3.520 L 17.005 3.520 16.990 5.270 " stroke="none" fill-rule="evenodd" fill="black"></path></svg>