<svg xmlns="http://www.w3.org/2000/svg" width="16" height="16" viewBox="0 0 16 16"><path d="M2.440 1.076 C 2.044 1.261,1.888 1.736,2.100 2.113 C 2.273 2.422,2.486 2.507,3.085 2.507 L 3.493 2.507 3.493 3.228 C 3.493 4.025,3.517 4.319,3.617 4.771 C 3.747 5.358,3.976 5.894,4.306 6.387 C 4.650 6.899,4.950 7.207,5.558 7.671 C 5.937 7.961,5.931 8.043,5.503 8.373 C 5.099 8.686,4.887 8.877,4.675 9.125 C 4.023 9.885,3.634 10.786,3.522 11.792 C 3.506 11.935,3.493 12.375,3.493 12.770 L 3.493 13.488 3.033 13.497 C 2.593 13.506,2.567 13.510,2.421 13.581 C 2.175 13.702,2.029 13.921,2.007 14.199 C 1.979 14.561,2.212 14.878,2.573 14.972 C 2.713 15.009,3.339 15.013,8.000 15.013 C 12.661 15.013,13.287 15.009,13.427 14.972 C 13.790 14.878,14.021 14.561,13.993 14.196 C 13.971 13.912,13.798 13.673,13.529 13.554 C 13.450 13.519,13.323 13.507,12.967 13.499 L 12.507 13.488 12.507 12.787 C 12.507 12.401,12.494 11.961,12.479 11.809 C 12.379 10.819,11.978 9.887,11.325 9.125 C 11.113 8.877,10.901 8.686,10.497 8.373 C 10.056 8.033,10.056 7.967,10.497 7.627 C 10.901 7.314,11.113 7.123,11.325 6.875 C 11.853 6.260,12.210 5.549,12.383 4.771 C 12.481 4.333,12.507 4.006,12.507 3.211 L 12.507 2.507 12.915 2.507 C 13.514 2.507,13.727 2.422,13.900 2.113 C 14.112 1.736,13.956 1.261,13.560 1.076 L 13.427 1.014 8.000 1.014 L 2.573 1.014 2.440 1.076 M10.987 3.290 C 10.987 4.154,10.964 4.369,10.826 4.779 C 10.599 5.456,10.231 5.943,9.551 6.464 C 9.059 6.841,8.901 7.037,8.756 7.453 C 8.691 7.642,8.682 7.704,8.682 8.000 C 8.682 8.296,8.691 8.358,8.756 8.547 C 8.901 8.963,9.059 9.159,9.551 9.536 C 10.231 10.057,10.599 10.544,10.826 11.221 C 10.964 11.631,10.987 11.846,10.987 12.710 L 10.987 13.493 8.000 13.493 L 5.013 13.493 5.013 12.691 C 5.013 11.991,5.020 11.855,5.067 11.625 C 5.238 10.784,5.655 10.142,6.396 9.577 C 6.855 9.228,6.994 9.080,7.142 8.787 C 7.280 8.511,7.319 8.339,7.319 8.000 C 7.319 7.661,7.280 7.489,7.142 7.213 C 6.994 6.920,6.855 6.772,6.396 6.423 C 5.655 5.858,5.238 5.216,5.067 4.375 C 5.020 4.145,5.013 4.009,5.013 3.309 L 5.013 2.507 8.000 2.507 L 10.987 2.507 10.987 3.290 " stroke="none" fill-rule="evenodd" fill="black"></path></svg>