<svg xmlns="http://www.w3.org/2000/svg" width="24" height="24" viewBox="0 0 24 24"><path d="M11.200 1.025 C 7.677 1.288,4.535 2.992,2.410 5.793 C 1.208 7.377,0.461 9.177,0.109 11.339 C 0.026 11.847,0.023 11.988,0.010 16.834 L -0.004 21.808 0.083 21.986 C 0.214 22.258,0.426 22.380,0.764 22.380 C 1.004 22.380,1.050 22.366,1.186 22.257 C 1.271 22.190,1.376 22.064,1.420 21.977 C 1.498 21.823,1.500 21.718,1.522 16.840 C 1.546 11.313,1.531 11.635,1.825 10.440 C 2.731 6.753,5.691 3.775,9.380 2.840 C 10.375 2.588,10.790 2.541,12.000 2.541 C 13.210 2.541,13.625 2.588,14.620 2.840 C 18.311 3.776,21.265 6.748,22.176 10.443 C 22.469 11.633,22.454 11.313,22.478 16.840 C 22.500 21.718,22.502 21.823,22.580 21.977 C 22.841 22.491,23.539 22.543,23.866 22.072 L 23.980 21.907 23.980 16.963 C 23.980 11.687,23.983 11.788,23.777 10.716 C 23.108 7.247,20.932 4.252,17.814 2.507 C 16.509 1.777,15.069 1.307,13.500 1.099 C 13.032 1.037,11.640 0.993,11.200 1.025 M4.691 9.594 C 4.068 9.811,3.629 10.338,3.522 11.000 C 3.467 11.343,3.467 14.655,3.522 15.000 C 3.645 15.771,4.229 16.355,5.000 16.478 C 5.359 16.535,18.641 16.535,19.000 16.478 C 19.771 16.355,20.355 15.771,20.478 15.000 C 20.533 14.657,20.533 11.343,20.478 11.000 C 20.385 10.419,20.030 9.938,19.501 9.677 L 19.222 9.540 12.061 9.531 C 5.246 9.523,4.890 9.526,4.691 9.594 M18.360 10.822 C 18.497 10.892,18.666 11.077,18.717 11.213 C 18.778 11.373,18.770 11.619,18.699 11.790 C 18.633 11.947,15.711 14.912,15.430 15.107 C 15.254 15.229,14.957 15.272,14.755 15.205 C 14.660 15.174,14.233 14.773,13.321 13.861 L 12.022 12.561 10.740 13.839 C 9.893 14.683,9.408 15.137,9.311 15.178 C 9.139 15.250,8.894 15.258,8.733 15.198 C 8.600 15.149,5.424 11.995,5.332 11.821 C 5.251 11.669,5.250 11.333,5.331 11.179 C 5.522 10.813,5.932 10.664,6.311 10.822 C 6.408 10.863,6.893 11.317,7.740 12.161 L 9.022 13.439 10.321 12.139 C 11.233 11.227,11.660 10.826,11.755 10.795 C 11.957 10.728,12.254 10.771,12.429 10.893 C 12.512 10.951,13.127 11.546,13.796 12.215 L 15.012 13.433 16.204 12.223 C 16.859 11.558,17.468 10.964,17.557 10.902 C 17.819 10.721,18.106 10.692,18.360 10.822 M8.460 19.075 C 7.795 19.376,7.890 20.324,8.600 20.476 C 8.738 20.506,9.835 20.520,12.000 20.520 C 14.165 20.520,15.262 20.506,15.400 20.476 C 15.942 20.360,16.182 19.695,15.828 19.292 C 15.557 18.984,15.787 19.002,12.000 19.002 C 8.816 19.002,8.611 19.006,8.460 19.075 " stroke="none" fill-rule="evenodd" fill="black"></path></svg>