<svg xmlns="http://www.w3.org/2000/svg" width="16" height="16" viewBox="0 0 16 16"><path d="M1.324 1.056 C 0.990 1.136,0.632 1.363,0.400 1.642 C 0.252 1.820,0.087 2.160,0.040 2.387 C -0.019 2.667,-0.019 13.333,0.040 13.613 C 0.119 13.990,0.357 14.367,0.678 14.624 C 0.876 14.783,1.034 14.863,1.298 14.940 L 1.507 15.000 8.000 15.000 L 14.493 15.000 14.702 14.940 C 14.966 14.863,15.124 14.783,15.322 14.624 C 15.643 14.367,15.881 13.990,15.960 13.613 C 16.019 13.333,16.019 2.667,15.960 2.387 C 15.827 1.752,15.293 1.203,14.664 1.054 C 14.514 1.019,13.703 1.014,7.987 1.016 C 2.464 1.018,1.456 1.023,1.324 1.056 M14.377 2.535 C 14.511 2.607,14.507 2.473,14.507 6.521 C 14.507 8.598,14.497 10.294,14.485 10.289 C 14.473 10.284,13.722 9.608,12.816 8.787 C 11.911 7.965,11.087 7.238,10.985 7.170 C 10.478 6.832,9.819 6.794,9.253 7.069 L 9.027 7.180 5.866 10.336 L 2.706 13.493 2.191 13.493 C 1.889 13.493,1.655 13.482,1.625 13.466 C 1.486 13.391,1.493 13.702,1.493 8.000 C 1.493 2.323,1.487 2.613,1.620 2.535 C 1.687 2.496,14.304 2.496,14.377 2.535 M4.689 4.025 C 3.771 4.194,3.118 4.882,3.016 5.787 C 2.909 6.748,3.499 7.625,4.454 7.924 C 4.741 8.014,5.259 8.014,5.546 7.924 C 6.353 7.672,6.892 7.030,6.984 6.213 C 7.091 5.251,6.478 4.343,5.542 4.080 C 5.323 4.018,4.883 3.990,4.689 4.025 M5.227 5.561 C 5.318 5.608,5.431 5.731,5.465 5.822 C 5.530 5.993,5.489 6.197,5.365 6.330 C 5.277 6.424,5.108 6.505,5.000 6.505 C 4.827 6.505,4.598 6.344,4.535 6.178 C 4.496 6.075,4.499 5.909,4.543 5.805 C 4.587 5.699,4.749 5.553,4.847 5.531 C 4.887 5.523,4.932 5.511,4.947 5.506 C 4.990 5.492,5.155 5.524,5.227 5.561 M10.233 8.475 C 10.281 8.514,11.262 9.399,12.412 10.440 L 14.505 12.333 14.506 12.794 C 14.507 13.285,14.483 13.408,14.377 13.465 C 14.339 13.485,12.924 13.493,9.568 13.493 L 4.813 13.493 7.333 10.971 C 8.719 9.583,9.889 8.432,9.933 8.411 C 10.034 8.365,10.123 8.383,10.233 8.475 " stroke="none" fill-rule="evenodd" fill="black"></path></svg>