<svg xmlns="http://www.w3.org/2000/svg" width="24" height="24" viewBox="0 0 24 24"><path d="M4.340 3.056 C 3.695 3.217,3.175 3.748,3.039 4.387 C 3.012 4.516,3.002 7.078,3.009 12.120 L 3.020 19.660 3.113 19.880 C 3.305 20.335,3.664 20.693,4.122 20.887 L 4.340 20.980 12.000 20.980 L 19.660 20.980 19.880 20.887 C 20.335 20.695,20.693 20.336,20.887 19.878 L 20.980 19.660 20.991 12.120 C 20.998 7.078,20.988 4.516,20.961 4.387 C 20.821 3.732,20.271 3.186,19.608 3.045 C 19.288 2.977,4.616 2.988,4.340 3.056 M19.432 4.568 C 19.469 4.605,19.480 5.478,19.480 8.255 L 19.480 11.894 18.270 10.694 C 17.226 9.658,17.024 9.476,16.798 9.365 C 16.277 9.110,15.734 9.108,15.202 9.362 C 14.958 9.478,14.599 9.829,9.937 14.510 L 4.934 19.533 4.783 19.508 C 4.701 19.495,4.607 19.463,4.576 19.437 C 4.528 19.397,4.520 18.313,4.520 12.003 C 4.520 6.311,4.531 4.605,4.568 4.568 C 4.638 4.498,19.362 4.498,19.432 4.568 M7.960 6.062 C 7.542 6.151,7.069 6.414,6.741 6.739 C 5.759 7.714,5.759 9.277,6.742 10.264 C 7.710 11.237,9.288 11.236,10.262 10.262 C 11.237 9.287,11.237 7.703,10.262 6.740 C 9.649 6.135,8.795 5.884,7.960 6.062 M9.023 7.662 C 9.143 7.736,9.264 7.857,9.339 7.978 C 9.448 8.154,9.460 8.207,9.460 8.500 C 9.460 8.793,9.448 8.846,9.339 9.023 C 9.258 9.153,9.146 9.262,9.009 9.345 C 8.651 9.560,8.349 9.560,7.991 9.345 C 7.704 9.173,7.549 8.916,7.527 8.580 C 7.499 8.141,7.680 7.808,8.046 7.623 C 8.230 7.530,8.299 7.517,8.544 7.528 C 8.776 7.539,8.863 7.563,9.023 7.662 M17.808 12.349 L 19.481 14.018 19.470 16.719 L 19.460 19.419 19.354 19.470 C 19.270 19.510,18.009 19.518,13.168 19.510 L 7.088 19.500 11.485 15.090 C 15.477 11.086,15.894 10.680,16.009 10.680 C 16.123 10.680,16.308 10.852,17.808 12.349 " stroke="none" fill-rule="evenodd" fill="black"></path></svg>