<svg xmlns="http://www.w3.org/2000/svg" width="24" height="24" viewBox="0 0 24 24"><path d="M5.845 2.600 C 5.475 2.733,5.153 2.979,4.968 3.268 C 4.901 3.374,3.980 5.516,2.922 8.030 L 0.998 12.600 1.009 16.630 L 1.020 20.660 1.113 20.880 C 1.305 21.335,1.664 21.693,2.122 21.887 L 2.340 21.980 12.000 21.980 L 21.660 21.980 21.880 21.887 C 22.335 21.695,22.693 21.336,22.887 20.878 L 22.980 20.660 22.980 16.560 L 22.980 12.460 21.068 7.960 C 20.017 5.485,19.095 3.366,19.019 3.252 C 18.866 3.021,18.559 2.770,18.258 2.631 L 18.060 2.540 12.060 2.531 C 6.207 2.523,6.055 2.524,5.845 2.600 M17.730 4.050 C 17.766 4.077,18.543 5.864,19.456 8.020 L 21.116 11.940 18.448 11.980 C 15.517 12.024,15.652 12.011,15.435 12.271 C 15.383 12.333,14.998 12.972,14.580 13.692 L 13.820 14.999 12.000 14.999 L 10.180 14.999 9.420 13.692 C 9.002 12.972,8.617 12.333,8.565 12.271 C 8.347 12.009,8.489 12.022,5.555 12.000 L 2.891 11.980 4.539 8.060 C 5.446 5.904,6.217 4.109,6.254 4.070 C 6.316 4.004,6.642 4.000,11.992 4.000 C 16.469 4.000,17.678 4.011,17.730 4.050 M21.470 16.929 L 21.460 20.418 21.360 20.468 C 21.213 20.543,2.787 20.543,2.640 20.468 L 2.540 20.418 2.530 16.969 L 2.520 13.520 5.050 13.520 L 7.580 13.520 8.374 14.881 C 9.202 16.301,9.271 16.391,9.580 16.476 C 9.802 16.536,14.178 16.537,14.418 16.476 C 14.514 16.452,14.649 16.385,14.719 16.326 C 14.796 16.262,15.155 15.688,15.639 14.860 L 16.432 13.500 18.466 13.479 C 19.585 13.468,20.721 13.455,20.990 13.449 L 21.480 13.440 21.470 16.929 " stroke="none" fill-rule="evenodd" fill="black"></path></svg>