<svg xmlns="http://www.w3.org/2000/svg" width="16" height="16" viewBox="0 0 16 16"><path d="M3.973 1.055 C 3.761 1.111,3.477 1.257,3.293 1.406 C 2.962 1.674,2.988 1.619,1.437 5.231 L 0.013 8.547 0.006 10.979 C -0.002 13.703,-0.006 13.628,0.185 14.013 C 0.418 14.483,0.788 14.792,1.294 14.939 L 1.507 15.000 8.000 15.000 L 14.493 15.000 14.702 14.940 C 14.966 14.863,15.124 14.783,15.322 14.624 C 15.542 14.448,15.692 14.262,15.815 14.013 C 16.006 13.628,16.002 13.702,15.994 10.979 L 15.987 8.547 14.563 5.231 C 13.014 1.625,13.037 1.673,12.711 1.410 C 12.505 1.244,12.296 1.136,12.054 1.069 C 11.856 1.014,11.819 1.013,7.987 1.015 C 4.705 1.017,4.098 1.023,3.973 1.055 M11.744 2.567 C 11.792 2.609,12.148 3.411,12.949 5.280 C 13.574 6.739,14.091 7.948,14.099 7.967 C 14.110 7.993,13.806 8.000,12.634 8.000 C 10.994 8.000,10.982 8.001,10.783 8.171 C 10.724 8.222,10.382 8.654,10.025 9.132 L 9.374 10.000 8.000 10.000 L 6.626 10.000 5.975 9.132 C 5.618 8.654,5.276 8.222,5.217 8.171 C 5.018 8.001,5.006 8.000,3.366 8.000 C 2.194 8.000,1.890 7.993,1.901 7.967 C 1.909 7.948,2.426 6.739,3.051 5.280 C 3.852 3.411,4.208 2.609,4.256 2.567 L 4.323 2.507 8.000 2.507 L 11.677 2.507 11.744 2.567 M5.035 10.384 C 5.402 10.873,5.743 11.305,5.793 11.343 C 5.994 11.496,5.948 11.493,8.000 11.493 C 10.052 11.493,10.006 11.496,10.207 11.343 C 10.257 11.305,10.598 10.873,10.965 10.384 L 11.633 9.493 13.070 9.493 L 14.507 9.493 14.507 11.374 C 14.507 13.382,14.506 13.396,14.377 13.465 C 14.303 13.504,1.699 13.505,1.625 13.466 C 1.492 13.394,1.493 13.419,1.493 11.388 L 1.493 9.493 2.930 9.493 L 4.367 9.493 5.035 10.384 " stroke="none" fill-rule="evenodd" fill="black"></path></svg>