<svg xmlns="http://www.w3.org/2000/svg" width="16" height="16" viewBox="0 0 16 16"><path d="M2.960 4.545 C 2.164 4.688,1.534 5.021,0.984 5.592 C 0.080 6.529,-0.225 7.848,0.177 9.080 C 0.265 9.349,0.441 9.704,0.617 9.968 C 0.790 10.227,1.284 10.719,1.547 10.893 C 2.470 11.507,3.539 11.656,4.595 11.317 C 5.467 11.037,6.349 10.469,7.544 9.418 C 7.754 9.232,7.943 9.068,7.964 9.053 C 8.009 9.020,7.987 9.004,8.456 9.418 C 9.651 10.469,10.533 11.037,11.405 11.317 C 12.461 11.656,13.530 11.507,14.453 10.893 C 14.715 10.719,15.210 10.227,15.382 9.969 C 15.650 9.568,15.835 9.132,15.938 8.660 C 16.005 8.353,16.005 7.647,15.938 7.340 C 15.782 6.623,15.473 6.055,14.963 5.544 C 14.449 5.031,13.878 4.720,13.173 4.569 C 12.891 4.508,12.163 4.501,11.880 4.556 C 10.855 4.756,9.691 5.461,8.276 6.739 C 8.141 6.861,8.017 6.960,8.000 6.960 C 7.983 6.960,7.859 6.861,7.724 6.739 C 6.329 5.479,5.235 4.809,4.187 4.572 C 3.919 4.511,3.230 4.496,2.960 4.545 M4.067 6.093 C 4.715 6.279,5.551 6.824,6.587 7.734 C 6.741 7.870,6.867 7.988,6.867 7.998 C 6.867 8.008,6.759 8.112,6.627 8.229 C 5.582 9.158,4.825 9.661,4.120 9.895 C 3.869 9.979,3.832 9.984,3.493 9.983 C 3.174 9.982,3.109 9.974,2.920 9.909 C 2.065 9.619,1.513 8.869,1.513 8.000 C 1.513 7.034,2.218 6.201,3.180 6.028 C 3.407 5.987,3.797 6.016,4.067 6.093 M13.000 6.068 C 13.864 6.297,14.487 7.107,14.487 8.000 C 14.487 8.869,13.935 9.619,13.080 9.909 C 12.891 9.974,12.826 9.982,12.507 9.983 C 12.169 9.984,12.130 9.979,11.880 9.895 C 11.288 9.699,10.722 9.352,9.920 8.696 C 9.571 8.410,9.133 8.023,9.133 8.000 C 9.133 7.973,9.654 7.517,10.040 7.208 C 10.881 6.532,11.611 6.132,12.190 6.028 C 12.379 5.994,12.800 6.015,13.000 6.068 " stroke="none" fill-rule="evenodd" fill="black"></path></svg>