<svg xmlns="http://www.w3.org/2000/svg" width="24" height="24" viewBox="0 0 24 24"><path d="M4.620 7.043 C 3.821 7.153,2.864 7.553,2.197 8.056 C 1.547 8.546,0.903 9.319,0.534 10.051 C -0.271 11.651,-0.138 13.527,0.889 15.056 C 1.610 16.128,2.621 16.898,3.800 17.272 C 5.417 17.785,7.142 17.416,8.880 16.186 C 9.650 15.640,10.563 14.830,11.466 13.888 L 11.992 13.340 12.686 14.041 C 14.182 15.552,15.155 16.321,16.260 16.863 C 17.162 17.306,17.875 17.488,18.720 17.491 C 19.280 17.493,19.699 17.431,20.200 17.272 C 22.326 16.597,23.894 14.596,23.987 12.440 C 24.044 11.094,23.508 9.746,22.489 8.675 C 22.025 8.188,21.562 7.848,20.940 7.539 C 19.012 6.581,16.984 6.909,14.840 8.524 C 14.186 9.017,13.775 9.383,12.830 10.315 L 12.000 11.134 11.170 10.315 C 10.225 9.383,9.814 9.017,9.160 8.524 C 8.147 7.761,7.195 7.300,6.220 7.100 C 5.831 7.020,5.001 6.991,4.620 7.043 M5.926 8.576 C 7.185 8.817,8.494 9.719,10.394 11.655 L 10.968 12.239 10.542 12.690 C 8.072 15.299,6.274 16.274,4.580 15.925 C 3.246 15.649,2.073 14.555,1.639 13.180 C 1.504 12.751,1.484 11.975,1.596 11.505 C 1.936 10.083,3.210 8.837,4.603 8.563 C 4.885 8.508,5.607 8.515,5.926 8.576 M19.427 8.578 C 20.872 8.884,22.130 10.152,22.422 11.597 C 22.514 12.052,22.486 12.782,22.361 13.180 C 21.924 14.569,20.717 15.680,19.364 15.937 C 18.153 16.167,16.887 15.715,15.420 14.532 C 14.922 14.130,13.974 13.239,13.437 12.670 L 13.032 12.239 13.606 11.655 C 15.484 9.741,16.801 8.828,18.040 8.580 C 18.395 8.509,19.096 8.508,19.427 8.578 " stroke="none" fill-rule="evenodd" fill="black"></path></svg>