<svg xmlns="http://www.w3.org/2000/svg" width="16" height="16" viewBox="0 0 16 16"><path d="M7.467 0.019 C 7.197 0.035,6.683 0.108,6.347 0.177 C 3.324 0.796,0.878 3.204,0.200 6.228 C 0.047 6.910,0.017 7.206,0.017 8.000 C 0.017 8.794,0.047 9.090,0.200 9.772 C 0.610 11.600,1.671 13.237,3.195 14.393 C 4.257 15.199,5.481 15.705,6.906 15.927 C 7.429 16.009,8.571 16.009,9.094 15.927 C 11.038 15.624,12.690 14.748,13.930 13.362 C 15.030 12.133,15.665 10.775,15.927 9.094 C 16.010 8.560,16.009 7.432,15.924 6.880 C 15.532 4.324,14.072 2.222,11.823 0.975 C 10.543 0.265,8.995 -0.075,7.467 0.019 M8.853 1.563 C 9.298 1.621,9.615 1.694,10.057 1.841 C 11.997 2.486,13.514 4.002,14.158 5.941 C 14.397 6.658,14.484 7.211,14.484 8.000 C 14.484 8.789,14.397 9.342,14.158 10.059 C 13.824 11.066,13.259 11.955,12.483 12.699 C 11.498 13.643,10.254 14.243,8.867 14.444 C 8.645 14.476,8.379 14.490,8.000 14.490 C 7.621 14.490,7.355 14.476,7.133 14.444 C 5.755 14.244,4.507 13.645,3.532 12.714 C 2.456 11.686,1.790 10.400,1.572 8.928 C 1.493 8.394,1.493 7.606,1.572 7.072 C 1.737 5.958,2.152 4.968,2.835 4.056 C 3.081 3.727,3.727 3.081,4.056 2.835 C 5.460 1.783,7.131 1.340,8.853 1.563 M7.734 4.043 C 7.363 4.143,7.088 4.447,7.016 4.840 C 6.937 5.267,7.184 5.722,7.600 5.916 C 7.725 5.974,7.784 5.984,8.000 5.984 C 8.216 5.984,8.275 5.974,8.400 5.916 C 8.816 5.722,9.063 5.267,8.984 4.840 C 8.911 4.441,8.636 4.141,8.254 4.041 C 8.061 3.991,7.926 3.991,7.734 4.043 M6.999 7.049 C 6.691 7.167,6.507 7.429,6.507 7.746 C 6.507 8.175,6.814 8.474,7.283 8.501 L 7.493 8.514 7.493 9.507 L 7.493 10.500 7.260 10.512 C 6.985 10.526,6.864 10.578,6.703 10.753 C 6.551 10.917,6.496 11.075,6.512 11.300 C 6.528 11.523,6.598 11.665,6.760 11.808 C 6.977 11.998,6.989 12.000,8.240 12.000 C 9.545 12.000,9.551 11.999,9.775 11.775 C 10.133 11.417,10.053 10.856,9.606 10.594 C 9.505 10.535,9.443 10.521,9.250 10.511 L 9.016 10.500 9.008 9.043 C 9.000 7.627,8.998 7.583,8.944 7.465 C 8.864 7.293,8.739 7.161,8.580 7.082 C 8.443 7.013,8.441 7.013,7.761 7.015 C 7.308 7.017,7.053 7.028,6.999 7.049 " stroke="none" fill-rule="evenodd" fill="black"></path></svg>