<svg xmlns="http://www.w3.org/2000/svg" width="24" height="24" viewBox="0 0 24 24"><path d="M11.069 1.039 C 8.822 1.258,6.868 2.041,5.101 3.432 C 4.640 3.795,3.606 4.863,3.231 5.363 C 2.075 6.906,1.379 8.590,1.093 10.540 C 0.995 11.212,0.995 12.788,1.093 13.460 C 1.379 15.409,2.074 17.091,3.230 18.637 C 3.685 19.244,4.756 20.315,5.363 20.770 C 6.909 21.926,8.591 22.621,10.540 22.907 C 11.212 23.005,12.788 23.005,13.460 22.907 C 15.409 22.621,17.091 21.926,18.637 20.770 C 19.244 20.315,20.315 19.244,20.770 18.637 C 21.926 17.091,22.621 15.409,22.907 13.460 C 22.959 13.104,22.977 12.727,22.977 12.000 C 22.977 11.273,22.959 10.896,22.907 10.540 C 22.621 8.590,21.925 6.906,20.769 5.363 C 20.394 4.863,19.360 3.795,18.899 3.432 C 17.302 2.175,15.548 1.412,13.580 1.120 C 12.946 1.026,11.638 0.984,11.069 1.039 M13.580 2.636 C 15.625 3.000,17.390 3.930,18.801 5.385 C 20.173 6.801,21.013 8.453,21.368 10.437 C 21.491 11.124,21.501 12.777,21.386 13.460 C 21.215 14.477,20.944 15.322,20.501 16.220 C 19.286 18.680,17.045 20.498,14.360 21.200 C 12.866 21.590,11.134 21.590,9.640 21.200 C 6.968 20.501,4.760 18.719,3.518 16.260 C 3.086 15.405,2.814 14.576,2.632 13.563 C 2.553 13.124,2.542 12.925,2.542 12.000 C 2.542 11.075,2.553 10.876,2.632 10.437 C 2.814 9.424,3.086 8.595,3.518 7.740 C 4.902 5.000,7.541 3.072,10.520 2.625 C 11.170 2.527,11.163 2.527,12.160 2.539 C 12.906 2.548,13.199 2.568,13.580 2.636 M11.617 6.577 C 11.109 6.798,10.866 7.412,11.094 7.900 C 11.464 8.692,12.536 8.692,12.906 7.900 C 13.135 7.408,12.887 6.789,12.374 6.575 C 12.208 6.505,11.778 6.506,11.617 6.577 M10.394 10.601 C 9.963 10.828,9.873 11.381,10.208 11.744 C 10.407 11.960,10.540 11.999,11.070 12.000 L 11.480 12.000 11.480 13.760 L 11.480 15.520 11.018 15.520 C 10.638 15.520,10.530 15.534,10.402 15.599 C 10.112 15.747,9.967 16.041,10.018 16.380 C 10.053 16.616,10.296 16.898,10.515 16.959 C 10.602 16.983,11.309 16.999,12.280 16.999 C 14.092 16.998,14.118 16.994,14.332 16.714 C 14.634 16.318,14.479 15.733,14.027 15.563 C 13.965 15.539,13.709 15.520,13.457 15.520 L 13.000 15.520 13.000 13.319 C 13.000 11.428,12.991 11.097,12.938 10.970 C 12.859 10.780,12.775 10.689,12.592 10.596 C 12.458 10.528,12.349 10.520,11.492 10.522 C 10.630 10.523,10.526 10.531,10.394 10.601 " stroke="none" fill-rule="evenodd" fill="black"></path></svg>