<svg xmlns="http://www.w3.org/2000/svg" width="16" height="16" viewBox="0 0 16 16"><path d="M7.427 0.016 C 6.676 0.092,6.491 0.146,6.312 0.344 C 6.177 0.494,6.127 0.623,6.124 0.827 C 6.119 1.196,6.356 1.489,6.729 1.572 C 6.818 1.592,6.929 1.588,7.164 1.556 C 7.586 1.498,8.414 1.498,8.836 1.556 C 9.071 1.588,9.182 1.592,9.271 1.572 C 9.644 1.489,9.881 1.196,9.876 0.827 C 9.873 0.623,9.823 0.494,9.688 0.344 C 9.541 0.182,9.393 0.120,9.027 0.067 C 8.722 0.024,7.681 -0.009,7.427 0.016 M3.547 1.412 C 3.099 1.548,1.730 2.868,1.471 3.413 C 1.379 3.606,1.377 3.848,1.465 4.034 C 1.598 4.311,1.934 4.506,2.214 4.469 C 2.497 4.432,2.576 4.372,2.942 3.925 C 3.261 3.537,3.603 3.197,3.989 2.887 C 4.304 2.634,4.378 2.552,4.441 2.388 C 4.498 2.239,4.484 1.952,4.414 1.813 C 4.256 1.499,3.860 1.316,3.547 1.412 M12.009 1.429 C 11.850 1.487,11.657 1.668,11.583 1.826 C 11.497 2.010,11.497 2.257,11.583 2.440 C 11.649 2.582,11.727 2.660,12.149 3.005 C 12.466 3.265,12.820 3.626,13.098 3.973 C 13.209 4.113,13.335 4.259,13.377 4.298 C 13.648 4.553,14.103 4.541,14.382 4.272 C 14.550 4.110,14.598 3.993,14.599 3.747 C 14.600 3.476,14.561 3.394,14.233 2.987 C 13.778 2.421,12.951 1.654,12.600 1.474 C 12.433 1.388,12.172 1.368,12.009 1.429 M0.718 6.135 C 0.475 6.174,0.239 6.356,0.148 6.574 C 0.013 6.898,-0.039 8.354,0.061 9.018 C 0.117 9.388,0.153 9.485,0.296 9.639 C 0.579 9.946,1.054 9.961,1.356 9.672 C 1.565 9.471,1.615 9.265,1.556 8.836 C 1.498 8.414,1.498 7.586,1.556 7.164 C 1.603 6.823,1.591 6.698,1.495 6.509 C 1.360 6.245,1.028 6.085,0.718 6.135 M15.022 6.136 C 14.803 6.176,14.595 6.330,14.497 6.524 C 14.409 6.698,14.398 6.831,14.444 7.164 C 14.471 7.365,14.487 7.669,14.487 8.000 C 14.487 8.331,14.471 8.635,14.444 8.836 C 14.397 9.177,14.409 9.303,14.505 9.489 C 14.677 9.822,15.135 9.977,15.472 9.815 C 15.618 9.746,15.794 9.566,15.852 9.427 C 15.941 9.213,15.986 8.737,15.986 8.000 C 15.986 7.263,15.941 6.787,15.852 6.573 C 15.725 6.270,15.356 6.075,15.022 6.136 M1.920 11.545 C 1.736 11.601,1.547 11.763,1.450 11.947 C 1.376 12.089,1.381 12.429,1.460 12.587 C 1.697 13.060,2.955 14.312,3.413 14.529 C 3.606 14.621,3.848 14.623,4.034 14.535 C 4.311 14.402,4.506 14.066,4.469 13.786 C 4.433 13.513,4.361 13.410,4.004 13.127 C 3.661 12.855,3.255 12.457,3.012 12.156 C 2.571 11.610,2.446 11.519,2.147 11.523 C 2.059 11.524,1.957 11.534,1.920 11.545 M13.560 11.582 C 13.415 11.652,13.327 11.739,13.065 12.067 C 12.797 12.402,12.415 12.783,12.067 13.063 C 11.689 13.367,11.670 13.387,11.585 13.560 C 11.416 13.907,11.573 14.349,11.933 14.542 C 12.088 14.624,12.420 14.623,12.587 14.540 C 13.048 14.309,14.284 13.073,14.525 12.602 C 14.668 12.323,14.625 11.992,14.418 11.767 C 14.263 11.599,14.133 11.540,13.893 11.528 C 13.723 11.519,13.674 11.527,13.560 11.582 M6.547 14.489 C 6.068 14.721,5.972 15.346,6.361 15.704 C 6.515 15.847,6.612 15.883,6.982 15.939 C 7.425 16.006,8.577 16.005,9.023 15.938 C 9.393 15.883,9.531 15.825,9.678 15.666 C 9.822 15.510,9.873 15.382,9.876 15.173 C 9.880 14.860,9.691 14.576,9.407 14.468 C 9.272 14.416,9.179 14.418,8.420 14.482 C 8.072 14.511,7.928 14.511,7.580 14.483 C 6.773 14.415,6.697 14.416,6.547 14.489 " stroke="none" fill-rule="evenodd" fill="black"></path></svg>