<svg xmlns="http://www.w3.org/2000/svg" width="16" height="16" viewBox="0 0 16 16"><path d="M7.293 0.030 C 5.743 0.164,4.223 0.779,2.973 1.778 C 2.631 2.051,2.061 2.616,1.813 2.927 L 1.640 3.145 0.999 2.506 C 0.370 1.879,0.355 1.867,0.248 1.867 C 0.158 1.867,0.126 1.882,0.069 1.949 L 0.000 2.031 0.000 3.937 L 0.000 5.844 0.078 5.922 L 0.156 6.000 2.064 6.000 L 3.972 6.000 4.056 5.926 C 4.121 5.867,4.139 5.830,4.139 5.749 C 4.139 5.650,4.112 5.619,3.426 4.933 L 2.713 4.219 2.873 4.010 C 2.960 3.894,3.151 3.675,3.296 3.522 C 4.807 1.932,7.021 1.216,9.191 1.615 C 9.802 1.727,10.285 1.890,10.893 2.188 C 11.569 2.518,12.134 2.931,12.668 3.485 C 13.649 4.503,14.241 5.725,14.440 7.147 C 14.468 7.345,14.507 7.502,14.550 7.593 C 14.792 8.100,15.514 8.145,15.831 7.672 C 15.967 7.470,15.985 7.323,15.923 6.903 C 15.664 5.133,14.895 3.588,13.654 2.346 C 11.982 0.674,9.654 -0.174,7.293 0.030 M7.653 6.575 C 7.220 6.668,6.818 6.977,6.630 7.360 C 6.333 7.967,6.438 8.625,6.907 9.093 C 7.265 9.452,7.767 9.608,8.240 9.509 C 9.223 9.303,9.740 8.260,9.301 7.366 C 9.169 7.096,8.896 6.831,8.611 6.695 C 8.280 6.538,7.993 6.502,7.653 6.575 M0.539 8.049 C 0.277 8.142,0.087 8.375,0.044 8.655 C 0.035 8.716,0.050 8.915,0.078 9.109 C 0.391 11.242,1.494 13.114,3.187 14.387 C 5.018 15.764,7.333 16.291,9.575 15.840 C 11.011 15.552,12.313 14.889,13.413 13.887 C 13.700 13.626,14.069 13.230,14.271 12.966 L 14.359 12.852 15.002 13.496 C 15.620 14.113,15.650 14.139,15.749 14.139 C 15.830 14.139,15.867 14.121,15.926 14.056 L 16.000 13.972 16.000 12.068 L 16.000 10.163 15.936 10.088 L 15.871 10.013 13.950 10.006 L 12.029 9.999 11.945 10.074 C 11.879 10.133,11.861 10.170,11.861 10.251 C 11.861 10.350,11.888 10.381,12.575 11.068 L 13.289 11.783 13.131 11.989 C 12.568 12.727,11.743 13.397,10.867 13.827 C 9.038 14.727,6.972 14.727,5.133 13.828 C 3.166 12.866,1.841 11.000,1.546 8.773 C 1.510 8.499,1.452 8.361,1.319 8.228 C 1.118 8.026,0.804 7.954,0.539 8.049 " stroke="none" fill-rule="evenodd" fill="black"></path></svg>