<svg xmlns="http://www.w3.org/2000/svg" width="24" height="24" viewBox="0 0 24 24"><path d="M11.060 1.044 C 8.904 1.220,6.809 2.065,5.073 3.459 C 4.247 4.121,3.231 5.262,2.702 6.122 L 2.520 6.416 2.519 5.598 C 2.518 5.148,2.499 4.699,2.477 4.601 C 2.370 4.139,1.908 3.887,1.489 4.062 C 1.285 4.147,1.087 4.348,1.040 4.518 C 1.016 4.603,1.001 5.476,1.001 6.680 L 1.001 8.700 1.094 8.900 C 1.204 9.136,1.448 9.368,1.665 9.445 C 1.788 9.489,2.231 9.500,3.840 9.500 C 4.951 9.500,5.909 9.486,5.969 9.469 C 6.094 9.434,6.342 9.229,6.408 9.105 C 6.605 8.737,6.441 8.248,6.065 8.077 C 5.915 8.009,5.784 8.002,4.650 8.001 C 3.962 8.000,3.400 7.988,3.400 7.973 C 3.400 7.959,3.501 7.756,3.624 7.523 C 4.353 6.146,5.496 4.904,6.842 4.029 C 8.384 3.026,10.112 2.520,12.000 2.520 C 14.628 2.520,16.983 3.516,18.822 5.405 C 19.922 6.535,20.666 7.828,21.158 9.465 C 21.295 9.917,21.377 10.046,21.602 10.161 C 21.880 10.303,22.292 10.234,22.485 10.014 C 22.742 9.722,22.735 9.438,22.449 8.580 C 21.787 6.590,20.658 4.921,19.060 3.570 C 18.212 2.853,16.888 2.079,15.867 1.702 C 14.344 1.139,12.680 0.912,11.060 1.044 M11.400 10.115 C 11.035 10.233,10.833 10.359,10.559 10.636 C 10.016 11.186,9.846 11.897,10.078 12.644 C 10.176 12.958,10.357 13.231,10.642 13.495 C 10.931 13.763,11.210 13.903,11.622 13.987 C 12.246 14.114,12.902 13.906,13.378 13.429 C 13.778 13.029,13.960 12.588,13.960 12.017 C 13.960 11.109,13.363 10.327,12.499 10.101 C 12.184 10.019,11.677 10.026,11.400 10.115 M1.832 13.797 C 1.497 13.905,1.296 14.224,1.331 14.593 C 1.356 14.870,1.683 15.868,1.937 16.444 C 2.817 18.445,4.355 20.203,6.247 21.373 C 9.705 23.510,14.098 23.539,17.630 21.447 C 19.023 20.623,20.482 19.203,21.298 17.878 L 21.480 17.584 21.480 18.390 C 21.480 18.833,21.500 19.288,21.524 19.400 C 21.608 19.795,21.974 20.043,22.380 19.982 C 22.616 19.947,22.898 19.704,22.959 19.485 C 22.984 19.396,22.999 18.558,22.999 17.320 L 22.999 15.300 22.906 15.100 C 22.804 14.882,22.581 14.662,22.374 14.575 C 22.174 14.492,18.086 14.494,17.924 14.578 C 17.772 14.657,17.566 14.897,17.537 15.031 C 17.524 15.091,17.507 15.160,17.500 15.185 C 17.472 15.279,17.569 15.584,17.668 15.714 C 17.875 15.985,17.951 15.998,19.350 15.999 C 20.038 16.000,20.600 16.011,20.600 16.024 C 20.600 16.099,20.175 16.849,19.895 17.269 C 19.492 17.872,19.171 18.258,18.633 18.784 C 18.123 19.283,17.829 19.525,17.293 19.885 C 15.714 20.944,13.911 21.491,12.000 21.489 C 9.406 21.488,7.012 20.480,5.219 18.634 C 4.096 17.479,3.329 16.174,2.882 14.660 C 2.732 14.151,2.648 13.996,2.461 13.880 C 2.308 13.786,1.995 13.745,1.832 13.797 " stroke="none" fill-rule="evenodd" fill="black"></path></svg>