<svg xmlns="http://www.w3.org/2000/svg" width="24" height="24" viewBox="0 0 24 24"><path d="M11.240 1.025 C 10.712 1.065,10.089 1.170,9.929 1.246 C 9.748 1.333,9.590 1.553,9.541 1.787 C 9.475 2.105,9.733 2.508,10.062 2.601 C 10.215 2.643,10.331 2.641,10.774 2.586 C 11.462 2.500,12.540 2.500,13.229 2.586 C 13.825 2.660,13.980 2.639,14.200 2.454 C 14.530 2.176,14.553 1.730,14.255 1.400 C 14.088 1.215,13.992 1.180,13.440 1.100 C 13.023 1.040,11.662 0.994,11.240 1.025 M5.830 2.935 C 5.218 3.161,3.257 5.109,2.950 5.796 C 2.671 6.418,3.395 7.055,3.996 6.717 C 4.101 6.658,4.263 6.489,4.450 6.243 C 4.863 5.698,5.539 5.014,6.120 4.551 C 6.687 4.099,6.804 3.945,6.806 3.645 C 6.810 3.146,6.288 2.766,5.830 2.935 M17.751 2.918 C 17.404 3.028,17.191 3.305,17.194 3.645 C 17.196 3.945,17.313 4.099,17.880 4.551 C 18.472 5.023,19.099 5.659,19.548 6.240 C 19.726 6.471,19.925 6.691,19.990 6.729 C 20.274 6.894,20.609 6.855,20.869 6.626 C 21.143 6.386,21.193 6.065,21.010 5.725 C 20.655 5.064,19.058 3.446,18.340 3.019 C 18.156 2.910,17.909 2.868,17.751 2.918 M1.734 9.558 C 1.534 9.606,1.344 9.744,1.253 9.908 C 0.918 10.513,0.925 13.517,1.262 14.104 C 1.556 14.616,2.286 14.578,2.562 14.037 C 2.655 13.853,2.657 13.755,2.580 13.180 C 2.501 12.584,2.503 11.436,2.586 10.771 C 2.639 10.344,2.643 10.208,2.605 10.081 C 2.491 9.700,2.108 9.470,1.734 9.558 M21.925 9.560 C 21.686 9.617,21.434 9.869,21.372 10.116 C 21.359 10.171,21.377 10.469,21.414 10.778 C 21.500 11.497,21.500 12.537,21.414 13.229 C 21.361 13.656,21.357 13.792,21.395 13.919 C 21.512 14.311,21.903 14.542,22.277 14.441 C 22.460 14.392,22.695 14.204,22.780 14.040 C 22.975 13.664,23.052 11.526,22.906 10.540 C 22.857 10.207,22.806 10.011,22.741 9.900 C 22.589 9.638,22.229 9.489,21.925 9.560 M3.235 17.315 C 2.961 17.488,2.835 17.805,2.918 18.113 C 3.074 18.691,5.239 20.875,5.860 21.080 C 6.319 21.232,6.810 20.855,6.806 20.354 C 6.804 20.059,6.686 19.891,6.245 19.555 C 5.697 19.137,5.014 18.462,4.550 17.880 C 4.086 17.298,3.955 17.200,3.638 17.200 C 3.462 17.200,3.378 17.224,3.235 17.315 M19.994 17.290 C 19.914 17.340,19.669 17.605,19.449 17.880 C 18.976 18.472,18.341 19.100,17.760 19.548 C 17.529 19.726,17.309 19.925,17.271 19.990 C 17.106 20.274,17.145 20.609,17.374 20.869 C 17.614 21.143,17.935 21.193,18.275 21.010 C 18.945 20.650,20.556 19.056,20.991 18.323 C 21.293 17.814,20.949 17.200,20.362 17.200 C 20.202 17.200,20.099 17.226,19.994 17.290 M9.978 21.435 C 9.776 21.527,9.615 21.715,9.559 21.925 C 9.507 22.118,9.536 22.284,9.660 22.500 C 9.824 22.785,10.063 22.865,11.034 22.960 C 12.111 23.064,13.722 22.952,14.094 22.746 C 14.257 22.656,14.414 22.425,14.459 22.213 C 14.522 21.909,14.299 21.540,13.977 21.417 C 13.808 21.352,13.767 21.352,13.229 21.420 C 12.519 21.510,11.440 21.511,10.800 21.424 C 10.223 21.345,10.176 21.345,9.978 21.435 " stroke="none" fill-rule="evenodd" fill="black"></path></svg>