<svg xmlns="http://www.w3.org/2000/svg" width="16" height="16" viewBox="0 0 16 16"><path d="M6.525 2.038 C 6.113 2.186,5.906 2.595,6.042 2.994 C 6.094 3.146,6.263 3.343,6.410 3.421 C 6.518 3.479,6.538 3.480,7.807 3.488 C 8.523 3.492,9.093 3.506,9.093 3.519 C 9.093 3.532,8.230 5.556,7.175 8.018 L 5.257 12.493 3.889 12.507 L 2.520 12.520 2.396 12.593 C 1.947 12.857,1.866 13.416,2.225 13.775 C 2.467 14.017,2.180 14.000,6.000 14.000 C 9.820 14.000,9.533 14.017,9.775 13.775 C 10.134 13.416,10.053 12.857,9.604 12.593 L 9.480 12.520 8.193 12.512 C 7.477 12.508,6.907 12.494,6.907 12.481 C 6.907 12.468,7.770 10.444,8.825 7.982 L 10.743 3.507 12.111 3.493 C 13.459 3.480,13.482 3.479,13.590 3.421 C 13.737 3.343,13.906 3.146,13.958 2.994 C 14.078 2.642,13.932 2.278,13.596 2.092 L 13.453 2.013 10.040 2.008 C 7.216 2.003,6.609 2.008,6.525 2.038 " stroke="none" fill-rule="evenodd" fill="black"></path></svg>