<svg xmlns="http://www.w3.org/2000/svg" width="24" height="24" viewBox="0 0 24 24"><path d="M10.460 4.075 C 9.871 4.342,9.854 5.139,10.430 5.425 C 10.568 5.494,10.725 5.502,12.326 5.520 L 14.072 5.540 11.185 11.980 C 9.597 15.522,8.283 18.442,8.266 18.470 C 8.242 18.509,7.824 18.520,6.396 18.520 C 4.644 18.520,4.549 18.524,4.402 18.599 C 4.112 18.747,3.967 19.041,4.018 19.380 C 4.053 19.616,4.296 19.898,4.515 19.959 C 4.714 20.015,13.286 20.015,13.485 19.959 C 13.704 19.898,13.947 19.616,13.982 19.380 C 14.033 19.041,13.888 18.747,13.598 18.599 C 13.451 18.524,13.356 18.520,11.682 18.520 C 10.713 18.520,9.920 18.510,9.920 18.499 C 9.920 18.483,15.420 6.199,15.682 5.630 L 15.733 5.520 17.464 5.520 C 18.568 5.520,19.270 5.504,19.400 5.476 C 20.110 5.324,20.205 4.376,19.540 4.075 C 19.388 4.006,19.151 4.002,15.000 4.002 C 10.849 4.002,10.612 4.006,10.460 4.075 " stroke="none" fill-rule="evenodd" fill="black"></path></svg>