<svg xmlns="http://www.w3.org/2000/svg" width="16" height="16" viewBox="0 0 16 16"><path d="M6.520 1.043 C 5.393 1.178,4.261 1.651,3.347 2.368 C 3.065 2.589,2.491 3.180,2.266 3.480 C 1.155 4.963,0.758 6.789,1.151 8.613 C 1.336 9.474,1.796 10.435,2.364 11.147 C 3.393 12.436,4.943 13.286,6.592 13.465 C 6.756 13.483,7.802 13.493,9.426 13.493 L 12.000 13.493 12.000 14.615 L 12.000 15.737 12.078 15.815 C 12.137 15.874,12.181 15.893,12.258 15.893 C 12.357 15.893,12.401 15.851,13.873 14.380 L 15.387 12.866 15.387 12.747 L 15.387 12.628 13.887 11.129 C 12.839 10.082,12.364 9.624,12.311 9.611 C 12.210 9.587,12.060 9.659,12.026 9.748 C 12.011 9.789,12.000 10.263,12.000 10.910 L 12.000 12.002 9.327 11.992 C 6.425 11.981,6.575 11.988,5.992 11.828 C 4.882 11.524,3.899 10.806,3.273 9.840 C 2.050 7.954,2.309 5.481,3.895 3.895 C 5.481 2.309,7.957 2.050,9.840 3.274 C 10.312 3.580,10.797 4.045,11.126 4.508 C 11.339 4.806,11.643 5.406,11.758 5.756 C 11.895 6.172,12.000 6.796,12.000 7.194 C 12.000 7.661,12.320 8.000,12.760 8.000 C 13.011 8.000,13.299 7.821,13.420 7.590 C 13.586 7.271,13.467 6.156,13.172 5.267 C 12.649 3.693,11.511 2.390,10.018 1.655 C 9.410 1.356,8.869 1.182,8.227 1.077 C 7.909 1.026,6.842 1.004,6.520 1.043 " stroke="none" fill-rule="evenodd" fill="black"></path></svg>