<svg xmlns="http://www.w3.org/2000/svg" width="24" height="24" viewBox="0 0 24 24"><path d="M9.620 1.042 C 7.277 1.285,5.263 2.263,3.640 3.945 C 2.271 5.364,1.430 7.080,1.093 9.140 C 0.992 9.760,0.992 11.240,1.093 11.860 C 1.367 13.537,1.943 14.912,2.925 16.230 C 3.309 16.746,4.275 17.708,4.800 18.097 C 6.069 19.038,7.372 19.592,9.018 19.890 C 9.497 19.977,9.534 19.977,15.457 19.990 L 21.415 20.003 20.030 21.391 C 18.590 22.835,18.482 22.967,18.482 23.280 C 18.482 23.484,18.609 23.733,18.781 23.864 C 18.904 23.957,18.979 23.981,19.196 23.992 C 19.436 24.005,19.477 23.995,19.640 23.885 C 19.939 23.684,23.617 19.967,23.721 19.761 C 23.845 19.514,23.869 19.150,23.780 18.875 C 23.715 18.673,23.590 18.539,21.706 16.650 C 20.103 15.042,19.667 14.626,19.531 14.574 C 19.088 14.405,18.583 14.711,18.530 15.180 C 18.489 15.540,18.527 15.588,20.020 17.080 C 20.779 17.839,21.400 18.474,21.400 18.492 C 21.400 18.509,18.786 18.517,15.590 18.510 C 9.233 18.494,9.537 18.505,8.554 18.258 C 5.732 17.548,3.485 15.317,2.762 12.509 C 2.436 11.241,2.436 9.758,2.762 8.491 C 3.119 7.106,3.812 5.906,4.859 4.860 C 5.456 4.263,5.900 3.922,6.604 3.522 C 8.648 2.359,11.254 2.192,13.476 3.082 C 14.497 3.491,15.322 4.041,16.141 4.860 C 16.918 5.637,17.430 6.385,17.850 7.360 C 18.224 8.229,18.416 9.067,18.477 10.087 C 18.515 10.732,18.560 10.881,18.773 11.069 C 19.127 11.380,19.711 11.252,19.921 10.818 C 20.007 10.640,20.011 10.599,19.986 10.065 C 19.881 7.762,18.950 5.592,17.361 3.946 C 15.845 2.374,13.972 1.411,11.824 1.097 C 11.318 1.023,10.097 0.993,9.620 1.042 " stroke="none" fill-rule="evenodd" fill="black"></path></svg>