<svg xmlns="http://www.w3.org/2000/svg" width="24" height="24" viewBox="0 0 24 24"><path d="M3.580 10.047 C 3.236 10.113,2.883 10.310,2.596 10.596 C 1.800 11.393,1.800 12.607,2.596 13.404 C 3.393 14.200,4.607 14.200,5.404 13.404 C 6.200 12.607,6.200 11.393,5.404 10.596 C 4.913 10.106,4.277 9.914,3.580 10.047 M11.580 10.047 C 10.707 10.214,10.000 11.087,10.000 12.000 C 10.000 12.920,10.690 13.768,11.592 13.956 C 12.816 14.211,14.000 13.249,14.000 12.000 C 14.000 11.477,13.790 10.983,13.404 10.596 C 12.913 10.106,12.277 9.914,11.580 10.047 M19.580 10.047 C 18.707 10.214,18.000 11.087,18.000 12.000 C 18.000 12.920,18.690 13.768,19.592 13.956 C 20.816 14.211,22.000 13.249,22.000 12.000 C 22.000 11.477,21.790 10.983,21.404 10.596 C 20.913 10.106,20.277 9.914,19.580 10.047 " stroke="none" fill-rule="evenodd" fill="black"></path></svg>