<svg xmlns="http://www.w3.org/2000/svg" width="16" height="16" viewBox="0 0 16 16"><path d="M1.182 6.040 C 0.030 6.290,-0.392 7.716,0.440 8.547 C 0.750 8.857,1.079 8.994,1.506 8.993 C 2.331 8.990,2.990 8.331,2.993 7.506 C 2.994 7.086,2.857 6.752,2.560 6.452 C 2.192 6.082,1.686 5.930,1.182 6.040 M7.695 6.031 C 7.623 6.045,7.479 6.096,7.375 6.144 C 6.866 6.382,6.546 6.846,6.513 7.392 C 6.485 7.856,6.624 8.230,6.944 8.550 C 7.245 8.851,7.583 8.993,8.000 8.993 C 8.417 8.993,8.755 8.851,9.056 8.550 C 9.376 8.230,9.515 7.856,9.487 7.392 C 9.433 6.498,8.593 5.860,7.695 6.031 M14.167 6.039 C 13.912 6.097,13.638 6.252,13.440 6.452 C 13.143 6.752,13.006 7.086,13.007 7.506 C 13.011 8.635,14.208 9.346,15.213 8.818 C 15.439 8.699,15.725 8.405,15.834 8.180 C 16.072 7.686,16.045 7.135,15.762 6.701 C 15.566 6.402,15.276 6.176,14.962 6.078 C 14.734 6.007,14.383 5.989,14.167 6.039 " stroke="none" fill-rule="evenodd" fill="black"></path></svg>