<svg xmlns="http://www.w3.org/2000/svg" width="16" height="16" viewBox="0 0 16 16"><path d="M9.947 0.028 C 7.799 0.262,5.993 1.693,5.303 3.707 C 5.098 4.304,5.007 4.843,5.006 5.467 C 5.005 5.912,5.038 6.264,5.112 6.597 L 5.153 6.780 2.645 9.290 C 0.914 11.024,0.119 11.837,0.076 11.920 L 0.013 12.040 0.013 13.307 L 0.013 14.573 0.087 14.790 C 0.267 15.320,0.680 15.733,1.211 15.914 L 1.427 15.987 2.693 15.987 L 3.960 15.987 4.099 15.909 C 4.293 15.802,4.862 15.218,4.937 15.049 C 4.987 14.938,4.997 14.858,5.007 14.462 L 5.019 14.004 5.490 13.995 C 5.951 13.987,5.963 13.985,6.099 13.909 C 6.293 13.802,6.862 13.218,6.937 13.049 C 6.987 12.938,6.997 12.858,7.007 12.462 L 7.019 12.004 7.490 11.995 C 7.923 11.987,7.970 11.981,8.080 11.924 C 8.151 11.886,8.409 11.653,8.710 11.354 L 9.220 10.848 9.417 10.890 C 9.945 11.003,10.679 11.026,11.237 10.948 C 13.020 10.698,14.569 9.602,15.385 8.014 C 15.649 7.501,15.840 6.910,15.938 6.307 C 16.002 5.909,16.002 5.058,15.937 4.681 C 15.767 3.693,15.375 2.794,14.803 2.080 C 14.620 1.852,14.197 1.423,13.976 1.242 C 13.252 0.651,12.349 0.242,11.413 0.081 C 11.029 0.016,10.302 -0.011,9.947 0.028 M11.160 1.563 C 12.063 1.701,12.978 2.226,13.572 2.947 C 14.346 3.886,14.660 5.149,14.412 6.327 C 14.120 7.716,13.076 8.875,11.733 9.302 C 11.247 9.456,11.078 9.480,10.480 9.479 C 9.910 9.478,9.783 9.459,9.200 9.292 C 9.112 9.267,9.003 9.256,8.927 9.264 C 8.669 9.292,8.580 9.356,7.986 9.948 L 7.425 10.507 6.771 10.507 C 6.037 10.507,5.953 10.521,5.765 10.682 C 5.705 10.733,5.623 10.843,5.582 10.927 L 5.507 11.080 5.498 11.759 C 5.493 12.186,5.479 12.451,5.462 12.473 C 5.440 12.499,5.276 12.507,4.775 12.507 C 4.036 12.507,3.953 12.521,3.765 12.682 C 3.705 12.733,3.623 12.843,3.582 12.927 L 3.507 13.080 3.498 13.765 C 3.492 14.296,3.482 14.456,3.454 14.479 C 3.429 14.500,3.155 14.506,2.537 14.501 L 1.654 14.493 1.581 14.419 L 1.507 14.346 1.499 13.461 L 1.491 12.576 4.063 10.001 C 6.518 7.542,6.636 7.420,6.690 7.272 C 6.763 7.074,6.761 6.969,6.682 6.692 C 6.542 6.208,6.520 6.044,6.521 5.493 C 6.522 5.059,6.532 4.929,6.581 4.702 C 6.845 3.489,7.625 2.473,8.707 1.934 C 9.479 1.549,10.276 1.429,11.160 1.563 M10.767 4.027 C 10.481 4.099,10.228 4.310,10.096 4.587 C 10.022 4.741,10.013 4.786,10.013 5.000 C 10.013 5.207,10.024 5.262,10.089 5.403 C 10.184 5.609,10.390 5.814,10.600 5.912 C 10.738 5.976,10.793 5.987,11.000 5.987 C 11.207 5.987,11.262 5.976,11.403 5.911 C 11.609 5.816,11.814 5.610,11.912 5.400 C 11.976 5.262,11.987 5.207,11.987 5.000 C 11.987 4.793,11.976 4.738,11.911 4.597 C 11.817 4.392,11.609 4.185,11.406 4.093 C 11.235 4.014,10.938 3.984,10.767 4.027 " stroke="none" fill-rule="evenodd" fill="black"></path></svg>