<svg xmlns="http://www.w3.org/2000/svg" width="24" height="24" viewBox="0 0 24 24"><path d="M14.920 0.042 C 12.074 0.353,9.620 2.055,8.359 4.593 C 7.782 5.755,7.508 6.936,7.509 8.260 C 7.510 9.067,7.569 9.540,7.765 10.315 L 7.890 10.810 4.089 14.615 C 1.619 17.087,0.260 18.476,0.208 18.580 C 0.007 18.985,-0.000 19.065,0.000 20.843 C 0.000 22.392,0.006 22.530,0.079 22.766 C 0.235 23.269,0.642 23.700,1.137 23.888 C 1.370 23.976,1.427 23.980,2.520 23.980 C 3.623 23.980,3.667 23.977,3.878 23.887 C 4.337 23.692,4.700 23.330,4.884 22.880 C 4.963 22.687,4.977 22.566,4.997 21.887 C 5.018 21.182,5.027 21.108,5.098 21.057 C 5.161 21.010,5.443 21.000,6.658 20.999 C 8.011 20.998,8.154 20.992,8.300 20.925 C 8.522 20.823,8.902 20.413,8.956 20.217 C 8.981 20.127,9.000 19.707,9.000 19.236 C 9.000 18.450,9.004 18.409,9.084 18.336 C 9.159 18.268,9.254 18.258,9.974 18.240 C 11.110 18.211,11.028 18.254,12.246 17.048 L 13.193 16.111 13.686 16.236 C 15.051 16.581,16.451 16.582,17.790 16.237 C 20.849 15.450,23.200 12.980,23.820 9.900 C 24.009 8.962,24.042 8.224,23.938 7.324 C 23.548 3.979,21.209 1.233,17.959 0.305 C 17.118 0.065,15.774 -0.051,14.920 0.042 M16.720 1.581 C 19.512 1.978,21.764 4.101,22.361 6.900 C 22.483 7.474,22.513 8.577,22.423 9.200 C 22.052 11.763,20.307 13.847,17.848 14.661 C 17.082 14.915,16.648 14.979,15.720 14.977 C 14.790 14.975,14.479 14.926,13.569 14.636 C 13.026 14.463,12.864 14.455,12.647 14.588 C 12.588 14.624,12.067 15.123,11.490 15.697 L 10.440 16.740 9.630 16.760 L 8.820 16.780 8.518 16.924 C 7.978 17.182,7.617 17.660,7.523 18.241 C 7.500 18.383,7.480 18.729,7.480 19.008 L 7.480 19.516 6.129 19.528 L 4.778 19.540 4.499 19.677 C 4.034 19.906,3.697 20.309,3.557 20.801 C 3.529 20.899,3.496 21.304,3.483 21.699 C 3.460 22.415,3.460 22.418,3.360 22.470 C 3.215 22.544,1.680 22.523,1.586 22.445 C 1.527 22.396,1.520 22.233,1.520 20.846 L 1.520 19.301 5.477 15.340 C 8.899 11.915,9.439 11.358,9.476 11.220 C 9.540 10.985,9.533 10.935,9.381 10.484 C 8.697 8.451,8.957 6.336,10.110 4.560 C 11.158 2.947,12.817 1.884,14.755 1.582 C 15.224 1.508,16.207 1.508,16.720 1.581 M16.458 6.035 C 15.913 6.176,15.512 6.675,15.508 7.217 C 15.505 7.593,15.614 7.860,15.877 8.123 C 16.640 8.886,17.915 8.405,17.990 7.326 C 18.036 6.648,17.511 6.054,16.830 6.017 C 16.693 6.010,16.525 6.018,16.458 6.035 " stroke="none" fill-rule="evenodd" fill="black"></path></svg>