<svg xmlns="http://www.w3.org/2000/svg" width="16" height="16" viewBox="0 0 16 16"><path d="M2.362 0.029 C 1.186 0.203,0.264 1.093,0.040 2.273 C -0.020 2.589,-0.021 13.368,0.039 13.710 C 0.241 14.863,1.137 15.759,2.290 15.961 C 2.626 16.020,13.374 16.020,13.710 15.961 C 14.863 15.759,15.759 14.863,15.961 13.710 C 16.020 13.374,16.020 2.626,15.961 2.290 C 15.773 1.216,15.004 0.383,13.925 0.085 L 13.667 0.013 8.093 0.010 C 5.028 0.008,2.449 0.016,2.362 0.029 M13.440 1.521 C 13.962 1.602,14.395 2.035,14.479 2.560 C 14.516 2.797,14.517 13.198,14.479 13.440 C 14.400 13.947,13.976 14.383,13.470 14.479 C 13.271 14.517,2.729 14.517,2.530 14.479 C 2.024 14.383,1.600 13.947,1.521 13.440 C 1.483 13.198,1.484 2.797,1.521 2.560 C 1.603 2.048,2.037 1.603,2.533 1.523 C 2.745 1.489,13.222 1.487,13.440 1.521 M7.747 4.046 C 7.568 4.107,7.358 4.315,7.298 4.492 C 7.259 4.606,7.253 4.759,7.253 5.658 C 7.253 6.227,7.249 6.693,7.243 6.693 C 7.238 6.693,6.839 6.465,6.356 6.186 C 5.874 5.907,5.432 5.666,5.373 5.650 C 5.108 5.577,4.765 5.695,4.594 5.918 C 4.481 6.064,4.415 6.289,4.437 6.451 C 4.459 6.614,4.569 6.832,4.675 6.925 C 4.722 6.966,5.148 7.222,5.620 7.493 C 6.093 7.765,6.479 7.993,6.480 8.000 C 6.480 8.008,6.095 8.236,5.625 8.507 C 5.154 8.778,4.729 9.033,4.680 9.074 C 4.572 9.163,4.460 9.382,4.437 9.549 C 4.415 9.711,4.481 9.936,4.594 10.082 C 4.765 10.305,5.107 10.423,5.373 10.350 C 5.432 10.334,5.876 10.093,6.360 9.814 L 7.240 9.307 7.253 10.380 C 7.266 11.437,7.268 11.455,7.329 11.580 C 7.451 11.827,7.727 12.000,8.000 12.000 C 8.273 12.000,8.549 11.827,8.671 11.580 C 8.732 11.455,8.734 11.437,8.747 10.381 L 8.760 9.308 9.638 9.813 C 10.588 10.359,10.684 10.400,10.918 10.347 C 11.106 10.305,11.234 10.230,11.357 10.090 C 11.612 9.801,11.598 9.362,11.326 9.093 C 11.274 9.042,10.846 8.778,10.375 8.507 C 9.905 8.236,9.520 8.008,9.520 8.000 C 9.521 7.993,9.907 7.765,10.380 7.493 C 10.852 7.222,11.278 6.966,11.325 6.925 C 11.431 6.832,11.541 6.614,11.563 6.451 C 11.585 6.289,11.519 6.064,11.406 5.918 C 11.235 5.695,10.892 5.577,10.627 5.650 C 10.568 5.666,10.125 5.908,9.642 6.186 C 9.160 6.465,8.761 6.693,8.756 6.693 C 8.751 6.693,8.747 6.227,8.747 5.658 C 8.747 4.504,8.743 4.472,8.569 4.269 C 8.374 4.041,8.031 3.948,7.747 4.046 " stroke="none" fill-rule="evenodd" fill="black"></path></svg>