<svg xmlns="http://www.w3.org/2000/svg" width="16" height="16" viewBox="0 0 16 16"><path d="M7.747 0.046 C 7.568 0.107,7.358 0.315,7.298 0.492 C 7.261 0.601,7.253 0.737,7.253 1.309 L 7.253 1.995 6.593 2.007 C 5.721 2.022,5.795 1.998,4.693 2.637 L 4.067 3.000 2.787 3.013 L 1.507 3.027 1.383 3.099 C 0.943 3.358,0.872 3.951,1.241 4.292 C 1.413 4.450,1.517 4.485,1.860 4.500 C 2.025 4.507,2.160 4.518,2.160 4.525 C 2.160 4.531,1.679 5.606,1.090 6.913 C -0.082 9.518,-0.055 9.447,0.040 9.733 C 0.066 9.811,0.130 9.922,0.183 9.982 C 0.417 10.241,0.914 10.543,1.413 10.728 C 2.752 11.223,4.469 11.019,5.517 10.240 C 5.783 10.042,5.903 9.905,5.960 9.733 C 6.055 9.447,6.082 9.518,4.910 6.913 C 4.321 5.606,3.840 4.529,3.840 4.521 C 3.840 4.513,3.901 4.507,3.974 4.507 C 4.183 4.507,4.501 4.433,4.707 4.336 C 4.809 4.288,5.181 4.082,5.533 3.878 L 6.173 3.508 6.713 3.499 L 7.253 3.489 7.253 8.251 L 7.253 13.013 5.913 13.014 L 4.573 13.014 4.440 13.076 C 4.264 13.158,4.099 13.341,4.040 13.519 C 3.944 13.809,4.049 14.154,4.291 14.339 C 4.519 14.515,4.333 14.507,8.000 14.507 C 11.667 14.507,11.481 14.515,11.709 14.339 C 11.951 14.154,12.056 13.809,11.960 13.519 C 11.905 13.355,11.746 13.169,11.588 13.084 C 11.482 13.028,11.451 13.026,10.120 13.013 L 8.760 13.000 8.753 8.245 L 8.747 3.489 9.287 3.499 L 9.827 3.508 10.467 3.878 C 10.819 4.082,11.191 4.288,11.293 4.336 C 11.499 4.433,11.817 4.507,12.026 4.507 C 12.099 4.507,12.160 4.513,12.160 4.521 C 12.160 4.529,11.679 5.606,11.090 6.913 C 9.918 9.518,9.945 9.447,10.040 9.733 C 10.066 9.811,10.130 9.922,10.183 9.982 C 10.417 10.241,10.914 10.543,11.413 10.728 C 12.752 11.223,14.469 11.019,15.517 10.240 C 15.783 10.042,15.903 9.905,15.960 9.733 C 16.055 9.447,16.082 9.518,14.910 6.913 C 14.321 5.606,13.840 4.531,13.840 4.525 C 13.840 4.518,13.975 4.507,14.140 4.500 C 14.483 4.485,14.587 4.450,14.759 4.292 C 15.127 3.952,15.056 3.358,14.617 3.099 L 14.493 3.027 13.213 3.013 L 11.933 3.000 11.200 2.579 C 10.797 2.348,10.404 2.135,10.328 2.107 C 10.103 2.023,9.887 2.000,9.300 2.000 L 8.747 2.000 8.747 1.311 C 8.747 0.538,8.733 0.461,8.569 0.269 C 8.374 0.041,8.031 -0.052,7.747 0.046 M3.682 7.846 C 4.383 9.404,4.349 9.235,3.992 9.348 C 3.370 9.544,2.630 9.544,2.008 9.348 C 1.651 9.235,1.617 9.403,2.315 7.852 C 2.652 7.105,2.943 6.460,2.962 6.418 L 2.997 6.343 3.032 6.411 C 3.052 6.449,3.345 7.094,3.682 7.846 M13.682 7.846 C 14.383 9.404,14.349 9.235,13.992 9.348 C 13.370 9.544,12.630 9.544,12.008 9.348 C 11.651 9.235,11.617 9.403,12.315 7.852 C 12.652 7.105,12.943 6.460,12.962 6.418 L 12.997 6.343 13.032 6.411 C 13.052 6.449,13.345 7.094,13.682 7.846 " stroke="none" fill-rule="evenodd" fill="black"></path></svg>