<svg xmlns="http://www.w3.org/2000/svg" width="24" height="24" viewBox="0 0 24 24"><path d="M11.700 2.076 C 11.506 2.165,11.384 2.292,11.302 2.489 C 11.252 2.609,11.240 2.819,11.240 3.577 L 11.240 4.516 10.030 4.528 L 8.820 4.540 8.560 4.666 C 8.417 4.735,7.904 5.063,7.420 5.395 L 6.540 5.999 4.380 6.000 C 2.366 6.002,2.209 6.007,2.060 6.076 C 1.786 6.202,1.599 6.484,1.601 6.769 C 1.603 7.043,1.819 7.344,2.100 7.462 C 2.144 7.480,2.569 7.505,3.046 7.518 L 3.911 7.540 2.211 11.417 C 0.356 15.648,0.417 15.481,0.596 15.832 C 0.821 16.273,2.188 16.946,3.380 17.201 C 4.000 17.334,5.176 17.355,5.840 17.245 C 6.824 17.083,7.744 16.731,8.485 16.235 C 8.869 15.977,9.031 15.710,8.989 15.400 C 8.978 15.318,8.211 13.521,7.284 11.408 C 6.358 9.295,5.600 7.559,5.600 7.549 C 5.600 7.539,5.865 7.522,6.190 7.510 C 6.993 7.482,7.080 7.447,8.180 6.695 C 8.664 6.364,9.099 6.072,9.147 6.047 C 9.207 6.015,9.549 6.000,10.237 6.000 L 11.240 6.000 11.240 13.260 L 11.240 20.520 8.895 20.520 L 6.551 20.520 6.392 20.610 C 6.223 20.704,6.066 20.932,6.021 21.147 C 5.961 21.436,6.159 21.789,6.458 21.925 C 6.613 21.995,6.866 21.998,12.000 21.998 C 17.134 21.998,17.387 21.995,17.542 21.925 C 18.088 21.677,18.132 20.918,17.617 20.616 L 17.453 20.520 15.106 20.520 L 12.760 20.520 12.760 13.260 L 12.760 6.000 13.763 6.000 C 14.451 6.000,14.793 6.015,14.853 6.047 C 14.901 6.072,15.336 6.364,15.820 6.695 C 16.920 7.447,17.007 7.482,17.810 7.510 C 18.134 7.522,18.400 7.539,18.400 7.549 C 18.400 7.559,17.641 9.298,16.713 11.413 C 15.522 14.129,15.022 15.312,15.011 15.439 C 14.976 15.834,15.244 16.116,16.020 16.499 C 16.572 16.772,17.156 16.973,17.777 17.105 C 18.439 17.245,19.568 17.281,20.240 17.182 C 21.606 16.983,23.092 16.355,23.386 15.853 C 23.593 15.500,23.665 15.700,21.789 11.420 L 20.089 7.540 20.954 7.518 C 21.431 7.505,21.856 7.480,21.900 7.462 C 22.185 7.342,22.398 7.042,22.398 6.760 C 22.398 6.588,22.284 6.330,22.155 6.212 C 21.924 6.000,21.929 6.000,19.611 5.999 L 17.460 5.998 16.580 5.395 C 16.096 5.063,15.583 4.735,15.440 4.666 L 15.180 4.540 13.970 4.528 L 12.760 4.516 12.759 3.568 C 12.758 2.732,12.750 2.601,12.684 2.460 C 12.503 2.068,12.077 1.902,11.700 2.076 M6.021 12.260 C 6.697 13.800,7.259 15.098,7.269 15.144 C 7.285 15.218,7.241 15.248,6.936 15.376 C 6.162 15.700,5.586 15.816,4.740 15.817 C 4.056 15.818,3.729 15.769,3.105 15.574 C 2.706 15.448,2.188 15.214,2.206 15.167 C 2.424 14.616,4.745 9.409,4.764 9.430 C 4.779 9.447,5.345 10.720,6.021 12.260 M20.533 12.294 L 21.793 15.168 21.547 15.280 C 20.730 15.650,19.584 15.825,18.660 15.721 C 17.834 15.628,16.689 15.274,16.732 15.125 C 16.742 15.089,17.277 13.863,17.920 12.400 C 18.563 10.937,19.124 9.661,19.166 9.564 C 19.208 9.468,19.249 9.396,19.257 9.404 C 19.265 9.413,19.839 10.713,20.533 12.294 " stroke="none" fill-rule="evenodd" fill="black"></path></svg>