<svg xmlns="http://www.w3.org/2000/svg" width="16" height="16" viewBox="0 0 16 16"><path d="M7.413 0.030 C 6.435 0.120,5.445 0.481,4.680 1.027 C 3.960 1.542,3.440 2.146,3.054 2.920 C 2.643 3.744,2.485 4.475,2.515 5.411 C 2.536 6.086,2.654 6.582,2.930 7.160 C 3.174 7.671,3.391 7.983,4.053 8.776 C 4.702 9.553,4.897 9.869,4.998 10.303 C 5.049 10.523,5.115 10.654,5.231 10.765 C 5.567 11.087,6.124 11.016,6.375 10.620 C 6.493 10.433,6.519 10.257,6.466 9.999 C 6.330 9.330,6.029 8.797,5.291 7.920 C 4.680 7.193,4.456 6.877,4.270 6.479 C 4.001 5.907,3.937 5.238,4.079 4.508 C 4.447 2.615,6.254 1.352,8.353 1.520 C 10.018 1.654,11.315 2.613,11.813 4.080 C 11.960 4.515,12.028 5.142,11.975 5.593 C 11.889 6.333,11.633 6.812,10.774 7.840 C 9.967 8.806,9.676 9.310,9.534 9.995 C 9.482 10.243,9.483 10.309,9.538 10.479 C 9.668 10.882,10.158 11.110,10.533 10.942 C 10.793 10.826,10.932 10.641,10.999 10.327 C 11.091 9.889,11.283 9.573,11.938 8.786 C 12.616 7.972,12.827 7.669,13.070 7.160 C 13.345 6.584,13.463 6.090,13.485 5.413 C 13.516 4.479,13.358 3.751,12.945 2.920 C 12.561 2.148,12.041 1.542,11.320 1.027 C 10.244 0.259,8.837 -0.100,7.413 0.030 M5.504 12.049 C 5.259 12.134,5.094 12.317,5.027 12.579 C 4.982 12.752,5.002 12.943,5.081 13.095 C 5.140 13.209,5.303 13.366,5.428 13.428 C 5.530 13.479,5.601 13.480,8.000 13.480 C 10.399 13.480,10.470 13.479,10.572 13.428 C 10.895 13.268,11.060 12.918,10.973 12.579 C 10.906 12.317,10.741 12.134,10.496 12.049 C 10.370 12.005,10.184 12.002,8.000 12.002 C 5.816 12.002,5.630 12.005,5.504 12.049 M6.500 14.544 C 6.215 14.647,6.000 14.946,6.000 15.239 C 6.000 15.450,6.072 15.623,6.225 15.775 C 6.453 16.003,6.426 16.000,8.000 16.000 C 9.574 16.000,9.547 16.003,9.775 15.775 C 10.134 15.416,10.053 14.857,9.604 14.593 L 9.480 14.520 8.040 14.514 C 6.883 14.509,6.580 14.515,6.500 14.544 " stroke="none" fill-rule="evenodd" fill="black"></path></svg>