<svg xmlns="http://www.w3.org/2000/svg" width="24" height="24" viewBox="0 0 24 24"><path d="M11.340 1.024 C 9.873 1.176,8.867 1.482,7.760 2.114 C 5.347 3.493,3.900 6.098,4.013 8.860 C 4.041 9.559,4.121 10.007,4.322 10.614 C 4.671 11.664,5.066 12.293,6.323 13.804 C 7.207 14.867,7.462 15.241,7.665 15.775 C 7.806 16.143,7.931 16.311,8.135 16.403 C 8.460 16.551,8.759 16.484,9.007 16.209 C 9.276 15.912,9.256 15.616,8.920 14.894 C 8.646 14.304,8.319 13.847,7.309 12.640 C 6.201 11.317,5.756 10.504,5.577 9.476 C 5.495 9.008,5.519 7.864,5.620 7.400 C 5.963 5.828,6.852 4.506,8.153 3.635 C 8.884 3.146,9.605 2.845,10.516 2.650 C 10.986 2.549,11.086 2.542,12.000 2.542 C 12.914 2.542,13.014 2.549,13.484 2.650 C 15.762 3.138,17.492 4.626,18.177 6.685 C 18.423 7.424,18.460 7.682,18.458 8.620 C 18.455 9.408,18.448 9.485,18.346 9.860 C 18.110 10.721,17.643 11.502,16.674 12.660 C 15.601 13.942,15.245 14.462,14.965 15.157 C 14.787 15.597,14.762 15.849,14.875 16.071 C 15.069 16.451,15.538 16.606,15.901 16.410 C 16.062 16.323,16.196 16.132,16.316 15.820 C 16.543 15.229,16.803 14.845,17.728 13.740 C 18.645 12.644,18.975 12.176,19.321 11.485 C 19.563 11.003,19.813 10.266,19.900 9.780 C 19.990 9.275,20.020 8.388,19.963 7.860 C 19.585 4.318,16.970 1.666,13.296 1.099 C 12.909 1.039,11.658 0.991,11.340 1.024 M8.460 18.075 C 7.795 18.376,7.890 19.324,8.600 19.476 C 8.738 19.506,9.835 19.520,12.000 19.520 C 14.165 19.520,15.262 19.506,15.400 19.476 C 15.942 19.360,16.182 18.695,15.828 18.292 C 15.557 17.984,15.787 18.002,12.000 18.002 C 8.816 18.002,8.611 18.006,8.460 18.075 M9.935 21.077 C 9.559 21.248,9.395 21.737,9.592 22.105 C 9.658 22.229,9.906 22.434,10.031 22.469 C 10.173 22.509,13.827 22.509,13.969 22.469 C 14.094 22.434,14.342 22.229,14.408 22.105 C 14.605 21.737,14.441 21.248,14.065 21.077 C 13.911 21.007,13.770 21.002,12.000 21.002 C 10.230 21.002,10.089 21.007,9.935 21.077 " stroke="none" fill-rule="evenodd" fill="black"></path></svg>