<svg xmlns="http://www.w3.org/2000/svg" width="24" height="24" viewBox="0 0 24 24"><path d="M16.886 1.042 C 15.983 1.155,15.045 1.538,14.278 2.105 C 13.885 2.395,10.695 5.584,10.599 5.781 C 10.415 6.161,10.560 6.592,10.939 6.789 C 11.083 6.864,11.427 6.871,11.562 6.801 C 11.616 6.773,12.425 5.991,13.360 5.062 C 15.136 3.299,15.317 3.144,15.940 2.856 C 16.508 2.594,16.770 2.544,17.580 2.545 C 18.250 2.545,18.325 2.553,18.658 2.655 C 19.951 3.050,20.950 4.049,21.345 5.342 C 21.447 5.675,21.455 5.750,21.455 6.420 C 21.456 7.040,21.444 7.184,21.368 7.460 C 21.243 7.913,20.927 8.526,20.625 8.900 C 20.483 9.076,19.488 10.096,18.413 11.166 C 16.335 13.236,16.144 13.400,15.491 13.678 C 14.928 13.918,14.602 13.979,13.920 13.976 C 13.421 13.973,13.240 13.956,12.993 13.889 C 12.201 13.672,11.659 13.347,11.038 12.716 C 10.693 12.365,10.584 12.279,10.438 12.239 C 9.974 12.112,9.506 12.474,9.506 12.960 C 9.506 13.230,9.641 13.446,10.094 13.898 C 11.130 14.932,12.454 15.486,13.900 15.491 C 15.138 15.495,16.266 15.119,17.252 14.374 C 17.550 14.149,21.292 10.434,21.678 9.980 C 23.331 8.036,23.442 5.256,21.947 3.223 C 21.152 2.142,19.903 1.352,18.589 1.100 C 18.186 1.022,17.284 0.992,16.886 1.042 M9.134 8.581 C 8.679 8.660,8.084 8.858,7.660 9.070 C 6.878 9.461,6.716 9.601,4.587 11.718 C 2.135 14.156,1.922 14.401,1.538 15.215 C 0.674 17.051,0.871 19.175,2.054 20.777 C 2.835 21.834,3.943 22.560,5.240 22.865 C 6.611 23.188,8.162 22.912,9.380 22.130 C 9.846 21.830,10.233 21.473,11.865 19.833 C 13.546 18.144,13.550 18.138,13.509 17.775 C 13.457 17.307,12.937 16.994,12.493 17.163 C 12.431 17.186,11.615 17.966,10.680 18.896 C 9.739 19.832,8.861 20.670,8.714 20.774 C 7.957 21.307,6.939 21.580,6.070 21.483 C 4.431 21.300,3.139 20.230,2.652 18.652 C 2.551 18.324,2.544 18.250,2.544 17.580 C 2.545 16.770,2.595 16.505,2.856 15.940 C 3.150 15.304,3.282 15.153,5.357 13.067 C 6.457 11.961,7.483 10.965,7.660 10.830 C 8.060 10.526,8.671 10.230,9.140 10.114 C 9.672 9.981,10.509 9.988,11.042 10.130 C 11.796 10.330,12.342 10.658,12.960 11.283 C 13.420 11.747,13.565 11.828,13.854 11.783 C 14.347 11.705,14.641 11.150,14.419 10.717 C 14.314 10.513,13.978 10.138,13.640 9.849 C 12.933 9.245,12.203 8.872,11.264 8.634 C 10.836 8.525,9.623 8.495,9.134 8.581 " stroke="none" fill-rule="evenodd" fill="black"></path></svg>