<svg xmlns="http://www.w3.org/2000/svg" width="16" height="16" viewBox="0 0 16 16"><path d="M10.435 1.077 C 10.377 1.128,10.361 1.164,10.361 1.251 C 10.361 1.360,10.371 1.371,11.167 2.167 L 11.973 2.974 10.064 4.880 C 7.964 6.977,8.027 6.904,8.027 7.227 C 8.027 7.649,8.351 7.973,8.773 7.973 C 9.096 7.973,9.023 8.036,11.120 5.936 L 13.026 4.027 13.833 4.833 C 14.622 5.622,14.641 5.639,14.746 5.639 C 14.828 5.639,14.871 5.621,14.927 5.565 L 15.000 5.492 15.008 3.406 C 15.012 2.259,15.008 1.280,14.999 1.230 C 14.990 1.181,14.954 1.112,14.919 1.077 L 14.856 1.013 12.683 1.013 L 10.510 1.013 10.435 1.077 M3.442 2.029 C 2.746 2.167,2.223 2.663,2.053 3.347 C 2.000 3.558,1.999 3.636,2.006 8.067 L 2.013 12.573 2.087 12.790 C 2.267 13.320,2.680 13.733,3.211 13.914 L 3.427 13.987 8.000 13.987 L 12.573 13.987 12.790 13.913 C 13.036 13.830,13.347 13.636,13.511 13.463 C 13.678 13.287,13.832 13.029,13.914 12.789 L 13.987 12.573 13.994 10.616 C 14.002 8.445,14.005 8.482,13.831 8.278 C 13.635 8.049,13.320 7.954,13.036 8.036 C 12.862 8.087,12.666 8.247,12.579 8.410 C 12.520 8.520,12.520 8.523,12.507 10.433 L 12.493 12.345 12.419 12.419 L 12.345 12.493 8.000 12.493 L 3.655 12.493 3.581 12.419 L 3.507 12.345 3.507 8.000 L 3.507 3.655 3.581 3.581 L 3.655 3.507 5.567 3.493 C 7.477 3.480,7.480 3.480,7.590 3.421 C 7.737 3.343,7.906 3.146,7.958 2.994 C 8.078 2.642,7.932 2.278,7.596 2.092 L 7.453 2.013 5.507 2.009 C 4.436 2.007,3.507 2.016,3.442 2.029 " stroke="none" fill-rule="evenodd" fill="black"></path></svg>