<svg xmlns="http://www.w3.org/2000/svg" width="16" height="16" viewBox="0 0 16 16"><path d="M10.893 1.054 C 10.402 1.144,9.973 1.319,9.542 1.604 C 9.346 1.734,9.125 1.936,8.500 2.557 C 7.660 3.390,7.608 3.455,7.582 3.714 C 7.537 4.148,7.886 4.533,8.324 4.533 C 8.607 4.533,8.668 4.489,9.438 3.726 C 10.215 2.956,10.304 2.877,10.560 2.738 C 10.821 2.597,11.066 2.531,11.388 2.514 C 12.595 2.452,13.548 3.405,13.486 4.612 C 13.465 5.028,13.330 5.401,13.085 5.720 C 12.951 5.895,10.483 8.364,10.267 8.540 C 9.894 8.843,9.473 8.993,9.000 8.993 C 8.504 8.993,8.109 8.845,7.680 8.497 C 7.385 8.258,7.229 8.196,6.991 8.224 C 6.519 8.280,6.222 8.735,6.361 9.190 C 6.402 9.323,6.440 9.377,6.616 9.551 C 6.832 9.763,7.151 9.990,7.428 10.128 C 7.660 10.244,8.096 10.391,8.367 10.445 C 8.684 10.507,9.316 10.507,9.633 10.445 C 9.904 10.391,10.340 10.244,10.572 10.128 C 11.022 9.903,11.126 9.811,12.636 8.309 C 13.433 7.516,14.160 6.771,14.252 6.653 C 15.355 5.245,15.223 3.256,13.942 2.001 C 13.496 1.563,12.971 1.270,12.333 1.103 C 12.104 1.043,12.000 1.032,11.587 1.024 C 11.244 1.018,11.046 1.026,10.893 1.054 M6.747 5.510 C 6.206 5.555,5.665 5.726,5.213 5.994 C 4.876 6.194,4.583 6.466,3.185 7.871 C 1.671 9.393,1.609 9.464,1.366 9.947 C 0.957 10.758,0.891 11.759,1.187 12.629 C 1.288 12.923,1.500 13.328,1.681 13.573 C 2.860 15.163,5.100 15.469,6.653 14.252 C 6.771 14.160,7.198 13.751,7.604 13.343 C 8.296 12.645,8.344 12.591,8.384 12.455 C 8.473 12.151,8.414 11.904,8.202 11.692 C 7.989 11.478,7.712 11.414,7.425 11.511 C 7.310 11.550,7.196 11.652,6.533 12.305 C 6.115 12.717,5.704 13.100,5.620 13.156 C 4.828 13.676,3.805 13.592,3.126 12.951 C 2.485 12.346,2.320 11.330,2.739 10.560 C 2.790 10.465,2.870 10.339,2.915 10.280 C 3.037 10.121,5.506 7.646,5.707 7.481 C 5.918 7.308,6.164 7.171,6.413 7.089 C 6.578 7.034,6.650 7.027,7.013 7.028 C 7.388 7.030,7.445 7.036,7.618 7.098 C 7.884 7.193,8.110 7.326,8.354 7.530 C 8.602 7.737,8.762 7.800,8.988 7.779 C 9.283 7.753,9.521 7.568,9.627 7.286 C 9.724 7.028,9.672 6.756,9.486 6.544 C 9.279 6.309,8.806 5.977,8.452 5.819 C 7.939 5.589,7.262 5.466,6.747 5.510 " stroke="none" fill-rule="evenodd" fill="black"></path></svg>