<svg xmlns="http://www.w3.org/2000/svg" width="24" height="24" viewBox="0 0 24 24"><path d="M15.940 1.567 C 15.827 1.629,15.641 1.806,15.590 1.899 C 15.395 2.260,15.561 2.753,15.935 2.923 C 16.089 2.993,16.231 2.998,18.020 2.999 L 19.940 3.000 16.771 6.170 C 14.547 8.396,13.584 9.384,13.541 9.489 C 13.423 9.776,13.474 10.044,13.692 10.275 C 13.921 10.516,14.213 10.582,14.511 10.459 C 14.616 10.416,15.604 9.453,17.830 7.229 L 21.000 4.060 21.001 5.980 C 21.002 7.769,21.007 7.911,21.077 8.065 C 21.248 8.441,21.737 8.605,22.105 8.408 C 22.229 8.342,22.434 8.094,22.469 7.969 C 22.509 7.827,22.509 2.173,22.469 2.031 C 22.427 1.879,22.207 1.639,22.052 1.574 C 21.882 1.503,16.068 1.496,15.940 1.567 M3.691 2.595 C 3.068 2.810,2.629 3.338,2.522 4.000 C 2.465 4.359,2.464 19.638,2.522 20.000 C 2.645 20.771,3.229 21.355,4.000 21.478 C 4.360 21.535,19.640 21.535,20.000 21.478 C 20.779 21.354,21.360 20.766,21.480 19.980 C 21.509 19.791,21.519 18.293,21.511 15.380 C 21.501 11.442,21.494 11.049,21.434 10.940 C 21.346 10.781,21.167 10.615,21.027 10.563 C 20.762 10.462,20.371 10.549,20.192 10.747 C 19.994 10.966,20.000 10.806,20.000 15.479 C 20.000 19.787,19.999 19.841,19.920 19.920 C 19.841 19.999,19.787 20.000,12.000 20.000 C 4.213 20.000,4.159 19.999,4.080 19.920 C 4.001 19.841,4.000 19.787,4.000 12.000 C 4.000 4.213,4.001 4.159,4.080 4.080 C 4.159 4.001,4.214 4.000,8.530 3.999 C 12.712 3.998,12.907 3.995,13.065 3.923 C 13.439 3.753,13.605 3.260,13.410 2.899 C 13.344 2.778,13.153 2.610,13.027 2.563 C 12.950 2.533,11.498 2.520,8.407 2.521 C 4.172 2.523,3.887 2.527,3.691 2.595 " stroke="none" fill-rule="evenodd" fill="black"></path></svg>