<svg xmlns="http://www.w3.org/2000/svg" width="16" height="16" viewBox="0 0 16 16"><path d="M0.780 2.304 C 0.221 2.584,0.153 2.626,0.087 2.725 C 0.027 2.816,0.013 2.866,0.013 3.000 C 0.013 3.138,0.026 3.183,0.090 3.275 C 0.245 3.499,0.506 3.551,0.796 3.413 C 0.889 3.369,0.970 3.333,0.976 3.333 C 0.982 3.333,0.987 3.933,0.987 4.667 L 0.987 6.000 0.700 6.001 C 0.481 6.001,0.388 6.013,0.306 6.050 C -0.026 6.201,-0.099 6.609,0.162 6.858 C 0.320 7.008,0.406 7.017,1.591 7.008 C 2.626 7.000,2.627 7.000,2.738 6.936 C 3.021 6.774,3.091 6.426,2.887 6.184 C 2.766 6.040,2.641 6.001,2.300 6.001 L 2.000 6.000 2.000 4.195 C 2.000 2.434,1.999 2.387,1.946 2.278 C 1.875 2.131,1.716 2.027,1.537 2.008 C 1.404 1.995,1.380 2.004,0.780 2.304 M5.467 2.562 C 5.294 2.640,5.184 2.733,5.107 2.863 C 4.871 3.266,5.051 3.779,5.488 3.946 C 5.627 3.999,5.678 4.000,10.000 4.000 C 14.322 4.000,14.373 3.999,14.512 3.946 C 14.751 3.855,14.908 3.676,14.973 3.423 C 15.062 3.077,14.909 2.752,14.581 2.588 L 14.418 2.507 10.002 2.507 C 5.624 2.508,5.586 2.508,5.467 2.562 M5.600 7.518 C 5.258 7.588,5.004 7.901,5.004 8.253 C 5.004 8.543,5.164 8.793,5.435 8.926 L 5.587 9.000 10.000 9.000 L 14.413 9.000 14.565 8.926 C 15.137 8.645,15.142 7.880,14.573 7.578 L 14.440 7.507 10.067 7.503 C 7.661 7.501,5.651 7.508,5.600 7.518 M1.099 9.052 C 0.589 9.176,-0.002 9.713,0.001 10.052 C 0.002 10.266,0.168 10.478,0.379 10.535 C 0.587 10.591,0.757 10.520,0.956 10.292 C 1.163 10.058,1.360 9.974,1.615 10.012 C 1.867 10.050,2.019 10.285,1.994 10.598 C 1.966 10.938,1.814 11.134,1.245 11.563 C 0.795 11.903,0.399 12.292,0.259 12.533 C 0.075 12.850,-0.031 13.302,0.012 13.587 C 0.035 13.744,0.197 13.932,0.343 13.973 C 0.401 13.989,0.873 14.000,1.514 14.000 C 2.684 14.000,2.702 13.998,2.861 13.846 C 2.949 13.762,3.023 13.531,2.998 13.423 C 2.965 13.285,2.877 13.157,2.766 13.084 L 2.656 13.013 1.915 13.013 C 1.312 13.013,1.173 13.007,1.173 12.978 C 1.173 12.921,1.478 12.645,1.840 12.374 C 2.254 12.064,2.595 11.725,2.740 11.480 C 3.314 10.506,2.904 9.314,1.905 9.054 C 1.717 9.005,1.298 9.004,1.099 9.052 M5.467 12.562 C 5.294 12.640,5.184 12.733,5.107 12.863 C 4.871 13.266,5.051 13.779,5.488 13.946 C 5.627 13.999,5.678 14.000,10.000 14.000 C 14.322 14.000,14.373 13.999,14.512 13.946 C 14.751 13.855,14.908 13.676,14.973 13.423 C 15.062 13.077,14.909 12.752,14.581 12.588 L 14.418 12.507 10.002 12.507 C 5.624 12.508,5.586 12.508,5.467 12.562 " stroke="none" fill-rule="evenodd" fill="black"></path></svg>