<svg xmlns="http://www.w3.org/2000/svg" width="24" height="24" viewBox="0 0 24 24"><path d="M2.976 3.057 C 2.756 3.153,1.298 4.147,1.191 4.275 C 0.779 4.764,1.118 5.480,1.762 5.480 C 1.957 5.480,2.021 5.459,2.234 5.321 L 2.480 5.162 2.480 6.841 L 2.480 8.520 2.018 8.520 C 1.638 8.520,1.530 8.534,1.402 8.599 C 1.112 8.747,0.967 9.041,1.018 9.380 C 1.053 9.616,1.296 9.898,1.515 9.959 C 1.602 9.983,2.309 9.999,3.280 9.999 C 5.092 9.998,5.118 9.994,5.332 9.714 C 5.634 9.318,5.479 8.733,5.027 8.563 C 4.965 8.539,4.709 8.520,4.457 8.520 L 4.000 8.520 4.000 6.063 C 4.000 4.424,3.986 3.568,3.957 3.493 C 3.818 3.125,3.324 2.906,2.976 3.057 M8.394 5.601 C 8.110 5.751,7.968 6.046,8.018 6.380 C 8.053 6.616,8.296 6.898,8.515 6.959 C 8.715 7.015,20.285 7.015,20.485 6.959 C 20.704 6.898,20.947 6.616,20.982 6.380 C 21.033 6.041,20.888 5.747,20.598 5.599 C 20.446 5.521,20.338 5.520,14.492 5.522 C 8.687 5.523,8.536 5.525,8.394 5.601 M8.394 11.601 C 8.110 11.751,7.968 12.046,8.018 12.380 C 8.053 12.616,8.296 12.898,8.515 12.959 C 8.715 13.015,20.285 13.015,20.485 12.959 C 20.704 12.898,20.947 12.616,20.982 12.380 C 21.033 12.041,20.888 11.747,20.598 11.599 C 20.446 11.521,20.338 11.520,14.492 11.522 C 8.687 11.523,8.536 11.525,8.394 11.601 M2.640 13.583 C 1.836 13.795,1.229 14.427,1.059 15.230 C 0.943 15.773,1.016 16.126,1.286 16.332 C 1.416 16.431,1.721 16.528,1.815 16.500 C 1.840 16.493,1.909 16.476,1.969 16.463 C 2.101 16.434,2.343 16.229,2.419 16.082 C 2.449 16.024,2.491 15.849,2.513 15.693 C 2.557 15.372,2.629 15.238,2.821 15.119 C 3.271 14.841,3.909 15.095,3.982 15.581 C 4.017 15.812,3.982 16.082,3.895 16.251 C 3.858 16.322,3.229 16.970,2.497 17.692 C 1.588 18.588,1.139 19.058,1.083 19.175 C 1.023 19.298,1.000 19.423,1.001 19.623 C 1.002 20.108,1.209 20.391,1.626 20.481 C 1.759 20.509,2.407 20.520,3.504 20.512 L 5.180 20.500 5.364 20.392 C 5.784 20.145,5.877 19.640,5.571 19.276 C 5.360 19.025,5.245 19.002,4.220 19.000 L 3.300 18.998 4.126 18.189 C 5.000 17.333,5.212 17.064,5.357 16.628 C 5.594 15.916,5.515 15.073,5.159 14.519 C 4.880 14.084,4.364 13.713,3.852 13.580 C 3.564 13.505,2.932 13.506,2.640 13.583 M8.394 17.601 C 8.110 17.751,7.968 18.046,8.018 18.380 C 8.053 18.616,8.296 18.898,8.515 18.959 C 8.715 19.015,20.285 19.015,20.485 18.959 C 20.704 18.898,20.947 18.616,20.982 18.380 C 21.033 18.041,20.888 17.747,20.598 17.599 C 20.446 17.521,20.338 17.520,14.492 17.522 C 8.687 17.523,8.536 17.525,8.394 17.601 " stroke="none" fill-rule="evenodd" fill="black"></path></svg>