<svg xmlns="http://www.w3.org/2000/svg" width="16" height="16" viewBox="0 0 16 16"><path d="M1.734 2.043 C 1.363 2.143,1.088 2.447,1.016 2.840 C 0.937 3.267,1.184 3.722,1.600 3.916 C 1.725 3.974,1.784 3.984,2.000 3.984 C 2.216 3.984,2.275 3.974,2.400 3.916 C 2.816 3.722,3.063 3.267,2.984 2.840 C 2.911 2.441,2.636 2.141,2.254 2.041 C 2.061 1.991,1.926 1.991,1.734 2.043 M5.467 2.562 C 5.294 2.640,5.184 2.733,5.107 2.863 C 4.871 3.266,5.051 3.779,5.488 3.946 C 5.627 3.999,5.678 4.000,10.000 4.000 C 14.322 4.000,14.373 3.999,14.512 3.946 C 14.751 3.855,14.908 3.676,14.973 3.423 C 15.062 3.077,14.909 2.752,14.581 2.588 L 14.418 2.507 10.002 2.507 C 5.624 2.508,5.586 2.508,5.467 2.562 M1.662 7.061 C 1.221 7.219,0.939 7.692,1.014 8.152 C 1.145 8.957,2.127 9.277,2.702 8.702 C 3.188 8.216,3.050 7.404,2.429 7.100 C 2.234 7.005,1.872 6.986,1.662 7.061 M5.600 7.518 C 5.258 7.588,5.004 7.901,5.004 8.253 C 5.004 8.543,5.164 8.793,5.435 8.926 L 5.587 9.000 10.000 9.000 L 14.413 9.000 14.565 8.926 C 15.137 8.645,15.142 7.880,14.573 7.578 L 14.440 7.507 10.067 7.503 C 7.661 7.501,5.651 7.508,5.600 7.518 M1.734 12.043 C 1.363 12.143,1.088 12.447,1.016 12.840 C 0.937 13.267,1.184 13.722,1.600 13.916 C 1.725 13.974,1.784 13.984,2.000 13.984 C 2.216 13.984,2.275 13.974,2.400 13.916 C 2.816 13.722,3.063 13.267,2.984 12.840 C 2.911 12.441,2.636 12.141,2.254 12.041 C 2.061 11.991,1.926 11.991,1.734 12.043 M5.467 12.562 C 5.294 12.640,5.184 12.733,5.107 12.863 C 4.871 13.266,5.051 13.779,5.488 13.946 C 5.627 13.999,5.678 14.000,10.000 14.000 C 14.322 14.000,14.373 13.999,14.512 13.946 C 14.751 13.855,14.908 13.676,14.973 13.423 C 15.062 13.077,14.909 12.752,14.581 12.588 L 14.418 12.507 10.002 12.507 C 5.624 12.508,5.586 12.508,5.467 12.562 " stroke="none" fill-rule="evenodd" fill="black"></path></svg>