<svg xmlns="http://www.w3.org/2000/svg" width="24" height="24" viewBox="0 0 24 24"><path d="M3.664 5.063 C 3.436 5.146,3.257 5.297,3.131 5.511 C 3.036 5.672,3.020 5.744,3.020 6.000 C 3.020 6.256,3.036 6.328,3.131 6.489 C 3.470 7.065,4.234 7.168,4.701 6.701 C 5.092 6.310,5.092 5.690,4.701 5.299 C 4.429 5.027,4.018 4.933,3.664 5.063 M8.394 5.601 C 8.110 5.751,7.968 6.046,8.018 6.380 C 8.053 6.616,8.296 6.898,8.515 6.959 C 8.715 7.015,20.285 7.015,20.485 6.959 C 20.704 6.898,20.947 6.616,20.982 6.380 C 21.033 6.041,20.888 5.747,20.598 5.599 C 20.446 5.521,20.338 5.520,14.492 5.522 C 8.687 5.523,8.536 5.525,8.394 5.601 M3.664 11.063 C 3.436 11.146,3.257 11.297,3.131 11.511 C 3.036 11.672,3.020 11.744,3.020 12.000 C 3.020 12.256,3.036 12.328,3.131 12.489 C 3.470 13.065,4.234 13.168,4.701 12.701 C 5.092 12.310,5.092 11.690,4.701 11.299 C 4.429 11.027,4.018 10.933,3.664 11.063 M8.394 11.601 C 8.110 11.751,7.968 12.046,8.018 12.380 C 8.053 12.616,8.296 12.898,8.515 12.959 C 8.715 13.015,20.285 13.015,20.485 12.959 C 20.704 12.898,20.947 12.616,20.982 12.380 C 21.033 12.041,20.888 11.747,20.598 11.599 C 20.446 11.521,20.338 11.520,14.492 11.522 C 8.687 11.523,8.536 11.525,8.394 11.601 M3.664 17.063 C 3.436 17.146,3.257 17.297,3.131 17.511 C 3.036 17.672,3.020 17.744,3.020 18.000 C 3.020 18.256,3.036 18.328,3.131 18.489 C 3.470 19.065,4.234 19.168,4.701 18.701 C 5.092 18.310,5.092 17.690,4.701 17.299 C 4.429 17.027,4.018 16.933,3.664 17.063 M8.394 17.601 C 8.110 17.751,7.968 18.046,8.018 18.380 C 8.053 18.616,8.296 18.898,8.515 18.959 C 8.715 19.015,20.285 19.015,20.485 18.959 C 20.704 18.898,20.947 18.616,20.982 18.380 C 21.033 18.041,20.888 17.747,20.598 17.599 C 20.446 17.521,20.338 17.520,14.492 17.522 C 8.687 17.523,8.536 17.525,8.394 17.601 " stroke="none" fill-rule="evenodd" fill="black"></path></svg>