<svg xmlns="http://www.w3.org/2000/svg" width="16" height="16" viewBox="0 0 16 16"><path d="M7.427 0.523 C 5.865 0.685,4.474 1.337,3.401 2.412 C 1.968 3.848,1.275 5.905,1.560 7.884 C 1.751 9.216,2.316 10.408,3.232 11.413 C 3.373 11.567,4.302 12.504,5.297 13.495 C 6.826 15.017,7.131 15.309,7.267 15.378 C 7.552 15.524,7.694 15.559,8.000 15.559 C 8.306 15.559,8.448 15.524,8.733 15.378 C 8.868 15.309,9.171 15.020,10.676 13.522 C 12.599 11.607,12.917 11.275,13.220 10.869 C 14.263 9.469,14.706 7.629,14.411 5.924 C 14.051 3.840,12.725 2.072,10.840 1.161 C 9.921 0.716,9.152 0.535,8.120 0.521 C 7.797 0.516,7.485 0.517,7.427 0.523 M8.501 2.028 C 10.027 2.194,11.319 2.977,12.171 4.251 C 12.711 5.059,12.987 5.987,12.987 7.000 C 12.987 8.205,12.589 9.305,11.827 10.211 C 11.734 10.322,10.834 11.235,9.828 12.240 L 7.999 14.067 6.084 12.147 C 4.769 10.829,4.114 10.153,3.994 9.991 C 3.484 9.301,3.135 8.429,3.039 7.600 C 2.988 7.166,3.019 6.384,3.103 6.000 C 3.267 5.240,3.551 4.607,3.999 4.003 C 5.025 2.619,6.796 1.842,8.501 2.028 M7.554 5.052 C 6.855 5.211,6.300 5.737,6.076 6.454 C 5.986 6.741,5.986 7.259,6.076 7.546 C 6.423 8.657,7.532 9.243,8.627 8.896 C 9.239 8.701,9.719 8.203,9.924 7.546 C 10.013 7.261,10.012 6.744,9.923 6.453 C 9.718 5.787,9.221 5.287,8.559 5.080 C 8.359 5.017,7.777 5.001,7.554 5.052 " stroke="none" fill-rule="evenodd" fill="black"></path></svg>