<svg xmlns="http://www.w3.org/2000/svg" width="24" height="24" viewBox="0 0 24 24"><path d="M10.773 0.581 C 8.924 0.819,7.219 1.532,5.798 2.662 C 3.774 4.272,2.494 6.502,2.093 9.120 C 1.995 9.762,1.995 11.238,2.093 11.880 C 2.330 13.431,2.865 14.829,3.692 16.060 C 4.035 16.572,4.300 16.894,4.903 17.537 C 5.603 18.281,10.375 23.032,10.580 23.188 C 11.285 23.724,12.263 23.812,13.058 23.411 C 13.169 23.355,13.332 23.255,13.420 23.188 C 13.626 23.031,18.492 18.186,19.139 17.494 C 19.709 16.884,19.973 16.560,20.308 16.060 C 20.982 15.054,21.433 14.021,21.722 12.820 C 21.928 11.960,21.978 11.509,21.978 10.500 C 21.978 9.491,21.928 9.040,21.722 8.180 C 21.275 6.321,20.392 4.755,19.034 3.411 C 17.412 1.806,15.460 0.861,13.186 0.580 C 12.597 0.507,11.345 0.508,10.773 0.581 M13.200 2.142 C 14.307 2.307,15.344 2.674,16.288 3.237 C 16.930 3.619,17.366 3.962,17.944 4.538 C 18.711 5.303,19.157 5.930,19.623 6.900 C 20.161 8.020,20.384 8.961,20.426 10.280 C 20.454 11.177,20.393 11.802,20.200 12.595 C 19.910 13.783,19.298 14.994,18.501 15.960 C 18.329 16.169,16.917 17.613,15.364 19.168 C 12.361 22.177,12.381 22.158,12.000 22.158 C 11.618 22.158,11.641 22.178,8.616 19.149 C 7.052 17.582,5.631 16.129,5.459 15.920 C 4.678 14.973,4.070 13.789,3.786 12.660 C 3.568 11.797,3.542 11.565,3.542 10.500 C 3.542 9.709,3.557 9.421,3.613 9.120 C 3.793 8.164,4.010 7.501,4.405 6.705 C 5.685 4.124,8.258 2.358,11.143 2.083 C 11.659 2.034,12.668 2.063,13.200 2.142 M11.392 8.582 C 10.523 8.793,9.817 9.493,9.579 10.380 C 9.495 10.693,9.495 11.307,9.579 11.620 C 9.817 12.505,10.501 13.190,11.380 13.422 C 11.692 13.504,12.308 13.504,12.620 13.422 C 13.499 13.190,14.183 12.505,14.421 11.620 C 14.505 11.307,14.505 10.693,14.421 10.380 C 14.180 9.483,13.473 8.788,12.590 8.580 C 12.281 8.507,11.696 8.508,11.392 8.582 " stroke="none" fill-rule="evenodd" fill="black"></path></svg>