<svg xmlns="http://www.w3.org/2000/svg" width="16" height="16" viewBox="0 0 16 16"><path d="M7.467 0.038 C 6.830 0.131,6.295 0.334,5.773 0.683 C 4.904 1.264,4.323 2.128,4.075 3.206 C 4.023 3.435,4.018 3.546,4.007 4.723 L 3.996 5.993 3.711 6.007 C 2.882 6.049,2.251 6.558,2.053 7.344 C 2.002 7.549,2.000 7.646,2.000 10.491 C 2.001 13.762,1.994 13.628,2.185 14.013 C 2.308 14.262,2.458 14.448,2.678 14.624 C 2.876 14.783,3.034 14.863,3.298 14.940 L 3.507 15.000 8.000 15.000 L 12.493 15.000 12.702 14.940 C 12.966 14.863,13.124 14.783,13.322 14.624 C 13.542 14.448,13.692 14.262,13.815 14.013 C 14.009 13.622,14.002 13.763,13.994 10.419 L 13.987 7.427 13.913 7.210 C 13.671 6.496,13.064 6.046,12.289 6.007 L 12.004 5.993 11.994 4.736 C 11.983 3.350,11.975 3.279,11.787 2.715 C 11.329 1.351,10.125 0.319,8.694 0.064 C 8.368 0.007,7.773 -0.006,7.467 0.038 M8.632 1.588 C 8.881 1.650,9.216 1.803,9.438 1.954 C 9.595 2.060,9.940 2.405,10.046 2.562 C 10.196 2.782,10.349 3.118,10.420 3.381 C 10.489 3.638,10.489 3.650,10.500 4.820 L 10.511 6.000 8.000 6.000 L 5.489 6.000 5.500 4.820 C 5.511 3.650,5.511 3.638,5.580 3.381 C 5.894 2.212,6.940 1.446,8.133 1.512 C 8.273 1.519,8.497 1.553,8.632 1.588 M12.419 7.581 L 12.493 7.655 12.501 10.421 C 12.505 11.942,12.501 13.227,12.493 13.276 C 12.484 13.326,12.448 13.395,12.413 13.430 L 12.349 13.493 8.007 13.493 C 3.261 13.493,3.591 13.505,3.523 13.341 C 3.501 13.286,3.494 12.534,3.500 10.463 C 3.507 7.702,3.507 7.658,3.560 7.600 C 3.589 7.567,3.637 7.530,3.667 7.518 C 3.696 7.506,5.661 7.499,8.033 7.502 L 12.345 7.507 12.419 7.581 " stroke="none" fill-rule="evenodd" fill="black"></path></svg>