<svg xmlns="http://www.w3.org/2000/svg" width="24" height="24" viewBox="0 0 24 24"><path d="M11.440 1.024 C 9.937 1.207,8.833 1.726,7.837 2.718 C 6.950 3.602,6.384 4.678,6.115 5.988 C 6.037 6.367,6.024 6.578,6.010 7.710 L 5.993 9.000 5.626 9.001 C 5.132 9.002,4.766 9.085,4.362 9.288 C 3.723 9.610,3.261 10.191,3.079 10.904 C 3.003 11.202,3.000 11.364,3.000 15.500 C 3.000 19.636,3.003 19.798,3.079 20.096 C 3.262 20.811,3.732 21.404,4.362 21.715 C 4.975 22.017,4.484 21.999,12.000 21.999 C 19.516 21.999,19.025 22.017,19.638 21.715 C 20.287 21.395,20.789 20.741,20.940 20.020 C 21.027 19.602,21.027 11.398,20.940 10.980 C 20.789 10.260,20.296 9.619,19.638 9.288 C 19.234 9.085,18.868 9.002,18.374 9.001 L 18.007 9.000 17.990 7.710 C 17.976 6.578,17.963 6.367,17.885 5.988 C 17.358 3.418,15.513 1.535,13.095 1.101 C 12.747 1.038,11.717 0.990,11.440 1.024 M12.805 2.579 C 14.668 2.905,16.102 4.410,16.420 6.373 C 16.463 6.636,16.480 7.062,16.480 7.870 L 16.480 9.000 12.000 9.000 L 7.520 9.000 7.520 7.870 C 7.520 7.062,7.537 6.636,7.580 6.373 C 7.896 4.422,9.324 2.915,11.173 2.579 C 11.567 2.508,12.398 2.508,12.805 2.579 M19.022 10.661 C 19.143 10.736,19.264 10.857,19.339 10.978 L 19.460 11.174 19.460 15.500 L 19.460 19.826 19.339 20.023 C 19.202 20.244,18.897 20.454,18.651 20.494 C 18.454 20.527,5.546 20.527,5.349 20.494 C 5.103 20.454,4.798 20.244,4.661 20.023 L 4.540 19.826 4.528 15.583 C 4.520 12.733,4.530 11.293,4.558 11.196 C 4.626 10.960,4.814 10.740,5.045 10.625 L 5.257 10.519 12.042 10.530 L 18.826 10.540 19.022 10.661 " stroke="none" fill-rule="evenodd" fill="black"></path></svg>