<svg xmlns="http://www.w3.org/2000/svg" width="16" height="16" viewBox="0 0 16 16"><path d="M2.485 0.043 C 2.022 0.120,1.549 0.332,1.149 0.641 C -0.217 1.697,-0.391 3.775,0.791 4.911 C 1.028 5.139,1.307 5.287,1.720 5.406 C 1.951 5.473,1.992 5.476,2.819 5.487 L 3.679 5.498 3.624 5.606 C 3.500 5.848,3.071 6.528,2.374 7.587 C 1.380 9.097,1.117 9.528,0.788 10.185 C 0.145 11.469,-0.110 12.602,0.043 13.495 C 0.261 14.765,1.252 15.750,2.522 15.959 C 2.762 15.998,3.285 16.002,8.120 15.994 L 13.453 15.987 13.709 15.916 C 14.383 15.730,14.893 15.406,15.312 14.901 C 15.515 14.657,15.627 14.474,15.750 14.190 C 16.291 12.939,15.911 11.459,14.836 10.634 C 14.577 10.435,14.521 10.414,14.267 10.414 C 14.007 10.414,13.920 10.448,13.740 10.622 C 13.539 10.816,13.470 11.123,13.564 11.399 C 13.609 11.531,13.700 11.634,14.017 11.910 C 14.195 12.066,14.349 12.307,14.431 12.560 C 14.503 12.784,14.508 13.170,14.442 13.400 C 14.286 13.939,13.842 14.351,13.293 14.467 C 13.059 14.516,12.941 14.516,12.707 14.467 C 12.159 14.352,11.718 13.942,11.557 13.400 C 11.453 13.045,11.523 12.403,11.735 11.779 C 12.004 10.984,12.465 10.164,13.637 8.400 C 14.554 7.018,14.902 6.443,15.258 5.720 C 16.267 3.669,16.243 2.079,15.185 0.936 C 14.881 0.608,14.396 0.301,13.938 0.147 C 13.483 -0.005,13.706 -0.000,7.973 0.003 C 3.603 0.005,2.669 0.012,2.485 0.043 M10.317 1.660 C 9.975 2.336,9.907 3.215,10.145 3.888 L 10.184 4.000 6.256 4.000 C 3.710 4.000,2.277 3.990,2.185 3.973 C 1.940 3.926,1.819 3.851,1.703 3.671 C 1.559 3.449,1.509 3.266,1.513 2.973 C 1.519 2.413,1.828 1.914,2.327 1.663 C 2.671 1.490,2.469 1.498,6.620 1.495 L 10.401 1.493 10.317 1.660 M13.314 1.533 C 13.860 1.648,14.325 2.100,14.455 2.640 C 14.474 2.721,14.488 2.913,14.487 3.067 C 14.481 3.634,14.301 4.252,13.908 5.053 C 13.592 5.698,13.286 6.204,12.401 7.547 C 11.340 9.157,11.068 9.608,10.704 10.360 C 9.935 11.950,9.799 13.248,10.293 14.287 L 10.398 14.507 6.645 14.506 C 3.448 14.506,2.866 14.500,2.707 14.467 C 2.156 14.351,1.717 13.943,1.558 13.400 C 1.493 13.176,1.499 12.710,1.572 12.361 C 1.655 11.962,1.820 11.503,2.050 11.027 C 2.396 10.313,2.639 9.911,3.681 8.333 C 4.452 7.165,4.885 6.455,5.176 5.882 L 5.373 5.494 8.630 5.494 C 12.183 5.493,12.000 5.501,12.208 5.343 C 12.332 5.248,12.444 5.063,12.483 4.890 C 12.549 4.595,12.423 4.319,12.123 4.099 C 11.652 3.753,11.447 3.313,11.520 2.802 C 11.644 1.928,12.459 1.351,13.314 1.533 M5.600 7.518 C 4.900 7.663,4.789 8.608,5.435 8.926 L 5.587 9.000 7.747 9.000 L 9.907 9.000 10.046 8.937 C 10.203 8.866,10.376 8.694,10.443 8.542 C 10.509 8.390,10.506 8.097,10.436 7.947 C 10.366 7.796,10.215 7.646,10.056 7.567 L 9.933 7.507 7.813 7.503 C 6.647 7.500,5.651 7.507,5.600 7.518 M3.786 10.531 C 3.663 10.569,3.561 10.635,3.463 10.738 C 3.328 10.880,3.275 10.997,3.260 11.188 C 3.241 11.428,3.306 11.603,3.480 11.777 C 3.714 12.011,3.591 12.000,6.000 12.000 C 8.409 12.000,8.286 12.011,8.520 11.777 C 8.694 11.603,8.759 11.428,8.740 11.189 C 8.725 10.995,8.655 10.849,8.516 10.716 C 8.293 10.505,8.490 10.521,6.040 10.515 C 4.837 10.513,3.823 10.520,3.786 10.531 " stroke="none" fill-rule="evenodd" fill="black"></path></svg>