<svg xmlns="http://www.w3.org/2000/svg" width="25" height="16" viewBox="0 0 25 16"><path d="M3.929 2.043 C 1.577 2.341,0.308 3.959,0.038 7.008 C -0.023 7.693,0.012 9.101,0.104 9.708 C 0.470 12.106,1.535 13.487,3.350 13.918 C 4.549 14.203,6.773 14.023,7.911 13.550 L 8.188 13.435 8.198 10.593 L 8.209 7.750 6.459 7.750 L 4.708 7.750 4.708 8.250 L 4.708 8.750 5.917 8.750 L 7.125 8.750 7.125 10.763 L 7.125 12.776 6.906 12.845 C 6.474 12.980,5.933 13.048,5.103 13.072 C 4.414 13.091,4.208 13.082,3.916 13.023 C 2.450 12.728,1.602 11.643,1.262 9.631 C 1.203 9.279,1.188 8.952,1.188 8.042 C 1.188 7.132,1.203 6.805,1.262 6.452 C 1.475 5.189,1.897 4.277,2.531 3.709 C 2.833 3.438,3.417 3.151,3.842 3.065 C 4.260 2.980,5.210 2.980,5.778 3.065 C 6.368 3.152,7.022 3.349,7.845 3.688 C 7.914 3.716,7.918 3.682,7.908 3.182 L 7.896 2.647 7.582 2.512 C 7.191 2.345,6.605 2.187,6.062 2.104 C 5.554 2.025,4.339 1.991,3.929 2.043 M10.229 3.028 C 10.036 3.130,9.953 3.215,9.870 3.396 C 9.639 3.898,9.957 4.453,10.497 4.492 C 10.865 4.518,11.132 4.359,11.269 4.031 C 11.388 3.747,11.309 3.345,11.098 3.158 C 10.881 2.965,10.465 2.903,10.229 3.028 M21.292 3.750 L 20.771 3.899 20.750 4.959 L 20.729 6.020 19.979 6.231 L 19.229 6.442 19.217 6.679 L 19.204 6.917 19.977 6.917 L 20.750 6.917 20.751 9.531 C 20.751 11.616,20.763 12.202,20.810 12.422 C 20.961 13.134,21.434 13.644,22.174 13.892 C 22.533 14.013,23.181 14.081,23.625 14.046 L 23.938 14.021 23.949 13.572 L 23.961 13.123 23.637 13.150 C 23.451 13.165,23.180 13.156,23.002 13.128 C 22.436 13.040,22.131 12.841,21.951 12.442 L 21.854 12.229 21.842 9.594 L 21.830 6.958 23.040 6.958 L 24.250 6.958 24.250 6.521 L 24.250 6.083 23.042 6.083 L 21.835 6.083 21.824 4.842 L 21.813 3.601 21.292 3.750 M14.932 6.017 C 13.685 6.255,12.969 6.987,12.889 8.104 C 12.845 8.729,13.018 9.251,13.382 9.594 C 13.789 9.976,14.429 10.190,15.583 10.332 C 16.543 10.450,16.784 10.529,17.095 10.827 C 17.283 11.007,17.375 11.277,17.375 11.649 C 17.375 12.380,16.944 12.842,16.094 13.022 C 15.480 13.152,14.141 13.069,13.400 12.854 C 13.202 12.797,13.031 12.750,13.019 12.750 C 13.007 12.750,13.003 12.959,13.009 13.215 L 13.021 13.679 13.188 13.737 C 13.279 13.769,13.579 13.840,13.854 13.896 C 15.794 14.286,17.402 13.940,18.056 12.992 C 18.307 12.627,18.422 12.261,18.446 11.750 C 18.493 10.773,18.163 10.163,17.396 9.808 C 17.003 9.627,16.547 9.521,15.813 9.439 C 14.807 9.328,14.446 9.227,14.171 8.978 C 13.964 8.791,13.900 8.568,13.925 8.115 C 13.954 7.583,14.130 7.314,14.583 7.109 C 15.193 6.834,16.666 6.862,17.713 7.169 C 17.864 7.214,18.001 7.250,18.016 7.250 C 18.032 7.250,18.039 7.040,18.033 6.783 L 18.021 6.316 17.750 6.224 C 17.222 6.044,16.885 5.995,16.042 5.978 C 15.465 5.965,15.143 5.977,14.932 6.017 M10.042 9.385 C 10.043 12.964,10.046 13.016,10.271 13.400 C 10.509 13.805,10.872 13.991,11.552 14.055 L 11.750 14.073 11.750 13.620 L 11.750 13.167 11.644 13.167 C 11.477 13.167,11.263 13.059,11.180 12.932 C 11.108 12.823,11.104 12.629,11.093 9.450 L 11.081 6.083 10.561 6.083 L 10.042 6.083 10.042 9.385 " stroke="none" fill-rule="evenodd" fill="black"></path></svg>