<svg xmlns="http://www.w3.org/2000/svg" width="45" height="16" viewBox="0 0 45 16"><path d="M3.712 2.136 C 1.380 2.648,0.252 4.318,0.038 7.575 C -0.018 8.435,0.097 9.745,0.297 10.506 C 0.783 12.365,1.793 13.404,3.585 13.890 C 4.457 14.126,6.248 14.127,7.113 13.891 C 7.821 13.698,8.616 13.357,8.757 13.185 C 8.830 13.096,8.847 12.414,8.832 10.154 L 8.813 7.237 6.769 7.218 L 4.725 7.198 4.725 8.241 C 4.725 9.123,4.743 9.291,4.844 9.329 C 4.909 9.355,5.280 9.375,5.669 9.375 L 6.375 9.375 6.375 10.502 C 6.375 11.506,6.361 11.635,6.244 11.682 C 6.172 11.711,5.741 11.735,5.287 11.735 C 4.582 11.735,4.405 11.710,4.069 11.559 C 3.399 11.257,2.959 10.649,2.723 9.695 C 2.546 8.984,2.545 7.118,2.720 6.469 C 2.958 5.589,3.401 4.948,3.977 4.651 C 4.633 4.312,6.332 4.255,7.335 4.539 C 7.639 4.624,7.834 4.646,7.880 4.600 C 7.940 4.540,8.092 3.973,8.363 2.796 C 8.460 2.375,6.986 2.022,5.175 2.032 C 4.618 2.034,3.960 2.081,3.712 2.136 M19.685 2.494 C 19.665 2.545,19.657 5.119,19.668 8.213 L 19.688 13.838 20.802 13.858 C 21.561 13.872,21.950 13.852,22.021 13.793 C 22.106 13.723,22.125 13.262,22.125 11.316 L 22.125 8.925 23.738 8.925 L 25.350 8.925 25.350 11.316 C 25.350 13.262,25.369 13.723,25.454 13.793 C 25.525 13.852,25.914 13.872,26.673 13.858 L 27.787 13.838 27.807 8.180 C 27.822 3.703,27.806 2.509,27.732 2.462 C 27.680 2.429,27.158 2.402,26.571 2.401 C 25.593 2.400,25.499 2.412,25.428 2.545 C 25.380 2.635,25.350 3.453,25.350 4.683 L 25.350 6.675 23.738 6.675 L 22.125 6.675 22.125 4.627 C 22.125 3.135,22.101 2.556,22.035 2.490 C 21.905 2.360,19.734 2.364,19.685 2.494 M37.241 2.494 C 37.225 2.545,37.195 5.077,37.175 8.120 C 37.142 12.951,37.152 13.666,37.249 13.763 C 37.333 13.847,37.543 13.875,38.087 13.874 C 38.486 13.873,38.850 13.848,38.897 13.818 C 38.943 13.787,39.005 13.654,39.033 13.521 L 39.086 13.280 39.367 13.466 C 40.052 13.919,41.267 14.167,42.142 14.031 C 43.814 13.772,44.509 12.670,44.604 10.125 C 44.691 7.798,44.065 6.403,42.733 5.955 C 41.964 5.697,40.810 5.816,39.806 6.258 C 39.683 6.312,39.675 6.200,39.675 4.477 C 39.675 3.465,39.655 2.584,39.629 2.519 C 39.591 2.418,39.413 2.400,38.427 2.400 C 37.567 2.400,37.263 2.424,37.241 2.494 M10.540 2.871 C 9.835 3.270,9.623 4.145,10.071 4.803 C 10.351 5.215,10.601 5.353,11.120 5.381 C 11.711 5.413,12.103 5.210,12.365 4.736 C 13.029 3.531,11.726 2.199,10.540 2.871 M14.527 3.873 C 14.498 3.902,14.475 4.423,14.475 5.032 L 14.475 6.139 13.856 6.278 L 13.237 6.417 13.237 7.240 L 13.237 8.063 13.856 8.084 L 14.475 8.106 14.475 10.000 C 14.475 12.062,14.539 12.533,14.892 13.069 C 15.140 13.445,15.610 13.776,16.120 13.931 C 16.639 14.090,17.901 14.096,18.337 13.942 L 18.637 13.837 18.637 12.937 L 18.637 12.037 18.282 12.063 C 17.745 12.101,17.356 12.011,17.142 11.796 L 16.950 11.605 16.950 9.855 L 16.950 8.105 17.794 8.084 L 18.637 8.063 18.637 7.087 L 18.637 6.112 17.796 6.091 L 16.954 6.070 16.933 4.966 L 16.912 3.862 15.746 3.842 C 15.104 3.831,14.555 3.845,14.527 3.873 M9.975 9.883 C 9.975 12.748,9.997 13.717,10.065 13.785 C 10.201 13.921,12.253 13.910,12.367 13.773 C 12.428 13.699,12.446 12.620,12.432 9.891 L 12.412 6.112 11.194 6.092 L 9.975 6.071 9.975 9.883 M28.921 6.194 C 28.845 6.390,28.872 11.397,28.952 11.963 C 29.145 13.341,29.901 13.967,31.501 14.076 C 32.356 14.135,33.424 13.864,34.278 13.371 C 34.300 13.359,34.351 13.458,34.390 13.593 L 34.462 13.838 35.250 13.838 L 36.038 13.838 36.091 10.125 C 36.121 8.083,36.129 6.337,36.109 6.244 C 36.073 6.077,36.056 6.075,34.874 6.075 L 33.675 6.075 33.675 8.890 L 33.675 11.705 33.319 11.859 C 32.859 12.058,32.271 12.118,31.922 12.003 C 31.432 11.841,31.425 11.799,31.425 8.897 C 31.425 7.476,31.405 6.259,31.379 6.194 C 31.311 6.016,28.989 6.016,28.921 6.194 M41.550 7.999 C 42.052 8.296,42.261 9.213,42.143 10.610 C 42.072 11.444,41.939 11.744,41.547 11.948 C 41.211 12.125,40.452 12.085,39.955 11.865 L 39.600 11.708 39.600 9.953 L 39.600 8.198 39.881 8.079 C 40.316 7.895,40.356 7.887,40.863 7.881 C 41.181 7.877,41.409 7.916,41.550 7.999 " stroke="none" fill-rule="evenodd" fill="black"></path></svg>