<svg xmlns="http://www.w3.org/2000/svg" width="16" height="16" viewBox="0 0 16 16"><path d="M1.442 2.029 C 0.747 2.166,0.223 2.663,0.053 3.347 C 0.000 3.558,-0.001 3.636,0.006 8.081 L 0.013 12.600 0.085 12.796 C 0.281 13.333,0.686 13.736,1.208 13.912 L 1.427 13.987 8.000 13.987 L 14.573 13.987 14.789 13.914 C 15.029 13.832,15.287 13.678,15.463 13.511 C 15.636 13.347,15.830 13.036,15.913 12.790 L 15.987 12.573 15.987 8.000 L 15.987 3.427 15.913 3.210 C 15.733 2.680,15.320 2.267,14.789 2.086 L 14.573 2.013 8.067 2.009 C 4.437 2.007,1.508 2.016,1.442 2.029 M14.419 3.580 C 14.485 3.646,14.494 3.677,14.502 3.860 L 14.511 4.067 11.279 5.960 C 9.502 7.001,8.026 7.853,8.000 7.853 C 7.973 7.853,6.497 7.001,4.720 5.960 L 1.489 4.067 1.498 3.863 C 1.507 3.649,1.547 3.568,1.667 3.518 C 1.696 3.506,4.561 3.499,8.033 3.502 L 14.345 3.507 14.419 3.580 M4.680 7.675 C 6.293 8.621,7.661 9.417,7.720 9.443 C 7.788 9.475,7.889 9.492,8.000 9.492 C 8.111 9.492,8.212 9.475,8.280 9.443 C 8.339 9.417,9.707 8.621,11.320 7.675 C 12.933 6.729,14.310 5.922,14.380 5.882 L 14.507 5.808 14.500 9.079 L 14.493 12.351 14.406 12.429 L 14.319 12.507 8.000 12.507 L 1.681 12.507 1.594 12.429 L 1.507 12.351 1.500 9.079 L 1.493 5.808 1.620 5.882 C 1.690 5.922,3.067 6.729,4.680 7.675 " stroke="none" fill-rule="evenodd" fill="black"></path></svg>