<svg xmlns="http://www.w3.org/2000/svg" width="24" height="24" viewBox="0 0 24 24"><path d="M1.340 3.056 C 0.704 3.214,0.188 3.735,0.042 4.364 C 0.016 4.479,0.002 7.031,0.001 11.742 C -0.000 19.514,-0.010 19.149,0.204 19.567 C 0.388 19.929,0.812 20.280,1.240 20.425 C 1.453 20.497,1.817 20.500,12.000 20.500 C 22.183 20.500,22.547 20.497,22.760 20.425 C 23.188 20.280,23.612 19.929,23.796 19.567 C 24.010 19.149,24.000 19.514,23.999 11.742 C 23.998 7.031,23.984 4.479,23.958 4.364 C 23.809 3.719,23.261 3.184,22.608 3.045 C 22.287 2.977,1.616 2.988,1.340 3.056 M22.432 4.568 C 22.464 4.600,22.480 4.780,22.479 5.118 L 22.479 5.620 17.282 9.130 C 14.404 11.074,12.047 12.640,12.000 12.640 C 11.953 12.640,9.596 11.074,6.718 9.130 L 1.521 5.620 1.521 5.118 C 1.520 4.780,1.536 4.600,1.568 4.568 C 1.638 4.498,22.362 4.498,22.432 4.568 M6.360 10.699 C 11.617 14.253,11.426 14.136,12.000 14.136 C 12.575 14.136,12.383 14.253,17.640 10.699 L 22.460 7.441 22.470 13.147 C 22.479 18.414,22.475 18.859,22.414 18.927 C 22.350 18.997,21.982 19.000,12.007 19.000 C 2.441 19.000,1.661 18.995,1.593 18.934 C 1.523 18.870,1.520 18.638,1.520 13.154 C 1.520 10.011,1.524 7.440,1.530 7.440 C 1.536 7.440,3.709 8.907,6.360 10.699 " stroke="none" fill-rule="evenodd" fill="black"></path></svg>