<svg xmlns="http://www.w3.org/2000/svg" width="16" height="16" viewBox="0 0 16 16"><path d="M7.335 0.028 C 5.044 0.232,2.979 1.372,1.614 3.187 C 0.794 4.276,0.293 5.480,0.076 6.880 C 0.025 7.210,0.017 7.373,0.017 8.000 C 0.017 8.811,0.056 9.175,0.215 9.840 C 0.823 12.387,2.615 14.463,5.040 15.429 C 5.590 15.649,5.798 15.649,5.958 15.431 C 6.011 15.360,6.014 15.317,6.021 14.541 L 6.030 13.726 5.901 13.743 C 4.798 13.897,4.112 13.766,3.664 13.319 C 3.523 13.177,3.469 13.094,3.323 12.789 C 3.027 12.175,2.784 11.842,2.487 11.647 C 2.176 11.442,2.052 11.246,2.187 11.173 C 2.216 11.158,2.315 11.138,2.407 11.129 C 2.875 11.085,3.331 11.371,3.729 11.955 C 4.161 12.590,4.571 12.819,5.227 12.793 C 5.476 12.783,5.581 12.765,5.787 12.698 L 6.040 12.615 6.096 12.381 C 6.166 12.089,6.297 11.818,6.449 11.649 L 6.565 11.520 6.489 11.520 C 6.357 11.520,5.825 11.419,5.511 11.336 C 3.995 10.931,3.183 9.982,2.971 8.365 C 2.906 7.873,2.930 7.115,3.020 6.771 C 3.142 6.309,3.368 5.859,3.624 5.569 L 3.734 5.444 3.681 5.249 C 3.533 4.704,3.557 4.089,3.750 3.510 L 3.820 3.300 4.090 3.313 C 4.308 3.323,4.415 3.344,4.648 3.422 C 4.967 3.530,5.437 3.760,5.790 3.983 L 6.021 4.127 6.284 4.064 C 6.971 3.897,7.948 3.826,8.668 3.892 C 9.029 3.925,9.596 4.019,9.866 4.092 L 10.011 4.131 10.226 3.995 C 10.579 3.769,11.062 3.529,11.373 3.424 C 11.635 3.335,11.697 3.324,11.946 3.322 L 12.225 3.320 12.296 3.533 C 12.455 4.011,12.496 4.605,12.402 5.053 C 12.374 5.185,12.340 5.323,12.326 5.360 C 12.304 5.417,12.314 5.444,12.399 5.547 C 12.971 6.241,13.185 7.023,13.096 8.093 C 13.006 9.167,12.688 9.933,12.098 10.499 C 11.730 10.851,11.334 11.079,10.767 11.265 C 10.480 11.359,9.947 11.476,9.660 11.508 C 9.568 11.518,9.493 11.532,9.493 11.539 C 9.493 11.546,9.542 11.607,9.602 11.675 C 9.753 11.847,9.889 12.144,9.949 12.434 C 9.994 12.656,9.999 12.807,10.000 13.987 C 10.000 15.177,10.004 15.302,10.047 15.386 C 10.114 15.520,10.247 15.600,10.403 15.600 C 10.694 15.600,11.750 15.115,12.394 14.685 C 12.896 14.350,13.231 14.076,13.641 13.667 C 15.600 11.710,16.406 8.931,15.800 6.227 C 15.220 3.642,13.342 1.477,10.860 0.531 C 10.270 0.306,9.659 0.153,9.000 0.066 C 8.611 0.015,7.716 -0.006,7.335 0.028 " stroke="none" fill-rule="evenodd" fill="black"></path></svg>