<svg xmlns="http://www.w3.org/2000/svg" width="16" height="16" viewBox="0 0 16 16"><path d="M0.775 3.067 C 0.476 3.175,0.257 3.377,0.110 3.680 L 0.013 3.880 0.006 7.933 C -0.001 11.905,0.000 11.990,0.052 12.160 C 0.187 12.606,0.544 12.916,1.002 12.986 C 1.130 13.006,3.320 13.012,8.120 13.007 L 15.053 13.000 15.203 12.943 C 15.613 12.786,15.881 12.477,15.970 12.059 C 16.010 11.872,16.013 4.156,15.973 3.944 C 15.909 3.600,15.663 3.279,15.337 3.115 L 15.160 3.027 8.040 3.021 C 1.028 3.015,0.918 3.016,0.775 3.067 M4.747 6.000 C 5.150 6.541,5.488 6.985,5.497 6.986 C 5.506 6.986,5.847 6.543,6.253 6.000 L 6.993 5.013 7.990 5.013 L 8.987 5.013 8.987 8.013 L 8.987 11.013 8.000 11.013 L 7.013 11.013 7.013 9.520 C 7.013 8.699,7.004 8.027,6.993 8.028 C 6.982 8.028,6.715 8.360,6.400 8.765 C 6.085 9.170,5.753 9.595,5.664 9.710 L 5.500 9.919 4.757 8.968 L 4.013 8.016 4.006 9.515 L 4.000 11.013 3.000 11.013 L 2.000 11.013 2.000 8.013 L 2.000 5.013 3.007 5.014 L 4.013 5.016 4.747 6.000 M12.987 6.507 L 12.987 8.000 13.733 8.000 C 14.144 8.000,14.480 8.006,14.480 8.013 C 14.480 8.053,11.989 11.492,11.973 11.475 C 11.928 11.424,9.520 8.027,9.520 8.014 C 9.520 8.006,9.856 8.000,10.267 8.000 L 11.013 8.000 11.013 6.507 L 11.013 5.013 12.000 5.013 L 12.987 5.013 12.987 6.507 " stroke="none" fill-rule="evenodd" fill="black"></path></svg>