<svg xmlns="http://www.w3.org/2000/svg" width="24" height="24" viewBox="0 0 24 24"><path d="M20.793 1.162 C 18.994 2.154,16.637 2.886,14.120 3.235 C 12.559 3.452,11.901 3.485,8.600 3.518 L 5.620 3.547 5.156 3.669 C 3.297 4.159,1.866 5.487,1.285 7.262 C 0.408 9.938,1.632 12.787,4.170 13.979 C 4.374 14.074,4.644 14.184,4.770 14.224 L 5.000 14.295 5.001 14.897 C 5.003 16.857,5.371 19.224,5.961 21.060 C 6.122 21.563,6.203 21.722,6.413 21.950 C 6.614 22.168,6.815 22.300,7.116 22.411 C 7.317 22.485,7.453 22.495,8.431 22.511 C 9.094 22.521,9.651 22.510,9.851 22.484 C 10.515 22.396,11.018 22.028,11.308 21.417 C 11.435 21.148,11.455 21.066,11.471 20.723 C 11.489 20.350,11.482 20.308,11.306 19.717 C 10.832 18.128,10.576 16.627,10.532 15.177 L 10.508 14.414 10.984 14.428 C 13.049 14.487,14.878 14.736,16.680 15.205 C 18.113 15.577,19.650 16.177,20.531 16.708 C 20.875 16.915,21.181 17.012,21.391 16.980 C 21.595 16.950,21.861 16.735,21.946 16.531 C 21.991 16.425,22.000 15.117,22.000 9.004 C 22.000 3.874,21.987 1.571,21.957 1.493 C 21.860 1.233,21.520 1.003,21.233 1.001 C 21.136 1.000,20.988 1.054,20.793 1.162 M20.466 14.947 C 20.458 14.955,20.327 14.906,20.176 14.837 C 18.579 14.113,16.405 13.504,14.340 13.204 C 13.330 13.057,11.660 12.921,10.850 12.920 L 10.520 12.920 10.520 8.966 L 10.520 5.012 11.270 4.985 C 14.537 4.864,17.527 4.256,20.011 3.207 L 20.460 3.018 20.470 8.975 C 20.476 12.252,20.474 14.940,20.466 14.947 M9.000 9.000 L 9.000 13.000 7.585 13.000 C 6.066 13.000,5.765 12.973,5.220 12.787 C 4.645 12.591,4.211 12.324,3.745 11.880 C 3.223 11.383,2.873 10.811,2.655 10.098 C 2.552 9.763,2.545 9.693,2.545 9.000 C 2.545 8.307,2.552 8.237,2.655 7.902 C 2.870 7.201,3.220 6.623,3.726 6.137 C 4.185 5.696,4.602 5.437,5.200 5.222 C 5.708 5.039,6.051 5.008,7.590 5.004 L 9.000 5.000 9.000 9.000 M9.014 15.190 C 9.077 16.757,9.352 18.396,9.821 19.985 C 10.018 20.655,10.022 20.742,9.860 20.903 L 9.764 21.000 8.663 21.000 C 7.374 21.000,7.520 21.066,7.327 20.400 C 6.811 18.627,6.521 16.729,6.520 15.130 L 6.520 14.520 7.754 14.520 L 8.987 14.520 9.014 15.190 " stroke="none" fill-rule="evenodd" fill="black"></path></svg>