<svg xmlns="http://www.w3.org/2000/svg" width="16" height="16" viewBox="0 0 16 16"><path d="M15.030 0.038 C 14.973 0.059,14.829 0.135,14.710 0.207 C 14.353 0.424,14.165 0.521,13.773 0.695 C 12.498 1.260,11.007 1.648,9.333 1.852 C 8.403 1.965,8.056 1.980,5.760 2.000 C 3.327 2.021,3.379 2.018,2.840 2.174 C 2.540 2.260,2.076 2.481,1.783 2.676 C 0.898 3.268,0.314 4.137,0.074 5.220 C -0.010 5.597,-0.010 6.403,0.074 6.780 C 0.355 8.050,1.131 9.050,2.262 9.599 L 2.507 9.718 2.507 10.079 C 2.508 11.207,2.713 12.714,3.027 13.907 C 3.169 14.444,3.340 14.977,3.421 15.133 C 3.539 15.360,3.882 15.696,4.111 15.807 C 4.468 15.982,4.602 16.000,5.560 16.000 C 6.329 16.000,6.440 15.994,6.629 15.947 C 6.976 15.859,7.207 15.727,7.468 15.467 C 7.834 15.102,8.019 14.682,8.045 14.160 C 8.058 13.904,8.051 13.846,7.964 13.480 C 7.686 12.321,7.547 11.318,7.513 10.247 L 7.506 10.027 7.706 10.027 C 8.143 10.027,9.165 10.121,9.907 10.230 C 11.749 10.500,13.559 11.088,14.694 11.786 C 14.982 11.963,15.142 12.014,15.333 11.992 C 15.587 11.962,15.801 11.810,15.924 11.573 L 15.987 11.453 15.987 6.000 L 15.987 0.547 15.921 0.418 C 15.800 0.182,15.572 0.033,15.299 0.012 C 15.191 0.003,15.097 0.012,15.030 0.038 M14.507 6.003 C 14.507 9.778,14.504 9.979,14.460 9.965 C 14.434 9.957,14.240 9.877,14.027 9.787 C 13.035 9.366,11.645 8.986,10.333 8.777 C 9.585 8.657,8.342 8.534,7.880 8.533 C 7.777 8.533,7.648 8.525,7.593 8.516 L 7.493 8.500 7.493 5.997 L 7.493 3.493 7.561 3.493 C 7.751 3.493,8.610 3.432,9.080 3.385 C 10.991 3.195,12.767 2.765,14.199 2.145 C 14.346 2.081,14.476 2.029,14.487 2.028 C 14.498 2.027,14.507 3.816,14.507 6.003 M6.000 6.000 L 6.000 8.507 4.935 8.507 C 4.335 8.507,3.780 8.494,3.662 8.478 C 3.373 8.439,2.974 8.298,2.715 8.143 C 2.480 8.003,2.091 7.643,1.953 7.438 C 1.801 7.213,1.650 6.879,1.582 6.619 C 1.485 6.248,1.485 5.752,1.582 5.381 C 1.703 4.919,1.957 4.489,2.294 4.177 C 2.685 3.815,3.187 3.581,3.703 3.521 C 3.800 3.510,4.357 3.499,4.940 3.497 L 6.000 3.493 6.000 6.000 M6.022 10.580 C 6.082 11.700,6.229 12.700,6.493 13.793 C 6.574 14.129,6.560 14.235,6.414 14.395 L 6.324 14.493 5.635 14.502 C 5.257 14.506,4.907 14.502,4.858 14.493 C 4.749 14.473,4.733 14.437,4.574 13.883 C 4.280 12.856,4.096 11.740,4.027 10.573 C 4.012 10.324,4.000 10.093,4.000 10.060 L 4.000 10.000 4.995 10.000 L 5.990 10.000 6.022 10.580 " stroke="none" fill-rule="evenodd" fill="black"></path></svg>