<svg xmlns="http://www.w3.org/2000/svg" width="16" height="16" viewBox="0 0 16 16"><path d="M7.293 0.030 C 6.200 0.132,5.086 0.472,4.147 0.992 C 3.480 1.361,2.883 1.810,2.347 2.347 C -0.039 4.732,-0.668 8.325,0.761 11.403 C 1.598 13.207,3.202 14.711,5.060 15.435 C 5.678 15.676,6.206 15.816,6.907 15.923 C 7.223 15.971,7.414 15.982,7.960 15.984 C 8.687 15.987,8.959 15.962,9.575 15.840 C 10.275 15.700,10.878 15.493,11.564 15.157 C 12.199 14.845,12.333 14.695,12.333 14.293 C 12.333 14.029,12.284 13.910,12.110 13.753 C 11.933 13.593,11.852 13.561,11.613 13.561 L 11.400 13.560 10.933 13.792 C 10.252 14.132,9.625 14.331,8.880 14.444 C 8.455 14.509,7.545 14.509,7.120 14.444 C 5.628 14.216,4.340 13.560,3.330 12.512 C 2.360 11.506,1.767 10.286,1.557 8.861 C 1.504 8.503,1.496 7.612,1.544 7.240 C 1.691 6.079,2.138 4.975,2.835 4.053 C 3.084 3.724,3.573 3.221,3.896 2.960 C 6.551 0.823,10.348 1.063,12.699 3.517 C 13.659 4.519,14.257 5.777,14.454 7.213 C 14.498 7.536,14.520 9.171,14.483 9.413 C 14.400 9.962,13.976 10.395,13.433 10.485 C 12.976 10.561,12.481 10.342,12.218 9.947 C 12.024 9.657,12.020 9.631,11.998 8.493 C 11.977 7.384,11.959 7.231,11.790 6.724 C 11.399 5.560,10.442 4.600,9.285 4.214 C 8.825 4.060,8.543 4.017,8.000 4.017 C 7.452 4.017,7.166 4.062,6.707 4.218 C 5.155 4.747,4.081 6.179,4.009 7.816 C 3.938 9.401,4.794 10.863,6.200 11.560 C 6.764 11.840,7.231 11.964,7.829 11.991 C 8.911 12.042,9.948 11.652,10.766 10.887 L 10.933 10.732 11.030 10.873 C 11.174 11.082,11.589 11.463,11.830 11.607 C 12.380 11.936,13.090 12.069,13.710 11.961 C 14.778 11.774,15.605 11.016,15.910 9.944 C 15.981 9.696,15.982 9.681,15.993 8.693 C 16.006 7.609,15.985 7.242,15.879 6.627 C 15.387 3.772,13.371 1.401,10.622 0.445 C 9.587 0.085,8.352 -0.069,7.293 0.030 M8.632 5.588 C 8.881 5.650,9.216 5.803,9.438 5.954 C 9.595 6.060,9.940 6.405,10.046 6.562 C 10.198 6.784,10.350 7.119,10.418 7.381 C 10.515 7.752,10.515 8.248,10.418 8.619 C 10.350 8.879,10.199 9.213,10.047 9.438 C 9.909 9.643,9.520 10.003,9.285 10.143 C 8.997 10.316,8.615 10.444,8.272 10.485 C 7.751 10.546,7.178 10.420,6.715 10.143 C 6.480 10.003,6.091 9.643,5.953 9.438 C 5.801 9.213,5.650 8.879,5.582 8.619 C 5.485 8.248,5.485 7.752,5.582 7.381 C 5.886 6.218,6.940 5.446,8.133 5.512 C 8.273 5.519,8.497 5.553,8.632 5.588 " stroke="none" fill-rule="evenodd" fill="black"></path></svg>