<svg xmlns="http://www.w3.org/2000/svg" width="24" height="24" viewBox="0 0 24 24"><path d="M11.040 1.041 C 7.530 1.371,4.408 3.317,2.595 6.303 C 1.209 8.586,0.698 11.364,1.181 13.983 C 1.290 14.572,1.486 15.283,1.701 15.867 C 2.071 16.873,2.845 18.200,3.551 19.040 C 6.575 22.639,11.451 23.929,15.867 22.298 C 16.485 22.070,17.470 21.570,17.644 21.396 C 18.115 20.925,17.789 20.139,17.124 20.143 C 16.930 20.144,16.845 20.174,16.480 20.370 C 15.476 20.909,14.386 21.261,13.220 21.424 C 12.645 21.504,11.515 21.513,10.940 21.443 C 9.131 21.222,7.388 20.486,5.980 19.348 C 5.537 18.990,4.800 18.220,4.431 17.729 C 3.390 16.346,2.733 14.676,2.556 12.965 C 2.488 12.303,2.529 11.030,2.640 10.400 C 2.974 8.496,3.845 6.783,5.179 5.405 C 6.701 3.834,8.638 2.866,10.840 2.577 C 11.542 2.485,12.898 2.516,13.600 2.640 C 15.509 2.976,17.229 3.851,18.595 5.178 C 20.172 6.711,21.138 8.643,21.421 10.832 C 21.471 11.222,21.482 11.626,21.472 12.792 L 21.460 14.260 21.312 14.571 C 21.069 15.079,20.655 15.457,20.137 15.646 C 19.803 15.767,19.197 15.767,18.863 15.646 C 18.345 15.457,17.931 15.079,17.688 14.571 L 17.540 14.260 17.515 12.840 C 17.497 11.783,17.474 11.330,17.425 11.070 C 17.044 9.029,15.652 7.424,13.706 6.781 C 13.148 6.596,12.649 6.520,12.000 6.520 C 11.351 6.520,10.852 6.596,10.294 6.781 C 8.338 7.428,6.939 9.047,6.578 11.083 C 6.490 11.578,6.490 12.421,6.578 12.920 C 7.013 15.396,9.021 17.242,11.536 17.478 C 13.207 17.635,15.063 16.891,16.105 15.647 C 16.234 15.493,16.352 15.365,16.367 15.363 C 16.382 15.361,16.453 15.463,16.526 15.590 C 16.699 15.893,17.227 16.439,17.563 16.662 C 18.134 17.041,18.788 17.240,19.467 17.240 C 20.426 17.240,21.217 16.929,21.891 16.285 C 22.348 15.848,22.623 15.420,22.824 14.829 C 22.988 14.347,23.009 14.034,22.989 12.434 C 22.973 11.160,22.958 10.858,22.884 10.385 C 22.728 9.394,22.434 8.393,22.040 7.512 C 21.207 5.651,19.819 4.003,18.140 2.881 C 16.741 1.946,15.240 1.369,13.560 1.119 C 12.936 1.026,11.629 0.985,11.040 1.041 M12.958 8.120 C 13.621 8.282,14.329 8.683,14.823 9.177 C 15.321 9.675,15.716 10.376,15.887 11.062 C 16.013 11.571,16.013 12.429,15.887 12.938 C 15.531 14.369,14.434 15.486,13.005 15.871 C 12.669 15.962,12.542 15.975,12.000 15.975 C 11.458 15.975,11.331 15.962,10.995 15.871 C 10.054 15.617,9.240 15.046,8.712 14.269 C 8.471 13.913,8.214 13.341,8.113 12.938 C 7.987 12.429,7.987 11.571,8.113 11.062 C 8.215 10.654,8.470 10.088,8.722 9.715 C 9.304 8.853,10.337 8.215,11.433 8.040 C 11.783 7.984,12.572 8.026,12.958 8.120 " stroke="none" fill-rule="evenodd" fill="black"></path></svg>