<svg xmlns="http://www.w3.org/2000/svg" width="16" height="16" viewBox="0 0 16 16"><path d="M7.293 0.030 C 6.199 0.132,5.059 0.481,4.123 1.003 C 1.986 2.193,0.504 4.295,0.110 6.693 C -0.255 8.914,0.338 11.215,1.719 12.945 C 3.322 14.954,5.726 16.077,8.240 15.991 C 10.303 15.921,12.191 15.109,13.639 13.667 C 14.995 12.316,15.798 10.596,15.976 8.656 C 16.033 8.035,15.983 7.136,15.854 6.463 C 15.749 5.916,15.465 5.042,15.323 4.832 C 14.992 4.341,14.248 4.421,14.014 4.973 C 13.929 5.175,13.948 5.328,14.127 5.853 C 14.393 6.634,14.487 7.193,14.487 8.000 C 14.487 9.231,14.184 10.328,13.558 11.364 C 12.009 13.927,8.901 15.098,6.046 14.196 C 5.026 13.873,4.196 13.368,3.425 12.600 C 1.795 10.978,1.148 8.667,1.697 6.429 C 2.098 4.792,3.195 3.310,4.653 2.434 C 5.699 1.806,6.780 1.511,8.027 1.514 C 8.839 1.516,9.482 1.629,10.253 1.908 C 10.524 2.005,10.635 2.033,10.760 2.032 C 11.049 2.031,11.280 1.886,11.412 1.621 C 11.581 1.282,11.480 0.880,11.173 0.677 C 10.953 0.531,10.184 0.282,9.568 0.158 C 8.846 0.012,7.994 -0.036,7.293 0.030 M13.600 1.518 C 13.549 1.528,13.465 1.558,13.413 1.584 C 13.362 1.610,12.383 2.568,11.237 3.712 L 9.155 5.792 9.013 5.720 C 8.611 5.516,7.922 5.451,7.428 5.571 C 6.289 5.846,5.503 6.846,5.508 8.013 C 5.512 8.710,5.762 9.296,6.265 9.787 C 7.109 10.611,8.368 10.733,9.371 10.089 C 9.475 10.022,9.662 9.863,9.787 9.735 C 10.499 9.006,10.694 7.961,10.295 7.009 L 10.221 6.832 12.297 4.756 C 13.826 3.228,14.389 2.648,14.432 2.560 C 14.503 2.411,14.511 2.117,14.447 1.968 C 14.387 1.830,14.205 1.641,14.072 1.579 C 13.940 1.517,13.731 1.490,13.600 1.518 M8.431 7.101 C 8.608 7.188,8.833 7.417,8.915 7.593 C 8.963 7.698,8.973 7.768,8.973 8.000 C 8.973 8.251,8.966 8.295,8.901 8.428 C 8.707 8.821,8.268 9.054,7.848 8.986 C 7.533 8.935,7.241 8.717,7.101 8.430 C 7.009 8.243,6.986 7.920,7.050 7.701 C 7.130 7.427,7.385 7.160,7.662 7.061 C 7.873 6.986,8.234 7.005,8.431 7.101 " stroke="none" fill-rule="evenodd" fill="black"></path></svg>