<svg xmlns="http://www.w3.org/2000/svg" width="24" height="24" viewBox="0 0 24 24"><path d="M11.460 1.076 C 11.257 1.170,11.089 1.348,11.039 1.523 C 11.018 1.598,11.000 2.185,11.000 2.830 L 11.000 4.000 7.302 4.000 C 4.714 4.000,3.540 4.014,3.392 4.045 C 2.729 4.186,2.180 4.731,2.039 5.387 C 2.012 5.514,2.001 6.633,2.009 8.620 L 2.020 11.660 2.113 11.878 C 2.307 12.336,2.665 12.695,3.120 12.887 L 3.340 12.980 7.170 12.991 L 11.000 13.002 11.000 17.671 C 11.000 20.692,11.015 22.391,11.041 22.485 C 11.102 22.704,11.384 22.947,11.620 22.982 C 12.026 23.043,12.392 22.795,12.476 22.400 C 12.506 22.259,12.520 20.779,12.520 17.598 L 12.520 13.000 15.896 13.000 C 19.138 13.000,19.282 12.997,19.526 12.921 C 19.666 12.878,19.861 12.791,19.960 12.727 C 20.151 12.604,23.077 10.092,23.426 9.751 C 24.094 9.100,24.142 8.032,23.533 7.358 C 23.299 7.098,20.094 4.349,19.889 4.232 C 19.478 3.997,19.532 4.000,15.872 4.000 L 12.520 4.000 12.519 2.890 C 12.518 2.273,12.500 1.700,12.477 1.601 C 12.367 1.126,11.887 0.878,11.460 1.076 M20.774 6.923 C 21.669 7.695,22.420 8.363,22.444 8.408 C 22.475 8.465,22.476 8.517,22.447 8.581 C 22.411 8.659,19.424 11.270,19.161 11.451 C 19.069 11.516,18.570 11.520,11.401 11.519 C 5.305 11.519,3.720 11.508,3.640 11.468 L 3.540 11.418 3.530 8.523 C 3.522 6.418,3.532 5.614,3.565 5.574 C 3.602 5.529,4.876 5.520,11.379 5.520 L 19.148 5.520 20.774 6.923 " stroke="none" fill-rule="evenodd" fill="black"></path></svg>