<svg xmlns="http://www.w3.org/2000/svg" width="16" height="16" viewBox="0 0 16 16"><path d="M7.504 0.047 C 7.258 0.135,7.095 0.316,7.027 0.576 C 6.994 0.703,6.987 0.938,6.987 1.871 L 6.987 3.012 4.673 3.019 L 2.360 3.027 2.203 3.087 C 1.744 3.261,1.392 3.565,1.203 3.950 C 0.991 4.382,1.000 4.274,1.000 6.507 L 1.000 8.493 1.061 8.706 C 1.208 9.212,1.517 9.582,1.987 9.815 C 2.364 10.002,2.315 9.999,4.780 10.000 L 6.987 10.000 6.987 12.634 C 6.987 14.922,6.992 15.290,7.028 15.427 C 7.094 15.680,7.250 15.855,7.493 15.949 C 7.889 16.101,8.344 15.873,8.466 15.461 C 8.501 15.342,8.507 14.970,8.507 12.663 L 8.507 10.002 10.487 9.994 L 12.467 9.987 12.670 9.915 C 12.782 9.875,12.940 9.803,13.021 9.755 C 13.183 9.658,15.229 7.942,15.460 7.709 C 15.755 7.410,15.917 7.035,15.939 6.596 C 15.966 6.074,15.803 5.641,15.442 5.281 C 15.331 5.169,14.766 4.679,14.187 4.192 C 13.068 3.251,12.915 3.144,12.558 3.056 C 12.405 3.019,12.140 3.013,10.445 3.013 L 8.507 3.013 8.507 1.845 C 8.507 0.552,8.501 0.501,8.339 0.291 C 8.153 0.048,7.794 -0.057,7.504 0.047 M12.246 4.537 C 12.356 4.596,14.387 6.328,14.422 6.393 C 14.444 6.434,14.452 6.494,14.441 6.550 C 14.426 6.629,14.294 6.750,13.344 7.553 C 12.749 8.056,12.239 8.476,12.209 8.487 C 12.179 8.498,10.012 8.504,7.395 8.500 L 2.635 8.493 2.571 8.419 L 2.507 8.344 2.507 6.503 L 2.507 4.663 2.585 4.585 L 2.663 4.507 7.426 4.507 C 10.915 4.507,12.205 4.515,12.246 4.537 " stroke="none" fill-rule="evenodd" fill="black"></path></svg>