<svg xmlns="http://www.w3.org/2000/svg" width="24" height="24" viewBox="0 0 24 24"><path d="M11.700 2.817 C 11.542 2.887,11.379 3.064,11.302 3.249 C 11.206 3.480,11.215 4.563,11.316 4.780 C 11.541 5.267,12.120 5.398,12.495 5.047 C 12.720 4.837,12.758 4.685,12.758 4.000 C 12.758 3.315,12.720 3.163,12.495 2.953 C 12.288 2.759,11.956 2.702,11.700 2.817 M2.535 6.028 C 2.407 6.053,2.117 6.317,2.055 6.466 C 2.009 6.575,2.000 7.516,2.000 12.000 C 2.000 17.927,1.984 17.540,2.245 17.788 C 2.480 18.010,2.766 18.060,3.049 17.929 C 3.170 17.873,7.631 13.843,8.815 12.720 C 9.156 12.397,9.240 12.254,9.240 12.000 C 9.240 11.746,9.156 11.603,8.815 11.280 C 7.631 10.157,3.170 6.127,3.049 6.071 C 2.908 6.006,2.725 5.990,2.535 6.028 M20.951 6.069 C 20.784 6.149,15.023 11.389,14.883 11.588 C 14.689 11.863,14.724 12.240,14.969 12.505 C 15.320 12.886,20.810 17.864,20.951 17.929 C 21.131 18.012,21.357 18.019,21.531 17.946 C 21.707 17.873,21.950 17.593,21.979 17.432 C 21.992 17.360,21.998 14.867,21.991 11.893 C 21.980 6.501,21.980 6.486,21.897 6.375 C 21.648 6.042,21.265 5.918,20.951 6.069 M11.700 6.817 C 11.634 6.846,11.531 6.922,11.472 6.985 C 11.272 7.198,11.240 7.342,11.241 8.009 C 11.242 8.684,11.281 8.838,11.505 9.047 C 11.880 9.398,12.459 9.267,12.684 8.780 C 12.746 8.646,12.758 8.519,12.758 8.000 C 12.758 7.315,12.720 7.163,12.495 6.953 C 12.288 6.759,11.956 6.702,11.700 6.817 M5.633 10.398 C 6.583 11.265,7.360 11.987,7.360 12.001 C 7.360 12.020,4.801 14.373,3.713 15.354 L 3.520 15.527 3.520 12.000 L 3.520 8.473 3.713 8.646 C 3.819 8.742,4.683 9.530,5.633 10.398 M20.470 13.756 L 20.460 15.513 18.560 13.778 C 17.515 12.824,16.660 12.024,16.660 12.000 C 16.660 11.976,17.515 11.176,18.560 10.222 L 20.460 8.487 20.470 10.244 C 20.476 11.210,20.476 12.790,20.470 13.756 M11.700 10.817 C 11.634 10.846,11.531 10.922,11.472 10.985 C 11.272 11.198,11.240 11.342,11.241 12.009 C 11.242 12.684,11.281 12.838,11.505 13.047 C 11.880 13.398,12.459 13.267,12.684 12.780 C 12.746 12.646,12.758 12.519,12.758 12.000 C 12.758 11.315,12.720 11.163,12.495 10.953 C 12.288 10.759,11.956 10.702,11.700 10.817 M11.700 14.817 C 11.634 14.846,11.531 14.922,11.472 14.985 C 11.272 15.198,11.240 15.342,11.241 16.009 C 11.242 16.684,11.281 16.838,11.505 17.047 C 11.880 17.398,12.459 17.267,12.684 16.780 C 12.746 16.646,12.758 16.519,12.758 16.000 C 12.758 15.315,12.720 15.163,12.495 14.953 C 12.288 14.759,11.956 14.702,11.700 14.817 M11.700 18.817 C 11.634 18.846,11.531 18.922,11.472 18.985 C 11.272 19.198,11.240 19.342,11.241 20.009 C 11.242 20.684,11.281 20.838,11.505 21.047 C 11.880 21.398,12.459 21.267,12.684 20.780 C 12.746 20.646,12.758 20.519,12.758 20.000 C 12.758 19.315,12.720 19.163,12.495 18.953 C 12.288 18.759,11.956 18.702,11.700 18.817 " stroke="none" fill-rule="evenodd" fill="black"></path></svg>