<svg xmlns="http://www.w3.org/2000/svg" width="16" height="16" viewBox="0 0 16 16"><path d="M7.649 1.101 C 7.523 1.165,7.458 1.221,7.394 1.316 C 7.267 1.505,7.248 1.612,7.258 2.065 C 7.266 2.458,7.269 2.470,7.350 2.613 C 7.453 2.796,7.618 2.919,7.836 2.974 C 7.984 3.012,8.015 3.012,8.160 2.976 C 8.434 2.905,8.618 2.742,8.708 2.488 C 8.752 2.365,8.760 1.688,8.719 1.542 C 8.669 1.360,8.530 1.194,8.349 1.100 C 8.208 1.027,8.153 1.013,8.000 1.013 C 7.847 1.013,7.791 1.027,7.649 1.101 M0.453 3.069 C 0.307 3.135,0.149 3.283,0.071 3.427 L 0.013 3.533 0.006 7.946 C -0.002 12.914,-0.018 12.511,0.205 12.749 C 0.357 12.912,0.547 12.996,0.762 12.994 C 0.991 12.993,1.127 12.923,1.403 12.663 C 5.384 8.908,5.865 8.447,5.924 8.326 C 6.012 8.148,6.012 7.852,5.924 7.673 C 5.874 7.572,5.404 7.114,3.554 5.367 C 2.284 4.168,1.208 3.162,1.163 3.131 C 0.968 3.000,0.665 2.973,0.453 3.069 M15.000 3.046 C 14.956 3.062,14.883 3.100,14.837 3.131 C 14.792 3.161,13.716 4.168,12.446 5.367 C 10.596 7.114,10.126 7.572,10.076 7.673 C 10.027 7.772,10.013 7.844,10.013 8.000 C 10.013 8.371,9.599 7.949,14.597 12.663 C 14.872 12.922,15.009 12.993,15.238 12.995 C 15.544 12.997,15.842 12.795,15.947 12.513 C 15.999 12.374,16.000 12.299,16.000 8.000 C 16.000 3.701,15.999 3.626,15.947 3.487 C 15.884 3.319,15.719 3.146,15.547 3.069 C 15.413 3.008,15.137 2.997,15.000 3.046 M7.747 4.046 C 7.568 4.107,7.358 4.315,7.298 4.492 C 7.265 4.590,7.253 4.717,7.253 5.000 C 7.253 5.471,7.286 5.583,7.481 5.778 C 7.779 6.076,8.221 6.076,8.519 5.778 C 8.714 5.583,8.747 5.471,8.747 5.000 C 8.747 4.566,8.716 4.441,8.569 4.269 C 8.374 4.041,8.031 3.948,7.747 4.046 M2.980 6.889 C 3.614 7.488,4.133 7.987,4.133 8.000 C 4.133 8.018,3.421 8.697,1.647 10.370 L 1.493 10.515 1.493 8.000 L 1.493 5.485 1.660 5.643 C 1.752 5.730,2.346 6.291,2.980 6.889 M14.500 9.252 L 14.493 10.504 13.180 9.264 C 12.458 8.582,11.867 8.013,11.867 8.000 C 11.867 7.987,12.458 7.418,13.180 6.736 L 14.493 5.496 14.500 6.748 C 14.504 7.437,14.504 8.563,14.500 9.252 M7.649 7.101 C 7.523 7.165,7.458 7.221,7.394 7.316 C 7.267 7.505,7.248 7.612,7.258 8.065 C 7.266 8.458,7.269 8.470,7.350 8.613 C 7.453 8.796,7.618 8.919,7.836 8.974 C 7.984 9.012,8.015 9.012,8.160 8.976 C 8.434 8.905,8.618 8.742,8.708 8.488 C 8.752 8.365,8.760 7.688,8.719 7.542 C 8.669 7.360,8.530 7.194,8.349 7.100 C 8.208 7.027,8.153 7.013,8.000 7.013 C 7.847 7.013,7.791 7.027,7.649 7.101 M7.747 10.046 C 7.568 10.107,7.358 10.315,7.298 10.492 C 7.265 10.590,7.253 10.717,7.253 11.000 C 7.253 11.471,7.286 11.583,7.481 11.778 C 7.779 12.076,8.221 12.076,8.519 11.778 C 8.714 11.583,8.747 11.471,8.747 11.000 C 8.747 10.566,8.716 10.441,8.569 10.269 C 8.374 10.041,8.031 9.948,7.747 10.046 M7.649 13.101 C 7.523 13.165,7.458 13.221,7.394 13.316 C 7.267 13.505,7.248 13.612,7.258 14.065 C 7.266 14.458,7.269 14.470,7.350 14.613 C 7.453 14.796,7.618 14.919,7.836 14.974 C 7.984 15.012,8.015 15.012,8.160 14.976 C 8.434 14.905,8.618 14.742,8.708 14.488 C 8.752 14.365,8.760 13.688,8.719 13.542 C 8.669 13.360,8.530 13.194,8.349 13.100 C 8.208 13.027,8.153 13.013,8.000 13.013 C 7.847 13.013,7.791 13.027,7.649 13.101 " stroke="none" fill-rule="evenodd" fill="black"></path></svg>