<svg xmlns="http://www.w3.org/2000/svg" width="16" height="16" viewBox="0 0 16 16"><path d="M9.792 1.456 C 9.538 1.582,9.387 1.831,9.387 2.121 C 9.387 2.198,9.417 2.354,9.455 2.470 C 9.659 3.094,9.740 3.600,9.739 4.253 C 9.739 5.137,9.583 5.836,9.216 6.600 C 8.909 7.238,8.618 7.651,8.135 8.136 C 7.191 9.082,6.018 9.620,4.639 9.738 C 3.993 9.793,3.211 9.697,2.552 9.481 C 2.123 9.341,1.913 9.356,1.663 9.544 C 1.578 9.609,1.508 9.693,1.455 9.796 C 1.301 10.097,1.364 10.381,1.758 11.160 C 2.816 13.252,4.794 14.636,7.173 14.948 C 7.652 15.011,8.653 14.990,9.120 14.907 C 10.830 14.604,12.257 13.791,13.356 12.492 C 14.163 11.539,14.675 10.424,14.910 9.107 C 14.965 8.799,14.972 8.676,14.973 8.013 C 14.973 7.413,14.964 7.209,14.925 6.973 C 14.708 5.673,14.220 4.568,13.422 3.573 C 13.193 3.287,12.720 2.815,12.426 2.578 C 11.886 2.142,11.037 1.651,10.485 1.456 C 10.218 1.361,9.982 1.361,9.792 1.456 M11.782 4.013 C 13.462 5.593,13.962 8.125,13.015 10.242 C 12.128 12.223,10.164 13.492,7.981 13.493 C 6.509 13.494,5.050 12.870,4.036 11.805 C 3.906 11.668,3.742 11.482,3.672 11.392 L 3.544 11.228 4.005 11.244 C 5.934 11.311,7.789 10.584,9.169 9.219 C 10.557 7.848,11.305 5.978,11.244 4.032 L 11.229 3.545 11.392 3.672 C 11.482 3.743,11.658 3.896,11.782 4.013 " stroke="none" fill-rule="evenodd" fill="black"></path></svg>