<svg xmlns="http://www.w3.org/2000/svg" width="24" height="24" viewBox="0 0 24 24"><path d="M14.772 2.558 C 14.628 2.646,14.520 2.826,14.520 2.977 C 14.520 3.033,14.573 3.263,14.637 3.489 C 14.891 4.382,14.976 5.013,14.976 6.000 C 14.976 6.932,14.917 7.413,14.695 8.279 C 13.951 11.192,11.716 13.580,8.836 14.536 C 7.790 14.884,6.827 15.023,5.720 14.988 C 4.925 14.962,4.314 14.869,3.555 14.660 C 3.007 14.508,2.919 14.497,2.787 14.565 C 2.408 14.760,2.403 14.952,2.750 15.800 C 3.255 17.032,3.961 18.083,4.938 19.062 C 6.618 20.743,8.728 21.733,11.120 21.963 C 11.659 22.014,12.765 21.992,13.280 21.919 C 15.543 21.599,17.486 20.639,19.061 19.062 C 20.649 17.471,21.595 15.543,21.927 13.220 C 22.006 12.670,21.993 11.208,21.904 10.620 C 21.581 8.485,20.654 6.588,19.180 5.045 C 18.224 4.044,16.805 3.117,15.472 2.624 C 15.025 2.458,14.948 2.451,14.772 2.558 M17.099 5.209 C 18.948 6.595,20.125 8.635,20.423 10.969 C 20.503 11.602,20.484 12.754,20.382 13.360 C 20.007 15.585,18.758 17.598,16.950 18.893 C 15.915 19.633,14.764 20.120,13.466 20.365 C 12.830 20.485,11.559 20.513,10.900 20.422 C 8.599 20.104,6.548 18.906,5.202 17.093 C 5.036 16.869,4.866 16.629,4.825 16.559 L 4.751 16.432 5.065 16.464 C 5.559 16.515,6.689 16.493,7.256 16.422 C 9.123 16.189,10.757 15.535,12.260 14.419 C 14.579 12.697,16.061 10.147,16.422 7.256 C 16.493 6.689,16.515 5.559,16.464 5.065 L 16.432 4.751 16.560 4.825 C 16.629 4.866,16.872 5.039,17.099 5.209 " stroke="none" fill-rule="evenodd" fill="black"></path></svg>