<svg xmlns="http://www.w3.org/2000/svg" width="16" height="16" viewBox="0 0 16 16"><path d="M7.707 1.063 C 7.539 1.132,0.633 4.230,0.454 4.316 C 0.262 4.409,0.122 4.557,0.054 4.736 C -0.015 4.922,-0.015 5.079,0.055 5.266 C 0.161 5.549,0.212 5.581,1.414 6.120 L 2.493 6.604 2.500 7.769 L 2.507 8.934 2.364 8.997 C 1.586 9.341,1.102 10.057,1.012 10.995 C 0.994 11.181,0.987 11.881,0.992 12.853 L 1.000 14.413 1.074 14.565 C 1.159 14.736,1.288 14.862,1.465 14.944 C 1.585 14.999,1.615 15.000,3.255 15.000 L 4.924 15.000 5.081 14.920 C 5.256 14.830,5.413 14.650,5.463 14.481 C 5.484 14.411,5.493 13.860,5.493 12.650 C 5.493 11.065,5.488 10.900,5.443 10.680 C 5.289 9.940,4.868 9.364,4.267 9.074 L 4.004 8.947 4.002 8.115 L 4.000 7.283 4.127 7.339 C 4.196 7.370,5.027 7.742,5.973 8.166 C 6.919 8.590,7.761 8.954,7.844 8.976 C 7.961 9.006,8.022 9.009,8.124 8.986 C 8.195 8.970,8.976 8.634,9.859 8.239 C 10.742 7.843,11.471 7.520,11.479 7.520 C 11.487 7.520,11.493 8.012,11.493 8.614 C 11.493 9.657,11.491 9.714,11.440 9.814 C 11.364 9.963,11.243 10.093,11.056 10.225 C 10.308 10.756,8.933 11.063,7.635 10.989 C 7.070 10.957,6.926 10.991,6.720 11.203 C 6.427 11.505,6.443 11.973,6.757 12.260 C 6.835 12.330,6.945 12.404,7.003 12.423 C 7.204 12.489,7.934 12.520,8.489 12.485 C 9.874 12.399,10.995 12.070,11.843 11.503 C 12.124 11.316,12.485 10.960,12.652 10.709 C 12.809 10.472,12.855 10.373,12.940 10.093 C 12.994 9.915,12.997 9.835,13.011 8.364 L 13.027 6.820 14.346 6.228 C 15.812 5.570,15.836 5.556,15.945 5.266 C 16.086 4.887,15.923 4.498,15.546 4.316 C 15.466 4.277,13.786 3.522,11.813 2.637 L 8.227 1.028 8.027 1.021 C 7.879 1.015,7.795 1.026,7.707 1.063 M10.702 3.783 C 12.166 4.440,13.363 4.989,13.362 5.002 C 13.359 5.031,8.060 7.413,8.000 7.412 C 7.945 7.412,2.636 5.030,2.631 5.003 C 2.626 4.978,7.939 2.589,8.000 2.589 C 8.022 2.589,9.238 3.126,10.702 3.783 M3.609 10.409 C 3.755 10.495,3.850 10.612,3.929 10.805 C 3.985 10.943,3.987 10.983,3.995 12.220 L 4.003 13.493 3.254 13.493 L 2.504 13.493 2.512 12.207 L 2.520 10.920 2.597 10.753 C 2.681 10.572,2.800 10.449,2.972 10.369 C 3.134 10.293,3.443 10.312,3.609 10.409 " stroke="none" fill-rule="evenodd" fill="black"></path></svg>