<svg xmlns="http://www.w3.org/2000/svg" width="24" height="24" viewBox="0 0 24 24"><path d="M11.800 2.026 C 10.609 2.510,0.416 6.836,0.315 6.901 C 0.142 7.013,0.000 7.283,0.000 7.500 C 0.000 7.699,0.135 7.977,0.283 8.082 C 0.347 8.128,1.259 8.529,2.310 8.974 L 4.220 9.783 4.230 11.688 L 4.241 13.594 4.090 13.642 C 4.008 13.669,3.832 13.745,3.700 13.811 C 2.908 14.206,2.425 14.803,2.132 15.745 L 2.022 16.100 2.009 18.739 C 1.994 21.687,1.986 21.594,2.271 21.845 C 2.719 22.237,3.860 22.520,5.000 22.520 C 6.140 22.520,7.281 22.237,7.729 21.845 C 8.014 21.594,8.006 21.687,7.991 18.739 L 7.978 16.100 7.868 15.745 C 7.575 14.803,7.092 14.206,6.300 13.811 C 6.168 13.745,5.992 13.669,5.910 13.642 L 5.760 13.594 5.760 12.013 C 5.760 10.764,5.771 10.436,5.810 10.451 C 5.838 10.462,7.192 11.035,8.820 11.725 C 11.497 12.858,11.801 12.978,12.000 12.978 C 12.198 12.978,12.473 12.871,14.800 11.884 C 16.219 11.283,17.403 10.782,17.430 10.771 C 17.471 10.755,17.479 11.162,17.470 12.783 L 17.460 14.814 17.132 15.079 C 16.104 15.912,14.636 16.372,12.664 16.480 C 11.965 16.518,11.670 16.511,10.716 16.434 C 10.067 16.381,9.958 16.406,9.726 16.658 C 9.477 16.928,9.454 17.251,9.662 17.569 C 9.884 17.908,10.294 17.979,12.020 17.977 C 13.302 17.976,13.713 17.940,14.713 17.738 C 15.346 17.610,16.282 17.301,16.813 17.045 C 17.660 16.637,18.576 15.910,18.863 15.420 L 18.980 15.220 19.000 12.661 L 19.020 10.102 21.307 9.136 C 22.565 8.605,23.648 8.132,23.713 8.085 C 23.865 7.977,24.000 7.701,24.000 7.500 C 24.000 7.283,23.858 7.013,23.685 6.901 C 23.605 6.849,20.993 5.731,17.880 4.417 C 12.294 2.059,12.002 1.945,11.800 2.026 M16.616 5.515 C 19.162 6.590,21.248 7.482,21.252 7.498 C 21.257 7.514,19.176 8.407,16.630 9.482 L 12.000 11.437 7.384 9.488 C 4.845 8.417,2.765 7.524,2.762 7.504 C 2.758 7.485,4.831 6.591,7.368 5.517 C 9.904 4.444,11.982 3.565,11.984 3.563 C 11.986 3.561,14.071 4.440,16.616 5.515 M5.446 15.080 C 5.837 15.204,6.102 15.436,6.295 15.824 C 6.477 16.192,6.485 16.322,6.472 18.639 L 6.460 20.819 6.200 20.890 C 5.744 21.014,5.063 21.063,4.530 21.008 C 4.271 20.982,3.943 20.929,3.800 20.890 L 3.540 20.819 3.528 18.639 C 3.519 17.079,3.529 16.398,3.563 16.240 C 3.760 15.317,4.585 14.808,5.446 15.080 " stroke="none" fill-rule="evenodd" fill="black"></path></svg>