<svg xmlns="http://www.w3.org/2000/svg" width="24" height="24" viewBox="0 0 24 24"><path d="M17.080 5.080 C 17.036 5.124,17.000 5.202,17.000 5.253 C 17.000 5.363,19.269 7.918,19.418 7.976 C 19.469 7.996,19.539 8.001,19.573 7.988 C 19.653 7.957,21.913 5.451,21.971 5.329 C 22.006 5.255,21.998 5.217,21.933 5.129 L 21.851 5.020 19.506 5.010 C 17.204 5.000,17.159 5.001,17.080 5.080 M3.394 5.601 C 3.110 5.751,2.968 6.046,3.018 6.380 C 3.053 6.616,3.296 6.898,3.515 6.959 C 3.609 6.985,5.452 6.999,8.780 6.999 C 13.694 6.998,13.907 6.995,14.065 6.923 C 14.439 6.753,14.605 6.260,14.410 5.899 C 14.344 5.778,14.153 5.610,14.027 5.563 C 13.950 5.533,12.299 5.521,8.727 5.522 C 3.678 5.523,3.536 5.526,3.394 5.601 M3.664 11.063 C 3.436 11.146,3.257 11.297,3.131 11.511 C 3.036 11.672,3.020 11.744,3.020 12.000 C 3.020 12.256,3.036 12.328,3.131 12.489 C 3.470 13.065,4.234 13.168,4.701 12.701 C 5.092 12.310,5.092 11.690,4.701 11.299 C 4.429 11.027,4.018 10.933,3.664 11.063 M8.394 11.601 C 8.110 11.751,7.968 12.046,8.018 12.380 C 8.053 12.616,8.296 12.898,8.515 12.959 C 8.715 13.015,20.285 13.015,20.485 12.959 C 20.704 12.898,20.947 12.616,20.982 12.380 C 21.033 12.041,20.888 11.747,20.598 11.599 C 20.446 11.521,20.338 11.520,14.492 11.522 C 8.687 11.523,8.536 11.525,8.394 11.601 M3.664 17.063 C 3.436 17.146,3.257 17.297,3.131 17.511 C 3.036 17.672,3.020 17.744,3.020 18.000 C 3.020 18.256,3.036 18.328,3.131 18.489 C 3.470 19.065,4.234 19.168,4.701 18.701 C 5.092 18.310,5.092 17.690,4.701 17.299 C 4.429 17.027,4.018 16.933,3.664 17.063 M8.394 17.601 C 8.110 17.751,7.968 18.046,8.018 18.380 C 8.053 18.616,8.296 18.898,8.515 18.959 C 8.715 19.015,20.285 19.015,20.485 18.959 C 20.704 18.898,20.947 18.616,20.982 18.380 C 21.033 18.041,20.888 17.747,20.598 17.599 C 20.446 17.521,20.338 17.520,14.492 17.522 C 8.687 17.523,8.536 17.525,8.394 17.601 " stroke="none" fill-rule="evenodd" fill="black"></path></svg>