<svg xmlns="http://www.w3.org/2000/svg" width="16" height="16" viewBox="0 0 16 16"><path d="M11.091 2.078 C 10.987 2.182,10.986 2.310,11.087 2.430 C 11.488 2.909,13.354 4.954,13.413 4.979 C 13.469 5.003,13.511 5.004,13.570 4.984 C 13.664 4.951,15.936 2.440,15.982 2.319 C 16.002 2.266,16.000 2.224,15.974 2.162 C 15.904 1.993,16.018 2.000,13.479 2.000 L 11.169 2.000 11.091 2.078 M1.467 2.562 C 1.294 2.640,1.184 2.733,1.107 2.863 C 0.871 3.266,1.051 3.779,1.488 3.946 C 1.626 3.999,1.681 4.000,5.000 4.000 C 8.319 4.000,8.374 3.999,8.512 3.946 C 8.751 3.855,8.908 3.676,8.973 3.423 C 9.062 3.077,8.909 2.752,8.581 2.588 L 8.418 2.507 5.002 2.507 C 1.628 2.508,1.585 2.508,1.467 2.562 M1.662 7.061 C 1.221 7.219,0.939 7.692,1.014 8.152 C 1.145 8.957,2.127 9.277,2.702 8.702 C 3.188 8.216,3.050 7.404,2.429 7.100 C 2.234 7.005,1.872 6.986,1.662 7.061 M5.600 7.518 C 5.258 7.588,5.004 7.901,5.004 8.253 C 5.004 8.543,5.164 8.793,5.435 8.926 L 5.587 9.000 9.424 9.007 C 12.817 9.014,13.280 9.010,13.422 8.973 C 13.788 8.879,14.021 8.563,13.993 8.196 C 13.971 7.912,13.800 7.676,13.529 7.553 C 13.433 7.510,13.169 7.506,9.560 7.503 C 7.433 7.501,5.651 7.508,5.600 7.518 M1.734 12.043 C 1.363 12.143,1.088 12.447,1.016 12.840 C 0.937 13.267,1.184 13.722,1.600 13.916 C 1.725 13.974,1.784 13.984,2.000 13.984 C 2.216 13.984,2.275 13.974,2.400 13.916 C 2.816 13.722,3.063 13.267,2.984 12.840 C 2.911 12.441,2.636 12.141,2.254 12.041 C 2.061 11.991,1.926 11.991,1.734 12.043 M5.467 12.562 C 5.294 12.641,5.184 12.733,5.107 12.863 C 4.871 13.266,5.051 13.779,5.488 13.946 C 5.627 13.999,5.679 14.000,9.489 14.000 C 13.884 14.000,13.532 14.018,13.775 13.775 C 14.134 13.416,14.053 12.857,13.604 12.593 L 13.480 12.520 9.533 12.514 C 5.614 12.508,5.586 12.508,5.467 12.562 " stroke="none" fill-rule="evenodd" fill="black"></path></svg>