<svg xmlns="http://www.w3.org/2000/svg" width="24" height="24" viewBox="0 0 24 24"><path d="M10.940 3.075 C 10.852 3.119,9.583 4.244,8.120 5.577 L 5.460 8.000 4.032 8.000 C 3.127 8.000,2.526 8.016,2.392 8.045 C 1.729 8.186,1.180 8.731,1.039 9.388 C 1.012 9.515,1.001 10.470,1.009 12.121 L 1.020 14.660 1.113 14.878 C 1.307 15.336,1.666 15.695,2.120 15.887 C 2.334 15.977,2.381 15.980,3.911 16.000 L 5.481 16.020 8.142 18.440 C 9.606 19.771,10.870 20.891,10.952 20.929 C 11.131 21.012,11.357 21.019,11.531 20.946 C 11.707 20.873,11.950 20.593,11.979 20.432 C 11.992 20.360,11.998 16.517,11.991 11.893 L 11.980 3.486 11.897 3.375 C 11.644 3.035,11.264 2.916,10.940 3.075 M10.470 15.260 L 10.460 18.520 8.324 16.578 C 7.149 15.510,6.150 14.615,6.104 14.588 C 6.044 14.554,5.543 14.534,4.336 14.520 C 2.990 14.504,2.639 14.489,2.586 14.445 C 2.526 14.395,2.520 14.174,2.520 12.000 C 2.520 10.097,2.531 9.601,2.572 9.567 C 2.606 9.539,3.179 9.520,4.282 9.512 C 5.653 9.502,5.960 9.490,6.057 9.441 C 6.121 9.408,7.138 8.504,8.317 7.432 L 10.460 5.483 10.470 8.741 C 10.476 10.534,10.476 13.467,10.470 15.260 M15.420 8.047 C 15.085 8.231,14.934 8.548,15.009 8.909 C 15.047 9.091,15.117 9.169,16.493 10.550 L 17.938 12.000 16.493 13.450 C 15.117 14.831,15.047 14.909,15.009 15.091 C 14.969 15.285,14.991 15.473,15.072 15.625 C 15.141 15.754,15.389 15.956,15.511 15.983 C 15.571 15.996,15.640 16.013,15.664 16.020 C 15.688 16.027,15.796 16.015,15.904 15.992 C 16.092 15.953,16.157 15.895,17.550 14.507 L 19.000 13.062 20.450 14.507 C 21.843 15.895,21.908 15.953,22.096 15.992 C 22.204 16.015,22.312 16.027,22.336 16.020 C 22.360 16.013,22.429 15.996,22.489 15.983 C 22.611 15.956,22.859 15.754,22.928 15.625 C 23.009 15.473,23.031 15.285,22.991 15.091 C 22.953 14.909,22.883 14.831,21.507 13.450 L 20.063 12.000 21.487 10.570 C 22.843 9.209,22.913 9.131,22.951 8.949 C 23.052 8.461,22.728 8.040,22.250 8.040 C 22.132 8.040,21.978 8.069,21.908 8.104 C 21.838 8.139,21.154 8.791,20.390 9.554 L 19.000 10.940 17.590 9.534 C 16.814 8.760,16.122 8.099,16.052 8.064 C 15.906 7.991,15.539 7.981,15.420 8.047 " stroke="none" fill-rule="evenodd" fill="black"></path></svg>