<svg xmlns="http://www.w3.org/2000/svg" width="16" height="16" viewBox="0 0 16 16"><path d="M7.019 2.038 C 6.957 2.058,6.866 2.105,6.818 2.141 C 6.770 2.178,5.994 2.839,5.094 3.611 L 3.458 5.013 2.482 5.014 C 1.410 5.014,1.311 5.025,0.996 5.175 C 0.649 5.341,0.364 5.626,0.185 5.987 C 0.005 6.349,0.001 6.396,0.001 8.000 C 0.001 9.604,0.005 9.651,0.185 10.013 C 0.412 10.473,0.790 10.790,1.284 10.936 C 1.465 10.989,1.560 10.995,2.493 11.010 L 3.507 11.027 5.153 12.440 C 6.058 13.217,6.856 13.883,6.926 13.920 C 7.028 13.974,7.090 13.987,7.253 13.987 C 7.559 13.987,7.772 13.858,7.916 13.587 L 7.987 13.453 7.987 8.000 L 7.987 2.547 7.921 2.418 C 7.757 2.098,7.355 1.928,7.019 2.038 M6.507 8.000 C 6.507 9.980,6.500 11.600,6.491 11.600 C 6.483 11.600,5.958 11.156,5.324 10.613 C 4.691 10.070,4.119 9.599,4.053 9.566 C 3.936 9.508,3.911 9.507,2.827 9.500 C 2.218 9.496,1.693 9.487,1.659 9.479 C 1.626 9.472,1.575 9.427,1.546 9.379 C 1.496 9.297,1.494 9.239,1.494 8.000 C 1.494 6.761,1.496 6.703,1.546 6.621 C 1.575 6.573,1.626 6.528,1.659 6.521 C 1.693 6.513,2.218 6.504,2.827 6.500 C 3.890 6.494,3.938 6.491,4.053 6.437 C 4.122 6.405,4.663 5.958,5.320 5.392 C 5.951 4.848,6.476 4.402,6.487 4.401 C 6.498 4.401,6.507 6.020,6.507 8.000 M10.504 5.022 C 10.343 5.082,10.212 5.175,10.130 5.289 C 10.026 5.433,9.963 5.656,9.983 5.806 C 10.020 6.074,10.063 6.127,11.021 7.086 L 11.932 8.000 11.010 8.926 C 9.992 9.949,9.986 9.957,9.987 10.280 C 9.988 10.814,10.553 11.171,11.040 10.945 C 11.161 10.889,11.344 10.720,12.094 9.972 L 13.001 9.067 13.894 9.961 C 14.627 10.695,14.815 10.869,14.944 10.934 C 15.311 11.118,15.749 10.974,15.931 10.608 C 15.987 10.495,16.000 10.432,15.999 10.268 C 15.998 9.935,15.998 9.935,14.979 8.914 L 14.068 8.000 14.963 7.100 C 15.527 6.532,15.877 6.161,15.909 6.093 C 15.978 5.949,15.980 5.572,15.912 5.447 C 15.767 5.177,15.530 5.031,15.239 5.029 C 14.913 5.027,14.878 5.054,13.880 6.052 L 13.001 6.933 12.094 6.029 C 11.479 5.417,11.148 5.106,11.067 5.065 C 10.919 4.991,10.642 4.970,10.504 5.022 " stroke="none" fill-rule="evenodd" fill="black"></path></svg>