<svg xmlns="http://www.w3.org/2000/svg" width="12" height="12" viewBox="0 0 12 12"><path d="M5.600 0.013 C 3.838 0.144,2.268 0.996,1.206 2.395 C 0.599 3.195,0.222 4.108,0.055 5.180 C -0.007 5.572,-0.007 6.428,0.055 6.820 C 0.311 8.466,1.107 9.817,2.396 10.795 C 3.193 11.399,4.111 11.779,5.180 11.945 C 5.572 12.007,6.428 12.007,6.820 11.945 C 8.278 11.718,9.518 11.061,10.448 10.021 C 11.272 9.100,11.749 8.082,11.945 6.820 C 12.007 6.428,12.007 5.572,11.945 5.180 C 11.779 4.111,11.399 3.193,10.795 2.396 C 9.803 1.089,8.385 0.266,6.750 0.050 C 6.516 0.019,5.820 -0.004,5.600 0.013 M9.000 6.000 L 9.000 7.000 6.000 7.000 L 3.000 7.000 3.000 6.000 L 3.000 5.000 6.000 5.000 L 9.000 5.000 9.000 6.000 " stroke="none" fill-rule="evenodd" fill="black"></path></svg>