<svg xmlns="http://www.w3.org/2000/svg" width="24" height="24" viewBox="0 0 24 24"><path d="M11.420 0.587 C 11.235 0.685,11.155 0.766,11.075 0.940 C 11.005 1.092,11.002 1.317,11.001 5.520 L 11.000 9.939 8.650 7.594 C 6.124 5.073,6.189 5.128,5.815 5.171 C 5.332 5.225,5.034 5.737,5.221 6.191 C 5.264 6.295,5.994 7.052,7.611 8.670 L 9.940 11.000 5.520 11.001 C 1.290 11.002,1.093 11.005,0.935 11.077 C 0.845 11.118,0.724 11.212,0.668 11.286 C 0.569 11.416,0.472 11.721,0.500 11.815 C 0.507 11.840,0.524 11.909,0.537 11.969 C 0.567 12.105,0.771 12.342,0.936 12.432 C 1.050 12.495,1.409 12.501,5.479 12.511 L 9.897 12.522 7.613 14.811 C 6.356 16.070,5.302 17.154,5.269 17.220 C 5.174 17.412,5.152 17.581,5.199 17.755 C 5.314 18.182,5.814 18.434,6.211 18.265 C 6.285 18.234,7.333 17.226,8.670 15.901 L 11.000 13.593 11.000 17.966 C 11.000 20.788,11.015 22.392,11.041 22.485 C 11.102 22.704,11.384 22.947,11.620 22.982 C 12.026 23.043,12.392 22.795,12.476 22.400 C 12.506 22.259,12.520 20.859,12.520 17.888 L 12.520 13.580 14.830 15.889 C 16.434 17.491,17.185 18.216,17.289 18.259 C 17.743 18.446,18.255 18.148,18.309 17.665 C 18.352 17.292,18.406 17.355,15.906 14.850 L 13.581 12.520 17.888 12.520 C 20.859 12.520,22.259 12.506,22.400 12.476 C 23.110 12.324,23.205 11.376,22.540 11.075 C 22.388 11.006,22.149 11.002,17.968 11.001 L 13.555 11.000 15.816 8.757 C 17.059 7.524,18.130 6.434,18.195 6.335 C 18.350 6.101,18.381 5.909,18.300 5.681 C 18.222 5.459,18.107 5.331,17.900 5.236 C 17.700 5.143,17.476 5.140,17.286 5.227 C 17.194 5.268,16.281 6.149,14.831 7.595 L 12.522 9.896 12.511 5.478 C 12.501 1.448,12.494 1.049,12.434 0.940 C 12.346 0.781,12.167 0.615,12.027 0.563 C 11.865 0.501,11.559 0.513,11.420 0.587 " stroke="none" fill-rule="evenodd" fill="black"></path></svg>