<svg xmlns="http://www.w3.org/2000/svg" width="16" height="16" viewBox="0 0 16 16"><path d="M7.504 0.047 C 7.258 0.135,7.095 0.316,7.027 0.576 C 6.992 0.710,6.987 1.093,6.987 3.332 L 6.987 5.933 5.633 4.581 C 4.134 3.083,4.170 3.112,3.839 3.114 C 3.622 3.115,3.445 3.196,3.296 3.361 C 3.159 3.512,3.112 3.634,3.110 3.840 C 3.108 4.167,3.083 4.137,4.574 5.627 C 5.314 6.368,5.920 6.982,5.920 6.993 C 5.920 7.004,4.717 7.013,3.247 7.014 L 0.573 7.014 0.440 7.076 C 0.264 7.158,0.099 7.341,0.040 7.519 C -0.090 7.912,0.139 8.347,0.539 8.466 C 0.658 8.501,1.026 8.507,3.304 8.507 L 5.932 8.507 4.569 9.873 C 3.065 11.382,3.104 11.334,3.109 11.667 C 3.117 12.175,3.635 12.528,4.111 12.348 C 4.250 12.296,4.369 12.185,5.624 10.944 L 6.985 9.596 6.993 12.258 C 7.000 14.918,7.000 14.920,7.057 15.044 C 7.127 15.194,7.285 15.357,7.428 15.426 C 7.486 15.454,7.607 15.482,7.698 15.488 C 8.016 15.510,8.278 15.358,8.418 15.073 L 8.493 14.920 8.501 12.241 L 8.508 9.562 9.887 10.939 C 11.258 12.307,11.268 12.316,11.425 12.361 C 11.821 12.475,12.203 12.283,12.347 11.899 C 12.411 11.728,12.414 11.603,12.358 11.412 C 12.317 11.272,12.263 11.215,10.939 9.887 L 9.562 8.508 12.241 8.501 L 14.920 8.493 15.073 8.418 C 15.358 8.278,15.510 8.016,15.488 7.698 C 15.470 7.426,15.319 7.198,15.079 7.079 C 14.976 7.028,14.897 7.026,12.273 7.020 C 10.788 7.016,9.573 7.008,9.573 7.003 C 9.573 6.997,10.173 6.395,10.906 5.663 C 12.421 4.151,12.391 4.189,12.368 3.830 C 12.352 3.596,12.286 3.458,12.117 3.309 C 11.893 3.112,11.567 3.069,11.303 3.200 C 11.224 3.240,10.762 3.682,9.847 4.596 L 8.507 5.933 8.507 3.304 C 8.507 0.405,8.513 0.516,8.339 0.291 C 8.153 0.048,7.794 -0.057,7.504 0.047 " stroke="none" fill-rule="evenodd" fill="black"></path></svg>