<svg xmlns="http://www.w3.org/2000/svg" width="16" height="16" viewBox="0 0 16 16"><path d="M1.442 2.029 C 0.801 2.156,0.295 2.596,0.087 3.210 L 0.013 3.427 0.006 7.933 C -0.001 12.364,0.000 12.442,0.053 12.653 C 0.138 12.995,0.273 13.234,0.519 13.481 C 0.766 13.727,1.005 13.862,1.347 13.947 C 1.558 14.000,1.639 14.000,8.067 13.994 L 14.573 13.987 14.789 13.914 C 15.029 13.832,15.287 13.678,15.463 13.511 C 15.636 13.347,15.830 13.036,15.913 12.790 L 15.987 12.573 15.987 8.000 L 15.987 3.427 15.914 3.211 C 15.734 2.683,15.318 2.266,14.792 2.088 L 14.573 2.013 8.067 2.009 C 4.437 2.007,1.508 2.016,1.442 2.029 M14.419 3.581 L 14.493 3.655 14.493 8.000 L 14.493 12.345 14.419 12.419 L 14.345 12.493 8.000 12.493 L 1.655 12.493 1.581 12.419 L 1.507 12.345 1.507 8.002 C 1.507 3.696,1.507 3.658,1.560 3.600 C 1.589 3.567,1.637 3.531,1.667 3.518 C 1.696 3.506,4.561 3.499,8.033 3.502 L 14.345 3.507 14.419 3.581 M4.081 5.522 C 3.837 5.571,3.604 5.793,3.530 6.049 C 3.428 6.399,3.611 6.782,3.954 6.937 L 4.093 7.000 7.678 7.007 C 10.840 7.013,11.281 7.009,11.423 6.973 C 11.788 6.879,12.021 6.562,11.993 6.196 C 11.971 5.912,11.800 5.676,11.529 5.553 C 11.434 5.510,11.181 5.506,7.813 5.503 C 5.816 5.500,4.147 5.509,4.081 5.522 M3.984 8.550 C 3.745 8.635,3.541 8.900,3.504 9.176 C 3.467 9.449,3.631 9.756,3.893 9.904 L 4.040 9.987 6.204 9.994 C 8.328 10.001,8.371 10.000,8.511 9.947 C 8.751 9.855,8.908 9.677,8.973 9.423 C 9.062 9.077,8.909 8.752,8.581 8.588 L 8.418 8.507 6.256 8.509 C 4.432 8.511,4.076 8.517,3.984 8.550 " stroke="none" fill-rule="evenodd" fill="black"></path></svg>