<svg xmlns="http://www.w3.org/2000/svg" width="16" height="16" viewBox="0 0 16 16"><path d="M5.027 0.035 C 4.968 0.055,4.539 0.325,4.073 0.635 C 3.178 1.233,3.107 1.295,3.041 1.531 C 2.885 2.087,3.378 2.608,3.927 2.467 C 4.013 2.445,4.164 2.375,4.262 2.312 C 4.360 2.249,4.455 2.188,4.473 2.177 C 4.500 2.161,4.507 2.500,4.507 3.838 L 4.507 5.520 4.083 5.520 C 3.552 5.520,3.433 5.552,3.237 5.747 C 3.066 5.917,3.001 6.093,3.020 6.331 C 3.042 6.606,3.210 6.842,3.467 6.958 C 3.583 7.011,3.636 7.012,5.215 7.013 C 7.037 7.013,6.990 7.018,7.208 6.826 C 7.417 6.642,7.506 6.337,7.430 6.072 C 7.372 5.876,7.247 5.718,7.067 5.616 C 6.921 5.534,6.918 5.533,6.461 5.524 L 6.001 5.515 5.994 3.031 L 5.987 0.547 5.924 0.427 C 5.839 0.263,5.744 0.167,5.587 0.087 C 5.429 0.007,5.183 -0.016,5.027 0.035 M9.504 4.049 C 9.259 4.134,9.094 4.317,9.027 4.579 C 8.960 4.840,9.027 5.080,9.222 5.276 C 9.432 5.485,9.388 5.479,10.727 5.487 C 11.383 5.492,11.920 5.504,11.920 5.514 C 11.920 5.525,11.512 5.942,11.013 6.440 C 10.208 7.244,10.100 7.363,10.053 7.488 C 10.024 7.565,10.000 7.682,10.000 7.747 C 10.000 7.920,10.096 8.149,10.219 8.272 C 10.400 8.453,10.511 8.486,11.019 8.510 C 11.953 8.555,12.543 8.722,12.817 9.020 C 12.963 9.177,12.995 9.287,12.982 9.572 C 12.973 9.762,12.958 9.825,12.900 9.924 C 12.759 10.164,12.523 10.323,12.142 10.433 C 11.965 10.483,11.872 10.492,11.533 10.491 C 11.023 10.488,10.749 10.421,10.272 10.183 C 9.968 10.031,9.932 10.019,9.766 10.019 C 9.539 10.019,9.380 10.091,9.217 10.266 C 9.030 10.465,8.974 10.710,9.053 10.978 C 9.131 11.241,9.439 11.486,9.951 11.692 C 11.349 12.255,12.965 12.034,13.826 11.161 C 14.610 10.367,14.726 9.086,14.095 8.200 C 13.799 7.786,13.283 7.444,12.657 7.249 L 12.394 7.167 13.394 6.164 C 14.496 5.057,14.494 5.059,14.493 4.733 C 14.492 4.415,14.277 4.133,13.964 4.040 C 13.850 4.006,13.518 4.000,11.735 4.001 C 9.806 4.002,9.629 4.005,9.504 4.049 M4.827 9.052 C 4.083 9.209,3.459 9.689,3.114 10.368 C 3.010 10.573,3.000 10.611,3.002 10.784 C 3.003 10.933,3.018 11.001,3.073 11.107 C 3.212 11.375,3.453 11.526,3.748 11.528 C 4.044 11.531,4.287 11.368,4.442 11.062 C 4.599 10.753,4.890 10.545,5.209 10.516 C 5.531 10.486,5.790 10.615,5.920 10.870 C 5.977 10.981,5.986 11.036,5.986 11.255 C 5.987 11.495,5.981 11.521,5.887 11.711 C 5.728 12.033,5.450 12.284,4.567 12.903 C 3.471 13.673,3.011 14.349,3.007 15.200 C 3.005 15.544,3.122 15.759,3.391 15.908 L 3.533 15.987 5.343 15.994 L 7.152 16.001 7.289 15.938 C 7.590 15.800,7.744 15.568,7.744 15.253 C 7.744 14.954,7.604 14.729,7.323 14.579 C 7.216 14.522,7.184 14.520,6.081 14.507 L 4.949 14.493 5.121 14.358 C 5.216 14.283,5.461 14.104,5.667 13.961 C 6.741 13.209,7.174 12.709,7.405 11.954 C 7.470 11.740,7.476 11.680,7.477 11.267 C 7.478 10.907,7.469 10.778,7.430 10.640 C 7.308 10.204,7.130 9.904,6.814 9.606 C 6.563 9.367,6.251 9.188,5.919 9.092 C 5.664 9.018,5.086 8.997,4.827 9.052 " stroke="none" fill-rule="evenodd" fill="black"></path></svg>