<svg xmlns="http://www.w3.org/2000/svg" width="24" height="24" viewBox="0 0 24 24"><path d="M7.540 2.029 C 7.441 2.054,5.376 3.336,5.245 3.454 C 5.117 3.569,5.002 3.828,5.002 4.000 C 5.002 4.319,5.252 4.636,5.572 4.724 C 5.811 4.789,6.008 4.727,6.461 4.442 C 6.668 4.311,6.875 4.184,6.919 4.161 C 7.000 4.117,7.000 4.120,7.000 6.559 L 7.000 9.000 6.310 9.001 C 5.528 9.002,5.398 9.035,5.172 9.292 C 4.813 9.701,5.059 10.364,5.613 10.479 C 5.949 10.548,9.907 10.518,10.040 10.445 C 10.283 10.312,10.446 10.098,10.493 9.852 C 10.527 9.675,10.424 9.357,10.291 9.231 C 10.081 9.029,9.943 9.000,9.201 9.000 L 8.520 9.000 8.520 5.870 C 8.520 3.731,8.506 2.689,8.476 2.580 C 8.362 2.163,7.957 1.924,7.540 2.029 M13.506 7.058 C 13.308 7.129,13.168 7.260,13.076 7.460 C 12.946 7.742,13.004 8.054,13.231 8.291 C 13.436 8.506,13.572 8.520,15.436 8.520 L 17.137 8.520 15.791 9.871 C 14.896 10.768,14.423 11.271,14.382 11.369 C 14.251 11.681,14.325 12.010,14.573 12.228 C 14.755 12.388,14.938 12.439,15.328 12.440 C 16.088 12.440,16.978 12.608,17.440 12.837 C 17.792 13.011,17.966 13.162,18.101 13.407 C 18.203 13.593,18.218 13.661,18.218 13.940 C 18.218 14.201,18.198 14.302,18.113 14.486 C 17.931 14.879,17.584 15.155,17.040 15.340 C 16.210 15.622,15.284 15.537,14.410 15.097 C 13.914 14.848,13.795 14.817,13.568 14.878 C 13.121 14.998,12.886 15.486,13.075 15.902 C 13.168 16.106,13.307 16.223,13.709 16.432 C 16.101 17.677,19.098 16.779,19.641 14.656 C 19.739 14.274,19.747 13.641,19.659 13.298 C 19.511 12.725,19.167 12.203,18.711 11.860 C 18.271 11.529,17.591 11.233,17.003 11.117 C 16.870 11.091,16.760 11.058,16.760 11.045 C 16.760 11.031,17.401 10.381,18.184 9.600 C 18.974 8.812,19.633 8.123,19.664 8.051 C 19.804 7.730,19.684 7.323,19.392 7.130 L 19.226 7.020 16.443 7.011 C 14.156 7.004,13.633 7.012,13.506 7.058 M7.003 13.802 C 6.177 14.018,5.471 14.593,5.115 15.340 C 4.985 15.611,4.972 15.775,5.062 15.991 C 5.144 16.188,5.266 16.315,5.460 16.404 C 5.657 16.495,5.836 16.499,6.031 16.418 C 6.231 16.334,6.349 16.217,6.468 15.984 C 6.709 15.509,7.171 15.229,7.720 15.224 C 8.273 15.219,8.661 15.502,8.761 15.986 C 8.861 16.467,8.707 16.893,8.294 17.280 C 8.148 17.416,7.664 17.769,7.218 18.064 C 5.871 18.954,5.398 19.481,5.116 20.401 C 5.048 20.624,5.024 20.802,5.022 21.102 C 5.020 21.464,5.030 21.519,5.116 21.646 C 5.169 21.724,5.276 21.831,5.353 21.884 L 5.494 21.980 7.657 21.992 C 9.144 22.000,9.867 21.991,9.971 21.960 C 10.375 21.842,10.583 21.415,10.443 20.990 C 10.391 20.831,10.188 20.623,10.027 20.562 C 9.955 20.535,9.340 20.520,8.295 20.520 L 6.675 20.520 6.748 20.396 C 6.880 20.170,7.255 19.836,7.720 19.529 C 7.973 19.363,8.359 19.108,8.577 18.964 C 8.795 18.820,9.124 18.560,9.306 18.387 C 9.956 17.772,10.241 17.174,10.271 16.360 C 10.291 15.808,10.227 15.482,10.010 15.040 C 9.716 14.441,9.029 13.923,8.340 13.780 C 7.945 13.697,7.366 13.707,7.003 13.802 " stroke="none" fill-rule="evenodd" fill="black"></path></svg>