<svg xmlns="http://www.w3.org/2000/svg" width="24" height="24" viewBox="0 0 24 24"><path d="M3.580 1.047 C 2.859 1.185,2.199 1.848,2.044 2.592 C 1.982 2.892,1.982 20.108,2.044 20.408 C 2.201 21.158,2.842 21.799,3.592 21.956 C 3.731 21.985,4.508 22.000,5.852 21.999 C 7.766 21.998,7.911 21.993,8.065 21.923 C 8.268 21.831,8.422 21.635,8.477 21.399 C 8.500 21.300,8.518 20.727,8.519 20.110 L 8.520 19.000 10.000 19.000 L 11.480 19.000 11.481 20.110 C 11.482 20.727,11.500 21.300,11.523 21.399 C 11.578 21.635,11.732 21.831,11.935 21.923 C 12.093 21.995,12.281 21.998,16.148 21.999 C 18.952 22.000,20.261 21.986,20.408 21.956 C 21.158 21.799,21.799 21.158,21.956 20.408 C 21.986 20.261,22.000 18.905,22.000 15.986 C 22.000 12.338,21.992 11.745,21.939 11.538 C 21.799 10.994,21.553 10.662,20.968 10.226 C 20.576 9.934,20.462 9.880,20.247 9.881 C 19.792 9.884,19.420 10.341,19.519 10.777 C 19.565 10.979,19.656 11.099,19.924 11.312 C 20.043 11.406,20.216 11.551,20.310 11.634 L 20.480 11.784 20.480 15.989 L 20.480 20.194 20.377 20.316 C 20.321 20.383,20.209 20.456,20.127 20.479 C 20.045 20.501,19.539 20.520,18.980 20.520 L 17.980 20.520 17.992 11.690 C 18.001 5.237,17.992 2.795,17.958 2.620 C 17.812 1.845,17.151 1.184,16.383 1.043 C 16.077 0.987,3.875 0.991,3.580 1.047 M16.344 2.656 L 16.480 2.792 16.480 11.493 L 16.480 20.194 16.377 20.316 C 16.321 20.383,16.209 20.456,16.127 20.479 C 16.039 20.503,15.383 20.520,14.490 20.520 L 13.000 20.520 13.000 19.319 C 13.000 18.328,12.989 18.092,12.938 17.970 C 12.859 17.780,12.775 17.689,12.592 17.596 C 12.451 17.524,12.319 17.520,10.000 17.520 C 7.681 17.520,7.549 17.524,7.408 17.596 C 7.225 17.689,7.141 17.780,7.062 17.970 C 7.011 18.092,7.000 18.328,7.000 19.319 L 7.000 20.520 5.510 20.520 C 4.617 20.520,3.961 20.503,3.873 20.479 C 3.791 20.456,3.679 20.383,3.623 20.316 L 3.520 20.194 3.520 11.493 L 3.520 2.792 3.656 2.656 L 3.792 2.520 10.000 2.520 L 16.208 2.520 16.344 2.656 M5.935 5.077 C 5.559 5.248,5.395 5.737,5.592 6.105 C 5.658 6.229,5.906 6.434,6.031 6.469 C 6.172 6.509,6.828 6.509,6.969 6.469 C 7.094 6.434,7.342 6.229,7.408 6.105 C 7.605 5.737,7.441 5.248,7.065 5.077 C 6.831 4.971,6.169 4.971,5.935 5.077 M9.460 5.075 C 8.795 5.376,8.890 6.324,9.600 6.476 C 10.078 6.579,10.529 6.505,10.758 6.286 C 11.148 5.914,11.038 5.301,10.540 5.075 C 10.315 4.972,9.685 4.972,9.460 5.075 M12.935 5.077 C 12.559 5.248,12.395 5.737,12.592 6.105 C 12.658 6.229,12.906 6.434,13.031 6.469 C 13.172 6.509,13.828 6.509,13.969 6.469 C 14.094 6.434,14.342 6.229,14.408 6.105 C 14.605 5.737,14.441 5.248,14.065 5.077 C 13.831 4.971,13.169 4.971,12.935 5.077 M5.940 8.567 C 5.827 8.629,5.641 8.806,5.590 8.899 C 5.395 9.260,5.561 9.753,5.935 9.923 C 6.169 10.029,6.831 10.029,7.065 9.923 C 7.439 9.753,7.605 9.260,7.410 8.899 C 7.344 8.778,7.153 8.610,7.027 8.563 C 6.879 8.507,6.043 8.510,5.940 8.567 M9.394 8.601 C 8.963 8.828,8.873 9.381,9.208 9.744 C 9.402 9.954,9.543 10.000,10.000 10.000 C 10.457 10.000,10.598 9.954,10.792 9.744 C 11.130 9.377,11.036 8.822,10.598 8.599 C 10.376 8.486,9.609 8.487,9.394 8.601 M12.940 8.567 C 12.827 8.629,12.641 8.806,12.590 8.899 C 12.395 9.260,12.561 9.753,12.935 9.923 C 13.169 10.029,13.831 10.029,14.065 9.923 C 14.439 9.753,14.605 9.260,14.410 8.899 C 14.344 8.778,14.153 8.610,14.027 8.563 C 13.879 8.507,13.043 8.510,12.940 8.567 M5.935 12.077 C 5.559 12.248,5.395 12.737,5.592 13.105 C 5.658 13.229,5.906 13.434,6.031 13.469 C 6.172 13.509,6.828 13.509,6.969 13.469 C 7.094 13.434,7.342 13.229,7.408 13.105 C 7.605 12.737,7.441 12.248,7.065 12.077 C 6.939 12.019,6.805 12.002,6.500 12.002 C 6.195 12.002,6.061 12.019,5.935 12.077 M9.460 12.075 C 8.795 12.376,8.890 13.324,9.600 13.476 C 10.078 13.579,10.529 13.505,10.758 13.286 C 11.148 12.914,11.038 12.301,10.540 12.075 C 10.421 12.021,10.282 12.002,10.000 12.002 C 9.718 12.002,9.579 12.021,9.460 12.075 M12.935 12.077 C 12.559 12.248,12.395 12.737,12.592 13.105 C 12.658 13.229,12.906 13.434,13.031 13.469 C 13.172 13.509,13.828 13.509,13.969 13.469 C 14.094 13.434,14.342 13.229,14.408 13.105 C 14.605 12.737,14.441 12.248,14.065 12.077 C 13.939 12.019,13.805 12.002,13.500 12.002 C 13.195 12.002,13.061 12.019,12.935 12.077 " stroke="none" fill-rule="evenodd" fill="black"></path></svg>