<svg xmlns="http://www.w3.org/2000/svg" width="16" height="16" viewBox="0 0 16 16"><path d="M1.442 0.029 C 0.800 0.156,0.295 0.596,0.087 1.210 L 0.013 1.427 0.006 7.933 C -0.000 14.361,0.000 14.442,0.053 14.653 C 0.138 14.995,0.273 15.234,0.519 15.481 C 0.765 15.726,1.004 15.861,1.344 15.947 C 1.544 15.997,1.646 16.000,3.213 16.000 C 5.071 16.000,5.016 16.005,5.240 15.808 C 5.475 15.601,5.479 15.584,5.488 14.740 L 5.496 14.000 6.000 14.000 L 6.504 14.000 6.512 14.740 C 6.521 15.585,6.525 15.601,6.761 15.809 C 6.995 16.014,6.696 16.001,10.854 15.993 L 14.573 15.987 14.790 15.913 C 15.036 15.830,15.347 15.636,15.511 15.463 C 15.678 15.287,15.832 15.029,15.914 14.789 L 15.987 14.573 15.987 11.267 L 15.987 7.960 15.912 7.741 C 15.828 7.491,15.631 7.180,15.455 7.018 C 15.282 6.858,14.074 6.062,13.955 6.028 C 13.417 5.879,12.892 6.360,13.011 6.893 C 13.074 7.174,13.151 7.252,13.826 7.707 C 14.189 7.952,14.453 8.147,14.473 8.187 C 14.499 8.239,14.505 8.898,14.500 11.299 L 14.493 14.345 14.419 14.419 L 14.345 14.493 13.166 14.501 L 11.987 14.508 11.987 7.967 L 11.987 1.427 11.914 1.211 C 11.734 0.683,11.318 0.266,10.792 0.088 L 10.573 0.013 6.067 0.009 C 3.569 0.007,1.507 0.016,1.442 0.029 M10.419 1.581 L 10.493 1.655 10.493 8.000 L 10.493 14.345 10.419 14.419 L 10.345 14.493 9.173 14.501 L 8.000 14.508 8.000 13.819 C 8.000 13.046,7.987 12.968,7.823 12.776 C 7.771 12.716,7.673 12.633,7.604 12.593 L 7.480 12.520 6.000 12.520 L 4.520 12.520 4.396 12.593 C 4.327 12.633,4.229 12.716,4.177 12.776 C 4.013 12.968,4.000 13.046,4.000 13.819 L 4.000 14.508 2.827 14.501 L 1.655 14.493 1.581 14.419 L 1.507 14.345 1.507 8.002 C 1.507 1.696,1.507 1.659,1.560 1.600 C 1.589 1.567,1.637 1.530,1.667 1.518 C 1.696 1.506,3.661 1.499,6.033 1.502 L 10.345 1.507 10.419 1.581 M3.420 3.082 C 2.852 3.365,2.875 4.175,3.458 4.445 C 3.608 4.514,4.392 4.514,4.542 4.445 C 5.124 4.176,5.147 3.364,4.580 3.082 C 4.449 3.017,4.422 3.013,4.000 3.013 C 3.578 3.013,3.551 3.017,3.420 3.082 M7.420 3.082 C 6.852 3.365,6.875 4.175,7.458 4.445 C 7.608 4.514,8.392 4.514,8.542 4.445 C 9.124 4.176,9.147 3.364,8.580 3.082 C 8.449 3.017,8.422 3.013,8.000 3.013 C 7.578 3.013,7.551 3.017,7.420 3.082 M3.504 6.049 C 3.259 6.134,3.094 6.317,3.027 6.579 C 2.960 6.840,3.027 7.080,3.222 7.276 C 3.410 7.463,3.474 7.480,4.000 7.480 C 4.410 7.480,4.479 7.474,4.572 7.428 C 4.697 7.366,4.860 7.209,4.919 7.095 C 5.077 6.790,4.987 6.386,4.712 6.161 C 4.563 6.039,4.395 6.002,4.000 6.002 C 3.726 6.002,3.608 6.013,3.504 6.049 M7.504 6.049 C 7.259 6.134,7.094 6.317,7.027 6.579 C 6.960 6.840,7.027 7.080,7.222 7.276 C 7.410 7.463,7.474 7.480,8.000 7.480 C 8.410 7.480,8.479 7.474,8.572 7.428 C 8.697 7.366,8.860 7.209,8.919 7.095 C 9.077 6.790,8.987 6.386,8.712 6.161 C 8.563 6.039,8.395 6.002,8.000 6.002 C 7.726 6.002,7.608 6.013,7.504 6.049 M3.420 9.082 C 2.852 9.365,2.875 10.175,3.458 10.445 C 3.608 10.514,4.392 10.514,4.542 10.445 C 5.124 10.176,5.147 9.364,4.580 9.082 C 4.449 9.017,4.422 9.013,4.000 9.013 C 3.578 9.013,3.551 9.017,3.420 9.082 M7.420 9.082 C 6.852 9.365,6.875 10.175,7.458 10.445 C 7.608 10.514,8.392 10.514,8.542 10.445 C 9.124 10.176,9.147 9.364,8.580 9.082 C 8.449 9.017,8.422 9.013,8.000 9.013 C 7.578 9.013,7.551 9.017,7.420 9.082 " stroke="none" fill-rule="evenodd" fill="black"></path></svg>