<svg xmlns="http://www.w3.org/2000/svg" width="24" height="24" viewBox="0 0 24 24"><path d="M9.613 0.458 C 9.478 0.488,9.325 0.536,9.273 0.563 C 8.988 0.712,0.840 5.425,0.740 5.498 C 0.674 5.546,0.533 5.627,0.427 5.678 C 0.304 5.737,0.196 5.828,0.127 5.932 L 0.020 6.094 0.020 11.457 L 0.020 16.820 0.113 17.050 C 0.229 17.337,0.453 17.638,0.683 17.816 C 0.981 18.047,9.689 23.053,9.860 23.092 C 10.207 23.172,10.619 22.925,10.715 22.579 C 10.747 22.467,10.760 20.896,10.762 17.260 L 10.764 12.100 14.582 9.900 C 16.682 8.690,18.419 7.694,18.440 7.687 C 18.466 7.678,18.480 8.124,18.481 8.947 C 18.482 9.676,18.500 10.297,18.523 10.399 C 18.675 11.058,19.499 11.208,19.884 10.647 L 19.980 10.506 19.990 8.363 C 20.001 5.935,20.005 5.971,19.710 5.757 C 19.621 5.693,19.527 5.640,19.502 5.640 C 19.477 5.640,19.385 5.588,19.298 5.525 C 18.994 5.304,10.778 0.583,10.577 0.513 C 10.286 0.414,9.905 0.392,9.613 0.458 M13.888 4.111 C 15.972 5.315,17.680 6.317,17.683 6.338 C 17.689 6.373,10.068 10.800,10.003 10.800 C 9.937 10.800,2.311 6.373,2.317 6.338 C 2.329 6.271,9.894 1.923,10.000 1.922 C 10.060 1.922,11.627 2.804,13.888 4.111 M5.404 9.890 L 9.237 12.100 9.239 16.570 C 9.239 19.029,9.234 21.040,9.227 21.040 C 9.186 21.040,1.575 16.624,1.551 16.586 C 1.515 16.530,1.509 7.680,1.545 7.680 C 1.559 7.680,3.295 8.675,5.404 9.890 M18.634 13.610 C 18.554 13.660,17.497 14.625,16.286 15.755 C 13.988 17.901,13.959 17.932,13.961 18.251 C 13.963 18.562,14.026 18.630,16.326 20.780 C 17.696 22.062,18.601 22.879,18.700 22.925 C 19.005 23.065,19.315 23.003,19.545 22.755 C 19.770 22.513,19.815 22.153,19.654 21.880 C 19.619 21.821,18.926 21.153,18.113 20.396 L 16.636 19.020 20.068 19.000 C 22.629 18.985,23.521 18.968,23.583 18.932 C 23.629 18.906,23.732 18.813,23.811 18.725 C 24.129 18.373,24.024 17.816,23.598 17.599 C 23.448 17.522,23.348 17.520,20.042 17.520 C 18.171 17.520,16.641 17.507,16.643 17.490 C 16.645 17.473,17.304 16.848,18.108 16.101 C 18.912 15.353,19.597 14.701,19.629 14.652 C 19.727 14.502,19.766 14.252,19.719 14.077 C 19.667 13.884,19.466 13.647,19.292 13.574 C 19.091 13.490,18.803 13.506,18.634 13.610 " stroke="none" fill-rule="evenodd" fill="black"></path></svg>