<svg xmlns="http://www.w3.org/2000/svg" width="16" height="16" viewBox="0 0 16 16"><path d="M7.587 0.210 C 7.484 0.236,7.340 0.286,7.266 0.322 C 6.957 0.472,1.745 3.515,1.631 3.612 C 1.352 3.849,1.153 4.159,1.048 4.520 C 1.005 4.667,1.000 4.928,0.993 7.853 C 0.987 9.863,0.994 11.100,1.011 11.227 C 1.086 11.789,1.355 12.224,1.813 12.520 C 1.909 12.582,3.172 13.319,4.620 14.159 C 6.288 15.126,7.324 15.711,7.447 15.755 C 7.619 15.817,7.679 15.824,8.000 15.824 C 8.321 15.824,8.381 15.817,8.553 15.755 C 8.676 15.711,9.712 15.126,11.380 14.159 C 12.828 13.319,14.091 12.582,14.187 12.520 C 14.641 12.226,14.916 11.785,14.989 11.229 C 15.006 11.100,15.013 9.884,15.007 7.853 C 14.999 4.900,14.995 4.669,14.950 4.520 C 14.839 4.147,14.649 3.850,14.369 3.612 C 14.249 3.510,9.020 0.459,8.720 0.317 C 8.397 0.163,7.947 0.121,7.587 0.210 M10.391 3.003 C 11.650 3.732,12.694 4.342,12.711 4.358 C 12.734 4.379,12.125 4.744,10.395 5.747 C 9.104 6.495,8.026 7.107,8.000 7.107 C 7.974 7.107,6.896 6.495,5.605 5.747 C 3.874 4.744,3.266 4.379,3.289 4.358 C 3.319 4.330,7.676 1.800,7.867 1.700 C 7.921 1.671,7.989 1.656,8.031 1.664 C 8.070 1.672,9.132 2.274,10.391 3.003 M5.273 7.287 L 7.253 8.435 7.253 11.193 L 7.253 13.952 7.167 13.901 C 7.119 13.873,6.078 13.270,4.853 12.562 C 3.629 11.853,2.600 11.244,2.567 11.208 L 2.507 11.144 2.507 8.413 L 2.507 5.682 2.900 5.910 C 3.116 6.036,4.184 6.655,5.273 7.287 M13.447 11.194 C 13.414 11.237,9.317 13.640,8.793 13.923 C 8.749 13.947,8.747 13.809,8.747 11.192 L 8.747 8.435 11.113 7.062 L 13.480 5.690 13.487 8.412 C 13.493 10.973,13.491 11.137,13.447 11.194 " stroke="none" fill-rule="evenodd" fill="black"></path></svg>