<svg xmlns="http://www.w3.org/2000/svg" width="16" height="16" viewBox="0 0 16 16"><path d="M6.617 0.201 C 6.523 0.221,6.373 0.273,6.283 0.315 C 6.061 0.420,0.845 3.449,0.688 3.564 C 0.427 3.755,0.213 4.054,0.085 4.404 L 0.013 4.600 0.005 7.920 C -0.003 11.636,-0.014 11.413,0.189 11.828 C 0.312 12.081,0.500 12.302,0.729 12.463 C 0.941 12.613,6.246 15.688,6.402 15.752 C 6.486 15.786,6.589 15.800,6.761 15.800 C 6.978 15.800,7.018 15.792,7.178 15.713 C 7.398 15.605,7.598 15.394,7.685 15.180 L 7.747 15.027 7.760 11.723 L 7.773 8.420 10.133 7.051 L 12.493 5.682 12.507 6.581 C 12.522 7.605,12.520 7.597,12.760 7.808 C 13.066 8.077,13.487 8.063,13.775 7.775 C 14.003 7.548,14.000 7.567,14.000 6.053 C 14.000 4.842,13.996 4.741,13.947 4.544 C 13.847 4.151,13.631 3.812,13.333 3.583 C 13.176 3.462,7.988 0.444,7.718 0.316 C 7.404 0.167,6.977 0.123,6.617 0.201 M8.442 2.456 C 9.204 2.897,10.255 3.506,10.780 3.809 C 11.304 4.112,11.733 4.367,11.733 4.374 C 11.734 4.404,7.052 7.105,7.000 7.105 C 6.948 7.105,2.266 4.404,2.267 4.374 C 2.267 4.367,2.582 4.178,2.967 3.956 C 3.352 3.734,4.404 3.125,5.305 2.603 C 6.205 2.081,6.968 1.653,7.000 1.653 C 7.032 1.653,7.681 2.014,8.442 2.456 M3.933 7.089 L 6.227 8.420 6.233 11.183 L 6.240 13.945 6.087 13.855 C 6.002 13.806,4.967 13.206,3.787 12.521 C 2.606 11.837,1.610 11.247,1.573 11.211 L 1.507 11.145 1.500 8.412 L 1.493 5.678 1.566 5.718 C 1.607 5.739,2.672 6.356,3.933 7.089 M12.720 9.517 C 12.372 9.592,12.127 9.898,12.127 10.258 C 12.127 10.534,12.189 10.625,12.877 11.347 L 13.487 11.987 11.763 12.000 L 10.040 12.013 9.893 12.096 C 9.631 12.244,9.467 12.551,9.504 12.824 C 9.528 12.999,9.639 13.210,9.765 13.318 C 9.974 13.497,9.931 13.493,11.807 13.493 L 13.498 13.493 13.342 13.662 C 13.257 13.755,12.969 14.060,12.703 14.341 C 12.289 14.776,12.212 14.870,12.173 14.989 C 11.954 15.648,12.636 16.239,13.227 15.903 C 13.404 15.802,15.840 13.244,15.927 13.067 C 16.014 12.892,16.010 12.594,15.919 12.422 C 15.878 12.343,15.428 11.849,14.717 11.102 C 13.286 9.598,13.332 9.644,13.195 9.578 C 13.063 9.514,12.855 9.488,12.720 9.517 " stroke="none" fill-rule="evenodd" fill="black"></path></svg>