<svg xmlns="http://www.w3.org/2000/svg" width="24" height="24" viewBox="0 0 24 24"><path d="M9.613 0.458 C 9.478 0.488,9.325 0.536,9.273 0.563 C 8.988 0.712,0.840 5.425,0.740 5.498 C 0.674 5.546,0.533 5.627,0.427 5.678 C 0.304 5.737,0.196 5.828,0.127 5.932 L 0.020 6.094 0.020 11.457 L 0.020 16.820 0.113 17.050 C 0.229 17.337,0.453 17.638,0.683 17.816 C 0.981 18.047,9.689 23.053,9.860 23.092 C 10.207 23.172,10.619 22.925,10.715 22.579 C 10.747 22.467,10.760 20.896,10.762 17.260 L 10.764 12.100 14.582 9.900 C 16.682 8.690,18.419 7.694,18.440 7.687 C 18.466 7.678,18.480 8.124,18.481 8.947 C 18.482 9.676,18.500 10.297,18.523 10.399 C 18.675 11.058,19.499 11.208,19.884 10.647 L 19.980 10.506 19.990 8.363 C 20.001 5.935,20.005 5.971,19.710 5.757 C 19.621 5.693,19.527 5.640,19.502 5.640 C 19.477 5.640,19.385 5.588,19.298 5.525 C 18.994 5.304,10.778 0.583,10.577 0.513 C 10.286 0.414,9.905 0.392,9.613 0.458 M13.888 4.111 C 15.972 5.315,17.680 6.317,17.683 6.338 C 17.689 6.373,10.068 10.800,10.003 10.800 C 9.937 10.800,2.311 6.373,2.317 6.338 C 2.329 6.271,9.894 1.923,10.000 1.922 C 10.060 1.922,11.627 2.804,13.888 4.111 M5.404 9.890 L 9.237 12.100 9.239 16.570 C 9.239 19.029,9.234 21.040,9.227 21.040 C 9.186 21.040,1.575 16.624,1.551 16.586 C 1.515 16.530,1.509 7.680,1.545 7.680 C 1.559 7.680,3.295 8.675,5.404 9.890 M18.660 13.553 C 18.370 13.692,18.200 13.939,18.200 14.222 C 18.200 14.549,18.257 14.615,19.815 16.069 C 20.632 16.831,21.306 17.470,21.313 17.488 C 21.321 17.505,19.794 17.520,17.922 17.520 C 14.660 17.520,14.511 17.523,14.368 17.596 C 14.287 17.637,14.189 17.706,14.152 17.747 C 14.051 17.858,13.960 18.098,13.960 18.250 C 13.960 18.436,14.112 18.713,14.294 18.858 L 14.447 18.980 17.888 19.000 L 21.328 19.020 19.854 20.392 C 18.922 21.260,18.347 21.825,18.290 21.929 C 18.121 22.236,18.213 22.643,18.500 22.862 C 18.682 23.001,19.024 23.042,19.241 22.950 C 19.385 22.889,23.666 18.918,23.855 18.670 C 23.996 18.485,24.031 18.214,23.944 17.985 C 23.887 17.836,23.544 17.499,21.654 15.735 C 20.431 14.594,19.381 13.628,19.319 13.589 C 19.147 13.478,18.851 13.462,18.660 13.553 " stroke="none" fill-rule="evenodd" fill="black"></path></svg>