<svg xmlns="http://www.w3.org/2000/svg" width="16" height="16" viewBox="0 0 16 16"><path d="M6.617 0.201 C 6.523 0.221,6.373 0.273,6.283 0.315 C 6.061 0.420,0.845 3.449,0.688 3.564 C 0.427 3.755,0.213 4.054,0.085 4.404 L 0.013 4.600 0.005 7.920 C -0.003 11.636,-0.014 11.413,0.189 11.828 C 0.312 12.081,0.500 12.302,0.729 12.463 C 0.941 12.613,6.246 15.688,6.402 15.752 C 6.486 15.786,6.589 15.800,6.761 15.800 C 6.978 15.800,7.018 15.792,7.178 15.713 C 7.398 15.605,7.598 15.394,7.685 15.180 L 7.747 15.027 7.760 11.723 L 7.773 8.420 10.133 7.051 L 12.493 5.682 12.507 6.581 C 12.522 7.605,12.520 7.597,12.760 7.808 C 13.066 8.077,13.487 8.063,13.775 7.775 C 14.003 7.548,14.000 7.567,14.000 6.053 C 14.000 4.842,13.996 4.741,13.947 4.544 C 13.847 4.151,13.631 3.812,13.333 3.583 C 13.176 3.462,7.988 0.444,7.718 0.316 C 7.404 0.167,6.977 0.123,6.617 0.201 M8.442 2.456 C 9.204 2.897,10.255 3.506,10.780 3.809 C 11.304 4.112,11.733 4.367,11.733 4.374 C 11.734 4.404,7.052 7.105,7.000 7.105 C 6.948 7.105,2.266 4.404,2.267 4.374 C 2.267 4.367,2.582 4.178,2.967 3.956 C 3.352 3.734,4.404 3.125,5.305 2.603 C 6.205 2.081,6.968 1.653,7.000 1.653 C 7.032 1.653,7.681 2.014,8.442 2.456 M3.933 7.089 L 6.227 8.420 6.233 11.183 L 6.240 13.945 6.087 13.855 C 6.002 13.806,4.967 13.206,3.787 12.521 C 2.606 11.837,1.610 11.247,1.573 11.211 L 1.507 11.145 1.500 8.412 L 1.493 5.678 1.566 5.718 C 1.607 5.739,2.672 6.356,3.933 7.089 M12.467 9.517 C 12.249 9.574,12.152 9.664,10.914 10.961 C 9.527 12.415,9.507 12.441,9.507 12.747 C 9.507 13.054,9.529 13.083,10.876 14.501 C 11.541 15.201,12.139 15.812,12.204 15.859 C 12.414 16.011,12.640 16.039,12.890 15.946 C 13.183 15.836,13.368 15.570,13.371 15.253 C 13.375 14.968,13.312 14.877,12.616 14.147 L 12.006 13.507 13.743 13.493 C 15.471 13.480,15.481 13.480,15.590 13.421 C 15.737 13.343,15.906 13.146,15.958 12.994 C 16.078 12.642,15.932 12.278,15.596 12.092 L 15.453 12.013 13.726 12.006 L 11.999 11.999 12.616 11.353 C 13.317 10.619,13.374 10.535,13.371 10.240 C 13.369 10.145,13.350 10.022,13.326 9.968 C 13.266 9.829,13.085 9.641,12.946 9.576 C 12.813 9.514,12.586 9.486,12.467 9.517 " stroke="none" fill-rule="evenodd" fill="black"></path></svg>