<svg xmlns="http://www.w3.org/2000/svg" width="24" height="24" viewBox="0 0 24 24"><path d="M11.613 0.458 C 11.478 0.488,11.325 0.536,11.273 0.563 C 10.799 0.813,2.813 5.445,2.667 5.555 C 2.420 5.740,2.181 6.098,2.079 6.435 C 2.000 6.695,1.999 6.792,2.009 11.760 L 2.020 16.820 2.113 17.050 C 2.229 17.337,2.453 17.639,2.683 17.816 C 2.924 18.001,11.079 22.709,11.380 22.836 C 11.725 22.982,12.275 22.982,12.620 22.836 C 12.901 22.718,21.050 18.018,21.328 17.814 C 21.566 17.639,21.816 17.267,21.920 16.932 C 21.998 16.677,22.000 16.566,22.000 11.680 C 22.000 6.794,21.998 6.683,21.920 6.428 C 21.816 6.094,21.578 5.739,21.333 5.555 C 21.032 5.328,12.805 0.591,12.577 0.513 C 12.286 0.414,11.905 0.392,11.613 0.458 M15.888 4.111 C 17.972 5.315,19.680 6.317,19.683 6.338 C 19.689 6.373,12.067 10.800,12.001 10.800 C 11.935 10.800,4.311 6.373,4.317 6.338 C 4.329 6.271,11.894 1.923,12.000 1.922 C 12.060 1.922,13.627 2.804,15.888 4.111 M7.418 9.900 L 11.237 12.100 11.238 16.570 C 11.239 19.029,11.233 21.040,11.225 21.040 C 11.181 21.040,3.577 16.628,3.551 16.587 C 3.504 16.513,3.513 7.671,3.560 7.687 C 3.582 7.694,5.318 8.690,7.418 9.900 M20.479 12.110 C 20.479 14.547,20.465 16.562,20.448 16.589 C 20.422 16.630,12.820 21.040,12.775 21.040 C 12.767 21.040,12.761 19.029,12.762 16.570 L 12.763 12.100 16.592 9.892 C 18.697 8.677,20.433 7.683,20.450 7.682 C 20.466 7.681,20.480 9.674,20.479 12.110 " stroke="none" fill-rule="evenodd" fill="black"></path></svg>