<svg xmlns="http://www.w3.org/2000/svg" width="16" height="16" viewBox="0 0 16 16"><path d="M13.747 0.257 C 13.717 0.262,13.627 0.280,13.547 0.295 C 13.016 0.397,12.220 0.782,11.467 1.302 C 10.403 2.036,9.253 3.024,7.533 4.684 C 6.457 5.721,5.967 6.254,5.422 6.979 C 5.129 7.368,4.781 7.898,4.640 8.169 L 4.573 8.297 4.455 8.279 C 4.234 8.247,3.640 8.262,3.371 8.307 C 2.276 8.489,1.293 9.178,0.840 10.080 C 0.565 10.626,0.329 11.494,0.189 12.467 C 0.082 13.209,0.000 14.322,0.000 15.029 C -0.000 15.469,0.036 15.586,0.228 15.778 C 0.443 15.993,0.536 16.012,1.293 15.991 C 3.019 15.945,4.536 15.712,5.494 15.346 C 6.036 15.140,6.396 14.910,6.731 14.558 C 7.227 14.037,7.566 13.362,7.697 12.640 C 7.745 12.374,7.762 11.720,7.725 11.542 L 7.705 11.445 8.004 11.276 C 8.959 10.735,9.794 10.070,10.943 8.935 C 13.507 6.400,15.105 4.347,15.581 2.973 C 15.723 2.564,15.770 2.318,15.770 1.987 C 15.771 1.454,15.624 1.083,15.273 0.733 C 14.921 0.383,14.555 0.238,14.040 0.244 C 13.908 0.245,13.776 0.251,13.747 0.257 M14.217 1.790 C 14.267 1.840,14.272 1.868,14.260 2.050 C 14.244 2.297,14.176 2.503,13.975 2.907 C 13.566 3.729,12.788 4.774,11.644 6.040 C 11.294 6.428,9.943 7.840,9.922 7.840 C 9.914 7.840,9.522 7.455,9.053 6.985 L 8.200 6.130 8.601 5.738 C 9.761 4.605,10.888 3.606,11.742 2.955 C 12.904 2.068,13.986 1.559,14.217 1.790 M8.799 8.880 C 8.798 8.907,8.167 9.392,7.893 9.577 C 7.611 9.767,7.228 10.000,7.198 10.000 C 7.189 10.000,7.104 9.895,7.008 9.767 C 6.805 9.496,6.439 9.134,6.179 8.950 L 5.998 8.821 6.070 8.697 C 6.283 8.332,6.703 7.745,6.996 7.404 L 7.154 7.221 7.977 8.044 C 8.430 8.496,8.800 8.872,8.799 8.880 M4.609 9.838 C 5.364 10.057,5.946 10.643,6.167 11.407 C 6.253 11.706,6.253 12.295,6.166 12.595 C 6.053 12.988,5.765 13.460,5.524 13.650 C 5.150 13.945,4.237 14.212,3.101 14.359 C 2.739 14.405,1.846 14.480,1.648 14.480 L 1.514 14.480 1.532 14.180 C 1.640 12.377,1.931 11.044,2.339 10.493 C 2.520 10.248,3.013 9.943,3.392 9.842 C 3.681 9.764,3.692 9.763,4.067 9.773 C 4.320 9.779,4.466 9.797,4.609 9.838 " stroke="none" fill-rule="evenodd" fill="black"></path></svg>