<svg xmlns="http://www.w3.org/2000/svg" width="16" height="16" viewBox="0 0 16 16"><path d="M1.056 1.150 C 0.856 1.197,0.608 1.341,0.442 1.507 C 0.185 1.765,0.054 2.078,0.054 2.440 C 0.053 2.563,0.213 3.544,0.521 5.314 L 0.988 8.001 0.521 10.683 C 0.168 12.705,0.053 13.418,0.054 13.582 C 0.055 14.102,0.387 14.588,0.879 14.791 C 1.101 14.882,1.511 14.909,1.724 14.845 C 1.960 14.775,15.388 9.008,15.516 8.922 C 15.679 8.813,15.847 8.600,15.923 8.409 C 16.011 8.188,16.011 7.812,15.923 7.591 C 15.848 7.402,15.683 7.194,15.517 7.080 C 15.381 6.987,1.936 1.214,1.720 1.156 C 1.570 1.116,1.214 1.113,1.056 1.150 M7.767 5.362 C 11.136 6.806,13.893 7.993,13.893 8.002 C 13.893 8.021,1.620 13.282,1.607 13.269 C 1.602 13.264,1.772 12.257,1.985 11.031 C 2.199 9.805,2.373 8.789,2.373 8.774 C 2.373 8.755,3.172 8.747,4.875 8.747 C 7.730 8.747,7.535 8.762,7.778 8.519 C 8.077 8.220,8.076 7.779,7.775 7.478 C 7.537 7.240,7.713 7.253,4.862 7.253 C 3.168 7.253,2.373 7.245,2.373 7.226 C 2.373 7.211,2.199 6.198,1.987 4.977 C 1.774 3.755,1.600 2.746,1.600 2.736 C 1.600 2.725,1.609 2.722,1.620 2.728 C 1.631 2.733,4.397 3.919,7.767 5.362 " stroke="none" fill-rule="evenodd" fill="black"></path></svg>