<svg xmlns="http://www.w3.org/2000/svg" width="24" height="24" viewBox="0 0 24 24"><path d="M1.931 1.712 C 1.440 1.908,1.128 2.315,1.054 2.855 C 1.039 2.970,1.256 4.402,1.760 7.511 L 2.487 12.000 1.760 16.487 C 1.185 20.030,1.038 21.017,1.058 21.179 C 1.157 21.966,1.962 22.538,2.705 22.347 C 2.886 22.300,20.950 13.731,22.265 13.068 C 23.044 12.675,23.240 11.832,22.689 11.240 C 22.505 11.043,22.252 10.920,12.760 6.395 C 7.403 3.842,2.950 1.727,2.865 1.696 C 2.652 1.619,2.142 1.628,1.931 1.712 M11.869 7.632 C 16.890 10.024,20.998 11.989,20.998 12.000 C 20.999 12.032,2.638 20.771,2.616 20.749 C 2.605 20.738,2.885 18.949,3.238 16.772 C 3.591 14.596,3.880 12.803,3.880 12.788 C 3.880 12.772,5.564 12.760,7.621 12.760 C 11.673 12.760,11.515 12.768,11.755 12.548 C 11.881 12.432,11.998 12.173,11.999 12.009 C 12.001 11.747,11.826 11.462,11.580 11.326 C 11.471 11.266,11.109 11.259,7.670 11.249 C 5.585 11.243,3.880 11.226,3.880 11.212 C 3.880 11.197,3.592 9.410,3.240 7.240 C 2.888 5.070,2.600 3.281,2.600 3.263 C 2.600 3.246,2.631 3.243,2.670 3.258 C 2.709 3.273,6.848 5.241,11.869 7.632 " stroke="none" fill-rule="evenodd" fill="black"></path></svg>