<svg xmlns="http://www.w3.org/2000/svg" width="24" height="24" viewBox="0 0 24 24"><path d="M16.740 1.285 C 16.060 1.370,15.307 1.674,14.764 2.083 C 14.400 2.357,4.260 12.502,3.985 12.868 C 2.644 14.650,2.421 17.128,3.421 19.123 C 4.032 20.341,5.105 21.382,6.314 21.926 C 6.639 22.072,7.385 22.304,7.718 22.362 C 9.032 22.590,10.398 22.383,11.552 21.780 C 12.376 21.350,12.333 21.390,17.152 16.582 C 19.645 14.095,21.718 12.005,21.760 11.938 C 22.132 11.344,21.497 10.594,20.849 10.861 C 20.744 10.905,19.390 12.232,16.220 15.397 C 13.756 17.858,11.606 19.974,11.441 20.099 C 10.592 20.747,9.378 21.085,8.322 20.967 C 6.433 20.757,4.917 19.475,4.413 17.661 C 4.288 17.211,4.241 16.257,4.319 15.769 C 4.426 15.101,4.754 14.330,5.157 13.800 C 5.266 13.657,7.673 11.225,10.507 8.397 L 15.660 3.253 16.000 3.086 C 16.403 2.887,16.776 2.801,17.240 2.801 C 18.016 2.801,18.608 3.047,19.162 3.599 C 19.647 4.082,19.881 4.555,19.965 5.217 C 20.037 5.792,19.902 6.424,19.596 6.950 C 19.406 7.276,9.943 16.762,9.681 16.889 C 9.188 17.128,8.540 16.952,8.349 16.527 C 8.228 16.258,8.231 15.846,8.357 15.580 C 8.433 15.418,9.255 14.574,12.662 11.160 C 17.301 6.511,17.033 6.810,16.927 6.415 C 16.861 6.167,16.777 6.053,16.573 5.934 C 16.338 5.796,16.003 5.812,15.773 5.971 C 15.689 6.030,13.746 7.955,11.455 10.249 C 6.973 14.738,7.092 14.609,6.877 15.240 C 6.753 15.604,6.727 16.246,6.818 16.657 C 7.008 17.509,7.539 18.086,8.400 18.375 C 9.158 18.629,9.938 18.518,10.640 18.056 C 11.030 17.799,20.561 8.243,20.809 7.860 C 21.152 7.330,21.343 6.850,21.464 6.208 C 21.558 5.707,21.523 4.913,21.382 4.404 C 21.260 3.963,21.038 3.472,20.799 3.115 C 20.587 2.800,19.977 2.189,19.675 1.990 C 18.780 1.401,17.764 1.157,16.740 1.285 " stroke="none" fill-rule="evenodd" fill="black"></path></svg>