<svg xmlns="http://www.w3.org/2000/svg" width="16" height="16" viewBox="0 0 16 16"><path d="M10.496 1.041 C 9.973 1.123,9.472 1.335,9.013 1.667 C 8.762 1.849,2.664 7.957,2.454 8.236 C 2.006 8.833,1.717 9.497,1.582 10.240 C 1.548 10.424,1.536 10.632,1.536 11.000 C 1.537 11.444,1.546 11.548,1.608 11.843 C 1.863 13.056,2.528 14.044,3.544 14.724 C 4.373 15.280,5.429 15.560,6.360 15.472 C 7.438 15.370,8.300 14.985,9.107 14.246 C 9.283 14.084,10.629 12.748,12.099 11.276 C 14.329 9.043,14.781 8.578,14.830 8.467 C 15.006 8.072,14.797 7.585,14.394 7.451 C 14.231 7.397,13.977 7.410,13.827 7.479 C 13.752 7.513,12.835 8.411,10.813 10.427 C 7.719 13.514,7.754 13.481,7.265 13.710 C 5.856 14.371,4.139 13.789,3.388 12.396 C 3.117 11.893,3.027 11.491,3.048 10.867 C 3.064 10.378,3.126 10.099,3.303 9.721 C 3.533 9.230,3.487 9.280,6.757 6.005 C 8.991 3.767,9.878 2.896,10.015 2.803 C 10.130 2.726,10.296 2.646,10.442 2.598 C 10.647 2.531,10.721 2.520,10.973 2.520 C 11.478 2.520,11.860 2.680,12.214 3.037 C 12.451 3.277,12.618 3.582,12.683 3.893 C 12.774 4.323,12.677 4.849,12.441 5.215 C 12.314 5.410,6.379 11.359,6.242 11.427 C 5.953 11.572,5.583 11.374,5.531 11.046 C 5.489 10.784,5.350 10.937,8.440 7.840 C 10.764 5.511,11.280 4.981,11.310 4.893 C 11.365 4.726,11.353 4.462,11.282 4.314 C 11.212 4.167,11.054 4.016,10.897 3.945 C 10.729 3.868,10.447 3.875,10.279 3.959 C 10.091 4.053,4.455 9.700,4.323 9.926 C 3.828 10.777,3.965 11.787,4.665 12.432 C 5.385 13.096,6.404 13.165,7.183 12.603 C 7.416 12.434,13.481 6.351,13.635 6.132 C 13.900 5.754,14.119 5.209,14.188 4.760 C 14.264 4.263,14.204 3.633,14.036 3.167 C 13.658 2.113,12.750 1.319,11.646 1.077 C 11.418 1.027,10.725 1.005,10.496 1.041 " stroke="none" fill-rule="evenodd" fill="black"></path></svg>