<svg xmlns="http://www.w3.org/2000/svg" width="24" height="24" viewBox="0 0 24 24"><path d="M8.340 0.056 C 7.691 0.218,7.176 0.746,7.037 1.396 C 7.010 1.521,6.999 1.985,7.008 2.629 C 7.021 3.597,7.028 3.674,7.114 3.880 C 7.303 4.333,7.664 4.693,8.122 4.887 L 8.340 4.980 12.000 4.980 L 15.660 4.980 15.880 4.887 C 16.335 4.694,16.695 4.333,16.886 3.878 C 16.972 3.674,16.979 3.595,16.992 2.629 C 17.001 1.985,16.990 1.521,16.963 1.396 C 16.820 0.730,16.275 0.187,15.608 0.045 C 15.293 -0.022,8.613 -0.011,8.340 0.056 M15.436 1.575 C 15.468 1.614,15.478 1.898,15.471 2.524 L 15.460 3.418 15.360 3.468 C 15.282 3.508,14.548 3.519,12.000 3.519 C 9.452 3.519,8.718 3.508,8.640 3.468 L 8.540 3.418 8.529 2.524 C 8.522 1.898,8.532 1.614,8.564 1.575 C 8.632 1.493,15.368 1.493,15.436 1.575 M4.560 2.193 C 3.923 2.413,3.722 2.524,3.472 2.791 C 3.262 3.016,3.155 3.207,3.063 3.523 C 3.005 3.723,3.000 4.582,3.010 12.702 L 3.020 21.660 3.113 21.878 C 3.307 22.336,3.665 22.695,4.120 22.887 L 4.340 22.980 12.000 22.980 L 19.660 22.980 19.880 22.887 C 20.335 22.695,20.693 22.336,20.887 21.878 L 20.980 21.660 20.990 12.702 C 21.002 2.958,21.015 3.581,20.792 3.144 C 20.676 2.917,20.354 2.591,20.119 2.463 C 19.859 2.322,18.901 2.000,18.740 2.000 C 18.559 2.000,18.234 2.178,18.129 2.334 C 17.922 2.640,17.996 3.113,18.285 3.329 C 18.359 3.385,18.619 3.495,18.862 3.576 C 19.105 3.656,19.344 3.749,19.392 3.783 L 19.480 3.845 19.480 12.617 C 19.480 20.729,19.475 21.394,19.414 21.445 C 19.358 21.491,18.169 21.500,12.000 21.500 C 5.831 21.500,4.642 21.491,4.586 21.445 C 4.525 21.394,4.520 20.729,4.520 12.617 L 4.520 3.845 4.608 3.783 C 4.656 3.749,4.895 3.656,5.138 3.576 C 5.646 3.408,5.818 3.296,5.923 3.065 C 6.100 2.677,5.938 2.260,5.540 2.076 C 5.305 1.967,5.159 1.985,4.560 2.193 " stroke="none" fill-rule="evenodd" fill="black"></path></svg>