<svg xmlns="http://www.w3.org/2000/svg" width="16" height="16" viewBox="0 0 16 16"><path d="M5.420 1.082 C 5.261 1.161,5.136 1.293,5.056 1.465 C 5.001 1.585,5.000 1.615,5.000 3.253 C 5.000 4.902,5.001 4.921,5.057 5.044 C 5.126 5.193,5.283 5.356,5.428 5.428 C 5.530 5.479,5.601 5.480,8.000 5.480 C 10.399 5.480,10.470 5.479,10.572 5.428 C 10.717 5.356,10.874 5.193,10.943 5.044 C 10.999 4.921,11.000 4.902,11.000 3.253 C 11.000 1.615,10.999 1.585,10.944 1.465 C 10.864 1.293,10.739 1.161,10.580 1.082 L 10.443 1.013 8.000 1.013 L 5.557 1.013 5.420 1.082 M3.036 2.169 C 2.703 2.293,2.365 2.612,2.195 2.960 C 1.986 3.389,2.000 2.983,2.000 8.499 C 2.001 13.978,1.989 13.618,2.185 14.013 C 2.308 14.262,2.458 14.448,2.678 14.624 C 2.876 14.783,3.034 14.863,3.298 14.940 L 3.507 15.000 8.000 15.000 L 12.493 15.000 12.702 14.940 C 12.966 14.863,13.124 14.783,13.322 14.624 C 13.542 14.448,13.692 14.262,13.815 14.013 C 14.013 13.613,14.001 13.983,13.994 8.420 L 13.987 3.427 13.912 3.208 C 13.775 2.800,13.469 2.430,13.110 2.236 C 12.966 2.158,12.923 2.147,12.747 2.147 C 12.575 2.147,12.527 2.158,12.404 2.226 C 12.065 2.413,11.923 2.773,12.044 3.135 C 12.078 3.236,12.135 3.313,12.291 3.463 L 12.493 3.659 12.501 8.423 C 12.505 11.043,12.501 13.227,12.493 13.276 C 12.484 13.326,12.448 13.395,12.413 13.430 L 12.349 13.493 8.007 13.493 C 3.261 13.493,3.591 13.505,3.523 13.341 C 3.501 13.286,3.494 12.037,3.500 8.463 L 3.507 3.659 3.710 3.463 C 3.881 3.298,3.921 3.243,3.957 3.122 C 4.067 2.749,3.933 2.410,3.604 2.232 C 3.440 2.142,3.183 2.114,3.036 2.169 M9.493 3.253 L 9.493 4.000 8.000 4.000 L 6.507 4.000 6.507 3.253 L 6.507 2.507 8.000 2.507 L 9.493 2.507 9.493 3.253 " stroke="none" fill-rule="evenodd" fill="black"></path></svg>