<svg xmlns="http://www.w3.org/2000/svg" width="24" height="24" viewBox="0 0 24 24"><path d="M17.979 1.750 C 17.546 1.905,17.393 2.038,15.500 3.920 C 14.466 4.947,11.433 7.871,8.760 10.418 C 6.087 12.964,3.797 15.154,3.670 15.285 C 3.544 15.415,3.395 15.611,3.340 15.720 C 3.183 16.030,1.515 21.547,1.512 21.763 C 1.508 22.211,1.964 22.574,2.407 22.474 C 2.885 22.367,8.135 20.735,8.320 20.636 C 8.487 20.548,9.894 19.227,14.100 15.208 C 20.327 9.260,22.490 7.123,22.662 6.748 C 22.896 6.237,22.887 5.720,22.637 5.204 C 22.523 4.970,22.345 4.776,21.044 3.475 C 19.654 2.085,19.564 2.003,19.264 1.857 C 18.975 1.715,18.917 1.701,18.564 1.690 C 18.272 1.681,18.132 1.695,17.979 1.750 M19.950 4.530 C 21.134 5.713,21.320 5.916,21.322 6.020 C 21.323 6.125,21.179 6.282,20.163 7.283 L 19.002 8.426 17.542 6.963 L 16.081 5.500 17.250 4.330 C 18.004 3.576,18.448 3.160,18.500 3.160 C 18.551 3.160,19.063 3.643,19.950 4.530 M17.869 9.545 C 17.842 9.571,15.522 11.786,12.712 14.466 L 7.605 19.340 5.519 19.973 C 4.371 20.321,3.424 20.597,3.413 20.586 C 3.387 20.560,4.631 16.478,4.692 16.392 C 4.718 16.355,7.043 14.127,9.859 11.441 L 14.978 6.558 16.448 8.028 C 17.596 9.176,17.908 9.509,17.869 9.545 " stroke="none" fill-rule="evenodd" fill="black"></path></svg>