<svg xmlns="http://www.w3.org/2000/svg" width="16" height="16" viewBox="0 0 16 16"><path d="M12.053 0.934 C 11.811 0.959,11.673 1.002,11.427 1.127 C 11.217 1.233,11.137 1.311,6.704 5.744 L 2.194 10.253 2.086 10.480 C 1.928 10.811,1.005 14.055,1.007 14.274 C 1.010 14.661,1.347 14.996,1.733 14.995 C 1.843 14.995,2.310 14.872,3.587 14.507 C 4.525 14.239,5.358 13.991,5.437 13.957 C 5.515 13.922,5.653 13.840,5.743 13.775 C 5.989 13.598,14.694 4.874,14.806 4.693 C 15.214 4.035,15.170 3.253,14.692 2.653 C 14.476 2.382,13.387 1.322,13.204 1.204 C 12.859 0.983,12.470 0.891,12.053 0.934 M12.968 3.036 L 13.577 3.645 13.568 3.754 C 13.560 3.856,13.524 3.899,12.902 4.527 L 12.245 5.192 11.530 4.477 L 10.816 3.762 11.441 3.128 C 11.785 2.779,12.085 2.479,12.107 2.461 C 12.129 2.443,12.194 2.428,12.253 2.428 C 12.356 2.427,12.376 2.444,12.968 3.036 M10.480 5.533 L 11.186 6.240 8.013 9.413 L 4.840 12.587 3.857 12.868 C 3.316 13.022,2.868 13.144,2.862 13.138 C 2.856 13.132,2.978 12.684,3.132 12.143 L 3.413 11.160 6.580 7.993 C 8.322 6.252,9.753 4.827,9.760 4.827 C 9.768 4.827,10.092 5.145,10.480 5.533 " stroke="none" fill-rule="evenodd" fill="black"></path></svg>