<svg xmlns="http://www.w3.org/2000/svg" width="16" height="16" viewBox="0 0 16 16"><path d="M5.067 2.027 C 4.183 2.149,3.390 2.577,2.840 3.229 C 2.253 3.924,1.968 4.762,2.009 5.667 C 2.046 6.490,2.377 7.281,2.934 7.877 L 3.095 8.048 2.807 8.212 C 1.829 8.769,1.065 9.573,0.575 10.564 C 0.324 11.070,0.053 11.953,0.053 12.265 C 0.053 12.416,0.134 12.608,0.253 12.740 C 0.597 13.124,1.196 13.068,1.454 12.629 C 1.491 12.564,1.544 12.397,1.576 12.238 C 1.844 10.924,2.706 9.859,3.932 9.326 C 4.462 9.096,5.026 8.997,5.663 9.022 C 6.706 9.062,7.582 9.445,8.322 10.185 C 8.901 10.764,9.263 11.441,9.427 12.253 C 9.514 12.686,9.680 12.887,10.023 12.974 C 10.493 13.095,10.934 12.740,10.933 12.243 C 10.933 12.055,10.832 11.605,10.706 11.233 C 10.516 10.669,10.174 10.044,9.793 9.563 C 9.370 9.029,8.686 8.460,8.117 8.168 C 8.009 8.112,7.920 8.061,7.920 8.053 C 7.921 8.046,8.005 7.945,8.108 7.828 C 8.932 6.896,9.207 5.620,8.836 4.447 C 8.518 3.439,7.719 2.598,6.720 2.220 C 6.265 2.048,5.532 1.962,5.067 2.027 M6.021 3.576 C 6.649 3.734,7.206 4.265,7.402 4.893 C 7.552 5.373,7.513 5.910,7.294 6.360 C 7.083 6.795,6.787 7.091,6.360 7.294 C 6.025 7.454,5.774 7.504,5.403 7.486 C 3.679 7.404,2.870 5.312,4.091 4.091 C 4.598 3.584,5.304 3.396,6.021 3.576 M10.778 4.040 C 10.413 4.153,10.190 4.524,10.266 4.890 C 10.317 5.136,10.495 5.358,10.707 5.441 C 10.751 5.458,10.919 5.488,11.080 5.507 C 11.241 5.526,11.441 5.567,11.524 5.598 C 12.111 5.819,12.483 6.355,12.487 6.987 C 12.491 7.551,12.218 8.020,11.712 8.319 C 11.343 8.538,11.253 8.710,11.255 9.198 C 11.256 9.531,11.282 9.643,11.399 9.813 C 11.503 9.963,11.630 10.035,11.984 10.145 C 12.970 10.453,13.748 11.124,14.170 12.030 C 14.235 12.168,14.308 12.348,14.335 12.432 C 14.403 12.651,14.543 12.823,14.730 12.918 C 15.204 13.161,15.764 12.843,15.807 12.307 C 15.841 11.885,15.322 10.849,14.750 10.196 C 14.391 9.787,13.797 9.313,13.377 9.102 C 13.302 9.065,13.236 9.030,13.230 9.025 C 13.225 9.020,13.270 8.959,13.329 8.888 C 13.705 8.442,13.958 7.783,13.991 7.160 C 14.063 5.818,13.227 4.587,11.953 4.161 C 11.528 4.018,11.015 3.966,10.778 4.040 " stroke="none" fill-rule="evenodd" fill="black"></path></svg>