<svg xmlns="http://www.w3.org/2000/svg" width="24" height="24" viewBox="0 0 24 24"><path d="M8.360 2.538 C 8.327 2.546,8.165 2.575,8.000 2.601 C 6.866 2.784,5.625 3.491,4.855 4.393 C 3.960 5.441,3.508 6.653,3.510 8.000 C 3.511 9.149,3.852 10.236,4.502 11.165 C 4.765 11.540,5.399 12.196,5.694 12.397 C 5.800 12.469,5.872 12.541,5.854 12.556 C 5.835 12.572,5.712 12.626,5.580 12.678 C 5.180 12.834,4.524 13.181,4.080 13.471 C 1.767 14.982,0.292 17.447,0.035 20.227 C -0.022 20.837,0.006 20.993,0.211 21.227 C 0.429 21.474,0.729 21.544,1.031 21.418 C 1.380 21.272,1.494 21.035,1.538 20.360 C 1.592 19.548,1.842 18.612,2.217 17.820 C 3.245 15.652,5.146 14.157,7.518 13.650 C 7.985 13.550,8.088 13.543,9.000 13.543 C 9.912 13.543,10.015 13.550,10.482 13.650 C 13.832 14.366,16.213 17.081,16.475 20.487 C 16.504 20.858,16.531 20.988,16.605 21.121 C 16.863 21.580,17.533 21.617,17.843 21.190 C 17.994 20.981,18.020 20.766,17.963 20.186 C 17.725 17.754,16.523 15.503,14.659 14.003 C 14.033 13.498,13.086 12.938,12.420 12.678 C 12.288 12.626,12.166 12.573,12.149 12.559 C 12.131 12.545,12.254 12.429,12.420 12.301 C 13.437 11.523,14.188 10.252,14.426 8.909 C 14.512 8.421,14.511 7.574,14.424 7.080 C 14.283 6.285,13.900 5.386,13.428 4.745 C 12.823 3.923,11.887 3.215,10.923 2.852 C 10.327 2.628,9.907 2.554,9.140 2.539 C 8.744 2.531,8.393 2.531,8.360 2.538 M9.958 4.120 C 10.621 4.282,11.329 4.683,11.823 5.177 C 12.321 5.675,12.716 6.376,12.887 7.062 C 13.013 7.571,13.013 8.429,12.887 8.938 C 12.531 10.369,11.434 11.486,10.005 11.871 C 9.669 11.962,9.542 11.975,9.000 11.975 C 8.458 11.975,8.331 11.962,7.995 11.871 C 7.054 11.617,6.240 11.046,5.712 10.269 C 5.471 9.913,5.214 9.341,5.113 8.938 C 4.987 8.429,4.987 7.571,5.113 7.062 C 5.215 6.654,5.470 6.088,5.722 5.715 C 6.304 4.853,7.337 4.215,8.433 4.040 C 8.783 3.984,9.572 4.026,9.958 4.120 M16.597 6.555 C 16.034 6.674,15.787 7.334,16.146 7.760 C 16.343 7.994,16.435 8.018,17.140 8.021 C 17.623 8.023,17.843 8.041,18.038 8.095 C 19.130 8.397,19.924 9.191,20.225 10.282 C 20.336 10.685,20.326 11.452,20.206 11.840 C 19.934 12.715,19.407 13.347,18.610 13.752 L 18.239 13.940 18.250 14.777 L 18.260 15.614 18.740 15.768 C 19.624 16.051,20.286 16.440,20.895 17.033 C 21.854 17.967,22.381 19.128,22.464 20.483 C 22.494 20.968,22.570 21.183,22.766 21.332 C 22.896 21.431,23.201 21.528,23.295 21.500 C 23.320 21.493,23.389 21.476,23.449 21.463 C 23.585 21.433,23.822 21.228,23.911 21.064 C 24.002 20.895,23.989 20.255,23.881 19.623 C 23.574 17.832,22.519 16.204,21.019 15.206 C 20.799 15.060,20.493 14.877,20.339 14.800 C 20.186 14.723,20.054 14.657,20.046 14.652 C 20.038 14.648,20.101 14.586,20.186 14.515 C 22.033 12.955,22.353 10.249,20.918 8.321 C 20.317 7.514,19.369 6.883,18.380 6.634 C 18.035 6.546,16.877 6.495,16.597 6.555 " stroke="none" fill-rule="evenodd" fill="black"></path></svg>