<svg xmlns="http://www.w3.org/2000/svg" width="24" height="24" viewBox="0 0 24 24"><path d="M11.300 2.544 C 10.107 2.719,9.066 3.251,8.228 4.117 C 7.258 5.119,6.760 6.356,6.760 7.762 C 6.760 9.549,7.645 11.172,9.158 12.162 C 9.348 12.286,9.435 12.364,9.398 12.377 C 9.366 12.389,9.178 12.454,8.980 12.522 C 8.782 12.590,8.368 12.769,8.060 12.919 C 5.206 14.310,3.320 17.059,3.034 20.246 C 2.975 20.895,3.005 21.045,3.238 21.278 C 3.351 21.391,3.446 21.443,3.598 21.476 C 3.890 21.538,20.110 21.538,20.402 21.476 C 20.554 21.443,20.649 21.391,20.762 21.278 C 20.994 21.046,21.023 20.897,20.967 20.247 C 20.729 17.503,19.266 15.032,16.980 13.511 C 16.440 13.152,15.560 12.708,15.020 12.522 C 14.822 12.454,14.635 12.389,14.605 12.378 C 14.571 12.366,14.701 12.258,14.925 12.110 C 15.372 11.813,16.014 11.186,16.307 10.758 C 16.683 10.209,16.949 9.607,17.126 8.904 C 17.244 8.432,17.273 7.428,17.183 6.896 C 17.002 5.829,16.531 4.901,15.772 4.117 C 15.041 3.362,14.229 2.897,13.182 2.634 C 12.934 2.572,12.695 2.550,12.140 2.540 C 11.744 2.533,11.366 2.535,11.300 2.544 " stroke="none" fill-rule="evenodd" fill="black"></path></svg>