<svg xmlns="http://www.w3.org/2000/svg" width="24" height="24" viewBox="0 0 24 24"><path d="M11.060 2.583 C 10.248 2.725,9.354 3.116,8.681 3.623 C 7.576 4.456,6.849 5.643,6.577 7.061 C 6.486 7.535,6.485 8.414,6.573 8.909 C 6.814 10.248,7.507 11.437,8.528 12.262 C 8.702 12.402,8.843 12.528,8.844 12.543 C 8.844 12.558,8.704 12.627,8.532 12.698 C 7.717 13.032,6.814 13.594,6.100 14.211 C 4.350 15.724,3.252 17.876,3.035 20.220 C 2.980 20.821,2.999 20.971,3.156 21.189 C 3.467 21.617,4.136 21.580,4.395 21.121 C 4.469 20.988,4.496 20.858,4.525 20.487 C 4.787 17.081,7.167 14.366,10.518 13.650 C 10.985 13.550,11.088 13.543,12.000 13.543 C 12.912 13.543,13.015 13.550,13.482 13.650 C 15.541 14.090,17.280 15.298,18.364 17.042 C 18.991 18.050,19.399 19.302,19.463 20.411 C 19.477 20.636,19.506 20.883,19.529 20.960 C 19.623 21.278,19.928 21.518,20.240 21.518 C 20.431 21.518,20.681 21.398,20.811 21.244 C 20.996 21.024,21.021 20.860,20.966 20.246 C 20.746 17.792,19.542 15.519,17.659 14.003 C 17.033 13.498,16.086 12.938,15.420 12.678 C 15.288 12.626,15.166 12.573,15.149 12.559 C 15.131 12.545,15.254 12.429,15.420 12.301 C 16.441 11.519,17.184 10.262,17.426 8.909 C 17.513 8.425,17.513 7.575,17.426 7.091 C 17.175 5.687,16.432 4.462,15.327 3.629 C 14.635 3.108,13.747 2.722,12.923 2.583 C 12.458 2.505,11.506 2.505,11.060 2.583 M12.958 4.120 C 13.621 4.282,14.329 4.683,14.823 5.177 C 15.321 5.675,15.716 6.376,15.887 7.062 C 16.013 7.571,16.013 8.429,15.887 8.938 C 15.531 10.369,14.434 11.486,13.005 11.871 C 12.669 11.962,12.542 11.975,12.000 11.975 C 11.458 11.975,11.331 11.962,10.995 11.871 C 10.054 11.617,9.240 11.046,8.712 10.269 C 8.471 9.913,8.214 9.341,8.113 8.938 C 7.987 8.429,7.987 7.571,8.113 7.062 C 8.215 6.654,8.470 6.088,8.722 5.715 C 9.304 4.853,10.337 4.215,11.433 4.040 C 11.783 3.984,12.572 4.026,12.958 4.120 " stroke="none" fill-rule="evenodd" fill="black"></path></svg>