<svg xmlns="http://www.w3.org/2000/svg" width="24" height="24" viewBox="0 0 24 24"><path d="M18.935 1.077 C 18.732 1.169,18.578 1.365,18.523 1.601 C 18.500 1.700,18.482 2.273,18.481 2.890 L 18.480 4.000 17.290 4.001 C 15.957 4.002,15.873 4.017,15.668 4.286 C 15.569 4.416,15.472 4.721,15.500 4.815 C 15.507 4.840,15.524 4.909,15.537 4.969 C 15.567 5.105,15.771 5.342,15.936 5.432 C 16.043 5.491,16.222 5.502,17.267 5.513 L 18.475 5.525 18.487 6.733 C 18.498 7.778,18.509 7.957,18.568 8.064 C 18.658 8.229,18.895 8.433,19.031 8.463 C 19.091 8.476,19.160 8.493,19.185 8.500 C 19.279 8.528,19.584 8.431,19.714 8.332 C 19.983 8.127,19.998 8.043,19.999 6.710 L 20.000 5.520 21.098 5.520 C 21.743 5.520,22.280 5.502,22.400 5.476 C 22.942 5.360,23.182 4.695,22.828 4.292 C 22.582 4.012,22.526 4.002,21.190 4.001 L 20.000 4.000 20.000 2.830 C 20.000 2.186,19.982 1.596,19.960 1.518 C 19.887 1.255,19.526 0.999,19.231 1.001 C 19.159 1.001,19.026 1.035,18.935 1.077 M8.117 4.582 C 7.151 4.757,6.213 5.241,5.511 5.927 C 3.933 7.470,3.555 9.846,4.573 11.819 C 4.862 12.377,5.378 13.006,5.879 13.410 L 6.057 13.554 5.879 13.624 C 5.563 13.748,4.959 14.074,4.564 14.335 C 2.748 15.536,1.514 17.424,1.121 19.607 C 1.013 20.206,0.979 20.755,1.039 20.938 C 1.102 21.129,1.302 21.357,1.468 21.426 C 1.749 21.543,2.126 21.447,2.329 21.206 C 2.448 21.064,2.495 20.863,2.558 20.220 C 2.581 19.978,2.646 19.602,2.702 19.383 C 3.356 16.816,5.515 14.900,8.140 14.557 C 8.659 14.489,9.794 14.531,10.286 14.637 C 12.811 15.179,14.782 17.153,15.298 19.654 C 15.333 19.827,15.386 20.209,15.415 20.503 C 15.474 21.095,15.527 21.221,15.793 21.404 C 15.905 21.480,15.986 21.500,16.180 21.500 C 16.486 21.500,16.714 21.366,16.845 21.111 C 16.925 20.954,16.929 20.902,16.907 20.421 C 16.866 19.528,16.599 18.480,16.187 17.594 C 15.582 16.289,14.564 15.115,13.343 14.311 C 13.047 14.117,12.228 13.677,12.000 13.590 C 11.956 13.574,11.993 13.522,12.140 13.397 C 13.129 12.551,13.731 11.507,13.937 10.283 C 14.193 8.755,13.664 7.118,12.547 5.984 C 11.829 5.255,10.736 4.701,9.743 4.563 C 9.326 4.505,8.488 4.515,8.117 4.582 M9.900 6.122 C 10.934 6.394,11.818 7.170,12.233 8.171 C 12.566 8.972,12.566 10.029,12.232 10.832 C 11.786 11.906,10.841 12.688,9.700 12.924 C 8.068 13.263,6.411 12.381,5.768 10.832 C 5.434 10.029,5.434 8.972,5.767 8.171 C 6.235 7.044,7.265 6.232,8.472 6.040 C 8.822 5.985,9.534 6.025,9.900 6.122 " stroke="none" fill-rule="evenodd" fill="black"></path></svg>