<svg xmlns="http://www.w3.org/2000/svg" width="16" height="16" viewBox="0 0 16 16"><path d="M13.011 0.040 C 12.861 0.088,12.658 0.262,12.579 0.410 C 12.523 0.515,12.520 0.556,12.512 1.260 L 12.504 2.000 11.830 2.000 C 11.052 2.000,10.960 2.016,10.763 2.190 C 10.598 2.335,10.528 2.476,10.512 2.700 C 10.490 3.013,10.657 3.295,10.947 3.430 C 11.076 3.491,11.102 3.493,11.793 3.493 L 12.507 3.493 12.507 4.207 C 12.507 4.898,12.509 4.924,12.570 5.053 C 12.705 5.343,12.987 5.510,13.300 5.488 C 13.523 5.472,13.665 5.402,13.808 5.240 C 13.987 5.036,14.000 4.966,14.000 4.183 L 14.000 3.496 14.740 3.488 C 15.584 3.479,15.601 3.475,15.808 3.240 C 16.133 2.871,16.034 2.335,15.596 2.092 L 15.453 2.013 14.727 2.005 L 14.000 1.997 14.000 1.323 C 14.000 0.565,13.982 0.456,13.830 0.278 C 13.634 0.049,13.292 -0.051,13.011 0.040 M5.107 2.522 C 4.025 2.675,3.173 3.198,2.584 4.071 C 2.344 4.426,2.161 4.869,2.062 5.333 C 1.995 5.650,1.995 6.350,2.062 6.667 C 2.199 7.310,2.503 7.907,2.933 8.379 L 3.096 8.558 2.915 8.650 C 2.506 8.856,1.974 9.249,1.613 9.612 C 0.735 10.493,0.182 11.634,0.028 12.879 C -0.033 13.374,0.008 13.558,0.227 13.778 C 0.517 14.067,0.941 14.076,1.250 13.798 C 1.412 13.653,1.483 13.491,1.507 13.213 C 1.632 11.767,2.446 10.562,3.728 9.921 C 4.844 9.364,6.135 9.364,7.267 9.922 C 8.059 10.312,8.688 10.937,9.078 11.720 C 9.315 12.196,9.433 12.614,9.492 13.197 C 9.542 13.692,9.782 13.961,10.199 13.993 C 10.560 14.021,10.878 13.788,10.972 13.429 C 11.005 13.302,11.007 13.225,10.985 13.003 C 10.799 11.161,9.737 9.550,8.127 8.668 C 8.013 8.606,7.920 8.549,7.920 8.542 C 7.920 8.534,7.999 8.443,8.095 8.339 C 8.671 7.717,8.991 6.889,8.994 6.013 C 9.000 4.382,7.886 2.973,6.293 2.596 C 6.075 2.545,5.922 2.528,5.600 2.521 C 5.373 2.515,5.151 2.516,5.107 2.522 M6.013 4.068 C 6.671 4.244,7.210 4.771,7.418 5.440 C 7.508 5.729,7.508 6.271,7.418 6.560 C 7.209 7.235,6.677 7.751,6.000 7.937 C 5.729 8.011,5.219 8.005,4.960 7.924 C 4.248 7.702,3.720 7.151,3.557 6.459 C 3.501 6.226,3.501 5.774,3.557 5.541 C 3.734 4.789,4.345 4.202,5.120 4.038 C 5.334 3.993,5.789 4.008,6.013 4.068 " stroke="none" fill-rule="evenodd" fill="black"></path></svg>