<svg xmlns="http://www.w3.org/2000/svg" width="16" height="16" viewBox="0 0 16 16"><path d="M7.373 1.051 C 6.515 1.195,5.787 1.570,5.173 2.185 C 4.597 2.762,4.253 3.401,4.075 4.223 C 3.990 4.614,3.990 5.386,4.075 5.777 C 4.249 6.581,4.593 7.228,5.145 7.789 L 5.427 8.076 5.196 8.198 C 4.644 8.491,4.167 8.851,3.705 9.324 C 2.946 10.101,2.458 10.973,2.186 12.039 C 2.075 12.473,1.985 13.138,2.012 13.318 C 2.068 13.696,2.373 13.971,2.735 13.973 C 3.050 13.974,3.298 13.827,3.424 13.566 C 3.475 13.461,3.499 13.351,3.521 13.120 C 3.581 12.493,3.711 12.033,3.987 11.480 C 4.210 11.033,4.451 10.697,4.800 10.345 C 5.126 10.018,5.322 9.863,5.699 9.636 C 6.407 9.211,7.135 9.014,8.000 9.014 C 8.865 9.014,9.593 9.211,10.301 9.636 C 10.678 9.863,10.874 10.018,11.200 10.345 C 11.547 10.694,11.787 11.030,12.012 11.480 C 12.290 12.035,12.422 12.499,12.479 13.131 C 12.512 13.487,12.557 13.617,12.704 13.780 C 12.907 14.005,13.281 14.079,13.554 13.948 C 13.732 13.862,13.910 13.656,13.963 13.472 C 14.094 13.024,13.785 11.647,13.366 10.813 C 12.819 9.722,11.838 8.725,10.782 8.188 L 10.564 8.077 10.779 7.872 C 11.355 7.321,11.772 6.547,11.937 5.719 C 12.004 5.385,12.004 4.615,11.937 4.281 C 11.616 2.675,10.467 1.479,8.880 1.102 C 8.646 1.046,8.518 1.034,8.093 1.025 C 7.750 1.019,7.518 1.027,7.373 1.051 M8.678 2.599 C 9.862 2.949,10.622 4.075,10.480 5.269 C 10.354 6.329,9.644 7.142,8.593 7.429 C 8.378 7.488,7.860 7.508,7.607 7.467 C 6.110 7.227,5.164 5.698,5.619 4.253 C 5.900 3.361,6.654 2.703,7.591 2.533 C 7.662 2.520,7.882 2.514,8.080 2.519 C 8.372 2.527,8.485 2.542,8.678 2.599 " stroke="none" fill-rule="evenodd" fill="black"></path></svg>