<svg xmlns="http://www.w3.org/2000/svg" width="16" height="16" viewBox="0 0 16 16"><path d="M7.373 1.053 C 6.815 1.152,6.187 1.420,5.760 1.743 C 4.594 2.623,4.032 4.082,4.319 5.489 C 4.503 6.391,5.032 7.232,5.748 7.761 C 5.901 7.874,5.902 7.876,5.838 7.903 C 4.926 8.282,4.312 8.694,3.665 9.363 C 2.707 10.352,2.130 11.650,2.012 13.083 C 1.980 13.466,2.109 13.740,2.400 13.904 L 2.547 13.987 8.000 13.987 L 13.453 13.987 13.600 13.904 C 13.781 13.802,13.906 13.644,13.964 13.445 C 14.002 13.312,14.004 13.254,13.975 12.960 C 13.797 11.123,12.820 9.495,11.293 8.491 C 11.004 8.301,10.481 8.025,10.233 7.933 C 10.164 7.907,10.107 7.884,10.107 7.881 C 10.107 7.879,10.204 7.800,10.322 7.707 C 11.017 7.160,11.489 6.389,11.685 5.485 C 11.768 5.101,11.769 4.397,11.686 4.021 C 11.517 3.255,11.158 2.596,10.631 2.087 C 10.344 1.809,10.172 1.679,9.855 1.497 C 9.548 1.322,9.198 1.183,8.853 1.102 C 8.498 1.018,7.718 0.992,7.373 1.053 " stroke="none" fill-rule="evenodd" fill="black"></path></svg>