<svg xmlns="http://www.w3.org/2000/svg" width="24" height="24" viewBox="0 0 24 24"><path d="M8.684 1.103 C 8.203 1.233,8.216 1.221,4.827 4.598 C 3.049 6.370,1.516 7.924,1.420 8.050 C 0.880 8.764,0.931 9.729,1.542 10.339 C 1.805 10.601,1.981 10.692,2.940 11.058 C 4.457 11.637,5.115 12.028,5.827 12.773 C 6.233 13.198,6.546 13.645,6.811 14.180 C 7.049 14.660,7.066 14.712,7.760 17.141 C 8.092 18.301,8.398 19.317,8.440 19.399 C 8.583 19.679,8.907 19.989,9.214 20.139 C 9.600 20.327,9.951 20.380,10.314 20.304 C 10.863 20.190,10.857 20.195,13.010 18.047 L 15.000 16.062 17.890 18.948 C 21.050 22.104,20.835 21.918,21.265 21.869 C 21.476 21.846,21.694 21.689,21.806 21.480 C 21.888 21.326,21.903 21.028,21.838 20.853 C 21.815 20.790,20.525 19.468,18.929 17.870 L 16.062 15.001 18.064 12.990 C 20.260 10.785,20.222 10.831,20.315 10.250 C 20.425 9.567,20.065 8.834,19.439 8.470 C 19.328 8.405,18.432 8.129,17.060 7.737 C 15.850 7.391,14.698 7.042,14.499 6.961 C 13.783 6.670,13.144 6.228,12.580 5.635 C 11.924 4.945,11.625 4.416,11.059 2.940 C 10.891 2.500,10.705 2.051,10.646 1.942 C 10.282 1.265,9.433 0.902,8.684 1.103 M9.290 2.616 C 9.321 2.647,9.487 3.038,9.659 3.486 C 9.831 3.934,10.077 4.525,10.207 4.799 C 11.006 6.489,12.473 7.831,14.202 8.454 C 14.410 8.529,15.513 8.856,16.653 9.182 C 18.871 9.814,18.885 9.820,18.826 10.050 C 18.813 10.099,16.844 12.098,14.451 14.490 C 9.865 19.074,9.995 18.954,9.829 18.770 C 9.794 18.732,9.496 17.754,9.165 16.598 C 8.493 14.247,8.434 14.066,8.153 13.500 C 7.790 12.769,7.403 12.238,6.783 11.619 C 5.878 10.716,5.291 10.365,3.544 9.683 C 3.040 9.486,2.613 9.302,2.595 9.273 C 2.576 9.244,2.561 9.167,2.561 9.103 C 2.560 9.000,2.966 8.582,5.790 5.775 C 9.166 2.419,9.128 2.453,9.290 2.616 " stroke="none" fill-rule="evenodd" fill="black"></path></svg>