<svg xmlns="http://www.w3.org/2000/svg" width="16" height="16" viewBox="0 0 16 16"><path d="M5.573 0.232 C 5.229 0.261,4.938 0.369,4.657 0.571 C 4.567 0.636,3.604 1.581,2.518 2.671 C 0.615 4.581,0.538 4.661,0.433 4.867 C 0.282 5.164,0.231 5.372,0.231 5.693 C 0.231 6.125,0.363 6.492,0.639 6.823 C 0.849 7.075,1.043 7.192,1.936 7.606 C 2.427 7.833,2.859 8.052,2.993 8.141 C 3.512 8.487,3.949 9.039,4.156 9.611 C 4.199 9.730,4.379 10.434,4.556 11.177 C 4.733 11.919,4.903 12.593,4.933 12.674 C 5.241 13.496,6.206 13.964,7.059 13.704 C 7.458 13.582,7.493 13.553,8.793 12.257 L 10.000 11.054 11.940 12.992 L 13.880 14.929 14.038 14.975 C 14.618 15.141,15.141 14.618,14.975 14.038 L 14.929 13.880 12.992 11.940 L 11.055 10.001 12.269 8.780 C 13.574 7.468,13.581 7.461,13.704 7.059 C 13.930 6.320,13.618 5.492,12.956 5.075 C 12.734 4.935,12.611 4.899,11.233 4.572 C 9.917 4.259,9.581 4.165,9.327 4.038 C 8.868 3.808,8.415 3.407,8.138 2.987 C 8.044 2.844,7.828 2.418,7.600 1.924 C 7.352 1.386,7.175 1.039,7.091 0.925 C 6.755 0.468,6.136 0.185,5.573 0.232 M5.850 1.793 C 5.888 1.828,6.062 2.172,6.266 2.615 C 6.458 3.034,6.676 3.478,6.749 3.602 C 7.321 4.564,8.251 5.306,9.299 5.636 C 9.413 5.672,10.094 5.841,10.812 6.012 C 11.529 6.183,12.138 6.335,12.164 6.349 C 12.233 6.386,12.267 6.461,12.267 6.578 C 12.267 6.677,12.200 6.746,9.473 9.473 C 6.743 12.204,6.678 12.267,6.578 12.267 C 6.461 12.267,6.386 12.233,6.349 12.164 C 6.335 12.138,6.184 11.529,6.013 10.812 C 5.842 10.094,5.662 9.383,5.612 9.232 C 5.266 8.188,4.515 7.273,3.555 6.725 C 3.426 6.652,2.990 6.440,2.587 6.255 C 2.142 6.051,1.830 5.892,1.793 5.851 C 1.754 5.807,1.733 5.750,1.733 5.686 C 1.733 5.591,1.807 5.513,3.660 3.660 C 5.517 1.802,5.590 1.733,5.685 1.733 C 5.750 1.733,5.806 1.754,5.850 1.793 " stroke="none" fill-rule="evenodd" fill="black"></path></svg>