<svg xmlns="http://www.w3.org/2000/svg" width="24" height="24" viewBox="0 0 24 24"><path d="M16.530 2.062 C 16.048 2.192,15.866 2.337,15.177 3.140 C 14.875 3.492,14.608 3.784,14.584 3.790 C 14.560 3.795,13.226 3.934,11.620 4.098 C 10.014 4.262,8.585 4.416,8.445 4.440 C 7.771 4.556,7.196 5.099,7.042 5.765 C 7.018 5.870,7.002 6.748,7.001 7.970 L 7.000 10.000 4.870 10.000 C 2.642 10.001,2.423 10.014,1.947 10.179 C 1.534 10.323,1.255 10.505,0.876 10.880 C 0.498 11.254,0.312 11.549,0.133 12.060 L 0.020 12.380 0.009 16.851 C 0.001 19.841,0.011 21.374,0.039 21.477 C 0.100 21.703,0.379 21.946,0.620 21.982 C 1.026 22.043,1.392 21.795,1.476 21.400 C 1.506 21.260,1.520 19.868,1.520 16.920 L 1.520 12.643 1.606 12.412 C 1.726 12.092,2.092 11.726,2.412 11.606 C 2.638 11.522,2.686 11.520,4.822 11.520 L 7.000 11.520 7.000 13.553 C 7.000 15.725,7.004 15.775,7.207 16.174 C 7.306 16.368,7.569 16.655,7.782 16.802 C 8.126 17.038,8.253 17.058,11.363 17.379 C 12.979 17.545,14.376 17.692,14.468 17.705 C 14.627 17.727,14.667 17.764,15.178 18.360 C 15.799 19.085,15.892 19.172,16.220 19.325 C 16.573 19.490,16.943 19.533,17.820 19.509 C 18.451 19.493,18.619 19.475,18.809 19.407 C 19.214 19.262,19.617 18.919,19.797 18.565 C 19.978 18.210,20.000 18.015,20.000 16.732 L 20.000 15.520 21.598 15.520 C 22.605 15.520,23.272 15.504,23.400 15.476 C 23.942 15.360,24.182 14.695,23.828 14.292 C 23.571 14.000,23.583 14.002,21.690 14.001 L 20.000 14.000 20.000 10.760 L 20.000 7.520 21.598 7.520 C 22.605 7.520,23.272 7.504,23.400 7.476 C 23.942 7.360,24.182 6.695,23.828 6.292 C 23.571 6.000,23.583 6.002,21.690 6.001 L 20.000 6.000 19.999 4.770 C 19.998 4.087,19.980 3.462,19.958 3.364 C 19.809 2.719,19.261 2.184,18.608 2.045 C 18.296 1.979,16.794 1.991,16.530 2.062 M18.432 3.568 C 18.469 3.605,18.480 5.251,18.480 10.735 C 18.480 17.303,18.475 17.859,18.414 17.927 C 18.354 17.992,18.275 18.000,17.637 18.000 C 17.246 18.000,16.899 17.990,16.866 17.977 C 16.832 17.964,16.508 17.606,16.144 17.182 C 15.689 16.651,15.437 16.389,15.334 16.340 C 15.220 16.286,14.433 16.191,11.923 15.931 C 9.367 15.666,8.645 15.579,8.590 15.530 C 8.524 15.471,8.520 15.192,8.520 10.735 L 8.520 6.003 8.606 5.957 C 8.654 5.931,10.141 5.760,11.911 5.577 C 13.681 5.393,15.186 5.224,15.256 5.201 C 15.408 5.151,15.621 4.935,16.282 4.160 C 16.554 3.841,16.796 3.567,16.819 3.551 C 16.892 3.498,18.378 3.514,18.432 3.568 " stroke="none" fill-rule="evenodd" fill="black"></path></svg>