<svg xmlns="http://www.w3.org/2000/svg" width="16" height="16" viewBox="0 0 16 16"><path d="M10.333 1.509 C 9.930 1.566,9.656 1.673,9.389 1.878 C 9.295 1.950,9.055 2.211,8.798 2.519 C 8.440 2.950,8.352 3.041,8.283 3.053 C 8.237 3.061,7.570 3.145,6.800 3.241 C 6.030 3.336,5.326 3.436,5.237 3.463 C 4.806 3.592,4.388 3.946,4.190 4.349 C 4.020 4.695,4.000 4.843,4.000 5.733 L 4.000 6.503 3.033 6.513 C 2.130 6.523,2.053 6.528,1.853 6.584 C 1.068 6.805,0.416 7.405,0.151 8.151 C -0.002 8.581,-0.000 8.534,-0.000 11.575 C -0.000 14.317,0.001 14.374,0.054 14.512 C 0.145 14.751,0.324 14.908,0.577 14.973 C 0.753 15.018,0.942 14.998,1.095 14.919 C 1.209 14.860,1.366 14.697,1.428 14.572 C 1.478 14.470,1.480 14.383,1.493 11.627 C 1.506 9.062,1.511 8.776,1.551 8.676 C 1.659 8.407,1.850 8.203,2.103 8.084 L 2.253 8.013 3.125 8.005 L 3.997 7.997 4.005 9.098 L 4.013 10.200 4.089 10.413 C 4.276 10.943,4.647 11.322,5.167 11.513 C 5.312 11.566,5.641 11.616,6.853 11.770 L 8.359 11.960 8.752 12.427 C 9.233 12.998,9.398 13.158,9.646 13.287 C 9.980 13.463,10.158 13.493,10.864 13.493 C 11.557 13.492,11.704 13.470,12.013 13.320 C 12.472 13.096,12.811 12.681,12.948 12.173 C 12.977 12.066,12.996 11.848,13.006 11.513 L 13.021 11.013 14.145 11.013 C 15.072 11.013,15.297 11.006,15.427 10.972 C 15.790 10.878,16.021 10.561,15.993 10.196 C 15.971 9.912,15.800 9.676,15.529 9.553 C 15.438 9.512,15.298 9.506,14.220 9.499 L 13.013 9.491 13.013 7.493 L 13.013 5.495 14.247 5.488 C 15.460 5.480,15.482 5.479,15.590 5.421 C 15.737 5.343,15.906 5.146,15.958 4.994 C 16.078 4.642,15.932 4.278,15.596 4.092 L 15.453 4.013 14.237 4.006 L 13.021 3.998 13.005 3.486 C 12.987 2.914,12.960 2.770,12.806 2.453 C 12.670 2.174,12.334 1.837,12.053 1.700 C 11.721 1.537,11.600 1.516,10.973 1.506 C 10.665 1.502,10.377 1.503,10.333 1.509 M11.428 3.079 L 11.493 3.144 11.493 7.494 L 11.493 11.844 11.415 11.922 L 11.337 12.000 10.889 12.000 C 10.642 11.999,10.414 11.992,10.382 11.984 C 10.349 11.975,10.132 11.736,9.889 11.444 C 9.344 10.787,9.214 10.648,9.081 10.580 C 8.996 10.537,8.646 10.485,7.327 10.319 C 5.592 10.102,5.572 10.098,5.519 9.957 C 5.481 9.857,5.485 5.152,5.523 5.043 C 5.539 4.997,5.578 4.945,5.609 4.928 C 5.641 4.910,6.403 4.804,7.304 4.691 C 8.848 4.496,8.949 4.481,9.090 4.408 C 9.216 4.344,9.296 4.265,9.597 3.906 C 9.793 3.672,10.042 3.375,10.150 3.247 L 10.348 3.013 10.855 3.013 C 11.358 3.013,11.363 3.014,11.428 3.079 " stroke="none" fill-rule="evenodd" fill="black"></path></svg>