<svg xmlns="http://www.w3.org/2000/svg" width="24" height="24" viewBox="0 0 24 24"><path d="M11.420 4.587 C 11.235 4.685,11.155 4.766,11.075 4.940 C 11.006 5.091,11.002 5.273,11.001 8.050 L 11.000 11.000 8.050 11.001 C 5.255 11.002,5.091 11.006,4.935 11.077 C 4.845 11.118,4.724 11.212,4.668 11.286 C 4.569 11.416,4.472 11.721,4.500 11.815 C 4.507 11.840,4.524 11.909,4.537 11.969 C 4.567 12.105,4.771 12.342,4.936 12.432 C 5.049 12.494,5.324 12.501,8.030 12.511 L 11.000 12.522 11.000 15.431 C 11.000 17.267,11.015 18.394,11.041 18.485 C 11.102 18.704,11.384 18.947,11.620 18.982 C 12.026 19.043,12.392 18.795,12.476 18.400 C 12.506 18.263,12.520 17.264,12.520 15.358 L 12.520 12.520 15.358 12.520 C 17.264 12.520,18.263 12.506,18.400 12.476 C 18.942 12.360,19.182 11.695,18.828 11.292 C 18.560 10.987,18.732 11.002,15.451 11.001 L 12.522 11.000 12.511 8.030 C 12.501 5.350,12.494 5.048,12.434 4.940 C 12.346 4.781,12.167 4.615,12.027 4.563 C 11.865 4.501,11.559 4.513,11.420 4.587 " stroke="none" fill-rule="evenodd" fill="black"></path></svg>