<svg xmlns="http://www.w3.org/2000/svg" width="16" height="16" viewBox="0 0 16 16"><path d="M7.504 2.047 C 7.258 2.135,7.095 2.316,7.027 2.576 C 6.993 2.708,6.987 3.045,6.987 4.872 L 6.987 7.013 4.780 7.014 L 2.573 7.014 2.440 7.076 C 2.264 7.158,2.099 7.341,2.040 7.519 C 1.910 7.912,2.139 8.347,2.539 8.466 C 2.657 8.501,2.977 8.507,4.831 8.507 L 6.985 8.507 6.992 10.713 C 7.000 12.907,7.000 12.921,7.057 13.044 C 7.127 13.194,7.285 13.357,7.428 13.426 C 7.486 13.454,7.607 13.482,7.698 13.488 C 8.016 13.510,8.278 13.358,8.418 13.073 L 8.493 12.920 8.501 10.714 L 8.508 8.508 10.714 8.501 L 12.920 8.493 13.073 8.418 C 13.358 8.278,13.510 8.016,13.488 7.698 C 13.470 7.426,13.319 7.198,13.079 7.079 C 12.977 7.028,12.899 7.026,10.740 7.020 L 8.507 7.012 8.507 4.844 C 8.507 2.452,8.511 2.513,8.339 2.291 C 8.153 2.048,7.794 1.943,7.504 2.047 " stroke="none" fill-rule="evenodd" fill="black"></path></svg>