<svg xmlns="http://www.w3.org/2000/svg" width="16" height="16" viewBox="0 0 16 16"><path d="M7.467 0.017 C 5.118 0.192,3.024 1.327,1.608 3.193 C 0.799 4.260,0.296 5.477,0.073 6.906 C -0.009 7.429,-0.009 8.571,0.073 9.094 C 0.415 11.288,1.476 13.089,3.195 14.393 C 4.257 15.199,5.481 15.705,6.906 15.927 C 7.429 16.009,8.571 16.009,9.094 15.927 C 11.038 15.624,12.690 14.748,13.930 13.362 C 15.030 12.133,15.665 10.775,15.927 9.094 C 16.009 8.571,16.009 7.429,15.927 6.906 C 15.705 5.481,15.199 4.257,14.393 3.195 C 13.070 1.452,11.180 0.355,9.000 0.066 C 8.688 0.025,7.760 -0.005,7.467 0.017 M8.853 1.563 C 9.298 1.621,9.615 1.694,10.057 1.841 C 11.997 2.486,13.514 4.002,14.158 5.941 C 14.397 6.658,14.484 7.211,14.484 8.000 C 14.484 8.789,14.397 9.342,14.158 10.059 C 13.824 11.066,13.259 11.955,12.483 12.699 C 11.498 13.643,10.254 14.243,8.867 14.444 C 8.645 14.476,8.379 14.490,8.000 14.490 C 7.621 14.490,7.355 14.476,7.133 14.444 C 5.755 14.244,4.507 13.645,3.532 12.714 C 2.456 11.686,1.790 10.400,1.572 8.928 C 1.493 8.394,1.493 7.606,1.572 7.072 C 1.737 5.958,2.152 4.968,2.835 4.056 C 3.081 3.727,3.727 3.081,4.056 2.835 C 5.460 1.783,7.131 1.340,8.853 1.563 M7.747 4.046 C 7.568 4.107,7.358 4.315,7.298 4.492 C 7.259 4.607,7.253 4.777,7.253 5.938 L 7.253 7.253 5.952 7.253 C 4.435 7.253,4.452 7.251,4.227 7.476 C 3.922 7.782,3.921 8.217,4.225 8.522 C 4.454 8.751,4.422 8.747,5.938 8.747 L 7.253 8.747 7.253 10.062 C 7.253 11.580,7.249 11.546,7.481 11.778 C 7.779 12.076,8.221 12.076,8.519 11.778 C 8.751 11.546,8.747 11.580,8.747 10.062 L 8.747 8.747 10.062 8.747 C 11.580 8.747,11.546 8.751,11.778 8.519 C 12.077 8.220,12.076 7.779,11.775 7.478 C 11.548 7.251,11.568 7.253,10.048 7.253 L 8.747 7.253 8.747 5.938 C 8.747 4.475,8.747 4.477,8.569 4.269 C 8.374 4.041,8.031 3.948,7.747 4.046 " stroke="none" fill-rule="evenodd" fill="black"></path></svg>