<svg xmlns="http://www.w3.org/2000/svg" width="24" height="24" viewBox="0 0 24 24"><path d="M3.340 2.056 C 2.694 2.217,2.175 2.748,2.039 3.387 C 2.012 3.516,2.002 6.399,2.009 12.120 L 2.020 20.660 2.113 20.880 C 2.305 21.335,2.664 21.693,3.122 21.887 L 3.340 21.980 12.000 21.980 L 20.660 21.980 20.880 21.887 C 21.335 21.695,21.693 21.336,21.887 20.878 L 21.980 20.660 21.991 12.120 C 21.998 6.399,21.988 3.516,21.961 3.387 C 21.821 2.732,21.271 2.186,20.608 2.045 C 20.288 1.977,3.616 1.988,3.340 2.056 M20.432 3.568 C 20.469 3.605,20.480 5.533,20.480 12.003 C 20.480 19.756,20.475 20.394,20.414 20.445 C 20.315 20.527,3.685 20.527,3.586 20.445 C 3.525 20.394,3.520 19.756,3.520 12.003 C 3.520 5.533,3.531 3.605,3.568 3.568 C 3.638 3.498,20.362 3.498,20.432 3.568 M6.935 6.077 C 6.732 6.169,6.578 6.365,6.523 6.601 C 6.464 6.857,6.465 14.125,6.524 14.400 C 6.608 14.795,6.974 15.043,7.380 14.982 C 7.616 14.947,7.898 14.704,7.959 14.485 C 8.014 14.290,8.015 6.714,7.960 6.518 C 7.887 6.255,7.526 5.999,7.231 6.001 C 7.159 6.001,7.026 6.035,6.935 6.077 M11.700 6.076 C 11.506 6.165,11.384 6.292,11.302 6.489 C 11.248 6.617,11.240 6.958,11.241 9.009 C 11.242 11.229,11.246 11.390,11.316 11.540 C 11.594 12.144,12.406 12.144,12.684 11.540 C 12.754 11.390,12.758 11.229,12.758 9.000 C 12.758 6.771,12.754 6.610,12.684 6.460 C 12.503 6.068,12.077 5.902,11.700 6.076 M16.460 6.076 C 16.257 6.170,16.089 6.348,16.039 6.523 C 15.985 6.713,15.986 16.289,16.041 16.485 C 16.102 16.704,16.384 16.947,16.620 16.982 C 17.026 17.043,17.392 16.795,17.476 16.400 C 17.535 16.124,17.536 6.858,17.477 6.601 C 17.367 6.126,16.887 5.878,16.460 6.076 " stroke="none" fill-rule="evenodd" fill="black"></path></svg>