<svg xmlns="http://www.w3.org/2000/svg" width="16" height="16" viewBox="0 0 16 16"><path d="M1.442 0.029 C 0.747 0.166,0.223 0.663,0.053 1.347 C 0.000 1.558,-0.000 1.639,0.006 8.067 L 0.013 14.573 0.087 14.790 C 0.267 15.320,0.680 15.733,1.211 15.914 L 1.427 15.987 8.000 15.987 L 14.573 15.987 14.790 15.913 C 15.036 15.830,15.347 15.636,15.511 15.463 C 15.678 15.287,15.832 15.029,15.914 14.789 L 15.987 14.573 15.987 8.000 L 15.987 1.427 15.913 1.210 C 15.733 0.680,15.320 0.267,14.789 0.086 L 14.573 0.013 8.067 0.009 C 4.437 0.007,1.508 0.016,1.442 0.029 M14.419 1.581 L 14.493 1.655 14.493 8.000 L 14.493 14.345 14.419 14.419 L 14.345 14.493 8.000 14.493 L 1.655 14.493 1.581 14.419 L 1.507 14.345 1.507 8.002 C 1.507 1.696,1.507 1.659,1.560 1.600 C 1.589 1.567,1.637 1.531,1.667 1.518 C 1.696 1.506,4.561 1.499,8.033 1.502 L 14.345 1.507 14.419 1.581 M3.933 3.076 C 3.785 3.145,3.626 3.306,3.554 3.459 C 3.510 3.553,3.506 3.747,3.499 6.438 C 3.491 9.618,3.485 9.481,3.660 9.709 C 3.854 9.961,4.212 10.062,4.507 9.949 C 4.752 9.854,4.908 9.678,4.973 9.422 C 5.010 9.279,5.014 8.918,5.007 6.423 C 5.000 3.603,5.000 3.586,4.944 3.465 C 4.808 3.171,4.567 3.013,4.255 3.014 C 4.114 3.014,4.033 3.030,3.933 3.076 M7.649 3.101 C 7.466 3.195,7.333 3.355,7.281 3.542 C 7.264 3.604,7.254 4.319,7.253 5.509 C 7.253 7.649,7.242 7.539,7.481 7.778 C 7.779 8.076,8.221 8.076,8.519 7.778 C 8.758 7.539,8.747 7.649,8.747 5.509 C 8.746 4.318,8.736 3.604,8.719 3.542 C 8.669 3.360,8.530 3.194,8.349 3.100 C 8.208 3.027,8.153 3.013,8.000 3.013 C 7.847 3.013,7.791 3.027,7.649 3.101 M11.420 3.082 C 11.261 3.161,11.136 3.293,11.056 3.465 L 11.000 3.587 10.993 7.424 C 10.987 10.814,10.991 11.281,11.027 11.423 C 11.092 11.678,11.249 11.854,11.493 11.949 C 11.788 12.062,12.146 11.961,12.340 11.709 C 12.517 11.478,12.508 11.722,12.500 7.438 C 12.492 3.095,12.511 3.483,12.299 3.249 C 12.085 3.011,11.706 2.939,11.420 3.082 " stroke="none" fill-rule="evenodd" fill="black"></path></svg>