<svg xmlns="http://www.w3.org/2000/svg" width="24" height="24" viewBox="0 0 24 24"><path d="M8.615 2.620 C 8.524 2.674,8.423 2.759,8.391 2.809 C 8.358 2.859,7.534 4.817,6.559 7.160 C 5.584 9.503,4.769 11.443,4.748 11.470 C 4.719 11.509,4.248 11.520,2.634 11.520 C 0.646 11.520,0.550 11.523,0.402 11.599 C 0.112 11.747,-0.033 12.041,0.018 12.380 C 0.053 12.616,0.296 12.898,0.515 12.959 C 0.605 12.984,1.558 13.000,3.031 13.000 C 4.960 13.000,5.427 12.990,5.531 12.945 C 5.831 12.816,5.837 12.803,7.452 8.924 C 8.685 5.965,8.999 5.244,9.030 5.304 C 9.052 5.346,10.479 8.807,12.202 12.996 C 14.046 17.478,15.376 20.661,15.436 20.731 C 15.560 20.879,15.813 20.998,16.000 20.998 C 16.175 20.998,16.430 20.883,16.555 20.747 C 16.613 20.684,17.263 19.136,18.199 16.832 L 19.748 13.020 21.624 13.000 C 22.975 12.986,23.523 12.967,23.583 12.932 C 23.629 12.906,23.732 12.813,23.811 12.725 C 24.129 12.373,24.024 11.816,23.598 11.599 C 23.449 11.523,23.354 11.520,21.240 11.520 C 18.840 11.520,18.936 11.511,18.707 11.751 C 18.626 11.837,18.238 12.749,17.313 15.025 C 16.609 16.760,16.020 18.192,16.006 18.207 C 15.992 18.222,14.569 14.802,12.844 10.607 C 11.119 6.412,9.672 2.921,9.630 2.850 C 9.442 2.532,8.948 2.420,8.615 2.620 " stroke="none" fill-rule="evenodd" fill="black"></path></svg>