<svg xmlns="http://www.w3.org/2000/svg" width="16" height="16" viewBox="0 0 16 16"><path d="M5.813 2.023 C 5.665 2.072,5.521 2.164,5.436 2.263 C 5.365 2.346,5.144 2.873,4.417 4.691 L 3.488 7.013 2.031 7.014 L 0.573 7.014 0.439 7.076 C 0.281 7.150,0.154 7.271,0.073 7.423 C 0.027 7.510,0.014 7.579,0.014 7.747 C 0.013 7.936,0.022 7.976,0.096 8.107 C 0.195 8.283,0.353 8.411,0.539 8.466 C 0.742 8.526,4.002 8.527,4.204 8.467 C 4.388 8.412,4.544 8.292,4.633 8.138 C 4.673 8.066,4.995 7.286,5.347 6.404 C 5.699 5.522,5.993 4.801,6.000 4.801 C 6.007 4.801,6.762 6.673,7.676 8.961 C 9.237 12.866,9.346 13.128,9.457 13.252 C 9.746 13.573,10.254 13.573,10.543 13.252 C 10.652 13.130,10.730 12.948,11.581 10.820 L 12.501 8.520 13.964 8.507 L 15.427 8.493 15.579 8.419 C 16.141 8.142,16.130 7.343,15.560 7.076 L 15.427 7.014 13.627 7.014 L 11.827 7.014 11.693 7.076 C 11.537 7.149,11.405 7.273,11.336 7.410 C 11.310 7.463,11.002 8.224,10.652 9.100 C 10.302 9.976,10.009 10.693,10.000 10.693 C 9.991 10.693,9.235 8.820,8.319 6.531 C 6.992 3.212,6.636 2.347,6.564 2.263 C 6.440 2.118,6.240 2.022,6.041 2.010 C 5.952 2.005,5.850 2.011,5.813 2.023 " stroke="none" fill-rule="evenodd" fill="black"></path></svg>