<svg xmlns="http://www.w3.org/2000/svg" width="16" height="16" viewBox="0 0 16 16"><path d="M7.467 0.019 C 7.197 0.035,6.683 0.108,6.347 0.177 C 3.324 0.796,0.878 3.204,0.200 6.228 C 0.047 6.910,0.017 7.206,0.017 8.000 C 0.017 8.794,0.047 9.090,0.200 9.772 C 0.610 11.600,1.671 13.237,3.195 14.393 C 4.257 15.199,5.481 15.705,6.906 15.927 C 7.429 16.009,8.571 16.009,9.094 15.927 C 11.038 15.624,12.690 14.748,13.930 13.362 C 15.030 12.133,15.665 10.775,15.927 9.094 C 16.010 8.560,16.009 7.432,15.924 6.880 C 15.532 4.324,14.072 2.222,11.823 0.975 C 10.543 0.265,8.995 -0.075,7.467 0.019 M8.853 1.563 C 9.298 1.621,9.615 1.694,10.057 1.841 C 11.997 2.486,13.514 4.002,14.158 5.941 C 14.397 6.658,14.484 7.211,14.484 8.000 C 14.484 8.789,14.397 9.342,14.158 10.059 C 13.824 11.066,13.259 11.955,12.483 12.699 C 11.498 13.643,10.254 14.243,8.867 14.444 C 8.645 14.476,8.379 14.490,8.000 14.490 C 7.621 14.490,7.355 14.476,7.133 14.444 C 5.755 14.244,4.507 13.645,3.532 12.714 C 2.456 11.686,1.790 10.400,1.572 8.928 C 1.493 8.394,1.493 7.606,1.572 7.072 C 1.737 5.958,2.152 4.968,2.835 4.056 C 3.081 3.727,3.727 3.081,4.056 2.835 C 5.460 1.783,7.131 1.340,8.853 1.563 M7.560 4.028 C 7.146 4.084,6.715 4.248,6.372 4.481 C 6.044 4.703,5.639 5.217,5.531 5.547 C 5.448 5.800,5.550 6.151,5.755 6.320 C 6.066 6.577,6.480 6.562,6.756 6.285 C 6.831 6.209,6.937 6.073,6.991 5.982 C 7.178 5.667,7.503 5.511,7.973 5.510 C 8.382 5.509,8.726 5.651,8.892 5.889 C 8.968 5.998,8.973 6.020,8.973 6.251 C 8.973 6.482,8.968 6.504,8.896 6.598 C 8.822 6.696,8.650 6.816,8.149 7.122 C 7.851 7.303,7.451 7.687,7.348 7.890 C 7.191 8.200,7.238 8.522,7.475 8.759 C 7.635 8.919,7.799 8.987,8.025 8.986 C 8.238 8.986,8.403 8.899,8.614 8.676 C 8.715 8.569,8.877 8.437,9.000 8.361 C 9.491 8.060,9.660 7.941,9.855 7.755 C 10.111 7.513,10.288 7.247,10.382 6.965 C 10.804 5.689,10.074 4.443,8.697 4.089 C 8.404 4.014,7.876 3.986,7.560 4.028 M7.734 10.043 C 7.363 10.143,7.088 10.447,7.016 10.840 C 6.937 11.267,7.184 11.722,7.600 11.916 C 7.725 11.974,7.784 11.984,8.000 11.984 C 8.216 11.984,8.275 11.974,8.400 11.916 C 8.816 11.722,9.063 11.267,8.984 10.840 C 8.911 10.441,8.636 10.141,8.254 10.041 C 8.061 9.991,7.926 9.991,7.734 10.043 " stroke="none" fill-rule="evenodd" fill="black"></path></svg>