<svg xmlns="http://www.w3.org/2000/svg" width="24" height="24" viewBox="0 0 24 24"><path d="M11.069 1.039 C 8.822 1.258,6.868 2.041,5.101 3.432 C 4.640 3.795,3.606 4.863,3.231 5.363 C 2.075 6.906,1.379 8.590,1.093 10.540 C 0.995 11.212,0.995 12.788,1.093 13.460 C 1.379 15.409,2.074 17.091,3.230 18.637 C 3.685 19.244,4.756 20.315,5.363 20.770 C 6.909 21.926,8.591 22.621,10.540 22.907 C 11.212 23.005,12.788 23.005,13.460 22.907 C 15.409 22.621,17.091 21.926,18.637 20.770 C 19.244 20.315,20.315 19.244,20.770 18.637 C 21.926 17.091,22.621 15.409,22.907 13.460 C 22.959 13.104,22.977 12.727,22.977 12.000 C 22.977 11.273,22.959 10.896,22.907 10.540 C 22.621 8.590,21.925 6.906,20.769 5.363 C 20.394 4.863,19.360 3.795,18.899 3.432 C 17.302 2.175,15.548 1.412,13.580 1.120 C 12.946 1.026,11.638 0.984,11.069 1.039 M13.580 2.636 C 15.625 3.000,17.390 3.930,18.801 5.385 C 20.173 6.801,21.013 8.453,21.368 10.437 C 21.491 11.124,21.501 12.777,21.386 13.460 C 21.215 14.477,20.944 15.322,20.501 16.220 C 19.286 18.680,17.045 20.498,14.360 21.200 C 12.866 21.590,11.134 21.590,9.640 21.200 C 6.968 20.501,4.760 18.719,3.518 16.260 C 3.086 15.405,2.814 14.576,2.632 13.563 C 2.553 13.124,2.542 12.925,2.542 12.000 C 2.542 11.075,2.553 10.876,2.632 10.437 C 2.814 9.424,3.086 8.595,3.518 7.740 C 4.902 5.000,7.541 3.072,10.520 2.625 C 11.170 2.527,11.163 2.527,12.160 2.539 C 12.906 2.548,13.199 2.568,13.580 2.636 M11.180 6.586 C 10.434 6.745,9.778 7.185,9.354 7.808 C 9.073 8.223,9.016 8.476,9.138 8.769 C 9.237 9.005,9.576 9.240,9.820 9.240 C 10.064 9.240,10.368 9.030,10.534 8.746 C 10.663 8.526,10.960 8.253,11.173 8.159 C 11.423 8.049,11.855 7.986,12.165 8.015 C 12.684 8.063,13.111 8.294,13.311 8.634 C 13.406 8.796,13.420 8.861,13.417 9.140 C 13.413 9.679,13.226 9.969,12.461 10.621 C 11.833 11.156,11.459 11.548,11.349 11.787 C 11.265 11.970,11.260 12.031,11.260 12.960 C 11.260 14.095,11.278 14.167,11.612 14.375 C 11.975 14.600,12.462 14.473,12.656 14.100 C 12.731 13.957,12.741 13.859,12.752 13.160 L 12.765 12.380 12.872 12.266 C 12.932 12.203,13.203 11.961,13.476 11.726 C 14.441 10.899,14.818 10.299,14.916 9.436 C 15.073 8.051,14.170 6.882,12.712 6.583 C 12.325 6.504,11.559 6.505,11.180 6.586 M11.664 16.063 C 11.436 16.146,11.257 16.297,11.131 16.511 C 11.036 16.672,11.020 16.744,11.020 17.000 C 11.020 17.256,11.036 17.328,11.131 17.489 C 11.470 18.065,12.234 18.168,12.701 17.701 C 12.881 17.521,13.000 17.242,13.000 17.000 C 13.000 16.326,12.295 15.832,11.664 16.063 " stroke="none" fill-rule="evenodd" fill="black"></path></svg>