<svg xmlns="http://www.w3.org/2000/svg" width="16" height="16" viewBox="0 0 16 16"><path d="M1.467 2.562 C 1.294 2.640,1.184 2.733,1.107 2.863 C 0.871 3.266,1.051 3.779,1.488 3.946 C 1.627 4.000,1.674 4.000,7.000 4.000 C 12.326 4.000,12.373 4.000,12.512 3.946 C 12.751 3.855,12.908 3.676,12.973 3.423 C 13.062 3.077,12.909 2.752,12.581 2.588 L 12.418 2.507 7.002 2.507 C 1.619 2.508,1.586 2.508,1.467 2.562 M1.420 7.082 C 1.261 7.161,1.136 7.293,1.056 7.465 C 1.000 7.587,1.000 7.590,1.000 10.747 L 1.000 13.907 1.063 14.046 C 1.134 14.203,1.306 14.376,1.458 14.443 C 1.610 14.509,1.903 14.506,2.053 14.436 C 2.206 14.365,2.365 14.207,2.437 14.053 L 2.493 13.933 2.493 10.747 C 2.493 7.178,2.510 7.482,2.299 7.249 C 2.085 7.011,1.706 6.939,1.420 7.082 M5.600 7.518 C 5.258 7.588,5.004 7.901,5.004 8.253 C 5.004 8.543,5.164 8.793,5.435 8.926 L 5.587 9.000 10.000 9.000 L 14.413 9.000 14.565 8.926 C 15.137 8.645,15.142 7.880,14.573 7.578 L 14.440 7.507 10.067 7.503 C 7.661 7.501,5.651 7.508,5.600 7.518 M5.467 12.562 C 5.294 12.640,5.184 12.733,5.107 12.863 C 4.871 13.266,5.051 13.779,5.488 13.946 C 5.627 13.999,5.678 14.000,10.000 14.000 C 14.322 14.000,14.373 13.999,14.512 13.946 C 14.751 13.855,14.908 13.676,14.973 13.423 C 15.062 13.077,14.909 12.752,14.581 12.588 L 14.418 12.507 10.002 12.507 C 5.624 12.508,5.586 12.508,5.467 12.562 " stroke="none" fill-rule="evenodd" fill="black"></path></svg>