<svg xmlns="http://www.w3.org/2000/svg" width="24" height="24" viewBox="0 0 24 24"><path d="M3.394 5.601 C 3.110 5.751,2.968 6.046,3.018 6.380 C 3.053 6.616,3.296 6.898,3.515 6.959 C 3.715 7.015,17.285 7.015,17.485 6.959 C 17.704 6.898,17.947 6.616,17.982 6.380 C 18.033 6.041,17.888 5.747,17.598 5.599 C 17.446 5.521,17.333 5.520,10.492 5.522 C 3.699 5.523,3.537 5.525,3.394 5.601 M3.460 11.076 C 3.257 11.170,3.089 11.348,3.039 11.523 C 3.015 11.608,3.000 13.032,3.001 15.280 C 3.002 18.729,3.005 18.908,3.077 19.065 C 3.118 19.155,3.212 19.276,3.286 19.332 C 3.416 19.431,3.721 19.528,3.815 19.500 C 3.840 19.493,3.909 19.476,3.969 19.463 C 4.105 19.433,4.342 19.229,4.432 19.064 C 4.494 18.950,4.501 18.642,4.511 15.380 C 4.519 12.983,4.508 11.755,4.480 11.622 C 4.375 11.130,3.896 10.874,3.460 11.076 M8.457 11.636 C 7.986 11.850,7.863 12.430,8.206 12.820 C 8.446 13.094,8.098 13.080,14.500 13.080 C 20.902 13.080,20.554 13.094,20.794 12.820 C 21.137 12.430,21.014 11.850,20.543 11.636 C 20.387 11.565,20.134 11.562,14.500 11.562 C 8.866 11.562,8.613 11.565,8.457 11.636 M8.394 17.601 C 8.110 17.751,7.968 18.046,8.018 18.380 C 8.053 18.616,8.296 18.898,8.515 18.959 C 8.715 19.015,20.285 19.015,20.485 18.959 C 20.704 18.898,20.947 18.616,20.982 18.380 C 21.033 18.041,20.888 17.747,20.598 17.599 C 20.446 17.521,20.338 17.520,14.492 17.522 C 8.687 17.523,8.536 17.525,8.394 17.601 " stroke="none" fill-rule="evenodd" fill="black"></path></svg>