<svg xmlns="http://www.w3.org/2000/svg" width="24" height="24" viewBox="0 0 24 24"><path d="M9.860 3.757 C 9.794 3.773,9.704 3.806,9.660 3.831 C 9.616 3.855,8.110 5.348,6.313 7.147 L 3.046 10.420 3.018 10.614 C 2.957 11.035,2.783 10.836,6.313 14.374 C 8.524 16.590,9.590 17.632,9.700 17.683 C 9.979 17.814,10.303 17.768,10.534 17.565 C 10.744 17.381,10.823 16.962,10.696 16.708 C 10.661 16.638,9.496 15.441,8.106 14.049 L 5.580 11.519 11.620 11.529 L 17.660 11.540 17.980 11.650 C 19.152 12.052,20.009 13.040,20.198 14.208 C 20.223 14.360,20.240 15.440,20.241 16.920 C 20.242 19.226,20.246 19.390,20.316 19.540 C 20.405 19.734,20.532 19.856,20.729 19.938 C 21.125 20.103,21.597 19.870,21.722 19.448 C 21.752 19.345,21.761 18.515,21.750 16.700 C 21.736 14.411,21.725 14.065,21.664 13.806 C 21.210 11.879,19.889 10.555,17.960 10.095 C 17.680 10.028,17.259 10.023,11.622 10.011 L 5.584 9.998 8.110 7.469 C 9.856 5.721,10.655 4.894,10.698 4.791 C 10.893 4.323,10.617 3.825,10.120 3.750 C 10.043 3.738,9.926 3.741,9.860 3.757 " stroke="none" fill-rule="evenodd" fill="black"></path></svg>