<svg xmlns="http://www.w3.org/2000/svg" width="16" height="16" viewBox="0 0 16 16"><path d="M5.997 1.797 C 5.944 1.816,5.866 1.856,5.824 1.887 C 5.781 1.918,4.755 2.937,3.543 4.152 C 1.532 6.167,1.336 6.371,1.297 6.491 C 1.239 6.667,1.242 6.848,1.306 7.019 C 1.355 7.148,1.556 7.357,3.606 9.406 C 5.347 11.146,5.880 11.663,5.973 11.705 C 6.054 11.741,6.151 11.759,6.267 11.759 C 6.781 11.760,7.134 11.267,6.974 10.770 C 6.930 10.635,6.840 10.539,5.364 9.059 L 3.800 7.492 7.227 7.500 L 10.653 7.509 10.920 7.570 C 11.573 7.717,12.176 8.057,12.612 8.524 C 12.946 8.881,13.230 9.368,13.356 9.800 C 13.485 10.237,13.493 10.371,13.493 11.892 C 13.493 13.098,13.500 13.345,13.534 13.461 C 13.656 13.873,14.111 14.101,14.507 13.949 C 14.750 13.855,14.906 13.680,14.972 13.427 C 15.006 13.295,15.013 13.060,15.013 12.028 C 15.013 10.703,14.990 10.221,14.905 9.807 C 14.491 7.775,12.792 6.239,10.724 6.028 C 10.546 6.010,9.267 6.000,7.124 6.000 L 3.800 6.000 5.339 4.460 C 7.035 2.763,6.993 2.813,6.993 2.487 C 6.993 2.178,6.772 1.877,6.481 1.790 C 6.349 1.751,6.118 1.754,5.997 1.797 " stroke="none" fill-rule="evenodd" fill="black"></path></svg>