<svg xmlns="http://www.w3.org/2000/svg" width="16" height="16" viewBox="0 0 16 16"><path d="M3.120 0.031 C 2.863 0.067,2.455 0.216,2.208 0.363 C 1.973 0.504,1.584 0.864,1.445 1.070 C 1.225 1.397,1.065 1.828,1.016 2.227 C 0.975 2.563,0.975 11.437,1.016 11.773 C 1.088 12.363,1.361 12.912,1.777 13.308 C 2.077 13.593,2.396 13.774,2.840 13.912 L 3.080 13.986 5.723 13.994 C 8.335 14.002,8.368 14.001,8.510 13.947 C 8.751 13.855,8.908 13.677,8.973 13.423 C 9.058 13.090,8.917 12.769,8.609 12.599 L 8.467 12.520 5.880 12.507 L 3.293 12.493 3.134 12.429 C 2.931 12.347,2.714 12.144,2.605 11.933 C 2.528 11.786,2.522 11.752,2.521 11.507 C 2.520 11.272,2.529 11.222,2.592 11.087 C 2.683 10.892,2.892 10.683,3.087 10.592 L 3.240 10.520 5.840 10.507 C 8.757 10.492,8.523 10.509,8.759 10.292 C 9.152 9.929,9.038 9.281,8.543 9.062 C 8.433 9.014,8.324 9.012,5.728 9.019 L 3.027 9.027 2.813 9.096 C 2.696 9.134,2.579 9.175,2.553 9.186 C 2.508 9.205,2.506 9.045,2.513 5.716 L 2.520 2.227 2.604 2.067 C 2.757 1.774,3.015 1.580,3.330 1.520 C 3.423 1.503,4.886 1.493,7.483 1.493 L 11.492 1.493 11.500 4.967 C 11.508 8.867,11.488 8.520,11.708 8.759 C 12.074 9.155,12.710 9.040,12.944 8.535 L 13.000 8.413 13.007 4.576 C 13.014 1.210,13.009 0.719,12.974 0.580 C 12.906 0.317,12.742 0.134,12.496 0.049 C 12.368 0.005,12.088 0.002,7.827 0.004 C 5.239 0.006,3.219 0.017,3.120 0.031 M10.600 9.999 C 10.372 10.037,10.127 10.232,10.033 10.450 C 9.976 10.581,9.979 10.889,10.038 11.027 C 10.071 11.101,10.365 11.415,11.002 12.054 C 11.507 12.560,11.920 12.986,11.920 13.000 C 11.920 13.014,11.507 13.440,11.002 13.946 C 10.365 14.585,10.071 14.899,10.038 14.973 C 9.978 15.112,9.976 15.419,10.033 15.552 C 10.093 15.689,10.276 15.880,10.411 15.945 C 10.494 15.986,10.576 16.000,10.722 16.000 C 11.056 15.999,11.071 15.988,12.080 14.976 C 12.571 14.483,12.985 14.080,13.000 14.080 C 13.015 14.080,13.429 14.483,13.920 14.976 C 14.929 15.988,14.944 15.999,15.278 16.000 C 15.521 16.000,15.654 15.943,15.813 15.770 C 15.961 15.610,16.000 15.507,16.000 15.274 C 15.999 14.944,15.986 14.927,14.976 13.920 C 14.483 13.429,14.080 13.015,14.080 13.000 C 14.080 12.985,14.483 12.571,14.976 12.080 C 15.986 11.073,15.999 11.056,16.000 10.726 C 16.000 10.498,15.962 10.394,15.824 10.241 C 15.675 10.076,15.498 9.995,15.282 9.994 C 14.958 9.992,14.943 10.004,13.932 11.014 C 13.434 11.512,13.015 11.920,13.000 11.920 C 12.985 11.920,12.566 11.512,12.068 11.014 C 11.120 10.067,11.069 10.025,10.813 9.994 C 10.755 9.987,10.659 9.989,10.600 9.999 " stroke="none" fill-rule="evenodd" fill="black"></path></svg>