<svg xmlns="http://www.w3.org/2000/svg" width="24" height="24" viewBox="0 0 24 24"><path d="M5.180 0.064 C 5.026 0.096,4.729 0.205,4.521 0.307 C 4.210 0.459,4.083 0.551,3.817 0.817 C 3.553 1.081,3.458 1.213,3.305 1.521 C 2.978 2.185,3.001 1.461,3.001 10.746 C 3.000 19.641,2.992 19.269,3.197 19.856 C 3.442 20.557,3.996 21.212,4.649 21.574 C 5.141 21.847,5.419 21.847,5.722 21.573 C 6.115 21.219,6.037 20.651,5.558 20.373 C 5.179 20.153,4.960 19.962,4.796 19.709 C 4.544 19.319,4.512 19.151,4.527 18.309 C 4.539 17.610,4.544 17.571,4.649 17.359 C 4.787 17.076,5.076 16.787,5.359 16.649 L 5.580 16.540 12.530 16.530 L 19.480 16.519 19.480 18.520 L 19.480 20.520 16.758 20.520 C 14.459 20.520,14.019 20.529,13.924 20.578 C 13.772 20.657,13.566 20.897,13.537 21.031 C 13.524 21.091,13.507 21.160,13.500 21.185 C 13.472 21.279,13.569 21.584,13.668 21.714 C 13.724 21.788,13.845 21.882,13.935 21.923 C 14.092 21.994,14.259 21.998,17.220 21.999 C 19.141 21.999,20.394 21.984,20.481 21.960 C 20.658 21.911,20.909 21.659,20.961 21.478 C 21.015 21.289,21.014 0.713,20.960 0.518 C 20.939 0.440,20.862 0.320,20.790 0.250 C 20.511 -0.020,21.137 -0.000,12.911 0.003 C 6.590 0.006,5.418 0.015,5.180 0.064 M19.480 8.259 L 19.480 14.998 12.470 15.010 C 5.852 15.021,5.447 15.026,5.223 15.094 C 5.093 15.134,4.881 15.216,4.753 15.277 L 4.520 15.388 4.520 8.924 L 4.521 2.460 4.623 2.240 C 4.758 1.948,4.929 1.775,5.220 1.635 L 5.460 1.520 12.470 1.520 L 19.480 1.520 19.480 8.259 M7.080 18.080 C 7.002 18.158,7.000 18.213,7.000 20.757 L 7.000 23.354 7.105 23.437 C 7.163 23.483,7.233 23.520,7.261 23.520 C 7.289 23.520,7.804 23.163,8.406 22.727 C 9.747 21.756,9.698 21.788,9.796 21.819 C 9.840 21.833,10.382 22.212,10.999 22.662 C 11.617 23.111,12.164 23.489,12.214 23.502 C 12.272 23.517,12.340 23.497,12.403 23.446 L 12.500 23.367 12.511 20.790 C 12.522 18.227,12.521 18.212,12.438 18.106 L 12.354 18.000 9.757 18.000 C 7.213 18.000,7.158 18.002,7.080 18.080 " stroke="none" fill-rule="evenodd" fill="black"></path></svg>