<svg xmlns="http://www.w3.org/2000/svg" width="16" height="16" viewBox="0 0 16 16"><path d="M4.121 0.030 C 3.891 0.063,3.696 0.124,3.449 0.240 C 2.717 0.581,2.214 1.219,2.050 2.013 C 2.003 2.242,2.001 2.476,2.001 7.000 C 2.001 11.526,2.003 11.758,2.050 11.987 C 2.144 12.440,2.383 12.905,2.678 13.208 C 3.011 13.551,3.495 13.557,3.803 13.222 C 4.072 12.929,4.059 12.502,3.771 12.181 C 3.503 11.883,3.435 11.448,3.597 11.081 C 3.671 10.912,3.878 10.702,4.066 10.604 L 4.227 10.520 8.367 10.513 L 12.507 10.506 12.507 11.505 L 12.507 12.504 11.513 12.512 L 10.520 12.520 10.396 12.593 C 9.947 12.857,9.866 13.416,10.225 13.775 C 10.453 14.003,10.426 14.000,12.000 14.000 C 13.574 14.000,13.547 14.003,13.775 13.775 C 14.022 13.528,14.000 14.196,14.000 7.000 C 14.000 -0.012,14.013 0.491,13.830 0.278 C 13.780 0.219,13.675 0.136,13.596 0.092 L 13.453 0.013 8.867 0.010 C 6.344 0.008,4.208 0.017,4.121 0.030 M12.500 5.247 L 12.493 9.000 8.267 9.014 C 3.700 9.028,4.023 9.018,3.630 9.158 C 3.566 9.181,3.509 9.200,3.503 9.200 C 3.497 9.200,3.495 7.643,3.499 5.740 L 3.507 2.280 3.590 2.103 C 3.636 2.006,3.717 1.879,3.770 1.821 C 3.886 1.692,4.145 1.549,4.315 1.521 C 4.384 1.509,6.255 1.498,8.473 1.496 L 12.507 1.493 12.500 5.247 M5.087 12.078 L 5.000 12.156 4.993 13.831 C 4.987 15.386,4.989 15.513,5.033 15.600 C 5.087 15.707,5.201 15.772,5.295 15.749 C 5.331 15.740,5.699 15.478,6.113 15.168 C 6.527 14.858,6.898 14.592,6.938 14.577 C 6.988 14.558,7.029 14.559,7.076 14.580 C 7.112 14.597,7.479 14.863,7.891 15.171 C 8.303 15.480,8.669 15.740,8.705 15.749 C 8.799 15.772,8.913 15.707,8.967 15.600 C 9.011 15.513,9.014 15.387,9.007 13.831 L 9.000 12.156 8.913 12.078 L 8.826 12.000 7.000 12.000 L 5.174 12.000 5.087 12.078 " stroke="none" fill-rule="evenodd" fill="black"></path></svg>