<svg xmlns="http://www.w3.org/2000/svg" width="16" height="16" viewBox="0 0 16 16"><path d="M1.442 0.029 C 0.801 0.156,0.295 0.596,0.087 1.210 L 0.013 1.427 0.006 6.420 C -0.001 11.984,-0.013 11.614,0.185 12.013 C 0.415 12.478,0.787 12.791,1.280 12.935 C 1.458 12.986,1.562 12.994,2.231 13.006 L 2.982 13.020 2.993 13.903 C 3.003 14.717,3.008 14.800,3.061 14.960 C 3.361 15.871,4.374 16.267,5.198 15.797 C 5.271 15.755,5.861 15.187,6.680 14.371 L 8.040 13.015 11.280 13.007 L 14.520 12.998 14.716 12.938 C 15.216 12.785,15.589 12.472,15.815 12.013 C 16.013 11.613,16.001 11.983,15.994 6.420 L 15.987 1.427 15.914 1.211 C 15.734 0.683,15.318 0.266,14.792 0.088 L 14.573 0.013 8.067 0.009 C 4.437 0.007,1.508 0.016,1.442 0.029 M14.419 1.581 L 14.493 1.655 14.501 6.421 C 14.505 9.042,14.502 11.225,14.493 11.271 C 14.485 11.318,14.456 11.384,14.428 11.418 L 14.378 11.480 10.969 11.493 L 7.560 11.507 7.427 11.578 C 7.331 11.629,6.901 12.042,5.907 13.038 L 4.520 14.427 4.507 13.247 C 4.494 12.116,4.491 12.062,4.437 11.947 C 4.366 11.796,4.215 11.646,4.056 11.567 C 3.936 11.508,3.911 11.506,2.784 11.493 C 1.552 11.479,1.582 11.483,1.523 11.339 C 1.501 11.286,1.495 9.962,1.500 6.463 C 1.507 1.701,1.507 1.658,1.560 1.600 C 1.589 1.567,1.637 1.531,1.667 1.518 C 1.696 1.506,4.561 1.499,8.033 1.502 L 14.345 1.507 14.419 1.581 M7.649 3.101 C 7.464 3.196,7.331 3.357,7.279 3.549 C 7.261 3.617,7.254 4.139,7.259 5.060 L 7.267 6.467 7.350 6.613 C 7.453 6.796,7.618 6.919,7.836 6.974 C 7.984 7.012,8.015 7.012,8.160 6.976 C 8.434 6.905,8.618 6.742,8.708 6.488 C 8.754 6.361,8.763 3.701,8.719 3.542 C 8.669 3.360,8.530 3.194,8.349 3.100 C 8.208 3.027,8.153 3.013,8.000 3.013 C 7.847 3.013,7.791 3.027,7.649 3.101 M7.734 8.043 C 7.363 8.143,7.088 8.447,7.016 8.840 C 6.937 9.267,7.184 9.722,7.600 9.916 C 7.725 9.974,7.784 9.984,8.000 9.984 C 8.216 9.984,8.275 9.974,8.400 9.916 C 8.816 9.722,9.063 9.267,8.984 8.840 C 8.911 8.441,8.636 8.141,8.254 8.041 C 8.061 7.991,7.926 7.991,7.734 8.043 " stroke="none" fill-rule="evenodd" fill="black"></path></svg>