<svg xmlns="http://www.w3.org/2000/svg" width="24" height="24" viewBox="0 0 24 24"><path d="M4.960 1.603 C 3.633 1.948,2.692 3.032,2.521 4.410 C 2.432 5.129,2.633 5.941,3.053 6.560 C 3.215 6.798,3.615 7.215,3.840 7.380 C 4.075 7.552,4.482 7.757,4.759 7.842 L 4.980 7.911 5.005 8.645 C 5.027 9.278,5.045 9.430,5.137 9.740 C 5.520 11.031,6.400 11.935,7.660 12.331 C 8.146 12.484,8.583 12.520,9.970 12.520 L 11.240 12.520 11.240 14.301 C 11.240 15.963,11.235 16.084,11.170 16.104 C 10.614 16.276,10.177 16.520,9.795 16.874 C 8.547 18.027,8.409 19.962,9.480 21.293 C 10.094 22.056,11.004 22.488,12.000 22.488 C 12.996 22.488,13.906 22.056,14.520 21.293 C 15.418 20.178,15.487 18.655,14.695 17.454 C 14.268 16.806,13.647 16.356,12.830 16.104 C 12.765 16.084,12.760 15.963,12.760 14.301 L 12.760 12.520 14.030 12.520 C 15.417 12.520,15.854 12.484,16.340 12.331 C 17.600 11.935,18.480 11.031,18.863 9.740 C 18.955 9.430,18.973 9.278,18.995 8.645 L 19.020 7.911 19.241 7.842 C 19.743 7.687,20.191 7.404,20.582 6.994 C 20.973 6.585,21.162 6.273,21.337 5.753 C 21.765 4.479,21.303 2.990,20.230 2.177 C 19.661 1.747,18.986 1.520,18.276 1.520 C 17.359 1.520,16.662 1.795,16.011 2.414 C 15.311 3.078,14.960 3.959,15.012 4.919 C 15.083 6.253,15.943 7.396,17.191 7.817 L 17.460 7.907 17.473 8.464 C 17.487 9.117,17.447 9.349,17.247 9.760 C 16.968 10.336,16.394 10.788,15.750 10.940 C 15.378 11.028,8.622 11.028,8.250 10.940 C 7.606 10.788,7.032 10.336,6.753 9.760 C 6.553 9.349,6.513 9.117,6.527 8.464 L 6.540 7.907 6.809 7.817 C 8.544 7.232,9.451 5.266,8.771 3.562 C 8.373 2.565,7.470 1.797,6.442 1.580 C 6.033 1.494,5.335 1.505,4.960 1.603 M6.179 3.061 C 6.689 3.194,7.099 3.539,7.332 4.030 C 7.453 4.285,7.460 4.325,7.460 4.761 C 7.460 5.205,7.455 5.232,7.323 5.501 C 6.918 6.323,5.992 6.696,5.130 6.385 C 4.752 6.248,4.344 5.869,4.172 5.495 C 3.561 4.158,4.768 2.694,6.179 3.061 M18.608 3.045 C 19.308 3.194,19.845 3.759,19.968 4.479 C 20.165 5.627,19.142 6.658,17.987 6.476 C 17.420 6.386,16.936 6.026,16.677 5.501 C 16.545 5.232,16.540 5.205,16.540 4.761 C 16.540 4.325,16.547 4.285,16.668 4.030 C 17.027 3.273,17.810 2.875,18.608 3.045 M12.720 17.665 C 13.618 18.089,13.991 19.136,13.560 20.024 C 13.494 20.158,13.346 20.362,13.231 20.478 C 12.540 21.168,11.444 21.167,10.763 20.475 C 9.844 19.542,10.239 17.991,11.500 17.574 C 11.601 17.541,11.808 17.525,12.060 17.532 C 12.411 17.541,12.492 17.557,12.720 17.665 " stroke="none" fill-rule="evenodd" fill="black"></path></svg>