<svg xmlns="http://www.w3.org/2000/svg" width="16" height="16" viewBox="0 0 16 16"><path d="M3.120 0.031 C 2.863 0.067,2.455 0.216,2.208 0.363 C 1.973 0.504,1.584 0.864,1.445 1.070 C 1.225 1.397,1.065 1.828,1.016 2.227 C 0.975 2.563,0.975 11.437,1.016 11.773 C 1.088 12.363,1.361 12.912,1.777 13.308 C 2.077 13.593,2.396 13.774,2.840 13.912 L 3.080 13.987 6.211 13.994 C 9.791 14.003,9.532 14.018,9.775 13.776 C 10.134 13.416,10.053 12.857,9.604 12.593 L 9.480 12.520 6.387 12.507 L 3.293 12.493 3.134 12.429 C 2.931 12.347,2.714 12.144,2.605 11.933 C 2.528 11.786,2.522 11.752,2.521 11.507 C 2.520 11.272,2.529 11.222,2.592 11.087 C 2.683 10.892,2.892 10.683,3.087 10.592 L 3.240 10.520 5.080 10.507 L 6.920 10.493 7.073 10.418 C 7.358 10.278,7.510 10.016,7.488 9.698 C 7.470 9.426,7.319 9.198,7.079 9.079 C 6.977 9.028,6.909 9.027,5.000 9.027 L 3.027 9.027 2.813 9.096 C 2.696 9.134,2.579 9.175,2.553 9.186 C 2.508 9.205,2.506 9.045,2.513 5.716 L 2.520 2.227 2.604 2.067 C 2.757 1.774,3.015 1.580,3.330 1.520 C 3.423 1.503,4.886 1.493,7.483 1.493 L 11.491 1.493 11.499 2.967 C 11.508 4.618,11.497 4.530,11.708 4.759 C 12.074 5.155,12.710 5.040,12.944 4.535 C 12.999 4.416,13.000 4.380,13.008 2.578 C 13.014 0.994,13.010 0.721,12.974 0.582 C 12.906 0.317,12.742 0.134,12.496 0.049 C 12.368 0.005,12.088 0.002,7.827 0.004 C 5.239 0.006,3.219 0.017,3.120 0.031 M12.019 6.544 C 11.963 6.564,11.873 6.612,11.819 6.650 C 11.764 6.688,11.142 7.298,10.436 8.006 C 9.545 8.899,9.134 9.330,9.092 9.413 C 8.847 9.903,9.204 10.492,9.746 10.493 C 10.057 10.494,10.103 10.462,10.833 9.738 L 11.492 9.083 11.499 12.255 L 11.507 15.427 11.569 15.553 C 11.868 16.153,12.678 16.139,12.954 15.529 C 12.997 15.434,13.001 15.199,13.007 12.255 L 13.014 9.084 13.674 9.738 C 14.269 10.328,14.347 10.397,14.475 10.439 C 14.786 10.541,15.085 10.467,15.294 10.234 C 15.491 10.014,15.540 9.756,15.437 9.474 C 15.384 9.329,15.300 9.240,14.059 7.995 C 13.127 7.060,12.699 6.649,12.605 6.598 C 12.443 6.510,12.176 6.485,12.019 6.544 " stroke="none" fill-rule="evenodd" fill="black"></path></svg>