<svg xmlns="http://www.w3.org/2000/svg" width="24" height="24" viewBox="0 0 24 24"><path d="M2.691 2.594 C 2.068 2.810,1.629 3.338,1.522 4.000 C 1.465 4.358,1.465 16.639,1.522 17.000 C 1.645 17.771,2.229 18.355,3.000 18.478 C 3.143 18.501,3.651 18.520,4.130 18.520 L 5.000 18.520 5.000 19.876 C 5.000 21.092,5.008 21.258,5.075 21.475 C 5.324 22.274,6.187 22.693,6.980 22.399 C 7.208 22.315,7.319 22.212,9.122 20.415 L 11.024 18.520 15.882 18.520 C 19.039 18.520,20.831 18.505,21.000 18.478 C 21.771 18.355,22.355 17.771,22.478 17.000 C 22.535 16.645,22.535 4.361,22.479 4.000 C 22.389 3.432,22.021 2.934,21.501 2.677 L 21.222 2.540 12.061 2.531 C 3.319 2.523,2.890 2.526,2.691 2.594 M20.920 4.080 C 20.999 4.159,21.000 4.213,21.000 10.500 C 21.000 16.787,20.999 16.841,20.920 16.920 C 20.841 16.999,20.787 17.000,15.908 17.000 C 10.521 17.000,10.756 16.990,10.303 17.230 C 10.157 17.308,9.598 17.836,8.310 19.117 L 6.520 20.896 6.519 19.338 C 6.518 18.413,6.501 17.707,6.477 17.601 C 6.422 17.365,6.268 17.169,6.065 17.077 C 5.914 17.008,5.782 17.002,4.530 17.001 C 3.214 17.000,3.157 16.997,3.080 16.920 C 3.001 16.841,3.000 16.787,3.000 10.500 C 3.000 4.213,3.001 4.159,3.080 4.080 C 3.160 4.000,3.213 4.000,12.000 4.000 C 20.787 4.000,20.840 4.000,20.920 4.080 M11.698 6.075 C 11.502 6.164,11.337 6.352,11.279 6.552 C 11.250 6.652,11.240 7.385,11.248 8.820 C 11.260 10.881,11.262 10.944,11.344 11.100 C 11.610 11.610,12.390 11.610,12.656 11.100 C 12.738 10.944,12.740 10.881,12.752 8.820 C 12.760 7.385,12.750 6.652,12.721 6.552 C 12.633 6.249,12.309 6.002,12.000 6.002 C 11.923 6.002,11.787 6.035,11.698 6.075 M11.664 13.063 C 11.436 13.146,11.257 13.297,11.131 13.511 C 11.036 13.672,11.020 13.744,11.020 14.000 C 11.020 14.256,11.036 14.328,11.131 14.489 C 11.470 15.065,12.234 15.168,12.701 14.701 C 12.881 14.521,13.000 14.242,13.000 14.000 C 13.000 13.326,12.295 12.832,11.664 13.063 " stroke="none" fill-rule="evenodd" fill="black"></path></svg>