<svg xmlns="http://www.w3.org/2000/svg" width="24" height="24" viewBox="0 0 24 24"><path d="M4.180 0.064 C 4.026 0.096,3.729 0.205,3.521 0.307 C 3.210 0.459,3.083 0.551,2.817 0.817 C 2.553 1.081,2.458 1.213,2.305 1.521 C 1.977 2.186,2.001 1.432,2.001 11.000 C 2.001 20.568,1.977 19.814,2.305 20.479 C 2.570 21.014,2.986 21.430,3.521 21.695 C 4.175 22.018,3.757 21.999,10.180 21.998 C 15.681 21.998,15.906 21.995,16.065 21.923 C 16.155 21.882,16.276 21.788,16.332 21.714 C 16.431 21.584,16.528 21.279,16.500 21.185 C 16.493 21.160,16.476 21.091,16.463 21.031 C 16.436 20.911,16.237 20.665,16.105 20.588 C 16.040 20.551,14.667 20.535,10.260 20.520 C 4.788 20.501,4.491 20.496,4.310 20.426 C 4.030 20.318,3.753 20.049,3.624 19.761 L 3.515 19.519 3.527 18.549 C 3.540 17.587,3.541 17.578,3.649 17.359 C 3.787 17.076,4.076 16.787,4.359 16.649 L 4.580 16.540 8.500 16.520 C 12.226 16.501,12.427 16.496,12.570 16.425 C 13.013 16.205,13.135 15.634,12.815 15.279 C 12.544 14.980,12.804 14.996,8.400 15.010 C 4.055 15.025,4.315 15.010,3.753 15.277 L 3.520 15.388 3.520 8.924 L 3.521 2.460 3.623 2.240 C 3.758 1.948,3.929 1.775,4.220 1.635 L 4.460 1.520 11.470 1.520 L 18.480 1.520 18.480 4.978 C 18.480 7.357,18.494 8.501,18.524 8.643 C 18.577 8.891,18.778 9.133,18.987 9.202 C 19.340 9.319,19.760 9.150,19.915 8.830 C 20.000 8.655,20.000 8.649,20.000 4.657 C 20.000 2.157,19.985 0.607,19.960 0.518 C 19.939 0.440,19.862 0.320,19.790 0.250 C 19.511 -0.020,20.137 -0.000,11.911 0.003 C 5.590 0.006,4.418 0.015,4.180 0.064 M19.093 11.279 C 19.023 11.295,18.912 11.343,18.846 11.384 C 18.663 11.501,15.116 15.320,15.054 15.467 C 14.931 15.762,15.010 16.096,15.254 16.309 C 15.514 16.538,15.858 16.568,16.130 16.384 C 16.200 16.337,16.753 15.769,17.359 15.123 L 18.460 13.948 18.480 18.684 C 18.499 23.207,18.503 23.427,18.575 23.570 C 18.796 24.016,19.366 24.135,19.725 23.811 C 19.813 23.732,19.906 23.629,19.932 23.583 C 19.968 23.520,19.985 22.326,20.000 18.711 L 20.020 13.921 21.140 15.125 C 21.819 15.855,22.318 16.358,22.408 16.404 C 22.583 16.493,22.870 16.503,23.051 16.425 C 23.207 16.358,23.380 16.181,23.437 16.027 C 23.501 15.861,23.486 15.558,23.408 15.412 C 23.313 15.234,19.744 11.414,19.609 11.346 C 19.460 11.270,19.245 11.242,19.093 11.279 " stroke="none" fill-rule="evenodd" fill="black"></path></svg>