<svg xmlns="http://www.w3.org/2000/svg" width="16" height="16" viewBox="0 0 16 16"><path d="M3.120 0.031 C 2.863 0.067,2.455 0.216,2.208 0.363 C 1.973 0.504,1.584 0.864,1.445 1.070 C 1.225 1.397,1.065 1.828,1.016 2.227 C 0.975 2.563,0.975 11.437,1.016 11.773 C 1.088 12.363,1.361 12.912,1.777 13.308 C 2.078 13.594,2.397 13.775,2.840 13.911 L 3.080 13.985 4.722 13.994 C 6.329 14.002,6.367 14.001,6.509 13.947 C 6.751 13.855,6.908 13.678,6.973 13.423 C 7.058 13.090,6.917 12.769,6.609 12.599 L 6.467 12.520 4.880 12.507 L 3.293 12.493 3.134 12.429 C 2.931 12.347,2.714 12.144,2.605 11.933 C 2.528 11.786,2.522 11.752,2.521 11.507 C 2.520 11.272,2.529 11.222,2.592 11.087 C 2.683 10.892,2.892 10.683,3.087 10.592 L 3.240 10.520 4.840 10.506 C 6.632 10.491,6.530 10.502,6.759 10.292 C 7.152 9.929,7.038 9.281,6.542 9.062 C 6.433 9.013,6.349 9.011,4.727 9.019 L 3.027 9.028 2.813 9.097 C 2.696 9.134,2.579 9.175,2.553 9.186 C 2.508 9.205,2.506 9.045,2.513 5.716 L 2.520 2.227 2.604 2.067 C 2.757 1.774,3.015 1.580,3.330 1.520 C 3.423 1.503,4.886 1.493,7.483 1.493 L 11.491 1.493 11.499 2.967 C 11.508 4.618,11.497 4.530,11.708 4.759 C 12.074 5.155,12.710 5.040,12.944 4.535 C 12.999 4.416,13.000 4.380,13.008 2.578 C 13.014 0.994,13.010 0.721,12.974 0.582 C 12.906 0.317,12.742 0.134,12.496 0.049 C 12.368 0.005,12.088 0.002,7.827 0.004 C 5.239 0.006,3.219 0.017,3.120 0.031 M11.606 6.029 C 11.309 6.067,11.007 6.159,10.707 6.304 C 9.748 6.764,9.127 7.651,9.014 8.720 C 9.000 8.859,8.987 9.243,8.986 9.573 L 8.985 10.173 8.843 10.260 C 8.507 10.462,8.230 10.805,8.091 11.191 L 8.015 11.400 8.006 12.916 C 7.998 14.368,8.000 14.441,8.052 14.649 C 8.138 14.995,8.272 15.233,8.519 15.481 C 8.766 15.727,9.005 15.862,9.348 15.948 C 9.558 16.000,9.634 16.001,12.068 15.994 L 14.573 15.987 14.789 15.914 C 15.029 15.832,15.287 15.678,15.463 15.511 C 15.636 15.347,15.830 15.036,15.913 14.790 L 15.987 14.573 15.987 13.000 L 15.987 11.427 15.910 11.205 C 15.776 10.814,15.500 10.467,15.157 10.260 L 15.015 10.173 15.014 9.573 C 15.012 8.874,14.984 8.562,14.893 8.217 C 14.511 6.782,13.090 5.836,11.606 6.029 M12.467 7.579 C 12.801 7.689,13.094 7.927,13.287 8.246 C 13.463 8.535,13.475 8.604,13.487 9.340 L 13.497 10.000 12.000 10.000 L 10.503 10.000 10.513 9.340 C 10.525 8.604,10.537 8.535,10.713 8.246 C 11.086 7.631,11.799 7.359,12.467 7.579 " stroke="none" fill-rule="evenodd" fill="black"></path></svg>