<svg xmlns="http://www.w3.org/2000/svg" width="16" height="16" viewBox="0 0 16 16"><path d="M3.787 1.054 C 3.111 1.192,2.495 1.681,2.213 2.303 C 2.060 2.641,2.015 2.857,2.015 3.253 C 2.015 3.650,2.060 3.866,2.213 4.204 C 2.422 4.665,2.888 5.119,3.347 5.309 L 3.493 5.370 3.493 5.881 C 3.493 6.467,3.532 6.747,3.655 7.068 C 3.874 7.635,4.365 8.126,4.932 8.345 C 5.290 8.483,5.511 8.507,6.430 8.507 L 7.253 8.507 7.252 9.567 L 7.252 10.627 7.015 10.739 C 6.715 10.882,6.421 11.118,6.233 11.366 C 6.032 11.632,5.963 11.760,5.869 12.041 C 5.448 13.301,6.221 14.663,7.520 14.949 C 7.779 15.006,8.221 15.006,8.480 14.949 C 9.173 14.796,9.790 14.288,10.059 13.648 C 10.287 13.106,10.307 12.525,10.115 11.990 C 9.919 11.443,9.508 10.988,8.985 10.739 L 8.748 10.627 8.748 9.567 L 8.747 8.507 9.570 8.507 C 10.489 8.507,10.710 8.483,11.068 8.345 C 11.635 8.126,12.126 7.635,12.345 7.068 C 12.468 6.747,12.507 6.467,12.507 5.881 L 12.507 5.370 12.653 5.309 C 13.112 5.119,13.578 4.665,13.787 4.204 C 13.940 3.866,13.985 3.650,13.985 3.253 C 13.985 2.857,13.940 2.641,13.787 2.303 C 13.528 1.732,12.950 1.245,12.333 1.078 C 12.082 1.011,11.575 0.997,11.305 1.052 C 10.028 1.310,9.229 2.617,9.589 3.857 C 9.777 4.508,10.240 5.046,10.829 5.301 L 10.987 5.369 10.987 5.906 C 10.987 6.429,10.985 6.446,10.918 6.580 C 10.839 6.739,10.707 6.864,10.535 6.944 C 10.414 7.000,10.397 7.000,8.000 7.000 C 5.603 7.000,5.586 7.000,5.465 6.944 C 5.293 6.864,5.161 6.739,5.082 6.580 C 5.015 6.446,5.013 6.429,5.013 5.906 L 5.013 5.369 5.171 5.301 C 5.760 5.046,6.223 4.508,6.411 3.857 C 6.768 2.626,5.974 1.314,4.714 1.056 C 4.469 1.005,4.029 1.004,3.787 1.054 M4.586 2.590 C 4.851 2.723,4.981 2.940,4.984 3.253 C 4.990 3.815,4.389 4.174,3.893 3.904 C 3.543 3.713,3.407 3.285,3.583 2.926 C 3.715 2.655,3.945 2.513,4.256 2.509 C 4.387 2.507,4.450 2.523,4.586 2.590 M12.005 2.548 C 12.291 2.645,12.492 2.937,12.490 3.251 C 12.488 3.540,12.353 3.770,12.107 3.904 C 11.611 4.174,11.010 3.815,11.016 3.253 C 11.017 3.158,11.031 3.042,11.049 2.995 C 11.189 2.615,11.616 2.415,12.005 2.548 M8.338 12.089 C 8.774 12.310,8.879 12.871,8.555 13.240 C 8.389 13.428,8.271 13.479,8.000 13.479 C 7.729 13.479,7.611 13.428,7.445 13.240 C 7.178 12.936,7.190 12.512,7.476 12.228 C 7.714 11.991,8.041 11.938,8.338 12.089 " stroke="none" fill-rule="evenodd" fill="black"></path></svg>