<svg xmlns="http://www.w3.org/2000/svg" width="24" height="24" viewBox="0 0 24 24"><path d="M4.180 0.064 C 4.026 0.096,3.729 0.205,3.521 0.307 C 3.210 0.459,3.083 0.551,2.817 0.817 C 2.553 1.081,2.458 1.213,2.305 1.521 C 1.977 2.186,2.001 1.432,2.001 11.000 C 2.001 20.568,1.977 19.814,2.305 20.479 C 2.570 21.014,2.986 21.430,3.521 21.695 C 4.153 22.007,4.041 21.999,7.680 21.998 C 10.739 21.998,10.908 21.995,11.065 21.923 C 11.155 21.882,11.276 21.788,11.332 21.714 C 11.431 21.584,11.528 21.279,11.500 21.185 C 11.493 21.160,11.476 21.091,11.463 21.031 C 11.436 20.911,11.237 20.665,11.105 20.588 C 11.041 20.552,10.207 20.535,7.760 20.519 C 4.731 20.500,4.487 20.493,4.310 20.426 C 4.031 20.318,3.753 20.049,3.624 19.761 L 3.515 19.519 3.527 18.549 C 3.540 17.587,3.541 17.578,3.649 17.359 C 3.787 17.076,4.076 16.787,4.359 16.649 L 4.580 16.540 8.000 16.520 C 11.237 16.501,11.428 16.496,11.570 16.425 C 12.013 16.205,12.135 15.634,11.815 15.279 C 11.546 14.981,11.747 14.995,7.900 15.010 C 4.112 15.025,4.309 15.012,3.753 15.277 L 3.520 15.388 3.520 8.924 L 3.521 2.460 3.623 2.240 C 3.758 1.948,3.929 1.775,4.220 1.635 L 4.460 1.520 11.469 1.520 L 18.478 1.520 18.489 5.230 C 18.499 8.633,18.506 8.950,18.568 9.064 C 18.658 9.229,18.895 9.433,19.031 9.463 C 19.091 9.476,19.160 9.493,19.185 9.500 C 19.279 9.528,19.584 9.431,19.714 9.332 C 19.788 9.276,19.882 9.155,19.923 9.065 C 19.995 8.907,19.998 8.718,19.999 4.780 C 19.999 2.197,19.985 0.607,19.960 0.518 C 19.939 0.440,19.862 0.320,19.790 0.250 C 19.511 -0.020,20.137 -0.000,11.911 0.003 C 5.590 0.006,4.418 0.015,4.180 0.064 M17.875 11.062 C 16.568 11.299,15.532 12.238,15.134 13.548 C 15.032 13.883,15.026 13.952,15.009 14.950 L 14.992 16.000 14.798 16.000 C 13.952 16.000,13.211 16.585,13.039 17.388 C 13.012 17.515,13.001 18.470,13.009 20.121 L 13.020 22.660 13.113 22.878 C 13.307 23.336,13.665 23.695,14.120 23.887 L 14.340 23.980 18.500 23.980 L 22.660 23.980 22.880 23.887 C 23.335 23.695,23.693 23.336,23.887 22.878 L 23.980 22.660 23.991 20.121 C 23.999 18.470,23.988 17.515,23.961 17.388 C 23.789 16.585,23.048 16.000,22.202 16.000 L 22.008 16.000 21.991 14.950 C 21.974 13.952,21.968 13.883,21.866 13.548 C 21.665 12.887,21.361 12.395,20.868 11.936 C 20.071 11.193,18.954 10.867,17.875 11.062 M19.086 12.599 C 19.712 12.792,20.208 13.287,20.401 13.911 C 20.470 14.136,20.480 14.284,20.480 15.084 L 20.480 16.000 18.500 16.000 L 16.520 16.000 16.520 15.084 C 16.520 14.284,16.530 14.136,16.599 13.911 C 16.792 13.289,17.281 12.799,17.912 12.597 C 18.229 12.496,18.755 12.496,19.086 12.599 " stroke="none" fill-rule="evenodd" fill="black"></path></svg>