<svg xmlns="http://www.w3.org/2000/svg" width="16" height="16" viewBox="0 0 16 16"><path d="M6.525 0.038 C 6.113 0.187,5.906 0.595,6.042 0.994 C 6.094 1.146,6.263 1.343,6.410 1.421 C 6.520 1.480,6.525 1.480,8.000 1.480 C 9.475 1.480,9.480 1.480,9.590 1.421 C 9.737 1.343,9.906 1.146,9.958 0.994 C 10.078 0.642,9.932 0.278,9.596 0.092 L 9.453 0.013 8.040 0.007 C 6.898 0.003,6.607 0.008,6.525 0.038 M11.504 0.048 C 11.258 0.134,11.094 0.317,11.027 0.579 C 10.960 0.840,11.027 1.080,11.222 1.276 C 11.408 1.461,11.474 1.479,12.018 1.488 L 12.503 1.497 12.512 1.982 C 12.521 2.526,12.539 2.592,12.724 2.778 C 12.920 2.974,13.160 3.040,13.423 2.973 C 13.676 2.908,13.855 2.751,13.946 2.512 C 13.996 2.381,14.000 2.310,14.000 1.511 C 14.000 0.548,13.988 0.463,13.830 0.278 C 13.780 0.219,13.675 0.136,13.596 0.092 L 13.453 0.013 12.547 0.007 C 11.734 0.001,11.626 0.005,11.504 0.048 M3.987 0.054 C 3.407 0.169,2.824 0.553,2.464 1.055 C 2.218 1.401,2.027 1.917,2.027 2.240 C 2.027 2.937,2.840 3.257,3.317 2.747 C 3.427 2.629,3.520 2.423,3.520 2.295 C 3.520 2.218,3.674 1.926,3.774 1.817 C 3.870 1.710,4.202 1.520,4.292 1.520 C 4.423 1.520,4.628 1.428,4.747 1.317 C 5.002 1.079,5.069 0.730,4.916 0.432 C 4.830 0.265,4.647 0.107,4.481 0.057 C 4.368 0.023,4.148 0.022,3.987 0.054 M2.525 4.038 C 2.380 4.090,2.229 4.197,2.147 4.304 C 2.011 4.482,2.000 4.575,2.000 5.510 C 2.000 6.310,2.004 6.381,2.054 6.512 C 2.145 6.751,2.324 6.908,2.577 6.973 C 2.840 7.040,3.080 6.974,3.276 6.778 C 3.482 6.571,3.480 6.586,3.480 5.493 C 3.480 4.540,3.479 4.518,3.421 4.410 C 3.252 4.094,2.844 3.925,2.525 4.038 M13.011 4.040 C 12.861 4.088,12.658 4.262,12.579 4.410 C 12.521 4.518,12.520 4.540,12.520 5.493 C 12.520 6.408,12.523 6.473,12.572 6.572 C 12.634 6.697,12.791 6.860,12.905 6.919 C 13.293 7.120,13.788 6.927,13.946 6.512 C 13.996 6.381,14.000 6.310,14.000 5.511 C 14.000 4.548,13.988 4.463,13.830 4.278 C 13.634 4.049,13.292 3.949,13.011 4.040 M2.525 8.038 C 2.380 8.090,2.229 8.197,2.147 8.304 C 2.002 8.494,2.000 8.519,2.000 10.188 C 2.000 11.820,2.008 11.941,2.133 12.306 C 2.303 12.799,2.672 13.292,2.976 13.431 C 3.105 13.490,3.152 13.498,3.316 13.488 C 3.551 13.472,3.688 13.406,3.837 13.237 C 4.104 12.934,4.081 12.520,3.781 12.191 C 3.723 12.128,3.638 11.996,3.592 11.898 C 3.510 11.722,3.508 11.714,3.498 11.225 C 3.489 10.805,3.494 10.717,3.531 10.645 C 3.554 10.599,3.595 10.551,3.620 10.537 C 3.646 10.524,3.841 10.507,4.053 10.500 C 4.491 10.487,4.574 10.462,4.759 10.292 C 5.139 9.941,5.047 9.314,4.580 9.082 C 4.448 9.016,4.424 9.013,3.971 9.013 L 3.500 9.013 3.488 8.767 C 3.474 8.472,3.422 8.353,3.237 8.190 C 3.041 8.017,2.756 7.956,2.525 8.038 M13.011 8.040 C 12.860 8.088,12.657 8.263,12.581 8.410 C 12.541 8.487,12.520 8.592,12.509 8.760 L 12.493 9.000 12.000 9.013 C 11.522 9.026,11.503 9.029,11.383 9.099 C 10.943 9.358,10.872 9.951,11.241 10.292 C 11.436 10.471,11.500 10.488,12.033 10.501 L 12.507 10.512 12.507 11.508 L 12.507 12.504 11.513 12.512 L 10.520 12.520 10.396 12.593 C 9.947 12.857,9.866 13.416,10.225 13.775 C 10.453 14.003,10.426 14.000,12.000 14.000 C 13.574 14.000,13.547 14.003,13.775 13.775 C 14.013 13.537,14.000 13.696,14.000 11.000 C 14.000 8.401,14.005 8.482,13.830 8.278 C 13.634 8.049,13.292 7.949,13.011 8.040 M6.440 9.076 C 6.264 9.158,6.099 9.341,6.040 9.519 C 5.910 9.912,6.139 10.347,6.539 10.466 C 6.743 10.526,9.257 10.526,9.461 10.466 C 9.861 10.347,10.090 9.912,9.960 9.519 C 9.901 9.341,9.736 9.158,9.560 9.076 L 9.427 9.014 8.000 9.014 L 6.573 9.014 6.440 9.076 M5.087 12.078 L 5.000 12.156 4.993 13.831 C 4.987 15.386,4.989 15.513,5.033 15.600 C 5.087 15.707,5.201 15.772,5.295 15.749 C 5.331 15.740,5.699 15.478,6.113 15.168 C 6.527 14.858,6.898 14.592,6.938 14.577 C 6.988 14.558,7.029 14.559,7.076 14.580 C 7.112 14.597,7.479 14.863,7.891 15.171 C 8.303 15.480,8.669 15.740,8.705 15.749 C 8.799 15.772,8.913 15.707,8.967 15.600 C 9.011 15.513,9.014 15.387,9.007 13.831 L 9.000 12.156 8.913 12.078 L 8.826 12.000 7.000 12.000 L 5.174 12.000 5.087 12.078 " stroke="none" fill-rule="evenodd" fill="black"></path></svg>