<svg xmlns="http://www.w3.org/2000/svg" width="16" height="16" viewBox="0 0 16 16"><path d="M0.766 0.029 C 0.495 0.093,0.212 0.329,0.090 0.594 L 0.013 0.760 0.013 7.000 L 0.013 13.240 0.088 13.400 C 0.186 13.610,0.391 13.816,0.597 13.911 L 0.760 13.987 1.873 13.994 L 2.987 14.002 2.987 14.988 C 2.987 15.530,2.996 15.973,3.006 15.973 C 3.017 15.973,3.359 15.640,3.766 15.234 L 4.507 14.494 5.253 15.240 L 6.000 15.986 6.000 14.994 L 6.000 14.001 8.620 13.994 L 11.240 13.987 11.403 13.911 C 11.609 13.816,11.814 13.610,11.912 13.400 L 11.987 13.240 11.994 11.620 L 12.002 10.000 7.001 10.000 L 2.000 10.000 2.000 5.507 L 2.000 1.013 5.000 1.013 L 8.000 1.013 8.000 0.507 L 8.000 0.000 4.433 0.003 C 2.462 0.004,0.822 0.016,0.766 0.029 M8.993 3.593 L 9.000 7.187 9.061 7.337 C 9.187 7.648,9.400 7.851,9.703 7.947 C 9.850 7.993,9.946 8.000,10.429 8.000 L 10.985 8.000 10.993 8.500 L 11.000 9.000 11.500 9.007 L 12.000 9.015 12.000 8.508 L 12.000 8.002 13.620 7.994 L 15.240 7.987 15.400 7.912 C 15.610 7.814,15.816 7.609,15.911 7.403 L 15.987 7.240 15.987 4.000 L 15.987 0.760 15.910 0.594 C 15.816 0.391,15.608 0.186,15.393 0.085 L 15.240 0.013 12.113 0.006 L 8.986 -0.001 8.993 3.593 M14.987 3.013 L 14.987 5.013 13.000 5.013 L 11.013 5.013 11.013 3.013 L 11.013 1.013 13.000 1.013 L 14.987 1.013 14.987 3.013 M2.993 2.500 L 3.000 3.000 3.500 3.007 L 4.000 3.015 4.000 2.507 L 4.000 2.000 3.493 2.000 L 2.985 2.000 2.993 2.500 M2.993 4.500 L 3.000 5.000 3.500 5.007 L 4.000 5.015 4.000 4.507 L 4.000 4.000 3.493 4.000 L 2.985 4.000 2.993 4.500 M2.993 6.500 L 3.000 7.000 3.500 7.007 L 4.000 7.015 4.000 6.507 L 4.000 6.000 3.493 6.000 L 2.985 6.000 2.993 6.500 M10.987 6.507 L 10.987 7.013 10.493 7.013 L 10.000 7.013 10.000 6.507 L 10.000 6.000 10.493 6.000 L 10.987 6.000 10.987 6.507 M14.987 6.507 L 14.987 7.013 13.493 7.013 L 12.000 7.013 12.000 6.507 L 12.000 6.000 13.493 6.000 L 14.987 6.000 14.987 6.507 M2.993 8.500 L 3.000 9.000 3.500 9.007 L 4.000 9.015 4.000 8.507 L 4.000 8.000 3.493 8.000 L 2.985 8.000 2.993 8.500 M10.987 12.013 L 10.987 13.013 8.493 13.013 L 6.000 13.013 6.000 12.507 L 6.000 12.000 4.493 12.000 L 2.987 12.000 2.987 12.507 L 2.987 13.013 2.000 13.013 L 1.013 13.013 1.013 12.013 L 1.013 11.013 6.000 11.013 L 10.987 11.013 10.987 12.013 " stroke="none" fill-rule="evenodd" fill="black"></path></svg>