<svg xmlns="http://www.w3.org/2000/svg" width="24" height="24" viewBox="0 0 24 24"><path d="M5.180 0.064 C 5.026 0.096,4.729 0.205,4.521 0.307 C 4.210 0.459,4.083 0.551,3.817 0.817 C 3.553 1.081,3.458 1.213,3.305 1.521 C 3.050 2.037,3.001 2.305,3.002 3.180 C 3.002 3.994,3.039 4.144,3.286 4.332 C 3.416 4.431,3.721 4.528,3.815 4.500 C 3.840 4.493,3.909 4.476,3.969 4.463 C 4.029 4.450,4.143 4.382,4.221 4.313 C 4.477 4.089,4.494 4.024,4.519 3.160 C 4.541 2.416,4.547 2.371,4.647 2.180 C 4.773 1.942,4.955 1.763,5.200 1.635 C 5.365 1.549,5.445 1.540,6.160 1.519 C 7.024 1.494,7.089 1.477,7.313 1.221 C 7.382 1.143,7.450 1.029,7.463 0.969 C 7.476 0.909,7.493 0.840,7.500 0.815 C 7.528 0.721,7.431 0.416,7.332 0.286 C 7.143 0.038,6.994 0.001,6.180 0.004 C 5.719 0.006,5.359 0.027,5.180 0.064 M9.460 0.075 C 8.795 0.376,8.890 1.324,9.600 1.476 C 9.881 1.536,14.119 1.536,14.400 1.476 C 14.942 1.360,15.182 0.695,14.828 0.292 C 14.564 -0.009,14.666 0.002,12.000 0.002 C 9.783 0.002,9.609 0.007,9.460 0.075 M16.935 0.077 C 16.845 0.118,16.724 0.212,16.668 0.286 C 16.569 0.416,16.472 0.721,16.500 0.815 C 16.507 0.840,16.524 0.909,16.537 0.969 C 16.567 1.105,16.771 1.342,16.936 1.432 C 17.043 1.491,17.222 1.502,18.267 1.513 L 19.475 1.525 19.487 2.733 C 19.498 3.778,19.509 3.957,19.568 4.064 C 19.658 4.229,19.895 4.433,20.031 4.463 C 20.091 4.476,20.160 4.493,20.185 4.500 C 20.279 4.528,20.584 4.431,20.714 4.332 C 20.994 4.118,20.998 4.092,20.999 2.280 C 20.999 1.337,20.983 0.601,20.960 0.518 C 20.939 0.440,20.862 0.320,20.790 0.250 C 20.532 0.000,20.528 -0.000,18.731 0.001 C 17.225 0.002,17.087 0.007,16.935 0.077 M3.407 5.846 C 3.305 5.896,3.189 5.998,3.127 6.093 L 3.020 6.254 3.009 8.289 C 3.002 9.597,3.013 10.378,3.039 10.477 C 3.100 10.703,3.379 10.946,3.620 10.982 C 4.026 11.043,4.392 10.795,4.476 10.400 C 4.536 10.123,4.536 6.638,4.476 6.361 C 4.371 5.869,3.858 5.622,3.407 5.846 M19.915 5.838 C 19.706 5.952,19.573 6.128,19.524 6.361 C 19.464 6.638,19.464 10.123,19.524 10.400 C 19.608 10.795,19.974 11.043,20.380 10.982 C 20.616 10.947,20.898 10.704,20.959 10.485 C 20.984 10.396,21.000 9.564,21.000 8.343 C 21.000 6.389,20.998 6.341,20.915 6.170 C 20.745 5.818,20.253 5.654,19.915 5.838 M3.420 12.587 C 3.235 12.685,3.155 12.766,3.075 12.940 C 3.006 13.091,3.002 13.274,3.001 16.066 C 3.000 19.222,3.004 19.304,3.197 19.856 C 3.368 20.345,3.731 20.872,4.131 21.214 C 4.428 21.467,4.933 21.751,5.143 21.783 C 5.697 21.866,6.153 21.284,5.938 20.769 C 5.851 20.561,5.736 20.450,5.464 20.312 C 5.144 20.150,4.845 19.842,4.677 19.501 L 4.540 19.222 4.540 18.401 C 4.540 17.589,4.541 17.578,4.649 17.359 C 4.787 17.076,5.076 16.787,5.358 16.649 C 5.563 16.549,5.626 16.540,6.259 16.518 C 7.013 16.492,7.096 16.469,7.313 16.221 C 7.382 16.143,7.450 16.029,7.463 15.969 C 7.476 15.909,7.493 15.840,7.500 15.815 C 7.528 15.721,7.431 15.416,7.332 15.286 C 7.275 15.211,7.147 15.114,7.048 15.070 C 6.882 14.997,6.807 14.992,6.163 15.012 C 5.409 15.034,5.168 15.080,4.756 15.276 L 4.525 15.386 4.513 14.223 C 4.502 13.230,4.490 13.042,4.434 12.940 C 4.346 12.781,4.167 12.615,4.027 12.563 C 3.865 12.501,3.559 12.513,3.420 12.587 M19.940 12.567 C 19.811 12.638,19.638 12.811,19.566 12.940 C 19.511 13.040,19.498 13.218,19.487 14.030 L 19.474 15.000 18.287 15.001 C 16.958 15.002,16.873 15.017,16.668 15.286 C 16.569 15.416,16.472 15.721,16.500 15.815 C 16.507 15.840,16.524 15.909,16.537 15.969 C 16.567 16.105,16.771 16.342,16.936 16.432 C 17.043 16.491,17.223 16.502,18.270 16.513 L 19.480 16.525 19.480 18.523 L 19.480 20.520 16.758 20.520 C 14.459 20.520,14.019 20.529,13.924 20.578 C 13.772 20.657,13.566 20.897,13.537 21.031 C 13.524 21.091,13.507 21.160,13.500 21.185 C 13.472 21.279,13.569 21.584,13.668 21.714 C 13.724 21.788,13.845 21.882,13.935 21.923 C 14.092 21.994,14.259 21.998,17.220 21.999 C 19.141 21.999,20.394 21.984,20.481 21.960 C 20.658 21.911,20.909 21.659,20.961 21.478 C 20.985 21.392,21.000 19.810,21.000 17.229 C 21.000 12.827,21.006 12.966,20.808 12.747 C 20.629 12.548,20.153 12.449,19.940 12.567 M9.460 15.075 C 8.795 15.376,8.890 16.324,9.600 16.476 C 9.734 16.505,10.560 16.520,12.000 16.520 C 13.440 16.520,14.266 16.505,14.400 16.476 C 14.942 16.360,15.182 15.695,14.828 15.292 C 14.564 14.991,14.666 15.002,12.000 15.002 C 9.783 15.002,9.609 15.007,9.460 15.075 M7.080 18.080 C 7.002 18.158,7.000 18.213,7.000 20.757 L 7.000 23.354 7.105 23.437 C 7.163 23.483,7.233 23.520,7.261 23.520 C 7.289 23.520,7.804 23.163,8.406 22.727 C 9.747 21.756,9.698 21.788,9.796 21.819 C 9.840 21.833,10.382 22.212,10.999 22.662 C 11.617 23.111,12.164 23.489,12.214 23.502 C 12.272 23.517,12.340 23.497,12.403 23.446 L 12.500 23.367 12.511 20.790 C 12.522 18.227,12.521 18.212,12.438 18.106 L 12.354 18.000 9.757 18.000 C 7.213 18.000,7.158 18.002,7.080 18.080 " stroke="none" fill-rule="evenodd" fill="black"></path></svg>