<svg xmlns="http://www.w3.org/2000/svg" width="16" height="16" viewBox="0 0 16 16"><path d="M13.533 0.017 C 11.511 0.173,9.793 0.882,8.291 2.180 C 7.979 2.449,6.959 3.480,6.693 3.794 L 6.520 3.999 4.853 4.000 C 3.817 4.000,3.121 4.011,3.013 4.029 C 2.670 4.084,2.333 4.262,2.071 4.525 C 1.938 4.659,1.735 4.969,0.991 6.176 C 0.487 6.994,0.058 7.710,0.037 7.768 C -0.055 8.028,0.017 8.314,0.227 8.524 C 0.387 8.683,0.188 8.612,2.271 9.253 L 3.596 9.660 4.965 11.029 L 6.333 12.398 6.726 13.672 C 7.379 15.789,7.316 15.613,7.476 15.772 C 7.681 15.978,7.927 16.045,8.200 15.971 C 8.319 15.938,11.183 14.187,11.370 14.032 C 11.546 13.887,11.735 13.639,11.834 13.422 C 11.997 13.068,11.999 13.040,12.000 11.173 L 12.000 9.479 12.220 9.293 C 12.600 8.971,13.790 7.763,14.058 7.427 C 15.116 6.098,15.716 4.665,15.950 2.907 C 15.968 2.767,15.984 2.377,15.985 2.040 C 15.987 1.439,15.985 1.422,15.913 1.210 C 15.733 0.678,15.315 0.261,14.789 0.089 C 14.594 0.025,14.529 0.018,14.120 0.013 C 13.871 0.009,13.607 0.011,13.533 0.017 M14.420 1.581 L 14.493 1.655 14.487 2.048 C 14.461 3.619,13.974 5.037,13.021 6.318 C 12.855 6.541,12.584 6.834,12.042 7.375 C 10.874 8.542,10.444 8.877,8.436 10.178 L 7.107 11.039 6.035 9.968 C 5.445 9.379,4.971 8.884,4.980 8.868 C 5.151 8.582,6.739 6.162,6.914 5.920 C 7.672 4.875,8.850 3.618,9.641 3.011 C 10.924 2.025,12.548 1.481,14.140 1.504 C 14.328 1.507,14.352 1.514,14.420 1.581 M10.767 4.027 C 10.481 4.099,10.228 4.310,10.096 4.587 C 10.022 4.741,10.013 4.786,10.013 5.000 C 10.013 5.207,10.024 5.262,10.089 5.403 C 10.184 5.609,10.390 5.814,10.600 5.912 C 10.738 5.976,10.793 5.987,11.000 5.987 C 11.207 5.987,11.262 5.976,11.403 5.911 C 11.609 5.816,11.814 5.610,11.912 5.400 C 11.976 5.262,11.987 5.207,11.987 5.000 C 11.987 4.793,11.976 4.738,11.911 4.597 C 11.817 4.392,11.609 4.185,11.406 4.093 C 11.235 4.014,10.938 3.984,10.767 4.027 M5.360 5.505 C 5.360 5.524,3.732 8.036,3.695 8.075 C 3.667 8.104,3.507 8.063,2.787 7.842 C 2.306 7.695,1.910 7.571,1.907 7.567 C 1.904 7.563,2.174 7.116,2.508 6.573 C 3.005 5.766,3.131 5.578,3.204 5.540 C 3.285 5.498,3.395 5.493,4.327 5.493 C 4.895 5.493,5.360 5.499,5.360 5.505 M10.507 11.673 C 10.507 12.605,10.502 12.716,10.460 12.797 C 10.421 12.872,10.245 12.991,9.427 13.495 C 8.884 13.828,8.437 14.099,8.434 14.096 C 8.431 14.093,8.307 13.696,8.158 13.215 C 7.959 12.566,7.897 12.332,7.919 12.310 C 7.959 12.270,10.461 10.645,10.487 10.642 C 10.498 10.641,10.507 11.105,10.507 11.673 M2.166 12.012 C 1.339 12.212,0.740 13.195,0.384 14.933 C 0.274 15.469,0.271 15.553,0.359 15.641 C 0.444 15.727,0.517 15.725,1.005 15.628 C 2.803 15.268,3.792 14.666,3.998 13.803 C 4.041 13.622,4.036 13.270,3.988 13.086 C 3.855 12.582,3.418 12.144,2.919 12.014 C 2.732 11.965,2.362 11.964,2.166 12.012 " stroke="none" fill-rule="evenodd" fill="black"></path></svg>