<svg xmlns="http://www.w3.org/2000/svg" width="24" height="24" viewBox="0 0 24 24"><path d="M19.140 0.820 C 17.108 1.049,15.160 1.858,13.580 3.132 C 13.075 3.540,11.981 4.569,10.975 5.584 L 10.050 6.518 7.333 6.529 L 4.616 6.540 4.315 6.689 C 4.117 6.786,3.946 6.910,3.815 7.049 C 3.679 7.193,3.164 8.013,2.200 9.620 C 0.857 11.857,0.783 11.992,0.768 12.203 C 0.755 12.375,0.771 12.465,0.836 12.593 C 1.000 12.913,0.997 12.912,3.574 13.456 C 5.078 13.772,5.942 13.972,5.972 14.009 C 5.999 14.041,6.474 14.494,7.028 15.015 C 7.583 15.537,8.463 16.417,8.985 16.972 C 9.506 17.526,9.958 18.001,9.990 18.027 C 10.026 18.056,10.233 18.953,10.544 20.425 C 11.088 23.004,11.087 23.000,11.407 23.164 C 11.535 23.229,11.625 23.245,11.797 23.232 C 12.008 23.217,12.143 23.143,14.379 21.801 C 15.677 21.022,16.817 20.312,16.913 20.223 C 17.150 20.005,17.296 19.784,17.407 19.477 L 17.500 19.220 17.512 16.550 L 17.524 13.881 17.752 13.670 C 18.581 12.906,20.360 11.050,20.867 10.422 C 22.169 8.809,22.987 6.796,23.200 4.680 C 23.227 4.410,23.241 3.773,23.233 3.138 L 23.220 2.056 23.071 1.755 C 22.887 1.382,22.586 1.086,22.210 0.908 L 21.940 0.780 20.780 0.773 C 20.026 0.769,19.452 0.785,19.140 0.820 M21.668 2.344 L 21.773 2.449 21.746 3.474 C 21.718 4.605,21.643 5.233,21.447 6.000 C 21.136 7.217,20.475 8.531,19.686 9.497 C 19.322 9.945,17.652 11.705,17.094 12.231 C 16.489 12.801,15.722 13.446,15.080 13.924 C 14.687 14.217,10.908 16.760,10.866 16.760 C 10.858 16.760,10.457 16.341,9.976 15.830 C 9.495 15.319,8.683 14.507,8.171 14.026 C 7.659 13.545,7.240 13.144,7.240 13.135 C 7.240 13.091,9.831 9.246,10.121 8.860 C 10.568 8.264,11.303 7.394,11.815 6.855 C 12.284 6.361,13.920 4.809,14.420 4.383 C 15.367 3.578,16.751 2.870,18.000 2.554 C 18.894 2.327,19.545 2.256,20.832 2.246 L 21.564 2.240 21.668 2.344 M15.493 6.592 C 14.831 6.828,14.409 7.538,14.521 8.228 C 14.718 9.436,16.190 9.915,17.053 9.053 C 17.782 8.323,17.575 7.106,16.644 6.650 C 16.352 6.507,15.807 6.480,15.493 6.592 M8.701 8.250 C 8.601 8.387,7.934 9.377,7.220 10.450 C 6.505 11.523,5.907 12.400,5.891 12.401 C 5.773 12.403,2.720 11.737,2.720 11.709 C 2.720 11.656,4.797 8.196,4.893 8.090 L 4.974 8.000 6.929 8.000 L 8.885 8.000 8.701 8.250 M15.910 19.103 C 15.814 19.196,12.350 21.280,12.294 21.280 C 12.269 21.280,11.785 19.086,11.609 18.173 C 11.594 18.098,11.857 17.910,13.626 16.727 C 14.745 15.980,15.732 15.313,15.820 15.247 L 15.980 15.126 15.990 17.072 L 16.001 19.017 15.910 19.103 M4.127 16.901 C 3.791 16.974,3.347 17.198,3.088 17.424 C 2.371 18.051,1.835 19.432,1.601 21.252 C 1.502 22.026,1.497 22.331,1.583 22.417 C 1.669 22.503,1.974 22.498,2.748 22.399 C 4.322 22.197,5.585 21.762,6.292 21.179 C 6.715 20.831,6.932 20.489,7.084 19.935 C 7.207 19.485,7.179 18.789,7.020 18.360 C 6.738 17.598,6.205 17.121,5.409 16.917 C 5.053 16.826,4.505 16.819,4.127 16.901 " stroke="none" fill-rule="evenodd" fill="black"></path></svg>