<svg xmlns="http://www.w3.org/2000/svg" width="16" height="16" viewBox="0 0 16 16"><path d="M1.324 1.056 C 0.990 1.136,0.632 1.363,0.400 1.642 C 0.252 1.820,0.087 2.160,0.040 2.387 C 0.008 2.537,0.001 2.850,0.001 4.000 C 0.001 5.604,0.005 5.651,0.185 6.013 C 0.418 6.483,0.788 6.792,1.294 6.939 L 1.507 7.000 8.000 7.000 L 14.493 7.000 14.702 6.940 C 14.966 6.863,15.124 6.783,15.322 6.624 C 15.643 6.367,15.881 5.990,15.960 5.613 C 16.017 5.340,16.017 2.660,15.960 2.387 C 15.827 1.752,15.293 1.203,14.664 1.054 C 14.514 1.019,13.703 1.014,7.987 1.016 C 2.464 1.018,1.456 1.023,1.324 1.056 M14.377 2.535 C 14.501 2.602,14.507 2.664,14.507 4.000 C 14.507 5.336,14.501 5.398,14.377 5.465 C 14.303 5.504,1.699 5.505,1.625 5.466 C 1.496 5.397,1.493 5.370,1.493 4.000 C 1.493 2.639,1.496 2.608,1.620 2.535 C 1.687 2.496,14.304 2.496,14.377 2.535 M1.324 9.056 C 0.990 9.136,0.632 9.363,0.400 9.642 C 0.252 9.820,0.087 10.160,0.040 10.387 C 0.008 10.537,0.001 10.850,0.001 12.000 C 0.001 13.604,0.005 13.651,0.185 14.013 C 0.418 14.483,0.788 14.792,1.294 14.939 L 1.507 15.000 8.000 15.000 L 14.493 15.000 14.702 14.940 C 14.966 14.863,15.124 14.783,15.322 14.624 C 15.643 14.367,15.881 13.990,15.960 13.613 C 16.017 13.340,16.017 10.660,15.960 10.387 C 15.827 9.752,15.293 9.203,14.664 9.054 C 14.514 9.019,13.703 9.014,7.987 9.016 C 2.464 9.018,1.456 9.023,1.324 9.056 M14.377 10.535 C 14.501 10.602,14.507 10.664,14.507 12.000 C 14.507 13.336,14.501 13.398,14.377 13.465 C 14.303 13.504,1.699 13.505,1.625 13.466 C 1.496 13.397,1.493 13.370,1.493 12.000 C 1.493 10.639,1.496 10.608,1.620 10.535 C 1.687 10.496,14.304 10.496,14.377 10.535 " stroke="none" fill-rule="evenodd" fill="black"></path></svg>