<svg xmlns="http://www.w3.org/2000/svg" width="24" height="24" viewBox="0 0 24 24"><path d="M3.340 2.056 C 2.695 2.217,2.176 2.747,2.039 3.387 C 2.012 3.514,2.001 4.633,2.009 6.620 L 2.020 9.660 2.113 9.880 C 2.305 10.335,2.664 10.693,3.122 10.887 L 3.340 10.980 12.000 10.980 L 20.660 10.980 20.880 10.887 C 21.335 10.695,21.693 10.336,21.887 9.878 L 21.980 9.660 21.991 6.620 C 21.999 4.633,21.988 3.514,21.961 3.387 C 21.820 2.731,21.271 2.186,20.608 2.045 C 20.288 1.977,3.616 1.988,3.340 2.056 M20.435 3.574 C 20.468 3.614,20.478 4.418,20.470 6.523 L 20.460 9.418 20.360 9.468 C 20.280 9.509,18.580 9.519,12.000 9.519 C 5.420 9.519,3.720 9.509,3.640 9.468 L 3.540 9.418 3.530 6.523 C 3.522 4.418,3.532 3.614,3.565 3.574 C 3.632 3.493,20.368 3.493,20.435 3.574 M3.340 13.056 C 2.695 13.217,2.176 13.747,2.039 14.387 C 2.012 14.514,2.001 15.633,2.009 17.620 L 2.020 20.660 2.113 20.880 C 2.305 21.335,2.664 21.693,3.122 21.887 L 3.340 21.980 12.000 21.980 L 20.660 21.980 20.880 21.887 C 21.335 21.695,21.693 21.336,21.887 20.878 L 21.980 20.660 21.991 17.620 C 21.999 15.633,21.988 14.514,21.961 14.387 C 21.820 13.731,21.271 13.186,20.608 13.045 C 20.288 12.977,3.616 12.988,3.340 13.056 M20.435 14.574 C 20.468 14.614,20.478 15.418,20.470 17.523 L 20.460 20.418 20.360 20.468 C 20.213 20.543,3.787 20.543,3.640 20.468 L 3.540 20.418 3.530 17.523 C 3.522 15.418,3.532 14.614,3.565 14.574 C 3.632 14.493,20.368 14.493,20.435 14.574 " stroke="none" fill-rule="evenodd" fill="black"></path></svg>