<svg xmlns="http://www.w3.org/2000/svg" width="16" height="16" viewBox="0 0 16 16"><path d="M2.560 2.050 C 2.302 2.136,2.105 2.322,2.039 2.544 C 1.953 2.836,2.014 3.084,2.226 3.296 C 2.394 3.464,2.518 3.507,2.947 3.547 C 5.057 3.741,7.011 4.541,8.667 5.889 C 9.027 6.182,9.818 6.973,10.111 7.333 C 11.438 8.964,12.235 10.887,12.442 12.957 C 12.495 13.490,12.531 13.601,12.704 13.774 C 13.006 14.076,13.446 14.078,13.746 13.778 C 13.980 13.543,14.007 13.393,13.932 12.712 C 13.541 9.153,11.619 5.993,8.640 4.008 C 7.097 2.980,5.356 2.333,3.493 2.095 C 3.092 2.044,2.644 2.022,2.560 2.050 M2.600 7.065 C 2.052 7.199,1.836 7.858,2.199 8.287 C 2.332 8.445,2.474 8.505,2.872 8.575 C 3.504 8.685,3.944 8.826,4.465 9.087 C 6.041 9.874,7.159 11.406,7.428 13.144 C 7.483 13.499,7.546 13.647,7.704 13.795 C 7.942 14.017,8.275 14.059,8.561 13.904 C 8.835 13.754,8.977 13.481,8.949 13.160 C 8.924 12.891,8.812 12.356,8.704 11.992 C 7.941 9.431,5.770 7.527,3.119 7.094 C 2.766 7.037,2.726 7.034,2.600 7.065 M2.767 12.027 C 2.481 12.099,2.228 12.310,2.096 12.587 C 2.022 12.741,2.013 12.786,2.013 13.000 C 2.013 13.207,2.024 13.262,2.089 13.403 C 2.184 13.609,2.390 13.814,2.600 13.912 C 2.738 13.976,2.793 13.987,3.000 13.987 C 3.207 13.987,3.262 13.976,3.403 13.911 C 3.609 13.816,3.814 13.610,3.912 13.400 C 3.976 13.262,3.987 13.207,3.987 13.000 C 3.987 12.793,3.976 12.738,3.911 12.597 C 3.817 12.392,3.609 12.185,3.406 12.093 C 3.235 12.014,2.938 11.984,2.767 12.027 " stroke="none" fill-rule="evenodd" fill="black"></path></svg>