<svg xmlns="http://www.w3.org/2000/svg" width="24" height="24" viewBox="0 0 24 24"><path d="M3.940 2.563 C 3.604 2.762,3.451 3.075,3.527 3.409 C 3.616 3.807,3.904 3.997,4.420 4.000 C 5.230 4.003,6.641 4.151,7.461 4.320 C 10.301 4.905,12.832 6.165,15.016 8.083 C 18.289 10.958,20.331 15.235,20.465 19.500 C 20.493 20.391,20.526 20.561,20.713 20.757 C 21.004 21.062,21.435 21.077,21.744 20.792 C 21.848 20.696,21.935 20.573,21.959 20.485 C 22.045 20.178,21.989 18.989,21.837 17.860 C 21.049 12.009,17.368 6.911,12.060 4.320 C 10.180 3.402,8.344 2.861,6.280 2.619 C 5.566 2.534,4.049 2.499,3.940 2.563 M3.940 9.563 C 3.604 9.762,3.451 10.075,3.527 10.409 C 3.612 10.788,3.908 10.997,4.360 10.999 C 4.791 11.001,5.510 11.079,6.045 11.183 C 8.448 11.649,10.574 13.076,11.967 15.160 C 12.318 15.685,12.786 16.634,12.995 17.246 C 13.274 18.063,13.480 19.181,13.480 19.880 C 13.480 20.349,13.541 20.576,13.714 20.758 C 14.004 21.062,14.435 21.077,14.744 20.792 C 14.848 20.696,14.935 20.573,14.959 20.485 C 15.046 20.173,14.983 19.190,14.818 18.297 C 13.993 13.810,10.357 10.295,5.840 9.619 C 5.280 9.536,4.048 9.499,3.940 9.563 M5.025 17.063 C 4.130 17.280,3.513 18.070,3.513 19.000 C 3.513 19.752,3.899 20.404,4.547 20.750 C 5.891 21.466,7.491 20.516,7.491 19.000 C 7.491 17.709,6.281 16.759,5.025 17.063 " stroke="none" fill-rule="evenodd" fill="black"></path></svg>