<svg xmlns="http://www.w3.org/2000/svg" width="24" height="24" viewBox="0 0 24 24"><path d="M6.118 3.090 C 5.973 3.163,5.451 3.745,3.291 6.240 C 1.834 7.923,0.611 9.363,0.574 9.440 C 0.482 9.628,0.490 9.923,0.592 10.095 C 0.636 10.170,3.120 12.850,6.112 16.050 C 11.838 22.175,11.665 22.000,12.000 22.000 C 12.335 22.000,12.162 22.175,17.888 16.050 C 20.880 12.850,23.364 10.170,23.408 10.095 C 23.497 9.944,23.515 9.651,23.446 9.473 C 23.423 9.413,22.235 7.963,20.807 6.249 C 18.538 3.526,18.190 3.125,18.044 3.066 C 17.892 3.006,17.392 3.000,12.088 3.000 L 6.297 3.000 6.118 3.090 M19.552 7.084 C 20.725 8.492,21.693 9.668,21.704 9.697 C 21.724 9.747,12.066 20.120,12.000 20.120 C 11.951 20.120,2.275 9.754,2.288 9.716 C 2.295 9.697,3.305 8.520,4.533 7.101 L 6.766 4.520 12.093 4.521 L 17.420 4.522 19.552 7.084 " stroke="none" fill-rule="evenodd" fill="black"></path></svg>