<svg xmlns="http://www.w3.org/2000/svg" width="16" height="16" viewBox="0 0 16 16"><path d="M3.979 2.050 C 3.854 2.094,3.751 2.162,3.667 2.258 C 3.475 2.480,0.129 6.834,0.080 6.926 C 0.027 7.026,0.013 7.091,0.013 7.241 C 0.013 7.605,-0.220 7.357,3.437 10.887 C 5.248 12.636,6.921 14.251,7.154 14.476 C 7.634 14.940,7.724 14.995,7.999 14.994 C 8.279 14.992,8.370 14.936,8.847 14.474 C 9.079 14.250,10.753 12.634,12.568 10.883 C 15.126 8.413,15.879 7.671,15.926 7.576 C 16.014 7.396,16.012 7.099,15.920 6.926 C 15.831 6.757,12.397 2.322,12.252 2.188 C 12.034 1.988,12.315 2.000,7.988 2.001 C 4.314 2.002,4.113 2.004,3.979 2.050 M12.825 5.339 L 14.250 7.183 14.062 7.358 C 13.959 7.455,12.557 8.805,10.948 10.360 C 9.338 11.915,8.012 13.187,8.000 13.187 C 7.988 13.187,6.662 11.915,5.052 10.360 C 3.443 8.805,2.041 7.455,1.938 7.358 L 1.750 7.183 3.175 5.339 L 4.600 3.495 8.000 3.495 L 11.400 3.495 12.825 5.339 " stroke="none" fill-rule="evenodd" fill="black"></path></svg>