<svg xmlns="http://www.w3.org/2000/svg" width="24" height="24" viewBox="0 0 24 24"><path d="M7.935 3.077 C 7.780 3.147,7.616 3.321,7.536 3.500 C 7.517 3.544,7.491 4.443,7.480 5.499 L 7.460 7.418 7.360 7.468 C 7.284 7.507,6.820 7.519,5.408 7.519 C 3.645 7.520,3.549 7.524,3.402 7.599 C 3.112 7.747,2.967 8.041,3.018 8.380 C 3.054 8.622,3.297 8.900,3.526 8.962 C 3.627 8.989,4.371 8.999,5.671 8.992 C 7.651 8.980,7.661 8.980,7.880 8.887 C 8.335 8.695,8.693 8.336,8.887 7.878 C 8.979 7.662,8.980 7.646,8.992 5.720 C 8.999 4.653,8.994 3.703,8.980 3.608 C 8.934 3.298,8.573 3.002,8.240 3.002 C 8.163 3.002,8.026 3.035,7.935 3.077 M15.460 3.075 C 15.233 3.178,15.051 3.399,15.020 3.608 C 15.006 3.703,15.001 4.653,15.008 5.720 C 15.020 7.646,15.021 7.662,15.113 7.878 C 15.307 8.336,15.665 8.695,16.120 8.887 C 16.339 8.980,16.349 8.980,18.329 8.992 C 19.629 8.999,20.373 8.989,20.474 8.962 C 20.703 8.900,20.946 8.622,20.982 8.380 C 21.033 8.041,20.888 7.747,20.598 7.599 C 20.451 7.524,20.355 7.520,18.592 7.519 C 17.180 7.519,16.716 7.507,16.640 7.468 L 16.540 7.418 16.520 5.499 C 16.509 4.443,16.483 3.544,16.464 3.500 C 16.278 3.082,15.846 2.899,15.460 3.075 M3.460 15.075 C 2.795 15.376,2.890 16.324,3.600 16.476 C 3.730 16.504,4.448 16.520,5.594 16.520 C 6.933 16.520,7.396 16.532,7.432 16.568 C 7.468 16.604,7.480 17.067,7.480 18.406 C 7.480 19.552,7.496 20.270,7.524 20.400 C 7.608 20.795,7.974 21.043,8.380 20.982 C 8.616 20.947,8.898 20.704,8.959 20.485 C 9.013 20.291,9.012 16.600,8.958 16.364 C 8.809 15.719,8.261 15.184,7.608 15.045 C 7.468 15.015,6.758 15.000,5.508 15.001 C 3.768 15.002,3.607 15.007,3.460 15.075 M16.340 15.056 C 15.704 15.214,15.188 15.735,15.042 16.364 C 14.988 16.600,14.987 20.291,15.041 20.485 C 15.102 20.704,15.384 20.947,15.620 20.982 C 16.026 21.043,16.392 20.795,16.476 20.400 C 16.504 20.270,16.520 19.552,16.520 18.406 C 16.520 17.067,16.532 16.604,16.568 16.568 C 16.604 16.532,17.067 16.520,18.406 16.520 C 19.552 16.520,20.270 16.504,20.400 16.476 C 20.942 16.360,21.182 15.695,20.828 15.292 C 20.568 14.996,20.611 15.001,18.460 15.004 C 17.073 15.006,16.484 15.021,16.340 15.056 " stroke="none" fill-rule="evenodd" fill="black"></path></svg>