<svg xmlns="http://www.w3.org/2000/svg" width="16" height="16" viewBox="0 0 16 16"><path d="M2.387 1.041 C 1.893 1.142,1.422 1.504,1.203 1.950 C 1.001 2.363,1.005 2.329,0.993 3.872 C 0.984 5.072,0.988 5.272,1.026 5.417 C 1.092 5.678,1.247 5.854,1.493 5.949 C 1.889 6.101,2.344 5.873,2.466 5.461 C 2.500 5.346,2.507 5.108,2.507 3.993 L 2.507 2.663 2.585 2.585 L 2.663 2.507 3.993 2.507 C 5.108 2.507,5.346 2.500,5.461 2.466 C 5.861 2.347,6.090 1.912,5.960 1.519 C 5.901 1.341,5.736 1.158,5.560 1.076 L 5.427 1.014 3.960 1.017 C 3.153 1.018,2.445 1.029,2.387 1.041 M10.440 1.076 C 10.264 1.159,10.099 1.341,10.040 1.519 C 9.910 1.912,10.139 2.347,10.539 2.466 C 10.654 2.500,10.892 2.507,12.007 2.507 L 13.337 2.507 13.415 2.585 L 13.493 2.663 13.493 3.993 C 13.493 5.108,13.500 5.346,13.534 5.461 C 13.656 5.873,14.111 6.101,14.507 5.949 C 14.753 5.854,14.908 5.678,14.974 5.417 C 15.012 5.272,15.016 5.072,15.007 3.872 C 14.995 2.329,14.999 2.363,14.797 1.950 C 14.608 1.565,14.255 1.260,13.797 1.087 C 13.642 1.029,13.618 1.028,12.107 1.020 L 10.573 1.013 10.440 1.076 M1.504 10.047 C 1.255 10.136,1.093 10.318,1.025 10.586 C 0.989 10.727,0.984 10.937,0.993 12.128 C 1.005 13.672,1.001 13.637,1.204 14.052 C 1.358 14.367,1.633 14.642,1.948 14.796 C 2.363 14.999,2.328 14.995,3.872 15.007 C 5.072 15.016,5.272 15.012,5.417 14.974 C 5.678 14.908,5.854 14.753,5.949 14.507 C 6.091 14.138,5.909 13.725,5.529 13.553 C 5.437 13.511,5.289 13.506,4.035 13.499 L 2.643 13.491 2.575 13.410 L 2.507 13.329 2.507 12.003 C 2.507 10.536,2.504 10.504,2.339 10.291 C 2.153 10.048,1.794 9.943,1.504 10.047 M14.062 10.026 C 13.923 10.059,13.736 10.183,13.652 10.299 C 13.497 10.514,13.493 10.549,13.493 12.003 L 13.493 13.329 13.425 13.410 L 13.357 13.491 11.965 13.499 L 10.573 13.507 10.421 13.581 C 10.175 13.702,10.029 13.921,10.007 14.199 C 9.979 14.565,10.213 14.880,10.583 14.974 C 10.728 15.012,10.928 15.016,12.128 15.007 C 13.672 14.995,13.637 14.999,14.052 14.796 C 14.367 14.642,14.642 14.367,14.796 14.052 C 14.999 13.637,14.995 13.672,15.007 12.128 C 15.018 10.617,15.011 10.529,14.862 10.324 C 14.677 10.068,14.368 9.953,14.062 10.026 " stroke="none" fill-rule="evenodd" fill="black"></path></svg>