<svg xmlns="http://www.w3.org/2000/svg" width="24" height="24" viewBox="0 0 24 24"><path d="M4.340 3.056 C 3.704 3.214,3.188 3.735,3.042 4.364 C 2.988 4.600,2.987 8.291,3.041 8.485 C 3.102 8.704,3.384 8.947,3.620 8.982 C 4.026 9.043,4.392 8.795,4.476 8.400 C 4.504 8.270,4.520 7.552,4.520 6.406 C 4.520 5.067,4.532 4.604,4.568 4.568 C 4.604 4.532,5.067 4.520,6.406 4.520 C 7.552 4.520,8.270 4.504,8.400 4.476 C 8.942 4.360,9.182 3.695,8.828 3.292 C 8.568 2.996,8.611 3.001,6.460 3.004 C 5.073 3.006,4.484 3.021,4.340 3.056 M15.460 3.075 C 14.795 3.376,14.890 4.324,15.600 4.476 C 15.730 4.504,16.448 4.520,17.594 4.520 C 18.933 4.520,19.396 4.532,19.432 4.568 C 19.468 4.604,19.480 5.067,19.480 6.406 C 19.480 7.552,19.496 8.270,19.524 8.400 C 19.608 8.795,19.974 9.043,20.380 8.982 C 20.616 8.947,20.898 8.704,20.959 8.485 C 21.013 8.291,21.012 4.600,20.958 4.364 C 20.809 3.719,20.261 3.184,19.608 3.045 C 19.468 3.015,18.758 3.000,17.508 3.001 C 15.768 3.002,15.607 3.007,15.460 3.075 M3.460 15.075 C 3.233 15.178,3.051 15.399,3.020 15.608 C 3.006 15.703,3.001 16.653,3.008 17.720 C 3.020 19.646,3.021 19.662,3.113 19.878 C 3.307 20.336,3.665 20.695,4.120 20.887 C 4.339 20.980,4.349 20.980,6.329 20.992 C 7.629 20.999,8.373 20.989,8.474 20.962 C 8.703 20.900,8.946 20.622,8.982 20.380 C 9.033 20.041,8.888 19.747,8.598 19.599 C 8.451 19.524,8.355 19.520,6.592 19.519 C 5.180 19.519,4.716 19.507,4.640 19.468 L 4.540 19.418 4.520 17.499 C 4.509 16.443,4.483 15.544,4.464 15.500 C 4.278 15.082,3.846 14.899,3.460 15.075 M19.935 15.077 C 19.780 15.147,19.616 15.321,19.536 15.500 C 19.517 15.544,19.491 16.443,19.480 17.499 L 19.460 19.418 19.360 19.468 C 19.284 19.507,18.820 19.519,17.408 19.519 C 15.645 19.520,15.549 19.524,15.402 19.599 C 15.112 19.747,14.967 20.041,15.018 20.380 C 15.054 20.622,15.297 20.900,15.526 20.962 C 15.627 20.989,16.371 20.999,17.671 20.992 C 19.651 20.980,19.661 20.980,19.880 20.887 C 20.335 20.695,20.693 20.336,20.887 19.878 C 20.979 19.662,20.980 19.646,20.992 17.720 C 20.999 16.653,20.994 15.703,20.980 15.608 C 20.934 15.298,20.573 15.002,20.240 15.002 C 20.163 15.002,20.026 15.035,19.935 15.077 " stroke="none" fill-rule="evenodd" fill="black"></path></svg>