<svg xmlns="http://www.w3.org/2000/svg" width="16" height="16" viewBox="0 0 16 16"><path d="M6.227 1.055 C 5.537 1.149,4.990 1.316,4.360 1.626 C 3.720 1.941,3.259 2.268,2.775 2.749 C 1.249 4.267,0.658 6.433,1.199 8.521 C 1.684 10.396,3.091 11.949,4.916 12.626 C 6.008 13.030,7.257 13.108,8.373 12.839 C 9.151 12.653,9.832 12.345,10.470 11.893 L 10.686 11.739 12.270 13.323 C 13.724 14.778,13.865 14.912,14.000 14.963 C 14.175 15.029,14.439 15.022,14.587 14.948 C 14.716 14.883,14.874 14.727,14.939 14.601 C 15.017 14.451,15.031 14.202,14.974 14.024 C 14.930 13.888,14.839 13.792,13.337 12.286 C 11.767 10.713,11.747 10.692,11.787 10.629 C 11.809 10.594,11.912 10.439,12.016 10.284 C 12.233 9.964,12.485 9.467,12.625 9.086 C 13.441 6.874,12.894 4.399,11.225 2.747 C 10.748 2.274,10.284 1.945,9.650 1.629 C 9.032 1.320,8.388 1.128,7.681 1.041 C 7.372 1.003,6.551 1.011,6.227 1.055 M7.794 2.573 C 8.710 2.740,9.510 3.160,10.175 3.825 C 10.843 4.493,11.254 5.277,11.431 6.220 C 11.496 6.565,11.496 7.435,11.431 7.780 C 11.301 8.474,11.045 9.073,10.632 9.653 C 10.418 9.953,9.916 10.449,9.600 10.673 C 9.116 11.015,8.497 11.281,7.867 11.418 C 7.623 11.470,7.510 11.478,7.000 11.478 C 6.343 11.478,6.113 11.444,5.575 11.264 C 4.037 10.752,2.906 9.456,2.582 7.836 C 2.495 7.399,2.495 6.601,2.582 6.164 C 2.972 4.213,4.506 2.781,6.471 2.533 C 6.736 2.499,7.521 2.523,7.794 2.573 " stroke="none" fill-rule="evenodd" fill="black"></path></svg>