<svg xmlns="http://www.w3.org/2000/svg" width="24" height="24" viewBox="0 0 24 24"><path d="M8.420 1.044 C 5.697 1.341,3.343 2.900,2.020 5.282 C 1.082 6.973,0.775 9.034,1.179 10.944 C 1.829 14.022,4.178 16.470,7.225 17.242 C 7.929 17.421,8.466 17.487,9.220 17.489 C 11.059 17.494,12.758 16.934,14.197 15.848 L 14.534 15.594 17.437 18.496 C 19.469 20.527,20.385 21.416,20.489 21.459 C 20.787 21.582,21.079 21.516,21.308 21.275 C 21.526 21.044,21.577 20.776,21.459 20.489 C 21.416 20.385,20.527 19.469,18.494 17.435 L 15.591 14.530 15.789 14.275 C 17.001 12.716,17.627 10.656,17.480 8.706 C 17.384 7.417,16.994 6.142,16.378 5.095 C 15.115 2.949,12.943 1.475,10.487 1.098 C 9.994 1.022,8.887 0.993,8.420 1.044 M10.560 2.634 C 12.612 3.061,14.295 4.332,15.234 6.160 C 15.363 6.413,15.516 6.746,15.573 6.900 C 16.106 8.341,16.130 9.934,15.641 11.407 C 15.334 12.333,14.590 13.540,14.140 13.844 C 14.052 13.904,13.925 14.030,13.857 14.126 C 13.510 14.617,12.272 15.372,11.320 15.673 C 9.233 16.333,6.989 15.964,5.227 14.671 C 4.788 14.348,4.081 13.625,3.751 13.159 C 3.244 12.446,2.829 11.493,2.632 10.590 C 2.554 10.232,2.543 10.064,2.543 9.260 C 2.543 8.453,2.554 8.289,2.634 7.920 C 3.263 5.015,5.555 2.908,8.480 2.545 C 8.557 2.536,8.971 2.534,9.400 2.541 C 9.981 2.551,10.277 2.575,10.560 2.634 " stroke="none" fill-rule="evenodd" fill="black"></path></svg>