<svg xmlns="http://www.w3.org/2000/svg" width="24" height="24" viewBox="0 0 24 24"><path d="M2.810 2.062 C 2.246 2.214,1.804 2.622,1.588 3.191 C 1.501 3.419,1.501 3.433,1.489 7.080 C 1.480 9.646,1.490 10.820,1.521 11.006 C 1.546 11.152,1.619 11.384,1.684 11.522 C 1.796 11.758,1.798 11.776,1.737 11.870 C 1.702 11.924,1.634 12.070,1.587 12.194 C 1.501 12.418,1.501 12.445,1.489 16.060 C 1.481 18.510,1.491 19.792,1.520 19.980 C 1.641 20.767,2.221 21.354,3.000 21.478 C 3.361 21.535,20.639 21.535,21.000 21.478 C 21.779 21.354,22.359 20.767,22.480 19.980 C 22.509 19.792,22.519 18.510,22.511 16.060 C 22.499 12.445,22.499 12.418,22.413 12.194 C 22.366 12.070,22.297 11.922,22.260 11.866 C 22.196 11.768,22.198 11.754,22.316 11.512 C 22.383 11.373,22.457 11.134,22.481 10.980 C 22.509 10.793,22.519 9.481,22.511 7.060 C 22.499 3.433,22.499 3.419,22.412 3.191 C 22.193 2.614,21.751 2.210,21.173 2.060 C 20.837 1.972,3.136 1.974,2.810 2.062 M20.927 3.586 C 20.997 3.649,21.000 3.815,21.000 7.246 C 21.000 10.787,20.999 10.841,20.920 10.920 C 20.840 11.000,20.787 11.000,12.000 11.000 C 3.213 11.000,3.160 11.000,3.080 10.920 C 3.001 10.841,3.000 10.787,3.000 7.253 C 3.000 3.972,3.006 3.660,3.066 3.593 C 3.130 3.523,3.460 3.520,11.993 3.520 C 20.182 3.520,20.859 3.525,20.927 3.586 M6.394 6.601 C 5.963 6.828,5.873 7.381,6.208 7.744 C 6.402 7.954,6.543 8.000,7.000 8.000 C 7.457 8.000,7.598 7.954,7.792 7.744 C 8.130 7.377,8.036 6.822,7.598 6.599 C 7.376 6.486,6.609 6.487,6.394 6.601 M10.394 6.601 C 10.110 6.751,9.968 7.046,10.018 7.380 C 10.053 7.616,10.296 7.898,10.515 7.959 C 10.713 8.014,17.287 8.014,17.485 7.959 C 17.704 7.898,17.947 7.616,17.982 7.380 C 18.033 7.041,17.888 6.747,17.598 6.599 C 17.447 6.522,17.350 6.520,13.992 6.522 C 10.659 6.523,10.535 6.526,10.394 6.601 M20.927 12.586 C 20.997 12.649,21.000 12.815,21.000 16.246 C 21.000 19.787,20.999 19.841,20.920 19.920 C 20.840 20.000,20.787 20.000,12.000 20.000 C 3.213 20.000,3.160 20.000,3.080 19.920 C 3.001 19.841,3.000 19.787,3.000 16.253 C 3.000 12.972,3.006 12.660,3.066 12.593 C 3.130 12.523,3.460 12.520,11.993 12.520 C 20.182 12.520,20.859 12.525,20.927 12.586 M6.394 15.601 C 5.963 15.828,5.873 16.381,6.208 16.744 C 6.402 16.954,6.543 17.000,7.000 17.000 C 7.457 17.000,7.598 16.954,7.792 16.744 C 8.130 16.377,8.036 15.822,7.598 15.599 C 7.376 15.486,6.609 15.487,6.394 15.601 M10.394 15.601 C 10.110 15.751,9.968 16.046,10.018 16.380 C 10.053 16.616,10.296 16.898,10.515 16.959 C 10.713 17.014,17.287 17.014,17.485 16.959 C 17.704 16.898,17.947 16.616,17.982 16.380 C 18.033 16.041,17.888 15.747,17.598 15.599 C 17.447 15.522,17.350 15.520,13.992 15.522 C 10.659 15.523,10.535 15.526,10.394 15.601 " stroke="none" fill-rule="evenodd" fill="black"></path></svg>