<svg xmlns="http://www.w3.org/2000/svg" width="16" height="16" viewBox="0 0 16 16"><path d="M1.324 1.056 C 0.990 1.136,0.632 1.363,0.400 1.642 C 0.340 1.714,0.243 1.869,0.185 1.987 C -0.006 2.370,-0.002 2.319,0.006 4.835 L 0.013 7.080 0.088 7.294 C 0.129 7.411,0.196 7.560,0.236 7.625 L 0.309 7.743 0.198 7.960 C -0.008 8.360,-0.003 8.285,0.006 10.827 L 0.013 13.080 0.089 13.293 C 0.261 13.781,0.569 14.124,1.021 14.333 C 1.423 14.519,0.934 14.507,8.000 14.507 C 15.066 14.507,14.577 14.519,14.979 14.333 C 15.431 14.124,15.739 13.781,15.911 13.293 L 15.987 13.080 15.994 10.836 C 16.003 8.303,16.007 8.369,15.806 7.971 L 15.691 7.742 15.764 7.625 C 15.804 7.560,15.871 7.411,15.912 7.294 L 15.987 7.080 15.994 4.835 C 16.002 2.319,16.006 2.371,15.815 1.987 C 15.639 1.630,15.348 1.340,15.003 1.175 C 14.642 1.003,15.138 1.014,7.987 1.016 C 2.464 1.018,1.456 1.023,1.324 1.056 M14.413 2.570 C 14.448 2.605,14.484 2.674,14.493 2.724 C 14.502 2.773,14.505 3.722,14.501 4.833 L 14.493 6.852 14.419 6.926 L 14.345 7.000 8.000 7.000 L 1.655 7.000 1.581 6.926 L 1.507 6.852 1.500 4.793 C 1.494 3.281,1.501 2.714,1.523 2.659 C 1.591 2.494,1.071 2.507,8.007 2.507 L 14.349 2.507 14.413 2.570 M3.504 4.049 C 3.259 4.134,3.094 4.317,3.027 4.579 C 2.960 4.840,3.027 5.080,3.222 5.276 C 3.410 5.463,3.474 5.480,4.000 5.480 C 4.410 5.480,4.479 5.474,4.572 5.428 C 4.697 5.366,4.860 5.209,4.919 5.095 C 5.077 4.790,4.987 4.386,4.712 4.161 C 4.563 4.039,4.395 4.002,4.000 4.002 C 3.726 4.002,3.608 4.013,3.504 4.049 M7.504 4.049 C 7.259 4.134,7.094 4.317,7.027 4.579 C 6.982 4.752,7.002 4.943,7.081 5.095 C 7.140 5.209,7.303 5.366,7.428 5.428 C 7.530 5.479,7.601 5.480,10.000 5.480 C 12.399 5.480,12.470 5.479,12.572 5.428 C 12.895 5.268,13.060 4.918,12.973 4.579 C 12.906 4.317,12.741 4.134,12.496 4.049 C 12.370 4.005,12.184 4.002,10.000 4.002 C 7.816 4.002,7.630 4.005,7.504 4.049 M14.413 8.570 C 14.448 8.605,14.484 8.674,14.493 8.724 C 14.502 8.773,14.505 9.722,14.501 10.833 L 14.493 12.852 14.419 12.926 L 14.345 13.000 8.000 13.000 L 1.655 13.000 1.581 12.926 L 1.507 12.852 1.500 10.793 C 1.494 9.281,1.501 8.714,1.523 8.659 C 1.591 8.494,1.071 8.507,8.007 8.507 L 14.349 8.507 14.413 8.570 M3.504 10.049 C 3.259 10.134,3.094 10.317,3.027 10.579 C 2.960 10.840,3.027 11.080,3.222 11.276 C 3.410 11.463,3.474 11.480,4.000 11.480 C 4.410 11.480,4.479 11.474,4.572 11.428 C 4.697 11.366,4.860 11.209,4.919 11.095 C 5.077 10.790,4.987 10.386,4.712 10.161 C 4.563 10.039,4.395 10.002,4.000 10.002 C 3.726 10.002,3.608 10.013,3.504 10.049 M7.504 10.049 C 7.259 10.134,7.094 10.317,7.027 10.579 C 6.982 10.752,7.002 10.943,7.081 11.095 C 7.140 11.209,7.303 11.366,7.428 11.428 C 7.530 11.479,7.601 11.480,10.000 11.480 C 12.399 11.480,12.470 11.479,12.572 11.428 C 12.895 11.268,13.060 10.918,12.973 10.579 C 12.906 10.317,12.741 10.134,12.496 10.049 C 12.370 10.005,12.184 10.002,10.000 10.002 C 7.816 10.002,7.630 10.005,7.504 10.049 " stroke="none" fill-rule="evenodd" fill="black"></path></svg>