<svg xmlns="http://www.w3.org/2000/svg" width="16" height="16" viewBox="0 0 16 16"><path d="M7.866 0.150 C 7.771 0.213,5.023 2.954,4.931 3.077 C 4.830 3.213,4.830 3.314,4.931 3.415 L 5.009 3.493 6.131 3.493 L 7.253 3.493 7.253 6.435 C 7.253 9.786,7.236 9.533,7.481 9.778 C 7.779 10.076,8.221 10.076,8.519 9.778 C 8.764 9.533,8.747 9.786,8.747 6.435 L 8.747 3.493 9.869 3.493 L 10.991 3.493 11.069 3.415 C 11.170 3.314,11.170 3.213,11.069 3.077 C 10.977 2.954,8.229 0.213,8.134 0.150 C 8.050 0.095,7.950 0.095,7.866 0.150 M3.324 5.055 C 2.840 5.174,2.414 5.522,2.185 5.987 C 1.992 6.376,2.001 6.185,2.001 10.000 C 2.001 13.816,1.992 13.625,2.185 14.013 C 2.418 14.483,2.788 14.792,3.294 14.939 L 3.507 15.000 8.000 15.000 L 12.493 15.000 12.702 14.940 C 12.966 14.863,13.124 14.783,13.322 14.624 C 13.643 14.367,13.881 13.990,13.960 13.613 C 14.018 13.334,14.018 6.666,13.960 6.387 C 13.855 5.887,13.493 5.422,13.022 5.185 C 12.712 5.030,12.561 5.010,11.746 5.019 C 10.942 5.028,10.913 5.034,10.720 5.227 C 10.590 5.357,10.525 5.503,10.512 5.698 C 10.490 6.016,10.642 6.278,10.927 6.418 C 11.079 6.493,11.085 6.493,11.720 6.507 C 12.072 6.514,12.376 6.530,12.396 6.543 C 12.508 6.615,12.507 6.587,12.507 10.000 C 12.507 13.487,12.510 13.393,12.377 13.465 C 12.304 13.504,3.699 13.505,3.625 13.466 C 3.488 13.392,3.493 13.535,3.493 9.995 C 3.494 6.773,3.495 6.705,3.546 6.621 C 3.575 6.573,3.626 6.529,3.659 6.521 C 3.693 6.514,3.990 6.504,4.320 6.500 C 4.917 6.493,4.921 6.493,5.073 6.418 C 5.358 6.278,5.510 6.016,5.488 5.698 C 5.470 5.426,5.319 5.198,5.079 5.079 C 4.982 5.031,4.910 5.026,4.227 5.022 C 3.653 5.018,3.444 5.026,3.324 5.055 " stroke="none" fill-rule="evenodd" fill="black"></path></svg>