<svg xmlns="http://www.w3.org/2000/svg" width="24" height="24" viewBox="0 0 24 24"><path d="M16.160 2.025 C 15.562 2.100,15.070 2.273,14.609 2.572 C 13.863 3.056,13.367 3.736,13.113 4.621 C 12.994 5.038,12.983 5.915,13.092 6.317 C 13.149 6.526,13.152 6.584,13.111 6.622 C 13.083 6.648,11.939 7.330,10.569 8.137 L 8.078 9.606 7.849 9.408 C 7.347 8.975,6.801 8.699,6.203 8.578 C 5.700 8.476,4.937 8.512,4.480 8.660 C 3.885 8.852,3.438 9.121,3.023 9.536 C 1.768 10.793,1.661 12.783,2.775 14.182 C 3.635 15.263,5.037 15.725,6.411 15.379 C 6.804 15.280,7.422 14.953,7.770 14.660 L 8.081 14.399 10.570 15.866 C 11.940 16.673,13.084 17.354,13.113 17.381 C 13.156 17.420,13.154 17.469,13.101 17.664 C 13.009 17.999,12.978 18.655,13.038 19.022 C 13.250 20.336,14.144 21.393,15.407 21.822 C 16.242 22.106,17.254 22.035,18.052 21.635 C 19.467 20.926,20.240 19.347,19.923 17.812 C 19.776 17.100,19.469 16.540,18.939 16.020 C 18.370 15.460,17.687 15.131,16.894 15.033 C 15.938 14.916,14.878 15.250,14.181 15.888 L 13.933 16.115 11.398 14.616 C 10.004 13.791,8.856 13.109,8.847 13.101 C 8.839 13.092,8.865 12.963,8.905 12.813 C 9.008 12.431,9.007 11.568,8.904 11.184 C 8.843 10.954,8.840 10.903,8.885 10.876 C 8.915 10.858,10.065 10.179,11.440 9.365 L 13.939 7.887 14.140 8.075 C 14.528 8.441,14.975 8.692,15.548 8.867 C 15.863 8.962,15.963 8.974,16.500 8.974 C 17.037 8.974,17.137 8.962,17.452 8.867 C 18.055 8.683,18.476 8.440,18.915 8.022 C 20.520 6.495,20.297 3.841,18.461 2.619 C 18.056 2.350,17.764 2.219,17.345 2.118 C 17.017 2.040,16.419 1.993,16.160 2.025 M17.086 3.599 C 17.928 3.859,18.480 4.612,18.480 5.500 C 18.480 6.962,16.985 7.921,15.667 7.306 C 14.215 6.628,14.116 4.589,15.497 3.780 C 15.948 3.516,16.583 3.443,17.086 3.599 M5.956 10.062 C 6.669 10.230,7.278 10.829,7.437 11.520 C 7.490 11.751,7.490 12.249,7.437 12.480 C 7.280 13.161,6.687 13.754,5.978 13.939 C 4.970 14.201,3.881 13.575,3.584 12.563 C 3.547 12.438,3.520 12.199,3.520 12.000 C 3.520 11.422,3.704 10.975,4.103 10.582 C 4.595 10.098,5.287 9.904,5.956 10.062 M17.086 16.599 C 17.928 16.859,18.480 17.612,18.480 18.500 C 18.480 19.962,16.985 20.921,15.667 20.306 C 14.215 19.628,14.116 17.589,15.497 16.780 C 15.948 16.516,16.583 16.443,17.086 16.599 " stroke="none" fill-rule="evenodd" fill="black"></path></svg>