<svg xmlns="http://www.w3.org/2000/svg" width="16" height="16" viewBox="0 0 16 16"><path d="M11.689 0.027 C 10.449 0.155,9.396 1.066,9.095 2.273 C 8.983 2.723,8.972 3.231,9.066 3.640 C 9.080 3.699,9.082 3.755,9.072 3.764 C 9.050 3.785,5.257 5.893,5.207 5.913 C 5.189 5.920,5.099 5.857,5.007 5.774 C 4.663 5.462,4.216 5.220,3.765 5.101 C 3.385 5.001,2.791 4.986,2.400 5.066 C 1.837 5.182,1.329 5.452,0.920 5.853 C 0.642 6.126,0.474 6.352,0.323 6.656 C -0.106 7.523,-0.105 8.483,0.326 9.347 C 1.056 10.810,2.835 11.411,4.310 10.693 C 4.578 10.563,4.927 10.322,5.078 10.162 C 5.121 10.117,5.166 10.080,5.177 10.080 C 5.199 10.080,9.040 12.208,9.071 12.237 C 9.081 12.246,9.070 12.343,9.048 12.453 C 8.990 12.734,8.991 13.287,9.051 13.568 C 9.186 14.210,9.475 14.734,9.938 15.175 C 10.312 15.531,10.746 15.771,11.272 15.913 C 11.507 15.976,11.580 15.983,12.000 15.983 C 12.419 15.983,12.493 15.976,12.725 15.914 C 13.794 15.626,14.577 14.864,14.883 13.813 C 14.962 13.544,14.989 13.326,14.988 12.976 C 14.984 11.908,14.416 10.937,13.483 10.403 C 12.353 9.757,10.931 9.917,9.966 10.799 L 9.820 10.933 7.877 9.853 C 6.025 8.824,5.933 8.769,5.936 8.700 C 5.937 8.660,5.953 8.519,5.972 8.387 C 6.010 8.123,5.997 7.661,5.944 7.406 C 5.927 7.321,5.918 7.247,5.925 7.240 C 5.931 7.233,6.811 6.742,7.880 6.148 L 9.822 5.069 9.977 5.212 C 11.117 6.268,12.895 6.255,14.053 5.183 C 15.068 4.243,15.290 2.655,14.573 1.468 C 13.969 0.469,12.846 -0.092,11.689 0.027 M12.467 1.579 C 12.906 1.723,13.298 2.121,13.434 2.560 C 13.497 2.761,13.497 3.239,13.434 3.440 C 13.376 3.629,13.219 3.886,13.067 4.044 C 12.485 4.647,11.515 4.647,10.933 4.044 C 10.781 3.886,10.624 3.629,10.566 3.440 C 10.503 3.239,10.503 2.761,10.566 2.560 C 10.694 2.145,11.054 1.763,11.472 1.598 C 11.755 1.486,12.161 1.478,12.467 1.579 M3.454 6.570 C 3.982 6.735,4.410 7.248,4.480 7.800 C 4.595 8.705,3.906 9.493,3.000 9.493 C 2.351 9.493,1.786 9.081,1.573 8.453 C 1.485 8.195,1.489 7.790,1.581 7.526 C 1.750 7.040,2.149 6.669,2.634 6.547 C 2.824 6.498,3.265 6.511,3.454 6.570 M12.467 11.579 C 12.906 11.723,13.298 12.121,13.434 12.560 C 13.497 12.761,13.497 13.239,13.434 13.440 C 13.338 13.750,13.084 14.079,12.795 14.267 C 12.327 14.572,11.673 14.572,11.205 14.267 C 10.916 14.079,10.662 13.750,10.566 13.440 C 10.503 13.239,10.503 12.761,10.566 12.560 C 10.694 12.145,11.054 11.763,11.472 11.598 C 11.755 11.486,12.161 11.478,12.467 11.579 " stroke="none" fill-rule="evenodd" fill="black"></path></svg>