<svg xmlns="http://www.w3.org/2000/svg" width="24" height="24" viewBox="0 0 24 24"><path d="M11.700 1.077 C 11.464 1.187,8.094 4.578,8.059 4.740 C 8.045 4.806,8.025 4.885,8.016 4.916 C 8.006 4.947,8.025 5.064,8.057 5.177 C 8.187 5.623,8.640 5.838,9.071 5.658 C 9.168 5.618,9.572 5.245,10.230 4.589 L 11.240 3.582 11.240 8.972 C 11.240 13.747,11.247 14.379,11.302 14.511 C 11.569 15.151,12.431 15.151,12.698 14.511 C 12.753 14.379,12.760 13.747,12.760 8.972 L 12.760 3.582 13.790 4.609 C 14.462 5.280,14.872 5.658,14.969 5.698 C 15.395 5.876,15.854 5.661,15.980 5.224 C 16.034 5.041,16.034 4.994,15.981 4.818 C 15.927 4.635,15.786 4.484,14.171 2.871 C 12.972 1.674,12.373 1.103,12.271 1.061 C 12.075 0.980,11.896 0.985,11.700 1.077 M5.340 8.056 C 4.695 8.217,4.176 8.747,4.039 9.387 C 4.012 9.515,4.002 11.436,4.009 15.120 L 4.020 20.660 4.113 20.878 C 4.307 21.336,4.665 21.695,5.120 21.887 L 5.340 21.980 12.000 21.980 L 18.660 21.980 18.880 21.887 C 19.335 21.695,19.693 21.336,19.887 20.878 L 19.980 20.660 19.991 15.120 C 19.998 11.436,19.988 9.515,19.961 9.387 C 19.821 8.732,19.271 8.186,18.608 8.045 C 18.474 8.016,17.888 8.000,17.008 8.001 C 15.452 8.002,15.423 8.006,15.172 8.292 C 14.818 8.695,15.058 9.360,15.600 9.476 C 15.724 9.503,16.311 9.520,17.097 9.520 C 18.137 9.520,18.399 9.531,18.435 9.574 C 18.468 9.614,18.478 11.070,18.470 15.023 L 18.460 20.418 18.360 20.468 C 18.281 20.508,16.968 20.519,12.000 20.519 C 7.032 20.519,5.719 20.508,5.640 20.468 L 5.540 20.418 5.530 15.023 C 5.522 11.070,5.532 9.614,5.565 9.574 C 5.601 9.531,5.863 9.520,6.903 9.520 C 7.689 9.520,8.276 9.503,8.400 9.476 C 8.942 9.360,9.182 8.695,8.828 8.292 C 8.576 8.005,8.553 8.001,6.960 8.004 C 5.971 8.006,5.479 8.022,5.340 8.056 " stroke="none" fill-rule="evenodd" fill="black"></path></svg>