<svg xmlns="http://www.w3.org/2000/svg" width="24" height="24" viewBox="0 0 24 24"><path d="M11.540 0.617 C 10.900 0.800,3.070 3.363,2.924 3.438 C 2.696 3.554,2.380 3.852,2.252 4.070 C 2.196 4.165,2.117 4.352,2.075 4.485 C 2.004 4.713,2.000 4.900,2.000 7.658 C 2.000 10.553,2.021 11.197,2.144 12.040 C 2.489 14.418,3.438 16.563,4.956 18.397 C 5.363 18.889,6.346 19.853,6.860 20.264 C 8.083 21.244,9.503 22.069,11.003 22.673 C 11.863 23.020,12.137 23.020,12.997 22.673 C 15.709 21.582,17.967 19.883,19.552 17.742 C 20.594 16.335,21.358 14.594,21.720 12.800 C 21.970 11.566,21.970 11.552,21.989 8.010 C 22.007 4.446,22.013 4.560,21.770 4.110 C 21.645 3.878,21.317 3.561,21.077 3.438 C 20.980 3.389,18.992 2.728,16.660 1.971 C 12.703 0.685,12.397 0.592,12.080 0.577 C 11.858 0.566,11.670 0.580,11.540 0.617 M16.220 3.407 C 18.464 4.133,20.341 4.754,20.392 4.786 L 20.484 4.845 20.470 8.072 C 20.456 11.186,20.452 11.320,20.365 11.860 C 20.038 13.902,19.377 15.468,18.146 17.120 C 17.717 17.696,16.528 18.865,15.878 19.350 C 14.873 20.100,13.612 20.811,12.490 21.260 L 12.000 21.455 11.510 21.260 C 10.388 20.811,9.127 20.100,8.122 19.350 C 7.472 18.865,6.283 17.696,5.854 17.120 C 4.623 15.468,3.962 13.902,3.635 11.860 C 3.548 11.320,3.544 11.186,3.530 8.072 L 3.516 4.845 3.608 4.786 C 3.659 4.754,5.545 4.130,7.800 3.401 C 10.055 2.672,11.918 2.069,11.940 2.061 C 11.999 2.040,11.834 1.988,16.220 3.407 M15.680 8.583 C 15.591 8.622,14.711 9.471,13.270 10.911 L 11.001 13.178 9.990 12.174 C 9.435 11.621,8.922 11.140,8.852 11.104 C 8.782 11.069,8.630 11.040,8.516 11.040 C 8.138 11.040,7.837 11.296,7.777 11.668 C 7.723 12.006,7.751 12.041,9.195 13.494 C 10.081 14.387,10.595 14.874,10.700 14.923 C 10.903 15.018,11.097 15.018,11.300 14.923 C 11.409 14.872,12.293 14.013,14.067 12.234 C 16.905 9.389,16.762 9.556,16.708 9.155 C 16.645 8.684,16.122 8.393,15.680 8.583 " stroke="none" fill-rule="evenodd" fill="black"></path></svg>