<svg xmlns="http://www.w3.org/2000/svg" width="16" height="16" viewBox="0 0 16 16"><path d="M7.640 0.093 C 7.552 0.112,6.274 0.514,4.800 0.986 C 2.887 1.599,2.061 1.875,1.913 1.952 C 1.425 2.206,1.087 2.707,1.014 3.284 C 0.978 3.571,0.978 6.923,1.014 7.543 C 1.075 8.589,1.246 9.418,1.580 10.277 C 2.416 12.430,4.258 14.163,7.021 15.397 C 7.544 15.631,7.663 15.663,8.000 15.663 C 8.337 15.663,8.456 15.631,8.979 15.397 C 11.778 14.148,13.625 12.391,14.452 10.193 C 14.768 9.354,14.930 8.545,14.986 7.526 C 15.022 6.886,15.021 3.568,14.986 3.284 C 14.913 2.707,14.575 2.206,14.087 1.952 C 13.939 1.875,13.113 1.599,11.200 0.986 C 9.726 0.514,8.442 0.111,8.347 0.091 C 8.133 0.046,7.852 0.046,7.640 0.093 M10.699 2.401 C 12.899 3.105,13.384 3.268,13.433 3.323 L 13.493 3.390 13.493 5.421 C 13.493 7.504,13.482 7.800,13.383 8.400 C 13.046 10.447,11.869 12.041,9.760 13.307 C 9.357 13.549,8.718 13.878,8.287 14.065 L 8.000 14.189 7.713 14.065 C 6.294 13.448,5.064 12.617,4.234 11.716 C 3.220 10.616,2.677 9.351,2.534 7.760 C 2.518 7.582,2.507 6.599,2.507 5.421 L 2.507 3.390 2.567 3.323 C 2.616 3.267,3.091 3.107,5.293 2.402 C 6.760 1.933,7.974 1.548,7.992 1.548 C 8.010 1.547,9.228 1.931,10.699 2.401 M7.747 4.046 C 7.568 4.107,7.358 4.315,7.298 4.492 C 7.258 4.609,7.253 4.797,7.253 6.248 C 7.253 7.379,7.262 7.904,7.283 7.974 C 7.300 8.030,7.357 8.133,7.411 8.204 C 7.703 8.591,8.297 8.591,8.589 8.204 C 8.643 8.133,8.700 8.030,8.717 7.974 C 8.738 7.904,8.747 7.379,8.747 6.248 C 8.747 4.442,8.750 4.480,8.569 4.269 C 8.374 4.041,8.031 3.948,7.747 4.046 M7.787 9.530 C 7.250 9.650,6.915 10.164,7.026 10.697 C 7.092 11.017,7.293 11.267,7.595 11.409 C 7.726 11.470,7.781 11.480,8.000 11.480 C 8.219 11.480,8.274 11.470,8.405 11.409 C 8.707 11.267,8.908 11.017,8.974 10.697 C 9.088 10.150,8.731 9.625,8.174 9.522 C 7.988 9.488,7.976 9.488,7.787 9.530 " stroke="none" fill-rule="evenodd" fill="black"></path></svg>