<svg xmlns="http://www.w3.org/2000/svg" width="16" height="16" viewBox="0 0 16 16"><path d="M7.640 0.093 C 7.552 0.112,6.274 0.514,4.800 0.986 C 2.887 1.599,2.061 1.875,1.913 1.952 C 1.425 2.206,1.087 2.707,1.014 3.284 C 0.978 3.571,0.978 6.923,1.014 7.543 C 1.075 8.589,1.246 9.418,1.580 10.277 C 2.416 12.430,4.258 14.163,7.021 15.397 C 7.544 15.631,7.663 15.663,8.000 15.663 C 8.337 15.663,8.456 15.631,8.979 15.397 C 11.778 14.148,13.625 12.391,14.452 10.193 C 14.768 9.354,14.930 8.545,14.986 7.526 C 15.022 6.886,15.021 3.568,14.986 3.284 C 14.913 2.707,14.575 2.206,14.087 1.952 C 13.939 1.875,13.113 1.599,11.200 0.986 C 9.726 0.514,8.442 0.111,8.347 0.091 C 8.133 0.046,7.852 0.046,7.640 0.093 M10.700 2.401 C 12.909 3.107,13.384 3.267,13.433 3.323 L 13.493 3.390 13.493 5.421 C 13.493 6.599,13.482 7.582,13.466 7.760 C 13.285 9.770,12.469 11.266,10.840 12.569 C 10.193 13.087,9.206 13.665,8.287 14.065 L 8.000 14.189 7.713 14.065 C 6.540 13.555,5.454 12.872,4.678 12.157 C 3.376 10.959,2.696 9.564,2.534 7.760 C 2.518 7.582,2.507 6.599,2.507 5.421 L 2.507 3.390 2.567 3.323 C 2.616 3.268,3.101 3.104,5.293 2.403 C 6.760 1.933,7.975 1.549,7.993 1.548 C 8.012 1.547,9.230 1.931,10.700 2.401 M7.603 5.055 C 7.273 5.144,6.933 5.395,6.741 5.692 C 6.685 5.779,6.607 5.951,6.569 6.073 C 6.508 6.270,6.501 6.327,6.513 6.568 C 6.523 6.774,6.544 6.885,6.597 7.027 C 6.691 7.274,6.895 7.547,7.091 7.687 L 7.249 7.800 7.258 9.133 L 7.267 10.467 7.350 10.613 C 7.453 10.796,7.618 10.919,7.836 10.974 C 7.984 11.012,8.015 11.012,8.160 10.976 C 8.356 10.925,8.506 10.829,8.601 10.693 C 8.744 10.485,8.744 10.486,8.747 9.093 L 8.750 7.800 8.908 7.687 C 9.105 7.547,9.309 7.275,9.403 7.027 C 9.456 6.885,9.477 6.774,9.487 6.568 C 9.499 6.327,9.492 6.270,9.431 6.073 C 9.274 5.570,8.876 5.182,8.386 5.054 C 8.190 5.003,7.795 5.004,7.603 5.055 " stroke="none" fill-rule="evenodd" fill="black"></path></svg>