<svg xmlns="http://www.w3.org/2000/svg" width="24" height="24" viewBox="0 0 24 24"><path d="M11.540 0.617 C 10.900 0.800,3.070 3.363,2.924 3.438 C 2.696 3.554,2.380 3.852,2.252 4.070 C 2.196 4.165,2.117 4.352,2.075 4.485 C 2.004 4.713,2.000 4.900,2.000 7.658 C 2.000 11.052,2.031 11.609,2.287 12.860 C 3.181 17.233,6.349 20.799,11.003 22.673 C 11.598 22.913,11.899 22.972,12.247 22.916 C 12.756 22.834,14.405 22.083,15.400 21.480 C 16.541 20.789,17.290 20.199,18.262 19.224 C 20.324 17.157,21.479 14.784,21.905 11.740 C 21.962 11.332,21.974 10.771,21.989 8.010 C 22.007 4.446,22.013 4.560,21.770 4.110 C 21.645 3.878,21.317 3.561,21.077 3.438 C 20.980 3.389,18.992 2.728,16.660 1.971 C 12.703 0.685,12.397 0.592,12.080 0.577 C 11.858 0.566,11.670 0.580,11.540 0.617 M16.220 3.407 C 18.464 4.133,20.341 4.754,20.392 4.786 L 20.484 4.845 20.470 8.072 C 20.456 11.186,20.452 11.320,20.365 11.860 C 20.038 13.902,19.377 15.468,18.146 17.120 C 17.717 17.696,16.528 18.865,15.878 19.350 C 14.873 20.100,13.612 20.811,12.490 21.260 L 12.000 21.455 11.510 21.260 C 10.387 20.811,9.125 20.099,8.122 19.350 C 7.505 18.888,6.341 17.756,5.913 17.200 C 4.682 15.601,3.965 13.919,3.635 11.860 C 3.548 11.320,3.544 11.186,3.530 8.072 L 3.516 4.845 3.608 4.786 C 3.659 4.754,5.545 4.131,7.800 3.402 C 10.055 2.672,11.918 2.069,11.940 2.061 C 11.999 2.040,11.833 1.988,16.220 3.407 M11.595 6.635 C 11.244 6.857,11.260 6.722,11.260 9.500 C 11.260 11.898,11.261 11.943,11.344 12.100 C 11.610 12.610,12.390 12.610,12.656 12.100 C 12.739 11.943,12.740 11.898,12.740 9.500 C 12.740 7.171,12.736 7.053,12.663 6.905 C 12.479 6.533,11.961 6.402,11.595 6.635 M11.617 14.577 C 11.271 14.727,11.001 15.133,11.001 15.500 C 11.001 15.760,11.139 16.057,11.348 16.245 C 11.845 16.693,12.616 16.522,12.906 15.900 C 13.135 15.408,12.887 14.789,12.374 14.575 C 12.208 14.505,11.778 14.506,11.617 14.577 " stroke="none" fill-rule="evenodd" fill="black"></path></svg>