<svg xmlns="http://www.w3.org/2000/svg" width="24" height="24" viewBox="0 0 24 24"><path d="M11.720 1.080 C 11.425 1.130,3.117 3.838,2.903 3.953 C 2.495 4.173,2.182 4.582,2.054 5.060 C 2.012 5.218,2.001 5.872,2.001 8.200 C 2.001 11.088,2.020 11.673,2.142 12.520 C 2.704 16.414,4.867 19.650,8.376 21.842 C 9.283 22.409,10.476 22.994,11.360 23.305 C 12.026 23.540,12.296 23.492,13.620 22.906 C 17.929 20.999,20.867 17.527,21.716 13.340 C 21.970 12.087,21.999 11.564,21.999 8.200 C 21.999 5.872,21.988 5.218,21.946 5.060 C 21.818 4.582,21.505 4.173,21.097 3.953 C 20.859 3.825,12.563 1.129,12.245 1.077 C 11.995 1.036,11.976 1.036,11.720 1.080 M16.198 3.900 C 18.471 4.637,20.336 5.240,20.342 5.240 C 20.349 5.240,20.383 5.268,20.417 5.303 C 20.473 5.359,20.480 5.689,20.480 8.339 C 20.480 11.363,20.466 11.732,20.318 12.620 C 20.007 14.491,19.205 16.284,18.001 17.800 C 16.706 19.431,14.688 20.876,12.450 21.776 L 12.000 21.957 11.550 21.776 C 8.888 20.706,6.751 19.026,5.349 16.900 C 4.956 16.303,4.377 15.136,4.160 14.500 C 3.858 13.618,3.655 12.676,3.561 11.726 C 3.537 11.485,3.520 10.069,3.520 8.339 C 3.520 5.757,3.528 5.358,3.580 5.306 C 3.612 5.273,3.815 5.191,4.030 5.124 C 4.244 5.056,6.103 4.453,8.160 3.783 C 10.217 3.113,11.937 2.564,11.983 2.563 C 12.029 2.561,13.925 3.163,16.198 3.900 M11.400 8.595 C 10.725 8.811,10.183 9.414,10.038 10.109 C 9.893 10.809,10.192 11.617,10.763 12.066 L 11.000 12.252 11.000 13.696 C 11.000 14.567,11.017 15.199,11.042 15.289 C 11.103 15.509,11.315 15.762,11.531 15.874 C 11.932 16.080,12.390 16.012,12.700 15.702 C 12.991 15.411,13.000 15.349,13.000 13.699 L 13.000 12.252 13.237 12.066 C 13.501 11.859,13.748 11.516,13.885 11.169 C 14.017 10.837,14.016 10.162,13.884 9.826 C 13.657 9.252,13.180 8.790,12.626 8.608 C 12.285 8.496,11.726 8.490,11.400 8.595 " stroke="none" fill-rule="evenodd" fill="black"></path></svg>