<svg xmlns="http://www.w3.org/2000/svg" width="16" height="16" viewBox="0 0 16 16"><path d="M7.640 0.093 C 7.552 0.112,6.274 0.514,4.800 0.986 C 2.887 1.599,2.061 1.875,1.913 1.952 C 1.425 2.206,1.087 2.707,1.014 3.284 C 0.978 3.571,0.978 6.923,1.014 7.543 C 1.075 8.589,1.246 9.418,1.580 10.277 C 2.416 12.430,4.258 14.163,7.021 15.397 C 7.544 15.631,7.663 15.663,8.000 15.663 C 8.337 15.663,8.456 15.631,8.979 15.397 C 11.778 14.148,13.625 12.391,14.452 10.193 C 14.768 9.354,14.930 8.545,14.986 7.526 C 15.022 6.886,15.021 3.568,14.986 3.284 C 14.913 2.707,14.575 2.206,14.087 1.952 C 13.939 1.875,13.113 1.599,11.200 0.986 C 9.726 0.514,8.442 0.111,8.347 0.091 C 8.133 0.046,7.852 0.046,7.640 0.093 M10.700 2.401 C 12.909 3.107,13.384 3.267,13.433 3.323 L 13.493 3.390 13.493 5.421 C 13.493 6.599,13.482 7.582,13.466 7.760 C 13.285 9.770,12.469 11.266,10.840 12.569 C 10.193 13.087,9.206 13.665,8.287 14.065 L 8.000 14.189 7.713 14.065 C 6.540 13.555,5.454 12.872,4.678 12.157 C 3.376 10.959,2.696 9.564,2.534 7.760 C 2.518 7.582,2.507 6.599,2.507 5.421 L 2.507 3.390 2.567 3.323 C 2.616 3.268,3.101 3.104,5.293 2.403 C 6.760 1.933,7.975 1.549,7.993 1.548 C 8.012 1.547,9.230 1.931,10.700 2.401 M5.992 5.025 C 5.567 5.177,5.372 5.636,5.558 6.043 C 5.615 6.167,5.744 6.312,6.280 6.851 L 6.932 7.508 6.292 8.148 C 5.879 8.560,5.633 8.827,5.597 8.900 C 5.357 9.393,5.719 9.973,6.267 9.973 C 6.574 9.973,6.647 9.922,7.373 9.199 L 8.015 8.561 8.681 9.228 C 9.422 9.970,9.477 10.010,9.759 10.011 C 10.188 10.012,10.510 9.691,10.510 9.263 C 10.510 8.968,10.461 8.899,9.722 8.161 L 9.068 7.508 9.720 6.851 C 10.255 6.313,10.385 6.167,10.442 6.044 C 10.719 5.438,10.145 4.817,9.505 5.030 C 9.390 5.069,9.285 5.162,8.687 5.756 L 8.000 6.438 7.313 5.756 C 6.715 5.162,6.610 5.069,6.495 5.030 C 6.338 4.978,6.131 4.976,5.992 5.025 " stroke="none" fill-rule="evenodd" fill="black"></path></svg>