<svg xmlns="http://www.w3.org/2000/svg" width="16" height="16" viewBox="0 0 16 16"><path d="M7.640 0.093 C 7.552 0.112,6.274 0.514,4.800 0.986 C 2.887 1.599,2.061 1.875,1.913 1.952 C 1.425 2.206,1.087 2.707,1.014 3.284 C 0.978 3.571,0.978 6.923,1.014 7.543 C 1.075 8.589,1.246 9.418,1.580 10.277 C 2.416 12.430,4.258 14.163,7.021 15.397 C 7.544 15.631,7.663 15.663,8.000 15.663 C 8.337 15.663,8.456 15.631,8.979 15.397 C 11.778 14.148,13.625 12.391,14.452 10.193 C 14.768 9.354,14.930 8.545,14.986 7.526 C 15.022 6.886,15.021 3.568,14.986 3.284 C 14.913 2.707,14.575 2.206,14.087 1.952 C 13.939 1.875,13.113 1.599,11.200 0.986 C 9.726 0.514,8.442 0.111,8.347 0.091 C 8.133 0.046,7.852 0.046,7.640 0.093 M10.700 2.401 C 12.909 3.107,13.384 3.267,13.433 3.323 L 13.493 3.390 13.493 5.421 C 13.493 6.599,13.482 7.582,13.466 7.760 C 13.285 9.770,12.469 11.266,10.840 12.569 C 10.193 13.087,9.206 13.665,8.287 14.065 L 8.000 14.189 7.713 14.065 C 6.540 13.555,5.454 12.872,4.678 12.157 C 3.376 10.959,2.696 9.564,2.534 7.760 C 2.518 7.582,2.507 6.599,2.507 5.421 L 2.507 3.390 2.567 3.323 C 2.616 3.268,3.101 3.104,5.293 2.403 C 6.760 1.933,7.975 1.549,7.993 1.548 C 8.012 1.547,9.230 1.931,10.700 2.401 M10.531 5.049 C 10.463 5.068,10.349 5.127,10.277 5.180 C 10.205 5.233,9.493 5.931,8.694 6.731 L 7.241 8.185 6.681 7.630 C 6.177 7.131,6.105 7.069,5.976 7.027 C 5.806 6.971,5.551 6.982,5.417 7.051 C 5.284 7.120,5.122 7.278,5.061 7.397 C 4.983 7.550,4.969 7.798,5.027 7.976 C 5.070 8.109,5.139 8.186,5.943 8.994 C 6.547 9.601,6.850 9.886,6.933 9.927 C 7.113 10.016,7.406 10.010,7.587 9.915 C 7.685 9.863,8.202 9.361,9.539 8.022 C 11.534 6.024,11.476 6.091,11.476 5.773 C 11.475 5.482,11.285 5.190,11.025 5.081 C 10.884 5.022,10.674 5.008,10.531 5.049 " stroke="none" fill-rule="evenodd" fill="black"></path></svg>