<svg xmlns="http://www.w3.org/2000/svg" width="16" height="16" viewBox="0 0 16 16"><path d="M1.442 0.029 C 0.747 0.166,0.223 0.663,0.053 1.347 C 0.000 1.558,-0.000 1.639,0.006 8.067 L 0.013 14.573 0.087 14.790 C 0.267 15.320,0.680 15.733,1.211 15.914 L 1.427 15.987 8.000 15.987 L 14.573 15.987 14.790 15.913 C 15.036 15.830,15.347 15.636,15.511 15.463 C 15.678 15.287,15.832 15.029,15.914 14.789 L 15.987 14.573 15.987 8.000 L 15.987 1.427 15.913 1.210 C 15.733 0.680,15.320 0.267,14.789 0.086 L 14.573 0.013 8.067 0.009 C 4.437 0.007,1.508 0.016,1.442 0.029 M9.493 8.000 L 9.493 14.507 5.574 14.500 L 1.655 14.493 1.581 14.419 L 1.507 14.345 1.507 8.002 C 1.507 1.696,1.507 1.659,1.560 1.600 C 1.589 1.567,1.637 1.531,1.667 1.519 C 1.696 1.507,3.469 1.496,5.607 1.495 L 9.493 1.493 9.493 8.000 M14.419 1.581 L 14.493 1.655 14.493 8.000 L 14.493 14.345 14.419 14.419 L 14.345 14.493 12.679 14.501 L 11.013 14.508 11.013 8.000 L 11.013 1.492 12.679 1.499 L 14.345 1.507 14.419 1.581 M4.078 5.438 L 4.000 5.516 4.000 8.000 L 4.000 10.484 4.078 10.562 C 4.137 10.621,4.181 10.640,4.257 10.640 C 4.355 10.640,4.398 10.600,5.605 9.395 C 6.290 8.710,6.865 8.116,6.882 8.075 C 6.906 8.018,6.906 7.982,6.882 7.925 C 6.865 7.884,6.290 7.290,5.605 6.605 C 4.398 5.400,4.355 5.360,4.257 5.360 C 4.181 5.360,4.137 5.379,4.078 5.438 " stroke="none" fill-rule="evenodd" fill="black"></path></svg>