<svg xmlns="http://www.w3.org/2000/svg" width="24" height="24" viewBox="0 0 24 24"><path d="M3.340 2.056 C 2.694 2.217,2.175 2.748,2.039 3.387 C 2.012 3.516,2.002 6.399,2.009 12.120 L 2.020 20.660 2.113 20.880 C 2.305 21.335,2.664 21.693,3.122 21.887 L 3.340 21.980 12.000 21.980 L 20.660 21.980 20.880 21.887 C 21.335 21.695,21.693 21.336,21.887 20.878 L 21.980 20.660 21.991 12.120 C 21.998 6.399,21.988 3.516,21.961 3.387 C 21.821 2.732,21.271 2.186,20.608 2.045 C 20.288 1.977,3.616 1.988,3.340 2.056 M15.000 12.020 L 15.000 20.521 9.326 20.510 C 4.587 20.502,3.641 20.491,3.586 20.445 C 3.525 20.394,3.520 19.756,3.520 12.003 C 3.520 5.533,3.531 3.605,3.568 3.568 C 3.605 3.531,4.934 3.520,9.308 3.520 L 15.000 3.520 15.000 12.020 M20.432 3.568 C 20.469 3.605,20.480 5.533,20.480 12.003 C 20.480 19.754,20.475 20.394,20.414 20.445 C 20.360 20.490,19.985 20.502,18.434 20.511 L 16.520 20.522 16.520 12.021 L 16.520 3.520 18.452 3.520 C 19.901 3.520,20.396 3.532,20.432 3.568 M10.460 8.306 C 10.260 8.410,7.162 11.518,7.077 11.700 C 6.982 11.903,6.982 12.097,7.077 12.300 C 7.169 12.497,10.325 15.655,10.493 15.718 C 10.939 15.885,11.457 15.573,11.509 15.105 C 11.550 14.747,11.526 14.717,10.126 13.310 L 8.823 12.000 10.126 10.690 C 11.526 9.283,11.550 9.253,11.509 8.895 C 11.455 8.410,10.880 8.087,10.460 8.306 " stroke="none" fill-rule="evenodd" fill="black"></path></svg>