<svg xmlns="http://www.w3.org/2000/svg" width="16" height="16" viewBox="0 0 16 16"><path d="M1.442 0.029 C 0.801 0.156,0.295 0.596,0.087 1.210 L 0.013 1.427 0.006 7.933 C -0.000 14.361,0.000 14.442,0.053 14.653 C 0.138 14.995,0.273 15.234,0.519 15.481 C 0.766 15.727,1.005 15.862,1.347 15.947 C 1.558 16.000,1.639 16.000,8.067 15.994 L 14.573 15.987 14.790 15.913 C 15.036 15.830,15.347 15.636,15.511 15.463 C 15.678 15.287,15.832 15.029,15.914 14.789 L 15.987 14.573 15.987 8.000 L 15.987 1.427 15.914 1.211 C 15.734 0.683,15.318 0.266,14.792 0.088 L 14.573 0.013 8.067 0.009 C 4.437 0.007,1.508 0.016,1.442 0.029 M9.493 8.000 L 9.493 14.507 5.574 14.500 L 1.655 14.493 1.581 14.419 L 1.507 14.345 1.507 8.002 C 1.507 1.696,1.507 1.659,1.560 1.600 C 1.589 1.567,1.637 1.531,1.667 1.519 C 1.696 1.507,3.469 1.496,5.607 1.495 L 9.493 1.493 9.493 8.000 M14.419 1.581 L 14.493 1.655 14.493 8.000 L 14.493 14.345 14.419 14.419 L 14.345 14.493 12.679 14.501 L 11.013 14.508 11.013 8.000 L 11.013 1.492 12.679 1.499 L 14.345 1.507 14.419 1.581 M6.613 5.404 C 6.505 5.475,4.186 7.794,4.145 7.872 C 4.053 8.046,4.015 8.001,5.380 9.366 C 6.550 10.537,6.660 10.640,6.741 10.640 C 6.790 10.640,6.854 10.627,6.884 10.611 C 7.015 10.541,7.013 10.568,7.013 8.005 C 7.013 6.364,7.004 5.582,6.985 5.526 C 6.931 5.373,6.749 5.313,6.613 5.404 " stroke="none" fill-rule="evenodd" fill="black"></path></svg>