<svg xmlns="http://www.w3.org/2000/svg" width="24" height="24" viewBox="0 0 24 24"><path d="M3.340 2.056 C 2.694 2.217,2.175 2.748,2.039 3.387 C 2.012 3.516,2.002 6.399,2.009 12.120 L 2.020 20.660 2.113 20.880 C 2.305 21.335,2.664 21.693,3.122 21.887 L 3.340 21.980 12.000 21.980 L 20.660 21.980 20.880 21.887 C 21.335 21.695,21.693 21.336,21.887 20.878 L 21.980 20.660 21.991 12.120 C 21.998 6.399,21.988 3.516,21.961 3.387 C 21.821 2.732,21.271 2.186,20.608 2.045 C 20.288 1.977,3.616 1.988,3.340 2.056 M15.000 12.020 L 15.000 20.521 9.326 20.510 C 4.587 20.502,3.641 20.491,3.586 20.445 C 3.525 20.394,3.520 19.756,3.520 12.003 C 3.520 5.533,3.531 3.605,3.568 3.568 C 3.605 3.531,4.934 3.520,9.308 3.520 L 15.000 3.520 15.000 12.020 M20.432 3.568 C 20.469 3.605,20.480 5.533,20.480 12.003 C 20.480 19.754,20.475 20.394,20.414 20.445 C 20.360 20.490,19.985 20.502,18.434 20.511 L 16.520 20.522 16.520 12.021 L 16.520 3.520 18.452 3.520 C 19.901 3.520,20.396 3.532,20.432 3.568 M7.420 8.306 C 7.209 8.417,7.079 8.571,7.018 8.781 C 6.966 8.960,6.966 9.007,7.018 9.180 C 7.072 9.358,7.199 9.499,8.388 10.688 L 9.699 11.999 8.392 13.310 C 7.434 14.271,7.078 14.652,7.059 14.740 C 7.045 14.806,7.025 14.885,7.016 14.916 C 7.006 14.947,7.025 15.064,7.057 15.177 C 7.187 15.623,7.639 15.838,8.071 15.658 C 8.254 15.582,11.235 12.625,11.387 12.369 C 11.526 12.135,11.526 11.865,11.387 11.631 C 11.235 11.374,8.214 8.378,8.031 8.302 C 7.842 8.223,7.574 8.225,7.420 8.306 " stroke="none" fill-rule="evenodd" fill="black"></path></svg>