<svg xmlns="http://www.w3.org/2000/svg" width="24" height="24" viewBox="0 0 24 24"><path d="M4.219 1.592 C 3.787 1.741,3.388 2.072,3.204 2.433 C 2.989 2.854,3.000 2.335,3.000 12.021 C 3.000 20.146,3.006 21.006,3.064 21.203 C 3.235 21.778,3.626 22.198,4.191 22.411 C 4.417 22.497,4.460 22.498,7.294 22.511 C 9.321 22.520,10.233 22.511,10.386 22.479 C 11.109 22.329,11.213 21.380,10.540 21.075 C 10.390 21.006,10.200 21.002,7.516 21.001 C 4.793 21.000,4.649 20.996,4.586 20.927 C 4.525 20.859,4.520 20.182,4.520 11.993 C 4.520 3.460,4.523 3.130,4.593 3.066 C 4.660 3.006,4.920 3.000,7.503 3.000 C 9.290 3.000,10.394 2.985,10.485 2.959 C 10.704 2.898,10.947 2.616,10.982 2.380 C 11.033 2.041,10.888 1.747,10.598 1.599 C 10.448 1.522,10.351 1.520,7.432 1.521 C 4.680 1.522,4.403 1.529,4.219 1.592 M15.434 6.582 C 15.332 6.626,14.610 7.361,12.994 9.066 C 11.732 10.398,10.657 11.558,10.605 11.645 C 10.540 11.754,10.511 11.863,10.511 12.000 C 10.511 12.137,10.540 12.246,10.605 12.355 C 10.657 12.442,11.732 13.602,12.994 14.934 C 15.409 17.481,15.408 17.481,15.751 17.479 C 15.922 17.478,16.188 17.367,16.288 17.254 C 16.477 17.042,16.529 16.690,16.409 16.430 C 16.369 16.344,15.634 15.536,14.681 14.530 L 13.023 12.780 17.241 12.760 C 21.068 12.742,21.471 12.734,21.580 12.674 C 21.822 12.540,22.000 12.255,22.000 12.000 C 22.000 11.745,21.822 11.460,21.580 11.326 C 21.471 11.266,21.068 11.258,17.241 11.240 L 13.023 11.220 14.681 9.470 C 15.634 8.464,16.369 7.656,16.409 7.570 C 16.558 7.246,16.450 6.847,16.161 6.656 C 15.957 6.521,15.649 6.490,15.434 6.582 " stroke="none" fill-rule="evenodd" fill="black"></path></svg>