<svg xmlns="http://www.w3.org/2000/svg" width="16" height="16" viewBox="0 0 16 16"><path d="M3.324 1.056 C 2.842 1.172,2.415 1.522,2.185 1.987 C 1.988 2.384,2.001 1.968,2.001 8.000 C 2.001 14.033,1.988 13.617,2.185 14.013 C 2.418 14.483,2.788 14.792,3.294 14.939 C 3.504 14.999,3.522 15.000,4.960 15.000 C 6.381 15.000,6.416 14.999,6.535 14.944 C 6.820 14.812,6.992 14.556,6.995 14.260 C 6.997 13.967,6.846 13.723,6.573 13.578 L 6.440 13.507 5.080 13.500 C 4.332 13.496,3.693 13.487,3.659 13.479 C 3.626 13.472,3.575 13.427,3.546 13.379 C 3.494 13.295,3.494 13.215,3.494 8.000 C 3.494 2.785,3.494 2.705,3.546 2.621 C 3.575 2.573,3.626 2.528,3.659 2.521 C 3.693 2.513,4.332 2.504,5.080 2.500 C 6.605 2.492,6.531 2.501,6.759 2.292 C 7.139 1.941,7.047 1.314,6.580 1.082 L 6.443 1.013 4.961 1.016 C 3.779 1.017,3.448 1.025,3.324 1.056 M9.876 4.002 C 9.815 4.013,9.719 4.047,9.662 4.076 C 9.603 4.107,8.834 4.857,7.822 5.871 C 6.141 7.556,6.083 7.618,6.042 7.758 C 5.989 7.941,5.989 8.059,6.042 8.242 C 6.083 8.382,6.141 8.443,7.834 10.139 C 9.767 12.075,9.693 12.012,10.027 12.011 C 10.524 12.010,10.874 11.535,10.734 11.051 C 10.690 10.896,10.674 10.878,9.638 9.839 C 9.060 9.260,8.587 8.777,8.587 8.766 C 8.587 8.755,9.892 8.746,11.487 8.745 C 14.621 8.744,14.476 8.751,14.693 8.601 C 14.829 8.506,14.925 8.356,14.976 8.160 C 15.012 8.016,15.012 7.984,14.976 7.840 C 14.925 7.644,14.829 7.494,14.693 7.399 C 14.476 7.249,14.623 7.256,11.467 7.255 L 8.548 7.253 9.619 6.180 C 10.674 5.122,10.690 5.104,10.734 4.949 C 10.890 4.407,10.428 3.896,9.876 4.002 " stroke="none" fill-rule="evenodd" fill="black"></path></svg>