<svg xmlns="http://www.w3.org/2000/svg" width="16" height="16" viewBox="0 0 16 16"><path d="M3.324 1.056 C 2.842 1.172,2.415 1.522,2.185 1.987 C 1.988 2.384,2.001 1.968,2.001 8.000 C 2.001 14.033,1.988 13.617,2.185 14.013 C 2.418 14.483,2.788 14.792,3.294 14.939 C 3.504 14.999,3.522 15.000,4.960 15.000 C 6.381 15.000,6.416 14.999,6.535 14.944 C 6.820 14.812,6.992 14.556,6.995 14.260 C 6.997 13.967,6.846 13.723,6.573 13.578 L 6.440 13.507 5.080 13.500 C 4.332 13.496,3.693 13.487,3.659 13.479 C 3.626 13.472,3.575 13.427,3.546 13.379 C 3.494 13.295,3.494 13.215,3.494 8.000 C 3.494 2.785,3.494 2.705,3.546 2.621 C 3.575 2.573,3.626 2.528,3.659 2.521 C 3.693 2.513,4.332 2.504,5.080 2.500 C 6.605 2.492,6.531 2.501,6.759 2.292 C 7.139 1.941,7.047 1.314,6.580 1.082 L 6.443 1.013 4.961 1.016 C 3.779 1.017,3.448 1.025,3.324 1.056 M10.831 4.002 C 10.386 4.090,10.134 4.551,10.284 5.002 C 10.322 5.119,10.440 5.246,11.383 6.193 L 12.438 7.253 9.544 7.253 C 6.240 7.253,6.465 7.238,6.227 7.476 C 5.922 7.782,5.921 8.217,6.225 8.522 C 6.466 8.763,6.222 8.747,9.531 8.747 L 12.438 8.747 11.383 9.807 C 10.227 10.967,10.240 10.951,10.240 11.267 C 10.240 11.679,10.568 12.013,10.973 12.013 C 11.313 12.013,11.229 12.083,13.075 10.243 C 13.996 9.325,14.791 8.518,14.841 8.450 C 14.893 8.380,14.951 8.257,14.975 8.164 C 15.012 8.015,15.013 7.985,14.975 7.838 C 14.952 7.749,14.898 7.626,14.856 7.565 C 14.813 7.504,14.024 6.702,13.102 5.784 C 11.831 4.517,11.398 4.101,11.307 4.060 C 11.159 3.993,10.984 3.971,10.831 4.002 " stroke="none" fill-rule="evenodd" fill="black"></path></svg>