<svg xmlns="http://www.w3.org/2000/svg" width="24" height="24" viewBox="0 0 24 24"><path d="M4.219 1.592 C 3.787 1.741,3.388 2.072,3.204 2.433 C 2.989 2.854,3.000 2.335,3.000 12.021 C 3.000 20.146,3.006 21.006,3.064 21.203 C 3.235 21.778,3.626 22.198,4.191 22.411 C 4.417 22.497,4.460 22.498,7.294 22.511 C 9.321 22.520,10.233 22.511,10.386 22.479 C 11.109 22.329,11.213 21.380,10.540 21.075 C 10.390 21.006,10.200 21.002,7.516 21.001 C 4.793 21.000,4.649 20.996,4.586 20.927 C 4.525 20.859,4.520 20.182,4.520 11.993 C 4.520 3.460,4.523 3.130,4.593 3.066 C 4.660 3.006,4.920 3.000,7.503 3.000 C 9.290 3.000,10.394 2.985,10.485 2.959 C 10.704 2.898,10.947 2.616,10.982 2.380 C 11.033 2.041,10.888 1.747,10.598 1.599 C 10.448 1.522,10.351 1.520,7.432 1.521 C 4.680 1.522,4.403 1.529,4.219 1.592 M16.006 6.563 C 15.592 6.729,15.410 7.182,15.597 7.580 C 15.643 7.677,16.319 8.420,17.325 9.480 L 18.978 11.220 14.759 11.240 C 10.932 11.258,10.529 11.266,10.420 11.326 C 10.178 11.460,10.000 11.745,10.000 12.000 C 10.000 12.255,10.178 12.540,10.420 12.674 C 10.529 12.734,10.932 12.742,14.759 12.760 L 18.978 12.780 17.325 14.520 C 16.319 15.580,15.643 16.323,15.597 16.420 C 15.471 16.688,15.519 17.038,15.712 17.254 C 15.812 17.367,16.078 17.478,16.249 17.479 C 16.592 17.481,16.591 17.481,19.006 14.934 C 20.268 13.602,21.343 12.442,21.395 12.355 C 21.523 12.142,21.523 11.858,21.395 11.645 C 21.343 11.558,20.268 10.398,19.006 9.066 C 17.230 7.193,16.676 6.631,16.555 6.583 C 16.382 6.513,16.150 6.505,16.006 6.563 " stroke="none" fill-rule="evenodd" fill="black"></path></svg>