<svg xmlns="http://www.w3.org/2000/svg" width="24" height="24" viewBox="0 0 24 24"><path d="M3.340 2.056 C 2.694 2.217,2.175 2.748,2.039 3.387 C 2.012 3.516,2.002 6.399,2.009 12.120 L 2.020 20.660 2.113 20.880 C 2.305 21.335,2.664 21.693,3.122 21.887 L 3.340 21.980 12.000 21.980 L 20.660 21.980 20.880 21.887 C 21.335 21.695,21.693 21.336,21.887 20.878 L 21.980 20.660 21.991 12.120 C 21.998 6.399,21.988 3.516,21.961 3.387 C 21.821 2.732,21.271 2.186,20.608 2.045 C 20.288 1.977,3.616 1.988,3.340 2.056 M20.432 3.568 C 20.469 3.605,20.480 5.533,20.480 12.003 C 20.480 19.756,20.475 20.394,20.414 20.445 C 20.315 20.527,3.685 20.527,3.586 20.445 C 3.525 20.394,3.520 19.756,3.520 12.003 C 3.520 5.533,3.531 3.605,3.568 3.568 C 3.638 3.498,20.362 3.498,20.432 3.568 M8.017 10.038 C 7.849 10.107,7.720 10.312,7.720 10.512 L 7.720 10.698 9.749 12.729 C 11.883 14.864,11.879 14.861,12.137 14.774 C 12.249 14.736,15.986 11.074,16.167 10.824 C 16.333 10.595,16.325 10.368,16.143 10.169 L 16.006 10.020 12.053 10.012 C 9.879 10.008,8.063 10.020,8.017 10.038 " stroke="none" fill-rule="evenodd" fill="black"></path></svg>