<svg xmlns="http://www.w3.org/2000/svg" width="16" height="16" viewBox="0 0 16 16"><path d="M2.387 1.041 C 1.891 1.143,1.422 1.504,1.203 1.950 C 0.981 2.403,1.000 1.841,1.000 8.000 C 1.000 14.161,0.981 13.597,1.204 14.052 C 1.358 14.367,1.633 14.642,1.948 14.796 C 2.403 15.019,1.839 15.000,8.000 15.000 C 14.161 15.000,13.597 15.019,14.052 14.796 C 14.367 14.642,14.642 14.367,14.796 14.052 C 15.019 13.597,15.000 14.161,15.000 8.000 C 15.000 1.841,15.019 2.403,14.797 1.950 C 14.608 1.565,14.257 1.262,13.797 1.087 L 13.640 1.027 8.067 1.023 C 5.001 1.021,2.445 1.029,2.387 1.041 M13.415 2.585 L 13.493 2.663 13.493 7.996 L 13.493 13.329 13.424 13.411 L 13.355 13.493 8.000 13.493 L 2.645 13.493 2.576 13.411 L 2.507 13.329 2.507 7.996 L 2.507 2.663 2.585 2.585 L 2.663 2.507 8.000 2.507 L 13.337 2.507 13.415 2.585 M5.086 7.047 C 5.022 7.095,4.990 7.203,5.017 7.276 C 5.029 7.310,5.684 7.991,6.472 8.789 C 7.834 10.169,7.909 10.240,8.000 10.240 C 8.091 10.240,8.165 10.170,9.515 8.801 C 10.296 8.010,10.952 7.331,10.972 7.292 C 11.016 7.207,10.982 7.081,10.906 7.039 C 10.827 6.997,5.142 7.004,5.086 7.047 " stroke="none" fill-rule="evenodd" fill="black"></path></svg>