<svg xmlns="http://www.w3.org/2000/svg" width="16" height="16" viewBox="0 0 16 16"><path d="M7.011 0.040 C 6.861 0.088,6.658 0.262,6.579 0.410 C 6.523 0.515,6.520 0.556,6.512 1.260 L 6.504 2.000 4.072 2.001 C 1.821 2.002,1.630 2.005,1.504 2.049 C 1.259 2.134,1.094 2.317,1.027 2.579 C 0.982 2.752,1.002 2.943,1.081 3.095 C 1.140 3.209,1.303 3.366,1.428 3.428 C 1.530 3.478,1.609 3.480,4.020 3.487 L 6.507 3.494 6.507 4.207 C 6.507 4.898,6.509 4.924,6.570 5.053 C 6.705 5.343,6.987 5.510,7.300 5.488 C 7.523 5.472,7.665 5.402,7.808 5.240 C 8.009 5.012,8.000 5.123,8.000 2.760 C 8.000 0.426,8.004 0.481,7.830 0.278 C 7.634 0.049,7.292 -0.051,7.011 0.040 M10.062 2.026 C 9.816 2.084,9.606 2.294,9.530 2.556 C 9.425 2.915,9.644 3.335,9.999 3.453 C 10.108 3.489,10.391 3.493,12.295 3.487 C 14.393 3.480,14.470 3.478,14.572 3.428 C 14.895 3.268,15.060 2.918,14.973 2.579 C 14.906 2.317,14.741 2.134,14.496 2.049 C 14.370 2.005,14.198 2.002,12.253 2.004 C 11.095 2.005,10.109 2.015,10.062 2.026 M10.496 5.297 C 10.406 5.325,10.324 5.379,10.228 5.475 C 9.987 5.716,10.000 5.571,10.000 8.000 C 10.000 10.425,9.987 10.284,10.225 10.522 C 10.523 10.819,10.987 10.822,11.271 10.527 C 11.480 10.310,11.479 10.317,11.488 9.487 L 11.496 8.747 12.942 8.745 C 14.499 8.744,14.483 8.746,14.693 8.601 C 14.829 8.506,14.925 8.356,14.976 8.160 C 15.012 8.016,15.012 7.984,14.976 7.840 C 14.925 7.644,14.829 7.494,14.693 7.399 C 14.483 7.254,14.499 7.256,12.942 7.255 L 11.496 7.253 11.488 6.513 C 11.479 5.669,11.475 5.652,11.240 5.445 C 11.031 5.262,10.776 5.211,10.496 5.297 M1.512 7.292 C 1.258 7.383,1.095 7.567,1.024 7.840 C 0.988 7.985,0.988 8.016,1.026 8.164 C 1.081 8.382,1.204 8.547,1.387 8.650 L 1.533 8.733 4.693 8.741 C 6.973 8.747,7.884 8.740,7.963 8.719 C 8.224 8.647,8.458 8.365,8.497 8.077 C 8.533 7.804,8.369 7.497,8.107 7.349 L 7.960 7.267 4.787 7.261 C 2.162 7.256,1.596 7.262,1.512 7.292 M5.040 10.530 C 4.836 10.597,4.651 10.763,4.562 10.960 C 4.512 11.071,4.508 11.134,4.507 11.793 L 4.507 12.507 3.047 12.507 C 1.638 12.508,1.583 12.510,1.467 12.562 C 1.294 12.640,1.184 12.733,1.107 12.863 C 0.871 13.266,1.051 13.779,1.488 13.946 C 1.623 13.998,1.688 14.000,3.066 14.000 L 4.504 14.000 4.512 14.740 C 4.521 15.584,4.525 15.601,4.760 15.808 C 5.066 16.077,5.487 16.063,5.775 15.775 C 6.011 15.539,6.000 15.666,6.000 13.240 C 6.000 10.898,6.007 10.991,5.823 10.776 C 5.673 10.602,5.521 10.526,5.297 10.517 C 5.192 10.512,5.077 10.518,5.040 10.530 M7.984 12.550 C 7.745 12.635,7.541 12.900,7.504 13.176 C 7.467 13.449,7.631 13.756,7.893 13.904 L 8.040 13.987 11.205 13.994 C 14.333 14.001,14.371 14.000,14.511 13.947 C 14.751 13.855,14.908 13.677,14.973 13.423 C 15.062 13.077,14.909 12.752,14.581 12.588 L 14.418 12.507 11.256 12.509 C 8.556 12.511,8.077 12.517,7.984 12.550 " stroke="none" fill-rule="evenodd" fill="black"></path></svg>