<svg xmlns="http://www.w3.org/2000/svg" width="16" height="16" viewBox="0 0 16 16"><path d="M7.467 0.017 C 5.118 0.192,3.024 1.327,1.608 3.193 C 0.799 4.260,0.296 5.477,0.073 6.906 C -0.009 7.429,-0.009 8.571,0.073 9.094 C 0.415 11.288,1.476 13.089,3.195 14.393 C 4.257 15.199,5.481 15.705,6.906 15.927 C 7.429 16.009,8.571 16.009,9.094 15.927 C 11.038 15.624,12.690 14.748,13.930 13.362 C 15.030 12.133,15.665 10.775,15.927 9.094 C 16.009 8.571,16.009 7.429,15.927 6.906 C 15.705 5.481,15.199 4.257,14.393 3.195 C 13.070 1.452,11.180 0.355,9.000 0.066 C 8.688 0.025,7.760 -0.005,7.467 0.017 M8.853 1.563 C 9.298 1.621,9.615 1.694,10.057 1.841 C 11.997 2.486,13.514 4.002,14.158 5.941 C 14.397 6.658,14.484 7.211,14.484 8.000 C 14.484 8.789,14.397 9.342,14.158 10.059 C 13.824 11.066,13.259 11.955,12.483 12.699 C 11.498 13.643,10.254 14.243,8.867 14.444 C 8.645 14.476,8.379 14.490,8.000 14.490 C 7.621 14.490,7.355 14.476,7.133 14.444 C 5.755 14.244,4.507 13.645,3.532 12.714 C 2.456 11.686,1.790 10.400,1.572 8.928 C 1.493 8.394,1.493 7.606,1.572 7.072 C 1.737 5.958,2.152 4.968,2.835 4.056 C 3.081 3.727,3.727 3.081,4.056 2.835 C 5.460 1.783,7.131 1.340,8.853 1.563 M4.767 6.027 C 4.481 6.099,4.228 6.310,4.096 6.587 C 4.022 6.741,4.013 6.786,4.013 7.000 C 4.013 7.207,4.024 7.262,4.089 7.403 C 4.184 7.609,4.390 7.814,4.600 7.912 C 4.738 7.976,4.793 7.987,5.000 7.987 C 5.207 7.987,5.262 7.976,5.403 7.911 C 5.609 7.816,5.814 7.610,5.912 7.400 C 5.976 7.262,5.987 7.207,5.987 7.000 C 5.987 6.793,5.976 6.738,5.911 6.597 C 5.817 6.392,5.609 6.185,5.406 6.093 C 5.235 6.014,4.938 5.984,4.767 6.027 M10.767 6.027 C 10.481 6.099,10.228 6.310,10.096 6.587 C 10.022 6.741,10.013 6.786,10.013 7.000 C 10.013 7.207,10.024 7.262,10.089 7.403 C 10.184 7.609,10.390 7.814,10.600 7.912 C 10.738 7.976,10.793 7.987,11.000 7.987 C 11.207 7.987,11.262 7.976,11.403 7.911 C 11.609 7.816,11.814 7.610,11.912 7.400 C 11.976 7.262,11.987 7.207,11.987 7.000 C 11.987 6.793,11.976 6.738,11.911 6.597 C 11.817 6.392,11.609 6.185,11.406 6.093 C 11.235 6.014,10.938 5.984,10.767 6.027 M5.609 9.521 C 5.250 9.593,5.003 9.895,5.005 10.260 C 5.007 10.490,5.097 10.663,5.354 10.927 C 5.844 11.431,6.459 11.763,7.208 11.925 C 7.577 12.005,8.400 12.012,8.747 11.937 C 9.504 11.773,10.115 11.456,10.602 10.973 C 10.905 10.673,10.998 10.501,10.997 10.242 C 10.995 10.017,10.919 9.854,10.741 9.693 C 10.514 9.489,10.217 9.443,9.940 9.569 C 9.877 9.598,9.714 9.732,9.570 9.874 C 9.354 10.087,9.273 10.148,9.063 10.251 C 8.681 10.439,8.463 10.488,8.000 10.488 C 7.537 10.488,7.319 10.439,6.936 10.251 C 6.729 10.149,6.639 10.082,6.414 9.866 C 6.264 9.722,6.100 9.587,6.050 9.566 C 5.924 9.513,5.741 9.494,5.609 9.521 " stroke="none" fill-rule="evenodd" fill="black"></path></svg>