<svg xmlns="http://www.w3.org/2000/svg" width="16" height="16" viewBox="0 0 16 16"><path d="M12.600 2.557 C 12.556 2.585,11.846 3.284,11.022 4.110 C 9.983 5.152,9.518 5.637,9.505 5.689 C 9.480 5.790,9.552 5.940,9.642 5.974 C 9.682 5.989,10.174 6.000,10.855 6.000 L 12.000 6.000 12.000 9.435 C 12.000 13.275,11.986 13.006,12.192 13.240 C 12.335 13.402,12.477 13.472,12.700 13.488 C 13.013 13.510,13.295 13.343,13.430 13.053 L 13.493 12.920 13.493 9.460 L 13.493 6.000 14.669 6.000 L 15.844 6.000 15.925 5.919 C 15.997 5.847,16.005 5.824,15.992 5.727 C 15.978 5.623,15.894 5.533,14.421 4.062 C 12.960 2.601,12.860 2.507,12.773 2.507 C 12.722 2.507,12.644 2.530,12.600 2.557 M0.559 3.529 C 0.123 3.649,-0.106 4.094,0.054 4.512 C 0.145 4.749,0.322 4.907,0.573 4.972 C 0.807 5.033,3.193 5.033,3.427 4.972 C 3.790 4.878,4.021 4.561,3.993 4.196 C 3.971 3.912,3.800 3.676,3.529 3.553 C 3.437 3.511,3.293 3.506,2.053 3.501 C 1.024 3.497,0.650 3.504,0.559 3.529 M0.559 7.529 C 0.123 7.648,-0.106 8.094,0.054 8.512 C 0.145 8.749,0.322 8.907,0.573 8.972 C 0.710 9.008,1.042 9.013,3.000 9.013 C 4.958 9.013,5.290 9.008,5.427 8.972 C 5.790 8.878,6.021 8.561,5.993 8.196 C 5.971 7.912,5.800 7.676,5.529 7.553 C 5.435 7.510,5.242 7.506,3.053 7.501 C 1.234 7.497,0.652 7.504,0.559 7.529 M0.559 11.529 C 0.123 11.648,-0.106 12.094,0.054 12.512 C 0.145 12.751,0.324 12.908,0.578 12.973 C 0.720 13.010,1.183 13.014,4.576 13.007 L 8.413 13.000 8.565 12.926 C 9.137 12.645,9.142 11.880,8.573 11.578 L 8.440 11.507 4.560 11.502 C 1.548 11.498,0.653 11.504,0.559 11.529 " stroke="none" fill-rule="evenodd" fill="black"></path></svg>