<svg xmlns="http://www.w3.org/2000/svg" width="16" height="16" viewBox="0 0 16 16"><path d="M12.453 3.067 C 12.280 3.148,12.116 3.320,12.053 3.487 C 12.001 3.626,12.000 3.699,12.000 6.814 L 12.000 10.000 10.852 10.000 C 9.592 10.000,9.586 10.001,9.521 10.158 C 9.502 10.204,9.495 10.271,9.505 10.313 C 9.517 10.363,10.023 10.887,11.075 11.940 L 12.628 13.493 12.747 13.493 L 12.866 13.493 14.421 11.938 C 15.894 10.467,15.978 10.377,15.992 10.273 C 16.005 10.176,15.997 10.153,15.925 10.081 L 15.844 10.000 14.669 10.000 L 13.494 10.000 13.487 6.767 C 13.480 3.613,13.479 3.531,13.428 3.428 C 13.360 3.292,13.214 3.146,13.079 3.080 C 12.919 3.002,12.607 2.996,12.453 3.067 M0.559 3.529 C 0.123 3.648,-0.106 4.094,0.054 4.512 C 0.145 4.751,0.324 4.908,0.578 4.973 C 0.720 5.010,1.183 5.014,4.576 5.007 L 8.413 5.000 8.565 4.926 C 9.137 4.645,9.142 3.880,8.573 3.578 L 8.440 3.507 4.560 3.502 C 1.548 3.498,0.653 3.504,0.559 3.529 M0.559 7.529 C 0.123 7.648,-0.106 8.094,0.054 8.512 C 0.145 8.749,0.322 8.907,0.573 8.972 C 0.710 9.008,1.042 9.013,3.000 9.013 C 4.958 9.013,5.290 9.008,5.427 8.972 C 5.790 8.878,6.021 8.561,5.993 8.196 C 5.971 7.912,5.800 7.676,5.529 7.553 C 5.435 7.510,5.242 7.506,3.053 7.501 C 1.234 7.497,0.652 7.504,0.559 7.529 M0.559 11.529 C 0.123 11.649,-0.106 12.094,0.054 12.512 C 0.145 12.749,0.322 12.907,0.573 12.972 C 0.807 13.033,3.193 13.033,3.427 12.972 C 3.790 12.878,4.021 12.561,3.993 12.196 C 3.971 11.912,3.800 11.676,3.529 11.553 C 3.437 11.511,3.293 11.506,2.053 11.501 C 1.024 11.497,0.650 11.504,0.559 11.529 " stroke="none" fill-rule="evenodd" fill="black"></path></svg>