<svg xmlns="http://www.w3.org/2000/svg" width="24" height="24" viewBox="0 0 24 24"><path d="M17.460 6.076 C 17.257 6.170,17.089 6.348,17.039 6.523 C 17.015 6.609,17.000 8.471,17.000 11.538 L 17.000 16.416 15.847 15.269 C 15.107 14.533,14.641 14.100,14.548 14.061 C 14.239 13.932,13.834 14.023,13.644 14.264 C 13.521 14.421,13.466 14.644,13.497 14.857 C 13.536 15.116,13.639 15.229,15.626 17.206 C 17.433 19.004,17.429 19.001,17.780 18.999 C 18.054 18.997,18.200 18.868,20.086 16.974 C 21.891 15.161,21.953 15.094,21.992 14.904 C 22.015 14.796,22.027 14.688,22.020 14.664 C 22.013 14.640,21.996 14.571,21.983 14.511 C 21.954 14.377,21.748 14.137,21.596 14.058 C 21.447 13.981,21.108 13.984,20.948 14.064 C 20.878 14.099,20.303 14.643,19.670 15.274 L 18.520 16.419 18.519 11.600 C 18.518 8.432,18.504 6.719,18.477 6.601 C 18.367 6.126,17.887 5.878,17.460 6.076 M2.394 6.601 C 2.110 6.751,1.968 7.046,2.018 7.380 C 2.053 7.616,2.296 7.898,2.515 7.959 C 2.714 8.015,12.286 8.015,12.485 7.959 C 12.704 7.898,12.947 7.616,12.982 7.380 C 13.033 7.041,12.888 6.747,12.598 6.599 C 12.446 6.522,12.343 6.520,7.492 6.522 C 2.676 6.523,2.536 6.526,2.394 6.601 M2.394 11.601 C 2.110 11.751,1.968 12.046,2.018 12.380 C 2.053 12.616,2.296 12.898,2.515 12.959 C 2.606 12.985,3.710 13.000,5.500 13.000 C 7.290 13.000,8.394 12.985,8.485 12.959 C 8.704 12.898,8.947 12.616,8.982 12.380 C 9.033 12.041,8.888 11.747,8.598 11.599 C 8.448 11.522,8.352 11.520,5.492 11.522 C 2.653 11.523,2.534 11.526,2.394 11.601 M2.394 16.601 C 2.110 16.751,1.968 17.046,2.018 17.380 C 2.053 17.616,2.296 17.898,2.515 17.959 C 2.603 17.984,3.383 18.000,4.500 18.000 C 5.617 18.000,6.397 17.984,6.485 17.959 C 6.704 17.898,6.947 17.616,6.982 17.380 C 7.033 17.041,6.888 16.747,6.598 16.599 C 6.450 16.523,6.357 16.520,4.492 16.522 C 2.641 16.523,2.532 16.528,2.394 16.601 " stroke="none" fill-rule="evenodd" fill="black"></path></svg>