<svg xmlns="http://www.w3.org/2000/svg" width="24" height="24" viewBox="0 0 24 24"><path d="M17.440 5.083 C 17.306 5.144,16.852 5.571,15.666 6.752 C 13.689 8.721,13.535 8.891,13.498 9.141 C 13.407 9.744,13.975 10.179,14.542 9.942 C 14.648 9.897,15.061 9.515,15.849 8.730 L 17.000 7.583 17.000 12.462 C 17.000 15.624,17.015 17.391,17.041 17.485 C 17.102 17.704,17.384 17.947,17.620 17.982 C 18.026 18.043,18.392 17.795,18.476 17.400 C 18.507 17.259,18.520 15.722,18.520 12.390 L 18.520 7.583 19.690 8.746 C 20.745 9.795,20.878 9.913,21.040 9.952 C 21.596 10.088,22.069 9.620,21.951 9.051 C 21.913 8.868,21.836 8.784,20.066 7.006 C 18.825 5.759,18.168 5.127,18.060 5.076 C 17.853 4.980,17.664 4.982,17.440 5.083 M2.460 6.075 C 1.795 6.376,1.890 7.324,2.600 7.476 C 2.878 7.536,6.122 7.536,6.400 7.476 C 6.942 7.360,7.182 6.695,6.828 6.292 C 6.569 5.997,6.606 6.002,4.500 6.002 C 2.767 6.002,2.607 6.007,2.460 6.075 M2.460 11.075 C 1.795 11.376,1.890 12.324,2.600 12.476 C 2.736 12.505,3.697 12.520,5.500 12.520 C 7.303 12.520,8.264 12.505,8.400 12.476 C 8.942 12.360,9.182 11.695,8.828 11.292 C 8.560 10.987,8.726 11.002,5.500 11.002 C 2.800 11.002,2.610 11.006,2.460 11.075 M2.460 16.075 C 1.795 16.376,1.890 17.324,2.600 17.476 C 2.886 17.538,12.114 17.538,12.400 17.476 C 13.110 17.324,13.205 16.376,12.540 16.075 C 12.388 16.005,12.135 16.002,7.500 16.002 C 2.865 16.002,2.612 16.005,2.460 16.075 " stroke="none" fill-rule="evenodd" fill="black"></path></svg>