<svg xmlns="http://www.w3.org/2000/svg" width="16" height="16" viewBox="0 0 16 16"><path d="M5.442 4.029 C 4.745 4.168,4.223 4.663,4.052 5.348 C 4.000 5.558,3.999 5.634,4.006 8.068 L 4.013 10.573 4.087 10.790 C 4.267 11.320,4.680 11.733,5.211 11.914 L 5.427 11.987 8.000 11.987 L 10.573 11.987 10.790 11.913 C 11.036 11.830,11.347 11.636,11.511 11.463 C 11.678 11.287,11.832 11.029,11.914 10.789 L 11.987 10.573 11.987 8.000 L 11.987 5.427 11.913 5.210 C 11.733 4.680,11.320 4.267,10.789 4.086 L 10.573 4.013 8.067 4.009 C 6.688 4.007,5.507 4.016,5.442 4.029 " stroke="none" fill-rule="evenodd" fill="black"></path></svg>