<svg xmlns="http://www.w3.org/2000/svg" width="16" height="16" viewBox="0 0 16 16"><path d="M5.442 4.029 C 4.799 4.157,4.295 4.596,4.087 5.210 L 4.013 5.427 4.006 7.932 C 3.999 10.366,4.000 10.442,4.052 10.652 C 4.138 10.995,4.273 11.234,4.519 11.481 C 4.766 11.727,5.005 11.862,5.348 11.948 C 5.558 12.000,5.634 12.001,8.068 11.994 L 10.573 11.987 10.790 11.913 C 11.036 11.830,11.347 11.636,11.511 11.463 C 11.678 11.287,11.832 11.029,11.914 10.789 L 11.987 10.573 11.987 8.000 L 11.987 5.427 11.912 5.208 C 11.734 4.682,11.317 4.266,10.789 4.086 L 10.573 4.013 8.067 4.009 C 6.688 4.007,5.507 4.016,5.442 4.029 M10.419 5.581 L 10.493 5.655 10.493 8.000 L 10.493 10.345 10.419 10.419 L 10.345 10.493 8.000 10.493 L 5.655 10.493 5.581 10.419 L 5.507 10.345 5.507 8.002 C 5.507 5.696,5.508 5.658,5.560 5.600 C 5.589 5.567,5.637 5.530,5.667 5.518 C 5.696 5.506,6.761 5.499,8.033 5.501 L 10.345 5.507 10.419 5.581 " stroke="none" fill-rule="evenodd" fill="black"></path></svg>