<svg xmlns="http://www.w3.org/2000/svg" width="24" height="24" viewBox="0 0 24 24"><path d="M7.340 6.056 C 6.695 6.217,6.176 6.747,6.039 7.387 C 6.012 7.515,6.002 9.115,6.009 12.120 L 6.020 16.660 6.113 16.878 C 6.307 17.336,6.665 17.695,7.120 17.887 L 7.340 17.980 12.000 17.980 L 16.660 17.980 16.880 17.887 C 17.335 17.695,17.693 17.336,17.887 16.878 L 17.980 16.660 17.991 12.120 C 17.998 9.115,17.988 7.515,17.961 7.387 C 17.821 6.731,17.271 6.186,16.608 6.045 C 16.291 5.978,7.614 5.988,7.340 6.056 " stroke="none" fill-rule="evenodd" fill="black"></path></svg>