<svg xmlns="http://www.w3.org/2000/svg" width="16" height="16" viewBox="0 0 16 16"><path d="M4.062 0.024 C 3.920 0.061,3.735 0.185,3.652 0.299 C 3.524 0.476,3.493 0.627,3.493 1.083 L 3.493 1.490 3.280 1.603 C 2.828 1.844,2.258 2.324,1.866 2.794 C 1.185 3.610,0.802 4.496,0.756 5.363 L 0.739 5.673 0.851 5.876 C 1.194 6.497,1.725 6.855,2.520 7.002 C 2.813 7.056,3.395 7.043,3.720 6.974 C 4.162 6.881,4.611 6.690,4.765 6.529 C 5.109 6.171,5.001 5.571,4.554 5.348 C 4.347 5.246,4.121 5.252,3.834 5.370 C 3.507 5.504,3.356 5.533,3.013 5.531 C 2.681 5.529,2.474 5.474,2.327 5.348 L 2.256 5.287 2.315 5.051 C 2.496 4.316,3.152 3.451,3.875 2.992 L 4.004 2.911 4.248 3.195 C 4.824 3.870,5.596 4.603,6.693 5.521 C 8.196 6.778,8.695 7.339,9.220 8.364 C 9.478 8.867,9.610 8.983,9.950 9.007 C 10.197 9.025,10.366 8.965,10.532 8.799 C 10.740 8.591,10.808 8.281,10.707 8.001 C 10.604 7.710,10.182 6.979,9.897 6.594 L 9.744 6.387 9.631 5.867 C 9.422 4.902,9.369 4.444,9.415 3.999 C 9.579 2.403,11.053 1.394,12.627 1.798 C 13.524 2.029,14.142 2.611,14.387 3.456 C 14.467 3.733,14.513 4.196,14.481 4.416 C 14.409 4.924,14.024 5.354,13.544 5.465 C 13.342 5.512,13.058 5.499,12.888 5.437 C 12.605 5.333,12.351 5.003,12.230 4.582 C 12.175 4.391,12.049 4.224,11.881 4.121 C 11.701 4.009,11.410 3.992,11.204 4.081 C 10.949 4.191,10.747 4.490,10.747 4.759 C 10.747 4.905,10.853 5.233,10.997 5.533 C 11.213 5.982,11.503 6.341,11.818 6.552 C 11.904 6.609,11.921 6.640,11.961 6.809 C 11.986 6.914,12.113 7.373,12.243 7.829 C 12.373 8.285,12.521 8.831,12.571 9.042 C 12.897 10.400,12.810 11.400,12.300 12.150 C 11.932 12.693,11.304 13.084,10.453 13.303 C 9.803 13.470,9.746 13.474,7.886 13.486 L 6.185 13.497 6.057 13.403 C 5.856 13.255,5.532 12.900,5.366 12.646 C 5.199 12.389,5.045 12.051,4.974 11.787 C 4.908 11.538,4.891 10.972,4.941 10.733 C 5.039 10.276,5.274 9.847,5.687 9.377 C 5.930 9.100,6.000 8.962,6.000 8.760 C 6.000 8.258,5.519 7.896,5.038 8.036 C 4.937 8.065,4.841 8.123,4.720 8.227 C 4.519 8.400,4.152 8.588,3.867 8.665 C 3.308 8.815,2.762 8.789,2.107 8.581 C 1.903 8.516,1.824 8.503,1.693 8.513 C 1.202 8.553,0.903 8.992,1.039 9.476 C 1.097 9.684,1.289 9.872,1.542 9.970 C 2.020 10.154,2.535 10.247,3.102 10.251 L 3.498 10.253 3.484 10.347 C 3.476 10.398,3.455 10.518,3.437 10.613 C 3.389 10.870,3.396 11.537,3.451 11.840 C 3.534 12.303,3.758 12.900,3.995 13.289 C 4.057 13.390,4.107 13.476,4.107 13.481 C 4.107 13.486,3.762 13.493,3.340 13.498 L 2.573 13.507 2.421 13.581 C 2.175 13.702,2.029 13.921,2.007 14.199 C 1.979 14.561,2.212 14.878,2.573 14.972 C 2.711 15.008,3.118 15.013,5.772 15.013 C 8.791 15.013,9.408 14.999,10.000 14.919 C 11.821 14.671,13.165 13.833,13.807 12.544 C 14.353 11.449,14.411 10.136,13.987 8.493 C 13.949 8.347,13.839 7.953,13.743 7.618 C 13.647 7.283,13.573 7.005,13.578 6.999 C 13.584 6.994,13.683 6.970,13.798 6.946 C 15.084 6.681,16.000 5.543,16.000 4.211 C 16.000 2.248,14.739 0.716,12.773 0.289 C 12.532 0.237,12.416 0.229,11.933 0.229 C 11.454 0.229,11.334 0.237,11.102 0.288 C 10.346 0.452,9.693 0.797,9.153 1.317 C 8.345 2.095,7.949 2.997,7.897 4.180 L 7.880 4.559 7.493 4.236 C 6.530 3.429,5.881 2.803,5.342 2.163 L 5.018 1.779 5.006 1.189 C 4.998 0.794,4.982 0.566,4.958 0.497 C 4.912 0.363,4.715 0.146,4.577 0.075 C 4.458 0.014,4.200 -0.011,4.062 0.024 " stroke="none" fill-rule="evenodd" fill="black"></path></svg>