<svg xmlns="http://www.w3.org/2000/svg" width="24" height="24" viewBox="0 0 24 24"><path d="M17.140 1.962 C 15.454 2.105,13.883 2.979,12.958 4.289 C 12.369 5.123,11.837 6.550,11.717 7.615 C 11.683 7.916,11.656 8.030,11.624 8.006 C 11.600 7.987,11.274 7.732,10.900 7.440 C 9.404 6.271,8.647 5.539,7.856 4.498 L 7.520 4.055 7.519 3.418 C 7.518 2.702,7.482 2.482,7.332 2.286 C 7.214 2.131,6.959 2.002,6.769 2.001 C 6.474 1.999,6.113 2.255,6.040 2.518 C 6.018 2.596,6.000 2.896,6.000 3.185 L 6.000 3.711 5.590 3.935 C 4.383 4.596,3.228 5.789,2.580 7.044 C 2.242 7.698,2.000 8.596,2.000 9.193 C 2.000 9.428,2.017 9.484,2.161 9.727 C 2.793 10.790,4.032 11.375,5.516 11.309 C 6.080 11.283,6.511 11.188,6.920 10.997 C 7.233 10.850,7.347 10.751,7.444 10.540 C 7.694 9.999,7.200 9.380,6.626 9.514 C 6.535 9.536,6.350 9.600,6.214 9.656 C 5.429 9.986,4.311 9.824,3.722 9.294 C 3.488 9.084,3.483 9.055,3.599 8.574 C 3.880 7.401,5.054 5.937,6.231 5.291 L 6.466 5.162 6.787 5.571 C 7.550 6.543,8.330 7.308,9.540 8.272 C 9.914 8.570,10.481 9.023,10.799 9.277 C 12.554 10.680,13.357 11.821,13.982 13.798 C 14.097 14.163,14.228 14.340,14.458 14.445 C 14.889 14.640,15.359 14.399,15.479 13.920 C 15.518 13.762,15.511 13.696,15.420 13.384 C 15.138 12.414,14.642 11.346,14.087 10.517 C 13.657 9.873,13.436 9.445,13.312 9.018 C 13.193 8.604,13.181 7.701,13.289 7.255 C 13.462 6.545,13.925 5.488,14.254 5.054 C 15.304 3.669,17.304 3.091,19.048 3.668 C 19.428 3.793,19.906 4.071,20.240 4.360 C 20.738 4.791,21.154 5.494,21.345 6.223 C 21.483 6.753,21.522 7.678,21.423 8.097 C 21.243 8.861,20.720 9.458,20.052 9.661 C 19.947 9.693,19.707 9.719,19.520 9.719 C 18.959 9.718,18.501 9.516,18.089 9.087 C 17.831 8.818,17.630 8.493,17.500 8.137 C 17.333 7.677,17.103 7.502,16.699 7.527 C 16.398 7.546,16.192 7.682,16.077 7.935 C 15.970 8.170,15.984 8.371,16.134 8.764 C 16.516 9.768,17.336 10.619,18.276 10.989 C 18.421 11.046,18.562 11.109,18.588 11.130 C 18.667 11.190,19.225 12.346,19.414 12.840 C 19.963 14.279,20.152 15.601,19.978 16.795 C 19.617 19.268,18.388 20.588,15.900 21.173 C 14.804 21.430,13.971 21.494,11.660 21.497 C 9.775 21.500,9.735 21.498,9.453 21.410 C 8.576 21.134,7.833 20.263,7.419 19.024 C 7.212 18.406,7.146 17.908,7.171 17.141 C 7.196 16.338,7.301 15.896,7.616 15.260 C 7.874 14.739,8.113 14.414,8.561 13.980 C 8.909 13.643,9.000 13.494,9.000 13.260 C 9.000 12.838,8.673 12.520,8.240 12.520 C 8.006 12.520,7.894 12.570,7.624 12.792 C 7.363 13.009,6.978 13.189,6.522 13.310 C 6.194 13.397,6.053 13.411,5.520 13.413 C 4.836 13.414,4.424 13.347,3.728 13.121 C 3.298 12.981,3.162 12.973,2.935 13.077 C 2.559 13.248,2.395 13.737,2.592 14.105 C 2.698 14.302,2.919 14.437,3.370 14.579 C 4.107 14.811,4.536 14.882,5.350 14.908 C 5.752 14.920,6.080 14.936,6.080 14.942 C 6.080 14.948,6.026 15.118,5.960 15.320 C 5.718 16.060,5.665 16.419,5.663 17.320 C 5.661 18.020,5.674 18.206,5.752 18.593 C 5.940 19.526,6.290 20.381,6.773 21.092 C 6.920 21.308,7.040 21.493,7.040 21.502 C 7.040 21.512,6.481 21.520,5.798 21.520 C 4.642 21.520,4.546 21.525,4.402 21.599 C 4.112 21.747,3.967 22.041,4.018 22.380 C 4.054 22.623,4.297 22.900,4.527 22.962 C 4.636 22.991,6.149 22.999,9.393 22.988 C 14.429 22.971,14.447 22.970,15.639 22.759 C 18.194 22.306,19.892 21.175,20.783 19.332 C 21.239 18.390,21.560 16.974,21.560 15.906 C 21.560 14.711,21.188 13.125,20.583 11.740 C 20.458 11.454,20.352 11.206,20.348 11.189 C 20.344 11.172,20.473 11.113,20.636 11.057 C 21.063 10.912,21.446 10.673,21.807 10.328 C 22.324 9.835,22.668 9.238,22.871 8.485 C 22.963 8.142,22.975 8.024,22.976 7.400 C 22.978 6.594,22.898 6.091,22.656 5.391 C 21.978 3.429,20.322 2.161,18.180 1.961 C 17.703 1.917,17.674 1.917,17.140 1.962 " stroke="none" fill-rule="evenodd" fill="black"></path></svg>