<svg xmlns="http://www.w3.org/2000/svg" width="16" height="16" viewBox="0 0 16 16"><path d="M7.587 0.212 C 7.484 0.238,7.356 0.279,7.303 0.302 C 7.162 0.364,2.260 3.208,2.049 3.349 C 1.402 3.786,1.312 4.702,1.864 5.249 C 1.993 5.378,2.398 5.621,4.601 6.897 C 6.023 7.721,7.226 8.414,7.275 8.439 C 7.667 8.636,8.350 8.629,8.751 8.424 C 8.998 8.299,13.887 5.454,14.010 5.365 C 14.171 5.248,14.351 5.008,14.429 4.806 C 14.506 4.606,14.515 4.217,14.447 3.997 C 14.383 3.791,14.208 3.538,14.043 3.413 C 13.879 3.289,8.854 0.371,8.673 0.294 C 8.349 0.157,7.925 0.125,7.587 0.212 M10.391 3.003 C 11.650 3.732,12.694 4.342,12.711 4.358 C 12.734 4.379,12.131 4.741,10.418 5.733 C 8.556 6.812,8.075 7.080,8.000 7.080 C 7.925 7.080,7.444 6.812,5.582 5.733 C 3.867 4.740,3.266 4.379,3.289 4.358 C 3.319 4.330,7.677 1.799,7.867 1.700 C 7.921 1.671,7.989 1.656,8.031 1.664 C 8.070 1.672,9.132 2.274,10.391 3.003 M2.031 7.453 C 1.698 7.557,1.457 7.914,1.501 8.240 C 1.523 8.404,1.637 8.623,1.750 8.718 C 1.855 8.806,7.020 11.813,7.272 11.932 C 7.715 12.143,8.285 12.143,8.728 11.932 C 8.979 11.813,14.144 8.806,14.250 8.718 C 14.439 8.560,14.539 8.248,14.480 8.002 C 14.387 7.611,13.992 7.354,13.610 7.434 C 13.496 7.458,12.892 7.797,10.774 9.025 C 8.800 10.170,8.060 10.587,8.000 10.587 C 7.940 10.587,7.206 10.173,5.246 9.036 C 3.776 8.183,2.520 7.469,2.456 7.449 C 2.311 7.405,2.182 7.406,2.031 7.453 M2.120 10.932 C 1.784 10.989,1.493 11.330,1.493 11.668 C 1.493 11.715,1.514 11.817,1.539 11.894 C 1.632 12.182,1.588 12.153,4.507 13.845 C 5.981 14.699,7.256 15.426,7.342 15.461 C 7.782 15.639,8.219 15.639,8.658 15.460 C 8.744 15.426,10.019 14.699,11.493 13.845 C 14.412 12.153,14.368 12.182,14.461 11.894 C 14.517 11.722,14.518 11.622,14.467 11.449 C 14.416 11.278,14.248 11.085,14.072 10.996 C 13.899 10.908,13.641 10.901,13.466 10.979 C 13.400 11.008,12.183 11.707,10.760 12.533 C 9.337 13.359,8.134 14.051,8.087 14.071 C 8.013 14.102,7.987 14.102,7.913 14.071 C 7.866 14.051,6.663 13.359,5.240 12.533 C 3.817 11.708,2.605 11.011,2.547 10.986 C 2.414 10.928,2.259 10.909,2.120 10.932 " stroke="none" fill-rule="evenodd" fill="black"></path></svg>