<svg xmlns="http://www.w3.org/2000/svg" width="24" height="24" viewBox="0 0 24 24"><path d="M11.580 1.236 C 11.514 1.253,11.392 1.297,11.310 1.332 C 11.133 1.408,2.682 6.760,2.487 6.920 C 2.073 7.261,1.859 7.773,1.887 8.359 C 1.902 8.668,1.923 8.751,2.054 9.015 C 2.162 9.235,2.265 9.372,2.431 9.519 C 2.715 9.770,11.049 15.058,11.380 15.197 C 11.725 15.341,12.275 15.341,12.620 15.197 C 12.951 15.058,21.285 9.770,21.569 9.519 C 21.906 9.221,22.083 8.844,22.110 8.367 C 22.127 8.075,22.115 7.957,22.045 7.729 C 21.955 7.432,21.742 7.109,21.513 6.920 C 21.297 6.743,12.864 1.408,12.653 1.315 C 12.442 1.222,11.804 1.175,11.580 1.236 M16.329 5.383 C 18.867 6.991,20.575 8.097,20.606 8.153 C 20.648 8.230,20.647 8.264,20.598 8.348 C 20.519 8.486,12.138 13.800,12.000 13.800 C 11.862 13.800,3.481 8.486,3.402 8.348 C 3.353 8.264,3.352 8.230,3.394 8.153 C 3.468 8.019,11.915 2.671,12.022 2.691 C 12.067 2.699,14.006 3.911,16.329 5.383 M2.140 12.075 C 1.776 12.301,1.660 12.689,1.843 13.067 C 1.945 13.278,1.494 12.979,6.860 16.382 C 9.214 17.875,11.248 19.141,11.380 19.197 C 11.579 19.280,11.684 19.297,12.000 19.297 C 12.316 19.297,12.421 19.280,12.620 19.197 C 12.752 19.141,14.786 17.875,17.140 16.382 C 22.506 12.979,22.055 13.278,22.157 13.067 C 22.342 12.684,22.203 12.250,21.832 12.056 C 21.701 11.988,21.308 11.982,21.187 12.047 C 21.139 12.072,19.084 13.373,16.620 14.937 C 12.886 17.306,12.117 17.780,12.000 17.780 C 11.883 17.780,11.114 17.306,7.380 14.937 C 4.916 13.373,2.861 12.072,2.813 12.047 C 2.673 11.972,2.279 11.989,2.140 12.075 M2.140 16.075 C 1.776 16.301,1.660 16.689,1.843 17.067 C 1.945 17.278,1.494 16.979,6.860 20.382 C 9.214 21.875,11.248 23.141,11.380 23.197 C 11.579 23.280,11.684 23.297,12.000 23.297 C 12.316 23.297,12.421 23.280,12.620 23.197 C 12.752 23.141,14.786 21.875,17.140 20.382 C 22.506 16.979,22.055 17.278,22.157 17.067 C 22.342 16.684,22.203 16.250,21.832 16.056 C 21.701 15.988,21.308 15.982,21.187 16.047 C 21.139 16.072,19.084 17.373,16.620 18.937 C 12.886 21.306,12.117 21.780,12.000 21.780 C 11.883 21.780,11.114 21.306,7.380 18.937 C 4.916 17.373,2.861 16.072,2.813 16.047 C 2.673 15.972,2.279 15.989,2.140 16.075 " stroke="none" fill-rule="evenodd" fill="black"></path></svg>