<svg xmlns="http://www.w3.org/2000/svg" width="24" height="24" viewBox="0 0 24 24"><path d="M11.807 0.279 C 11.471 0.360,11.492 0.325,9.834 3.683 C 8.982 5.409,8.280 6.831,8.273 6.845 C 8.266 6.859,6.739 7.090,4.880 7.359 C 3.021 7.627,1.431 7.865,1.348 7.886 C 1.152 7.935,0.898 8.165,0.838 8.347 C 0.770 8.552,0.810 8.857,0.924 9.012 C 0.977 9.083,1.767 9.869,2.680 10.759 C 3.593 11.648,4.705 12.734,5.150 13.172 L 5.960 13.968 5.378 17.354 C 4.959 19.789,4.799 20.804,4.810 20.966 C 4.828 21.239,4.960 21.438,5.209 21.565 C 5.560 21.743,5.473 21.780,8.864 19.999 C 10.555 19.110,11.966 18.383,12.000 18.383 C 12.034 18.383,13.445 19.110,15.136 19.999 C 18.527 21.780,18.440 21.743,18.791 21.565 C 19.040 21.438,19.172 21.239,19.190 20.966 C 19.201 20.804,19.041 19.789,18.623 17.356 L 18.040 13.971 18.850 13.173 C 19.296 12.734,20.407 11.648,21.320 10.759 C 22.233 9.869,23.024 9.083,23.077 9.010 C 23.142 8.922,23.179 8.807,23.192 8.662 C 23.223 8.277,22.994 7.967,22.612 7.877 C 22.528 7.857,20.948 7.622,19.100 7.355 C 17.252 7.089,15.737 6.868,15.734 6.865 C 15.730 6.862,15.031 5.447,14.181 3.720 C 13.330 1.993,12.605 0.548,12.570 0.509 C 12.393 0.313,12.068 0.215,11.807 0.279 " stroke="none" fill-rule="evenodd" fill="black"></path></svg>