<svg xmlns="http://www.w3.org/2000/svg" width="24" height="24" viewBox="0 0 24 24"><path d="M11.807 0.279 C 11.472 0.360,11.493 0.325,9.834 3.683 C 8.982 5.408,8.279 6.831,8.273 6.845 C 8.266 6.859,6.748 7.088,4.900 7.355 C 3.052 7.622,1.472 7.857,1.388 7.877 C 1.006 7.967,0.777 8.277,0.808 8.662 C 0.821 8.807,0.858 8.922,0.923 9.010 C 0.976 9.083,1.776 9.878,2.700 10.778 C 3.624 11.679,4.735 12.765,5.170 13.193 L 5.960 13.972 5.377 17.356 C 4.955 19.807,4.798 20.802,4.809 20.966 C 4.828 21.239,4.961 21.438,5.209 21.565 C 5.559 21.743,5.472 21.780,8.863 19.999 C 10.554 19.110,11.965 18.383,12.000 18.383 C 12.034 18.383,13.445 19.110,15.136 19.999 C 18.527 21.780,18.440 21.743,18.791 21.565 C 19.039 21.438,19.172 21.239,19.190 20.966 C 19.201 20.803,19.043 19.798,18.623 17.356 L 18.040 13.972 18.850 13.173 C 19.296 12.734,20.407 11.648,21.320 10.759 C 22.233 9.869,23.023 9.083,23.076 9.012 C 23.190 8.857,23.230 8.552,23.162 8.347 C 23.102 8.165,22.848 7.935,22.652 7.886 C 22.569 7.865,20.979 7.627,19.120 7.359 C 17.261 7.090,15.737 6.868,15.734 6.865 C 15.731 6.862,15.032 5.447,14.181 3.720 C 13.330 1.993,12.605 0.548,12.570 0.509 C 12.393 0.313,12.068 0.215,11.807 0.279 M14.688 8.068 C 14.733 8.116,14.830 8.184,14.903 8.219 C 14.983 8.257,16.202 8.452,17.926 8.702 C 19.515 8.933,20.820 9.126,20.825 9.132 C 20.830 9.137,19.891 10.059,18.737 11.181 C 17.316 12.562,16.614 13.272,16.560 13.383 C 16.516 13.472,16.481 13.607,16.482 13.683 C 16.483 13.758,16.705 15.098,16.975 16.660 C 17.245 18.222,17.462 19.505,17.459 19.511 C 17.455 19.517,16.283 18.905,14.856 18.152 L 12.260 16.782 12.000 16.782 L 11.740 16.782 9.144 18.151 C 7.716 18.905,6.545 19.516,6.541 19.511 C 6.537 19.505,6.754 18.222,7.025 16.660 C 7.295 15.098,7.517 13.758,7.518 13.683 C 7.519 13.607,7.484 13.472,7.440 13.383 C 7.386 13.273,6.681 12.560,5.262 11.181 C 4.109 10.059,3.169 9.137,3.175 9.132 C 3.180 9.127,4.480 8.934,6.063 8.703 C 7.646 8.473,8.977 8.272,9.021 8.256 C 9.303 8.156,9.320 8.126,10.684 5.368 L 12.001 2.706 13.303 5.343 C 14.020 6.793,14.643 8.019,14.688 8.068 " stroke="none" fill-rule="evenodd" fill="black"></path></svg>