<svg xmlns="http://www.w3.org/2000/svg" width="16" height="16" viewBox="0 0 16 16"><path d="M7.689 0.318 C 7.532 0.390,7.381 0.551,7.286 0.750 C 7.241 0.843,6.808 1.721,6.324 2.699 C 5.588 4.186,5.433 4.480,5.382 4.492 C 5.348 4.499,4.396 4.639,3.267 4.801 C 2.137 4.963,1.158 5.114,1.090 5.136 C 0.927 5.188,0.761 5.334,0.673 5.503 C 0.616 5.613,0.602 5.677,0.601 5.827 C 0.599 6.173,0.557 6.124,2.307 7.825 C 3.709 9.189,3.867 9.351,3.854 9.412 C 3.777 9.780,3.143 13.564,3.143 13.658 C 3.144 14.090,3.454 14.403,3.884 14.405 C 4.098 14.406,3.998 14.454,6.220 13.285 L 8.000 12.348 9.780 13.285 C 12.005 14.456,11.902 14.406,12.118 14.405 C 12.397 14.403,12.625 14.273,12.765 14.034 C 12.900 13.803,12.895 13.755,12.509 11.507 C 12.317 10.392,12.154 9.450,12.146 9.412 C 12.133 9.352,12.292 9.188,13.693 7.826 C 15.432 6.134,15.401 6.170,15.399 5.840 C 15.398 5.643,15.336 5.479,15.206 5.331 C 15.034 5.135,15.057 5.140,12.777 4.809 C 11.624 4.642,10.652 4.499,10.618 4.492 C 10.566 4.480,10.413 4.189,9.676 2.699 C 9.191 1.721,8.759 0.843,8.714 0.750 C 8.619 0.552,8.468 0.390,8.311 0.318 C 8.159 0.249,7.841 0.249,7.689 0.318 " stroke="none" fill-rule="evenodd" fill="black"></path></svg>