<svg xmlns="http://www.w3.org/2000/svg" width="16" height="16" viewBox="0 0 16 16"><path d="M6.264 0.041 C 6.101 0.092,5.901 0.272,5.823 0.439 C 5.753 0.589,5.740 0.855,5.795 1.005 C 5.861 1.182,5.988 1.323,6.161 1.410 L 6.329 1.493 6.791 1.493 L 7.254 1.493 7.247 2.019 L 7.240 2.544 7.000 2.577 C 5.969 2.722,4.820 3.199,3.977 3.832 L 3.781 3.979 3.350 3.552 C 3.080 3.284,2.880 3.108,2.813 3.079 C 2.675 3.018,2.369 3.015,2.235 3.073 C 2.095 3.134,1.906 3.317,1.837 3.459 C 1.760 3.618,1.755 3.858,1.824 4.040 C 1.864 4.148,1.956 4.257,2.299 4.603 L 2.725 5.033 2.563 5.251 C 1.931 6.104,1.487 7.181,1.320 8.267 C 1.260 8.657,1.239 9.438,1.278 9.857 C 1.425 11.459,2.136 12.952,3.284 14.068 C 4.341 15.098,5.574 15.707,7.067 15.938 C 7.497 16.004,8.503 16.004,8.933 15.938 C 10.426 15.707,11.659 15.098,12.716 14.068 C 13.636 13.174,14.286 12.024,14.573 10.782 C 14.724 10.134,14.785 9.252,14.722 8.627 C 14.602 7.422,14.161 6.252,13.468 5.297 L 13.277 5.033 13.728 4.577 C 14.215 4.083,14.267 4.002,14.267 3.733 C 14.267 3.429,14.048 3.122,13.762 3.027 C 13.592 2.971,13.339 2.982,13.199 3.052 C 13.148 3.078,12.908 3.296,12.664 3.538 L 12.222 3.978 11.958 3.786 C 11.096 3.161,10.016 2.720,9.000 2.577 L 8.760 2.544 8.753 2.019 L 8.746 1.493 9.209 1.493 L 9.671 1.493 9.839 1.410 C 10.104 1.277,10.235 1.060,10.238 0.747 C 10.241 0.427,10.024 0.129,9.725 0.040 C 9.531 -0.018,6.451 -0.016,6.264 0.041 M8.495 4.028 C 9.953 4.171,11.290 4.911,12.166 6.061 C 13.533 7.856,13.607 10.306,12.351 12.176 C 11.523 13.408,10.280 14.198,8.783 14.443 C 8.385 14.509,7.615 14.509,7.217 14.443 C 6.073 14.256,5.090 13.757,4.293 12.960 C 2.888 11.555,2.400 9.502,3.020 7.603 C 3.153 7.195,3.443 6.611,3.685 6.265 C 4.774 4.703,6.620 3.845,8.495 4.028 M10.013 6.283 C 9.894 6.320,9.803 6.402,9.153 7.048 L 8.426 7.772 8.046 7.774 C 7.605 7.776,7.477 7.811,7.172 8.014 C 6.755 8.292,6.508 8.748,6.507 9.245 C 6.506 9.789,6.821 10.317,7.296 10.566 C 7.848 10.855,8.517 10.782,8.985 10.382 C 9.139 10.250,9.330 9.973,9.410 9.764 C 9.472 9.605,9.479 9.548,9.480 9.207 L 9.482 8.827 10.203 8.100 C 10.893 7.405,10.927 7.367,10.972 7.217 C 11.049 6.967,10.990 6.694,10.816 6.488 C 10.650 6.291,10.283 6.197,10.013 6.283 " stroke="none" fill-rule="evenodd" fill="black"></path></svg>