<svg xmlns="http://www.w3.org/2000/svg" width="24" height="24" viewBox="0 0 24 24"><path d="M9.935 0.077 C 9.845 0.118,9.724 0.212,9.668 0.286 C 9.569 0.416,9.472 0.721,9.500 0.815 C 9.507 0.840,9.524 0.909,9.537 0.969 C 9.550 1.029,9.618 1.143,9.687 1.221 C 9.902 1.467,9.994 1.495,10.650 1.513 L 11.240 1.529 11.240 2.159 L 11.240 2.788 10.912 2.816 C 9.288 2.951,7.407 3.696,5.983 4.766 L 5.621 5.038 4.941 4.362 C 4.096 3.522,3.893 3.413,3.489 3.582 C 3.076 3.755,2.909 4.211,3.111 4.620 C 3.143 4.686,3.474 5.047,3.846 5.423 L 4.523 6.106 4.291 6.383 C 3.141 7.756,2.384 9.470,2.092 11.360 C 1.994 11.995,1.994 13.516,2.092 14.135 C 2.313 15.526,2.751 16.769,3.402 17.855 C 4.904 20.354,7.349 22.055,10.200 22.583 C 12.919 23.087,15.774 22.418,17.980 20.760 C 19.878 19.333,21.230 17.265,21.739 15.011 C 21.937 14.136,21.977 13.759,21.978 12.760 C 21.979 11.594,21.868 10.810,21.563 9.820 C 21.173 8.557,20.401 7.152,19.610 6.265 L 19.472 6.111 20.151 5.425 C 20.984 4.585,21.059 4.454,20.939 4.051 C 20.849 3.745,20.546 3.519,20.231 3.521 C 19.959 3.523,19.760 3.665,19.059 4.362 L 18.379 5.038 18.017 4.766 C 17.090 4.069,15.942 3.489,14.844 3.163 C 14.342 3.014,13.524 2.852,13.088 2.816 L 12.760 2.788 12.760 2.159 L 12.760 1.529 13.350 1.513 C 14.006 1.495,14.098 1.467,14.313 1.221 C 14.382 1.143,14.450 1.029,14.463 0.969 C 14.476 0.909,14.493 0.840,14.500 0.815 C 14.528 0.721,14.431 0.416,14.332 0.286 C 14.276 0.212,14.155 0.118,14.065 0.077 C 13.911 0.007,13.770 0.002,12.000 0.002 C 10.230 0.002,10.089 0.007,9.935 0.077 M13.060 4.325 C 15.151 4.563,17.231 5.713,18.576 7.375 C 19.840 8.937,20.480 10.745,20.480 12.753 C 20.480 13.744,20.359 14.512,20.060 15.425 C 18.923 18.892,15.668 21.240,12.000 21.240 C 7.652 21.240,4.057 18.015,3.556 13.665 C 3.489 13.086,3.531 11.811,3.635 11.260 C 3.807 10.349,4.034 9.678,4.442 8.880 C 5.822 6.179,8.524 4.432,11.580 4.266 C 11.915 4.247,12.632 4.276,13.060 4.325 M15.200 8.564 C 15.145 8.586,14.540 9.162,13.856 9.845 L 12.612 11.087 12.305 11.036 C 11.323 10.871,10.411 11.540,10.268 12.532 C 10.165 13.247,10.557 13.979,11.214 14.299 C 11.750 14.560,12.250 14.560,12.786 14.299 C 13.269 14.063,13.606 13.617,13.720 13.063 C 13.768 12.827,13.750 12.444,13.682 12.267 C 13.652 12.190,13.795 12.032,14.899 10.920 C 16.251 9.558,16.267 9.537,16.230 9.154 C 16.208 8.926,16.059 8.712,15.840 8.594 C 15.689 8.513,15.368 8.498,15.200 8.564 " stroke="none" fill-rule="evenodd" fill="black"></path></svg>