<svg xmlns="http://www.w3.org/2000/svg" width="16" height="16" viewBox="0 0 16 16"><path d="M4.757 0.048 C 4.683 0.074,4.575 0.133,4.517 0.179 C 4.460 0.225,3.446 1.233,2.263 2.418 C 0.218 4.468,0.110 4.581,0.057 4.728 C 0.000 4.882,-0.000 4.890,-0.000 8.000 C -0.000 11.107,0.000 11.119,0.056 11.272 C 0.110 11.419,0.217 11.531,2.343 13.657 C 4.469 15.783,4.581 15.890,4.728 15.944 C 4.881 16.000,4.893 16.000,8.000 16.000 C 11.107 16.000,11.119 16.000,11.272 15.944 C 11.419 15.890,11.531 15.783,13.657 13.657 C 15.783 11.531,15.890 11.419,15.944 11.272 C 16.000 11.119,16.000 11.107,16.000 8.000 C 16.000 4.892,16.000 4.881,15.944 4.728 C 15.890 4.581,15.782 4.468,13.670 2.354 C 11.850 0.532,11.429 0.124,11.320 0.074 L 11.187 0.013 8.040 0.007 C 5.089 0.002,4.885 0.004,4.757 0.048 M12.593 3.407 L 14.507 5.320 14.507 8.000 L 14.507 10.680 12.593 12.593 L 10.680 14.507 8.000 14.507 L 5.320 14.507 3.407 12.593 L 1.493 10.680 1.493 8.000 L 1.493 5.320 3.407 3.407 L 5.320 1.493 8.000 1.493 L 10.680 1.493 12.593 3.407 M7.747 4.046 C 7.659 4.076,7.567 4.138,7.477 4.226 C 7.240 4.462,7.251 4.350,7.259 6.549 L 7.267 8.467 7.350 8.613 C 7.453 8.796,7.618 8.919,7.836 8.974 C 7.984 9.012,8.015 9.012,8.160 8.976 C 8.356 8.925,8.506 8.829,8.601 8.693 C 8.748 8.480,8.744 8.535,8.745 6.505 C 8.747 4.414,8.752 4.483,8.569 4.269 C 8.374 4.041,8.031 3.948,7.747 4.046 M7.734 10.043 C 7.363 10.143,7.088 10.447,7.016 10.840 C 6.937 11.267,7.184 11.722,7.600 11.916 C 7.725 11.974,7.784 11.984,8.000 11.984 C 8.216 11.984,8.275 11.974,8.400 11.916 C 8.816 11.722,9.063 11.267,8.984 10.840 C 8.911 10.441,8.636 10.141,8.254 10.041 C 8.061 9.991,7.926 9.991,7.734 10.043 " stroke="none" fill-rule="evenodd" fill="black"></path></svg>