<svg xmlns="http://www.w3.org/2000/svg" width="24" height="24" viewBox="0 0 24 24"><path d="M7.689 1.279 C 7.617 1.296,7.491 1.357,7.409 1.414 C 7.327 1.471,5.942 2.837,4.332 4.449 C 2.076 6.707,1.385 7.421,1.323 7.560 C 1.243 7.737,1.242 7.811,1.241 12.002 L 1.240 16.264 1.339 16.462 C 1.483 16.749,7.299 22.560,7.560 22.677 C 7.737 22.757,7.810 22.758,12.000 22.758 C 16.190 22.758,16.263 22.757,16.440 22.677 C 16.701 22.560,22.517 16.749,22.661 16.462 L 22.760 16.264 22.760 12.000 L 22.760 7.736 22.661 7.538 C 22.585 7.386,21.876 6.655,19.591 4.374 C 17.957 2.743,16.557 1.375,16.480 1.334 C 16.346 1.263,16.146 1.260,12.080 1.254 C 9.737 1.250,7.761 1.261,7.689 1.279 M18.550 5.450 L 21.240 8.140 21.240 12.000 L 21.240 15.860 18.550 18.550 L 15.860 21.240 12.000 21.240 L 8.140 21.240 5.450 18.550 L 2.760 15.860 2.760 12.000 L 2.760 8.140 5.450 5.450 L 8.140 2.760 12.000 2.760 L 15.860 2.760 18.550 5.450 M11.700 7.076 C 11.506 7.165,11.384 7.292,11.302 7.489 C 11.248 7.617,11.240 7.958,11.241 10.009 C 11.242 12.229,11.246 12.390,11.316 12.540 C 11.594 13.144,12.406 13.144,12.684 12.540 C 12.754 12.390,12.758 12.229,12.758 10.000 C 12.758 7.771,12.754 7.610,12.684 7.460 C 12.503 7.068,12.077 6.902,11.700 7.076 M11.664 15.063 C 11.436 15.146,11.257 15.297,11.131 15.511 C 11.036 15.672,11.020 15.744,11.020 16.000 C 11.020 16.256,11.036 16.328,11.131 16.489 C 11.470 17.065,12.234 17.168,12.701 16.701 C 12.881 16.521,13.000 16.242,13.000 16.000 C 13.000 15.326,12.295 14.832,11.664 15.063 " stroke="none" fill-rule="evenodd" fill="black"></path></svg>