<svg xmlns="http://www.w3.org/2000/svg" width="16" height="16" viewBox="0 0 16 16"><path d="M7.013 1.775 C 6.977 1.781,6.839 1.800,6.707 1.816 C 6.575 1.832,6.311 1.885,6.120 1.934 C 4.636 2.314,3.613 3.262,3.357 4.493 C 3.287 4.831,3.288 5.309,3.359 5.499 C 3.550 6.009,4.170 6.162,4.562 5.795 C 4.740 5.629,4.806 5.463,4.803 5.186 C 4.799 4.882,4.836 4.715,4.958 4.467 C 5.278 3.821,6.033 3.390,7.034 3.283 C 8.088 3.170,9.190 3.437,10.193 4.049 C 10.412 4.183,10.508 4.213,10.704 4.213 C 11.178 4.212,11.540 3.736,11.414 3.279 C 11.361 3.090,11.236 2.938,11.020 2.798 C 10.755 2.626,10.036 2.273,9.698 2.149 C 9.379 2.031,8.823 1.884,8.480 1.825 C 8.239 1.784,7.174 1.748,7.013 1.775 M1.420 7.082 C 0.952 7.315,0.860 7.940,1.241 8.292 C 1.479 8.511,1.172 8.492,4.733 8.507 L 7.907 8.521 8.147 8.592 C 9.377 8.955,10.066 9.427,10.286 10.059 C 10.362 10.278,10.377 10.638,10.321 10.883 C 10.170 11.537,9.603 12.044,8.747 12.292 C 7.621 12.617,6.241 12.562,5.227 12.151 C 4.866 12.004,4.621 11.860,4.314 11.612 C 4.136 11.468,4.026 11.400,3.922 11.370 C 3.526 11.253,3.114 11.483,2.997 11.886 C 2.912 12.180,3.006 12.452,3.278 12.698 C 3.991 13.343,5.025 13.781,6.240 13.951 C 6.572 13.997,7.709 13.998,8.080 13.952 C 9.014 13.836,9.781 13.578,10.400 13.173 C 10.709 12.970,11.162 12.524,11.346 12.241 C 12.078 11.114,12.026 9.651,11.221 8.691 L 11.068 8.509 12.754 8.501 C 14.645 8.492,14.528 8.505,14.759 8.292 C 15.139 7.941,15.047 7.314,14.580 7.082 L 14.443 7.013 8.000 7.013 L 1.557 7.013 1.420 7.082 " stroke="none" fill-rule="evenodd" fill="black"></path></svg>