<svg xmlns="http://www.w3.org/2000/svg" width="16" height="16" viewBox="0 0 16 16"><path d="M7.747 0.046 C 7.564 0.108,7.357 0.316,7.296 0.498 C 7.256 0.618,7.252 0.746,7.259 1.551 L 7.267 2.467 7.350 2.613 C 7.453 2.796,7.618 2.919,7.836 2.974 C 7.984 3.012,8.015 3.012,8.160 2.976 C 8.434 2.905,8.618 2.742,8.708 2.488 C 8.765 2.330,8.762 0.668,8.705 0.501 C 8.578 0.128,8.129 -0.085,7.747 0.046 M2.537 2.215 C 2.269 2.350,2.139 2.566,2.136 2.880 C 2.133 3.175,2.178 3.238,2.897 3.951 C 3.509 4.558,3.539 4.583,3.691 4.627 C 4.278 4.797,4.797 4.278,4.627 3.691 C 4.583 3.539,4.558 3.510,3.951 2.898 C 3.599 2.543,3.273 2.238,3.213 2.207 C 3.143 2.170,3.039 2.147,2.907 2.140 C 2.723 2.130,2.693 2.136,2.537 2.215 M12.877 2.170 C 12.725 2.224,12.664 2.279,12.010 2.938 C 11.313 3.642,11.292 3.673,11.312 3.992 C 11.324 4.203,11.385 4.345,11.520 4.480 C 11.655 4.615,11.797 4.676,12.008 4.688 C 12.329 4.708,12.356 4.690,13.090 3.963 C 13.816 3.244,13.866 3.175,13.866 2.890 C 13.867 2.575,13.732 2.350,13.461 2.215 C 13.279 2.124,13.055 2.107,12.877 2.170 M7.467 4.038 C 6.989 4.108,6.622 4.221,6.213 4.427 C 5.105 4.984,4.351 5.968,4.074 7.220 C 3.990 7.597,3.990 8.403,4.074 8.780 C 4.434 10.406,5.595 11.567,7.218 11.925 C 7.598 12.009,8.402 12.009,8.782 11.925 C 10.404 11.567,11.567 10.404,11.925 8.782 C 12.009 8.402,12.009 7.598,11.925 7.218 C 11.561 5.567,10.316 4.353,8.694 4.064 C 8.368 4.007,7.773 3.994,7.467 4.038 M8.632 5.588 C 8.881 5.650,9.216 5.803,9.438 5.954 C 9.595 6.060,9.940 6.405,10.046 6.562 C 10.198 6.784,10.350 7.119,10.418 7.381 C 10.515 7.752,10.515 8.248,10.418 8.619 C 10.350 8.879,10.199 9.213,10.047 9.438 C 9.909 9.643,9.520 10.003,9.285 10.143 C 8.997 10.316,8.615 10.444,8.272 10.485 C 7.751 10.546,7.178 10.420,6.715 10.143 C 6.480 10.003,6.091 9.643,5.953 9.438 C 5.801 9.213,5.650 8.879,5.582 8.619 C 5.485 8.248,5.485 7.752,5.582 7.381 C 5.886 6.218,6.940 5.446,8.133 5.512 C 8.273 5.519,8.497 5.553,8.632 5.588 M0.481 7.300 C 0.316 7.358,0.102 7.576,0.045 7.745 C -0.053 8.033,0.010 8.307,0.225 8.522 C 0.445 8.742,0.474 8.747,1.505 8.745 C 2.453 8.744,2.492 8.739,2.693 8.601 C 2.829 8.506,2.925 8.356,2.976 8.160 C 3.012 8.016,3.012 7.984,2.976 7.840 C 2.905 7.566,2.742 7.382,2.488 7.292 C 2.329 7.235,0.645 7.242,0.481 7.300 M13.512 7.292 C 13.258 7.382,13.095 7.566,13.024 7.840 C 12.988 7.985,12.988 8.016,13.026 8.164 C 13.081 8.382,13.204 8.547,13.387 8.650 L 13.533 8.733 14.449 8.741 C 15.526 8.751,15.550 8.747,15.777 8.520 C 16.077 8.220,16.076 7.779,15.775 7.478 C 15.557 7.260,15.517 7.253,14.482 7.255 C 13.821 7.255,13.589 7.264,13.512 7.292 M3.811 11.336 C 3.744 11.346,3.642 11.379,3.585 11.408 C 3.433 11.487,2.230 12.706,2.172 12.840 C 2.102 13.002,2.107 13.289,2.182 13.444 C 2.252 13.589,2.440 13.772,2.582 13.833 C 2.715 13.891,3.021 13.888,3.160 13.828 C 3.323 13.757,4.520 12.561,4.602 12.387 C 4.694 12.194,4.706 12.063,4.652 11.870 C 4.549 11.502,4.198 11.279,3.811 11.336 M11.746 11.396 C 11.474 11.523,11.277 11.867,11.318 12.144 C 11.356 12.393,11.433 12.493,12.097 13.149 C 12.648 13.694,12.751 13.785,12.865 13.823 C 13.363 13.989,13.867 13.629,13.867 13.107 C 13.867 12.838,13.826 12.781,13.149 12.097 C 12.433 11.373,12.378 11.334,12.067 11.334 C 11.927 11.334,11.846 11.350,11.746 11.396 M7.649 13.101 C 7.466 13.195,7.333 13.355,7.281 13.542 C 7.265 13.599,7.254 14.000,7.253 14.509 C 7.253 15.526,7.259 15.555,7.481 15.778 C 7.583 15.880,7.656 15.927,7.761 15.958 C 8.060 16.047,8.310 15.987,8.519 15.778 C 8.741 15.555,8.747 15.526,8.747 14.509 C 8.746 13.999,8.735 13.599,8.719 13.542 C 8.669 13.360,8.530 13.194,8.349 13.100 C 8.208 13.027,8.153 13.013,8.000 13.013 C 7.847 13.013,7.791 13.027,7.649 13.101 " stroke="none" fill-rule="evenodd" fill="black"></path></svg>