<svg xmlns="http://www.w3.org/2000/svg" width="24" height="24" viewBox="0 0 24 24"><path d="M11.700 0.076 C 11.506 0.165,11.384 0.292,11.302 0.489 C 11.250 0.613,11.240 0.860,11.241 2.009 C 11.242 3.256,11.248 3.394,11.316 3.540 C 11.594 4.144,12.406 4.144,12.684 3.540 C 12.752 3.394,12.758 3.257,12.758 2.000 C 12.758 0.743,12.752 0.606,12.684 0.460 C 12.503 0.068,12.077 -0.098,11.700 0.076 M3.668 3.413 C 3.379 3.587,3.246 3.905,3.325 4.228 C 3.368 4.404,3.453 4.502,4.373 5.429 C 4.924 5.984,5.437 6.467,5.513 6.503 C 6.072 6.769,6.683 6.277,6.554 5.665 C 6.512 5.468,6.472 5.421,5.525 4.467 C 4.983 3.920,4.473 3.439,4.392 3.397 C 4.181 3.288,3.863 3.295,3.668 3.413 M19.616 3.383 C 19.548 3.416,19.051 3.889,18.512 4.432 C 17.615 5.336,17.528 5.436,17.485 5.610 C 17.408 5.928,17.546 6.264,17.820 6.419 C 18.045 6.547,18.170 6.568,18.390 6.515 C 18.564 6.472,18.664 6.385,19.569 5.487 C 20.113 4.948,20.588 4.442,20.626 4.363 C 20.785 4.031,20.654 3.602,20.337 3.416 C 20.143 3.302,19.810 3.287,19.616 3.383 M11.260 5.044 C 9.282 5.252,7.463 6.316,6.292 7.952 C 5.998 8.362,5.616 9.084,5.440 9.561 C 4.200 12.921,5.676 16.657,8.875 18.258 C 10.847 19.245,13.153 19.245,15.125 18.258 C 18.584 16.527,19.987 12.325,18.258 8.875 C 16.949 6.262,14.166 4.739,11.260 5.044 M12.923 6.583 C 15.201 6.966,17.034 8.799,17.417 11.077 C 17.499 11.565,17.499 12.435,17.417 12.923 C 17.130 14.631,16.011 16.141,14.458 16.914 C 13.667 17.307,12.885 17.491,12.000 17.491 C 10.536 17.491,9.207 16.947,8.158 15.920 C 7.336 15.115,6.771 14.038,6.583 12.923 C 6.501 12.435,6.501 11.565,6.583 11.077 C 6.766 9.988,7.326 8.907,8.116 8.116 C 8.899 7.334,9.975 6.773,11.060 6.583 C 11.506 6.505,12.458 6.505,12.923 6.583 M0.660 11.258 C 0.638 11.266,0.572 11.284,0.513 11.296 C 0.365 11.329,0.171 11.501,0.078 11.683 C -0.112 12.057,0.078 12.526,0.489 12.698 C 0.709 12.790,3.291 12.790,3.511 12.698 C 3.708 12.616,3.835 12.494,3.924 12.300 C 4.090 11.942,3.943 11.526,3.580 11.326 C 3.476 11.269,3.279 11.259,2.080 11.252 C 1.321 11.248,0.682 11.250,0.660 11.258 M20.660 11.258 C 20.638 11.266,20.572 11.284,20.513 11.296 C 20.358 11.331,20.160 11.512,20.075 11.698 C 19.898 12.088,20.080 12.527,20.489 12.698 C 20.709 12.790,23.291 12.790,23.511 12.698 C 23.708 12.616,23.835 12.494,23.924 12.300 C 24.090 11.942,23.943 11.526,23.580 11.326 C 23.476 11.269,23.279 11.259,22.080 11.252 C 21.321 11.248,20.682 11.250,20.660 11.258 M5.500 17.514 C 5.400 17.562,4.969 17.965,4.355 18.586 C 3.296 19.654,3.251 19.717,3.291 20.065 C 3.347 20.562,3.882 20.857,4.340 20.644 C 4.443 20.596,4.852 20.214,5.485 19.574 C 6.543 18.506,6.589 18.443,6.550 18.095 C 6.494 17.606,5.943 17.301,5.500 17.514 M17.900 17.496 C 17.523 17.662,17.346 18.096,17.501 18.471 C 17.585 18.673,19.401 20.500,19.620 20.603 C 20.077 20.818,20.613 20.522,20.669 20.025 C 20.709 19.677,20.662 19.612,19.625 18.566 C 19.006 17.940,18.603 17.564,18.500 17.516 C 18.313 17.429,18.070 17.421,17.900 17.496 M11.700 20.076 C 11.506 20.165,11.384 20.292,11.302 20.489 C 11.250 20.613,11.240 20.860,11.241 22.009 C 11.242 23.256,11.248 23.394,11.316 23.540 C 11.491 23.920,11.903 24.092,12.271 23.938 C 12.468 23.856,12.595 23.734,12.684 23.540 C 12.752 23.394,12.758 23.257,12.758 22.000 C 12.758 20.743,12.752 20.606,12.684 20.460 C 12.503 20.068,12.077 19.902,11.700 20.076 " stroke="none" fill-rule="evenodd" fill="black"></path></svg>