<svg xmlns="http://www.w3.org/2000/svg" width="16" height="16" viewBox="0 0 16 16"><path d="M7.400 1.030 C 6.735 1.106,6.283 1.201,5.781 1.369 C 5.057 1.610,4.377 1.969,3.760 2.434 C 3.519 2.615,3.044 3.043,2.922 3.190 L 2.820 3.312 2.095 2.589 C 1.375 1.870,1.371 1.867,1.258 1.867 C 1.121 1.867,1.025 1.948,1.001 2.084 C 0.992 2.133,0.988 2.999,0.992 4.009 L 1.000 5.844 1.087 5.922 L 1.174 6.000 3.077 6.000 C 4.953 6.000,4.980 5.999,5.049 5.946 C 5.131 5.881,5.165 5.739,5.120 5.649 C 5.102 5.615,4.812 5.310,4.476 4.972 L 3.864 4.357 4.152 4.078 C 4.998 3.262,5.968 2.770,7.133 2.569 C 7.508 2.504,8.492 2.504,8.867 2.569 C 10.204 2.800,11.356 3.454,12.203 4.461 C 12.850 5.230,13.277 6.166,13.429 7.147 C 13.484 7.500,13.546 7.648,13.704 7.795 C 14.113 8.177,14.765 7.990,14.924 7.445 C 14.975 7.268,14.953 7.034,14.837 6.507 C 14.189 3.582,11.776 1.400,8.803 1.053 C 8.504 1.018,7.633 1.004,7.400 1.030 M1.609 8.026 C 1.253 8.110,1.010 8.477,1.052 8.864 C 1.101 9.313,1.299 10.092,1.479 10.547 C 1.730 11.178,2.149 11.894,2.578 12.426 C 2.812 12.717,3.284 13.189,3.574 13.422 C 5.534 15.000,8.107 15.419,10.471 14.546 C 11.034 14.338,11.730 13.953,12.233 13.573 C 12.482 13.384,12.956 12.957,13.079 12.810 L 13.181 12.688 13.890 13.396 C 14.281 13.785,14.634 14.117,14.675 14.132 C 14.731 14.153,14.772 14.150,14.842 14.121 C 15.020 14.046,15.016 14.107,15.007 12.024 L 15.000 10.156 14.913 10.078 L 14.826 10.000 12.923 10.000 C 11.047 10.000,11.020 10.001,10.951 10.054 C 10.869 10.119,10.835 10.261,10.880 10.351 C 10.898 10.385,11.188 10.690,11.524 11.028 L 12.136 11.643 11.848 11.922 C 10.781 12.952,9.463 13.491,8.008 13.493 C 5.299 13.496,2.985 11.525,2.573 8.863 C 2.515 8.492,2.454 8.349,2.287 8.199 C 2.096 8.028,1.857 7.967,1.609 8.026 " stroke="none" fill-rule="evenodd" fill="black"></path></svg>