<svg xmlns="http://www.w3.org/2000/svg" width="24" height="24" viewBox="0 0 24 24"><path d="M20.940 3.567 C 20.811 3.638,20.638 3.811,20.566 3.940 C 20.505 4.050,20.499 4.662,20.489 11.620 C 20.482 16.982,20.491 19.242,20.523 19.392 C 20.606 19.793,20.969 20.044,21.380 19.982 C 21.616 19.947,21.898 19.704,21.959 19.485 C 21.986 19.390,22.000 16.731,22.000 11.729 C 22.000 3.539,22.010 3.970,21.808 3.747 C 21.629 3.548,21.153 3.449,20.940 3.567 M11.603 4.788 C 11.427 4.823,11.203 4.997,11.116 5.167 C 11.012 5.372,11.005 5.655,11.099 5.843 C 11.137 5.918,12.296 7.110,13.674 8.490 L 16.179 11.000 8.900 11.001 C 1.945 11.002,1.613 11.005,1.460 11.075 C 0.795 11.376,0.890 12.324,1.600 12.476 C 1.743 12.507,3.934 12.520,8.992 12.520 L 16.180 12.520 13.629 15.071 C 11.267 17.433,11.073 17.638,11.018 17.819 C 10.966 17.994,10.966 18.040,11.019 18.224 C 11.082 18.440,11.268 18.647,11.467 18.723 C 11.627 18.784,11.883 18.765,12.057 18.681 C 12.167 18.628,13.268 17.551,15.443 15.371 C 18.234 12.574,18.673 12.118,18.713 11.975 C 18.770 11.774,18.771 11.741,18.717 11.540 C 18.679 11.402,18.230 10.935,15.447 8.147 C 13.672 6.369,12.175 4.891,12.120 4.862 C 12.001 4.799,11.738 4.762,11.603 4.788 " stroke="none" fill-rule="evenodd" fill="black"></path></svg>