<svg xmlns="http://www.w3.org/2000/svg" width="16" height="16" viewBox="0 0 16 16"><path d="M2.859 2.547 C 2.277 2.674,1.791 3.118,1.584 3.711 L 1.507 3.933 1.499 8.218 L 1.492 12.502 1.006 12.511 C 0.463 12.521,0.438 12.528,0.225 12.725 C 0.092 12.847,0.000 13.057,0.000 13.236 C 0.000 13.450,0.072 13.622,0.225 13.775 C 0.443 13.993,0.484 14.000,1.511 14.000 C 2.310 14.000,2.381 13.996,2.512 13.946 C 2.749 13.855,2.907 13.678,2.972 13.427 C 3.008 13.287,3.013 12.731,3.013 8.703 L 3.013 4.138 3.095 4.069 L 3.177 4.000 8.000 4.000 L 12.823 4.000 12.905 4.069 L 12.987 4.138 12.987 8.703 C 12.987 12.731,12.992 13.287,13.028 13.427 C 13.093 13.678,13.251 13.855,13.488 13.946 C 13.619 13.996,13.690 14.000,14.489 14.000 C 15.516 14.000,15.557 13.993,15.775 13.775 C 16.134 13.416,16.053 12.857,15.604 12.593 C 15.483 12.522,15.468 12.520,14.994 12.511 L 14.508 12.502 14.501 8.218 L 14.493 3.933 14.414 3.707 C 14.231 3.181,13.805 2.758,13.280 2.579 L 13.107 2.520 8.067 2.515 C 3.878 2.511,2.998 2.517,2.859 2.547 M6.475 6.041 C 6.388 6.088,6.334 6.232,6.370 6.323 C 6.384 6.358,6.751 6.741,7.184 7.173 L 7.973 7.959 6.537 9.400 C 5.568 10.372,5.086 10.875,5.052 10.947 C 4.983 11.097,4.970 11.351,5.025 11.514 C 5.120 11.802,5.413 12.012,5.720 12.013 C 6.056 12.014,5.998 12.061,7.594 10.470 L 9.040 9.027 9.847 9.834 C 10.621 10.607,10.658 10.640,10.755 10.640 C 10.878 10.640,10.976 10.553,10.999 10.423 C 11.008 10.374,11.012 9.393,11.008 8.244 L 11.000 6.156 10.913 6.078 L 10.826 6.000 8.686 6.001 C 6.870 6.002,6.536 6.008,6.475 6.041 " stroke="none" fill-rule="evenodd" fill="black"></path></svg>