<svg xmlns="http://www.w3.org/2000/svg" width="16" height="16" viewBox="0 0 16 16"><path d="M1.442 0.029 C 0.801 0.156,0.295 0.596,0.087 1.210 L 0.013 1.427 0.006 7.933 C -0.000 14.361,0.000 14.442,0.053 14.653 C 0.138 14.995,0.273 15.234,0.519 15.481 C 0.766 15.727,1.005 15.862,1.347 15.947 C 1.558 16.000,1.639 16.000,8.067 15.994 L 14.573 15.987 14.790 15.913 C 15.036 15.830,15.347 15.636,15.511 15.463 C 15.678 15.287,15.832 15.029,15.914 14.789 L 15.987 14.573 15.987 8.000 L 15.987 1.427 15.914 1.211 C 15.734 0.683,15.318 0.266,14.792 0.088 L 14.573 0.013 8.067 0.009 C 4.437 0.007,1.508 0.016,1.442 0.029 M4.987 3.254 L 4.987 5.014 3.247 5.007 L 1.507 5.000 1.507 3.329 C 1.507 1.696,1.508 1.658,1.560 1.600 C 1.589 1.567,1.637 1.531,1.667 1.519 C 1.696 1.507,2.455 1.496,3.353 1.495 L 4.987 1.493 4.987 3.254 M14.419 1.581 L 14.493 1.655 14.493 3.327 L 14.493 5.000 10.500 5.007 L 6.507 5.014 6.507 3.253 L 6.507 1.493 10.426 1.500 L 14.345 1.507 14.419 1.581 M4.987 10.507 L 4.987 14.508 3.321 14.501 L 1.655 14.493 1.581 14.419 L 1.507 14.345 1.500 10.426 L 1.493 6.507 3.240 6.507 L 4.987 6.507 4.987 10.507 M14.500 10.426 L 14.493 14.345 14.419 14.419 L 14.345 14.493 10.426 14.500 L 6.507 14.507 6.507 10.507 L 6.507 6.507 10.507 6.507 L 14.507 6.507 14.500 10.426 " stroke="none" fill-rule="evenodd" fill="black"></path></svg>