<svg xmlns="http://www.w3.org/2000/svg" width="24" height="24" viewBox="0 0 24 24"><path d="M3.340 2.056 C 2.694 2.217,2.175 2.748,2.039 3.387 C 2.012 3.516,2.002 6.399,2.009 12.120 L 2.020 20.660 2.113 20.880 C 2.305 21.335,2.664 21.693,3.122 21.887 L 3.340 21.980 12.000 21.980 L 20.660 21.980 20.880 21.887 C 21.335 21.695,21.693 21.336,21.887 20.878 L 21.980 20.660 21.991 12.120 C 21.998 6.399,21.988 3.516,21.961 3.387 C 21.821 2.732,21.271 2.186,20.608 2.045 C 20.288 1.977,3.616 1.988,3.340 2.056 M7.480 5.520 L 7.480 7.520 5.500 7.520 L 3.520 7.520 3.520 5.568 C 3.520 4.103,3.532 3.604,3.568 3.568 C 3.604 3.532,4.099 3.520,5.548 3.520 L 7.480 3.520 7.480 5.520 M20.432 3.568 C 20.468 3.604,20.480 4.103,20.480 5.568 L 20.480 7.520 14.740 7.520 L 9.000 7.520 9.000 5.520 L 9.000 3.520 14.692 3.520 C 19.066 3.520,20.395 3.531,20.432 3.568 M7.480 14.761 L 7.480 20.522 5.566 20.511 C 4.015 20.502,3.640 20.490,3.586 20.445 C 3.525 20.395,3.520 19.943,3.520 14.695 L 3.520 9.000 5.500 9.000 L 7.480 9.000 7.480 14.761 M20.480 14.695 C 20.480 19.944,20.475 20.395,20.414 20.445 C 20.359 20.491,19.413 20.502,14.674 20.510 L 9.000 20.521 9.000 14.760 L 9.000 9.000 14.740 9.000 L 20.480 9.000 20.480 14.695 " stroke="none" fill-rule="evenodd" fill="black"></path></svg>