<svg xmlns="http://www.w3.org/2000/svg" width="16" height="16" viewBox="0 0 16 16"><path d="M2.387 1.041 C 1.891 1.144,1.422 1.504,1.203 1.950 C 0.989 2.388,1.003 2.178,0.993 5.107 C 0.988 6.721,0.994 7.802,1.011 7.933 C 1.025 8.051,1.061 8.225,1.091 8.320 C 1.216 8.721,1.100 8.596,4.639 12.135 C 8.214 15.710,8.043 15.551,8.493 15.697 C 8.798 15.795,9.202 15.795,9.507 15.697 C 9.953 15.553,9.839 15.656,12.748 12.748 C 15.656 9.839,15.553 9.953,15.697 9.507 C 15.795 9.202,15.795 8.798,15.697 8.493 C 15.551 8.043,15.710 8.214,12.135 4.639 C 8.605 1.109,8.731 1.227,8.320 1.086 L 8.147 1.027 5.320 1.023 C 3.765 1.020,2.445 1.029,2.387 1.041 M11.073 5.700 C 14.246 8.873,14.267 8.894,14.267 9.000 C 14.267 9.106,14.247 9.126,11.687 11.687 C 9.126 14.247,9.106 14.267,9.000 14.267 C 8.894 14.267,8.873 14.246,5.700 11.073 L 2.507 7.880 2.507 5.271 L 2.507 2.663 2.585 2.585 L 2.663 2.507 5.271 2.507 L 7.880 2.507 11.073 5.700 M5.662 5.061 C 5.221 5.219,4.939 5.692,5.014 6.152 C 5.145 6.957,6.127 7.277,6.702 6.702 C 7.188 6.216,7.050 5.404,6.429 5.100 C 6.234 5.005,5.872 4.986,5.662 5.061 " stroke="none" fill-rule="evenodd" fill="black"></path></svg>