<svg xmlns="http://www.w3.org/2000/svg" width="24" height="24" viewBox="0 0 24 24"><path d="M2.150 1.043 C 1.728 1.143,1.343 1.464,1.144 1.880 L 1.020 2.140 1.020 6.720 L 1.020 11.300 1.116 11.520 C 1.201 11.716,1.797 12.326,6.516 17.054 C 9.433 19.976,11.883 22.408,11.960 22.457 C 12.216 22.623,12.500 22.691,12.842 22.672 C 13.463 22.636,13.130 22.934,18.064 17.992 C 22.969 13.078,22.634 13.453,22.671 12.835 C 22.692 12.498,22.624 12.225,22.450 11.940 C 22.396 11.852,19.991 9.420,17.106 6.535 C 12.128 1.557,11.846 1.283,11.581 1.155 L 11.302 1.020 6.801 1.014 C 4.264 1.010,2.234 1.023,2.150 1.043 M16.090 7.630 L 21.200 12.740 16.980 16.960 L 12.760 21.180 7.640 16.060 L 2.520 10.940 2.520 6.730 L 2.520 2.520 6.750 2.520 L 10.980 2.520 16.090 7.630 M7.218 6.632 C 6.063 7.190,6.394 8.901,7.674 8.990 C 8.045 9.015,8.347 8.898,8.623 8.623 C 9.117 8.129,9.122 7.362,8.635 6.875 C 8.391 6.631,8.190 6.548,7.800 6.530 C 7.489 6.517,7.439 6.525,7.218 6.632 " stroke="none" fill-rule="evenodd" fill="black"></path></svg>