<svg xmlns="http://www.w3.org/2000/svg" width="24" height="24" viewBox="0 0 24 24"><path d="M3.664 5.063 C 3.436 5.146,3.257 5.297,3.131 5.511 L 3.020 5.700 3.020 8.500 L 3.020 11.300 3.131 11.489 C 3.192 11.592,3.301 11.723,3.374 11.778 C 3.669 12.003,3.624 12.000,6.498 12.000 C 9.486 12.000,9.393 12.009,9.701 11.701 C 10.009 11.394,10.000 11.486,10.000 8.500 C 10.000 5.514,10.009 5.606,9.701 5.299 C 9.393 4.991,9.488 5.000,6.483 5.003 C 4.276 5.005,3.793 5.015,3.664 5.063 M12.394 5.601 C 12.110 5.751,11.968 6.046,12.018 6.380 C 12.053 6.616,12.296 6.898,12.515 6.959 C 12.714 7.014,20.286 7.014,20.485 6.959 C 20.704 6.898,20.947 6.616,20.982 6.380 C 21.033 6.041,20.888 5.747,20.598 5.599 C 20.447 5.522,20.347 5.520,16.492 5.522 C 12.664 5.523,12.535 5.526,12.394 5.601 M8.480 8.520 L 8.480 10.520 6.500 10.520 L 4.520 10.520 4.520 8.520 L 4.520 6.520 6.500 6.520 L 8.480 6.520 8.480 8.520 M12.394 11.601 C 12.110 11.751,11.968 12.046,12.018 12.380 C 12.053 12.616,12.296 12.898,12.515 12.959 C 12.714 13.014,20.286 13.014,20.485 12.959 C 20.704 12.898,20.947 12.616,20.982 12.380 C 21.033 12.041,20.888 11.747,20.598 11.599 C 20.447 11.522,20.347 11.520,16.492 11.522 C 12.664 11.523,12.535 11.526,12.394 11.601 M8.940 14.826 C 8.874 14.860,8.132 15.574,7.291 16.413 L 5.761 17.938 4.970 17.151 C 4.472 16.655,4.125 16.341,4.031 16.302 C 3.612 16.127,3.147 16.345,3.019 16.777 C 2.966 16.953,2.966 17.001,3.018 17.178 C 3.072 17.364,3.171 17.473,4.229 18.526 C 5.189 19.482,5.407 19.680,5.540 19.716 C 5.741 19.771,5.774 19.771,5.975 19.713 C 6.116 19.673,6.414 19.394,7.991 17.823 C 9.283 16.537,9.868 15.928,9.926 15.808 C 10.095 15.458,9.941 15.015,9.590 14.845 C 9.384 14.745,9.111 14.737,8.940 14.826 M12.394 17.601 C 12.110 17.751,11.968 18.046,12.018 18.380 C 12.053 18.616,12.296 18.898,12.515 18.959 C 12.714 19.014,20.286 19.014,20.485 18.959 C 20.704 18.898,20.947 18.616,20.982 18.380 C 21.033 18.041,20.888 17.747,20.598 17.599 C 20.447 17.522,20.347 17.520,16.492 17.522 C 12.664 17.523,12.535 17.526,12.394 17.601 " stroke="none" fill-rule="evenodd" fill="black"></path></svg>