<svg xmlns="http://www.w3.org/2000/svg" width="16" height="16" viewBox="0 0 16 16"><path d="M1.734 2.043 C 1.363 2.142,1.088 2.447,1.016 2.839 C 0.976 3.056,0.976 6.943,1.016 7.162 C 1.076 7.490,1.293 7.771,1.600 7.917 L 1.747 7.987 4.000 7.987 L 6.253 7.987 6.400 7.917 C 6.707 7.771,6.924 7.490,6.984 7.162 C 7.024 6.943,7.024 3.056,6.984 2.839 C 6.911 2.441,6.636 2.141,6.254 2.041 C 6.023 1.981,1.959 1.982,1.734 2.043 M9.467 2.562 C 9.294 2.641,9.184 2.733,9.107 2.863 C 8.871 3.266,9.051 3.779,9.488 3.946 C 9.626 3.999,9.683 4.000,12.489 4.000 C 15.759 4.000,15.535 4.015,15.775 3.775 C 16.134 3.416,16.053 2.857,15.604 2.593 L 15.480 2.520 12.533 2.514 C 9.618 2.507,9.585 2.508,9.467 2.562 M5.493 5.000 L 5.493 6.507 4.000 6.507 L 2.507 6.507 2.507 5.000 L 2.507 3.493 4.000 3.493 L 5.493 3.493 5.493 5.000 M9.600 7.518 C 9.258 7.589,9.004 7.902,9.004 8.253 C 9.004 8.543,9.164 8.793,9.435 8.926 L 9.587 9.000 12.423 9.007 C 14.918 9.014,15.279 9.010,15.422 8.973 C 15.788 8.879,16.021 8.563,15.993 8.196 C 15.971 7.912,15.800 7.676,15.529 7.553 C 15.434 7.510,15.219 7.506,12.560 7.503 C 10.983 7.501,9.651 7.508,9.600 7.518 M5.880 10.416 C 5.758 10.454,5.649 10.556,4.627 11.575 L 3.507 12.692 2.947 12.136 C 2.327 11.522,2.283 11.493,1.960 11.493 C 1.543 11.493,1.187 11.888,1.236 12.298 C 1.268 12.575,1.310 12.628,2.208 13.525 C 3.141 14.458,3.182 14.489,3.480 14.492 C 3.815 14.495,3.761 14.538,5.315 12.990 C 6.304 12.005,6.743 11.550,6.787 11.464 C 6.974 11.100,6.835 10.655,6.476 10.471 C 6.292 10.377,6.069 10.356,5.880 10.416 M9.467 12.562 C 9.294 12.641,9.184 12.733,9.107 12.863 C 8.871 13.266,9.051 13.779,9.488 13.946 C 9.626 13.999,9.683 14.000,12.489 14.000 C 15.759 14.000,15.535 14.015,15.775 13.775 C 16.134 13.416,16.053 12.857,15.604 12.593 L 15.480 12.520 12.533 12.514 C 9.618 12.507,9.585 12.508,9.467 12.562 " stroke="none" fill-rule="evenodd" fill="black"></path></svg>