<svg xmlns="http://www.w3.org/2000/svg" width="16" height="16" viewBox="0 0 16 16"><path d="M12.467 0.185 C 12.274 0.227,12.058 0.321,11.887 0.437 C 11.795 0.499,9.230 2.247,6.187 4.321 C 2.065 7.129,0.613 8.132,0.493 8.253 C 0.207 8.542,0.070 8.882,0.072 9.307 C 0.072 9.663,0.122 9.787,0.595 10.613 C 0.943 11.221,1.027 11.347,1.190 11.513 C 1.414 11.740,1.658 11.870,1.989 11.938 C 2.229 11.988,2.490 11.965,2.750 11.871 C 2.962 11.795,15.082 5.954,15.252 5.846 C 15.817 5.488,16.073 4.776,15.869 4.133 C 15.833 4.020,15.497 3.411,14.897 2.373 C 14.137 1.059,13.953 0.759,13.823 0.624 C 13.548 0.339,13.212 0.189,12.813 0.172 C 12.681 0.167,12.525 0.173,12.467 0.185 M11.626 4.315 C 12.037 5.029,12.343 5.587,12.330 5.600 C 12.299 5.629,11.010 6.246,11.002 6.235 C 10.998 6.230,10.681 5.681,10.297 5.015 C 9.790 4.137,9.607 3.798,9.632 3.783 C 9.651 3.773,9.930 3.584,10.252 3.364 C 10.766 3.014,10.842 2.970,10.868 3.009 C 10.884 3.033,11.225 3.621,11.626 4.315 M4.608 7.420 C 4.651 7.497,4.863 7.864,5.077 8.235 L 5.466 8.911 4.809 9.230 C 4.447 9.405,4.138 9.544,4.122 9.538 C 4.096 9.528,3.320 8.206,3.301 8.140 C 3.295 8.115,4.460 7.289,4.511 7.282 C 4.520 7.281,4.564 7.343,4.608 7.420 M8.680 10.157 C 8.611 10.176,7.857 10.533,6.878 11.010 C 6.724 11.085,6.560 11.186,6.516 11.233 C 6.405 11.351,4.350 14.358,4.299 14.478 C 4.201 14.706,4.266 15.049,4.447 15.255 C 4.690 15.532,5.184 15.571,5.469 15.336 C 5.520 15.293,5.994 14.628,6.521 13.857 L 7.480 12.455 7.493 13.941 L 7.507 15.427 7.581 15.579 C 7.702 15.825,7.921 15.971,8.199 15.993 C 8.561 16.021,8.878 15.788,8.972 15.427 C 9.007 15.294,9.013 15.043,9.013 13.857 L 9.013 12.446 9.950 13.816 C 10.465 14.570,10.918 15.221,10.956 15.262 C 11.089 15.405,11.242 15.474,11.456 15.488 C 11.638 15.499,11.668 15.494,11.830 15.414 C 12.012 15.324,12.137 15.187,12.205 15.005 C 12.255 14.870,12.246 14.590,12.189 14.463 C 12.132 14.337,9.499 10.480,9.391 10.364 C 9.236 10.198,8.896 10.099,8.680 10.157 " stroke="none" fill-rule="evenodd" fill="black"></path></svg>