<svg xmlns="http://www.w3.org/2000/svg" width="24" height="24" viewBox="0 0 24 24"><path d="M17.886 1.002 C 17.612 1.041,17.352 1.139,17.100 1.300 C 16.414 1.736,0.904 12.562,0.748 12.714 C 0.345 13.105,0.152 13.561,0.151 14.120 C 0.151 14.619,0.251 14.865,0.960 16.100 C 1.639 17.283,1.890 17.602,2.310 17.815 C 2.749 18.038,3.278 18.099,3.736 17.979 C 3.863 17.946,8.035 15.989,13.007 13.629 C 20.316 10.161,22.090 9.304,22.277 9.153 C 22.569 8.917,22.785 8.593,22.910 8.204 C 22.994 7.943,23.005 7.846,22.989 7.520 C 22.976 7.256,22.943 7.073,22.882 6.920 C 22.833 6.799,22.133 5.613,21.327 4.284 C 20.272 2.547,19.795 1.799,19.630 1.619 C 19.189 1.141,18.533 0.909,17.886 1.002 M18.496 2.610 C 18.570 2.681,19.274 3.800,20.061 5.096 C 21.610 7.647,21.584 7.594,21.415 7.883 C 21.349 7.997,21.125 8.115,19.542 8.866 C 18.553 9.336,17.732 9.707,17.718 9.690 C 17.656 9.620,14.754 4.753,14.766 4.741 C 14.774 4.734,15.507 4.222,16.396 3.604 C 17.910 2.552,18.024 2.480,18.187 2.480 C 18.329 2.480,18.386 2.504,18.496 2.610 M14.958 8.013 C 15.733 9.307,16.361 10.371,16.354 10.377 C 16.287 10.431,7.699 14.480,7.671 14.470 C 7.650 14.463,7.192 13.694,6.653 12.760 C 5.743 11.185,5.677 11.058,5.746 11.012 C 5.787 10.985,7.548 9.759,9.660 8.288 C 11.772 6.816,13.511 5.623,13.524 5.636 C 13.538 5.649,14.183 6.719,14.958 8.013 M5.378 13.555 C 5.877 14.422,6.271 15.144,6.253 15.161 C 6.235 15.177,5.581 15.494,4.800 15.864 C 3.282 16.584,3.187 16.615,2.972 16.455 C 2.905 16.406,2.612 15.944,2.248 15.316 C 1.667 14.316,1.636 14.251,1.653 14.085 C 1.665 13.968,1.705 13.877,1.773 13.809 C 1.930 13.652,4.417 11.927,4.445 11.955 C 4.459 11.969,4.879 12.689,5.378 13.555 M12.583 15.269 C 12.466 15.299,9.803 16.512,9.616 16.621 C 9.472 16.705,9.243 17.037,7.780 19.282 C 6.860 20.693,6.085 21.913,6.056 21.993 C 5.979 22.208,5.988 22.321,6.099 22.542 C 6.289 22.921,6.716 23.066,7.098 22.881 C 7.304 22.781,7.224 22.897,9.341 19.633 L 10.500 17.847 10.733 17.743 C 10.861 17.687,10.973 17.640,10.983 17.640 C 10.992 17.640,11.000 18.890,11.000 20.418 C 11.000 22.271,11.015 23.264,11.044 23.399 C 11.068 23.511,11.134 23.658,11.192 23.727 C 11.386 23.958,11.756 24.060,12.027 23.958 C 12.149 23.912,12.378 23.709,12.453 23.580 C 12.487 23.522,12.505 22.632,12.520 20.283 L 12.540 17.065 14.318 19.843 C 15.296 21.370,16.161 22.686,16.240 22.766 C 16.699 23.236,17.489 22.903,17.489 22.239 C 17.489 22.137,17.457 21.992,17.419 21.917 C 17.233 21.558,13.339 15.527,13.233 15.434 C 13.068 15.289,12.786 15.217,12.583 15.269 " stroke="none" fill-rule="evenodd" fill="black"></path></svg>