<svg xmlns="http://www.w3.org/2000/svg" width="24" height="24" viewBox="0 0 24 24"><path d="M17.886 1.002 C 17.612 1.041,17.352 1.139,17.100 1.300 C 16.414 1.736,0.904 12.562,0.748 12.714 C 0.345 13.105,0.152 13.561,0.151 14.120 C 0.151 14.619,0.251 14.865,0.960 16.100 C 1.639 17.283,1.890 17.602,2.310 17.815 C 2.749 18.038,3.278 18.099,3.736 17.979 C 3.863 17.946,8.035 15.989,13.007 13.629 C 20.316 10.161,22.090 9.304,22.277 9.153 C 22.569 8.917,22.785 8.593,22.910 8.204 C 22.994 7.943,23.005 7.846,22.989 7.520 C 22.976 7.256,22.943 7.073,22.882 6.920 C 22.833 6.799,22.133 5.613,21.327 4.284 C 20.272 2.547,19.795 1.799,19.630 1.619 C 19.189 1.141,18.533 0.909,17.886 1.002 M16.201 7.180 C 16.978 8.478,17.640 9.581,17.672 9.631 C 17.729 9.720,17.723 9.725,17.064 10.041 C 16.698 10.216,16.390 10.360,16.381 10.360 C 16.369 10.360,13.634 5.820,13.534 5.633 C 13.512 5.592,14.731 4.755,14.762 4.790 C 14.777 4.806,15.424 5.882,16.201 7.180 M6.680 12.813 C 7.212 13.734,7.636 14.498,7.622 14.511 C 7.598 14.536,6.304 15.154,6.296 15.145 C 6.293 15.142,5.913 14.483,5.450 13.680 C 4.988 12.877,4.570 12.154,4.523 12.073 L 4.436 11.926 5.045 11.502 C 5.380 11.269,5.667 11.092,5.684 11.109 C 5.700 11.126,6.149 11.893,6.680 12.813 M12.583 15.267 C 12.458 15.302,9.795 16.517,9.616 16.621 C 9.472 16.705,9.243 17.037,7.780 19.282 C 6.860 20.693,6.085 21.913,6.056 21.993 C 5.979 22.208,5.988 22.321,6.099 22.542 C 6.289 22.921,6.716 23.066,7.098 22.881 C 7.304 22.781,7.224 22.897,9.341 19.633 L 10.500 17.847 10.733 17.743 C 10.861 17.687,10.973 17.640,10.983 17.640 C 10.992 17.640,11.000 18.890,11.000 20.418 C 11.000 22.271,11.015 23.264,11.044 23.399 C 11.068 23.511,11.134 23.658,11.192 23.727 C 11.386 23.958,11.756 24.060,12.027 23.958 C 12.149 23.912,12.378 23.709,12.453 23.580 C 12.487 23.522,12.505 22.632,12.520 20.283 L 12.540 17.065 14.318 19.843 C 15.296 21.370,16.161 22.686,16.240 22.766 C 16.699 23.235,17.489 22.903,17.489 22.240 C 17.489 22.131,17.455 21.990,17.407 21.897 C 17.362 21.811,16.419 20.327,15.311 18.600 C 13.523 15.812,13.279 15.450,13.137 15.372 C 12.970 15.279,12.714 15.231,12.583 15.267 " stroke="none" fill-rule="evenodd" fill="black"></path></svg>