<svg xmlns="http://www.w3.org/2000/svg" width="16" height="16" viewBox="0 0 16 16"><path d="M12.467 0.283 C 12.437 0.289,12.347 0.307,12.267 0.323 C 12.186 0.339,12.049 0.383,11.962 0.422 C 11.875 0.460,9.343 2.168,6.335 4.216 C 0.303 8.324,0.557 8.140,0.351 8.561 C 0.206 8.857,0.157 9.053,0.155 9.350 C 0.152 9.771,0.209 9.932,0.613 10.641 C 1.029 11.370,1.303 11.633,1.827 11.805 C 2.006 11.864,2.089 11.875,2.347 11.876 C 2.622 11.877,2.677 11.869,2.880 11.796 C 3.005 11.752,5.777 10.429,9.040 8.857 C 13.488 6.715,15.017 5.966,15.148 5.868 C 15.571 5.551,15.838 5.009,15.840 4.464 C 15.840 4.227,15.761 3.914,15.643 3.684 C 15.462 3.330,14.162 1.105,14.043 0.944 C 13.819 0.641,13.408 0.389,13.008 0.308 C 12.816 0.269,12.590 0.259,12.467 0.283 M12.787 1.810 C 12.847 1.847,13.042 2.163,13.579 3.096 C 13.970 3.777,14.303 4.367,14.319 4.409 C 14.353 4.500,14.332 4.594,14.264 4.656 C 14.236 4.681,13.760 4.920,13.207 5.188 C 12.320 5.615,12.196 5.668,12.167 5.632 C 12.077 5.520,10.693 3.089,10.706 3.067 C 10.729 3.031,12.516 1.818,12.591 1.788 C 12.680 1.753,12.697 1.754,12.787 1.810 M10.143 5.145 C 10.518 5.797,10.823 6.332,10.819 6.335 C 10.783 6.362,5.409 8.937,5.403 8.930 C 5.370 8.890,4.480 7.330,4.481 7.314 C 4.483 7.281,9.425 3.923,9.443 3.942 C 9.453 3.952,9.767 4.493,10.143 5.145 M3.643 8.887 L 4.049 9.587 3.378 9.915 C 3.009 10.096,2.625 10.280,2.525 10.323 C 2.344 10.403,2.344 10.403,2.248 10.355 C 2.167 10.314,2.112 10.237,1.903 9.869 C 1.753 9.606,1.653 9.402,1.653 9.357 C 1.653 9.316,1.680 9.252,1.713 9.214 C 1.780 9.137,3.207 8.158,3.225 8.176 C 3.231 8.183,3.419 8.503,3.643 8.887 M8.627 10.181 C 8.553 10.207,8.081 10.427,7.577 10.668 C 6.895 10.995,6.631 11.134,6.546 11.213 C 6.376 11.372,4.347 14.350,4.285 14.533 C 4.222 14.715,4.238 14.887,4.334 15.084 C 4.539 15.503,5.095 15.627,5.463 15.336 C 5.523 15.288,5.928 14.722,6.520 13.855 L 7.480 12.452 7.493 13.939 L 7.507 15.427 7.581 15.579 C 7.862 16.150,8.671 16.127,8.937 15.539 L 9.000 15.400 9.008 13.924 L 9.016 12.449 9.950 13.818 C 10.464 14.571,10.923 15.227,10.969 15.276 C 11.097 15.411,11.241 15.473,11.456 15.487 C 11.607 15.497,11.669 15.489,11.768 15.445 C 11.967 15.357,12.072 15.260,12.159 15.087 C 12.257 14.890,12.270 14.641,12.190 14.466 C 12.134 14.342,9.497 10.478,9.391 10.364 C 9.212 10.173,8.872 10.091,8.627 10.181 " stroke="none" fill-rule="evenodd" fill="black"></path></svg>