<svg xmlns="http://www.w3.org/2000/svg" width="24" height="24" viewBox="0 0 24 24"><path d="M1.340 3.056 C 0.695 3.217,0.175 3.748,0.039 4.387 C 0.012 4.516,0.002 7.078,0.009 12.120 L 0.020 19.660 0.113 19.880 C 0.305 20.335,0.664 20.693,1.122 20.887 L 1.340 20.980 12.000 20.980 L 22.660 20.980 22.878 20.887 C 23.336 20.693,23.695 20.335,23.887 19.880 L 23.980 19.660 23.991 12.120 C 23.998 7.078,23.988 4.516,23.961 4.387 C 23.821 3.732,23.271 3.186,22.608 3.045 C 22.287 2.977,1.616 2.988,1.340 3.056 M22.435 4.574 C 22.468 4.614,22.478 6.591,22.470 12.023 L 22.460 19.418 22.360 19.468 C 22.213 19.543,1.787 19.543,1.640 19.468 L 1.540 19.418 1.530 12.023 C 1.522 6.591,1.532 4.614,1.565 4.574 C 1.632 4.493,22.368 4.493,22.435 4.574 M5.507 8.521 C 5.334 8.573,5.139 8.740,5.061 8.904 C 4.980 9.075,4.969 9.385,5.040 9.524 C 5.066 9.577,5.622 10.155,6.274 10.810 L 7.459 11.999 6.272 13.190 C 5.406 14.058,5.078 14.412,5.059 14.500 C 5.045 14.566,5.025 14.645,5.016 14.676 C 5.006 14.707,5.025 14.826,5.059 14.942 C 5.212 15.469,5.822 15.641,6.269 15.282 C 6.374 15.198,7.065 14.520,7.805 13.775 C 8.855 12.717,9.160 12.386,9.199 12.265 C 9.271 12.044,9.232 11.751,9.107 11.571 C 9.050 11.488,8.377 10.796,7.611 10.032 C 6.181 8.606,6.027 8.478,5.740 8.484 C 5.674 8.486,5.569 8.502,5.507 8.521 M10.935 14.077 C 10.845 14.118,10.724 14.212,10.668 14.286 C 10.569 14.416,10.472 14.721,10.500 14.815 C 10.507 14.840,10.524 14.909,10.537 14.969 C 10.567 15.105,10.771 15.342,10.936 15.432 C 11.048 15.494,11.300 15.501,13.617 15.511 C 15.384 15.519,16.240 15.509,16.388 15.478 C 17.109 15.329,17.211 14.379,16.540 14.075 C 16.390 14.006,16.208 14.002,13.740 14.002 C 11.247 14.002,11.091 14.006,10.935 14.077 " stroke="none" fill-rule="evenodd" fill="black"></path></svg>