<svg xmlns="http://www.w3.org/2000/svg" width="16" height="16" viewBox="0 0 16 16"><path d="M1.324 1.056 C 0.842 1.172,0.415 1.522,0.185 1.987 C -0.012 2.384,0.001 1.968,0.001 8.000 C 0.001 14.033,-0.012 13.617,0.185 14.013 C 0.418 14.483,0.788 14.792,1.294 14.939 L 1.507 15.000 8.000 15.000 L 14.493 15.000 14.702 14.940 C 14.966 14.863,15.124 14.783,15.322 14.624 C 15.643 14.367,15.881 13.990,15.960 13.613 C 16.019 13.333,16.019 2.667,15.960 2.387 C 15.827 1.752,15.293 1.203,14.664 1.054 C 14.514 1.019,13.703 1.014,7.987 1.016 C 2.464 1.018,1.456 1.023,1.324 1.056 M14.377 2.535 C 14.513 2.608,14.507 2.359,14.507 8.000 C 14.507 13.641,14.513 13.392,14.377 13.465 C 14.303 13.504,1.699 13.505,1.625 13.466 C 1.486 13.391,1.493 13.702,1.493 8.000 C 1.493 2.323,1.487 2.613,1.620 2.535 C 1.687 2.496,14.304 2.496,14.377 2.535 M3.992 5.025 C 3.677 5.137,3.485 5.414,3.488 5.749 C 3.490 6.026,3.524 6.068,4.527 7.073 L 5.453 8.000 4.529 8.927 C 4.021 9.436,3.586 9.892,3.562 9.940 C 3.322 10.420,3.682 11.012,4.215 11.013 C 4.548 11.014,4.503 11.049,5.858 9.699 C 6.720 8.840,7.112 8.431,7.165 8.336 C 7.229 8.220,7.240 8.170,7.239 8.000 C 7.239 7.836,7.226 7.776,7.168 7.667 C 7.117 7.570,6.757 7.194,5.862 6.304 C 4.752 5.199,4.613 5.069,4.495 5.030 C 4.337 4.978,4.130 4.976,3.992 5.025 M8.555 9.530 C 8.125 9.648,7.895 10.098,8.054 10.512 C 8.145 10.751,8.324 10.908,8.579 10.974 C 8.720 11.010,8.958 11.014,10.325 11.008 L 11.907 11.000 12.046 10.937 C 12.203 10.866,12.376 10.694,12.443 10.542 C 12.509 10.390,12.506 10.097,12.436 9.947 C 12.366 9.796,12.215 9.646,12.056 9.567 L 11.933 9.507 10.307 9.501 C 9.050 9.497,8.652 9.504,8.555 9.530 " stroke="none" fill-rule="evenodd" fill="black"></path></svg>