<svg xmlns="http://www.w3.org/2000/svg" width="16" height="16" viewBox="0 0 16 16"><path d="M1.504 2.049 C 1.259 2.134,1.094 2.317,1.027 2.579 C 0.982 2.752,1.002 2.943,1.081 3.095 C 1.140 3.209,1.303 3.366,1.428 3.428 C 1.532 3.479,1.623 3.480,8.000 3.480 C 14.377 3.480,14.468 3.479,14.572 3.428 C 14.895 3.268,15.060 2.918,14.973 2.579 C 14.906 2.317,14.741 2.134,14.496 2.049 C 14.368 2.004,14.002 2.002,8.000 2.002 C 1.998 2.002,1.632 2.004,1.504 2.049 M1.420 7.082 C 0.852 7.365,0.875 8.172,1.458 8.446 C 1.555 8.491,1.865 8.493,8.000 8.493 C 14.135 8.493,14.445 8.491,14.542 8.446 C 15.124 8.172,15.147 7.364,14.580 7.082 L 14.443 7.013 8.000 7.013 L 1.557 7.013 1.420 7.082 M1.504 12.049 C 1.259 12.134,1.094 12.317,1.027 12.579 C 0.982 12.752,1.002 12.943,1.081 13.095 C 1.140 13.209,1.303 13.366,1.428 13.428 C 1.532 13.479,1.623 13.480,8.000 13.480 C 14.377 13.480,14.468 13.479,14.572 13.428 C 14.895 13.268,15.060 12.918,14.973 12.579 C 14.906 12.317,14.741 12.134,14.496 12.049 C 14.368 12.004,14.002 12.002,8.000 12.002 C 1.998 12.002,1.632 12.004,1.504 12.049 " stroke="none" fill-rule="evenodd" fill="black"></path></svg>