<svg xmlns="http://www.w3.org/2000/svg" width="24" height="24" viewBox="0 0 24 24"><path d="M11.945 2.103 C 11.371 2.243,10.794 2.712,10.540 3.247 C 10.324 3.702,10.282 3.978,10.281 4.940 C 10.280 5.498,10.259 5.906,10.219 6.157 C 10.009 7.448,9.269 8.510,8.089 9.210 C 7.775 9.397,7.382 9.564,7.136 9.617 C 7.012 9.644,7.012 9.643,6.967 9.422 C 6.831 8.741,6.285 8.189,5.608 8.045 C 5.330 7.986,3.670 7.986,3.392 8.045 C 2.729 8.186,2.179 8.732,2.039 9.387 C 2.012 9.515,2.002 11.436,2.009 15.120 L 2.020 20.660 2.113 20.880 C 2.306 21.335,2.667 21.695,3.122 21.886 C 3.326 21.972,3.405 21.979,4.371 21.992 C 5.015 22.001,5.479 21.990,5.604 21.963 C 6.252 21.824,6.813 21.276,6.955 20.642 C 6.976 20.550,7.004 20.463,7.018 20.449 C 7.055 20.412,7.723 20.506,8.217 20.619 C 8.458 20.674,9.169 20.863,9.797 21.039 C 12.309 21.743,13.520 21.945,15.480 21.988 C 17.423 22.030,18.515 21.881,19.399 21.453 C 19.721 21.297,19.832 21.215,20.144 20.903 C 20.473 20.574,20.534 20.489,20.733 20.078 C 21.076 19.373,21.250 18.671,21.476 17.080 C 21.829 14.598,21.898 13.809,21.869 12.547 C 21.852 11.829,21.829 11.536,21.766 11.249 C 21.488 9.968,20.972 9.221,20.060 8.778 C 19.397 8.456,19.232 8.431,17.520 8.404 C 16.051 8.380,16.020 8.378,16.029 8.300 C 16.034 8.256,16.085 7.842,16.143 7.380 C 16.583 3.870,15.696 2.379,12.992 2.083 C 12.493 2.028,12.237 2.033,11.945 2.103 M13.400 3.661 C 14.450 3.897,14.738 4.385,14.734 5.920 C 14.732 6.453,14.706 6.806,14.623 7.400 C 14.470 8.503,14.454 8.821,14.537 9.071 C 14.627 9.341,14.870 9.610,15.151 9.748 L 15.380 9.860 17.080 9.884 C 18.484 9.904,18.820 9.919,19.011 9.974 C 19.893 10.225,20.241 10.786,20.363 12.160 C 20.435 12.976,20.359 14.108,20.098 16.060 C 19.667 19.294,19.426 19.894,18.417 20.241 C 17.571 20.532,15.350 20.587,13.636 20.358 C 12.561 20.215,11.814 20.047,10.063 19.555 C 8.712 19.175,8.014 19.023,7.230 18.939 L 7.000 18.914 7.010 15.029 L 7.020 11.143 7.320 11.096 C 7.726 11.033,8.060 10.914,8.560 10.656 C 10.041 9.893,11.105 8.634,11.541 7.130 C 11.725 6.499,11.767 6.151,11.789 5.074 C 11.809 4.121,11.816 4.037,11.896 3.895 C 11.943 3.811,12.044 3.699,12.121 3.647 C 12.252 3.557,12.285 3.553,12.680 3.573 C 12.911 3.584,13.235 3.624,13.400 3.661 M5.432 9.568 C 5.469 9.605,5.480 10.866,5.480 15.003 C 5.480 19.965,5.475 20.395,5.414 20.445 C 5.362 20.488,5.160 20.500,4.500 20.500 C 3.840 20.500,3.638 20.488,3.586 20.445 C 3.525 20.395,3.520 19.965,3.520 15.003 C 3.520 10.866,3.531 9.605,3.568 9.568 C 3.636 9.500,5.364 9.500,5.432 9.568 " stroke="none" fill-rule="evenodd" fill="black"></path></svg>