<svg xmlns="http://www.w3.org/2000/svg" width="16" height="16" viewBox="0 0 16 16"><path d="M3.915 0.080 C 1.863 0.215,0.991 0.887,0.572 2.657 C 0.398 3.393,0.099 5.575,0.024 6.653 C -0.014 7.202,0.007 8.067,0.067 8.450 C 0.265 9.720,0.826 10.494,1.799 10.842 C 2.271 11.010,2.553 11.044,3.634 11.060 L 4.588 11.074 4.573 11.157 C 4.441 11.922,4.390 13.071,4.464 13.602 C 4.605 14.612,5.022 15.257,5.773 15.629 C 6.443 15.960,7.349 16.085,7.880 15.920 C 8.641 15.682,9.204 15.046,9.371 14.234 C 9.399 14.099,9.413 13.889,9.413 13.617 C 9.413 12.387,9.675 11.674,10.373 11.004 C 10.669 10.720,10.956 10.521,11.360 10.319 L 11.639 10.180 11.692 10.257 C 11.721 10.299,11.841 10.429,11.959 10.547 C 12.118 10.705,12.225 10.786,12.373 10.858 C 12.744 11.040,12.829 11.053,13.667 11.052 C 14.503 11.052,14.591 11.039,14.960 10.859 C 15.255 10.716,15.581 10.384,15.728 10.079 C 15.933 9.654,15.922 9.909,15.914 5.453 L 15.907 1.480 15.832 1.261 C 15.653 0.732,15.254 0.336,14.706 0.142 L 14.493 0.067 13.667 0.067 L 12.840 0.067 12.627 0.142 C 12.225 0.284,11.933 0.507,11.708 0.843 C 11.635 0.953,11.561 1.090,11.543 1.148 C 11.526 1.206,11.503 1.253,11.492 1.253 C 11.352 1.253,10.637 1.079,9.720 0.822 C 8.201 0.396,7.383 0.229,6.293 0.120 C 5.807 0.071,4.399 0.048,3.915 0.080 M5.560 1.574 C 6.727 1.635,7.616 1.793,9.032 2.190 C 10.060 2.478,10.761 2.653,11.118 2.710 L 11.414 2.757 11.407 5.713 L 11.400 8.669 11.139 8.774 C 9.294 9.516,8.154 10.930,7.948 12.733 C 7.933 12.865,7.920 13.171,7.920 13.413 C 7.920 13.655,7.912 13.899,7.903 13.954 C 7.876 14.118,7.736 14.321,7.589 14.412 C 7.475 14.483,7.435 14.493,7.282 14.489 C 7.186 14.487,7.017 14.466,6.907 14.443 C 6.169 14.287,5.968 13.996,5.929 13.027 C 5.912 12.617,5.930 12.389,6.058 11.406 C 6.136 10.809,6.141 10.728,6.112 10.559 C 6.036 10.118,5.750 9.782,5.313 9.620 C 5.168 9.567,5.095 9.563,3.880 9.546 C 2.501 9.527,2.480 9.524,2.173 9.374 C 1.776 9.180,1.578 8.715,1.519 7.838 C 1.472 7.144,1.535 6.317,1.761 4.662 C 2.067 2.414,2.241 1.982,2.936 1.749 C 3.417 1.589,4.482 1.517,5.560 1.574 M14.339 1.634 L 14.413 1.708 14.421 5.447 C 14.426 7.504,14.422 9.239,14.412 9.303 C 14.402 9.374,14.371 9.445,14.332 9.483 C 14.269 9.546,14.265 9.547,13.667 9.547 L 13.064 9.547 12.999 9.481 L 12.933 9.416 12.933 5.553 L 12.933 1.689 12.993 1.635 C 13.026 1.605,13.071 1.573,13.093 1.565 C 13.115 1.556,13.388 1.552,13.699 1.555 L 14.266 1.560 14.339 1.634 " stroke="none" fill-rule="evenodd" fill="black"></path></svg>