<svg xmlns="http://www.w3.org/2000/svg" width="24" height="24" viewBox="0 0 24 24"><path d="M3.340 2.056 C 2.695 2.217,2.176 2.747,2.039 3.387 C 2.012 3.515,2.002 5.436,2.009 9.120 L 2.020 14.660 2.113 14.878 C 2.307 15.336,2.667 15.697,3.120 15.886 C 3.326 15.972,3.403 15.979,4.371 15.992 C 5.015 16.001,5.479 15.990,5.604 15.963 C 6.273 15.819,6.822 15.266,6.965 14.593 C 6.989 14.476,7.013 14.376,7.018 14.370 C 7.046 14.337,7.532 14.505,7.810 14.645 C 8.699 15.092,9.371 15.732,9.778 16.521 C 10.171 17.281,10.279 17.829,10.281 19.060 C 10.281 19.645,10.299 19.985,10.340 20.179 C 10.522 21.035,11.143 21.693,11.971 21.906 C 12.621 22.074,14.137 21.803,14.827 21.396 C 15.122 21.222,15.581 20.763,15.755 20.469 C 16.246 19.636,16.368 18.347,16.129 16.510 L 16.016 15.640 17.098 15.639 C 18.792 15.637,19.377 15.554,20.060 15.222 C 20.972 14.779,21.488 14.032,21.766 12.751 C 21.829 12.464,21.852 12.171,21.869 11.453 C 21.898 10.191,21.829 9.402,21.476 6.920 C 21.252 5.340,21.076 4.627,20.742 3.939 C 20.197 2.818,19.268 2.264,17.620 2.080 C 16.994 2.009,15.542 1.987,14.780 2.036 C 13.179 2.138,11.958 2.358,10.087 2.883 C 8.445 3.344,7.801 3.494,7.132 3.571 C 7.008 3.585,7.002 3.580,6.962 3.390 C 6.820 2.731,6.272 2.186,5.608 2.045 C 5.316 1.983,3.601 1.992,3.340 2.056 M5.432 3.568 C 5.469 3.605,5.480 4.866,5.480 9.003 C 5.480 13.965,5.475 14.395,5.414 14.445 C 5.362 14.488,5.160 14.500,4.500 14.500 C 3.840 14.500,3.638 14.488,3.586 14.445 C 3.525 14.395,3.520 13.965,3.520 9.003 C 3.520 4.866,3.531 3.605,3.568 3.568 C 3.636 3.500,5.364 3.500,5.432 3.568 M17.700 3.597 C 19.150 3.828,19.520 4.292,19.859 6.300 C 19.992 7.094,20.222 8.826,20.296 9.600 C 20.466 11.370,20.394 12.489,20.064 13.180 C 19.850 13.630,19.548 13.873,19.011 14.027 C 18.819 14.082,18.493 14.097,17.080 14.117 L 15.380 14.140 15.151 14.252 C 14.870 14.390,14.627 14.659,14.537 14.929 C 14.454 15.179,14.470 15.497,14.623 16.600 C 14.706 17.194,14.732 17.547,14.734 18.080 C 14.739 19.816,14.376 20.256,12.792 20.436 C 12.283 20.494,12.044 20.402,11.884 20.086 C 11.819 19.959,11.807 19.806,11.789 18.920 C 11.767 17.850,11.724 17.499,11.541 16.870 C 11.189 15.654,10.432 14.602,9.353 13.828 C 8.645 13.319,7.618 12.881,7.130 12.880 L 7.000 12.880 7.000 8.986 L 7.000 5.091 7.410 5.045 C 7.927 4.986,8.653 4.837,9.310 4.655 C 11.208 4.129,11.767 3.984,12.375 3.861 C 12.989 3.736,13.998 3.589,14.540 3.546 C 14.946 3.514,17.429 3.554,17.700 3.597 " stroke="none" fill-rule="evenodd" fill="black"></path></svg>