<svg xmlns="http://www.w3.org/2000/svg" width="16" height="16" viewBox="0 0 16 16"><path d="M8.255 0.080 C 7.887 0.147,7.516 0.334,7.237 0.594 C 6.914 0.897,6.736 1.176,6.600 1.600 C 6.532 1.811,6.525 1.873,6.505 2.493 C 6.492 2.864,6.464 3.262,6.442 3.390 C 6.263 4.399,5.613 5.210,4.561 5.734 L 4.282 5.874 4.216 5.783 C 4.058 5.568,3.771 5.317,3.557 5.206 C 3.216 5.030,3.109 5.014,2.253 5.014 C 1.430 5.014,1.298 5.031,0.996 5.175 C 0.649 5.341,0.364 5.626,0.185 5.987 C -0.012 6.383,-0.002 6.126,0.006 10.580 L 0.013 14.573 0.087 14.790 C 0.267 15.320,0.680 15.733,1.211 15.914 L 1.427 15.987 2.253 15.987 L 3.080 15.987 3.293 15.911 C 3.759 15.747,4.102 15.450,4.299 15.040 L 4.413 14.804 4.507 14.818 C 4.785 14.860,5.201 14.958,5.760 15.112 C 7.148 15.494,7.347 15.546,7.752 15.636 C 8.990 15.913,10.053 16.017,11.360 15.992 C 12.597 15.968,13.286 15.850,13.853 15.566 C 14.622 15.181,15.061 14.547,15.335 13.427 C 15.517 12.687,15.820 10.485,15.896 9.360 C 15.932 8.822,15.913 8.039,15.854 7.634 C 15.668 6.347,15.087 5.546,14.089 5.198 C 13.656 5.047,13.526 5.033,12.393 5.021 C 11.810 5.014,11.333 5.003,11.333 4.996 C 11.333 4.989,11.366 4.741,11.406 4.445 C 11.469 3.976,11.479 3.818,11.479 3.213 C 11.479 2.465,11.458 2.282,11.316 1.830 C 11.020 0.889,10.365 0.349,9.260 0.132 C 8.937 0.069,8.453 0.044,8.255 0.080 M8.787 1.574 C 9.217 1.636,9.540 1.757,9.685 1.911 C 9.791 2.024,9.883 2.228,9.936 2.467 C 10.011 2.813,10.000 3.610,9.910 4.267 C 9.783 5.194,9.773 5.316,9.806 5.509 C 9.863 5.840,10.044 6.113,10.330 6.298 C 10.627 6.489,10.615 6.488,12.027 6.507 C 13.394 6.526,13.439 6.530,13.750 6.681 C 13.904 6.756,14.075 6.927,14.158 7.089 C 14.241 7.252,14.338 7.612,14.370 7.880 C 14.413 8.224,14.407 9.162,14.359 9.707 C 14.284 10.560,14.025 12.408,13.905 12.947 C 13.618 14.234,13.274 14.445,11.387 14.497 C 9.830 14.540,8.646 14.364,6.601 13.787 C 5.717 13.537,5.292 13.433,4.862 13.359 C 4.693 13.330,4.544 13.307,4.531 13.307 C 4.516 13.307,4.509 12.099,4.513 10.345 L 4.520 7.382 4.747 7.295 C 6.130 6.760,7.235 5.708,7.688 4.493 C 7.906 3.909,7.974 3.513,7.997 2.680 C 8.015 2.054,8.017 2.037,8.087 1.902 C 8.166 1.751,8.291 1.640,8.447 1.585 C 8.568 1.541,8.557 1.542,8.787 1.574 M2.921 6.572 L 2.987 6.638 2.987 10.491 L 2.987 14.344 2.922 14.419 L 2.858 14.493 2.256 14.493 L 1.655 14.493 1.581 14.419 L 1.507 14.345 1.500 10.539 C 1.494 7.715,1.501 6.714,1.523 6.659 C 1.584 6.513,1.613 6.507,2.260 6.507 L 2.856 6.507 2.921 6.572 " stroke="none" fill-rule="evenodd" fill="black"></path></svg>