<svg xmlns="http://www.w3.org/2000/svg" width="24" height="24" viewBox="0 0 24 24"><path d="M7.460 0.854 C 7.214 0.935,7.047 1.032,6.720 1.281 C 4.829 2.724,3.672 4.715,3.315 7.140 C 3.237 7.665,3.248 8.913,3.334 9.480 C 3.734 12.096,5.208 14.345,7.415 15.704 C 7.588 15.810,7.756 15.938,7.788 15.987 C 7.841 16.067,7.829 16.427,7.684 19.189 C 7.562 21.506,7.531 22.338,7.562 22.449 C 7.646 22.750,7.970 22.998,8.280 22.998 C 8.591 22.998,8.919 22.746,8.996 22.448 C 9.064 22.185,9.362 16.047,9.318 15.821 C 9.261 15.529,9.071 15.152,8.873 14.937 C 8.778 14.833,8.493 14.613,8.240 14.448 C 7.652 14.066,7.376 13.853,6.985 13.480 C 5.867 12.415,5.117 10.979,4.833 9.360 C 4.752 8.894,4.765 7.516,4.856 7.020 C 5.193 5.176,6.202 3.532,7.658 2.451 C 7.879 2.287,7.901 2.279,7.948 2.345 C 7.989 2.401,8.000 2.934,8.000 4.899 C 8.000 7.604,8.002 7.633,8.229 8.050 C 8.407 8.376,8.730 8.624,9.944 9.368 C 11.462 10.297,11.468 10.300,12.000 10.300 C 12.532 10.300,12.538 10.297,14.056 9.368 C 15.270 8.624,15.593 8.376,15.771 8.050 C 15.998 7.633,16.000 7.604,16.000 4.899 C 16.000 2.934,16.011 2.401,16.052 2.345 C 16.099 2.279,16.121 2.287,16.342 2.451 C 17.797 3.531,18.813 5.187,19.144 7.020 C 19.234 7.520,19.248 8.900,19.167 9.360 C 18.893 10.917,18.230 12.232,17.164 13.333 C 16.818 13.690,16.329 14.079,15.760 14.447 C 15.093 14.879,14.847 15.180,14.701 15.740 C 14.642 15.966,14.648 16.171,14.802 19.140 C 14.892 20.878,14.983 22.367,15.004 22.448 C 15.081 22.746,15.409 22.998,15.720 22.998 C 16.030 22.998,16.355 22.750,16.438 22.449 C 16.469 22.339,16.437 21.494,16.316 19.189 C 16.167 16.356,16.158 16.069,16.214 15.983 C 16.249 15.931,16.417 15.803,16.588 15.699 C 17.053 15.418,17.606 14.989,18.031 14.584 C 20.317 12.398,21.256 9.158,20.482 6.124 C 19.977 4.144,18.897 2.514,17.269 1.272 C 16.782 0.901,16.577 0.820,16.120 0.820 C 15.776 0.820,15.714 0.832,15.473 0.947 C 15.326 1.016,15.123 1.149,15.022 1.242 C 14.794 1.452,14.576 1.886,14.521 2.240 C 14.497 2.394,14.480 3.479,14.480 4.904 C 14.480 7.143,14.475 7.312,14.410 7.370 C 14.224 7.535,12.089 8.812,12.000 8.812 C 11.911 8.812,9.776 7.535,9.590 7.370 C 9.525 7.312,9.520 7.143,9.520 4.904 C 9.520 3.479,9.503 2.394,9.479 2.240 C 9.352 1.424,8.725 0.842,7.942 0.813 C 7.749 0.806,7.556 0.822,7.460 0.854 " stroke="none" fill-rule="evenodd" fill="black"></path></svg>