<svg xmlns="http://www.w3.org/2000/svg" width="16" height="16" viewBox="0 0 16 16"><path d="M5.147 0.829 C 4.935 0.870,4.690 0.992,4.428 1.188 C 2.941 2.301,2.075 3.946,2.009 5.787 C 1.933 7.869,2.912 9.786,4.662 10.985 C 5.033 11.239,5.008 11.023,4.907 13.095 L 4.821 14.867 4.878 15.018 C 5.034 15.428,5.488 15.619,5.888 15.442 C 6.058 15.366,6.219 15.192,6.279 15.019 C 6.340 14.845,6.513 11.412,6.475 11.137 C 6.403 10.609,6.117 10.179,5.590 9.807 C 4.770 9.227,4.305 8.695,3.934 7.912 C 3.692 7.402,3.567 6.923,3.522 6.331 C 3.459 5.508,3.606 4.759,3.975 4.013 C 4.186 3.586,4.428 3.235,4.731 2.914 C 4.951 2.681,5.376 2.322,5.433 2.321 C 5.451 2.320,5.472 2.347,5.479 2.380 C 5.487 2.413,5.496 3.148,5.500 4.013 L 5.507 5.587 5.579 5.800 C 5.742 6.280,5.962 6.525,6.647 6.989 C 7.178 7.349,7.363 7.443,7.660 7.504 C 7.918 7.558,8.082 7.558,8.340 7.504 C 8.637 7.443,8.822 7.349,9.353 6.989 C 10.039 6.525,10.259 6.280,10.421 5.800 L 10.493 5.587 10.500 4.013 C 10.504 3.148,10.513 2.413,10.521 2.380 C 10.528 2.347,10.549 2.320,10.567 2.321 C 10.624 2.322,11.049 2.681,11.269 2.914 C 11.832 3.509,12.250 4.321,12.413 5.132 C 12.513 5.626,12.512 6.378,12.411 6.877 C 12.234 7.763,11.765 8.619,11.115 9.242 C 10.909 9.440,10.760 9.560,10.410 9.807 C 9.883 10.179,9.597 10.609,9.525 11.137 C 9.487 11.411,9.660 14.845,9.720 15.017 C 9.780 15.190,9.922 15.344,10.101 15.432 C 10.495 15.625,10.963 15.436,11.122 15.018 L 11.179 14.867 11.093 13.095 C 10.992 11.023,10.967 11.239,11.338 10.985 C 12.249 10.361,12.914 9.597,13.389 8.630 C 14.143 7.093,14.199 5.301,13.542 3.707 C 13.211 2.904,12.681 2.150,12.045 1.576 C 11.718 1.281,11.366 1.025,11.161 0.932 C 10.774 0.756,10.304 0.768,9.902 0.963 C 9.641 1.089,9.321 1.412,9.191 1.680 C 9.000 2.074,9.005 2.024,8.988 3.800 C 8.980 4.680,8.964 5.415,8.952 5.433 C 8.941 5.450,8.740 5.593,8.506 5.750 C 8.198 5.957,8.059 6.036,8.000 6.036 C 7.941 6.036,7.802 5.957,7.494 5.750 C 7.260 5.593,7.059 5.450,7.048 5.433 C 7.036 5.415,7.020 4.680,7.012 3.800 C 6.995 2.024,7.000 2.074,6.809 1.680 C 6.679 1.413,6.359 1.089,6.101 0.964 C 5.802 0.819,5.454 0.770,5.147 0.829 " stroke="none" fill-rule="evenodd" fill="black"></path></svg>