<svg xmlns="http://www.w3.org/2000/svg" width="16" height="16" viewBox="0 0 16 16"><path d="M6.436 0.028 C 6.160 0.076,5.810 0.248,5.593 0.443 C 5.455 0.567,5.262 0.812,5.187 0.959 C 5.029 1.270,5.007 1.417,4.994 2.247 L 4.981 3.013 3.777 3.014 L 2.573 3.014 2.440 3.076 C 2.264 3.158,2.099 3.341,2.040 3.519 C 1.944 3.809,2.049 4.154,2.291 4.339 C 2.523 4.518,2.125 4.507,8.000 4.507 C 13.875 4.507,13.477 4.518,13.709 4.339 C 13.951 4.154,14.056 3.809,13.960 3.519 C 13.901 3.341,13.736 3.158,13.560 3.076 L 13.427 3.014 12.223 3.014 L 11.020 3.013 11.006 2.247 C 10.995 1.641,10.983 1.446,10.947 1.320 C 10.781 0.726,10.351 0.275,9.760 0.074 C 9.590 0.016,9.559 0.015,8.080 0.010 C 7.251 0.007,6.511 0.015,6.436 0.028 M9.361 1.534 C 9.403 1.556,9.451 1.597,9.466 1.625 C 9.483 1.656,9.493 1.937,9.493 2.345 L 9.493 3.013 8.000 3.013 L 6.507 3.013 6.507 2.345 C 6.507 1.939,6.517 1.656,6.534 1.625 C 6.603 1.497,6.622 1.496,7.995 1.494 C 9.093 1.493,9.294 1.499,9.361 1.534 M3.609 6.001 C 3.386 6.046,3.181 6.198,3.084 6.391 C 2.977 6.602,2.973 6.528,3.334 10.142 C 3.543 12.226,3.695 13.639,3.722 13.730 C 3.803 14.013,3.943 14.239,4.185 14.482 C 4.360 14.656,4.460 14.732,4.613 14.806 C 5.039 15.012,4.822 15.000,8.000 15.000 C 11.178 15.000,10.961 15.012,11.387 14.806 C 11.540 14.732,11.640 14.656,11.815 14.482 C 12.063 14.233,12.206 13.999,12.280 13.718 C 12.321 13.565,12.984 7.095,12.990 6.799 C 12.995 6.486,12.853 6.244,12.584 6.110 C 12.280 5.958,11.959 6.010,11.719 6.251 C 11.619 6.352,11.573 6.425,11.540 6.533 C 11.513 6.626,11.378 7.875,11.175 9.933 C 10.998 11.723,10.846 13.227,10.838 13.276 C 10.830 13.326,10.794 13.395,10.759 13.430 L 10.696 13.493 8.000 13.493 L 5.304 13.493 5.241 13.430 C 5.206 13.395,5.170 13.326,5.161 13.276 C 5.153 13.227,5.002 11.729,4.826 9.947 C 4.649 8.143,4.488 6.633,4.464 6.541 C 4.368 6.169,3.983 5.926,3.609 6.001 " stroke="none" fill-rule="evenodd" fill="black"></path></svg>