<svg xmlns="http://www.w3.org/2000/svg" width="24" height="24" viewBox="0 0 24 24"><path d="M9.340 0.056 C 8.704 0.214,8.188 0.735,8.042 1.364 C 8.020 1.461,8.002 1.869,8.001 2.270 L 8.000 3.000 5.310 3.001 C 2.297 3.002,2.439 2.989,2.172 3.292 C 1.818 3.695,2.058 4.360,2.600 4.476 C 2.889 4.538,21.111 4.538,21.400 4.476 C 21.942 4.360,22.182 3.695,21.828 3.292 C 21.561 2.989,21.703 3.002,18.690 3.001 L 16.000 3.000 15.999 2.270 C 15.998 1.869,15.980 1.461,15.958 1.364 C 15.809 0.719,15.261 0.184,14.608 0.045 C 14.297 -0.021,9.612 -0.011,9.340 0.056 M14.432 1.568 C 14.466 1.602,14.480 1.823,14.480 2.308 L 14.480 3.000 12.000 3.000 L 9.520 3.000 9.520 2.308 C 9.520 1.823,9.534 1.602,9.568 1.568 C 9.637 1.499,14.363 1.499,14.432 1.568 M4.094 5.518 C 3.729 5.605,3.505 5.897,3.511 6.280 C 3.513 6.401,3.831 9.767,4.217 13.760 C 4.756 19.323,4.939 21.082,5.000 21.285 C 5.151 21.789,5.559 22.206,6.100 22.410 L 6.340 22.500 12.000 22.500 L 17.660 22.500 17.900 22.410 C 18.437 22.207,18.850 21.785,19.000 21.286 C 19.061 21.082,19.243 19.326,19.783 13.760 C 20.169 9.767,20.487 6.401,20.489 6.280 C 20.493 6.034,20.427 5.875,20.254 5.715 C 20.085 5.559,19.987 5.520,19.761 5.520 C 19.419 5.520,19.141 5.710,19.043 6.012 C 19.020 6.083,18.686 9.416,18.300 13.420 C 17.915 17.424,17.590 20.739,17.580 20.787 C 17.528 21.015,17.920 21.000,11.997 21.000 C 6.871 21.000,6.556 20.996,6.490 20.930 C 6.430 20.870,6.322 19.847,5.706 13.480 C 5.233 8.591,4.973 6.053,4.934 5.961 C 4.793 5.622,4.440 5.436,4.094 5.518 M8.898 7.595 C 8.731 7.696,8.570 7.896,8.526 8.056 C 8.480 8.222,8.973 16.742,9.042 16.980 C 9.107 17.204,9.347 17.422,9.584 17.473 C 9.687 17.495,9.792 17.507,9.816 17.500 C 9.840 17.493,9.909 17.476,9.969 17.463 C 10.106 17.433,10.343 17.227,10.429 17.064 C 10.518 16.896,10.521 16.970,10.241 12.226 C 9.990 7.976,9.987 7.944,9.808 7.747 C 9.608 7.526,9.140 7.447,8.898 7.595 M14.420 7.587 C 14.233 7.685,14.154 7.767,14.076 7.943 C 14.013 8.083,13.969 8.672,13.760 12.223 C 13.479 16.970,13.482 16.896,13.571 17.064 C 13.657 17.227,13.894 17.433,14.031 17.463 C 14.091 17.476,14.160 17.493,14.185 17.500 C 14.279 17.528,14.584 17.431,14.714 17.332 C 14.992 17.120,14.971 17.308,15.239 12.761 C 15.514 8.100,15.514 8.098,15.442 7.960 C 15.369 7.819,15.199 7.643,15.072 7.576 C 14.929 7.502,14.570 7.507,14.420 7.587 " stroke="none" fill-rule="evenodd" fill="black"></path></svg>