<svg xmlns="http://www.w3.org/2000/svg" width="16" height="16" viewBox="0 0 16 16"><path d="M4.366 1.521 C 4.065 1.572,3.723 1.804,3.550 2.076 C 3.459 2.220,0.036 11.976,0.010 12.168 C -0.044 12.559,0.349 12.987,0.762 12.987 C 0.998 12.987,1.306 12.798,1.411 12.590 C 1.438 12.537,1.656 11.932,1.896 11.247 L 2.332 10.000 4.520 10.000 L 6.707 10.000 7.117 11.233 C 7.343 11.912,7.555 12.522,7.589 12.590 C 7.720 12.851,8.001 13.005,8.304 12.980 C 8.582 12.958,8.804 12.802,8.924 12.547 C 9.057 12.263,9.157 12.603,7.335 7.138 C 6.127 3.515,5.660 2.147,5.599 2.051 C 5.433 1.792,5.147 1.599,4.834 1.533 C 4.636 1.491,4.558 1.489,4.366 1.521 M5.399 6.077 L 6.209 8.507 4.533 8.507 L 2.857 8.507 2.932 8.287 C 3.000 8.087,4.476 3.875,4.539 3.699 C 4.554 3.658,4.571 3.629,4.577 3.635 C 4.584 3.641,4.953 4.740,5.399 6.077 M12.493 4.027 C 12.019 4.081,11.489 4.228,11.142 4.402 C 10.591 4.678,10.115 5.131,9.862 5.618 C 9.773 5.790,9.760 5.840,9.760 5.995 C 9.761 6.400,10.043 6.708,10.442 6.740 C 10.759 6.766,10.977 6.641,11.188 6.316 C 11.540 5.771,12.109 5.513,12.960 5.513 C 13.539 5.513,13.905 5.633,14.188 5.918 C 14.456 6.187,14.507 6.365,14.507 7.044 L 14.507 7.493 13.713 7.493 C 12.221 7.494,11.629 7.590,10.936 7.947 C 10.151 8.350,9.640 9.058,9.522 9.903 C 9.467 10.300,9.510 10.739,9.642 11.133 C 9.865 11.799,10.331 12.327,10.987 12.660 C 11.435 12.887,11.949 12.996,12.547 12.993 C 13.203 12.988,13.833 12.859,14.343 12.624 C 14.538 12.535,14.587 12.530,14.587 12.599 C 14.587 12.660,14.820 12.879,14.940 12.930 C 15.117 13.006,15.254 13.017,15.428 12.972 C 15.678 12.907,15.856 12.749,15.946 12.512 C 15.999 12.374,16.000 12.319,15.999 9.366 C 15.998 6.088,16.001 6.166,15.843 5.737 C 15.545 4.925,14.740 4.290,13.747 4.081 C 13.438 4.016,12.824 3.990,12.493 4.027 M14.507 9.768 L 14.507 10.523 14.438 10.660 C 14.080 11.380,12.505 11.741,11.636 11.304 C 11.421 11.196,11.217 10.990,11.112 10.774 C 11.030 10.607,11.027 10.587,11.027 10.267 C 11.027 9.945,11.030 9.928,11.111 9.773 C 11.300 9.411,11.717 9.156,12.267 9.068 C 12.377 9.050,12.485 9.032,12.507 9.027 C 12.529 9.023,12.988 9.018,13.527 9.016 L 14.507 9.013 14.507 9.768 " stroke="none" fill-rule="evenodd" fill="black"></path></svg>