<svg xmlns="http://www.w3.org/2000/svg" width="24" height="24" viewBox="0 0 24 24"><path d="M6.670 4.041 C 6.289 4.137,5.882 4.443,5.725 4.751 C 5.681 4.836,4.489 8.099,3.074 12.003 C 1.130 17.367,0.502 19.144,0.501 19.280 C 0.497 19.928,1.298 20.262,1.757 19.803 C 1.886 19.674,1.982 19.434,2.740 17.331 L 3.580 15.001 7.000 15.002 L 10.420 15.002 11.256 17.319 C 12.147 19.792,12.158 19.815,12.469 19.946 C 12.994 20.167,13.582 19.685,13.479 19.120 C 13.448 18.950,8.385 4.966,8.280 4.761 C 8.166 4.536,7.884 4.279,7.614 4.152 C 7.340 4.023,6.931 3.975,6.670 4.041 M8.432 9.530 C 9.207 11.670,9.840 13.443,9.840 13.470 C 9.840 13.510,9.245 13.520,7.000 13.520 C 4.755 13.520,4.160 13.510,4.160 13.470 C 4.159 13.394,6.972 5.640,7.000 5.640 C 7.014 5.640,7.658 7.390,8.432 9.530 M18.187 7.783 C 17.270 7.925,16.498 8.257,15.870 8.777 C 15.411 9.159,14.954 9.772,14.877 10.114 C 14.771 10.574,15.198 11.037,15.685 10.991 C 15.937 10.966,16.121 10.836,16.299 10.557 C 16.733 9.875,17.332 9.486,18.241 9.295 C 18.719 9.194,19.628 9.194,20.060 9.294 C 20.904 9.490,21.603 9.975,21.872 10.550 C 21.979 10.777,21.980 10.793,21.993 11.750 L 22.006 12.720 20.293 12.720 C 19.298 12.720,18.429 12.739,18.220 12.764 C 17.090 12.902,16.113 13.332,15.469 13.975 C 14.600 14.844,14.297 16.051,14.621 17.348 C 14.653 17.475,14.772 17.766,14.886 17.994 C 15.513 19.249,16.883 19.996,18.566 19.999 C 19.692 20.001,20.911 19.748,21.712 19.344 L 21.991 19.203 22.020 19.391 C 22.042 19.543,22.084 19.615,22.234 19.766 C 22.386 19.918,22.456 19.958,22.614 19.981 C 23.033 20.044,23.394 19.796,23.478 19.388 C 23.510 19.235,23.519 17.951,23.510 14.936 C 23.496 10.248,23.512 10.541,23.236 9.926 C 22.753 8.852,21.525 8.010,20.107 7.780 C 19.652 7.706,18.670 7.708,18.187 7.783 M21.992 15.630 L 21.980 17.060 21.881 17.255 C 21.505 17.990,20.213 18.481,18.640 18.486 C 18.134 18.487,17.961 18.472,17.700 18.404 C 16.618 18.119,16.000 17.370,16.000 16.343 C 16.000 15.206,16.941 14.405,18.464 14.244 C 18.638 14.226,19.505 14.208,20.392 14.205 L 22.004 14.200 21.992 15.630 " stroke="none" fill-rule="evenodd" fill="black"></path></svg>