<svg xmlns="http://www.w3.org/2000/svg" width="24" height="24" viewBox="0 0 24 24"><path d="M11.700 1.077 C 11.464 1.187,8.094 4.578,8.059 4.740 C 8.045 4.806,8.025 4.885,8.016 4.916 C 8.006 4.947,8.025 5.064,8.057 5.177 C 8.187 5.623,8.640 5.838,9.071 5.658 C 9.168 5.618,9.572 5.245,10.230 4.589 L 11.240 3.582 11.241 5.981 C 11.242 8.228,11.246 8.390,11.316 8.540 C 11.594 9.144,12.406 9.144,12.684 8.540 C 12.754 8.390,12.758 8.228,12.759 5.981 L 12.760 3.582 13.770 4.589 C 14.428 5.245,14.832 5.618,14.929 5.658 C 15.354 5.835,15.810 5.624,15.940 5.189 C 15.999 4.988,15.986 4.811,15.897 4.640 C 15.868 4.585,15.075 3.771,14.133 2.831 C 12.963 1.664,12.373 1.103,12.271 1.061 C 12.075 0.980,11.896 0.985,11.700 1.077 M3.420 11.258 C 3.398 11.266,3.331 11.284,3.271 11.297 C 3.211 11.310,3.095 11.379,3.015 11.450 C 2.595 11.818,2.699 12.443,3.220 12.684 C 3.455 12.793,4.545 12.793,4.780 12.684 C 5.075 12.547,5.240 12.303,5.240 12.000 C 5.240 11.799,5.181 11.647,5.047 11.506 C 4.840 11.287,4.752 11.264,4.080 11.252 C 3.739 11.247,3.442 11.249,3.420 11.258 M7.420 11.258 C 7.398 11.266,7.331 11.284,7.271 11.297 C 7.211 11.310,7.095 11.379,7.015 11.450 C 6.595 11.818,6.699 12.443,7.220 12.684 C 7.455 12.793,8.545 12.793,8.780 12.684 C 9.075 12.547,9.240 12.303,9.240 12.000 C 9.240 11.799,9.181 11.647,9.047 11.506 C 8.840 11.287,8.752 11.264,8.080 11.252 C 7.739 11.247,7.442 11.249,7.420 11.258 M11.420 11.258 C 11.398 11.266,11.331 11.284,11.271 11.297 C 11.211 11.310,11.095 11.379,11.015 11.450 C 10.595 11.818,10.699 12.443,11.220 12.684 C 11.455 12.793,12.545 12.793,12.780 12.684 C 13.075 12.547,13.240 12.303,13.240 12.000 C 13.240 11.799,13.181 11.647,13.047 11.506 C 12.840 11.287,12.752 11.264,12.080 11.252 C 11.739 11.247,11.442 11.249,11.420 11.258 M15.420 11.258 C 15.398 11.266,15.331 11.284,15.271 11.297 C 15.211 11.310,15.095 11.379,15.015 11.450 C 14.595 11.818,14.699 12.443,15.220 12.684 C 15.455 12.793,16.545 12.793,16.780 12.684 C 17.075 12.547,17.240 12.303,17.240 12.000 C 17.240 11.799,17.181 11.647,17.047 11.506 C 16.840 11.287,16.752 11.264,16.080 11.252 C 15.739 11.247,15.442 11.249,15.420 11.258 M19.420 11.258 C 19.398 11.266,19.331 11.284,19.271 11.297 C 19.211 11.310,19.095 11.379,19.015 11.450 C 18.595 11.818,18.699 12.443,19.220 12.684 C 19.455 12.793,20.545 12.793,20.780 12.684 C 21.075 12.547,21.240 12.303,21.240 12.000 C 21.240 11.799,21.181 11.647,21.047 11.506 C 20.840 11.287,20.752 11.264,20.080 11.252 C 19.739 11.247,19.442 11.249,19.420 11.258 M11.700 15.076 C 11.506 15.165,11.384 15.292,11.302 15.489 C 11.248 15.617,11.240 15.961,11.240 18.028 L 11.240 20.418 10.210 19.391 C 9.538 18.720,9.128 18.342,9.031 18.302 C 8.610 18.126,8.144 18.346,8.018 18.780 C 7.966 18.959,7.966 19.006,8.019 19.182 C 8.073 19.365,8.214 19.516,9.829 21.129 C 11.606 22.903,11.718 23.000,12.000 23.000 C 12.282 23.000,12.394 22.903,14.171 21.129 C 15.755 19.547,15.927 19.362,15.979 19.190 C 16.159 18.589,15.554 18.058,14.969 18.302 C 14.872 18.342,14.462 18.720,13.790 19.391 L 12.760 20.418 12.759 18.019 C 12.758 15.772,12.754 15.610,12.684 15.460 C 12.503 15.068,12.077 14.902,11.700 15.076 " stroke="none" fill-rule="evenodd" fill="black"></path></svg>