<svg xmlns="http://www.w3.org/2000/svg" width="16" height="16" viewBox="0 0 16 16"><path d="M6.405 2.087 C 5.594 2.897,4.911 3.594,4.889 3.637 C 4.835 3.739,4.863 3.876,4.951 3.946 C 5.019 3.998,5.053 4.000,6.137 4.000 L 7.253 4.000 7.253 4.689 C 7.253 5.505,7.265 5.562,7.481 5.778 C 7.779 6.076,8.221 6.076,8.519 5.778 C 8.735 5.562,8.747 5.505,8.747 4.689 L 8.747 4.000 9.863 4.000 C 10.947 4.000,10.981 3.998,11.049 3.946 C 11.137 3.876,11.165 3.739,11.111 3.637 C 11.089 3.594,10.406 2.897,9.595 2.087 L 8.119 0.613 8.000 0.613 L 7.881 0.613 6.405 2.087 M1.512 7.292 C 1.258 7.382,1.095 7.566,1.024 7.840 C 0.988 7.985,0.988 8.016,1.026 8.164 C 1.081 8.382,1.204 8.547,1.387 8.650 C 1.530 8.731,1.542 8.734,1.935 8.742 C 2.382 8.752,2.490 8.733,2.672 8.613 C 2.824 8.512,2.923 8.365,2.976 8.160 C 3.012 8.016,3.012 7.984,2.976 7.840 C 2.925 7.644,2.829 7.494,2.693 7.399 C 2.514 7.276,2.417 7.256,2.000 7.256 C 1.742 7.256,1.580 7.268,1.512 7.292 M4.496 7.297 C 4.322 7.351,4.106 7.565,4.045 7.745 C 3.947 8.033,4.010 8.307,4.225 8.522 C 4.417 8.714,4.530 8.747,5.000 8.747 C 5.471 8.747,5.583 8.714,5.778 8.519 C 5.987 8.310,6.047 8.060,5.958 7.761 C 5.899 7.563,5.690 7.354,5.492 7.296 C 5.303 7.239,4.682 7.240,4.496 7.297 M7.512 7.292 C 7.258 7.382,7.095 7.566,7.024 7.840 C 6.988 7.985,6.988 8.016,7.026 8.164 C 7.081 8.382,7.204 8.547,7.387 8.650 C 7.530 8.731,7.542 8.734,7.935 8.742 C 8.382 8.752,8.490 8.733,8.672 8.613 C 8.824 8.512,8.923 8.365,8.976 8.160 C 9.012 8.016,9.012 7.984,8.976 7.840 C 8.925 7.644,8.829 7.494,8.693 7.399 C 8.514 7.276,8.417 7.256,8.000 7.256 C 7.742 7.256,7.580 7.268,7.512 7.292 M10.496 7.297 C 10.322 7.351,10.106 7.565,10.045 7.745 C 9.947 8.033,10.010 8.307,10.225 8.522 C 10.417 8.714,10.530 8.747,11.000 8.747 C 11.471 8.747,11.583 8.714,11.778 8.519 C 11.987 8.310,12.047 8.060,11.958 7.761 C 11.899 7.563,11.690 7.354,11.492 7.296 C 11.303 7.239,10.682 7.240,10.496 7.297 M13.512 7.292 C 13.258 7.382,13.095 7.566,13.024 7.840 C 12.988 7.985,12.988 8.016,13.026 8.164 C 13.081 8.382,13.204 8.547,13.387 8.650 C 13.530 8.731,13.542 8.734,13.935 8.742 C 14.382 8.752,14.490 8.733,14.672 8.613 C 14.824 8.512,14.923 8.365,14.976 8.160 C 15.012 8.016,15.012 7.984,14.976 7.840 C 14.925 7.644,14.829 7.494,14.693 7.399 C 14.514 7.276,14.417 7.256,14.000 7.256 C 13.742 7.256,13.580 7.268,13.512 7.292 M7.747 10.046 C 7.568 10.107,7.358 10.315,7.298 10.492 C 7.261 10.601,7.253 10.737,7.253 11.311 L 7.253 12.000 6.137 12.000 C 5.053 12.000,5.019 12.002,4.951 12.054 C 4.863 12.124,4.835 12.261,4.889 12.363 C 4.911 12.406,5.594 13.103,6.405 13.913 L 7.881 15.387 8.000 15.387 L 8.119 15.387 9.595 13.913 C 10.406 13.103,11.089 12.406,11.111 12.363 C 11.165 12.261,11.137 12.124,11.049 12.054 C 10.981 12.002,10.947 12.000,9.863 12.000 L 8.747 12.000 8.747 11.311 C 8.747 10.538,8.733 10.461,8.569 10.269 C 8.374 10.041,8.031 9.948,7.747 10.046 " stroke="none" fill-rule="evenodd" fill="black"></path></svg>