<svg xmlns="http://www.w3.org/2000/svg" width="16" height="16" viewBox="0 0 16 16"><path d="M7.522 0.028 C 5.994 0.220,4.696 1.274,4.213 2.716 C 4.024 3.282,4.020 3.323,4.007 4.723 L 3.996 5.994 3.605 6.007 C 3.307 6.017,3.171 6.033,3.038 6.076 C 2.610 6.214,2.243 6.575,2.076 7.021 L 2.013 7.187 2.006 10.420 C 2.000 13.265,2.004 13.674,2.040 13.831 C 2.163 14.362,2.567 14.786,3.107 14.951 C 3.259 14.998,3.481 15.000,8.000 15.000 C 12.519 15.000,12.741 14.998,12.893 14.951 C 13.433 14.785,13.837 14.360,13.961 13.826 C 13.996 13.676,14.000 13.222,13.994 10.420 L 13.987 7.187 13.924 7.021 C 13.758 6.577,13.397 6.221,12.962 6.073 L 12.787 6.013 9.137 6.006 L 5.488 5.999 5.500 4.819 C 5.514 3.475,5.522 3.413,5.747 2.938 C 6.072 2.253,6.650 1.773,7.381 1.582 C 7.750 1.486,8.249 1.485,8.615 1.581 C 9.210 1.737,9.737 2.108,10.080 2.614 C 10.259 2.877,10.459 2.993,10.734 2.993 C 11.280 2.994,11.641 2.439,11.419 1.940 C 11.347 1.778,11.060 1.407,10.827 1.174 C 10.279 0.626,9.550 0.237,8.773 0.079 C 8.452 0.014,7.835 -0.011,7.522 0.028 M12.507 10.493 L 12.507 13.493 8.000 13.493 L 3.493 13.493 3.493 10.493 L 3.493 7.493 8.000 7.493 L 12.507 7.493 12.507 10.493 " stroke="none" fill-rule="evenodd" fill="black"></path></svg>