<svg xmlns="http://www.w3.org/2000/svg" width="24" height="24" viewBox="0 0 24 24"><path d="M10.940 3.075 C 10.852 3.119,9.583 4.244,8.120 5.577 L 5.460 8.000 4.032 8.000 C 3.127 8.000,2.526 8.016,2.392 8.045 C 1.729 8.186,1.180 8.731,1.039 9.388 C 1.012 9.515,1.001 10.470,1.009 12.121 L 1.020 14.660 1.113 14.878 C 1.307 15.336,1.666 15.695,2.120 15.887 C 2.334 15.977,2.381 15.980,3.911 16.000 L 5.481 16.020 8.142 18.440 C 9.606 19.771,10.870 20.891,10.952 20.929 C 11.131 21.012,11.357 21.019,11.531 20.946 C 11.707 20.873,11.950 20.593,11.979 20.432 C 11.992 20.360,11.998 16.517,11.991 11.893 L 11.980 3.486 11.897 3.375 C 11.644 3.035,11.264 2.916,10.940 3.075 M18.980 4.060 C 18.667 4.169,18.444 4.564,18.516 4.881 C 18.564 5.096,18.620 5.179,18.969 5.554 C 20.328 7.012,21.221 8.971,21.438 10.968 C 21.461 11.182,21.480 11.646,21.480 12.000 C 21.480 13.114,21.337 14.004,20.995 15.020 C 20.560 16.314,19.874 17.471,18.956 18.459 C 18.778 18.651,18.607 18.868,18.576 18.942 C 18.423 19.309,18.618 19.782,18.980 19.921 C 19.146 19.984,19.452 19.976,19.590 19.905 C 19.739 19.828,20.305 19.233,20.644 18.798 C 21.867 17.228,22.608 15.479,22.906 13.460 C 23.005 12.788,23.005 11.213,22.906 10.540 C 22.564 8.218,21.577 6.131,20.067 4.535 C 19.577 4.017,19.365 3.924,18.980 4.060 M10.470 15.260 L 10.460 18.520 8.324 16.578 C 7.149 15.510,6.150 14.615,6.104 14.588 C 6.044 14.554,5.543 14.534,4.336 14.520 C 2.990 14.504,2.639 14.489,2.586 14.445 C 2.526 14.395,2.520 14.174,2.520 12.000 C 2.520 10.097,2.531 9.601,2.572 9.567 C 2.606 9.539,3.179 9.520,4.282 9.512 C 5.653 9.502,5.960 9.490,6.057 9.441 C 6.121 9.408,7.138 8.504,8.317 7.432 L 10.460 5.483 10.470 8.741 C 10.476 10.534,10.476 13.467,10.470 15.260 M15.380 7.627 C 15.195 7.725,15.115 7.806,15.035 7.980 C 14.885 8.307,14.965 8.574,15.337 8.994 C 15.868 9.593,16.206 10.252,16.407 11.080 C 16.441 11.220,16.460 11.554,16.460 12.000 C 16.460 12.446,16.441 12.780,16.407 12.920 C 16.206 13.747,15.871 14.402,15.339 15.006 C 15.053 15.330,14.996 15.442,14.994 15.672 C 14.993 16.009,15.128 16.230,15.420 16.364 C 15.766 16.524,16.040 16.444,16.383 16.083 C 17.120 15.310,17.642 14.294,17.886 13.160 C 18.016 12.553,18.016 11.446,17.886 10.840 C 17.651 9.753,17.192 8.821,16.504 8.041 C 16.165 7.656,16.007 7.560,15.720 7.562 C 15.599 7.563,15.446 7.592,15.380 7.627 " stroke="none" fill-rule="evenodd" fill="black"></path></svg>