<svg xmlns="http://www.w3.org/2000/svg" width="16" height="16" viewBox="0 0 16 16"><path d="M7.019 2.038 C 6.957 2.058,6.866 2.105,6.818 2.141 C 6.770 2.178,5.994 2.839,5.094 3.611 L 3.458 5.013 2.482 5.014 C 1.706 5.014,1.472 5.022,1.336 5.054 C 0.844 5.170,0.418 5.515,0.185 5.987 C 0.005 6.349,0.001 6.396,0.001 8.000 C 0.001 9.604,0.005 9.651,0.185 10.013 C 0.415 10.478,0.785 10.789,1.280 10.935 C 1.465 10.990,1.554 10.995,2.493 11.010 L 3.507 11.027 5.153 12.440 C 6.058 13.217,6.856 13.883,6.926 13.920 C 7.028 13.974,7.090 13.987,7.253 13.987 C 7.559 13.987,7.772 13.858,7.916 13.587 L 7.987 13.453 7.987 8.000 L 7.987 2.547 7.908 2.404 C 7.821 2.248,7.729 2.159,7.564 2.075 C 7.427 2.005,7.172 1.988,7.019 2.038 M12.812 2.196 C 12.639 2.277,12.465 2.474,12.413 2.649 C 12.318 2.968,12.391 3.182,12.709 3.522 C 13.534 4.406,14.096 5.464,14.344 6.600 C 14.538 7.486,14.538 8.514,14.344 9.400 C 14.240 9.877,14.024 10.489,13.811 10.912 C 13.560 11.409,13.145 12.003,12.739 12.445 C 12.476 12.733,12.420 12.834,12.405 13.059 C 12.372 13.553,12.811 13.940,13.291 13.841 C 13.488 13.800,13.613 13.709,13.884 13.412 C 15.039 12.148,15.727 10.648,15.950 8.907 C 15.997 8.544,15.997 7.433,15.951 7.093 C 15.766 5.735,15.357 4.621,14.659 3.573 C 14.423 3.220,14.248 2.995,13.924 2.630 C 13.559 2.219,13.418 2.133,13.109 2.134 C 12.995 2.134,12.907 2.152,12.812 2.196 M10.840 4.264 C 10.599 4.331,10.411 4.488,10.321 4.697 C 10.190 5.002,10.258 5.284,10.539 5.593 C 11.039 6.142,11.351 6.783,11.457 7.478 C 11.507 7.803,11.493 8.395,11.429 8.693 C 11.289 9.342,10.998 9.900,10.537 10.408 C 10.285 10.685,10.226 10.821,10.246 11.078 C 10.292 11.650,10.930 11.960,11.407 11.640 C 11.534 11.555,11.873 11.173,12.095 10.865 C 12.323 10.550,12.614 9.966,12.744 9.564 C 13.214 8.118,13.011 6.541,12.193 5.280 C 11.913 4.848,11.534 4.424,11.345 4.331 C 11.196 4.258,10.970 4.229,10.840 4.264 M6.507 8.000 C 6.507 9.980,6.500 11.600,6.491 11.600 C 6.483 11.600,5.958 11.156,5.324 10.613 C 4.691 10.070,4.119 9.599,4.053 9.566 C 3.936 9.508,3.911 9.507,2.827 9.500 C 2.218 9.496,1.693 9.487,1.659 9.479 C 1.626 9.472,1.575 9.427,1.546 9.379 C 1.496 9.297,1.494 9.239,1.494 8.000 C 1.494 6.761,1.496 6.703,1.546 6.621 C 1.575 6.573,1.626 6.528,1.659 6.521 C 1.693 6.513,2.218 6.504,2.827 6.500 C 3.911 6.493,3.936 6.492,4.053 6.434 C 4.119 6.401,4.689 5.931,5.320 5.389 C 5.951 4.846,6.476 4.402,6.487 4.401 C 6.498 4.401,6.507 6.020,6.507 8.000 " stroke="none" fill-rule="evenodd" fill="black"></path></svg>