<svg xmlns="http://www.w3.org/2000/svg" width="16" height="16" viewBox="0 0 16 16"><path d="M7.680 0.017 C 7.454 0.046,7.114 0.147,6.890 0.253 C 6.619 0.380,6.471 0.475,5.947 0.863 C 5.460 1.224,5.293 1.328,5.135 1.373 C 5.061 1.394,4.692 1.459,4.315 1.518 C 3.845 1.591,3.550 1.651,3.372 1.710 C 2.660 1.946,2.045 2.523,1.761 3.219 C 1.655 3.480,1.615 3.664,1.494 4.440 C 1.368 5.254,1.362 5.271,0.971 5.800 C 0.504 6.433,0.391 6.598,0.291 6.800 C 0.030 7.323,-0.056 7.885,0.041 8.439 C 0.133 8.968,0.278 9.258,0.814 9.987 C 1.041 10.295,1.263 10.619,1.306 10.707 C 1.374 10.843,1.403 10.971,1.494 11.560 C 1.553 11.941,1.621 12.331,1.644 12.427 C 1.878 13.360,2.643 14.125,3.573 14.355 C 3.669 14.379,4.059 14.446,4.440 14.506 C 5.254 14.632,5.271 14.638,5.800 15.029 C 6.434 15.497,6.598 15.609,6.800 15.709 C 7.512 16.063,8.274 16.090,9.029 15.788 C 9.272 15.690,9.515 15.535,10.107 15.097 C 10.737 14.631,10.730 14.634,11.560 14.506 C 12.546 14.354,12.815 14.270,13.247 13.983 C 13.532 13.793,13.793 13.532,13.983 13.247 C 14.270 12.815,14.354 12.546,14.506 11.560 C 14.632 10.746,14.638 10.729,15.029 10.200 C 15.496 9.567,15.609 9.402,15.709 9.200 C 15.970 8.677,16.056 8.115,15.959 7.561 C 15.867 7.032,15.722 6.742,15.186 6.013 C 14.959 5.705,14.737 5.381,14.693 5.293 C 14.625 5.157,14.597 5.029,14.505 4.440 C 14.381 3.641,14.368 3.581,14.280 3.327 C 14.000 2.526,13.295 1.882,12.450 1.656 C 12.342 1.627,11.971 1.560,11.627 1.507 C 10.938 1.402,10.836 1.380,10.684 1.302 C 10.627 1.273,10.327 1.063,10.017 0.837 C 9.152 0.204,8.757 0.035,8.093 0.015 C 7.917 0.009,7.731 0.010,7.680 0.017 M8.333 1.551 C 8.490 1.590,8.612 1.668,9.236 2.125 C 9.835 2.564,10.133 2.731,10.480 2.825 C 10.590 2.855,10.986 2.927,11.360 2.985 C 12.237 3.121,12.370 3.169,12.618 3.434 C 12.847 3.678,12.882 3.785,13.015 4.640 C 13.073 5.014,13.145 5.410,13.175 5.520 C 13.270 5.869,13.436 6.164,13.883 6.773 C 14.114 7.089,14.337 7.413,14.378 7.493 C 14.530 7.793,14.530 8.207,14.378 8.507 C 14.337 8.587,14.114 8.911,13.883 9.227 C 13.436 9.836,13.270 10.131,13.175 10.480 C 13.145 10.590,13.073 10.986,13.015 11.360 C 12.878 12.241,12.832 12.370,12.562 12.623 C 12.321 12.847,12.191 12.890,11.333 13.025 C 10.161 13.209,10.123 13.225,9.147 13.943 C 8.875 14.143,8.591 14.338,8.515 14.377 C 8.308 14.483,8.043 14.523,7.818 14.483 C 7.553 14.435,7.427 14.366,6.903 13.979 C 6.268 13.512,6.135 13.423,5.907 13.319 C 5.606 13.182,5.484 13.153,4.667 13.025 C 3.809 12.890,3.679 12.847,3.438 12.623 C 3.168 12.370,3.122 12.241,2.985 11.360 C 2.927 10.986,2.855 10.590,2.825 10.480 C 2.730 10.131,2.564 9.836,2.117 9.227 C 1.886 8.911,1.663 8.587,1.622 8.507 C 1.470 8.207,1.470 7.793,1.622 7.493 C 1.663 7.413,1.886 7.089,2.117 6.773 C 2.564 6.164,2.730 5.870,2.825 5.520 C 2.855 5.410,2.922 5.044,2.973 4.707 C 3.025 4.369,3.081 4.033,3.097 3.960 C 3.191 3.546,3.548 3.189,3.960 3.097 C 4.033 3.080,4.369 3.025,4.707 2.973 C 5.044 2.922,5.410 2.855,5.520 2.825 C 5.870 2.730,6.164 2.564,6.773 2.117 C 7.089 1.886,7.413 1.663,7.493 1.622 C 7.732 1.499,8.031 1.474,8.333 1.551 M7.560 4.028 C 7.146 4.084,6.715 4.248,6.372 4.481 C 6.032 4.712,5.628 5.231,5.532 5.561 C 5.399 6.018,5.766 6.489,6.256 6.490 C 6.556 6.490,6.774 6.339,6.991 5.979 C 7.180 5.666,7.505 5.511,7.973 5.510 C 8.382 5.509,8.726 5.651,8.892 5.889 C 8.968 5.998,8.973 6.020,8.973 6.251 C 8.973 6.482,8.968 6.504,8.896 6.598 C 8.822 6.696,8.650 6.816,8.149 7.122 C 7.851 7.303,7.451 7.687,7.348 7.890 C 7.191 8.200,7.238 8.522,7.475 8.759 C 7.635 8.919,7.799 8.987,8.025 8.986 C 8.238 8.986,8.403 8.899,8.614 8.676 C 8.715 8.569,8.877 8.437,9.000 8.361 C 9.687 7.940,9.965 7.708,10.186 7.371 C 10.424 7.008,10.543 6.467,10.487 6.008 C 10.390 5.222,9.922 4.603,9.158 4.250 C 8.720 4.048,8.077 3.958,7.560 4.028 M7.734 10.043 C 7.363 10.143,7.088 10.447,7.016 10.840 C 6.937 11.267,7.184 11.722,7.600 11.916 C 7.725 11.974,7.784 11.984,8.000 11.984 C 8.216 11.984,8.275 11.974,8.400 11.916 C 8.816 11.722,9.063 11.267,8.984 10.840 C 8.911 10.441,8.636 10.141,8.254 10.041 C 8.061 9.991,7.926 9.991,7.734 10.043 " stroke="none" fill-rule="evenodd" fill="black"></path></svg>