<svg xmlns="http://www.w3.org/2000/svg" width="24" height="24" viewBox="0 0 24 24"><path d="M11.280 0.577 C 10.604 0.727,10.285 0.897,9.240 1.660 C 8.767 2.006,8.298 2.330,8.198 2.381 C 7.915 2.524,7.651 2.585,6.640 2.740 C 6.123 2.819,5.592 2.911,5.460 2.945 C 4.715 3.137,3.893 3.721,3.439 4.381 C 3.237 4.675,3.008 5.201,2.923 5.565 C 2.880 5.749,2.780 6.321,2.700 6.836 C 2.620 7.351,2.518 7.870,2.473 7.989 C 2.379 8.240,2.245 8.444,1.542 9.400 C 0.741 10.490,0.511 11.070,0.511 12.000 C 0.511 12.930,0.741 13.510,1.542 14.600 C 2.245 15.556,2.379 15.760,2.473 16.011 C 2.518 16.130,2.620 16.649,2.700 17.164 C 2.894 18.414,2.966 18.706,3.197 19.180 C 3.543 19.889,4.111 20.457,4.820 20.803 C 5.294 21.034,5.586 21.106,6.836 21.300 C 7.351 21.380,7.870 21.482,7.989 21.527 C 8.239 21.620,8.439 21.752,9.398 22.455 C 10.160 23.014,10.446 23.176,10.955 23.336 C 11.822 23.609,12.798 23.523,13.642 23.099 C 13.786 23.026,14.218 22.737,14.602 22.455 C 15.561 21.752,15.761 21.620,16.011 21.527 C 16.130 21.482,16.649 21.380,17.164 21.300 C 18.414 21.106,18.706 21.034,19.180 20.803 C 19.889 20.457,20.457 19.889,20.803 19.180 C 21.034 18.706,21.106 18.414,21.300 17.164 C 21.380 16.649,21.482 16.130,21.527 16.011 C 21.620 15.761,21.752 15.561,22.455 14.602 C 23.014 13.840,23.176 13.554,23.336 13.045 C 23.609 12.178,23.523 11.202,23.099 10.358 C 23.026 10.214,22.737 9.782,22.455 9.398 C 21.752 8.439,21.620 8.239,21.527 7.989 C 21.482 7.870,21.380 7.351,21.300 6.836 C 21.220 6.321,21.120 5.749,21.077 5.565 C 20.992 5.201,20.763 4.675,20.561 4.381 C 20.107 3.721,19.285 3.137,18.540 2.945 C 18.408 2.911,17.877 2.819,17.360 2.740 C 16.349 2.585,16.085 2.524,15.802 2.381 C 15.702 2.330,15.233 2.006,14.760 1.660 C 13.694 0.881,13.398 0.725,12.707 0.578 C 12.380 0.508,11.592 0.508,11.280 0.577 M12.445 2.058 C 12.835 2.140,13.053 2.266,13.955 2.930 C 14.820 3.567,15.252 3.822,15.689 3.955 C 15.837 4.000,16.440 4.112,17.029 4.203 C 18.178 4.382,18.383 4.438,18.746 4.676 C 19.035 4.866,19.194 5.031,19.376 5.335 C 19.581 5.678,19.620 5.830,19.801 6.992 C 19.890 7.570,20.000 8.164,20.045 8.312 C 20.179 8.750,20.434 9.182,21.075 10.050 C 21.408 10.502,21.734 10.986,21.799 11.126 C 22.050 11.662,22.050 12.337,21.800 12.872 C 21.735 13.010,21.410 13.494,21.077 13.946 C 20.436 14.815,20.179 15.250,20.045 15.689 C 20.000 15.837,19.888 16.440,19.797 17.029 C 19.705 17.618,19.596 18.193,19.554 18.306 C 19.363 18.818,18.983 19.234,18.487 19.471 C 18.185 19.616,18.217 19.610,16.291 19.919 C 15.753 20.006,15.306 20.160,14.927 20.390 C 14.791 20.473,14.334 20.794,13.910 21.105 C 13.487 21.416,13.049 21.716,12.937 21.772 C 12.344 22.070,11.656 22.070,11.063 21.772 C 10.951 21.716,10.513 21.416,10.090 21.105 C 9.666 20.794,9.209 20.473,9.073 20.390 C 8.694 20.160,8.247 20.006,7.709 19.919 C 5.783 19.610,5.815 19.616,5.513 19.471 C 5.017 19.234,4.637 18.818,4.446 18.306 C 4.404 18.193,4.295 17.618,4.203 17.029 C 4.112 16.440,4.000 15.837,3.955 15.689 C 3.822 15.253,3.572 14.830,2.927 13.953 C 2.592 13.498,2.265 13.012,2.200 12.873 C 1.950 12.337,1.950 11.662,2.201 11.126 C 2.266 10.986,2.592 10.502,2.925 10.050 C 3.566 9.182,3.821 8.750,3.955 8.312 C 4.000 8.164,4.110 7.570,4.199 6.992 C 4.380 5.830,4.419 5.678,4.624 5.335 C 4.806 5.031,4.965 4.866,5.254 4.676 C 5.617 4.438,5.822 4.382,6.971 4.203 C 7.560 4.112,8.163 4.000,8.311 3.955 C 8.746 3.822,9.169 3.573,10.040 2.933 C 10.491 2.601,10.957 2.281,11.076 2.221 C 11.486 2.015,11.970 1.957,12.445 2.058 M11.180 6.586 C 10.564 6.718,10.086 6.992,9.631 7.476 C 9.017 8.129,8.917 8.663,9.337 9.032 C 9.459 9.139,9.693 9.240,9.820 9.240 C 10.064 9.240,10.368 9.030,10.534 8.746 C 10.663 8.526,10.960 8.253,11.173 8.159 C 11.931 7.825,12.971 8.056,13.310 8.634 C 13.406 8.796,13.419 8.861,13.417 9.140 C 13.414 9.678,13.234 9.956,12.466 10.615 C 11.919 11.084,11.556 11.451,11.368 11.727 L 11.240 11.914 11.241 12.767 C 11.242 13.707,11.266 13.824,11.505 14.047 C 11.880 14.398,12.459 14.267,12.684 13.780 C 12.746 13.646,12.758 13.518,12.759 12.999 L 12.760 12.377 12.970 12.176 C 13.085 12.065,13.358 11.823,13.576 11.637 C 14.435 10.905,14.832 10.250,14.915 9.422 C 15.014 8.448,14.616 7.576,13.836 7.057 C 13.257 6.672,12.706 6.518,11.932 6.523 C 11.672 6.525,11.334 6.553,11.180 6.586 M11.617 15.577 C 11.271 15.727,11.001 16.133,11.001 16.500 C 11.001 16.760,11.139 17.057,11.348 17.245 C 11.845 17.693,12.616 17.522,12.906 16.900 C 13.135 16.408,12.887 15.789,12.374 15.575 C 12.208 15.505,11.778 15.506,11.617 15.577 " stroke="none" fill-rule="evenodd" fill="black"></path></svg>