<svg xmlns="http://www.w3.org/2000/svg" width="16" height="16" viewBox="0 0 16 16"><path d="M7.680 1.082 C 7.554 1.140,7.259 1.424,5.596 3.088 C 4.260 4.425,3.639 5.064,3.596 5.147 C 3.510 5.314,3.508 5.643,3.593 5.803 C 3.737 6.076,3.962 6.220,4.249 6.224 C 4.585 6.229,4.543 6.263,5.966 4.844 L 7.253 3.562 7.260 7.014 L 7.267 10.467 7.350 10.613 C 7.453 10.796,7.618 10.919,7.836 10.974 C 7.984 11.012,8.015 11.012,8.160 10.976 C 8.356 10.925,8.506 10.829,8.601 10.693 C 8.752 10.475,8.744 10.665,8.745 6.974 L 8.747 3.561 10.033 4.844 C 10.926 5.735,11.357 6.146,11.439 6.188 C 11.917 6.426,12.504 6.070,12.510 5.537 C 12.513 5.352,12.470 5.219,12.358 5.067 C 12.310 5.001,11.414 4.092,10.368 3.048 C 8.259 0.943,8.342 1.014,8.000 1.014 C 7.871 1.014,7.789 1.031,7.680 1.082 M3.420 13.082 C 2.952 13.315,2.860 13.940,3.241 14.292 C 3.482 14.513,3.009 14.493,8.000 14.493 C 12.991 14.493,12.518 14.513,12.759 14.292 C 13.139 13.941,13.047 13.314,12.580 13.082 L 12.443 13.013 8.000 13.013 L 3.557 13.013 3.420 13.082 " stroke="none" fill-rule="evenodd" fill="black"></path></svg>