<svg xmlns="http://www.w3.org/2000/svg" width="24" height="24" viewBox="0 0 24 24"><path d="M11.440 2.083 C 11.178 2.201,5.002 8.371,4.859 8.658 C 4.734 8.907,4.734 9.053,4.859 9.302 C 4.982 9.547,5.178 9.686,5.437 9.711 C 5.835 9.749,5.738 9.832,8.470 7.106 L 11.000 4.582 11.001 10.741 C 11.002 16.670,11.005 16.906,11.077 17.065 C 11.118 17.155,11.212 17.276,11.286 17.332 C 11.416 17.431,11.721 17.528,11.815 17.500 C 11.840 17.493,11.909 17.476,11.969 17.463 C 12.105 17.433,12.342 17.229,12.432 17.064 C 12.495 16.949,12.501 16.477,12.520 10.770 L 12.540 4.600 15.040 7.104 C 16.734 8.801,17.592 9.632,17.700 9.683 C 18.203 9.919,18.760 9.571,18.760 9.020 C 18.760 8.917,18.726 8.772,18.683 8.688 C 18.566 8.464,12.216 2.138,12.031 2.061 C 11.832 1.979,11.656 1.985,11.440 2.083 M4.394 20.601 C 4.110 20.751,3.968 21.046,4.018 21.380 C 4.053 21.616,4.296 21.898,4.515 21.959 C 4.715 22.015,19.285 22.015,19.485 21.959 C 19.704 21.898,19.947 21.616,19.982 21.380 C 20.033 21.041,19.888 20.747,19.598 20.599 C 19.446 20.521,19.331 20.520,11.992 20.522 C 4.704 20.523,4.537 20.525,4.394 20.601 " stroke="none" fill-rule="evenodd" fill="black"></path></svg>