<svg xmlns="http://www.w3.org/2000/svg" width="16" height="16" viewBox="0 0 16 16"><path d="M7.680 0.017 C 7.152 0.085,6.734 0.287,5.983 0.837 C 5.673 1.063,5.373 1.273,5.316 1.302 C 5.164 1.380,5.066 1.401,4.315 1.518 C 3.846 1.590,3.549 1.651,3.372 1.710 C 2.660 1.946,2.045 2.523,1.761 3.219 C 1.655 3.480,1.615 3.664,1.494 4.440 C 1.368 5.254,1.362 5.271,0.971 5.800 C 0.504 6.433,0.391 6.598,0.291 6.800 C 0.030 7.323,-0.056 7.885,0.041 8.439 C 0.133 8.968,0.278 9.258,0.814 9.987 C 1.041 10.295,1.263 10.619,1.306 10.707 C 1.374 10.843,1.403 10.971,1.494 11.560 C 1.553 11.941,1.621 12.331,1.644 12.427 C 1.878 13.360,2.643 14.125,3.573 14.355 C 3.669 14.379,4.059 14.446,4.440 14.506 C 5.030 14.597,5.157 14.625,5.293 14.693 C 5.381 14.737,5.705 14.959,6.013 15.186 C 6.742 15.722,7.032 15.867,7.561 15.959 C 8.115 16.056,8.677 15.970,9.200 15.709 C 9.402 15.609,9.567 15.496,10.200 15.029 C 10.729 14.638,10.746 14.632,11.560 14.506 C 12.546 14.354,12.815 14.270,13.247 13.983 C 13.532 13.793,13.793 13.532,13.983 13.247 C 14.270 12.815,14.354 12.546,14.506 11.560 C 14.634 10.730,14.631 10.737,15.097 10.107 C 15.669 9.333,15.789 9.118,15.926 8.619 C 15.972 8.451,15.982 8.338,15.982 8.000 C 15.982 7.662,15.972 7.549,15.926 7.381 C 15.789 6.882,15.669 6.667,15.097 5.893 C 14.631 5.263,14.634 5.270,14.506 4.440 C 14.446 4.059,14.379 3.669,14.355 3.573 C 14.127 2.651,13.389 1.908,12.450 1.656 C 12.342 1.627,11.971 1.560,11.627 1.507 C 11.282 1.455,10.939 1.395,10.865 1.373 C 10.703 1.327,10.557 1.234,9.933 0.776 C 9.161 0.210,8.737 0.034,8.093 0.015 C 7.917 0.009,7.731 0.010,7.680 0.017 M8.249 1.533 C 8.484 1.583,8.563 1.628,9.108 2.030 C 9.722 2.482,9.868 2.579,10.092 2.682 C 10.379 2.815,10.601 2.867,11.382 2.987 C 11.965 3.076,12.124 3.110,12.260 3.173 C 12.572 3.318,12.831 3.634,12.903 3.960 C 12.920 4.033,12.975 4.369,13.027 4.707 C 13.079 5.044,13.146 5.414,13.177 5.529 C 13.269 5.869,13.448 6.183,13.915 6.819 C 14.153 7.144,14.371 7.463,14.399 7.526 C 14.529 7.820,14.520 8.221,14.377 8.507 C 14.336 8.587,14.114 8.911,13.883 9.227 C 13.436 9.836,13.270 10.130,13.175 10.480 C 13.145 10.590,13.073 10.987,13.015 11.363 C 12.956 11.743,12.883 12.113,12.852 12.199 C 12.786 12.373,12.623 12.586,12.460 12.711 C 12.278 12.849,12.079 12.905,11.360 13.016 C 10.986 13.075,10.586 13.147,10.471 13.178 C 10.132 13.268,9.818 13.448,9.183 13.913 C 8.858 14.151,8.537 14.370,8.469 14.399 C 8.254 14.491,8.025 14.521,7.820 14.483 C 7.549 14.433,7.454 14.381,6.885 13.965 C 6.195 13.463,6.137 13.424,5.909 13.318 C 5.628 13.189,5.398 13.133,4.693 13.026 C 3.814 12.892,3.681 12.849,3.434 12.618 C 3.169 12.370,3.121 12.238,2.985 11.360 C 2.927 10.986,2.855 10.590,2.825 10.480 C 2.729 10.126,2.563 9.831,2.116 9.224 C 1.885 8.910,1.663 8.587,1.623 8.507 C 1.480 8.221,1.471 7.820,1.601 7.525 C 1.629 7.461,1.824 7.173,2.035 6.885 C 2.537 6.196,2.576 6.137,2.681 5.910 C 2.815 5.621,2.867 5.400,2.987 4.618 C 3.114 3.784,3.168 3.634,3.426 3.390 C 3.672 3.157,3.804 3.112,4.618 2.987 C 5.009 2.927,5.417 2.854,5.525 2.824 C 5.874 2.729,6.167 2.562,6.787 2.107 C 7.441 1.626,7.512 1.584,7.744 1.533 C 7.957 1.487,8.030 1.487,8.249 1.533 M10.504 5.555 C 10.450 5.575,10.366 5.617,10.317 5.648 C 10.267 5.679,9.501 6.431,8.614 7.319 L 7.001 8.933 6.360 8.296 C 5.963 7.900,5.675 7.635,5.600 7.597 C 5.431 7.509,5.104 7.507,4.941 7.594 C 4.673 7.736,4.524 7.976,4.523 8.269 C 4.522 8.583,4.549 8.618,5.606 9.671 C 6.220 10.283,6.588 10.629,6.667 10.670 C 6.763 10.720,6.829 10.733,7.000 10.733 C 7.185 10.733,7.232 10.723,7.349 10.658 C 7.446 10.604,8.039 10.028,9.421 8.645 C 11.556 6.508,11.477 6.600,11.476 6.267 C 11.475 5.980,11.319 5.729,11.059 5.596 C 10.919 5.525,10.640 5.504,10.504 5.555 " stroke="none" fill-rule="evenodd" fill="black"></path></svg>