<svg xmlns="http://www.w3.org/2000/svg" width="24" height="24" viewBox="0 0 24 24"><path d="M11.280 0.577 C 10.604 0.727,10.285 0.897,9.240 1.660 C 8.767 2.006,8.298 2.330,8.198 2.381 C 7.915 2.524,7.651 2.585,6.640 2.740 C 6.123 2.819,5.592 2.911,5.460 2.945 C 4.715 3.137,3.893 3.721,3.439 4.381 C 3.237 4.675,3.008 5.201,2.923 5.565 C 2.880 5.749,2.780 6.321,2.700 6.836 C 2.620 7.351,2.518 7.870,2.473 7.989 C 2.379 8.240,2.245 8.444,1.542 9.400 C 0.741 10.490,0.511 11.070,0.511 12.000 C 0.511 12.930,0.741 13.510,1.542 14.600 C 2.245 15.556,2.379 15.760,2.473 16.011 C 2.518 16.130,2.620 16.649,2.700 17.164 C 2.894 18.414,2.966 18.706,3.197 19.180 C 3.543 19.889,4.111 20.457,4.820 20.803 C 5.294 21.034,5.586 21.106,6.836 21.300 C 7.351 21.380,7.870 21.482,7.989 21.527 C 8.239 21.620,8.439 21.752,9.398 22.455 C 10.160 23.014,10.446 23.176,10.955 23.336 C 11.822 23.609,12.798 23.523,13.642 23.099 C 13.786 23.026,14.218 22.737,14.602 22.455 C 15.561 21.752,15.761 21.620,16.011 21.527 C 16.130 21.482,16.649 21.380,17.164 21.300 C 18.414 21.106,18.706 21.034,19.180 20.803 C 19.889 20.457,20.457 19.889,20.803 19.180 C 21.034 18.706,21.106 18.414,21.300 17.164 C 21.380 16.649,21.482 16.130,21.527 16.011 C 21.620 15.761,21.752 15.561,22.455 14.602 C 23.014 13.840,23.176 13.554,23.336 13.045 C 23.609 12.178,23.523 11.202,23.099 10.358 C 23.026 10.214,22.737 9.782,22.455 9.398 C 21.752 8.439,21.620 8.239,21.527 7.989 C 21.482 7.870,21.380 7.351,21.300 6.836 C 21.220 6.321,21.120 5.749,21.077 5.565 C 20.992 5.201,20.763 4.675,20.561 4.381 C 20.107 3.721,19.285 3.137,18.540 2.945 C 18.408 2.911,17.877 2.819,17.360 2.740 C 16.349 2.585,16.085 2.524,15.802 2.381 C 15.702 2.330,15.233 2.006,14.760 1.660 C 13.694 0.881,13.398 0.725,12.707 0.578 C 12.380 0.508,11.592 0.508,11.280 0.577 M12.445 2.058 C 12.835 2.140,13.052 2.266,13.960 2.933 C 14.831 3.573,15.254 3.822,15.689 3.955 C 15.837 4.000,16.440 4.112,17.029 4.203 C 18.178 4.382,18.383 4.438,18.746 4.676 C 19.035 4.866,19.194 5.031,19.376 5.335 C 19.581 5.678,19.620 5.830,19.801 6.992 C 19.890 7.570,20.000 8.164,20.045 8.312 C 20.179 8.750,20.434 9.182,21.075 10.050 C 21.408 10.502,21.734 10.986,21.799 11.126 C 22.050 11.663,22.050 12.337,21.799 12.874 C 21.734 13.014,21.408 13.498,21.075 13.950 C 20.434 14.819,20.179 15.250,20.045 15.689 C 20.000 15.837,19.888 16.440,19.797 17.029 C 19.705 17.618,19.596 18.193,19.554 18.306 C 19.363 18.818,18.983 19.234,18.487 19.471 C 18.185 19.616,18.217 19.610,16.291 19.919 C 15.753 20.006,15.306 20.160,14.927 20.390 C 14.791 20.473,14.334 20.794,13.910 21.105 C 13.487 21.416,13.049 21.716,12.937 21.772 C 12.335 22.075,11.650 22.071,11.043 21.760 C 10.920 21.697,10.451 21.374,10.000 21.041 C 9.170 20.430,8.681 20.147,8.240 20.024 C 8.119 19.990,7.548 19.889,6.971 19.800 C 5.892 19.633,5.754 19.600,5.417 19.428 C 5.005 19.219,4.620 18.774,4.446 18.306 C 4.404 18.193,4.295 17.618,4.203 17.029 C 4.112 16.440,4.000 15.837,3.955 15.689 C 3.821 15.250,3.566 14.819,2.925 13.950 C 2.592 13.498,2.266 13.014,2.201 12.874 C 1.950 12.338,1.950 11.663,2.200 11.127 C 2.265 10.988,2.592 10.502,2.927 10.047 C 3.572 9.170,3.822 8.747,3.955 8.312 C 4.000 8.164,4.110 7.570,4.199 6.992 C 4.380 5.830,4.419 5.678,4.624 5.335 C 4.806 5.031,4.965 4.866,5.254 4.676 C 5.617 4.438,5.822 4.382,6.971 4.203 C 7.560 4.112,8.163 4.000,8.311 3.955 C 8.748 3.822,9.180 3.567,10.045 2.930 C 10.493 2.600,10.957 2.281,11.076 2.221 C 11.487 2.015,11.970 1.957,12.445 2.058 M16.180 8.597 C 16.071 8.648,15.137 9.556,13.260 11.436 L 10.500 14.200 9.220 12.921 C 7.915 11.618,7.794 11.519,7.511 11.521 C 7.347 11.522,7.088 11.639,6.972 11.765 C 6.866 11.880,6.760 12.123,6.760 12.249 C 6.761 12.569,6.785 12.597,8.434 14.251 C 9.468 15.289,10.077 15.870,10.183 15.921 C 10.390 16.021,10.611 16.021,10.817 15.921 C 10.927 15.868,11.992 14.829,14.067 12.751 C 16.725 10.089,17.159 9.638,17.196 9.500 C 17.257 9.277,17.250 9.165,17.164 8.980 C 16.983 8.587,16.555 8.421,16.180 8.597 " stroke="none" fill-rule="evenodd" fill="black"></path></svg>