<svg xmlns="http://www.w3.org/2000/svg" width="16" height="16" viewBox="0 0 16 16"><path d="M7.442 2.029 C 6.800 2.156,6.295 2.596,6.087 3.210 L 6.013 3.427 6.006 7.933 C 5.999 12.364,6.000 12.442,6.053 12.653 C 6.138 12.995,6.273 13.234,6.519 13.481 C 6.766 13.727,7.005 13.862,7.348 13.947 C 7.558 14.000,7.635 14.001,11.068 13.994 L 14.573 13.987 14.789 13.914 C 15.029 13.832,15.287 13.678,15.463 13.511 C 15.636 13.347,15.830 13.036,15.913 12.790 L 15.987 12.573 15.987 8.000 L 15.987 3.427 15.912 3.208 C 15.734 2.682,15.317 2.266,14.789 2.086 L 14.573 2.013 11.067 2.009 C 9.136 2.007,7.507 2.016,7.442 2.029 M3.903 3.226 C 3.548 3.403,3.241 3.776,3.088 4.215 L 3.000 4.467 3.000 7.973 C 3.000 11.915,2.984 11.604,3.204 12.052 C 3.289 12.226,3.362 12.325,3.518 12.481 C 3.782 12.745,4.004 12.860,4.248 12.860 C 4.665 12.860,4.993 12.536,4.993 12.124 C 4.993 11.880,4.919 11.731,4.693 11.518 L 4.507 11.342 4.507 8.000 L 4.507 4.658 4.693 4.482 C 4.919 4.269,4.996 4.115,4.995 3.878 C 4.993 3.691,4.929 3.524,4.803 3.380 C 4.589 3.137,4.210 3.073,3.903 3.226 M14.419 3.581 L 14.493 3.655 14.493 8.000 L 14.493 12.345 14.419 12.419 L 14.345 12.493 11.000 12.493 L 7.655 12.493 7.581 12.419 L 7.507 12.345 7.507 8.002 C 7.507 3.696,7.507 3.658,7.560 3.600 C 7.589 3.567,7.637 3.530,7.667 3.518 C 7.696 3.506,9.211 3.499,11.033 3.502 L 14.345 3.507 14.419 3.581 M1.025 4.169 C 0.728 4.267,0.355 4.624,0.186 4.973 C -0.006 5.369,0.001 5.254,0.000 7.981 C -0.000 10.728,-0.007 10.626,0.194 11.040 C 0.282 11.221,0.348 11.310,0.519 11.480 C 0.808 11.766,0.981 11.854,1.253 11.853 C 1.417 11.852,1.478 11.839,1.587 11.782 C 1.918 11.607,2.066 11.255,1.961 10.891 C 1.921 10.754,1.889 10.709,1.711 10.539 L 1.507 10.344 1.507 8.000 L 1.507 5.656 1.711 5.461 C 1.889 5.291,1.921 5.246,1.961 5.109 C 2.099 4.632,1.781 4.172,1.294 4.143 C 1.204 4.138,1.085 4.149,1.025 4.169 " stroke="none" fill-rule="evenodd" fill="black"></path></svg>