<svg xmlns="http://www.w3.org/2000/svg" width="16" height="16" viewBox="0 0 16 16"><path d="M1.442 2.029 C 0.801 2.156,0.295 2.596,0.087 3.210 L 0.013 3.427 0.006 7.933 C -0.001 12.364,0.000 12.442,0.053 12.653 C 0.138 12.995,0.273 13.234,0.519 13.481 C 0.766 13.727,1.005 13.862,1.347 13.947 C 1.558 14.000,1.639 14.000,8.067 13.994 L 14.573 13.987 14.789 13.914 C 15.029 13.832,15.287 13.678,15.463 13.511 C 15.636 13.347,15.830 13.036,15.913 12.790 L 15.987 12.573 15.987 8.000 L 15.987 3.427 15.914 3.211 C 15.734 2.683,15.318 2.266,14.792 2.088 L 14.573 2.013 8.067 2.009 C 4.437 2.007,1.508 2.016,1.442 2.029 M14.419 3.581 L 14.493 3.655 14.493 8.000 L 14.493 12.345 14.419 12.419 L 14.345 12.493 8.000 12.493 L 1.655 12.493 1.581 12.419 L 1.507 12.345 1.507 8.002 C 1.507 3.696,1.507 3.658,1.560 3.600 C 1.589 3.567,1.637 3.531,1.667 3.518 C 1.696 3.506,4.561 3.499,8.033 3.502 L 14.345 3.507 14.419 3.581 M6.081 5.275 L 6.000 5.356 6.000 8.000 L 6.000 10.644 6.081 10.725 C 6.147 10.792,6.178 10.804,6.261 10.795 C 6.334 10.788,6.919 10.450,8.527 9.485 C 10.266 8.440,10.702 8.168,10.735 8.103 C 10.792 7.994,10.763 7.881,10.658 7.803 C 10.611 7.769,9.625 7.172,8.467 6.478 C 6.906 5.542,6.334 5.212,6.261 5.205 C 6.178 5.196,6.147 5.208,6.081 5.275 " stroke="none" fill-rule="evenodd" fill="black"></path></svg>