<svg xmlns="http://www.w3.org/2000/svg" width="16" height="16" viewBox="0 0 16 16"><path d="M7.187 0.546 C 6.401 0.671,5.719 1.010,5.152 1.558 C 4.610 2.081,4.262 2.699,4.086 3.451 C 4.025 3.710,4.017 3.807,4.015 4.227 C 4.014 4.760,4.048 4.995,4.191 5.422 C 4.379 5.985,4.662 6.446,5.082 6.875 L 5.353 7.150 4.197 9.315 C 3.403 10.802,3.032 11.523,3.013 11.616 C 2.963 11.856,3.056 12.125,3.251 12.301 C 3.594 12.611,4.111 12.547,4.367 12.163 C 4.506 11.955,7.019 7.221,7.058 7.096 C 7.104 6.943,7.103 6.841,7.052 6.669 C 7.000 6.495,6.818 6.306,6.539 6.135 C 6.201 5.928,5.929 5.624,5.736 5.239 C 5.280 4.327,5.519 3.187,6.304 2.529 C 6.522 2.347,6.937 2.134,7.213 2.063 C 7.484 1.993,8.047 1.999,8.324 2.074 C 9.270 2.332,9.928 3.144,9.991 4.133 C 10.022 4.622,10.200 4.876,10.577 4.973 C 10.840 5.040,11.080 4.974,11.276 4.778 C 11.455 4.599,11.480 4.514,11.479 4.107 C 11.477 3.291,11.173 2.500,10.597 1.813 C 10.165 1.299,9.450 0.834,8.813 0.655 C 8.309 0.512,7.667 0.469,7.187 0.546 M7.600 3.518 C 7.255 3.590,7.003 3.903,7.005 4.253 C 7.006 4.341,7.026 4.458,7.049 4.513 C 7.072 4.569,7.765 5.739,8.589 7.113 C 9.631 8.851,10.123 9.647,10.201 9.724 C 10.347 9.865,10.533 9.930,10.756 9.915 C 10.887 9.906,10.977 9.876,11.200 9.766 C 11.602 9.568,11.826 9.514,12.253 9.514 C 12.663 9.514,12.906 9.568,13.240 9.734 C 14.175 10.196,14.672 11.259,14.430 12.275 C 14.159 13.409,13.041 14.158,11.895 13.972 C 11.669 13.935,11.450 13.860,11.173 13.724 C 10.968 13.624,10.928 13.613,10.747 13.614 C 10.582 13.615,10.522 13.627,10.410 13.686 C 9.977 13.912,9.868 14.472,10.187 14.834 C 10.374 15.046,10.961 15.309,11.520 15.430 C 11.694 15.468,11.862 15.479,12.240 15.480 C 12.798 15.480,12.950 15.457,13.424 15.303 C 14.001 15.115,14.428 14.851,14.882 14.400 C 15.447 13.839,15.783 13.213,15.938 12.434 C 16.011 12.069,16.004 11.376,15.924 11.017 C 15.585 9.492,14.491 8.400,12.978 8.075 C 12.760 8.028,12.618 8.017,12.253 8.016 C 11.783 8.016,11.516 8.051,11.167 8.160 C 11.076 8.188,11.001 8.209,10.999 8.206 C 10.996 8.203,10.402 7.211,9.677 6.002 C 8.953 4.793,8.320 3.764,8.270 3.716 C 8.102 3.552,7.825 3.470,7.600 3.518 M2.012 8.448 C 1.623 8.583,0.957 9.175,0.621 9.686 C 0.178 10.360,-0.019 11.061,0.009 11.867 C 0.045 12.895,0.424 13.744,1.167 14.457 C 1.678 14.947,2.285 15.270,2.993 15.428 C 3.289 15.493,3.983 15.509,4.308 15.458 C 5.361 15.291,6.282 14.705,6.872 13.827 C 7.086 13.508,7.313 12.995,7.387 12.661 L 7.422 12.508 9.931 12.501 C 12.747 12.492,12.523 12.509,12.759 12.292 C 13.139 11.941,13.047 11.314,12.580 11.082 L 12.443 11.013 9.508 11.014 L 6.573 11.014 6.438 11.077 C 6.147 11.212,6.018 11.438,5.992 11.857 C 5.971 12.193,5.911 12.421,5.760 12.733 C 5.489 13.293,5.023 13.697,4.427 13.889 C 3.200 14.284,1.887 13.550,1.571 12.293 C 1.493 11.981,1.491 11.538,1.568 11.227 C 1.710 10.645,2.032 10.195,2.559 9.841 C 2.883 9.623,2.991 9.454,2.994 9.160 C 2.996 8.941,2.911 8.753,2.740 8.599 C 2.529 8.409,2.277 8.357,2.012 8.448 " stroke="none" fill-rule="evenodd" fill="black"></path></svg>