<svg xmlns="http://www.w3.org/2000/svg" width="24" height="24" viewBox="0 0 24 24"><path d="M2.580 1.047 C 1.859 1.185,1.199 1.848,1.044 2.592 C 1.014 2.737,1.000 3.895,1.000 6.274 C 1.000 10.096,0.992 9.969,1.250 10.453 C 1.487 10.898,1.905 11.245,2.400 11.409 C 2.641 11.488,2.760 11.496,4.067 11.511 L 5.474 11.527 5.490 13.753 C 5.507 16.278,5.506 16.272,5.847 16.931 C 6.085 17.391,6.609 17.915,7.069 18.153 C 7.728 18.494,7.722 18.493,10.247 18.510 L 12.473 18.526 12.489 19.933 C 12.504 21.240,12.512 21.359,12.591 21.600 C 12.755 22.095,13.102 22.513,13.547 22.750 C 14.031 23.008,13.904 23.000,17.726 23.000 C 20.105 23.000,21.263 22.986,21.408 22.956 C 22.158 22.799,22.799 22.158,22.956 21.408 C 22.986 21.263,23.000 20.105,23.000 17.726 C 23.000 13.904,23.008 14.031,22.750 13.547 C 22.517 13.110,22.135 12.789,21.640 12.614 L 21.380 12.522 17.774 12.521 C 14.289 12.520,14.160 12.523,13.911 12.599 C 13.378 12.764,12.934 13.153,12.694 13.667 C 12.508 14.066,12.482 14.322,12.481 15.750 L 12.480 17.000 10.364 17.000 C 8.350 17.000,8.236 16.996,7.985 16.919 C 7.634 16.810,7.302 16.510,7.136 16.151 L 7.020 15.900 7.008 13.710 L 6.997 11.520 8.248 11.519 C 8.937 11.519,9.623 11.501,9.773 11.479 C 10.364 11.393,11.002 10.953,11.249 10.459 C 11.516 9.927,11.500 10.191,11.500 6.260 C 11.500 2.919,11.495 2.685,11.427 2.460 C 11.211 1.757,10.652 1.226,9.956 1.062 C 9.737 1.010,9.196 1.002,6.240 1.005 C 4.235 1.007,2.696 1.025,2.580 1.047 M9.757 2.578 C 10.009 2.709,10.000 2.574,10.000 6.258 C 10.000 9.951,10.013 9.760,9.748 9.922 C 9.624 9.997,9.522 10.000,6.266 10.000 C 3.244 10.000,2.898 9.994,2.774 9.935 C 2.507 9.808,2.520 10.000,2.520 6.218 L 2.520 2.792 2.656 2.656 L 2.792 2.520 6.218 2.520 C 9.139 2.520,9.661 2.529,9.757 2.578 M21.226 14.065 C 21.493 14.192,21.480 14.000,21.480 17.782 L 21.480 21.208 21.348 21.340 C 21.253 21.435,21.164 21.480,21.038 21.498 C 20.940 21.512,19.402 21.519,17.620 21.512 C 14.655 21.501,14.369 21.494,14.255 21.432 C 13.989 21.286,14.000 21.445,14.000 17.742 C 14.000 14.049,13.987 14.240,14.252 14.078 C 14.376 14.003,14.478 14.000,17.734 14.000 C 20.756 14.000,21.102 14.006,21.226 14.065 " stroke="none" fill-rule="evenodd" fill="black"></path></svg>