<svg xmlns="http://www.w3.org/2000/svg" width="16" height="16" viewBox="0 0 16 16"><path d="M1.442 0.028 C 0.798 0.158,0.295 0.596,0.087 1.210 L 0.013 1.427 0.006 3.418 C -0.003 5.653,-0.004 5.633,0.185 6.013 C 0.416 6.479,0.790 6.793,1.280 6.933 C 1.440 6.979,1.583 6.993,1.992 7.006 L 2.505 7.021 2.513 9.237 L 2.521 11.453 2.582 11.653 C 2.848 12.531,3.465 13.147,4.348 13.418 L 4.547 13.479 6.763 13.487 L 8.979 13.495 8.994 14.008 C 9.006 14.421,9.020 14.559,9.066 14.720 C 9.207 15.211,9.521 15.584,9.987 15.815 C 10.367 16.004,10.347 16.003,12.582 15.994 L 14.573 15.987 14.790 15.913 C 15.036 15.830,15.347 15.636,15.511 15.463 C 15.678 15.287,15.832 15.029,15.914 14.789 L 15.987 14.573 15.994 12.582 C 16.003 10.347,16.004 10.368,15.815 9.987 C 15.640 9.633,15.372 9.361,15.022 9.185 C 14.671 9.009,14.695 9.010,12.413 9.019 C 10.361 9.027,10.360 9.027,10.203 9.087 C 9.744 9.261,9.392 9.565,9.203 9.950 C 9.020 10.323,9.008 10.400,8.994 11.247 L 8.981 12.001 6.870 11.994 L 4.760 11.987 4.597 11.911 C 4.391 11.816,4.186 11.610,4.088 11.400 L 4.013 11.240 4.006 9.130 L 3.998 7.019 4.753 7.006 C 5.601 6.992,5.676 6.980,6.052 6.796 C 6.367 6.642,6.641 6.367,6.796 6.052 C 7.009 5.618,7.000 5.726,7.000 3.507 C 7.000 1.680,6.996 1.519,6.951 1.343 C 6.798 0.745,6.361 0.280,5.760 0.073 C 5.587 0.014,5.580 0.014,3.573 0.009 C 2.466 0.007,1.507 0.015,1.442 0.028 M5.361 1.534 C 5.403 1.556,5.451 1.597,5.466 1.625 C 5.484 1.659,5.493 2.301,5.493 3.503 L 5.493 5.329 5.424 5.411 L 5.355 5.493 3.510 5.493 C 1.497 5.493,1.589 5.500,1.523 5.341 C 1.500 5.286,1.494 4.784,1.499 3.463 C 1.506 1.702,1.508 1.658,1.560 1.600 C 1.589 1.567,1.637 1.531,1.667 1.519 C 1.696 1.507,2.522 1.496,3.501 1.495 C 5.040 1.494,5.293 1.499,5.361 1.534 M14.413 10.570 C 14.448 10.605,14.484 10.674,14.493 10.724 C 14.502 10.773,14.505 11.608,14.501 12.579 L 14.493 14.345 14.419 14.419 L 14.345 14.493 12.490 14.493 L 10.635 14.493 10.571 14.419 L 10.507 14.344 10.507 12.503 L 10.507 10.663 10.585 10.585 L 10.663 10.507 12.506 10.507 L 14.349 10.507 14.413 10.570 " stroke="none" fill-rule="evenodd" fill="black"></path></svg>