<svg xmlns="http://www.w3.org/2000/svg" width="16" height="16" viewBox="0 0 16 16"><path d="M4.107 3.517 C 3.949 3.550,3.822 3.626,3.696 3.760 C 3.495 3.974,3.446 4.266,3.563 4.552 C 3.593 4.624,4.080 5.130,5.275 6.327 L 6.946 8.000 5.276 9.673 C 3.762 11.192,3.603 11.359,3.563 11.478 C 3.467 11.769,3.531 12.041,3.745 12.255 C 3.959 12.469,4.231 12.533,4.522 12.437 C 4.641 12.397,4.808 12.238,6.327 10.724 L 8.000 9.054 9.674 10.726 C 11.518 12.569,11.452 12.514,11.780 12.512 C 12.192 12.509,12.509 12.190,12.512 11.776 C 12.514 11.453,12.566 11.514,10.726 9.673 L 9.053 8.000 10.726 6.327 C 12.566 4.486,12.514 4.547,12.512 4.224 C 12.510 3.950,12.378 3.721,12.141 3.582 C 12.050 3.529,11.973 3.509,11.824 3.499 C 11.457 3.475,11.576 3.377,9.687 5.263 L 8.000 6.946 6.340 5.289 C 5.274 4.224,4.642 3.613,4.573 3.579 C 4.449 3.517,4.239 3.490,4.107 3.517 " stroke="none" fill-rule="evenodd" fill="black"></path></svg>