<svg xmlns="http://www.w3.org/2000/svg" width="24" height="24" viewBox="0 0 24 24"><path d="M17.480 5.543 C 17.390 5.581,16.384 6.558,14.670 8.271 L 12.000 10.940 9.350 8.294 C 7.893 6.838,6.642 5.619,6.572 5.584 C 6.502 5.549,6.363 5.520,6.265 5.520 C 5.756 5.520,5.425 5.928,5.529 6.429 C 5.567 6.614,5.657 6.709,8.253 9.310 L 10.939 12.000 8.274 14.670 C 6.119 16.829,5.599 17.370,5.560 17.495 C 5.375 18.076,5.924 18.625,6.505 18.440 C 6.630 18.401,7.171 17.881,9.330 15.726 L 12.000 13.061 14.670 15.729 C 16.534 17.592,17.385 18.416,17.489 18.459 C 17.776 18.577,18.044 18.526,18.275 18.308 C 18.516 18.079,18.582 17.786,18.459 17.489 C 18.416 17.385,17.592 16.534,15.729 14.670 L 13.060 12.000 15.729 9.330 C 17.592 7.466,18.416 6.615,18.459 6.511 C 18.617 6.127,18.455 5.739,18.060 5.556 C 17.867 5.467,17.669 5.462,17.480 5.543 " stroke="none" fill-rule="evenodd" fill="black"></path></svg>