<svg xmlns="http://www.w3.org/2000/svg" width="12" height="12" viewBox="0 0 12 12"><path d="M5.513 0.020 C 4.339 0.126,3.243 0.549,2.350 1.240 C 1.094 2.212,0.297 3.575,0.057 5.160 C 0.017 5.426,0.010 5.546,0.010 6.000 C 0.010 6.454,0.017 6.574,0.057 6.840 C 0.339 8.706,1.417 10.290,3.033 11.215 C 4.220 11.894,5.613 12.142,6.980 11.918 C 9.866 11.445,12.000 8.929,12.000 6.000 C 12.000 4.800,11.619 3.569,10.950 2.610 C 9.951 1.177,8.470 0.274,6.750 0.049 C 6.462 0.012,5.786 -0.004,5.513 0.020 M5.005 3.775 L 6.000 4.770 7.000 3.770 L 8.000 2.770 8.615 3.385 L 9.230 4.000 8.230 5.000 L 7.230 6.000 8.230 7.000 L 9.230 8.000 8.615 8.615 L 8.000 9.230 7.000 8.230 L 6.000 7.230 5.000 8.230 L 4.000 9.230 3.385 8.615 L 2.770 8.000 3.770 7.000 L 4.770 6.000 3.770 5.000 L 2.770 4.000 3.380 3.390 C 3.715 3.055,3.994 2.780,4.000 2.780 C 4.005 2.780,4.458 3.228,5.005 3.775 " stroke="none" fill-rule="evenodd" fill="black"></path></svg>