<svg xmlns="http://www.w3.org/2000/svg" width="24" height="24" viewBox="0 0 24 24"><path d="M11.069 1.039 C 8.822 1.258,6.868 2.041,5.101 3.432 C 4.640 3.795,3.606 4.863,3.231 5.363 C 2.075 6.906,1.379 8.590,1.093 10.540 C 0.995 11.212,0.995 12.788,1.093 13.460 C 1.379 15.409,2.074 17.091,3.230 18.637 C 3.685 19.244,4.756 20.315,5.363 20.770 C 6.909 21.926,8.591 22.621,10.540 22.907 C 11.212 23.005,12.788 23.005,13.460 22.907 C 15.409 22.621,17.091 21.926,18.637 20.770 C 19.244 20.315,20.315 19.244,20.770 18.637 C 21.926 17.091,22.621 15.409,22.907 13.460 C 22.959 13.104,22.977 12.727,22.977 12.000 C 22.977 11.273,22.959 10.896,22.907 10.540 C 22.621 8.590,21.925 6.906,20.769 5.363 C 20.394 4.863,19.360 3.795,18.899 3.432 C 17.302 2.175,15.548 1.412,13.580 1.120 C 12.946 1.026,11.638 0.984,11.069 1.039 M13.580 2.636 C 15.625 3.000,17.390 3.930,18.801 5.385 C 20.173 6.801,21.013 8.453,21.368 10.437 C 21.491 11.124,21.501 12.777,21.386 13.460 C 21.215 14.477,20.944 15.322,20.501 16.220 C 19.286 18.680,17.045 20.498,14.360 21.200 C 12.866 21.590,11.134 21.590,9.640 21.200 C 6.968 20.501,4.760 18.719,3.518 16.260 C 3.086 15.405,2.814 14.576,2.632 13.563 C 2.553 13.124,2.542 12.925,2.542 12.000 C 2.542 11.075,2.553 10.876,2.632 10.437 C 2.814 9.424,3.086 8.595,3.518 7.740 C 4.902 5.000,7.541 3.072,10.520 2.625 C 11.170 2.527,11.163 2.527,12.160 2.539 C 12.906 2.548,13.199 2.568,13.580 2.636 M8.397 7.801 C 7.961 7.876,7.689 8.295,7.803 8.717 C 7.847 8.882,8.000 9.049,9.395 10.450 L 10.938 12.000 9.374 13.570 C 7.914 15.037,7.808 15.153,7.765 15.330 C 7.633 15.875,8.101 16.350,8.655 16.234 C 8.855 16.192,8.895 16.157,10.430 14.626 L 12.001 13.061 13.530 14.589 C 14.570 15.628,15.108 16.137,15.209 16.179 C 15.587 16.335,16.012 16.147,16.178 15.751 C 16.251 15.576,16.255 15.476,16.196 15.260 C 16.160 15.125,15.914 14.861,14.607 13.550 L 13.062 12.000 14.625 10.430 C 16.086 8.963,16.192 8.847,16.235 8.670 C 16.350 8.198,16.008 7.760,15.524 7.760 C 15.410 7.760,15.258 7.789,15.188 7.824 C 15.118 7.859,14.372 8.574,13.530 9.413 L 12.001 10.939 10.448 9.389 C 9.594 8.537,8.879 7.840,8.858 7.839 C 8.837 7.839,8.757 7.824,8.680 7.807 C 8.603 7.790,8.475 7.787,8.397 7.801 " stroke="none" fill-rule="evenodd" fill="black"></path></svg>