<svg xmlns="http://www.w3.org/2000/svg" width="16" height="16" viewBox="0 0 16 16"><path d="M7.350 0.029 C 5.995 0.141,4.704 0.589,3.573 1.342 C 1.789 2.529,0.537 4.387,0.120 6.466 C 0.006 7.036,-0.005 7.197,0.007 8.164 C 0.016 8.969,0.025 9.117,0.076 9.387 C 0.344 10.782,0.876 11.966,1.706 13.013 C 1.991 13.373,2.627 14.009,2.987 14.294 C 4.034 15.124,5.218 15.656,6.613 15.924 C 6.883 15.975,7.031 15.984,7.836 15.993 C 8.803 16.005,8.964 15.994,9.534 15.880 C 10.718 15.642,11.919 15.093,12.867 14.355 C 14.851 12.811,16.000 10.479,16.000 8.000 C 16.000 5.324,14.660 2.828,12.427 1.342 C 10.931 0.347,9.134 -0.118,7.350 0.029 M8.591 1.493 C 10.123 1.642,11.591 2.358,12.661 3.479 C 13.145 3.986,13.500 4.503,13.815 5.160 C 14.111 5.776,14.282 6.336,14.391 7.040 C 14.457 7.468,14.457 8.450,14.391 8.880 C 14.219 10.003,13.808 10.982,13.132 11.882 C 12.085 13.277,10.457 14.208,8.705 14.413 C 7.188 14.591,5.613 14.210,4.346 13.359 C 2.727 12.273,1.672 10.497,1.492 8.559 C 1.427 7.849,1.493 7.003,1.667 6.333 C 2.173 4.389,3.562 2.768,5.389 1.991 C 6.022 1.722,6.734 1.540,7.373 1.485 C 7.619 1.464,8.334 1.469,8.591 1.493 M10.213 4.802 C 10.123 4.842,9.832 5.116,9.047 5.901 L 8.001 6.946 6.954 5.903 C 5.978 4.931,5.897 4.857,5.763 4.813 C 5.591 4.758,5.338 4.769,5.199 4.839 C 5.071 4.904,4.912 5.060,4.848 5.186 C 4.770 5.336,4.755 5.584,4.813 5.763 C 4.857 5.897,4.931 5.978,5.903 6.954 L 6.946 8.001 5.901 9.047 C 4.749 10.200,4.737 10.215,4.738 10.520 C 4.738 10.933,5.068 11.263,5.480 11.263 C 5.786 11.263,5.800 11.251,6.953 10.099 L 8.000 9.054 9.047 10.099 C 10.200 11.251,10.214 11.263,10.520 11.263 C 10.932 11.263,11.262 10.933,11.262 10.520 C 11.263 10.215,11.251 10.200,10.099 9.047 L 9.054 8.000 10.099 6.953 C 11.251 5.800,11.263 5.785,11.262 5.480 C 11.262 5.185,11.090 4.922,10.817 4.798 C 10.663 4.728,10.373 4.730,10.213 4.802 " stroke="none" fill-rule="evenodd" fill="black"></path></svg>