<svg xmlns="http://www.w3.org/2000/svg" width="16" height="16" viewBox="0 0 16 16"><path d="M7.350 0.029 C 5.995 0.141,4.704 0.589,3.573 1.342 C 1.340 2.828,0.000 5.324,0.000 8.000 C -0.000 10.510,1.180 12.871,3.196 14.395 C 5.467 16.110,8.521 16.479,11.147 15.355 C 14.083 14.098,16.000 11.193,16.000 8.000 C 16.000 5.324,14.660 2.828,12.427 1.342 C 10.931 0.347,9.134 -0.118,7.350 0.029 M10.815 4.797 C 11.095 4.924,11.254 5.171,11.253 5.479 C 11.252 5.801,11.257 5.794,10.099 6.953 L 9.054 8.000 10.099 9.047 C 11.257 10.206,11.252 10.200,11.252 10.520 C 11.252 10.945,10.940 11.262,10.520 11.262 C 10.215 11.263,10.200 11.251,9.047 10.099 L 8.000 9.054 6.953 10.099 C 5.800 11.251,5.785 11.263,5.480 11.262 C 5.060 11.262,4.748 10.945,4.748 10.520 C 4.748 10.200,4.743 10.206,5.901 9.047 L 6.946 8.001 5.903 6.954 C 4.931 5.978,4.857 5.897,4.813 5.763 C 4.755 5.584,4.770 5.336,4.848 5.186 C 4.912 5.060,5.071 4.904,5.199 4.839 C 5.338 4.769,5.591 4.758,5.763 4.813 C 5.897 4.857,5.978 4.931,6.954 5.903 L 8.001 6.946 9.047 5.901 C 9.832 5.116,10.123 4.842,10.213 4.802 C 10.372 4.730,10.663 4.728,10.815 4.797 " stroke="none" fill-rule="evenodd" fill="black"></path></svg>