<svg xmlns="http://www.w3.org/2000/svg" width="24" height="24" viewBox="0 0 24 24"><path d="M11.069 1.039 C 8.822 1.258,6.868 2.041,5.101 3.432 C 4.640 3.795,3.606 4.863,3.231 5.363 C 2.075 6.906,1.379 8.590,1.093 10.540 C 0.995 11.212,0.995 12.788,1.093 13.460 C 1.379 15.409,2.074 17.091,3.230 18.637 C 3.685 19.244,4.756 20.315,5.363 20.770 C 6.909 21.926,8.591 22.621,10.540 22.907 C 11.212 23.005,12.788 23.005,13.460 22.907 C 15.409 22.621,17.091 21.926,18.637 20.770 C 19.244 20.315,20.315 19.244,20.770 18.637 C 21.926 17.091,22.621 15.409,22.907 13.460 C 22.959 13.104,22.977 12.727,22.977 12.000 C 22.977 11.273,22.959 10.896,22.907 10.540 C 22.621 8.590,21.925 6.906,20.769 5.363 C 20.394 4.863,19.360 3.795,18.899 3.432 C 17.302 2.175,15.548 1.412,13.580 1.120 C 12.946 1.026,11.638 0.984,11.069 1.039 M8.858 7.839 C 8.879 7.840,9.594 8.537,10.448 9.389 L 12.001 10.939 13.530 9.413 C 14.372 8.574,15.118 7.859,15.188 7.824 C 15.513 7.662,15.975 7.800,16.150 8.112 C 16.249 8.287,16.270 8.594,16.198 8.787 C 16.175 8.849,15.459 9.597,14.609 10.450 L 13.062 12.000 14.607 13.550 C 15.911 14.858,16.159 15.125,16.196 15.260 C 16.250 15.458,16.250 15.502,16.198 15.689 C 16.116 15.986,15.792 16.237,15.489 16.239 C 15.201 16.241,15.091 16.148,13.530 14.589 L 12.001 13.061 10.430 14.626 C 8.895 16.157,8.855 16.192,8.655 16.234 C 8.175 16.335,7.760 16.007,7.760 15.527 C 7.760 15.416,7.779 15.275,7.802 15.213 C 7.825 15.151,8.541 14.403,9.392 13.550 L 10.939 12.000 9.412 10.470 C 8.534 9.591,7.865 8.889,7.840 8.821 C 7.628 8.256,8.106 7.679,8.680 7.807 C 8.757 7.824,8.837 7.839,8.858 7.839 " stroke="none" fill-rule="evenodd" fill="black"></path></svg>