<svg xmlns="http://www.w3.org/2000/svg" width="24" height="24" viewBox="0 0 24 24"><path d="M16.173 1.072 C 16.060 1.112,15.898 1.198,15.813 1.262 C 15.598 1.427,3.747 11.727,3.487 11.976 C 2.894 12.544,2.760 13.326,3.129 14.060 C 3.316 14.431,3.643 14.726,4.056 14.896 C 4.253 14.977,4.340 14.981,6.623 15.000 L 8.986 15.020 7.693 18.080 C 6.141 21.749,6.187 21.631,6.212 21.925 C 6.268 22.574,6.799 23.037,7.432 22.988 C 7.588 22.976,7.751 22.933,7.861 22.874 C 8.144 22.724,20.611 11.953,20.756 11.733 C 21.135 11.162,21.157 10.448,20.814 9.855 C 20.685 9.633,20.338 9.311,20.097 9.189 C 19.740 9.009,19.601 9.000,17.314 9.000 C 15.600 9.000,15.156 8.990,15.171 8.950 C 15.182 8.922,15.795 7.520,16.533 5.833 C 17.323 4.027,17.891 2.678,17.914 2.553 C 18.053 1.786,17.457 1.053,16.661 1.012 C 16.459 1.002,16.322 1.018,16.173 1.072 M14.709 6.250 C 13.473 9.070,13.267 9.569,13.264 9.740 C 13.257 10.096,13.477 10.380,13.835 10.479 C 13.926 10.504,15.004 10.520,16.709 10.520 L 19.438 10.520 19.506 10.623 C 19.555 10.699,19.564 10.752,19.537 10.823 C 19.507 10.900,8.356 20.560,8.296 20.560 C 8.287 20.560,8.303 20.502,8.333 20.430 C 8.363 20.359,8.944 18.986,9.623 17.380 C 10.740 14.738,10.858 14.439,10.859 14.237 C 10.860 14.060,10.837 13.980,10.750 13.848 C 10.534 13.522,10.742 13.542,7.467 13.520 C 4.641 13.501,4.552 13.498,4.497 13.422 C 4.466 13.380,4.440 13.295,4.440 13.233 C 4.440 13.135,5.131 12.521,10.284 8.041 C 13.498 5.246,16.132 2.960,16.139 2.960 C 16.145 2.960,15.502 4.441,14.709 6.250 " stroke="none" fill-rule="evenodd" fill="black"></path></svg>