<svg xmlns="http://www.w3.org/2000/svg" width="16" height="16" viewBox="0 0 16 16"><path d="M10.240 0.042 C 9.922 0.110,9.710 0.239,9.352 0.582 C 7.890 1.983,2.120 7.624,2.044 7.728 C 1.579 8.361,1.607 9.222,2.111 9.859 C 2.261 10.048,2.511 10.246,2.711 10.336 C 3.049 10.487,3.068 10.488,4.392 10.505 L 5.624 10.520 4.865 12.373 C 4.447 13.393,4.082 14.303,4.053 14.396 C 3.995 14.581,3.985 14.848,4.028 15.037 C 4.106 15.372,4.361 15.697,4.669 15.851 C 4.924 15.978,5.095 16.008,5.492 15.994 C 5.855 15.981,6.015 15.937,6.232 15.792 C 6.371 15.700,13.778 8.496,13.927 8.309 C 14.596 7.468,14.296 6.174,13.318 5.685 C 12.980 5.516,12.957 5.513,11.633 5.500 C 10.970 5.494,10.427 5.485,10.427 5.482 C 10.427 5.478,10.776 4.708,11.202 3.771 C 11.665 2.753,11.998 1.987,12.029 1.869 C 12.094 1.618,12.094 1.422,12.027 1.163 C 11.880 0.587,11.438 0.160,10.867 0.040 C 10.638 -0.008,10.467 -0.007,10.240 0.042 M9.543 3.791 C 8.615 5.834,8.521 6.055,8.511 6.204 C 8.487 6.580,8.718 6.890,9.086 6.976 C 9.207 7.005,9.604 7.013,10.941 7.013 L 12.642 7.013 12.708 7.079 C 12.757 7.128,12.773 7.173,12.773 7.258 C 12.773 7.370,12.769 7.376,12.233 7.896 C 11.936 8.184,10.361 9.717,8.733 11.301 C 7.105 12.885,5.769 14.178,5.765 14.173 C 5.760 14.168,6.144 13.219,6.618 12.062 L 7.480 9.960 7.480 9.747 C 7.480 9.588,7.467 9.506,7.428 9.428 C 7.361 9.292,7.214 9.146,7.079 9.079 C 6.978 9.029,6.895 9.026,5.164 9.013 L 3.355 9.000 3.291 8.925 C 3.246 8.873,3.227 8.818,3.227 8.742 C 3.227 8.644,3.244 8.617,3.407 8.453 C 4.030 7.827,10.540 1.518,10.551 1.529 C 10.559 1.537,10.105 2.555,9.543 3.791 " stroke="none" fill-rule="evenodd" fill="black"></path></svg>