<svg id="图层_1" data-name="图层 1" xmlns="http://www.w3.org/2000/svg" viewBox="0 0 32 32"><path d="M22.25,31H9.75a4.09,4.09,0,0,1-4.09-4.09V10A4.09,4.09,0,0,1,9.75,5.94h12.5A4.09,4.09,0,0,1,26.34,10V26.87A4.09,4.09,0,0,1,22.25,31ZM9.75,8.14A1.89,1.89,0,0,0,7.86,10V26.87a1.89,1.89,0,0,0,1.89,1.89h12.5a1.89,1.89,0,0,0,1.89-1.89V10a1.89,1.89,0,0,0-1.89-1.89Z"/><path d="M18.17,8.14H13.83A2.14,2.14,0,0,1,11.69,6V3.53a2.14,2.14,0,0,1,2.14-2.14h4.34a2.14,2.14,0,0,1,2.14,2.14V6A2.14,2.14,0,0,1,18.17,8.14Zm-.06-4.61-4.28.06L13.89,6l4.22-.06Zm.06,2.41Z"/><path d="M16,26a1.11,1.11,0,0,1-.46-.11A1.09,1.09,0,0,1,15,24.42l2.91-6.33-5.35,1a1.11,1.11,0,0,1-1.09-.43,1.08,1.08,0,0,1-.08-1.16L15,10.57a1.1,1.1,0,1,1,1.94,1l-2.58,4.89,5.21-.94a1.07,1.07,0,0,1,1.06.41,1.1,1.1,0,0,1,.13,1.13L17,25.33A1.1,1.1,0,0,1,16,26Z"/></svg>