<svg id="图层_1" data-name="图层 1" xmlns="http://www.w3.org/2000/svg" viewBox="0 0 32 32"><path d="M16,29.38h0A13.41,13.41,0,0,1,3.58,21a1.14,1.14,0,0,1,.21-1.16,1.1,1.1,0,0,1,1.13-.31,11.62,11.62,0,0,0,11.5-3.1,11.62,11.62,0,0,0,3.1-11.5,1.1,1.1,0,0,1,.31-1.13A1.15,1.15,0,0,1,21,3.58a13.37,13.37,0,0,1,4.47,3h0A13.37,13.37,0,0,1,16,29.38ZM6.63,22.1A10.52,10.52,0,0,0,8.1,23.9,11.08,11.08,0,0,0,16,27.18h0A11.17,11.17,0,0,0,23.9,8.1a10.92,10.92,0,0,0-1.8-1.47A14,14,0,0,1,18,18,14,14,0,0,1,6.63,22.1Z"/></svg>