<svg id="图层_1" data-name="图层 1" xmlns="http://www.w3.org/2000/svg" viewBox="0 0 32 32"><path d="M22.25,31H9.75a4.09,4.09,0,0,1-4.09-4.09V10A4.09,4.09,0,0,1,9.75,5.94h12.5A4.09,4.09,0,0,1,26.34,10V26.87A4.09,4.09,0,0,1,22.25,31ZM9.75,8.14A1.89,1.89,0,0,0,7.86,10V26.87a1.89,1.89,0,0,0,1.89,1.89h12.5a1.89,1.89,0,0,0,1.89-1.89V10a1.89,1.89,0,0,0-1.89-1.89Z"/><path d="M18.17,8.14H13.83A2.14,2.14,0,0,1,11.69,6V3.53a2.14,2.14,0,0,1,2.14-2.14h4.34a2.14,2.14,0,0,1,2.14,2.14V6A2.14,2.14,0,0,1,18.17,8.14Zm-.06-4.61-4.28.06L13.89,6l4.22-.06Zm.06,2.41Z"/><path d="M16,25.92a1.09,1.09,0,0,1-1.1-1.1,1.1,1.1,0,0,1,1.32-1.08l.2.07a.69.69,0,0,1,.19.1,1.09,1.09,0,0,1,.17.13,1.14,1.14,0,0,1,.32.78,1.12,1.12,0,0,1-.32.78A1.1,1.1,0,0,1,16,25.92Z"/><path d="M16,22.34a1.1,1.1,0,0,1-1.1-1.1v-1.6A3.93,3.93,0,0,1,17,16.38c.76-.54,1.07-.8,1.07-1.19A2,2,0,0,0,16,13.11a2,2,0,0,0-2.13,2.08,1.1,1.1,0,0,1-2.2,0A4.17,4.17,0,0,1,16,10.91a4.15,4.15,0,0,1,4.29,4.28,3.65,3.65,0,0,1-2,3c-.86.61-1.21.91-1.21,1.47v1.6A1.1,1.1,0,0,1,16,22.34Z"/></svg>