<svg id="图层_1" data-name="图层 1" xmlns="http://www.w3.org/2000/svg" viewBox="0 0 32 32"><path d="M16,22.66A6.66,6.66,0,1,1,22.66,16,6.67,6.67,0,0,1,16,22.66Zm0-11.12A4.46,4.46,0,1,0,20.46,16,4.46,4.46,0,0,0,16,11.54Z"/><path d="M16,7.59a1.1,1.1,0,0,1-1.1-1.1V2.27a1.1,1.1,0,0,1,2.2,0V6.49A1.1,1.1,0,0,1,16,7.59Z"/><path d="M22.72,10.38a1.13,1.13,0,0,1-.78-.32,1.1,1.1,0,0,1,0-1.56l3-3a1.1,1.1,0,0,1,1.55,1.55l-3,3A1.11,1.11,0,0,1,22.72,10.38Z"/><path d="M29.72,17.1H25.51a1.1,1.1,0,0,1,0-2.2h4.21a1.1,1.1,0,1,1,0,2.2Z"/><path d="M25.71,26.8a1.06,1.06,0,0,1-.78-.32l-3-3a1.1,1.1,0,1,1,1.56-1.56l3,3a1.09,1.09,0,0,1,0,1.55A1.05,1.05,0,0,1,25.71,26.8Z"/><path d="M16,30.82a1.1,1.1,0,0,1-1.1-1.1V25.51a1.1,1.1,0,0,1,2.2,0v4.21A1.1,1.1,0,0,1,16,30.82Z"/><path d="M6.29,26.8a1.05,1.05,0,0,1-.77-.32,1.09,1.09,0,0,1,0-1.55l3-3a1.12,1.12,0,0,1,1.56,0,1.1,1.1,0,0,1,0,1.56l-3,3A1.06,1.06,0,0,1,6.29,26.8Z"/><path d="M6.49,17.1H2.27a1.1,1.1,0,0,1,0-2.2H6.49a1.1,1.1,0,0,1,0,2.2Z"/><path d="M9.28,10.38a1.13,1.13,0,0,1-.78-.32l-3-3A1.1,1.1,0,0,1,7.07,5.52l3,3a1.1,1.1,0,0,1,0,1.56A1.13,1.13,0,0,1,9.28,10.38Z"/></svg>